<?xml version="1.0" encoding="UTF-8"?>
<svg width="165px" height="80px" viewBox="0 0 165 80" version="1.1" xmlns="http://www.w3.org/2000/svg" xmlns:xlink="http://www.w3.org/1999/xlink">
    <title>Group@1x</title>
    <defs>
        <rect id="path-1" x="0" y="0" width="137" height="52" rx="8"></rect>
        <filter x="-20.4%" y="-26.9%" width="140.9%" height="207.7%" filterUnits="objectBoundingBox" id="filter-2">
            <feMorphology radius="5" operator="erode" in="SourceAlpha" result="shadowSpreadOuter1"></feMorphology>
            <feOffset dx="0" dy="14" in="shadowSpreadOuter1" result="shadowOffsetOuter1"></feOffset>
            <feGaussianBlur stdDeviation="12" in="shadowOffsetOuter1" result="shadowBlurOuter1"></feGaussianBlur>
            <feColorMatrix values="0 0 0 0 0   0 0 0 0 0.101960784   0 0 0 0 0.250980392  0 0 0 0.28 0" type="matrix" in="shadowBlurOuter1"></feColorMatrix>
        </filter>
    </defs>
    <g id="Final_02" stroke="none" stroke-width="1" fill="none" fill-rule="evenodd">
        <g id="Desktop---CHR-Credit-alert" transform="translate(-1031.000000, -738.000000)">
            <g id="Group-20" transform="translate(372.000000, 684.000000)">
                <g id="Group-11" transform="translate(450.000000, 54.000000)">
                    <g id="Group" transform="translate(223.000000, 0.000000)">
                        <g id="Rectangle" fill-rule="nonzero">
                            <use fill="black" fill-opacity="1" filter="url(#filter-2)" xlink:href="#path-1"></use>
                            <use fill="#FFFFFF" xlink:href="#path-1"></use>
                        </g>
                        <path d="M38.333,31.833 L38.333,34.333 L21.667,34.333 L21.667,31.833 C21.667,31.375 22.042,31 22.5,31 L37.5,31 C37.958,31 38.333,31.375 38.333,31.833 Z" id="Path" fill="#E3A443" fill-rule="nonzero"></path>
                        <polygon id="Path" fill="#E3A443" fill-rule="nonzero" opacity="0.6" points="26.333 25.167 23 25.167 23 31 26.333 31"></polygon>
                        <polygon id="Path" fill="#E3A443" fill-rule="nonzero" opacity="0.4" points="33.667 25.167 26.333 25.167 26.333 31 33.667 31"></polygon>
                        <polygon id="Path" fill="#E3A443" fill-rule="nonzero" opacity="0.6" points="37 25.167 33.667 25.167 33.667 31 37 31"></polygon>
                        <path d="M39.167,34.958 L20.833,34.958 C20.492,34.958 20.208,34.675 20.208,34.333 C20.208,33.991 20.492,33.708 20.833,33.708 L39.167,33.708 C39.508,33.708 39.792,33.991 39.792,34.333 C39.792,34.675 39.508,34.958 39.167,34.958 Z" id="Path" fill="#704200" fill-rule="nonzero"></path>
                        <path d="M37.808,20.791 L30.308,17.7912 C30.142,17.7245 29.858,17.7245 29.692,17.7912 L22.192,20.791 C21.9,20.908 21.667,21.25 21.667,21.566 L21.667,24.333 C21.667,24.791 22.042,25.166 22.5,25.166 L37.5,25.166 C37.958,25.166 38.333,24.791 38.333,24.333 L38.333,21.566 C38.333,21.25 38.1,20.908 37.808,20.791 Z M30,23.083 C29.308,23.083 28.75,22.525 28.75,21.833 C28.75,21.141 29.308,20.583 30,20.583 C30.692,20.583 31.25,21.141 31.25,21.833 C31.25,22.525 30.692,23.083 30,23.083 Z" id="Shape" fill="#E3A443" fill-rule="nonzero"></path>
                        <g transform="translate(33.500000, 16.000000)" id="Oval">
                            <circle fill="#FF0F00" fill-rule="nonzero" cx="3.5" cy="3.5" r="3"></circle>
                            <circle stroke="#FFFFFF" cx="3.5" cy="3.5" r="3.5"></circle>
                        </g>
                        <path d="M61.434,22 L60.596,19.621 L57.32,19.621 L56.482,22 L55,22 L58.188,13.3984 L59.746,13.3984 L62.928,22 L61.434,22 Z M60.232,18.4141 L59.418,16.0703 C59.387,15.9688 59.342,15.8262 59.283,15.6426 C59.225,15.4551 59.166,15.2656 59.107,15.0742 C59.049,14.8789 59,14.7148 58.961,14.582 C58.922,14.7422 58.873,14.9219 58.814,15.1211 C58.76,15.3164 58.705,15.5 58.65,15.6719 C58.6,15.8438 58.561,15.9766 58.533,16.0703 L57.713,18.4141 L60.232,18.4141 Z M66.531,22.117 C65.918,22.117 65.387,21.998 64.938,21.76 C64.488,21.521 64.143,21.156 63.9,20.664 C63.658,20.172 63.537,19.547 63.537,18.7891 C63.537,18 63.67,17.3555 63.936,16.8555 C64.201,16.3555 64.568,15.9863 65.037,15.748 C65.51,15.5098 66.051,15.3906 66.66,15.3906 C67.047,15.3906 67.396,15.4297 67.709,15.5078 C68.025,15.582 68.293,15.6738 68.512,15.7832 L68.102,16.8848 C67.863,16.7871 67.619,16.7051 67.369,16.6387 C67.119,16.5723 66.879,16.5391 66.648,16.5391 C66.27,16.5391 65.953,16.623 65.699,16.791 C65.449,16.959 65.262,17.209 65.137,17.541 C65.016,17.873 64.955,18.2852 64.955,18.7773 C64.955,19.254 65.018,19.656 65.143,19.984 C65.268,20.309 65.453,20.555 65.699,20.723 C65.945,20.887 66.248,20.969 66.607,20.969 C66.963,20.969 67.281,20.926 67.562,20.84 C67.844,20.754 68.109,20.643 68.359,20.506 L68.359,21.701 C68.113,21.842 67.85,21.945 67.568,22.012 C67.287,22.082 66.941,22.117 66.531,22.117 Z M72.496,22.117 C71.883,22.117 71.352,21.998 70.902,21.76 C70.453,21.521 70.107,21.156 69.865,20.664 C69.623,20.172 69.502,19.547 69.502,18.7891 C69.502,18 69.635,17.3555 69.9,16.8555 C70.166,16.3555 70.533,15.9863 71.002,15.748 C71.475,15.5098 72.016,15.3906 72.625,15.3906 C73.012,15.3906 73.361,15.4297 73.674,15.5078 C73.99,15.582 74.258,15.6738 74.477,15.7832 L74.066,16.8848 C73.828,16.7871 73.584,16.7051 73.334,16.6387 C73.084,16.5723 72.844,16.5391 72.613,16.5391 C72.234,16.5391 71.918,16.623 71.664,16.791 C71.414,16.959 71.227,17.209 71.102,17.541 C70.98,17.873 70.92,18.2852 70.92,18.7773 C70.92,19.254 70.982,19.656 71.107,19.984 C71.232,20.309 71.418,20.555 71.664,20.723 C71.91,20.887 72.213,20.969 72.572,20.969 C72.928,20.969 73.246,20.926 73.527,20.84 C73.809,20.754 74.074,20.643 74.324,20.506 L74.324,21.701 C74.078,21.842 73.814,21.945 73.533,22.012 C73.252,22.082 72.906,22.117 72.496,22.117 Z M81.59,18.7422 C81.59,19.281 81.52,19.76 81.379,20.178 C81.238,20.596 81.033,20.949 80.764,21.238 C80.494,21.523 80.17,21.742 79.791,21.895 C79.412,22.043 78.984,22.117 78.508,22.117 C78.062,22.117 77.654,22.043 77.283,21.895 C76.912,21.742 76.59,21.523 76.316,21.238 C76.047,20.949 75.838,20.596 75.689,20.178 C75.541,19.76 75.467,19.281 75.467,18.7422 C75.467,18.0273 75.59,17.4219 75.836,16.9258 C76.086,16.4258 76.441,16.0449 76.902,15.7832 C77.363,15.5215 77.912,15.3906 78.549,15.3906 C79.146,15.3906 79.674,15.5215 80.131,15.7832 C80.588,16.0449 80.945,16.4258 81.203,16.9258 C81.461,17.4258 81.59,18.0312 81.59,18.7422 Z M76.885,18.7422 C76.885,19.215 76.941,19.619 77.055,19.955 C77.172,20.291 77.352,20.549 77.594,20.729 C77.836,20.904 78.148,20.992 78.531,20.992 C78.914,20.992 79.227,20.904 79.469,20.729 C79.711,20.549 79.889,20.291 80.002,19.955 C80.115,19.619 80.172,19.215 80.172,18.7422 C80.172,18.2695 80.115,17.8691 80.002,17.541 C79.889,17.209 79.711,16.957 79.469,16.7852 C79.227,16.6094 78.912,16.5215 78.525,16.5215 C77.955,16.5215 77.539,16.7129 77.277,17.0957 C77.016,17.4785 76.885,18.0273 76.885,18.7422 Z M88.826,15.5137 L88.826,22 L87.742,22 L87.555,21.127 L87.479,21.127 C87.342,21.35 87.168,21.535 86.957,21.684 C86.746,21.828 86.512,21.936 86.254,22.006 C85.996,22.08 85.725,22.117 85.439,22.117 C84.951,22.117 84.533,22.035 84.186,21.871 C83.842,21.703 83.578,21.445 83.395,21.098 C83.211,20.75 83.119,20.301 83.119,19.75 L83.119,15.5137 L84.502,15.5137 L84.502,19.492 C84.502,19.996 84.604,20.373 84.807,20.623 C85.014,20.873 85.334,20.998 85.768,20.998 C86.186,20.998 86.518,20.912 86.764,20.74 C87.01,20.568 87.184,20.314 87.285,19.979 C87.391,19.643 87.443,19.23 87.443,18.7422 L87.443,15.5137 L88.826,15.5137 Z M94.182,15.3906 C94.912,15.3906 95.48,15.5801 95.887,15.959 C96.297,16.334 96.502,16.9375 96.502,17.7695 L96.502,22 L95.125,22 L95.125,18.0273 C95.125,17.5234 95.021,17.1465 94.814,16.8965 C94.607,16.6426 94.287,16.5156 93.854,16.5156 C93.225,16.5156 92.787,16.709 92.541,17.0957 C92.299,17.4824 92.178,18.043 92.178,18.7773 L92.178,22 L90.801,22 L90.801,15.5137 L91.873,15.5137 L92.066,16.3926 L92.143,16.3926 C92.283,16.166 92.457,15.9805 92.664,15.8359 C92.875,15.6875 93.109,15.5762 93.367,15.502 C93.629,15.4277 93.9,15.3906 94.182,15.3906 Z M100.844,21.004 C101.023,21.004 101.201,20.988 101.377,20.957 C101.553,20.922 101.713,20.881 101.857,20.834 L101.857,21.877 C101.705,21.943 101.508,22 101.266,22.047 C101.023,22.094 100.771,22.117 100.51,22.117 C100.143,22.117 99.812,22.057 99.52,21.936 C99.227,21.811 98.994,21.598 98.822,21.297 C98.65,20.996 98.564,20.58 98.564,20.049 L98.564,16.5625 L97.68,16.5625 L97.68,15.9473 L98.629,15.4609 L99.08,14.0723 L99.947,14.0723 L99.947,15.5137 L101.805,15.5137 L101.805,16.5625 L99.947,16.5625 L99.947,20.031 C99.947,20.359 100.029,20.604 100.193,20.764 C100.357,20.924 100.574,21.004 100.844,21.004 Z M62.852,31.434 L62.852,36.977 C62.852,37.574 62.725,38.109 62.471,38.582 C62.221,39.055 61.842,39.43 61.334,39.707 C60.826,39.98 60.188,40.117 59.418,40.117 C58.32,40.117 57.484,39.83 56.91,39.256 C56.34,38.678 56.055,37.91 56.055,36.953 L56.055,31.434 L57.461,31.434 L57.461,36.83 C57.461,37.545 57.629,38.072 57.965,38.412 C58.301,38.752 58.803,38.922 59.471,38.922 C59.932,38.922 60.307,38.842 60.596,38.682 C60.889,38.518 61.104,38.279 61.24,37.967 C61.381,37.65 61.451,37.27 61.451,36.824 L61.451,31.434 L62.852,31.434 Z M68.23,33.391 C69,33.391 69.617,33.672 70.082,34.234 C70.551,34.797 70.785,35.633 70.785,36.742 C70.785,37.477 70.676,38.096 70.457,38.6 C70.242,39.1 69.939,39.479 69.549,39.736 C69.162,39.99 68.711,40.117 68.195,40.117 C67.867,40.117 67.582,40.074 67.34,39.988 C67.098,39.902 66.891,39.791 66.719,39.654 C66.547,39.514 66.402,39.361 66.285,39.197 L66.203,39.197 C66.223,39.354 66.24,39.527 66.256,39.719 C66.275,39.906 66.285,40.078 66.285,40.234 L66.285,42.877 L64.902,42.877 L64.902,33.514 L66.027,33.514 L66.221,34.41 L66.285,34.41 C66.406,34.227 66.553,34.057 66.725,33.9 C66.9,33.744 67.111,33.621 67.357,33.531 C67.607,33.438 67.898,33.391 68.23,33.391 Z M67.861,34.516 C67.482,34.516 67.178,34.592 66.947,34.744 C66.721,34.893 66.555,35.117 66.449,35.418 C66.348,35.719 66.293,36.096 66.285,36.549 L66.285,36.742 C66.285,37.223 66.334,37.631 66.432,37.967 C66.533,38.299 66.699,38.553 66.93,38.729 C67.164,38.9 67.48,38.986 67.879,38.986 C68.215,38.986 68.492,38.895 68.711,38.711 C68.934,38.527 69.1,38.266 69.209,37.926 C69.318,37.586 69.373,37.186 69.373,36.725 C69.373,36.025 69.248,35.482 68.998,35.096 C68.752,34.709 68.373,34.516 67.861,34.516 Z M74.559,40.117 C73.785,40.117 73.164,39.836 72.695,39.273 C72.23,38.707 71.998,37.873 71.998,36.771 C71.998,35.658 72.234,34.816 72.707,34.246 C73.184,33.676 73.811,33.391 74.588,33.391 C74.916,33.391 75.203,33.436 75.449,33.525 C75.695,33.611 75.906,33.729 76.082,33.877 C76.262,34.025 76.414,34.191 76.539,34.375 L76.604,34.375 C76.584,34.254 76.561,34.08 76.533,33.854 C76.51,33.623 76.498,33.41 76.498,33.215 L76.498,30.883 L77.881,30.883 L77.881,40 L76.803,40 L76.557,39.115 L76.498,39.115 C76.381,39.303 76.232,39.473 76.053,39.625 C75.877,39.773 75.666,39.893 75.42,39.982 C75.178,40.072 74.891,40.117 74.559,40.117 Z M74.945,38.998 C75.535,38.998 75.951,38.828 76.193,38.488 C76.436,38.148 76.561,37.639 76.568,36.959 L76.568,36.777 C76.568,36.051 76.451,35.494 76.217,35.107 C75.982,34.717 75.555,34.521 74.934,34.521 C74.438,34.521 74.059,34.723 73.797,35.125 C73.539,35.523 73.41,36.08 73.41,36.795 C73.41,37.51 73.539,38.057 73.797,38.436 C74.059,38.811 74.441,38.998 74.945,38.998 Z M82.398,33.391 C83.219,33.391 83.838,33.572 84.256,33.936 C84.678,34.299 84.889,34.865 84.889,35.635 L84.889,40 L83.91,40 L83.646,39.08 L83.6,39.08 C83.416,39.314 83.227,39.508 83.031,39.66 C82.836,39.812 82.609,39.926 82.352,40 C82.098,40.078 81.787,40.117 81.42,40.117 C81.033,40.117 80.688,40.047 80.383,39.906 C80.078,39.762 79.838,39.543 79.662,39.25 C79.486,38.957 79.398,38.586 79.398,38.137 C79.398,37.469 79.646,36.967 80.143,36.631 C80.643,36.295 81.396,36.109 82.404,36.074 L83.529,36.033 L83.529,35.693 C83.529,35.244 83.424,34.924 83.213,34.732 C83.006,34.541 82.713,34.445 82.334,34.445 C82.01,34.445 81.695,34.492 81.391,34.586 C81.086,34.68 80.789,34.795 80.5,34.932 L80.055,33.959 C80.371,33.791 80.73,33.654 81.133,33.549 C81.539,33.443 81.961,33.391 82.398,33.391 Z M83.523,36.9 L82.686,36.93 C81.998,36.953 81.516,37.07 81.238,37.281 C80.961,37.492 80.822,37.781 80.822,38.148 C80.822,38.469 80.918,38.703 81.109,38.852 C81.301,38.996 81.553,39.068 81.865,39.068 C82.342,39.068 82.736,38.934 83.049,38.664 C83.365,38.391 83.523,37.99 83.523,37.463 L83.523,36.9 Z M89.23,39.004 C89.41,39.004 89.588,38.988 89.764,38.957 C89.939,38.922 90.1,38.881 90.244,38.834 L90.244,39.877 C90.092,39.943 89.895,40 89.652,40.047 C89.41,40.094 89.158,40.117 88.896,40.117 C88.529,40.117 88.199,40.057 87.906,39.936 C87.613,39.811 87.381,39.598 87.209,39.297 C87.037,38.996 86.951,38.58 86.951,38.049 L86.951,34.562 L86.066,34.562 L86.066,33.947 L87.016,33.461 L87.467,32.072 L88.334,32.072 L88.334,33.514 L90.191,33.514 L90.191,34.562 L88.334,34.562 L88.334,38.031 C88.334,38.359 88.416,38.604 88.58,38.764 C88.744,38.924 88.961,39.004 89.23,39.004 Z M94.146,33.391 C94.725,33.391 95.221,33.51 95.635,33.748 C96.049,33.986 96.367,34.324 96.59,34.762 C96.812,35.199 96.924,35.723 96.924,36.332 L96.924,37.07 L92.594,37.07 C92.609,37.699 92.777,38.184 93.098,38.523 C93.422,38.863 93.875,39.033 94.457,39.033 C94.871,39.033 95.242,38.994 95.57,38.916 C95.902,38.834 96.244,38.715 96.596,38.559 L96.596,39.678 C96.271,39.83 95.941,39.941 95.605,40.012 C95.27,40.082 94.867,40.117 94.398,40.117 C93.762,40.117 93.201,39.994 92.717,39.748 C92.236,39.498 91.859,39.127 91.586,38.635 C91.316,38.143 91.182,37.531 91.182,36.801 C91.182,36.074 91.305,35.457 91.551,34.949 C91.797,34.441 92.143,34.055 92.588,33.789 C93.033,33.523 93.553,33.391 94.146,33.391 Z M94.146,34.428 C93.713,34.428 93.361,34.568 93.092,34.85 C92.826,35.131 92.67,35.543 92.623,36.086 L95.576,36.086 C95.572,35.762 95.518,35.475 95.412,35.225 C95.311,34.975 95.154,34.779 94.943,34.639 C94.736,34.498 94.471,34.428 94.146,34.428 Z M102.836,38.148 C102.836,38.574 102.732,38.934 102.525,39.227 C102.318,39.52 102.016,39.742 101.617,39.895 C101.223,40.043 100.738,40.117 100.164,40.117 C99.711,40.117 99.32,40.084 98.992,40.018 C98.668,39.955 98.361,39.857 98.072,39.725 L98.072,38.535 C98.381,38.68 98.727,38.805 99.109,38.91 C99.496,39.016 99.861,39.068 100.205,39.068 C100.658,39.068 100.984,38.998 101.184,38.857 C101.383,38.713 101.482,38.521 101.482,38.283 C101.482,38.143 101.441,38.018 101.359,37.908 C101.281,37.795 101.133,37.68 100.914,37.562 C100.699,37.441 100.383,37.297 99.965,37.129 C99.555,36.965 99.209,36.801 98.928,36.637 C98.646,36.473 98.434,36.275 98.289,36.045 C98.145,35.811 98.072,35.512 98.072,35.148 C98.072,34.574 98.299,34.139 98.752,33.842 C99.209,33.541 99.812,33.391 100.562,33.391 C100.961,33.391 101.336,33.432 101.688,33.514 C102.043,33.592 102.391,33.707 102.73,33.859 L102.297,34.896 C102.004,34.768 101.709,34.662 101.412,34.58 C101.119,34.494 100.82,34.451 100.516,34.451 C100.16,34.451 99.889,34.506 99.701,34.615 C99.518,34.725 99.426,34.881 99.426,35.084 C99.426,35.236 99.471,35.365 99.561,35.471 C99.65,35.576 99.805,35.682 100.023,35.787 C100.246,35.893 100.555,36.023 100.949,36.18 C101.336,36.328 101.67,36.484 101.951,36.648 C102.236,36.809 102.455,37.006 102.607,37.24 C102.76,37.475 102.836,37.777 102.836,38.148 Z" id="Shape" fill="#052F5F" fill-rule="nonzero"></path>
                    </g>
                </g>
            </g>
        </g>
    </g>
</svg>