<?xml version="1.0" encoding="UTF-8"?>
<svg width="12px" height="12px" viewBox="0 0 12 12" version="1.1" xmlns="http://www.w3.org/2000/svg" xmlns:xlink="http://www.w3.org/1999/xlink">
    <title>5C42C910-AD1F-475D-B1A0-F91AAD69098C@1x</title>
    <g id="Final.---CHR-30-days-Free-Plan-" stroke="none" stroke-width="1" fill="none" fill-rule="evenodd">
        <g id="-Bank-Logo---SVG" transform="translate(-52.000000, -30.000000)" fill-rule="nonzero">
            <g id="amex" transform="translate(52.000000, 30.000000)">
                <path d="M12,6.49443206 L12,0 L0,0 L0,12 L12,12 L12,8.49888642 C11.9732739,8.49888642 12,6.49443206 12,6.49443206" id="Path" fill="#006FCF"></path>
                <path d="M10.5300668,5.90132259 L11.4387528,5.90132259 L11.4387528,3.82978724 L10.4498887,3.82978724 L10.4498887,4.11822887 L10.2628062,3.82978724 L9.40757238,3.82978724 L9.40757238,4.19689477 L9.24721604,3.82978724 L7.67037861,3.82978724 C7.61692651,3.82978724 7.56347439,3.8560092 7.51002227,3.8560092 C7.45657015,3.8560092 7.42984409,3.88223116 7.37639199,3.90845314 C7.32293987,3.9346751 7.29621381,3.9346751 7.24276169,3.96089708 L7.24276169,3.82978724 L2.7260579,3.82978724 L2.59242762,4.17067281 L2.45879733,3.82978724 L1.38975501,3.82978724 L1.38975501,4.19689477 L1.22939866,3.82978724 L0.37416481,3.82978724 L0,4.7213341 L0,5.90132259 L0.614699332,5.90132259 L0.721603563,5.61288097 L0.935412026,5.61288097 L1.04231626,5.90132259 L5.74610246,5.90132259 L5.74610246,5.63910292 L5.93318486,5.90132259 L7.24276169,5.90132259 L7.24276169,5.7439908 C7.26948775,5.77021276 7.32293987,5.77021276 7.34966593,5.79643474 C7.37639199,5.8226567 7.42984409,5.8226567 7.45657015,5.84887868 C7.51002227,5.87510063 7.56347439,5.87510063 7.61692651,5.87510063 L8.5790646,5.87510063 L8.68596882,5.58665901 L8.89977728,5.58665901 L9.00668152,5.87510063 L10.3162583,5.87510063 L10.3162583,5.61288097 L10.5300668,5.90132259 L10.5300668,5.90132259 Z M12,8.52351926 L12,6.58309372 L4.65033407,6.58309372 L4.46325167,6.84531339 L4.27616927,6.58309372 L2.13808463,6.58309372 L2.13808463,8.6546291 L4.27616927,8.6546291 L4.46325167,8.39240943 L4.65033407,8.6546291 L5.98663698,8.6546291 L5.98663698,8.20885565 L5.93318486,8.20885565 C6.12026726,8.20885565 6.2806236,8.1826337 6.4142539,8.13018976 L6.4142539,8.68085105 L7.37639199,8.68085105 L7.37639199,8.41863141 L7.56347439,8.68085105 L11.545657,8.68085105 C11.7060134,8.62840714 11.8663697,8.60218516 12,8.52351926 L12,8.52351926 Z" id="Shape" fill="#FFFFFF"></path>
                <path d="M11.545657,8.12335038 L10.8240535,8.12335038 L10.8240535,8.4255319 L11.518931,8.4255319 C11.8129176,8.4255319 12,8.23323459 12,7.9585241 C12,7.68381363 11.8396437,7.54645839 11.5723831,7.54645839 L11.2516704,7.54645839 C11.1714922,7.54645839 11.1180401,7.49151629 11.1180401,7.40910316 C11.1180401,7.32669 11.1714922,7.27174792 11.2516704,7.27174792 L11.8663697,7.27174792 L12,6.9695664 L11.2783964,6.9695664 C10.9844098,6.9695664 10.7973274,7.16186371 10.7973274,7.40910316 C10.7973274,7.68381363 10.9576837,7.82116886 11.2249443,7.82116886 L11.545657,7.82116886 C11.6258352,7.82116886 11.6792873,7.87611097 11.6792873,7.9585241 C11.7060134,8.0684083 11.6525612,8.12335038 11.545657,8.12335038 L11.545657,8.12335038 Z M10.2360802,8.12335038 L9.51447663,8.12335038 L9.51447663,8.4255319 L10.2093541,8.4255319 C10.5033407,8.4255319 10.6904232,8.23323459 10.6904232,7.9585241 C10.6904232,7.68381363 10.5300668,7.54645839 10.2628062,7.54645839 L9.94209355,7.54645839 C9.86191537,7.54645839 9.80846324,7.49151629 9.80846324,7.40910316 C9.80846324,7.32669 9.86191537,7.27174792 9.94209355,7.27174792 L10.5567929,7.27174792 L10.6904232,6.9695664 L9.96881961,6.9695664 C9.67483297,6.9695664 9.48775057,7.16186371 9.48775057,7.40910316 C9.48775057,7.68381363 9.6481069,7.82116886 9.91536749,7.82116886 L10.2360802,7.82116886 C10.3162583,7.82116886 10.3697105,7.87611097 10.3697105,7.9585241 C10.3964365,8.0684083 10.3162583,8.12335038 10.2360802,8.12335038 L10.2360802,8.12335038 Z M9.30066814,7.24427687 L9.30066814,6.94209535 L8.17817371,6.94209535 L8.17817371,8.39806088 L9.30066814,8.39806088 L9.30066814,8.09587933 L8.49888642,8.09587933 L8.49888642,7.79369781 L9.2739421,7.79369781 L9.2739421,7.49151629 L8.49888642,7.49151629 L8.49888642,7.21680582 L9.30066814,7.21680582 L9.30066814,7.24427687 L9.30066814,7.24427687 Z M7.48329621,7.24427687 C7.61692651,7.24427687 7.67037861,7.32669 7.67037861,7.40910316 C7.67037861,7.49151629 7.61692651,7.57392944 7.48329621,7.57392944 L7.08240535,7.57392944 L7.08240535,7.21680582 L7.48329621,7.24427687 L7.48329621,7.24427687 Z M7.08240535,7.87611097 L7.24276169,7.87611097 L7.67037861,8.39806088 L8.0712695,8.39806088 L7.59020045,7.84863991 C7.83073497,7.79369781 7.96436525,7.62887152 7.96436525,7.40910316 C7.96436525,7.13439269 7.77728285,6.94209535 7.48329621,6.94209535 L6.73496658,6.94209535 L6.73496658,8.39806088 L7.05567929,8.39806088 L7.08240535,7.87611097 Z M6.2271715,7.43657421 C6.2271715,7.54645839 6.17371938,7.62887152 6.04008908,7.62887152 L5.61247216,7.62887152 L5.61247216,7.24427687 L6.01336302,7.24427687 C6.14699332,7.24427687 6.2271715,7.32669 6.2271715,7.43657421 L6.2271715,7.43657421 Z M5.29175948,6.94209535 L5.29175948,8.39806088 L5.61247216,8.39806088 L5.61247216,7.90358202 L6.04008908,7.90358202 C6.33407572,7.90358202 6.54788418,7.71128468 6.54788418,7.40910316 C6.54788418,7.13439269 6.36080178,6.9146243 6.06681514,6.9146243 L5.29175948,6.94209535 L5.29175948,6.94209535 Z M4.81069043,8.39806088 L5.2115813,8.39806088 L4.65033407,7.65634257 L5.2115813,6.94209535 L4.81069043,6.94209535 L4.46325167,7.40910316 L4.11581293,6.94209535 L3.71492204,6.94209535 L4.27616927,7.65634257 L3.71492204,8.37058983 L4.11581293,8.37058983 L4.46325167,7.90358202 L4.81069043,8.39806088 L4.81069043,8.39806088 Z M3.60801783,7.24427687 L3.60801783,6.94209535 L2.48552338,6.94209535 L2.48552338,8.39806088 L3.60801783,8.39806088 L3.60801783,8.09587933 L2.80623608,8.09587933 L2.80623608,7.79369781 L3.58129177,7.79369781 L3.58129177,7.49151629 L2.80623608,7.49151629 L2.80623608,7.21680582 L3.60801783,7.21680582 L3.60801783,7.24427687 L3.60801783,7.24427687 Z M10.1024499,4.66199838 L10.6636971,5.54107192 L11.064588,5.54107192 L11.064588,4.08510639 L10.7438753,4.08510639 L10.7438753,5.04659306 L10.6636971,4.90923783 L10.155902,4.08510639 L9.72828509,4.08510639 L9.72828509,5.54107192 L10.0489978,5.54107192 L10.0489978,4.5521142 L10.1024499,4.66199838 L10.1024499,4.66199838 Z M8.71269488,4.63452733 L8.81959912,4.33234581 L8.92650334,4.63452733 L9.06013362,4.9641799 L8.5790646,4.9641799 L8.71269488,4.63452733 Z M9.2739421,5.54107192 L9.62138084,5.54107192 L9.00668152,4.08510639 L8.5790646,4.08510639 L7.96436525,5.54107192 L8.31180402,5.54107192 L8.4454343,5.23889037 L9.1403118,5.23889037 L9.2739421,5.54107192 Z M7.77728285,5.54107192 L7.91091313,5.23889037 L7.83073497,5.23889037 C7.59020045,5.23889037 7.45657015,5.07406409 7.45657015,4.82682467 L7.45657015,4.79935362 C7.45657015,4.5521142 7.59020045,4.38728791 7.83073497,4.38728791 L8.17817371,4.38728791 L8.17817371,4.08510639 L7.80400891,4.08510639 C7.37639199,4.08510639 7.13585747,4.38728791 7.13585747,4.79935362 L7.13585747,4.82682467 C7.13585747,5.26636143 7.37639199,5.54107192 7.77728285,5.54107192 Z M6.57461024,5.54107192 L6.89532295,5.54107192 L6.89532295,4.11257744 L6.57461024,4.11257744 L6.57461024,5.54107192 Z M5.87973274,4.38728791 C6.01336302,4.38728791 6.06681514,4.46970104 6.06681514,4.5521142 C6.06681514,4.63452733 6.01336302,4.71694049 5.87973274,4.71694049 L5.47884188,4.71694049 L5.47884188,4.35981686 L5.87973274,4.38728791 L5.87973274,4.38728791 Z M5.47884188,5.01912201 L5.63919822,5.01912201 L6.06681514,5.54107192 L6.46770603,5.54107192 L5.98663698,4.99165096 C6.2271715,4.93670885 6.36080178,4.77188257 6.36080178,4.5521142 C6.36080178,4.2774037 6.17371938,4.08510639 5.87973274,4.08510639 L5.13140311,4.08510639 L5.13140311,5.54107192 L5.45211582,5.54107192 L5.47884188,5.01912201 Z M4.89086859,4.38728791 L4.89086859,4.08510639 L3.76837417,4.08510639 L3.76837417,5.54107192 L4.89086859,5.54107192 L4.89086859,5.23889037 L4.08908687,5.23889037 L4.08908687,4.93670885 L4.86414253,4.93670885 L4.86414253,4.63452733 L4.08908687,4.63452733 L4.08908687,4.35981686 L4.89086859,4.35981686 L4.89086859,4.38728791 L4.89086859,4.38728791 Z M2.45879733,5.54107192 L2.75278396,5.54107192 L3.15367484,4.35981686 L3.15367484,5.54107192 L3.47438752,5.54107192 L3.47438752,4.08510639 L2.93986638,4.08510639 L2.61915368,5.07406409 L2.29844098,4.08510639 L1.76391982,4.08510639 L1.76391982,5.54107192 L2.08463252,5.54107192 L2.08463252,4.35981686 L2.45879733,5.54107192 Z M0.721603563,4.63452733 L0.828507796,4.33234581 L0.935412026,4.63452733 L1.06904232,4.9641799 L0.587973274,4.9641799 L0.721603563,4.63452733 L0.721603563,4.63452733 Z M1.28285078,5.54107192 L1.63028953,5.54107192 L1.0155902,4.08510639 L0.614699332,4.08510639 L0,5.54107192 L0.347438752,5.54107192 L0.481069043,5.23889037 L1.17594655,5.23889037 L1.28285078,5.54107192 Z" id="Shape" fill="#006FCF"></path>
            </g>
        </g>
    </g>
</svg>