<?xml version="1.0" encoding="UTF-8"?>
<svg width="12px" height="12px" viewBox="0 0 12 12" version="1.1" xmlns="http://www.w3.org/2000/svg" xmlns:xlink="http://www.w3.org/1999/xlink">
    <title>6EF54565-118C-4138-B4F6-D69211EED782@1x</title>
    <g id="Final.---CHR-30-days-Free-Plan-" stroke="none" stroke-width="1" fill="none" fill-rule="evenodd">
        <g id="-Bank-Logo---SVG" transform="translate(-234.000000, -30.000000)" fill-rule="nonzero">
            <g id="centra-bank" transform="translate(234.000000, 30.000000)">
                <g id="g4871" transform="translate(6.000000, 6.000000) scale(-1, 1) rotate(-180.000000) translate(-6.000000, -6.000000) translate(0.000000, 0.000000)">
                    <g id="g4873" transform="translate(0.000000, -0.000000)">
                        <polygon id="path5579" fill="#176FC1" points="-3.20696773e-16 2.06719082e-16 12 2.06719082e-16 12 12 -3.20696773e-16 12"></polygon>
                        <polygon id="path5593" fill="#FFFFFF" points="1.11715184 1.11707058 10.8845937 1.11707058 10.8845937 10.882711 1.11715184 10.882711"></polygon>
                        <g id="g5595" transform="translate(2.172339, 2.043889)" fill="#CE0F3E">
                            <path d="M7.06183972,4.02014502 L5.12995253,5.90105624 L4.66629088,5.89734721 L3.89497608,5.89734721 L3.89497608,6.12163405 L4.66629088,6.12730666 L5.13977125,6.13363382 L7.21173882,4.04065373 L7.06183972,4.02014502 Z M6.43016891,4.00814524 L5.12995253,5.26179515 L4.66629088,5.26179515 L3.89672163,5.25808612 L3.89628525,5.48368201 L4.66629088,5.49044552 L5.14020763,5.49568178 L6.5798498,4.02996301 L6.43016891,4.00814524 Z M4.66629088,1.23990471 L3.95345201,0.536935683 L3.93032348,0.686169329 L4.66629088,1.43735566 L5.81573541,2.61507968 L5.81573541,3.8499663 L6.03807479,3.8499663 L6.04920266,2.60395261 L4.66629088,1.23990471 Z M4.66629088,2.08556204 L5.17599141,2.61507968 L5.17599141,3.8499663 L5.39898539,3.8499663 L5.41033146,2.60395261 L4.66629088,1.87589313 L3.94188773,1.16812419 L3.92137754,1.31604877 L4.66629088,2.08556204 Z M3.0606033,3.54211734 L2.65105369,3.97127319 L3.0606033,4.37228405 L3.90174008,5.19306912 L4.66629088,4.39039282 L5.10747858,3.92720125 L4.66629088,3.49477276 L3.85570122,2.70496894 L3.0606033,3.54211734 L3.0606033,3.54211734 Z M3.0606033,1.70942343 L2.58625016,1.70593259 L0.515591759,3.79694907 L0.664181681,3.81876687 L2.59606887,1.93872835 L3.0606033,1.93872835 L3.83017255,1.9402556 L3.83017255,1.71727783 L3.0606033,1.70942343 Z M1.29323418,3.82902121 L2.5951961,2.57798944 L3.0606033,2.5784258 L3.83017255,2.57995304 L3.83017255,2.35544804 L3.0606033,2.34737546 L2.58363183,2.34170283 L1.14508064,3.80829433 L1.29323418,3.82902121 L1.29323418,3.82902121 Z M3.80333471,6.52155402 L3.0606033,5.75247713 L2.55003,5.22514125 L2.55003,3.99069101 L2.32638144,3.99069101 L2.31656272,5.23386838 L3.0606033,5.96280057 L3.78413366,6.67187856 L3.80333471,6.52155402 Z M3.0606033,6.59944353 L3.77387858,7.30110347 L3.79438877,7.15296071 L3.0606033,6.40090168 L1.91115879,5.22514125 L1.91115879,3.99069101 L1.68707384,3.99069101 L1.67769151,5.23386838 L3.0606033,6.59944353 Z M5.18166445,6.51479051 L5.18166445,7.87272945 L3.80769861,7.86836588 L3.0606033,7.08488922 L1.31287161,5.24543181 L2.94893584e-17,5.24543181 L2.94893584e-17,3.91258334 L2.53759296,1.28943108 L2.53759296,2.19524689e-17 L3.82973617,2.19524689e-17 L4.66629088,0.836275687 L6.38674836,2.55813526 L7.65554483,2.55813526 L7.65554483,4.02014502 L5.18166445,6.51479051 Z" id="path5597"></path>
                        </g>
                    </g>
                </g>
            </g>
        </g>
    </g>
</svg>