<?xml version="1.0" encoding="UTF-8"?>
<svg width="20px" height="12px" viewBox="0 0 20 12" version="1.1" xmlns="http://www.w3.org/2000/svg" xmlns:xlink="http://www.w3.org/1999/xlink">
    <title>AD148932-6197-45B5-8830-7297AB9E1B76@1x</title>
    <g id="Final.---CHR-30-days-Free-Plan-" stroke="none" stroke-width="1" fill="none" fill-rule="evenodd">
        <g id="-Bank-Logo---SVG" transform="translate(-297.000000, -30.000000)">
            <g id="Group-9" transform="translate(297.000000, 30.000000)">
                <rect id="Rectangle" fill="#FFFFFF" x="0" y="0" width="20" height="12"></rect>
                <g id="Citi" transform="translate(2.000000, 1.000000)" fill-rule="nonzero">
                    <g id="Group" transform="translate(8.000000, 5.000000) scale(-1, 1) rotate(-180.000000) translate(-8.000000, -5.000000) ">
                        <g transform="translate(-0.000000, 0.000000)" fill="#004685" id="Path">
                            <g transform="translate(-0.000000, 0.000000)">
                                <path d="M4.87848879,1.93667384 L4.84907261,1.90905162 C4.38714674,1.45283952 3.85259968,1.2118134 3.30196566,1.2118134 C2.15197706,1.2118134 1.31775272,2.04805375 1.31775272,3.20150407 C1.31775272,4.35317232 2.15197706,5.19074923 3.30196566,5.19074923 C3.85259968,5.19074923 4.38714674,4.94838655 4.84907261,4.49039237 L4.87848879,4.46321567 L5.61802982,5.33019688 L5.59826582,5.3533639 C4.98328391,6.05773043 4.24512177,6.40033503 3.33781662,6.40033503 C2.42821333,6.40033503 1.59536787,6.10317344 0.996013304,5.56810436 C0.343341919,4.9880378 0,4.17006375 0,3.20150407 C0,2.23294439 0.343341919,1.41318827 0.996013304,0.833121712 C1.59536787,0.294933996 2.42821333,0 3.33781662,0 C4.24512177,0 4.98328391,0.343050117 5.59826582,1.04786217 L5.61802982,1.06924712 L4.87848879,1.93667384"></path>
                            </g>
                        </g>
                        <polyline id="Path" fill="#004685" points="6.36496625 0.118243583 7.67122828 0.118243583 7.67122828 6.30027399 6.36496625 6.30027399 6.36496625 0.118243583"></polyline>
                        <g transform="translate(8.826038, 0.023051)" fill="#004685" id="Path">
                            <g transform="translate(-0.000000, 0.000000)">
                                <path d="M3.96291034,1.43910277 C3.61405289,1.2332727 3.29001533,1.12946663 2.99861135,1.12946663 C2.57621346,1.12946663 2.38500832,1.34598917 2.38500832,1.82715037 L2.38500832,5.10751142 L3.71654987,5.10751142 L3.71654987,6.2712087 L2.38500832,6.2712087 L2.38500832,8.19496247 L1.10494508,7.53024718 L1.10494508,6.2712087 L0,6.2712087 L0,5.10751142 L1.10494508,5.10751142 L1.10494508,1.61820166 C1.10494508,0.667908289 1.68591454,0.0174496262 2.5536917,0.000519880173 C3.14247483,-0.0106181106 3.49730744,0.159570389 3.71241322,0.284315886 L3.72620206,0.292780759 L4.0401278,1.48499129 L3.96291034,1.43910277"></path>
                            </g>
                        </g>
                        <polyline id="Path" fill="#004685" points="13.8702276 0.118243583 15.1783281 0.118243583 15.1783281 6.30027399 13.8702276 6.30027399 13.8702276 0.118243583"></polyline>
                        <g transform="translate(5.497047, 7.299706)" fill="#EE1C25" id="Path">
                            <path d="M10.4432018,0.0842032104 C9.24954856,1.72282442 7.26763376,2.70029449 5.25124688,2.70029449 C3.23531963,2.70029449 1.25294521,1.72282442 0.0615901166,0.0842032104 L0,2.47313077e-17 L1.5029827,2.47313077e-17 L1.5195293,0.0173752656 C2.54220101,1.04117938 3.87787921,1.58204021 5.25124688,1.58204021 C6.62461456,1.58204021 7.9593735,1.04117938 8.98434336,0.0173752656 L9.00088995,2.47313077e-17 L10.5029534,2.47313077e-17 L10.4432018,0.0842032104"></path>
                        </g>
                    </g>
                </g>
            </g>
        </g>
    </g>
</svg>