<?xml version="1.0" encoding="UTF-8"?>
<svg width="12px" height="12px" viewBox="0 0 12 12" version="1.1" xmlns="http://www.w3.org/2000/svg" xmlns:xlink="http://www.w3.org/1999/xlink">
    <title>19ED3095-C5A1-4917-B3F5-0FE7BE90010B@1x</title>
    <g id="Final.---CHR-30-days-Free-Plan-" stroke="none" stroke-width="1" fill="none" fill-rule="evenodd">
        <g id="-Bank-Logo---SVG" transform="translate(-20.000000, -30.000000)" fill-rule="nonzero">
            <g id="hdfc" transform="translate(20.000000, 30.000000)">
                <g id="g11008" transform="translate(6.000000, 6.000000) scale(-1, 1) rotate(-180.000000) translate(-6.000000, -6.000000) ">
                    <polygon id="path1576" fill="#ED232A" points="3.21119011e-16 12 12 12 12 1.52913815e-16 3.21119011e-16 1.52913815e-16"></polygon>
                    <polygon id="path1578" fill="#FFFFFF" points="2.10033949 9.89966053 9.90116936 9.89966053 9.90116936 2.09883063 2.10033949 2.09883063"></polygon>
                    <polygon id="path1580" fill="#FFFFFF" points="5.40022634 12 6.59977367 12 6.59977367 1.52913815e-16 5.40022634 1.52913815e-16"></polygon>
                    <polygon id="path1582" fill="#FFFFFF" points="3.21119011e-16 6.5982648 12 6.5982648 12 5.39871747 3.21119011e-16 5.39871747"></polygon>
                    <polygon id="path1584" fill="#004C8F" points="4.20067898 7.79932103 7.80082986 7.79932103 7.80082986 4.19917013 4.20067898 4.19917013"></polygon>
                </g>
            </g>
        </g>
    </g>
</svg>