<?xml version="1.0" encoding="UTF-8"?>
<svg width="132px" height="48px" viewBox="0 0 132 48" version="1.1" xmlns="http://www.w3.org/2000/svg" xmlns:xlink="http://www.w3.org/1999/xlink">
    <title>2EBA98A9-4EDD-4C7A-AA7D-7DF732FAF038@1x</title>
    <g id="Final_02" stroke="none" stroke-width="1" fill="none" fill-rule="evenodd">
        <g id="Mobile---CHR-Credit-alert" transform="translate(-17.000000, -821.000000)">
            <g id="Group" transform="translate(17.500000, 821.500000)">
                <path d="M0,0 L108.026119,0 C120.714545,0 131,10.521 131,23.5 C131,36.479 120.714545,47 108.026119,47 L0,47" id="Path" stroke="#DEE0FF" fill="#FDFDFF"></path>
                <g id="Group-74" transform="translate(16.708300, 13.500000)">
                    <path d="M18.125,15.833 L18.125,18.333 L1.4584,18.333 L1.4584,15.833 C1.4584,15.375 1.8334,15 2.2917,15 L17.2917,15 C17.75,15 18.125,15.375 18.125,15.833 Z" id="Path" fill="#E3A443" fill-rule="nonzero"></path>
                    <polygon id="Path" fill="#E3A443" fill-rule="nonzero" opacity="0.6" points="6.125 9.167 2.7917 9.167 2.7917 15 6.125 15"></polygon>
                    <polygon id="Path" fill="#E3A443" fill-rule="nonzero" opacity="0.4" points="13.4584 9.167 6.1251 9.167 6.1251 15 13.4584 15"></polygon>
                    <polygon id="Path" fill="#E3A443" fill-rule="nonzero" opacity="0.6" points="16.7917 9.167 13.4584 9.167 13.4584 15 16.7917 15"></polygon>
                    <path d="M18.9583,18.958 L0.625,18.958 C0.2833,18.958 0,18.675 0,18.333 C0,17.991 0.2833,17.708 0.625,17.708 L18.9583,17.708 C19.3,17.708 19.5833,17.991 19.5833,18.333 C19.5833,18.675 19.3,18.958 18.9583,18.958 Z" id="Path" fill="#704200" fill-rule="nonzero"></path>
                    <path d="M17.6,4.791 L10.1,1.791 C9.9334,1.725 9.6501,1.725 9.4834,1.791 L1.9834,4.791 C1.6917,4.908 1.4584,5.25 1.4584,5.566 L1.4584,8.333 C1.4584,8.791 1.8334,9.166 2.2917,9.166 L17.2917,9.166 C17.7501,9.166 18.1251,8.791 18.1251,8.333 L18.1251,5.566 C18.1251,5.25 17.8917,4.908 17.6,4.791 Z M9.7917,7.083 C9.1001,7.083 8.5417,6.525 8.5417,5.833 C8.5417,5.141 9.1001,4.583 9.7917,4.583 C10.4834,4.583 11.0417,5.141 11.0417,5.833 C11.0417,6.525 10.4834,7.083 9.7917,7.083 Z" id="Shape" fill="#E3A443" fill-rule="nonzero"></path>
                    <g id="Group" transform="translate(13.291700, 0.000000)">
                        <circle id="Oval" fill="#FF0F00" fill-rule="nonzero" cx="3.5" cy="3.5" r="3"></circle>
                        <circle id="Oval" stroke="#FFFFFF" cx="3.5" cy="3.5" r="3.5"></circle>
                    </g>
                </g>
                <path d="M54.8613,19.5 L54.1631,17.518 L51.4336,17.518 L50.7354,19.5 L49.5,19.5 L52.1562,12.332 L53.4551,12.332 L56.1064,19.5 L54.8613,19.5 Z M53.8604,16.512 L53.1816,14.559 C53.1556,14.474 53.1182,14.355 53.0693,14.202 C53.0205,14.046 52.9717,13.888 52.9229,13.729 C52.874,13.566 52.8333,13.429 52.8008,13.318 C52.7682,13.452 52.7275,13.602 52.6787,13.768 C52.6331,13.93 52.5876,14.083 52.542,14.227 C52.4997,14.37 52.4671,14.48 52.4443,14.559 L51.7607,16.512 L53.8604,16.512 Z M59.1094,19.598 C58.5983,19.598 58.1556,19.498 57.7812,19.3 C57.4069,19.101 57.1188,18.797 56.917,18.387 C56.7152,17.977 56.6143,17.456 56.6143,16.824 C56.6143,16.167 56.7249,15.63 56.9463,15.213 C57.1676,14.796 57.4736,14.489 57.8643,14.29 C58.2581,14.091 58.709,13.992 59.2168,13.992 C59.5391,13.992 59.8304,14.025 60.0908,14.09 C60.3545,14.152 60.5775,14.228 60.7598,14.319 L60.418,15.237 C60.2194,15.156 60.016,15.088 59.8076,15.032 C59.5993,14.977 59.3991,14.949 59.207,14.949 C58.8913,14.949 58.6276,15.019 58.416,15.159 C58.2077,15.299 58.0514,15.507 57.9473,15.784 C57.8464,16.061 57.7959,16.404 57.7959,16.814 C57.7959,17.212 57.848,17.547 57.9521,17.82 C58.0563,18.09 58.2109,18.296 58.416,18.436 C58.6211,18.572 58.8734,18.641 59.1729,18.641 C59.4691,18.641 59.7344,18.605 59.9688,18.533 C60.2031,18.462 60.4245,18.369 60.6328,18.255 L60.6328,19.251 C60.4277,19.368 60.208,19.454 59.9736,19.51 C59.7393,19.568 59.4512,19.598 59.1094,19.598 Z M64.0801,19.598 C63.569,19.598 63.1263,19.498 62.752,19.3 C62.3776,19.101 62.0895,18.797 61.8877,18.387 C61.6859,17.977 61.585,17.456 61.585,16.824 C61.585,16.167 61.6956,15.63 61.917,15.213 C62.1383,14.796 62.4443,14.489 62.835,14.29 C63.2288,14.091 63.6797,13.992 64.1875,13.992 C64.5098,13.992 64.8011,14.025 65.0615,14.09 C65.3252,14.152 65.5482,14.228 65.7305,14.319 L65.3887,15.237 C65.1901,15.156 64.9867,15.088 64.7783,15.032 C64.57,14.977 64.3698,14.949 64.1777,14.949 C63.862,14.949 63.5983,15.019 63.3867,15.159 C63.1784,15.299 63.0221,15.507 62.918,15.784 C62.8171,16.061 62.7666,16.404 62.7666,16.814 C62.7666,17.212 62.8187,17.547 62.9229,17.82 C63.027,18.09 63.1816,18.296 63.3867,18.436 C63.5918,18.572 63.8441,18.641 64.1436,18.641 C64.4398,18.641 64.7051,18.605 64.9395,18.533 C65.1738,18.462 65.3952,18.369 65.6035,18.255 L65.6035,19.251 C65.3984,19.368 65.1787,19.454 64.9443,19.51 C64.71,19.568 64.4219,19.598 64.0801,19.598 Z M71.6582,16.785 C71.6582,17.234 71.5996,17.633 71.4824,17.981 C71.3652,18.33 71.1943,18.624 70.9697,18.865 C70.7451,19.103 70.4749,19.285 70.1592,19.412 C69.8434,19.536 69.487,19.598 69.0898,19.598 C68.7188,19.598 68.3786,19.536 68.0693,19.412 C67.7601,19.285 67.4915,19.103 67.2637,18.865 C67.0391,18.624 66.8649,18.33 66.7412,17.981 C66.6175,17.633 66.5557,17.234 66.5557,16.785 C66.5557,16.189 66.6582,15.685 66.8633,15.271 C67.0716,14.855 67.3678,14.537 67.752,14.319 C68.1361,14.101 68.5934,13.992 69.124,13.992 C69.6221,13.992 70.0615,14.101 70.4424,14.319 C70.8232,14.537 71.1211,14.855 71.3359,15.271 C71.5508,15.688 71.6582,16.193 71.6582,16.785 Z M67.7373,16.785 C67.7373,17.179 67.7845,17.516 67.8789,17.796 C67.9766,18.076 68.1263,18.291 68.3281,18.44 C68.5299,18.587 68.7904,18.66 69.1094,18.66 C69.4284,18.66 69.6888,18.587 69.8906,18.44 C70.0924,18.291 70.2406,18.076 70.335,17.796 C70.4294,17.516 70.4766,17.179 70.4766,16.785 C70.4766,16.391 70.4294,16.058 70.335,15.784 C70.2406,15.507 70.0924,15.298 69.8906,15.154 C69.6888,15.008 69.4268,14.935 69.1045,14.935 C68.6292,14.935 68.2826,15.094 68.0645,15.413 C67.8464,15.732 67.7373,16.189 67.7373,16.785 Z M77.6885,14.095 L77.6885,19.5 L76.7852,19.5 L76.6289,18.772 L76.5654,18.772 C76.4515,18.958 76.3066,19.113 76.1309,19.236 C75.9551,19.357 75.7598,19.446 75.5449,19.505 C75.3301,19.567 75.1038,19.598 74.8662,19.598 C74.4593,19.598 74.111,19.529 73.8213,19.393 C73.5348,19.253 73.3151,19.038 73.1621,18.748 C73.0091,18.458 72.9326,18.084 72.9326,17.625 L72.9326,14.095 L74.085,14.095 L74.085,17.41 C74.085,17.83 74.1696,18.144 74.3389,18.353 C74.5114,18.561 74.7783,18.665 75.1396,18.665 C75.488,18.665 75.7646,18.593 75.9697,18.45 C76.1748,18.307 76.3197,18.095 76.4043,17.815 C76.4922,17.535 76.5361,17.192 76.5361,16.785 L76.5361,14.095 L77.6885,14.095 Z M82.1514,13.992 C82.7601,13.992 83.2337,14.15 83.5723,14.466 C83.9141,14.778 84.085,15.281 84.085,15.975 L84.085,19.5 L82.9375,19.5 L82.9375,16.189 C82.9375,15.77 82.8512,15.455 82.6787,15.247 C82.5062,15.035 82.2393,14.93 81.8779,14.93 C81.3538,14.93 80.9893,15.091 80.7842,15.413 C80.5824,15.735 80.4814,16.202 80.4814,16.814 L80.4814,19.5 L79.334,19.5 L79.334,14.095 L80.2275,14.095 L80.3887,14.827 L80.4521,14.827 C80.5693,14.638 80.7142,14.484 80.8867,14.363 C81.0625,14.24 81.2578,14.147 81.4727,14.085 C81.6908,14.023 81.917,13.992 82.1514,13.992 Z M87.7031,18.67 C87.8529,18.67 88.001,18.657 88.1475,18.631 C88.2939,18.602 88.4274,18.567 88.5479,18.528 L88.5479,19.397 C88.4209,19.453 88.2565,19.5 88.0547,19.539 C87.8529,19.578 87.6429,19.598 87.4248,19.598 C87.1188,19.598 86.8438,19.547 86.5996,19.446 C86.3555,19.342 86.1618,19.165 86.0186,18.914 C85.8753,18.663 85.8037,18.317 85.8037,17.874 L85.8037,14.969 L85.0664,14.969 L85.0664,14.456 L85.8574,14.051 L86.2334,12.894 L86.9561,12.894 L86.9561,14.095 L88.5039,14.095 L88.5039,14.969 L86.9561,14.969 L86.9561,17.859 C86.9561,18.133 87.0244,18.336 87.1611,18.47 C87.2979,18.603 87.4785,18.67 87.7031,18.67 Z M56.043,28.361 L56.043,32.98 C56.043,33.479 55.9372,33.924 55.7256,34.318 C55.5173,34.712 55.2015,35.025 54.7783,35.256 C54.3551,35.484 53.8229,35.598 53.1816,35.598 C52.2669,35.598 51.5703,35.358 51.0918,34.88 C50.6165,34.398 50.3789,33.758 50.3789,32.961 L50.3789,28.361 L51.5508,28.361 L51.5508,32.858 C51.5508,33.454 51.6908,33.894 51.9707,34.177 C52.2507,34.46 52.6689,34.602 53.2256,34.602 C53.6097,34.602 53.9222,34.535 54.1631,34.401 C54.4072,34.265 54.5863,34.066 54.7002,33.806 C54.8174,33.542 54.876,33.225 54.876,32.854 L54.876,28.361 L56.043,28.361 Z M60.5254,29.992 C61.1667,29.992 61.681,30.227 62.0684,30.695 C62.459,31.164 62.6543,31.861 62.6543,32.785 C62.6543,33.397 62.5632,33.913 62.3809,34.333 C62.2018,34.75 61.9495,35.065 61.624,35.28 C61.3018,35.492 60.9258,35.598 60.4961,35.598 C60.2227,35.598 59.985,35.562 59.7832,35.49 C59.5814,35.419 59.4089,35.326 59.2656,35.212 C59.1224,35.095 59.002,34.968 58.9043,34.831 L58.8359,34.831 C58.8522,34.961 58.8669,35.106 58.8799,35.266 C58.8962,35.422 58.9043,35.565 58.9043,35.695 L58.9043,37.897 L57.752,37.897 L57.752,30.095 L58.6895,30.095 L58.8506,30.842 L58.9043,30.842 C59.0052,30.689 59.1273,30.547 59.2705,30.417 C59.417,30.287 59.5928,30.184 59.7979,30.109 C60.0062,30.031 60.2487,29.992 60.5254,29.992 Z M60.2178,30.93 C59.902,30.93 59.6481,30.993 59.4561,31.12 C59.2673,31.244 59.1289,31.431 59.041,31.682 C58.9564,31.932 58.9108,32.246 58.9043,32.624 L58.9043,32.785 C58.9043,33.186 58.945,33.526 59.0264,33.806 C59.111,34.082 59.2493,34.294 59.4414,34.44 C59.6367,34.584 59.9004,34.655 60.2324,34.655 C60.5124,34.655 60.7435,34.579 60.9258,34.426 C61.1113,34.273 61.2497,34.055 61.3408,33.771 C61.432,33.488 61.4775,33.155 61.4775,32.771 C61.4775,32.188 61.3734,31.735 61.165,31.413 C60.96,31.091 60.6442,30.93 60.2178,30.93 Z M65.7988,35.598 C65.1543,35.598 64.6367,35.363 64.2461,34.895 C63.8587,34.423 63.665,33.728 63.665,32.81 C63.665,31.882 63.862,31.18 64.2559,30.705 C64.653,30.23 65.1755,29.992 65.8232,29.992 C66.0967,29.992 66.3359,30.03 66.541,30.104 C66.7461,30.176 66.9219,30.274 67.0684,30.397 C67.2181,30.521 67.3451,30.66 67.4492,30.812 L67.5029,30.812 C67.4867,30.712 67.4671,30.567 67.4443,30.378 C67.4248,30.186 67.415,30.008 67.415,29.846 L67.415,27.902 L68.5674,27.902 L68.5674,35.5 L67.6689,35.5 L67.4639,34.763 L67.415,34.763 C67.3174,34.919 67.1937,35.061 67.0439,35.188 C66.8975,35.311 66.7217,35.41 66.5166,35.485 C66.3148,35.56 66.0755,35.598 65.7988,35.598 Z M66.1211,34.665 C66.6126,34.665 66.9593,34.523 67.1611,34.24 C67.363,33.957 67.4671,33.532 67.4736,32.966 L67.4736,32.814 C67.4736,32.209 67.376,31.745 67.1807,31.423 C66.9854,31.097 66.6289,30.935 66.1113,30.935 C65.6979,30.935 65.3822,31.102 65.1641,31.438 C64.9492,31.77 64.8418,32.233 64.8418,32.829 C64.8418,33.425 64.9492,33.881 65.1641,34.196 C65.3822,34.509 65.7012,34.665 66.1211,34.665 Z M72.332,29.992 C73.0156,29.992 73.5316,30.144 73.8799,30.446 C74.2314,30.749 74.4072,31.221 74.4072,31.862 L74.4072,35.5 L73.5918,35.5 L73.3721,34.733 L73.333,34.733 C73.18,34.929 73.0221,35.09 72.8594,35.217 C72.6966,35.344 72.5078,35.438 72.293,35.5 C72.0814,35.565 71.8226,35.598 71.5166,35.598 C71.1943,35.598 70.9062,35.539 70.6523,35.422 C70.3984,35.301 70.1982,35.119 70.0518,34.875 C69.9053,34.631 69.832,34.322 69.832,33.947 C69.832,33.391 70.0387,32.972 70.4521,32.692 C70.8688,32.412 71.4971,32.258 72.3369,32.229 L73.2744,32.194 L73.2744,31.911 C73.2744,31.537 73.1865,31.27 73.0107,31.11 C72.8382,30.951 72.5941,30.871 72.2783,30.871 C72.0081,30.871 71.7461,30.91 71.4922,30.988 C71.2383,31.066 70.9909,31.162 70.75,31.276 L70.3789,30.466 C70.6426,30.326 70.9421,30.212 71.2773,30.124 C71.6159,30.036 71.9674,29.992 72.332,29.992 Z M73.2695,32.917 L72.5713,32.941 C71.9984,32.961 71.5964,33.059 71.3652,33.234 C71.1341,33.41 71.0186,33.651 71.0186,33.957 C71.0186,34.224 71.0983,34.419 71.2578,34.543 C71.4173,34.663 71.6273,34.724 71.8877,34.724 C72.2848,34.724 72.6136,34.611 72.874,34.387 C73.1377,34.159 73.2695,33.825 73.2695,33.386 L73.2695,32.917 Z M78.0254,34.67 C78.1751,34.67 78.3232,34.657 78.4697,34.631 C78.6162,34.602 78.7497,34.567 78.8701,34.528 L78.8701,35.397 C78.7432,35.453 78.5788,35.5 78.377,35.539 C78.1751,35.578 77.9652,35.598 77.7471,35.598 C77.4411,35.598 77.166,35.547 76.9219,35.446 C76.6777,35.342 76.484,35.165 76.3408,34.914 C76.1976,34.663 76.126,34.317 76.126,33.874 L76.126,30.969 L75.3887,30.969 L75.3887,30.456 L76.1797,30.051 L76.5557,28.894 L77.2783,28.894 L77.2783,30.095 L78.8262,30.095 L78.8262,30.969 L77.2783,30.969 L77.2783,33.859 C77.2783,34.133 77.3467,34.336 77.4834,34.47 C77.6201,34.603 77.8008,34.67 78.0254,34.67 Z M82.1221,29.992 C82.6038,29.992 83.0173,30.091 83.3623,30.29 C83.7074,30.489 83.9727,30.77 84.1582,31.135 C84.3438,31.499 84.4365,31.936 84.4365,32.443 L84.4365,33.059 L80.8281,33.059 C80.8411,33.583 80.9811,33.986 81.248,34.27 C81.5182,34.553 81.8958,34.694 82.3809,34.694 C82.7259,34.694 83.0352,34.662 83.3086,34.597 C83.5853,34.528 83.8701,34.429 84.1631,34.299 L84.1631,35.231 C83.8929,35.358 83.6178,35.451 83.3379,35.51 C83.0579,35.568 82.7227,35.598 82.332,35.598 C81.8014,35.598 81.3343,35.495 80.9307,35.29 C80.5303,35.082 80.2161,34.772 79.9883,34.362 C79.7637,33.952 79.6514,33.443 79.6514,32.834 C79.6514,32.229 79.7539,31.714 79.959,31.291 C80.1641,30.868 80.4521,30.546 80.8232,30.324 C81.1943,30.103 81.6273,29.992 82.1221,29.992 Z M82.1221,30.856 C81.7607,30.856 81.4678,30.974 81.2432,31.208 C81.0218,31.442 80.8916,31.786 80.8525,32.238 L83.3135,32.238 C83.3102,31.968 83.2646,31.729 83.1768,31.521 C83.0921,31.312 82.9619,31.149 82.7861,31.032 C82.6136,30.915 82.3923,30.856 82.1221,30.856 Z M89.3633,33.957 C89.3633,34.312 89.277,34.611 89.1045,34.855 C88.932,35.1 88.6797,35.285 88.3477,35.412 C88.0189,35.536 87.6152,35.598 87.1367,35.598 C86.7591,35.598 86.4336,35.57 86.1602,35.515 C85.89,35.463 85.6344,35.381 85.3936,35.271 L85.3936,34.279 C85.6507,34.4 85.9388,34.504 86.2578,34.592 C86.5801,34.68 86.8844,34.724 87.1709,34.724 C87.5485,34.724 87.8203,34.665 87.9863,34.548 C88.1523,34.427 88.2354,34.268 88.2354,34.069 C88.2354,33.952 88.2012,33.848 88.1328,33.757 C88.0677,33.662 87.944,33.566 87.7617,33.469 C87.5827,33.368 87.319,33.247 86.9707,33.107 C86.6289,32.971 86.3408,32.834 86.1064,32.697 C85.8721,32.561 85.6947,32.396 85.5742,32.204 C85.4538,32.009 85.3936,31.76 85.3936,31.457 C85.3936,30.979 85.5824,30.616 85.96,30.368 C86.3408,30.118 86.8438,29.992 87.4688,29.992 C87.8008,29.992 88.1133,30.026 88.4062,30.095 C88.7025,30.16 88.9922,30.256 89.2754,30.383 L88.9141,31.247 C88.6699,31.14 88.4242,31.052 88.1768,30.983 C87.9326,30.912 87.6836,30.876 87.4297,30.876 C87.1335,30.876 86.9072,30.922 86.751,31.013 C86.598,31.104 86.5215,31.234 86.5215,31.403 C86.5215,31.53 86.5589,31.638 86.6338,31.726 C86.7087,31.813 86.8372,31.901 87.0195,31.989 C87.2051,32.077 87.4622,32.186 87.791,32.316 C88.1133,32.44 88.3916,32.57 88.626,32.707 C88.8636,32.84 89.0459,33.005 89.1729,33.2 C89.2998,33.396 89.3633,33.648 89.3633,33.957 Z" id="Shape" fill="#052F5F" fill-rule="nonzero"></path>
            </g>
        </g>
    </g>
</svg>