<?xml version="1.0" encoding="UTF-8"?>
<svg width="67px" height="67px" viewBox="0 0 67 67" version="1.1" xmlns="http://www.w3.org/2000/svg" xmlns:xlink="http://www.w3.org/1999/xlink">
    <title>946CFFB4-CD34-4B78-8A03-B64C4BA798FA@1x</title>
    <defs>
        <linearGradient x1="50%" y1="0%" x2="50%" y2="100%" id="linearGradient-1">
            <stop stop-color="#C8D2FF" offset="1.03256119%"></stop>
            <stop stop-color="#FFFFFF" offset="100%"></stop>
        </linearGradient>
    </defs>
    <g id="Final_02" stroke="none" stroke-width="1" fill="none" fill-rule="evenodd">
        <g id="Desktop---Manage-My-Plan" transform="translate(-683.000000, -737.000000)">
            <g id="Group-26" transform="translate(376.000000, 713.000000)">
                <g id="Group-22-Copy" transform="translate(290.000000, 0.000000)">
                    <g id="High-loan-approval-rates" transform="translate(17.000000, 24.000000)">
                        <rect id="Rectangle" fill="#FFFFFF" fill-rule="nonzero" x="0" y="0" width="67" height="67"></rect>
                        <circle id="Oval" fill="url(#linearGradient-1)" fill-rule="nonzero" cx="29" cy="42" r="23"></circle>
                        <g id="Group-8" transform="translate(18.000000, 13.000000)">
                            <path d="M0,6.13770316 C0,4.98911602 0.949737374,4.0580094 2.12121212,4.0580094 L32.8787879,4.0580094 C34.0502626,4.0580094 35,4.98911602 35,6.13770316 L35,29.7414233 L35,37.1132444 C35,38.2619286 34.0502626,39.1929382 32.8787879,39.1929382 L25.3090303,39.1929382 L2.12121212,39.1929382 C0.949737374,39.1929382 0,38.2619286 0,37.1132444 L0,6.13770316 Z" id="Path" stroke="#5557FF" stroke-width="1.68" fill="#FFFFFF" fill-rule="nonzero"></path>
                            <rect id="Rectangle" fill="#5557FF" fill-rule="nonzero" x="6.01010101" y="13.1713939" width="24.040404" height="2.77292502" rx="1.386"></rect>
                            <rect id="Rectangle" stroke="#5557FF" stroke-width="1.68" fill="#5557FF" fill-rule="nonzero" x="6.71717172" y="0" width="4.79427879" height="8.75838074" rx="2.34943632"></rect>
                            <rect id="Rectangle" stroke="#5557FF" stroke-width="1.68" fill="#5557FF" fill-rule="nonzero" x="23.2729495" y="0" width="4.79427879" height="8.75838074" rx="2.34943632"></rect>
                            <path d="M15.9629697,27.2405222 C15.9629697,28.3588429 15.8727475,29.3602847 15.692303,30.2449865 C15.5182222,31.1231718 15.2411919,31.8688113 14.8609293,32.4816278 C14.4806667,33.0945829 13.9844444,33.562098 13.3722626,33.8844505 C12.7599394,34.2066644 12.0187879,34.3677714 11.1488081,34.3677714 C10.0596364,34.3677714 9.16066667,34.0865968 8.45175758,33.5242476 C7.74284848,32.9555207 7.21749495,32.1404194 6.8759798,31.0789437 C6.53446465,30.0110902 6.36363636,28.7316626 6.36363636,27.2405222 C6.36363636,25.7492431 6.51834343,24.4730044 6.82761616,23.41139 C7.14339394,22.3436752 7.65262626,21.5253851 8.3550303,20.9566582 C9.05743434,20.3880699 9.98878788,20.1037064 11.1488081,20.1037064 C12.2443434,20.1037064 13.1465657,20.3880699 13.8556162,20.9566582 C14.5708889,21.5190073 15.0993535,22.3341087 15.4408687,23.4019621 C15.7888889,24.4634378 15.9629697,25.743004 15.9629697,27.2405222 Z M8.65468687,27.2405222 C8.65468687,28.4094487 8.7320404,29.385657 8.88674747,30.169147 C9.04781818,30.9526369 9.31212121,31.5402197 9.67937374,31.9318954 C10.0467677,32.317332 10.5364848,32.5100503 11.1488081,32.5100503 C11.7609899,32.5100503 12.2508485,32.317332 12.6182424,31.9318954 C12.9854949,31.5465975 13.249798,30.9620649 13.4108687,30.1785749 C13.5784444,29.3950849 13.6621616,28.4156878 13.6621616,27.2405222 C13.6621616,26.0778347 13.581697,25.1048153 13.4204848,24.3213254 C13.2594141,23.5378354 12.9952525,22.9502526 12.6278586,22.5584383 C12.2604646,22.1603849 11.7674949,21.9612889 11.1488081,21.9612889 C10.5301212,21.9612889 10.0371515,22.1603849 9.66975758,22.5584383 C9.30886869,22.9502526 9.04781818,23.5378354 8.88674747,24.3213254 C8.7320404,25.1048153 8.65468687,26.0778347 8.65468687,27.2405222 Z" id="Shape" fill="#FF66A9" fill-rule="nonzero"></path>
                            <text id="4" font-family="OpenSans-Semibold, Open Sans" font-size="18.9" font-weight="500" fill="#FF66A9">
                                <tspan x="18.0858586" y="33.8852459">4</tspan>
                            </text>
                        </g>
                    </g>
                </g>
            </g>
        </g>
    </g>
</svg>