<?xml version="1.0" encoding="UTF-8"?>
<svg width="178px" height="65px" viewBox="0 0 178 65" version="1.1" xmlns="http://www.w3.org/2000/svg" xmlns:xlink="http://www.w3.org/1999/xlink">
    <title>Group@1x</title>
    <defs>
        <rect id="path-1" x="0" y="0" width="150" height="52" rx="8"></rect>
        <filter x="-18.7%" y="-26.9%" width="137.3%" height="207.7%" filterUnits="objectBoundingBox" id="filter-2">
            <feMorphology radius="5" operator="erode" in="SourceAlpha" result="shadowSpreadOuter1"></feMorphology>
            <feOffset dx="0" dy="14" in="shadowSpreadOuter1" result="shadowOffsetOuter1"></feOffset>
            <feGaussianBlur stdDeviation="12" in="shadowOffsetOuter1" result="shadowBlurOuter1"></feGaussianBlur>
            <feColorMatrix values="0 0 0 0 0   0 0 0 0 0.101960784   0 0 0 0 0.250980392  0 0 0 0.28 0" type="matrix" in="shadowBlurOuter1"></feColorMatrix>
        </filter>
    </defs>
    <g id="Final_02" stroke="none" stroke-width="1" fill="none" fill-rule="evenodd">
        <g id="Desktop---CHR-Credit-alert" transform="translate(-1060.000000, -893.000000)" fill-rule="nonzero">
            <g id="Group-20" transform="translate(372.000000, 684.000000)">
                <g id="Group-11" transform="translate(450.000000, 54.000000)">
                    <g id="Group" transform="translate(252.000000, 155.000000)">
                        <g id="Rectangle">
                            <use fill="black" fill-opacity="1" filter="url(#filter-2)" xlink:href="#path-1"></use>
                            <use fill="#FFFFFF" xlink:href="#path-1"></use>
                        </g>
                        <path d="M30.5,18.958 L30.5,18 L24.475,18 C23.661,18 23,18.618 23,19.379 L23,26.621 C23,27.382 23.661,28 24.475,28 L30.5,28 L30.5,18.958 Z" id="Path" fill="#7BC7EF"></path>
                        <path d="M36.525,18 L30.5,18 L30.5,18.958 L30.5,28 L36.525,28 C37.34,28 38,27.382 38,26.621 L38,19.379 C38,18.618 37.34,18 36.525,18 Z" id="Path" fill="#58ABE2"></path>
                        <polygon id="Path" fill="#ECECEA" points="24.85 25.34 28.958 25.34 28.958 20.514 24.85 20.514"></polygon>
                        <path d="M28.061,22.229 C27.973,21.598 27.49,21.114 26.904,21.114 C26.319,21.114 25.836,21.598 25.748,22.229 C25.655,22.269 25.586,22.402 25.586,22.562 C25.586,22.753 25.685,22.908 25.806,22.908 C25.808,22.908 25.81,22.906 25.812,22.906 C25.981,23.4 26.406,23.751 26.904,23.751 C27.403,23.751 27.827,23.4 27.997,22.906 C27.998,22.906 28.001,22.908 28.003,22.908 C28.124,22.908 28.222,22.753 28.222,22.562 C28.222,22.402 28.154,22.269 28.061,22.229 Z" id="Path" fill="#F5C436"></path>
                        <path d="M28.813,24.725 C28.788,24.306 28.345,24.066 27.815,24.093 C27.115,24.128 27.124,23.635 27.124,23.482 L26.685,23.482 C26.685,23.635 26.694,24.128 25.994,24.093 C25.464,24.066 25.021,24.306 24.995,24.725 L24.995,25.51 L28.813,25.51 L28.813,24.725 Z" id="Path" fill="#F5C436"></path>
                        <path d="M24.85,25.144 L24.85,20.691 L28.958,20.691 L28.958,25.144 L24.85,25.144 Z M24.122,19.559 L24.122,26.463 L30.494,26.463 L30.494,19.559 L24.122,19.559 Z" id="Shape" fill="#EBEBE9"></path>
                        <polygon id="Path" fill="#D9DAD7" points="36.876 19.559 30.494 19.559 30.494 26.463 36.876 26.463"></polygon>
                        <polygon id="Path" fill="#60C9B7" points="36.33 21.57 31.282 21.57 31.282 20.486 36.33 20.486"></polygon>
                        <polygon id="Path" fill="#ECECEA" points="36.33 23.013 31.282 23.013 31.282 22.471 36.33 22.471"></polygon>
                        <polygon id="Path" fill="#ECECEA" points="36.33 24.022 31.282 24.022 31.282 23.479 36.33 23.479"></polygon>
                        <polygon id="Path" fill="#ECECEA" points="36.33 25.033 31.282 25.033 31.282 24.491 36.33 24.491"></polygon>
                        <path d="M25.511,27.685 C26.928,27.685 27.915,28.641 27.915,29.5 C27.915,30.359 26.928,31.316 25.511,31.316 C24.094,31.316 23.106,30.359 23.106,29.5 C23.106,28.641 24.094,27.685 25.511,27.685 Z M35.489,27.685 C36.907,27.685 37.894,28.641 37.894,29.5 C37.894,30.359 36.907,31.316 35.489,31.316 C34.072,31.316 33.085,30.359 33.085,29.5 C33.085,28.641 34.072,27.685 35.489,27.685 Z M25.511,34 C26.854,34 28.068,33.625 29.013,32.996 C29.947,32.373 31.054,32.373 31.988,32.996 C32.933,33.625 34.147,34 35.49,34 C38.58,34 41,30.445 41,27.921 C41,25.398 38.58,25 35.489,25 C34.147,25 32.933,25.375 31.988,26.004 C31.053,26.627 29.947,26.627 29.013,26.004 C28.068,25.375 26.854,25 25.511,25 C22.421,25 20,25.398 20,27.921 C20,30.445 22.421,34 25.511,34 Z" id="Shape" fill="#052F5F"></path>
                        <path d="M58.615,13.434 C59.721,13.434 60.527,13.66 61.035,14.113 C61.543,14.566 61.797,15.201 61.797,16.018 C61.797,16.389 61.738,16.742 61.621,17.078 C61.508,17.41 61.32,17.705 61.059,17.963 C60.797,18.217 60.451,18.418 60.021,18.566 C59.596,18.715 59.07,18.789 58.445,18.789 L57.531,18.789 L57.531,22 L56.125,22 L56.125,13.434 L58.615,13.434 Z M58.521,14.6 L57.531,14.6 L57.531,17.617 L58.299,17.617 C58.74,17.617 59.115,17.566 59.424,17.465 C59.732,17.359 59.967,17.193 60.127,16.967 C60.287,16.74 60.367,16.441 60.367,16.07 C60.367,15.574 60.217,15.205 59.916,14.963 C59.619,14.721 59.154,14.6 58.521,14.6 Z M66.654,15.391 C66.764,15.391 66.883,15.396 67.012,15.408 C67.141,15.42 67.252,15.436 67.346,15.455 L67.217,16.744 C67.135,16.721 67.033,16.703 66.912,16.691 C66.795,16.68 66.689,16.674 66.596,16.674 C66.35,16.674 66.115,16.715 65.893,16.797 C65.67,16.875 65.473,16.996 65.301,17.16 C65.129,17.32 64.994,17.521 64.896,17.764 C64.799,18.006 64.75,18.287 64.75,18.607 L64.75,22 L63.367,22 L63.367,15.514 L64.445,15.514 L64.633,16.656 L64.697,16.656 C64.826,16.426 64.986,16.215 65.178,16.023 C65.369,15.832 65.588,15.68 65.834,15.566 C66.084,15.449 66.357,15.391 66.654,15.391 Z M71.131,15.391 C71.709,15.391 72.205,15.51 72.619,15.748 C73.033,15.986 73.352,16.324 73.574,16.762 C73.797,17.199 73.908,17.723 73.908,18.332 L73.908,19.07 L69.578,19.07 C69.594,19.699 69.762,20.184 70.082,20.523 C70.406,20.863 70.859,21.033 71.441,21.033 C71.855,21.033 72.227,20.994 72.555,20.916 C72.887,20.834 73.229,20.715 73.58,20.559 L73.58,21.678 C73.256,21.83 72.926,21.941 72.59,22.012 C72.254,22.082 71.852,22.117 71.383,22.117 C70.746,22.117 70.186,21.994 69.701,21.748 C69.221,21.498 68.844,21.127 68.57,20.635 C68.301,20.143 68.166,19.531 68.166,18.801 C68.166,18.074 68.289,17.457 68.535,16.949 C68.781,16.441 69.127,16.055 69.572,15.789 C70.018,15.523 70.537,15.391 71.131,15.391 Z M71.131,16.428 C70.697,16.428 70.346,16.568 70.076,16.85 C69.811,17.131 69.654,17.543 69.607,18.086 L72.561,18.086 C72.557,17.762 72.502,17.475 72.396,17.225 C72.295,16.975 72.139,16.779 71.928,16.639 C71.721,16.498 71.455,16.428 71.131,16.428 Z M76.943,22 L74.477,15.514 L75.936,15.514 L77.271,19.322 C77.357,19.564 77.436,19.826 77.506,20.107 C77.576,20.389 77.625,20.625 77.652,20.816 L77.699,20.816 C77.727,20.617 77.779,20.379 77.857,20.102 C77.936,19.82 78.016,19.561 78.098,19.322 L79.434,15.514 L80.887,15.514 L78.42,22 L76.943,22 Z M84.455,15.391 C85.033,15.391 85.529,15.51 85.943,15.748 C86.357,15.986 86.676,16.324 86.898,16.762 C87.121,17.199 87.232,17.723 87.232,18.332 L87.232,19.07 L82.902,19.07 C82.918,19.699 83.086,20.184 83.406,20.523 C83.73,20.863 84.184,21.033 84.766,21.033 C85.18,21.033 85.551,20.994 85.879,20.916 C86.211,20.834 86.553,20.715 86.904,20.559 L86.904,21.678 C86.58,21.83 86.25,21.941 85.914,22.012 C85.578,22.082 85.176,22.117 84.707,22.117 C84.07,22.117 83.51,21.994 83.025,21.748 C82.545,21.498 82.168,21.127 81.895,20.635 C81.625,20.143 81.49,19.531 81.49,18.801 C81.49,18.074 81.613,17.457 81.859,16.949 C82.105,16.441 82.451,16.055 82.896,15.789 C83.342,15.523 83.861,15.391 84.455,15.391 Z M84.455,16.428 C84.021,16.428 83.67,16.568 83.4,16.85 C83.135,17.131 82.979,17.543 82.932,18.086 L85.885,18.086 C85.881,17.762 85.826,17.475 85.721,17.225 C85.619,16.975 85.463,16.779 85.252,16.639 C85.045,16.498 84.779,16.428 84.455,16.428 Z M92.166,15.391 C92.896,15.391 93.465,15.58 93.871,15.959 C94.281,16.334 94.486,16.938 94.486,17.77 L94.486,22 L93.109,22 L93.109,18.027 C93.109,17.523 93.006,17.146 92.799,16.896 C92.592,16.643 92.271,16.516 91.838,16.516 C91.209,16.516 90.771,16.709 90.525,17.096 C90.283,17.482 90.162,18.043 90.162,18.777 L90.162,22 L88.785,22 L88.785,15.514 L89.857,15.514 L90.051,16.393 L90.127,16.393 C90.268,16.166 90.441,15.98 90.648,15.836 C90.859,15.688 91.094,15.576 91.352,15.502 C91.613,15.428 91.885,15.391 92.166,15.391 Z M98.828,21.004 C99.008,21.004 99.186,20.988 99.361,20.957 C99.537,20.922 99.697,20.881 99.842,20.834 L99.842,21.877 C99.689,21.943 99.492,22 99.25,22.047 C99.008,22.094 98.756,22.117 98.494,22.117 C98.127,22.117 97.797,22.057 97.504,21.936 C97.211,21.811 96.979,21.598 96.807,21.297 C96.635,20.996 96.549,20.58 96.549,20.049 L96.549,16.562 L95.664,16.562 L95.664,15.947 L96.613,15.461 L97.064,14.072 L97.932,14.072 L97.932,15.514 L99.789,15.514 L99.789,16.562 L97.932,16.562 L97.932,20.031 C97.932,20.359 98.014,20.604 98.178,20.764 C98.342,20.924 98.559,21.004 98.828,21.004 Z M56.125,40 L56.125,31.434 L57.531,31.434 L57.531,40 L56.125,40 Z M61.832,40.117 C61.059,40.117 60.438,39.836 59.969,39.273 C59.504,38.707 59.271,37.873 59.271,36.771 C59.271,35.658 59.508,34.816 59.98,34.246 C60.457,33.676 61.084,33.391 61.861,33.391 C62.189,33.391 62.477,33.436 62.723,33.525 C62.969,33.611 63.18,33.729 63.355,33.877 C63.535,34.025 63.688,34.191 63.812,34.375 L63.877,34.375 C63.857,34.254 63.834,34.08 63.807,33.854 C63.783,33.623 63.771,33.41 63.771,33.215 L63.771,30.883 L65.154,30.883 L65.154,40 L64.076,40 L63.83,39.115 L63.771,39.115 C63.654,39.303 63.506,39.473 63.326,39.625 C63.15,39.773 62.939,39.893 62.693,39.982 C62.451,40.072 62.164,40.117 61.832,40.117 Z M62.219,38.998 C62.809,38.998 63.225,38.828 63.467,38.488 C63.709,38.148 63.834,37.639 63.842,36.959 L63.842,36.777 C63.842,36.051 63.725,35.494 63.49,35.107 C63.256,34.717 62.828,34.521 62.207,34.521 C61.711,34.521 61.332,34.723 61.07,35.125 C60.812,35.523 60.684,36.08 60.684,36.795 C60.684,37.51 60.812,38.057 61.07,38.436 C61.332,38.811 61.715,38.998 62.219,38.998 Z M69.713,33.391 C70.291,33.391 70.787,33.51 71.201,33.748 C71.615,33.986 71.934,34.324 72.156,34.762 C72.379,35.199 72.49,35.723 72.49,36.332 L72.49,37.07 L68.16,37.07 C68.176,37.699 68.344,38.184 68.664,38.523 C68.988,38.863 69.441,39.033 70.023,39.033 C70.438,39.033 70.809,38.994 71.137,38.916 C71.469,38.834 71.811,38.715 72.162,38.559 L72.162,39.678 C71.838,39.83 71.508,39.941 71.172,40.012 C70.836,40.082 70.434,40.117 69.965,40.117 C69.328,40.117 68.768,39.994 68.283,39.748 C67.803,39.498 67.426,39.127 67.152,38.635 C66.883,38.143 66.748,37.531 66.748,36.801 C66.748,36.074 66.871,35.457 67.117,34.949 C67.363,34.441 67.709,34.055 68.154,33.789 C68.6,33.523 69.119,33.391 69.713,33.391 Z M69.713,34.428 C69.279,34.428 68.928,34.568 68.658,34.85 C68.393,35.131 68.236,35.543 68.189,36.086 L71.143,36.086 C71.139,35.762 71.084,35.475 70.979,35.225 C70.877,34.975 70.721,34.779 70.51,34.639 C70.303,34.498 70.037,34.428 69.713,34.428 Z M77.424,33.391 C78.154,33.391 78.723,33.58 79.129,33.959 C79.539,34.334 79.744,34.938 79.744,35.77 L79.744,40 L78.367,40 L78.367,36.027 C78.367,35.523 78.264,35.146 78.057,34.896 C77.85,34.643 77.529,34.516 77.096,34.516 C76.467,34.516 76.029,34.709 75.783,35.096 C75.541,35.482 75.42,36.043 75.42,36.777 L75.42,40 L74.043,40 L74.043,33.514 L75.115,33.514 L75.309,34.393 L75.385,34.393 C75.525,34.166 75.699,33.98 75.906,33.836 C76.117,33.688 76.352,33.576 76.609,33.502 C76.871,33.428 77.143,33.391 77.424,33.391 Z M84.086,39.004 C84.266,39.004 84.443,38.988 84.619,38.957 C84.795,38.922 84.955,38.881 85.1,38.834 L85.1,39.877 C84.947,39.943 84.75,40 84.508,40.047 C84.266,40.094 84.014,40.117 83.752,40.117 C83.385,40.117 83.055,40.057 82.762,39.936 C82.469,39.811 82.236,39.598 82.064,39.297 C81.893,38.996 81.807,38.58 81.807,38.049 L81.807,34.562 L80.922,34.562 L80.922,33.947 L81.871,33.461 L82.322,32.072 L83.189,32.072 L83.189,33.514 L85.047,33.514 L85.047,34.562 L83.189,34.562 L83.189,38.031 C83.189,38.359 83.271,38.604 83.436,38.764 C83.6,38.924 83.816,39.004 84.086,39.004 Z M87.795,33.514 L87.795,40 L86.418,40 L86.418,33.514 L87.795,33.514 Z M87.115,31.029 C87.326,31.029 87.508,31.086 87.66,31.199 C87.816,31.312 87.895,31.508 87.895,31.785 C87.895,32.059 87.816,32.254 87.66,32.371 C87.508,32.484 87.326,32.541 87.115,32.541 C86.896,32.541 86.711,32.484 86.559,32.371 C86.41,32.254 86.336,32.059 86.336,31.785 C86.336,31.508 86.41,31.312 86.559,31.199 C86.711,31.086 86.896,31.029 87.115,31.029 Z M92.184,39.004 C92.363,39.004 92.541,38.988 92.717,38.957 C92.893,38.922 93.053,38.881 93.197,38.834 L93.197,39.877 C93.045,39.943 92.848,40 92.605,40.047 C92.363,40.094 92.111,40.117 91.85,40.117 C91.482,40.117 91.152,40.057 90.859,39.936 C90.566,39.811 90.334,39.598 90.162,39.297 C89.99,38.996 89.904,38.58 89.904,38.049 L89.904,34.562 L89.02,34.562 L89.02,33.947 L89.969,33.461 L90.42,32.072 L91.287,32.072 L91.287,33.514 L93.145,33.514 L93.145,34.562 L91.287,34.562 L91.287,38.031 C91.287,38.359 91.369,38.604 91.533,38.764 C91.697,38.924 91.914,39.004 92.184,39.004 Z M93.537,33.514 L95.037,33.514 L96.367,37.217 C96.426,37.385 96.479,37.551 96.525,37.715 C96.576,37.875 96.619,38.033 96.654,38.189 C96.693,38.346 96.725,38.502 96.748,38.658 L96.783,38.658 C96.822,38.455 96.877,38.229 96.947,37.979 C97.021,37.725 97.104,37.471 97.193,37.217 L98.471,33.514 L99.953,33.514 L97.17,40.891 C97.01,41.312 96.812,41.672 96.578,41.969 C96.348,42.27 96.074,42.496 95.758,42.648 C95.441,42.805 95.08,42.883 94.674,42.883 C94.479,42.883 94.309,42.871 94.164,42.848 C94.02,42.828 93.896,42.807 93.795,42.783 L93.795,41.682 C93.877,41.701 93.98,41.719 94.105,41.734 C94.23,41.75 94.359,41.758 94.492,41.758 C94.738,41.758 94.951,41.709 95.131,41.611 C95.311,41.514 95.463,41.375 95.588,41.195 C95.713,41.02 95.816,40.818 95.898,40.592 L96.127,39.982 L93.537,33.514 Z M107.166,40 L105.754,40 L105.754,32.629 L103.246,32.629 L103.246,31.434 L109.668,31.434 L109.668,32.629 L107.166,32.629 L107.166,40 Z M112.217,30.883 L112.217,33.174 C112.217,33.412 112.209,33.645 112.193,33.871 C112.182,34.098 112.168,34.273 112.152,34.398 L112.229,34.398 C112.365,34.172 112.533,33.986 112.732,33.842 C112.932,33.693 113.154,33.582 113.4,33.508 C113.65,33.434 113.916,33.396 114.197,33.396 C114.693,33.396 115.115,33.48 115.463,33.648 C115.811,33.812 116.076,34.068 116.26,34.416 C116.447,34.764 116.541,35.215 116.541,35.77 L116.541,40 L115.164,40 L115.164,36.027 C115.164,35.523 115.061,35.146 114.854,34.896 C114.646,34.643 114.326,34.516 113.893,34.516 C113.475,34.516 113.143,34.604 112.896,34.779 C112.654,34.951 112.48,35.207 112.375,35.547 C112.27,35.883 112.217,36.293 112.217,36.777 L112.217,40 L110.84,40 L110.84,30.883 L112.217,30.883 Z M121.053,33.391 C121.631,33.391 122.127,33.51 122.541,33.748 C122.955,33.986 123.273,34.324 123.496,34.762 C123.719,35.199 123.83,35.723 123.83,36.332 L123.83,37.07 L119.5,37.07 C119.516,37.699 119.684,38.184 120.004,38.523 C120.328,38.863 120.781,39.033 121.363,39.033 C121.777,39.033 122.148,38.994 122.477,38.916 C122.809,38.834 123.15,38.715 123.502,38.559 L123.502,39.678 C123.178,39.83 122.848,39.941 122.512,40.012 C122.176,40.082 121.773,40.117 121.305,40.117 C120.668,40.117 120.107,39.994 119.623,39.748 C119.143,39.498 118.766,39.127 118.492,38.635 C118.223,38.143 118.088,37.531 118.088,36.801 C118.088,36.074 118.211,35.457 118.457,34.949 C118.703,34.441 119.049,34.055 119.494,33.789 C119.939,33.523 120.459,33.391 121.053,33.391 Z M121.053,34.428 C120.619,34.428 120.268,34.568 119.998,34.85 C119.732,35.131 119.576,35.543 119.529,36.086 L122.482,36.086 C122.479,35.762 122.424,35.475 122.318,35.225 C122.217,34.975 122.061,34.779 121.85,34.639 C121.643,34.498 121.377,34.428 121.053,34.428 Z M128.623,34.562 L127.047,34.562 L127.047,40 L125.67,40 L125.67,34.562 L124.609,34.562 L124.609,33.9 L125.67,33.496 L125.67,33.045 C125.67,32.494 125.756,32.057 125.928,31.732 C126.104,31.408 126.354,31.176 126.678,31.035 C127.006,30.891 127.396,30.818 127.85,30.818 C128.146,30.818 128.418,30.844 128.664,30.895 C128.91,30.941 129.117,30.996 129.285,31.059 L128.928,32.102 C128.795,32.059 128.646,32.02 128.482,31.984 C128.318,31.945 128.143,31.926 127.955,31.926 C127.643,31.926 127.412,32.023 127.264,32.219 C127.119,32.414 127.047,32.699 127.047,33.074 L127.047,33.514 L128.623,33.514 L128.623,34.562 Z M132.145,39.004 C132.324,39.004 132.502,38.988 132.678,38.957 C132.854,38.922 133.014,38.881 133.158,38.834 L133.158,39.877 C133.006,39.943 132.809,40 132.566,40.047 C132.324,40.094 132.072,40.117 131.811,40.117 C131.443,40.117 131.113,40.057 130.82,39.936 C130.527,39.811 130.295,39.598 130.123,39.297 C129.951,38.996 129.865,38.58 129.865,38.049 L129.865,34.562 L128.98,34.562 L128.98,33.947 L129.93,33.461 L130.381,32.072 L131.248,32.072 L131.248,33.514 L133.105,33.514 L133.105,34.562 L131.248,34.562 L131.248,38.031 C131.248,38.359 131.33,38.604 131.494,38.764 C131.658,38.924 131.875,39.004 132.145,39.004 Z" id="Shape" fill="#052F5F"></path>
                    </g>
                </g>
            </g>
        </g>
    </g>
</svg>