<svg width="148" height="148" viewBox="0 0 148 148" fill="none" xmlns="http://www.w3.org/2000/svg">
<path d="M74.0463 12.3335C81.5964 25.3037 89.2119 38.2358 96.6802 51.2551C84.6088 72.5489 72.7117 93.9462 60.2318 115.006C55.4435 123.09 50.786 131.25 46.0522 139.361C30.7015 139.454 15.3507 139.448 0 139.426C0.468475 138.375 0.931503 137.318 1.49803 136.316C25.6681 94.9812 49.9307 53.701 74.0463 12.3335Z" fill="#AE285D"/>
<path d="M74.0515 91.407C89.4567 91.4016 104.862 91.2926 120.267 91.5487C129.441 107.542 138.908 123.361 148 139.399C132.595 139.475 117.195 139.415 101.79 139.404C92.6217 123.356 83.0451 107.553 74.0515 91.407Z" fill="#AE285D"/>
</svg>
