<svg width="148" height="148" viewBox="0 0 148 148" fill="none" xmlns="http://www.w3.org/2000/svg">
<g clip-path="url(#clip0_117_252)">
<path fill-rule="evenodd" clip-rule="evenodd" d="M-7.63818 0H152.611V147.999H-7.63818V0Z" fill="#E7E514"/>
<path fill-rule="evenodd" clip-rule="evenodd" d="M78.1343 84.6607L69.3544 64.2942C69.3544 64.2821 69.3241 64.264 69.3241 64.2518V64.2004L69.2635 64.0641C68.7488 62.9106 68.1433 62.1174 67.447 61.6875C67.3864 61.6451 67.2653 61.5694 67.0837 61.4907C66.902 61.3969 66.7809 61.3302 66.7204 61.2848C66.3571 61.1849 66.1149 61.082 65.9938 60.9639C65.8727 60.8519 65.8121 60.6884 65.8121 60.4856C65.8121 60.2615 65.9332 60.0829 66.1149 59.9406C66.3268 59.8013 66.5993 59.7226 66.9323 59.7226C67.0534 59.7226 67.2351 59.7408 67.5075 59.7832C67.5984 59.7892 67.6892 59.8013 67.7195 59.8013L67.78 59.8165C68.8094 59.9315 69.7177 59.989 70.5048 59.989C71.0498 59.989 71.5948 59.9769 72.17 59.9527C72.7452 59.9315 73.4113 59.8952 74.1379 59.8528C74.3498 59.8407 74.6526 59.8165 75.137 59.7832C75.5911 59.7408 75.9242 59.7226 76.1361 59.7226C76.4691 59.7226 76.7113 59.7832 76.8324 59.8831C76.9535 59.989 77.0141 60.1677 77.0141 60.4159C77.0141 60.6279 76.9838 60.8004 76.8627 60.9124C76.8022 61.0245 76.5902 61.1486 76.2572 61.2848C76.1967 61.3212 76.1664 61.3363 76.1361 61.3484C76.1361 61.3484 76.1058 61.3605 76.0755 61.3726C75.2884 61.7329 74.8645 62.2355 74.8645 62.8561C74.8645 63.059 74.9251 63.3375 75.0159 63.6917C75.137 64.0399 75.2884 64.4486 75.47 64.9149L80.7985 77.5822C80.8288 77.7124 80.9197 77.8305 80.9802 77.9183C81.071 77.994 81.1921 78.0363 81.283 78.0363C81.3738 78.0363 81.4949 78 81.5857 77.9183C81.6765 77.8486 81.7674 77.7336 81.8279 77.6004L86.672 66.0744C86.8537 65.6415 86.9748 65.2116 87.0959 64.7847C87.1867 64.3639 87.2473 63.9975 87.2473 63.6917C87.2473 63.0953 87.0959 62.6079 86.7931 62.2476C86.4601 61.8873 85.9757 61.6209 85.3096 61.4392C85.2188 61.3969 85.0674 61.3605 84.916 61.3212C84.8555 61.303 84.8252 61.2969 84.8252 61.2848H84.7949C84.0078 61.0941 83.6142 60.7823 83.6142 60.3493C83.6142 60.1253 83.705 59.9769 83.8564 59.8528C84.0078 59.7408 84.2197 59.6893 84.5225 59.6893C84.583 59.6893 84.6436 59.6923 84.7647 59.7105C84.8858 59.7166 85.0069 59.7226 85.0977 59.7226C85.1582 59.7347 85.2188 59.7468 85.3096 59.765C86.4904 59.8831 87.5803 59.9527 88.5794 59.9527C89.0033 59.9527 89.4574 59.9467 89.8812 59.9194C90.3051 59.8831 90.7592 59.8346 91.2739 59.765C91.3345 59.765 91.4253 59.7529 91.5161 59.7408C91.607 59.7287 91.6978 59.7226 91.6978 59.7226C92.0005 59.7347 92.1822 59.7892 92.273 59.877C92.3638 59.9648 92.4244 60.1192 92.4244 60.3493C92.4244 60.7096 92.1519 61.0668 91.607 61.3847L91.5767 61.4029C91.5767 61.415 91.5464 61.4392 91.4859 61.4786C91.2739 61.5967 91.1225 61.7057 91.0014 61.7935C90.5473 62.1961 89.9721 63.1407 89.306 64.6242C89.2455 64.7847 89.1849 64.8967 89.1546 64.9815C89.1243 65.0269 89.1244 65.0753 89.0941 65.145C89.0638 65.1934 89.0335 65.2812 88.973 65.4114L81.3435 82.5293C81.3132 82.5898 81.283 82.6655 81.2527 82.7563C81.1921 82.8381 81.1316 82.9682 81.071 83.1348C80.5563 84.3095 80.1628 85.0542 79.9206 85.3631C79.6784 85.6719 79.4059 85.8232 79.1334 85.8232C78.9215 85.8232 78.7701 85.7476 78.6187 85.5931C78.4673 85.4387 78.3159 85.1269 78.1343 84.6607ZM107.229 59.5864V61.5846C106.684 61.3605 106.079 61.2424 105.382 61.2424C104.353 61.2424 103.657 61.4544 103.263 61.8934C102.9 62.3324 102.718 63.2891 102.718 64.7665V68.3512C102.718 69.2504 102.93 69.8589 103.384 70.2131C103.808 70.5734 104.595 70.746 105.655 70.746C106.23 70.746 106.745 70.6975 107.229 70.6097V72.5595C106.563 72.4414 105.867 72.3778 105.08 72.3778C103.959 72.3778 103.293 72.4777 103.051 72.6745C102.839 72.8683 102.718 73.4133 102.718 74.3064V80.4614C102.718 81.7451 102.93 82.5777 103.414 82.944C103.869 83.3164 104.777 83.5072 106.079 83.5072C106.472 83.5072 106.866 83.4829 107.229 83.4345V85.2026C106.714 85.2208 106.2 85.2389 105.685 85.2389C104.807 85.2389 103.687 85.2086 102.325 85.1693C101.991 85.1511 101.749 85.1269 101.628 85.1269C101.537 85.1269 101.416 85.1269 101.295 85.1148C100.659 85.0724 100.266 85.0542 100.054 85.0542C99.3878 85.0542 98.7217 85.0724 98.1162 85.1269C97.4804 85.1693 96.8446 85.2208 96.1786 85.3086C96.0878 85.3207 95.9969 85.3388 95.8455 85.3449C95.5428 85.3752 95.3309 85.3873 95.2098 85.3873C94.9978 85.3873 94.8162 85.3025 94.6648 85.1511C94.5134 85.0028 94.4529 84.8181 94.4529 84.6243C94.4529 84.4215 94.5134 84.2459 94.6345 84.1096C94.7556 83.9673 95.0281 83.7948 95.4217 83.6071L95.4822 83.5707C96.0575 83.2861 96.4208 83.0167 96.6327 82.7382C96.8749 82.4293 97.0263 82.0206 97.1171 81.5423C97.2382 81.0579 97.2988 80.1829 97.2988 78.9113V65.5658C97.2988 64.4668 97.2079 63.6494 97.0566 63.1165C96.9052 62.5867 96.6327 62.1719 96.2997 61.8631C95.9364 61.5846 95.4217 61.3787 94.7253 61.2303C94.7253 61.2303 94.6951 61.2243 94.6648 61.2122L94.1198 61.1002C93.9987 61.0759 93.9079 60.9821 93.7868 60.8519C93.7262 60.7096 93.6657 60.5734 93.6657 60.4159C93.6657 60.2252 93.7565 60.0556 93.8776 59.9194C94.029 59.765 94.2107 59.6893 94.3923 59.6893C94.4831 59.6893 94.574 59.6893 94.6345 59.6923C94.6951 59.6984 94.7859 59.7105 94.8464 59.7226C95.6336 59.8074 96.4208 59.8649 97.208 59.8952C97.9648 59.9406 98.7823 59.9527 99.5997 59.9527C100.084 59.9527 100.569 59.9467 101.114 59.9194C101.628 59.8831 102.234 59.8286 102.9 59.765C103.081 59.765 103.384 59.7408 103.747 59.7105C105.049 59.6227 106.018 59.5803 106.684 59.5803C106.866 59.5803 107.048 59.5803 107.229 59.5864M41.3494 78.9113V65.5658C41.3494 64.4668 41.2586 63.6494 41.1072 63.1165C40.9558 62.5958 40.7136 62.1719 40.3503 61.8631C40.1686 61.7147 39.9567 61.5846 39.7448 61.4968C39.5026 61.3969 39.1695 61.303 38.7154 61.2122C38.6851 61.197 38.6246 61.1849 38.5338 61.1789C38.5035 61.1607 38.3824 61.1365 38.2007 61.1002C38.0796 61.0759 37.9888 60.9821 37.8677 60.8519C37.7769 60.7096 37.7163 60.5703 37.7163 60.4159C37.7163 60.1798 37.8071 59.989 37.9888 59.8528C38.1704 59.7166 38.4126 59.653 38.7154 59.653H38.9879C39.0484 59.6651 39.1393 59.6711 39.2301 59.6893C39.2604 59.6984 39.2906 59.7105 39.3209 59.7105C40.7439 59.8467 42.1063 59.9194 43.4384 59.9194C44.8311 59.9194 46.254 59.8407 47.7375 59.6893C47.8889 59.6711 47.9798 59.6651 48.0403 59.653C48.1311 59.6409 48.1917 59.6348 48.2825 59.6348C48.3431 59.6227 48.4036 59.6166 48.4944 59.6166C48.7669 59.6166 49.0091 59.6833 49.1605 59.8225C49.3422 59.9527 49.4027 60.1253 49.4027 60.3433C49.4027 60.6642 49.1302 60.9367 48.5853 61.1789C48.5247 61.197 48.4944 61.2122 48.4944 61.2122C48.2522 61.2667 48.0706 61.3363 47.9192 61.4029C47.7678 61.4786 47.6467 61.5634 47.5559 61.6512C47.2834 61.9115 47.0715 62.2234 46.9807 62.5867C46.8596 62.947 46.799 63.6373 46.799 64.6969V70.9004C46.799 71.082 46.8293 71.2364 46.8898 71.3606C46.9807 71.4847 47.0412 71.5453 47.132 71.5453C47.1623 71.5453 47.2531 71.5089 47.3742 71.4302C47.4953 71.3727 47.6164 71.2728 47.7375 71.1486L54.2468 65.1692C54.9734 64.5062 55.5184 63.9461 55.8211 63.501C56.1239 63.059 56.2753 62.6442 56.2753 62.2718C56.2753 61.7269 55.912 61.3787 55.1551 61.2303L55.1248 61.2122H55.034H54.9432C54.9432 61.2122 54.9129 61.2031 54.8826 61.197C54.3074 61.0487 54.0349 60.7823 54.0349 60.4159C54.0349 60.1677 54.0954 59.989 54.2165 59.8952C54.3376 59.7892 54.5496 59.7347 54.8826 59.7226C55.034 59.7226 55.1551 59.7226 55.2762 59.7287C55.3973 59.7347 55.5184 59.7468 55.6395 59.765C55.7 59.7711 55.8211 59.7832 55.9422 59.7832C57.123 59.8467 58.1221 59.8831 59.0001 59.8831C59.9992 59.8831 61.0588 59.8467 62.1488 59.7832L62.2396 59.765C62.3001 59.7468 62.391 59.7347 62.4515 59.7287C62.5121 59.7226 62.5726 59.7226 62.6634 59.7226C63.0267 59.7226 63.3295 59.7711 63.4506 59.8649C63.5717 59.9588 63.6625 60.1253 63.6625 60.3796C63.6625 60.6279 63.602 60.8065 63.5112 60.9124C63.4506 61.0184 63.2084 61.1183 62.8148 61.2303C62.7845 61.2424 62.724 61.2667 62.6332 61.303C62.3304 61.4271 62.0882 61.5331 61.9368 61.6148C60.7258 62.1598 59.1817 63.2649 57.3349 64.9209L57.2138 65.0148L57.123 65.1329L53.7019 68.1786C53.4596 68.3693 53.3083 68.5207 53.2174 68.6358C53.1569 68.7659 53.0963 68.8719 53.0963 68.9779C53.0963 69.0475 53.1266 69.1444 53.1872 69.2625C53.2477 69.3866 53.3385 69.5622 53.4899 69.8105L61.513 81.509C61.8763 82.0115 62.2093 82.4233 62.5121 82.7139C62.8451 83.0046 63.1781 83.2286 63.5414 83.4012C63.6625 83.4587 63.7836 83.5132 63.9956 83.5526L64.0258 83.5707C64.2983 83.6252 64.4497 83.707 64.5103 83.8008C64.5708 83.9098 64.6011 84.0975 64.6011 84.3761C64.6011 84.7 64.5405 84.9241 64.3892 85.0391C64.2378 85.1511 63.935 85.2026 63.5112 85.2026C63.2992 85.2026 63.1479 85.1965 63.0267 85.1965C62.9056 85.1844 62.8148 85.1784 62.724 85.1723C62.391 85.1511 62.0882 85.1269 61.8157 85.1148C61.5432 85.1027 61.2708 85.0966 60.9983 85.0966C60.2717 85.0966 59.4845 85.1269 58.6368 85.2026H58.5762C58.4854 85.2147 58.4248 85.2208 58.3643 85.2329C58.3037 85.2389 58.2432 85.2389 58.1826 85.2389C57.8193 85.2389 57.456 85.0542 57.0624 84.694C56.6689 84.3216 56.1845 83.6767 55.5789 82.7382L49.4633 73.4375C49.3422 73.2467 49.2211 73.1166 49.1302 73.0409C49.0394 72.9682 48.9183 72.9288 48.8577 72.9288C48.7669 72.9288 48.6761 72.944 48.6155 72.9682C48.555 72.9985 48.4944 73.0409 48.4339 73.1044L47.3137 74.1459C47.1018 74.3579 46.9504 74.5365 46.8898 74.6727C46.8293 74.8211 46.799 75.0391 46.799 75.3509V79.9165C46.799 80.8823 46.8898 81.5725 47.0715 81.9934C47.2834 82.4051 47.6164 82.7896 48.0706 83.1166C48.3431 83.2861 48.7669 83.4587 49.3119 83.5889L49.4027 83.6071C49.8871 83.7373 50.2202 83.8614 50.3715 83.9916C50.5229 84.1278 50.6137 84.3095 50.6137 84.5456C50.6137 84.7848 50.5229 84.9786 50.3715 85.1451C50.2202 85.3025 50.0688 85.3873 49.8568 85.3873C49.6146 85.3873 49.4027 85.3812 49.2211 85.3631C49.0697 85.357 48.888 85.3388 48.7064 85.3086C47.9495 85.2026 47.2229 85.1269 46.5568 85.0724C45.8605 85.0149 45.1641 84.9967 44.4678 84.9967C43.832 84.9967 43.1659 85.0149 42.4999 85.0664C41.8641 85.1087 41.198 85.1784 40.5622 85.2813C40.2897 85.3086 40.0475 85.3388 39.8356 85.357C39.6237 85.3812 39.442 85.3873 39.2604 85.3873C39.0484 85.3873 38.8971 85.3025 38.7457 85.1511C38.5943 85.0028 38.5035 84.8181 38.5035 84.6243C38.5035 84.2883 38.8365 83.9613 39.442 83.6313L39.4723 83.6071C39.7751 83.495 40.0173 83.3649 40.1989 83.2286C40.3806 83.0803 40.5622 82.9259 40.6833 82.7382C40.9255 82.4415 41.0769 82.0448 41.198 81.5725C41.2888 81.1063 41.3494 80.2132 41.3494 78.9113M107.229 85.2026V83.4345C108.501 83.2771 109.5 82.8381 110.257 82.1114C111.226 81.1759 111.71 79.8287 111.71 78.0727C111.71 76.2047 111.165 74.7787 110.045 73.8189C109.318 73.2104 108.38 72.7866 107.229 72.5595V70.6097C107.956 70.4553 108.531 70.1889 108.955 69.7983C109.651 69.1716 110.015 68.1786 110.015 66.8374C110.015 65.1268 109.591 63.7674 108.743 62.7562C108.319 62.2234 107.804 61.8389 107.229 61.5846V59.5864C109.772 59.653 111.801 60.1798 113.224 61.1849C114.798 62.2476 115.555 63.7493 115.555 65.6718C115.555 67.1159 115.131 68.2967 114.283 69.2019C113.405 70.1072 112.104 70.752 110.348 71.1486C112.8 71.2728 114.586 71.8208 115.737 72.8047C116.917 73.7978 117.493 75.2631 117.493 77.2038C117.493 79.9346 116.524 81.9631 114.586 83.2771C112.921 84.4154 110.469 85.0542 107.229 85.2026" fill="black"/>
<path fill-rule="evenodd" clip-rule="evenodd" d="M54.3375 32.1385C75.3791 15.7715 105.897 19.5771 122.276 40.6187C138.625 61.6633 134.84 92.1751 113.769 108.542C113.163 109.02 112.527 109.478 111.922 109.914C131.359 93.2499 134.477 63.9037 118.582 43.4858C102.688 23.0618 73.4717 18.8747 52.5513 33.622C53.1265 33.1194 53.732 32.6229 54.3375 32.1385Z" fill="#00854A"/>
<path fill-rule="evenodd" clip-rule="evenodd" d="M40.5017 26.3072C63.2387 8.62021 94.8465 9.99775 115.646 28.0632C96.6025 13.3402 69.0819 12.7952 49.1 28.366C25.4245 46.7675 21.0042 80.8761 39.2301 104.303C57.4561 127.731 91.607 131.83 115.252 113.431C124.486 106.253 130.784 96.6739 133.963 86.2863C130.875 98.8568 123.699 110.54 112.709 119.108C86.884 139.178 49.645 134.703 29.7539 109.144C9.86278 83.5888 14.7069 46.377 40.5017 26.3072Z" fill="#00854A"/>
<path fill-rule="evenodd" clip-rule="evenodd" d="M-8 85.2633H12.0728C17.7646 115.206 44.1649 137.979 75.7424 137.979C100.235 137.979 121.64 124.249 132.63 104.092H152.711V148H-8V85.2633Z" fill="#00854A"/>
</g>
<defs>
<clipPath id="clip0_117_252">
<rect width="148" height="148" rx="8" fill="white"/>
</clipPath>
</defs>
</svg>
