<svg width="84" height="84" viewBox="0 0 84 84" fill="none" xmlns="http://www.w3.org/2000/svg">
<path d="M50.6447 33.0961C49.5844 36.7316 49.8864 35.3676 48.3175 41.3304C46.8996 46.993 45.4278 52.5999 44.3172 56.3379C43.9613 57.0459 43.5534 57.7594 43.0017 58.4639C42.3422 59.3229 41.5802 60.1819 40.723 60.9402C35.9086 65.1347 28.722 67.6146 22.5005 66.6532C21.9901 66.5957 21.3809 66.4969 20.6782 66.2974C16.7731 65.3862 14.1943 63.4616 12.7261 61.0445C11.1572 58.4639 10.7511 55.0781 11.3064 51.4372C11.3603 50.934 11.5113 50.2763 11.7089 49.5179C14.0901 39.9107 16.5216 30.3645 18.9045 20.813C19.8641 15.9644 9.6333 14.6957 7.45882 21.0125L0.876072 46.8924C0.730507 47.6975 0.52564 48.7074 0.369293 49.7659C-0.592151 55.9317 0.318974 61.8028 3.15838 66.6532C6.14335 71.6509 11.0566 75.3978 18.0904 77.0566C18.8506 77.2614 19.7635 77.4142 20.8238 77.5669C30.1848 78.9812 40.9728 75.441 48.0156 69.2266C49.4263 67.9615 50.7472 66.5957 51.8614 65.1347C52.9738 63.6161 53.9352 61.9987 54.699 60.2789V60.2304L54.8984 59.6769C56.0126 56.0324 57.533 50.0732 59.1 44.0584C60.5665 38.349 61.1236 36.3776 62.236 32.6361C63.3034 27.5341 53.3781 25.3596 50.6447 33.0961Z" fill="#ED1D24"/>
<path d="M33.2845 50.7318C34.3897 47.1484 34.0914 48.5034 35.6099 42.494C37.0817 36.8852 38.5481 31.219 39.603 27.5314C39.9642 26.8269 40.4207 26.0685 40.9724 25.4126C41.6337 24.4997 42.3921 23.6946 43.2493 22.938C48.0637 18.6915 55.3042 16.2618 61.479 17.1747C61.9858 17.2736 62.5932 17.3742 63.2995 17.527C67.201 18.4902 69.8319 20.361 71.3037 22.8356C72.8169 25.4126 73.2823 28.7516 72.718 32.4321C72.6156 32.9424 72.5186 33.5462 72.3137 34.3567C69.778 44.4636 67.2513 54.5165 64.7731 64.6287C64.1082 70.6436 74.7434 71.2474 76.2619 64.476L83.098 36.9841C83.2975 36.1251 83.5024 35.1672 83.6533 34.0566C84.5627 27.9375 83.7055 22.079 80.8157 17.2269C77.8865 12.222 72.9732 8.48041 65.934 6.81451C65.1756 6.66355 64.2573 6.45868 63.1503 6.30593C53.7857 4.89521 43.0031 8.48041 35.9639 14.6498C34.4957 15.9114 33.2287 17.2736 32.111 18.74C31.0004 20.2046 30.0353 21.8705 29.3327 23.594L29.0757 24.1978C28.0154 27.7866 26.4429 33.8014 24.9244 39.766C23.4058 45.5275 22.9027 47.4989 21.7849 51.1847C21.686 58.1089 32.0606 57.5033 33.2845 50.7318Z" fill="#006CB7"/>
</svg>
