<svg width="20" height="20" viewBox="0 0 20 20" fill="none" xmlns="http://www.w3.org/2000/svg">
<rect y="-0.00012207" width="20" height="20" fill="white"/>
<path fill-rule="evenodd" clip-rule="evenodd" d="M10 1.99988C5.584 1.99988 2 5.58388 2 9.99988C2 14.4159 5.584 17.9999 10 17.9999C14.416 17.9999 18 14.4159 18 9.99988C18 5.58388 14.416 1.99988 10 1.99988ZM10 3.33321C6.32 3.33321 3.33333 6.31988 3.33333 9.99988C3.33333 13.6799 6.32 16.6665 10 16.6665C13.68 16.6665 16.6667 13.6799 16.6667 9.99988C16.6667 6.31988 13.68 3.33321 10 3.33321ZM12.3794 8.04621L8.99067 11.3065L7.62043 9.99354C7.37163 9.75414 6.97119 9.75414 6.72223 9.9937C6.47037 10.236 6.47037 10.63 6.72223 10.8723L8.5388 12.6202C8.78798 12.86 9.19439 12.86 9.4384 12.619L13.2778 8.92486C13.5296 8.68252 13.5296 8.28854 13.2778 8.04621C13.0288 7.80666 12.6284 7.80666 12.3794 8.04621Z" fill="#D90368"/>
</svg>
