<svg width="91" height="76" viewBox="0 0 91 76" fill="none" xmlns="http://www.w3.org/2000/svg">
<path d="M2.30737 65.5027H67.4232" stroke="#D6DEE8" stroke-width="1.26" stroke-linecap="round" stroke-linejoin="round"/>
<path d="M61.8562 28.9578H10.0116V60.9197H61.8562V28.9578Z" fill="#CAD1E0"/>
<path opacity="0.7" d="M61.8562 28.9578H10.0116V60.9197H61.8562V28.9578Z" fill="url(#paint0_linear_13_27)"/>
<path d="M65.5024 27.0681H6.20654V30.3767H65.5024V27.0681Z" fill="#D4DAE8"/>
<path d="M3.03516 27.5389L36.0129 5.81665L68.9907 27.5389H3.03516Z" fill="#EAEEF9"/>
<path d="M59.3188 24.0797H12.7069L36.0129 8.80505L59.3188 24.0797Z" fill="#BCC5D6"/>
<path d="M57.7337 24.0797H14.292L36.0129 9.75305L57.7337 24.0797Z" fill="#D4DAE8"/>
<path d="M17.7802 30.3767H7.15747V32.8942H17.7802V30.3767Z" fill="#EAEEF9"/>
<path d="M16.6699 33.0511H8.26709V35.0978H16.6699V33.0511Z" fill="#D4DAE8"/>
<path d="M17.7802 57.6111H7.15747V60.1286H17.7802V57.6111Z" fill="#EAEEF9"/>
<path d="M16.6699 55.5645H8.26709V57.6111H16.6699V55.5645Z" fill="#D4DAE8"/>
<path d="M15.719 34.9408H9.37732V55.5644H15.719V34.9408Z" fill="#D4DAE8"/>
<path d="M29.9879 30.3767H19.3652V32.8942H29.9879V30.3767Z" fill="#EAEEF9"/>
<path d="M28.8784 33.0511H20.4756V35.0978H28.8784V33.0511Z" fill="#D4DAE8"/>
<path d="M29.9879 57.6111H19.3652V60.1286H29.9879V57.6111Z" fill="#EAEEF9"/>
<path d="M28.8784 55.5645H20.4756V57.6111H28.8784V55.5645Z" fill="#D4DAE8"/>
<path d="M27.9268 34.9408H21.5852V55.5644H27.9268V34.9408Z" fill="#D4DAE8"/>
<path d="M52.8185 30.3767H42.1964V32.8942H52.8185V30.3767Z" fill="#EAEEF9"/>
<path d="M51.7088 33.0511H43.306V35.0978H51.7088V33.0511Z" fill="#D4DAE8"/>
<path d="M52.8185 57.6111H42.1964V60.1286H52.8185V57.6111Z" fill="#EAEEF9"/>
<path d="M51.7088 55.5645H43.306V57.6111H51.7088V55.5645Z" fill="#D4DAE8"/>
<path d="M50.5992 34.9408H44.2576V55.5644H50.5992V34.9408Z" fill="#D4DAE8"/>
<path d="M65.0269 30.3767H54.4042V32.8942H65.0269V30.3767Z" fill="#EAEEF9"/>
<path d="M63.9166 33.0511H55.5138V35.0978H63.9166V33.0511Z" fill="#D4DAE8"/>
<path d="M65.0269 57.6111H54.4042V60.1286H65.0269V57.6111Z" fill="#EAEEF9"/>
<path d="M63.9166 55.5645H55.5138V57.6111H63.9166V55.5645Z" fill="#D4DAE8"/>
<path d="M62.9658 34.9408H56.6241V55.5644H62.9658V34.9408Z" fill="#D4DAE8"/>
<path opacity="0.4" d="M41.2449 41.0808H31.0983V60.1286H41.2449V41.0808Z" fill="#1C3754"/>
<path opacity="0.7" d="M41.2449 41.0808H31.0983V60.1286H41.2449V41.0808Z" fill="url(#paint1_linear_13_27)"/>
<path d="M40.452 17.7828C40.452 17.9397 40.452 17.9397 40.452 18.0967V18.2536C40.2939 20.3003 38.3915 21.8761 36.3303 21.8761C34.1104 21.8761 32.3666 20.3003 32.2079 18.2536V18.0967C32.2079 17.9397 32.2079 17.9397 32.2079 17.7828C32.2079 15.5792 34.1104 13.6895 36.3303 13.6895C38.5495 13.6895 40.452 15.5792 40.452 17.7828Z" fill="#9CA1B4"/>
<path d="M40.452 18.0966C40.2939 20.3002 38.3915 21.876 36.3303 21.876C34.1104 21.876 32.3666 20.3002 32.2079 18.2535V18.0966C32.3666 16.0499 34.2691 14.4741 36.3303 14.4741C38.3915 14.4741 40.1352 16.0499 40.452 18.0966Z" fill="#AFB5C6"/>
<path d="M67.0881 60.1287H4.77954V62.4892H67.0881V60.1287Z" fill="#D4DAE8"/>
<path d="M69.3074 62.4893H2.401V64.8498H69.3074V62.4893Z" fill="#EAEEF9"/>
<path d="M27.3834 70.9796C26.7315 70.1453 25.5028 69.9108 24.5764 70.6346C23.7416 71.2869 23.5071 72.5154 24.2313 73.4423C24.8832 74.2766 26.1118 74.5111 27.0391 73.7867C27.9655 73.0629 28.0352 71.814 27.3834 70.9796Z" fill="url(#paint2_linear_13_27)"/>
<path d="M4.38337 13.9796C3.73153 13.1453 2.50284 12.9108 1.57641 13.6346C0.741612 14.2869 0.507122 15.5154 1.23132 16.4423C1.88316 17.2766 3.11185 17.5111 4.03905 16.7867C4.96549 16.0629 5.03521 14.814 4.38337 13.9796Z" fill="#34C79F"/>
<path d="M52.1714 2.364C51.1927 1.11136 49.3506 0.760778 47.9598 1.8474C46.5701 2.93312 46.3561 4.6664 47.4433 6.05796C48.4211 7.30944 50.2641 7.66118 51.6537 6.57546C53.0445 5.48884 53.1491 3.61547 52.1714 2.364Z" fill="url(#paint3_linear_13_27)"/>
<path d="M70.7445 69.7772C68.6213 71.1805 66.1174 72 63.3982 72C56.046 72 50 66.034 50 58.7803C50 51.528 56.046 45.562 63.3982 45.562C70.7445 45.562 76.792 51.528 76.792 58.7803C76.792 63.3429 74.4199 67.4373 70.7445 69.7772Z" fill="url(#paint4_linear_13_27)"/>
<path d="M61.6192 63.6941C61.1447 63.6941 60.7889 63.577 60.4331 63.2258L56.9949 59.8338C56.4019 59.2485 56.4019 58.1949 56.9949 57.611C57.588 57.0257 58.6554 57.0257 59.2485 57.611L61.5006 59.8338L67.3035 54.1005C67.9039 53.5166 68.9728 53.5166 69.5585 54.1005C70.1589 54.6858 70.1589 55.7394 69.5585 56.3233L62.568 63.2258C62.4494 63.577 62.0936 63.6941 61.6192 63.6941Z" fill="white"/>
<path fill-rule="evenodd" clip-rule="evenodd" d="M72.714 43.1918C72.5705 43.1918 72.285 43.1918 72.1429 43.0473C71.8559 42.7727 71.5704 42.4836 71.5704 42.0645L71.7139 35.1273C71.8559 34.4191 72.285 34 72.9995 34C73.7141 34 74.1417 34.5636 74.1417 35.1273L73.9996 42.0645C73.8561 42.7727 73.4286 43.1918 72.714 43.1918ZM80.1423 45.3163C80.5714 45.7354 81.2845 45.88 81.857 45.4608L87.2851 40.7927C87.7141 40.3591 87.8562 39.6509 87.4286 39.0873C86.9996 38.6682 86.285 38.5236 85.7139 38.9572L80.2844 43.6109C79.8568 44.0445 79.7133 44.8972 80.1423 45.3163ZM81.857 54.2191C81.999 54.5081 82.4281 54.7972 82.8571 54.7972H89.8564C90.571 54.7972 91 54.2191 91 53.6554C91 52.9472 90.4275 52.5281 89.8564 52.5281H82.8571C82.1425 52.5281 81.7135 53.0918 81.7135 53.6554C81.7135 53.7999 81.7135 53.9445 81.857 54.2191Z" fill="url(#paint5_linear_13_27)"/>
<defs>
<linearGradient id="paint0_linear_13_27" x1="59.8961" y1="56.6317" x2="59.8961" y2="27.0304" gradientUnits="userSpaceOnUse">
<stop offset="0.00289017" stop-color="#606673" stop-opacity="0.01"/>
<stop offset="1" stop-color="#373C47"/>
</linearGradient>
<linearGradient id="paint1_linear_13_27" x1="40.7611" y1="58.3017" x2="40.7611" y2="40.7355" gradientUnits="userSpaceOnUse">
<stop offset="0.00289017" stop-color="#606673" stop-opacity="0.01"/>
<stop offset="1" stop-color="#373C47"/>
</linearGradient>
<linearGradient id="paint2_linear_13_27" x1="28.5794" y1="72.541" x2="26.2379" y2="69.5441" gradientUnits="userSpaceOnUse">
<stop stop-color="#FF66A9"/>
<stop offset="1" stop-color="#F53689"/>
</linearGradient>
<linearGradient id="paint3_linear_13_27" x1="53.8607" y1="4.6554" x2="50.3486" y2="0.160039" gradientUnits="userSpaceOnUse">
<stop stop-color="#FF66A9"/>
<stop offset="1" stop-color="#F53689"/>
</linearGradient>
<linearGradient id="paint4_linear_13_27" x1="43.5105" y1="60.245" x2="61.7684" y2="78.0321" gradientUnits="userSpaceOnUse">
<stop stop-color="#51DFC3"/>
<stop offset="0.991614" stop-color="#12AB73"/>
</linearGradient>
<linearGradient id="paint5_linear_13_27" x1="95.7062" y1="45.5502" x2="81.4214" y2="58.3797" gradientUnits="userSpaceOnUse">
<stop stop-color="#51DFC3"/>
<stop offset="1" stop-color="#12AB73"/>
</linearGradient>
</defs>
</svg>
