<svg width="333" height="387" viewBox="0 0 333 387" fill="none" xmlns="http://www.w3.org/2000/svg">
<path d="M-1167.63 288.207C-1168.2 288.362 -1168.54 288.949 -1168.38 289.517C-1168.23 290.086 -1167.64 290.422 -1167.07 290.267L-1167.63 288.207ZM-963.974 385.321L-964.039 386.387L-963.974 385.321ZM-715.927 240.127L-715.725 239.079L-715.927 240.127ZM-342.749 213.725L-342.627 214.786L-342.749 213.725ZM-91.8026 341.016L-91.6588 342.073L-91.8026 341.016ZM127.646 202.228L127.878 201.186L127.646 202.228ZM-1160.02 288.638C-1159.44 288.528 -1159.06 287.97 -1159.17 287.391C-1159.28 286.811 -1159.83 286.43 -1160.41 286.54L-1160.02 288.638ZM-1145.7 285.088C-1146.29 285.091 -1146.76 285.572 -1146.76 286.161C-1146.75 286.751 -1146.27 287.226 -1145.68 287.223L-1145.7 285.088ZM-1131.38 288.555C-1130.8 288.668 -1130.24 288.289 -1130.13 287.71C-1130.01 287.132 -1130.39 286.571 -1130.97 286.459L-1131.38 288.555ZM-1116.78 290.623C-1117.33 290.407 -1117.95 290.677 -1118.16 291.225C-1118.38 291.774 -1118.11 292.394 -1117.56 292.61L-1116.78 290.623ZM-1104.57 298.909C-1104.06 299.203 -1103.4 299.026 -1103.11 298.515C-1102.82 298.003 -1102.99 297.351 -1103.51 297.057L-1104.57 298.909ZM-1091.17 305.08C-1091.65 304.735 -1092.31 304.843 -1092.66 305.321C-1093 305.799 -1092.9 306.466 -1092.42 306.811L-1091.17 305.08ZM-1080.94 315.742C-1080.49 316.118 -1079.82 316.055 -1079.44 315.601C-1079.06 315.147 -1079.13 314.474 -1079.58 314.098L-1080.94 315.742ZM-1068.48 323.665C-1068.92 323.273 -1069.6 323.313 -1069.99 323.754C-1070.38 324.194 -1070.34 324.869 -1069.9 325.261L-1068.48 323.665ZM-1059.04 335.032C-1058.61 335.427 -1057.93 335.393 -1057.54 334.955C-1057.14 334.518 -1057.17 333.843 -1057.61 333.447L-1059.04 335.032ZM-1046.72 343.168C-1047.16 342.78 -1047.84 342.825 -1048.23 343.269C-1048.61 343.713 -1048.57 344.387 -1048.13 344.776L-1046.72 343.168ZM-1036.92 354.226C-1036.46 354.596 -1035.79 354.524 -1035.42 354.065C-1035.05 353.606 -1035.12 352.934 -1035.58 352.564L-1036.92 354.226ZM-1023.99 361.35C-1024.47 361.01 -1025.14 361.125 -1025.48 361.607C-1025.82 362.089 -1025.71 362.755 -1025.22 363.095L-1023.99 361.35ZM-1012.86 371.049C-1012.35 371.344 -1011.7 371.17 -1011.4 370.66C-1011.1 370.149 -1011.28 369.496 -1011.79 369.201L-1012.86 371.049ZM-998.875 375.749C-999.416 375.514 -1000.04 375.762 -1000.28 376.303C-1000.51 376.843 -1000.27 377.472 -999.726 377.707L-998.875 375.749ZM-985.85 382.683C-985.282 382.844 -984.692 382.514 -984.532 381.947C-984.371 381.379 -984.701 380.789 -985.268 380.629L-985.85 382.683ZM-971.117 383.56C-971.702 383.482 -972.239 383.893 -972.316 384.478C-972.394 385.062 -971.983 385.599 -971.399 385.677L-971.117 383.56ZM-956.995 386.614C-956.406 386.617 -955.926 386.14 -955.924 385.551C-955.922 384.961 -956.398 384.481 -956.988 384.479L-956.995 386.614ZM-943.392 383.7C-943.977 383.771 -944.395 384.303 -944.324 384.888C-944.253 385.474 -943.721 385.891 -943.136 385.82L-943.392 383.7ZM-929.418 383.216C-928.847 383.066 -928.506 382.483 -928.655 381.913C-928.805 381.342 -929.388 381.001 -929.958 381.15L-929.418 383.216ZM-917.029 376.79C-917.573 377.016 -917.831 377.641 -917.605 378.185C-917.379 378.73 -916.754 378.988 -916.209 378.761L-917.029 376.79ZM-903.725 372.579C-903.214 372.284 -903.039 371.631 -903.334 371.121C-903.628 370.61 -904.281 370.435 -904.792 370.73L-903.725 372.579ZM-893.359 363.213C-893.833 363.563 -893.934 364.232 -893.583 364.706C-893.233 365.18 -892.564 365.281 -892.09 364.93L-893.359 363.213ZM-881.316 356.14C-880.876 355.748 -880.838 355.073 -881.23 354.633C-881.623 354.193 -882.298 354.154 -882.738 354.547L-881.316 356.14ZM-872.839 345.029C-873.25 345.451 -873.24 346.127 -872.818 346.538C-872.395 346.949 -871.719 346.94 -871.308 346.517L-872.839 345.029ZM-861.912 336.312C-861.523 335.869 -861.567 335.195 -862.01 334.806C-862.454 334.417 -863.128 334.461 -863.517 334.904L-861.912 336.312ZM-854.617 324.388C-854.991 324.844 -854.925 325.517 -854.469 325.891C-854.014 326.265 -853.341 326.199 -852.967 325.743L-854.617 324.388ZM-844.29 314.97C-843.923 314.509 -844 313.837 -844.461 313.47C-844.923 313.103 -845.594 313.18 -845.961 313.642L-844.29 314.97ZM-837.376 302.813C-837.743 303.274 -837.666 303.946 -837.205 304.313C-836.744 304.68 -836.072 304.604 -835.705 304.142L-837.376 302.813ZM-827.042 293.412C-826.667 292.957 -826.731 292.284 -827.186 291.909C-827.641 291.534 -828.314 291.599 -828.689 292.054L-827.042 293.412ZM-819.7 281.504C-820.091 281.945 -820.05 282.62 -819.609 283.011C-819.168 283.402 -818.493 283.361 -818.102 282.92L-819.7 281.504ZM-808.714 272.881C-808.299 272.463 -808.301 271.787 -808.719 271.372C-809.137 270.956 -809.813 270.958 -810.229 271.376L-808.714 272.881ZM-800.055 261.9C-800.504 262.283 -800.556 262.956 -800.173 263.405C-799.79 263.853 -799.117 263.906 -798.668 263.523L-800.055 261.9ZM-787.82 255.189C-787.333 254.857 -787.207 254.193 -787.539 253.706C-787.871 253.219 -788.536 253.093 -789.023 253.425L-787.82 255.189ZM-777.009 246.345C-777.537 246.608 -777.751 247.249 -777.488 247.776C-777.225 248.304 -776.584 248.518 -776.056 248.255L-777.009 246.345ZM-763.428 243.122C-762.866 242.943 -762.555 242.343 -762.733 241.781C-762.912 241.219 -763.512 240.908 -764.074 241.087L-763.428 243.122ZM-750.488 237.951C-751.072 238.037 -751.475 238.58 -751.388 239.163C-751.302 239.747 -750.759 240.15 -750.176 240.063L-750.488 237.951ZM-736.539 239.104C-735.949 239.106 -735.47 238.63 -735.468 238.041C-735.465 237.451 -735.942 236.971 -736.531 236.969L-736.539 239.104ZM-722.694 237.941C-723.279 237.862 -723.816 238.273 -723.894 238.857C-723.972 239.442 -723.562 239.979 -722.977 240.057L-722.694 237.941ZM-708.92 242.717C-708.346 242.852 -707.772 242.496 -707.636 241.922C-707.501 241.348 -707.856 240.774 -708.43 240.638L-708.92 242.717ZM-694.124 244.686C-694.684 244.499 -695.288 244.802 -695.474 245.361C-695.661 245.921 -695.358 246.525 -694.799 246.712L-694.124 244.686ZM-681.142 252.002C-680.603 252.241 -679.972 251.999 -679.733 251.46C-679.493 250.921 -679.735 250.29 -680.274 250.051L-681.142 252.002ZM-667.018 256.763C-667.53 256.471 -668.182 256.649 -668.474 257.161C-668.767 257.673 -668.589 258.325 -668.076 258.617L-667.018 256.763ZM-655.718 266.491C-655.236 266.831 -654.57 266.716 -654.23 266.234C-653.89 265.752 -654.005 265.086 -654.487 264.746L-655.718 266.491ZM-642.735 273.814C-643.187 273.435 -643.861 273.495 -644.239 273.947C-644.618 274.399 -644.558 275.072 -644.106 275.451L-642.735 273.814ZM-633.164 285.245C-632.736 285.65 -632.06 285.632 -631.655 285.204C-631.249 284.776 -631.267 284.101 -631.695 283.695L-633.164 285.245ZM-621.145 294.086C-621.559 293.667 -622.235 293.663 -622.655 294.077C-623.074 294.491 -623.078 295.167 -622.664 295.587L-621.145 294.086ZM-612.302 306.104C-611.885 306.522 -611.209 306.523 -610.792 306.107C-610.374 305.691 -610.373 305.015 -610.789 304.597L-612.302 306.104ZM-600.192 314.804C-600.628 314.407 -601.304 314.44 -601.7 314.876C-602.096 315.313 -602.064 315.988 -601.628 316.384L-600.192 314.804ZM-590.161 325.841C-589.686 326.19 -589.018 326.087 -588.669 325.611C-588.321 325.135 -588.424 324.467 -588.9 324.119L-590.161 325.841ZM-576.518 331.805C-577.043 331.538 -577.686 331.747 -577.953 332.273C-578.22 332.798 -578.011 333.441 -577.485 333.708L-576.518 331.805ZM-563.578 339.154C-563.01 339.314 -562.421 338.983 -562.262 338.415C-562.102 337.847 -562.433 337.258 -563.001 337.099L-563.578 339.154ZM-548.68 339.65C-549.267 339.601 -549.783 340.038 -549.832 340.625C-549.881 341.213 -549.445 341.729 -548.857 341.778L-548.68 339.65ZM-534.512 341.87C-533.923 341.833 -533.476 341.326 -533.513 340.737C-533.55 340.149 -534.057 339.702 -534.646 339.739L-534.512 341.87ZM-521.381 338.005C-521.959 338.122 -522.333 338.685 -522.216 339.263C-522.099 339.841 -521.536 340.215 -520.958 340.098L-521.381 338.005ZM-507.801 336.446C-507.246 336.248 -506.956 335.637 -507.154 335.081C-507.352 334.526 -507.963 334.236 -508.518 334.435L-507.801 336.446ZM-496.275 329.074C-496.798 329.347 -497 329.992 -496.728 330.515C-496.455 331.038 -495.81 331.24 -495.287 330.968L-496.275 329.074ZM-483.599 323.91C-483.113 323.576 -482.99 322.912 -483.324 322.426C-483.658 321.94 -484.322 321.817 -484.808 322.151L-483.599 323.91ZM-474.15 313.998C-474.601 314.377 -474.659 315.051 -474.279 315.502C-473.899 315.953 -473.226 316.011 -472.775 315.631L-474.15 313.998ZM-462.71 306.479C-462.287 306.068 -462.278 305.392 -462.69 304.969C-463.101 304.547 -463.777 304.538 -464.199 304.949L-462.71 306.479ZM-454.79 295.297C-455.192 295.728 -455.169 296.404 -454.737 296.806C-454.306 297.208 -453.63 297.184 -453.228 296.753L-454.79 295.297ZM-444.13 286.695C-443.739 286.254 -443.781 285.579 -444.222 285.188C-444.664 284.798 -445.339 284.839 -445.729 285.281L-444.13 286.695ZM-436.817 275.106C-437.205 275.55 -437.159 276.225 -436.715 276.613C-436.271 277.001 -435.597 276.955 -435.209 276.511L-436.817 275.106ZM-426.26 266.38C-425.866 265.942 -425.902 265.267 -426.34 264.873C-426.779 264.478 -427.454 264.514 -427.848 264.953L-426.26 266.38ZM-418.619 255.004C-419.029 255.429 -419.016 256.104 -418.591 256.514C-418.167 256.923 -417.491 256.91 -417.082 256.486L-418.619 255.004ZM-407.484 247.035C-407.052 246.634 -407.026 245.959 -407.427 245.526C-407.828 245.094 -408.504 245.069 -408.936 245.47L-407.484 247.035ZM-398.616 236.597C-399.079 236.962 -399.157 237.634 -398.792 238.096C-398.426 238.559 -397.755 238.638 -397.292 238.272L-398.616 236.597ZM-386.37 230.479C-385.873 230.162 -385.726 229.503 -386.043 229.005C-386.359 228.508 -387.019 228.361 -387.517 228.678L-386.37 230.479ZM-375.592 222.042C-376.124 222.297 -376.349 222.934 -376.095 223.466C-375.841 223.998 -375.203 224.223 -374.671 223.969L-375.592 222.042ZM-362.257 219.012C-361.696 218.83 -361.389 218.228 -361.57 217.667C-361.752 217.106 -362.354 216.799 -362.915 216.98L-362.257 219.012ZM-349.656 213.661C-350.237 213.766 -350.622 214.321 -350.518 214.902C-350.413 215.482 -349.858 215.867 -349.277 215.763L-349.656 213.661ZM-335.953 214.211C-335.364 214.177 -334.914 213.673 -334.948 213.084C-334.982 212.496 -335.486 212.046 -336.075 212.079L-335.953 214.211ZM-322.633 212.119C-323.221 212.081 -323.729 212.527 -323.768 213.115C-323.807 213.703 -323.361 214.212 -322.773 214.25L-322.633 212.119ZM-309.628 215.995C-309.05 216.112 -308.487 215.738 -308.37 215.16C-308.253 214.582 -308.627 214.019 -309.205 213.902L-309.628 215.995ZM-296.192 217.467C-296.749 217.273 -297.357 217.568 -297.551 218.125C-297.744 218.682 -297.45 219.29 -296.893 219.484L-296.192 217.467ZM-284.696 224.625C-284.168 224.887 -283.527 224.672 -283.265 224.144C-283.003 223.616 -283.218 222.975 -283.746 222.713L-284.696 224.625ZM-272.021 229.38C-272.517 229.061 -273.177 229.206 -273.495 229.702C-273.814 230.199 -273.669 230.859 -273.172 231.177L-272.021 229.38ZM-262.334 238.842C-261.868 239.203 -261.197 239.117 -260.837 238.65C-260.476 238.183 -260.562 237.513 -261.029 237.153L-262.334 238.842ZM-250.672 245.747C-251.114 245.356 -251.789 245.397 -252.179 245.839C-252.57 246.281 -252.529 246.955 -252.087 247.346L-250.672 245.747ZM-242.331 256.417C-241.908 256.827 -241.232 256.817 -240.822 256.394C-240.411 255.971 -240.421 255.295 -240.844 254.885L-242.331 256.417ZM-231.365 264.381C-231.776 263.958 -232.452 263.949 -232.875 264.36C-233.297 264.771 -233.306 265.447 -232.895 265.87L-231.365 264.381ZM-223.642 275.515C-223.236 275.943 -222.56 275.96 -222.133 275.553C-221.705 275.147 -221.688 274.471 -222.095 274.044L-223.642 275.515ZM-212.867 283.729C-213.276 283.304 -213.952 283.29 -214.377 283.698C-214.802 284.106 -214.816 284.782 -214.408 285.208L-212.867 283.729ZM-205.039 294.796C-204.622 295.213 -203.946 295.213 -203.529 294.796C-203.112 294.379 -203.112 293.703 -203.529 293.286L-205.039 294.796ZM-193.933 302.55C-194.366 302.149 -195.041 302.175 -195.442 302.607C-195.843 303.04 -195.817 303.715 -195.385 304.116L-193.933 302.55ZM-185.289 312.989C-184.835 313.365 -184.162 313.302 -183.786 312.848C-183.41 312.394 -183.474 311.721 -183.928 311.345L-185.289 312.989ZM-173.388 319.448C-173.869 319.107 -174.536 319.221 -174.876 319.702C-175.217 320.183 -175.103 320.85 -174.622 321.19L-173.388 319.448ZM-163.278 328.461C-162.767 328.754 -162.114 328.577 -161.821 328.066C-161.527 327.554 -161.704 326.902 -162.216 326.609L-163.278 328.461ZM-150.375 332.555C-150.916 332.322 -151.544 332.571 -151.778 333.113C-152.011 333.654 -151.762 334.282 -151.221 334.516L-150.375 332.555ZM-138.526 339.084C-137.96 339.249 -137.368 338.922 -137.204 338.356C-137.04 337.79 -137.366 337.198 -137.932 337.034L-138.526 339.084ZM-125.015 339.885C-125.598 339.796 -126.143 340.195 -126.232 340.778C-126.322 341.361 -125.922 341.906 -125.34 341.996L-125.015 339.885ZM-111.88 343.207C-111.291 343.224 -110.799 342.76 -110.783 342.17C-110.766 341.581 -111.23 341.09 -111.819 341.073L-111.88 343.207ZM-98.6195 340.693C-99.207 340.742 -99.6434 341.258 -99.5941 341.846C-99.5448 342.433 -99.0286 342.87 -98.441 342.82L-98.6195 340.693ZM-84.832 340.934C-84.2538 340.819 -83.8781 340.257 -83.993 339.678C-84.1079 339.1 -84.6699 338.724 -85.2482 338.839L-84.832 340.934ZM-72.2238 335.396C-72.7832 335.582 -73.0858 336.186 -72.8995 336.746C-72.7134 337.305 -72.1089 337.608 -71.5494 337.422L-72.2238 335.396ZM-58.79 332.268C-58.2581 332.014 -58.0326 331.377 -58.2867 330.845C-58.5408 330.313 -59.178 330.087 -59.7101 330.341L-58.79 332.268ZM-47.8917 323.824C-48.3912 324.138 -48.5421 324.797 -48.2288 325.296C-47.9154 325.796 -47.2566 325.947 -46.7571 325.633L-47.8917 323.824ZM-35.5127 317.748C-35.0469 317.386 -34.9624 316.716 -35.324 316.25C-35.6854 315.784 -36.3561 315.7 -36.8219 316.061L-35.5127 317.748ZM-26.4868 307.312C-26.9215 307.71 -26.9509 308.385 -26.5526 308.82C-26.1542 309.255 -25.4789 309.284 -25.0442 308.886L-26.4868 307.312ZM-15.256 299.298C-14.8474 298.873 -14.8608 298.197 -15.286 297.788C-15.7111 297.38 -16.387 297.393 -16.7955 297.818L-15.256 299.298ZM-7.62305 287.798C-8.01172 288.241 -7.96741 288.916 -7.52417 289.304C-7.08081 289.693 -6.40625 289.649 -6.01758 289.206L-7.62305 287.798ZM2.82849 278.79C3.20422 278.336 3.14062 277.663 2.68628 277.287C2.23193 276.911 1.55896 276.975 1.18311 277.429L2.82849 278.79ZM9.78894 266.863C9.4187 267.322 9.49072 267.994 9.94971 268.365C10.4087 268.735 11.0808 268.663 11.4509 268.204L9.78894 266.863ZM20.0143 257.603C20.3865 257.146 20.3175 256.473 19.8601 256.101C19.4028 255.729 18.7305 255.798 18.3583 256.255L20.0143 257.603ZM27.0869 245.742C26.7043 246.19 26.7581 246.864 27.2068 247.247C27.6555 247.629 28.3293 247.575 28.7118 247.127L27.0869 245.742ZM37.7339 236.963C38.1357 236.531 38.1117 235.856 37.6803 235.454C37.2488 235.052 36.5732 235.076 36.1714 235.507L37.7339 236.963ZM45.8217 225.795C45.3909 226.198 45.368 226.873 45.7708 227.304C46.1733 227.735 46.8489 227.758 47.2797 227.355L45.8217 225.795ZM57.5919 218.593C58.0608 218.235 58.1511 217.565 57.7936 217.096C57.4362 216.627 56.7662 216.537 56.2974 216.895L57.5919 218.593ZM67.7582 209.271C67.2456 209.562 67.0663 210.214 67.3575 210.726C67.6489 211.239 68.3007 211.418 68.8134 211.127L67.7582 209.271ZM80.986 205.453C81.5397 205.25 81.824 204.636 81.6211 204.083C81.4183 203.529 80.8051 203.245 80.2515 203.448L80.986 205.453ZM93.597 199.886C93.016 199.986 92.6255 200.537 92.7251 201.119C92.8247 201.7 93.3765 202.09 93.9576 201.991L93.597 199.886ZM107.322 200.903C107.912 200.906 108.392 200.43 108.394 199.84C108.397 199.251 107.921 198.771 107.332 198.768L107.322 200.903ZM121.046 199.891C120.463 199.8 119.917 200.199 119.827 200.781C119.736 201.364 120.135 201.91 120.718 202L121.046 199.891ZM135.072 204.457C135.659 204.51 136.178 204.076 136.23 203.489C136.282 202.902 135.849 202.383 135.262 202.331L135.072 204.457ZM150.169 201.818C149.586 201.907 149.185 202.451 149.274 203.034C149.363 203.617 149.907 204.018 150.49 203.929L150.169 201.818ZM165.399 200.085C165.954 199.886 166.242 199.274 166.042 198.719C165.842 198.164 165.231 197.876 164.676 198.076L165.399 200.085ZM178.392 191.901C177.872 192.18 177.678 192.828 177.958 193.347C178.237 193.866 178.885 194.06 179.404 193.781L178.392 191.901ZM192.445 185.722C192.929 185.385 193.048 184.72 192.711 184.236C192.374 183.752 191.709 183.633 191.225 183.97L192.445 185.722ZM203.213 174.753C202.762 175.132 202.704 175.806 203.084 176.257C203.463 176.708 204.137 176.766 204.588 176.386L203.213 174.753ZM215.891 166.086C216.311 165.672 216.317 164.996 215.904 164.576C215.49 164.156 214.814 164.15 214.394 164.563L215.891 166.086ZM224.781 153.572C224.392 154.015 224.437 154.69 224.88 155.078C225.324 155.467 225.999 155.422 226.387 154.978L224.781 153.572ZM-1167.07 290.267C-1164.68 289.615 -1162.32 289.074 -1160.02 288.638L-1160.41 286.54C-1162.78 286.986 -1165.18 287.54 -1167.63 288.207L-1167.07 290.267ZM-1145.68 287.223C-1140.74 287.196 -1135.98 287.664 -1131.38 288.555L-1130.97 286.459C-1135.71 285.541 -1140.6 285.06 -1145.7 285.088L-1145.68 287.223ZM-1117.56 292.61C-1113.12 294.358 -1108.8 296.482 -1104.57 298.909L-1103.51 297.057C-1107.81 294.586 -1112.22 292.414 -1116.78 290.623L-1117.56 292.61ZM-1092.42 306.811C-1088.55 309.605 -1084.73 312.603 -1080.94 315.742L-1079.58 314.098C-1083.4 310.936 -1087.25 307.907 -1091.17 305.08L-1092.42 306.811ZM-1069.9 325.261C-1066.29 328.468 -1062.68 331.742 -1059.04 335.032L-1057.61 333.447C-1061.25 330.162 -1064.87 326.88 -1068.48 323.665L-1069.9 325.261ZM-1048.13 344.776C-1044.45 347.988 -1040.73 351.157 -1036.92 354.226L-1035.58 352.564C-1039.36 349.518 -1043.06 346.368 -1046.72 343.168L-1048.13 344.776ZM-1025.22 363.095C-1021.22 365.922 -1017.1 368.593 -1012.86 371.049L-1011.79 369.201C-1015.97 366.781 -1020.03 364.146 -1023.99 361.35L-1025.22 363.095ZM-999.726 377.707C-995.26 379.649 -990.643 381.326 -985.85 382.683L-985.268 380.629C-989.963 379.299 -994.49 377.655 -998.875 375.749L-999.726 377.707ZM-971.399 385.677C-968.989 385.997 -966.536 386.235 -964.039 386.387L-963.909 384.255C-966.356 384.107 -968.758 383.873 -971.117 383.56L-971.399 385.677ZM-964.039 386.387C-961.648 386.531 -959.301 386.606 -956.995 386.614L-956.988 384.479C-959.252 384.471 -961.559 384.398 -963.909 384.255L-964.039 386.387ZM-943.136 385.82C-938.378 385.245 -933.811 384.366 -929.418 383.216L-929.958 381.15C-934.259 382.276 -938.73 383.136 -943.392 383.7L-943.136 385.82ZM-916.209 378.761C-911.876 376.96 -907.723 374.887 -903.725 372.579L-904.792 370.73C-908.715 372.994 -912.786 375.026 -917.029 376.79L-916.209 378.761ZM-892.09 364.93C-888.372 362.183 -884.789 359.239 -881.316 356.14L-882.738 354.547C-886.167 357.608 -889.7 360.509 -893.359 363.213L-892.09 364.93ZM-871.308 346.517C-868.1 343.217 -864.975 339.803 -861.912 336.312L-863.517 334.904C-866.56 338.372 -869.66 341.759 -872.839 345.029L-871.308 346.517ZM-852.967 325.743C-850.043 322.181 -847.157 318.578 -844.29 314.97L-845.961 313.642C-848.825 317.246 -851.703 320.839 -854.617 324.388L-852.967 325.743ZM-835.705 304.142C-832.827 300.524 -829.946 296.936 -827.042 293.412L-828.689 292.054C-831.605 295.592 -834.494 299.19 -837.376 302.813L-835.705 304.142ZM-818.102 282.92C-815.028 279.453 -811.907 276.094 -808.714 272.881L-810.229 271.376C-813.455 274.623 -816.604 278.012 -819.7 281.504L-818.102 282.92ZM-798.668 263.523C-795.163 260.528 -791.556 257.736 -787.82 255.189L-789.023 253.425C-792.83 256.021 -796.499 258.861 -800.055 261.9L-798.668 263.523ZM-776.056 248.255C-772.014 246.239 -767.813 244.513 -763.428 243.122L-764.074 241.087C-768.57 242.513 -772.873 244.282 -777.009 246.345L-776.056 248.255ZM-750.176 240.063C-745.818 239.418 -741.279 239.087 -736.539 239.104L-736.531 236.969C-741.376 236.952 -746.022 237.29 -750.488 237.951L-750.176 240.063ZM-722.977 240.057C-720.737 240.356 -718.455 240.728 -716.128 241.176L-715.725 239.079C-718.09 238.624 -720.413 238.245 -722.694 237.941L-722.977 240.057ZM-716.128 241.176C-713.667 241.649 -711.265 242.164 -708.92 242.717L-708.43 240.638C-710.804 240.079 -713.235 239.558 -715.725 239.079L-716.128 241.176ZM-694.799 246.712C-689.992 248.312 -685.45 250.085 -681.142 252.002L-680.274 250.051C-684.645 248.106 -689.251 246.308 -694.124 244.686L-694.799 246.712ZM-668.076 258.617C-663.715 261.107 -659.61 263.745 -655.718 266.491L-654.487 264.746C-658.431 261.964 -662.593 259.289 -667.018 256.763L-668.076 258.617ZM-644.106 275.451C-640.281 278.654 -636.654 281.936 -633.164 285.245L-631.695 283.695C-635.209 280.364 -638.87 277.051 -642.735 273.814L-644.106 275.451ZM-622.664 295.587C-619.151 299.142 -615.709 302.683 -612.302 306.104L-610.789 304.597C-614.197 301.176 -617.611 297.663 -621.145 294.086L-622.664 295.587ZM-601.628 316.384C-597.909 319.762 -594.117 322.944 -590.161 325.841L-588.9 324.119C-592.78 321.277 -596.513 318.146 -600.192 314.804L-601.628 316.384ZM-577.485 333.708C-573.13 335.922 -568.524 337.766 -563.578 339.154L-563.001 337.099C-567.804 335.75 -572.279 333.959 -576.518 331.805L-577.485 333.708ZM-548.857 341.778C-546.441 341.979 -543.95 342.083 -541.376 342.083V339.948C-543.892 339.948 -546.325 339.846 -548.68 339.65L-548.857 341.778ZM-541.376 342.083C-539.041 342.083 -536.753 342.011 -534.512 341.87L-534.646 339.739C-536.842 339.877 -539.085 339.948 -541.376 339.948V342.083ZM-520.958 340.098C-516.378 339.173 -512 337.943 -507.801 336.446L-508.518 334.435C-512.623 335.898 -516.902 337.101 -521.381 338.005L-520.958 340.098ZM-495.287 330.968C-491.231 328.852 -487.344 326.484 -483.599 323.91L-484.808 322.151C-488.489 324.68 -492.302 327.002 -496.275 329.074L-495.287 330.968ZM-472.775 315.631C-469.322 312.725 -465.976 309.659 -462.71 306.479L-464.199 304.949C-467.435 308.1 -470.742 311.129 -474.15 313.998L-472.775 315.631ZM-453.228 296.753C-450.157 293.458 -447.133 290.092 -444.13 286.695L-445.729 285.281C-448.726 288.67 -451.736 292.021 -454.79 295.297L-453.228 296.753ZM-435.209 276.511C-432.241 273.114 -429.267 269.725 -426.26 266.38L-427.848 264.953C-430.866 268.309 -433.847 271.708 -436.817 275.106L-435.209 276.511ZM-417.082 256.486C-413.951 253.237 -410.761 250.074 -407.484 247.035L-408.936 245.47C-412.248 248.54 -415.466 251.732 -418.619 255.004L-417.082 256.486ZM-397.292 238.272C-393.776 235.494 -390.145 232.883 -386.37 230.479L-387.517 228.678C-391.359 231.125 -395.049 233.778 -398.616 236.597L-397.292 238.272ZM-374.671 223.969C-370.704 222.073 -366.575 220.408 -362.257 219.012L-362.915 216.98C-367.326 218.407 -371.543 220.107 -375.592 222.042L-374.671 223.969ZM-349.277 215.763C-347.107 215.371 -344.892 215.044 -342.627 214.786L-342.87 212.664C-345.18 212.928 -347.441 213.262 -349.656 213.661L-349.277 215.763ZM-342.627 214.786C-340.364 214.527 -338.14 214.337 -335.953 214.211L-336.075 212.079C-338.303 212.207 -340.567 212.401 -342.87 212.664L-342.627 214.786ZM-322.773 214.25C-318.232 214.548 -313.856 215.139 -309.628 215.995L-309.205 213.902C-313.526 213.028 -317.996 212.423 -322.633 212.119L-322.773 214.25ZM-296.893 219.484C-292.69 220.945 -288.632 222.671 -284.696 224.625L-283.746 222.713C-287.757 220.721 -291.899 218.96 -296.192 217.467L-296.893 219.484ZM-273.172 231.177C-269.466 233.552 -265.86 236.119 -262.334 238.842L-261.029 237.153C-264.598 234.396 -268.255 231.792 -272.021 229.38L-273.172 231.177ZM-252.087 247.346C-248.784 250.267 -245.539 253.302 -242.331 256.417L-240.844 254.885C-244.07 251.752 -247.34 248.694 -250.672 245.747L-252.087 247.346ZM-232.895 265.87C-229.798 269.052 -226.721 272.278 -223.642 275.515L-222.095 274.044C-225.175 270.805 -228.259 267.572 -231.365 264.381L-232.895 265.87ZM-214.408 285.208C-211.31 288.436 -208.193 291.643 -205.039 294.796L-203.529 293.286C-206.669 290.147 -209.776 286.951 -212.867 283.729L-214.408 285.208ZM-195.385 304.116C-192.085 307.175 -188.726 310.144 -185.289 312.989L-183.928 311.345C-187.329 308.529 -190.658 305.586 -193.933 302.55L-195.385 304.116ZM-174.622 321.19C-170.949 323.79 -167.175 326.226 -163.278 328.461L-162.216 326.609C-166.048 324.411 -169.765 322.012 -173.388 319.448L-174.622 321.19ZM-151.221 334.516C-147.133 336.28 -142.908 337.815 -138.526 339.084L-137.932 337.034C-142.224 335.79 -146.365 334.286 -150.375 332.555L-151.221 334.516ZM-125.34 341.996C-121.005 342.663 -116.523 343.075 -111.88 343.207L-111.819 341.073C-116.375 340.944 -120.768 340.539 -125.015 339.885L-125.34 341.996ZM-98.441 342.82C-96.2158 342.634 -93.9556 342.386 -91.6588 342.073L-91.9463 339.958C-94.2075 340.265 -96.4314 340.509 -98.6195 340.693L-98.441 342.82ZM-91.6588 342.073C-89.3394 341.758 -87.0645 341.377 -84.832 340.934L-85.2482 338.839C-87.4379 339.274 -89.6699 339.648 -91.9463 339.958L-91.6588 342.073ZM-71.5494 337.422C-67.1235 335.948 -62.8767 334.219 -58.79 332.268L-59.7101 330.341C-63.72 332.256 -67.8848 333.951 -72.2238 335.396L-71.5494 337.422ZM-46.7571 325.633C-42.8661 323.192 -39.1249 320.552 -35.5127 317.748L-36.8219 316.061C-40.3831 318.825 -44.066 321.424 -47.8917 323.824L-46.7571 325.633ZM-25.0442 308.886C-21.682 305.804 -18.4261 302.596 -15.256 299.298L-16.7955 297.818C-19.939 301.089 -23.1625 304.265 -26.4868 307.312L-25.0442 308.886ZM-6.01758 289.206C-3.01208 285.778 -0.0700684 282.294 2.82849 278.79L1.18311 277.429C-1.7063 280.922 -4.63464 284.39 -7.62305 287.798L-6.01758 289.206ZM11.4509 268.204C14.3225 264.643 17.1681 261.1 20.0143 257.603L18.3583 256.255C15.5081 259.757 12.6567 263.307 9.78894 266.863L11.4509 268.204ZM28.7118 247.127C31.6909 243.632 34.6902 240.231 37.7339 236.963L36.1714 235.507C33.1013 238.804 30.0809 242.229 27.0869 245.742L28.7118 247.127ZM47.2797 227.355C50.6321 224.222 54.0599 221.285 57.5919 218.593L56.2974 216.895C52.7004 219.637 49.218 222.621 45.8217 225.795L47.2797 227.355ZM68.8134 211.127C72.7181 208.908 76.765 206.999 80.986 205.453L80.2515 203.448C75.9111 205.038 71.7572 206.998 67.7582 209.271L68.8134 211.127ZM93.9576 201.991C98.2219 201.26 102.668 200.883 107.322 200.903L107.332 198.768C102.555 198.748 97.9855 199.134 93.597 199.886L93.9576 201.991ZM120.718 202C122.905 202.341 125.136 202.763 127.414 203.27L127.878 201.186C125.557 200.669 123.28 200.238 121.046 199.891L120.718 202ZM127.414 203.27C129.974 203.84 132.529 204.231 135.072 204.457L135.262 202.331C132.809 202.112 130.346 201.735 127.878 201.186L127.414 203.27ZM150.49 203.929C155.575 203.154 160.561 201.826 165.399 200.085L164.676 198.076C159.951 199.776 155.1 201.067 150.169 201.818L150.49 203.929ZM179.404 193.781C183.958 191.328 188.321 188.594 192.445 185.722L191.225 183.97C187.158 186.802 182.865 189.492 178.392 191.901L179.404 193.781ZM204.588 176.386C208.771 172.866 212.564 169.357 215.891 166.086L214.394 164.563C211.1 167.801 207.348 171.273 203.213 174.753L204.588 176.386ZM226.387 154.978C227.966 153.175 229.189 151.707 230.02 150.688C230.435 150.179 230.752 149.781 230.965 149.511C231.072 149.375 231.153 149.271 231.208 149.201C231.235 149.166 231.256 149.139 231.27 149.12C231.277 149.111 231.283 149.104 231.287 149.099C231.288 149.097 231.29 149.095 231.291 149.094C231.292 149.093 231.292 149.093 231.292 149.092C231.292 149.092 231.292 149.092 231.293 149.092C231.293 149.092 231.293 149.092 231.293 149.092C231.293 149.092 231.293 149.091 230.445 148.442C229.598 147.793 229.598 147.793 229.598 147.793C229.598 147.793 229.598 147.792 229.598 147.793C229.598 147.793 229.598 147.793 229.598 147.793C229.598 147.793 229.598 147.793 229.597 147.793C229.597 147.794 229.596 147.796 229.594 147.798C229.591 147.802 229.587 147.808 229.58 147.816C229.568 147.832 229.548 147.857 229.523 147.89C229.471 147.957 229.393 148.056 229.289 148.188C229.082 148.45 228.772 148.839 228.364 149.339C227.549 150.34 226.341 151.789 224.781 153.572L226.387 154.978Z" fill="#1B1DC7" fill-opacity="0.21"/>
<circle cx="310.544" cy="191.964" r="191.682" fill="#FFEFDD"/>
</svg>
