<svg width="214" height="190" viewBox="0 0 214 190" fill="none" xmlns="http://www.w3.org/2000/svg">
<g clip-path="url(#clip0_45_2767)">
<path d="M67.1135 10.7073H22.4396C21.2275 10.7073 20.245 11.6898 20.245 12.9018V75.3353H60.154C60.154 82.0379 65.8855 86.7215 72.599 86.6869C79.1974 86.6538 84.5951 81.0604 84.5951 74.463V28.1028H72.9465C71.0884 28.1028 67.1135 24.0356 67.1135 22.1784V10.7073Z" fill="#E4EBF7"/>
<path d="M60.242 75.1381H14.4698C14.4698 81.1256 18.8251 85.4543 24.5392 86.4135L26.5509 86.5818L72.4146 86.4904C65.7431 86.4904 60.072 81.367 60.242 75.1381Z" fill="#253368"/>
<path d="M39.924 16.5629H29.9314C29.4588 16.5629 29.0756 16.9461 29.0756 17.4187V27.4113C29.0756 27.884 29.4588 28.2672 29.9314 28.2672H39.924C40.3967 28.2672 40.7799 27.884 40.7799 27.4113V17.4187C40.7799 16.9461 40.3967 16.5629 39.924 16.5629Z" fill="#597EF7"/>
<path d="M72.0909 44.9326H29.9114C29.4387 44.9326 29.0555 45.3158 29.0555 45.7885V47.0028C29.0555 47.4755 29.4387 47.8587 29.9114 47.8587H72.0909C72.5636 47.8587 72.9468 47.4755 72.9468 47.0028V45.7885C72.9468 45.3158 72.5636 44.9326 72.0909 44.9326Z" fill="#597EF7"/>
<path d="M72.0909 53.7432H29.9114C29.4387 53.7432 29.0555 54.1264 29.0555 54.599V55.8134C29.0555 56.2861 29.4387 56.6692 29.9114 56.6692H72.0909C72.5636 56.6692 72.9468 56.2861 72.9468 55.8134V54.599C72.9468 54.1264 72.5636 53.7432 72.0909 53.7432Z" fill="#597EF7"/>
<path opacity="0.6" d="M67.1082 25.303V27.589C67.1082 28.0802 67.3126 28.5493 67.6726 28.8835C68.0327 29.2177 68.5157 29.3868 69.0055 29.3501L84.6546 28.1861L67.1082 25.303Z" fill="#CCD7EE"/>
<path d="M76.1791 19.4169L67.089 10.6505L67.1128 27.4517C67.1128 27.8557 67.4403 28.1832 67.8443 28.1832H84.6546L76.1791 19.4169Z" fill="#FAAD14"/>
<path fill-rule="evenodd" clip-rule="evenodd" d="M28.8737 3.42993C18.6459 3.42993 10.3547 11.7211 10.3547 21.9489C10.3547 32.1766 18.6459 40.4678 28.8737 40.4678C39.1014 40.4678 47.3926 32.1766 47.3926 21.9489C47.3926 11.7211 39.1014 3.42993 28.8737 3.42993Z" fill="#597EF7"/>
<path fill-rule="evenodd" clip-rule="evenodd" d="M25.8896 28.2396L24.7205 27.0704L36.0501 15.6994C36.4375 15.312 37.0657 15.312 37.4531 15.6994L37.9208 16.167C38.3082 16.5545 38.3082 17.1827 37.9208 17.5701L27.2926 28.2396C26.9052 28.627 26.2771 28.627 25.8896 28.2396Z" fill="white"/>
<path fill-rule="evenodd" clip-rule="evenodd" d="M28.4598 27.0704L27.2906 28.2396C26.9032 28.627 26.275 28.627 25.8876 28.2396L21.232 23.584C20.8445 23.1966 20.8445 22.5684 21.232 22.181L21.6996 21.7133C22.0871 21.3259 22.7152 21.3259 23.1027 21.7133L28.4598 27.0704Z" fill="white"/>
</g>
<path d="M213.129 160.502C213.129 160.556 176.545 160.602 131.423 160.602C86.3019 160.602 49.7253 160.556 49.7253 160.502C49.7253 160.448 86.3019 160.398 131.439 160.398C176.576 160.398 213.129 160.445 213.129 160.502Z" fill="#263238"/>
<path d="M205.053 185.22L170.792 186.33L144.228 161.682H177.517L205.053 185.22Z" fill="#F5F5F5"/>
<path d="M192.79 188.89L158.529 190L131.961 165.352H165.25L192.79 188.89Z" fill="#F5F5F5"/>
<path d="M198.554 186.45L164.294 187.56L137.725 162.908H171.018L198.554 186.45Z" fill="#E0E0E0"/>
<path d="M166.774 161.682H133.485L160.05 186.33L195.405 185.186L166.774 161.682Z" fill="#F5F5F5"/>
<path d="M166.775 161.682L166.909 161.782L167.293 162.1L168.829 163.352L174.675 168.115L195.444 185.116L195.624 185.262H195.39L161.483 186.376L160.035 186.422H159.993L159.962 186.395L133.447 161.743L133.29 161.593H133.505L157.677 161.632L164.417 161.655H166.191C166.575 161.655 166.794 161.655 166.794 161.655H166.18H164.401L157.654 161.678L133.505 161.716L133.562 161.567L160.138 186.207L160.065 186.18L161.513 186.134L195.425 185.047L195.371 185.201L174.667 168.161C172.167 166.091 170.197 164.466 168.849 163.352L167.312 162.077L166.928 161.747L166.775 161.682Z" fill="#263238"/>
<path d="M178.711 175.894C178.711 175.952 173.403 176.163 166.852 176.366C160.3 176.57 154.988 176.693 154.985 176.639C154.981 176.585 160.292 176.37 166.844 176.167C173.396 175.963 178.711 175.84 178.711 175.894Z" fill="#263238"/>
<path d="M181.541 177.987C181.541 178.041 176.165 178.252 169.494 178.456C162.823 178.66 157.443 178.782 157.439 178.725C157.435 178.667 162.815 178.46 169.49 178.256C176.165 178.053 181.541 177.945 181.541 177.987Z" fill="#263238"/>
<path d="M184.525 180.107C184.525 180.161 179.094 180.383 172.393 180.599C165.691 180.814 160.257 180.948 160.253 180.89C160.249 180.833 165.684 180.618 172.385 180.399C179.087 180.18 184.525 180.053 184.525 180.107Z" fill="#263238"/>
<path d="M177.075 173.99C177.075 174.047 171.61 174.266 164.87 174.477C158.13 174.688 152.657 174.823 152.657 174.765C152.657 174.708 158.118 174.493 164.862 174.278C171.606 174.062 177.071 173.936 177.075 173.99Z" fill="#263238"/>
<path d="M165.784 166.11C165.784 166.164 160.714 166.306 154.458 166.428C148.202 166.551 143.133 166.601 143.129 166.544C143.125 166.486 148.198 166.348 154.454 166.229C160.71 166.11 165.784 166.056 165.784 166.11Z" fill="#263238"/>
<path d="M168.614 168.214C168.614 168.268 163.391 168.414 156.943 168.537C150.495 168.66 145.268 168.717 145.264 168.66C145.26 168.602 150.491 168.46 156.939 168.337C163.387 168.214 168.614 168.157 168.614 168.214Z" fill="#263238"/>
<path d="M171.445 170.307C171.445 170.365 165.965 170.515 159.198 170.645C152.431 170.776 146.947 170.834 146.947 170.78C146.947 170.726 152.427 170.572 159.194 170.446C165.961 170.319 171.445 170.261 171.445 170.307Z" fill="#263238"/>
<path d="M174.279 172.42C174.279 172.474 168.795 172.624 162.032 172.754C155.269 172.885 149.777 172.946 149.777 172.889C149.777 172.831 155.261 172.685 162.028 172.555C168.795 172.424 174.275 172.366 174.279 172.42Z" fill="#263238"/>
<path d="M164.148 164.204C164.069 164.222 163.99 164.229 163.91 164.227L163.23 164.258L160.726 164.323L152.465 164.473L144.2 164.546H141.696H141.017C140.937 164.555 140.858 164.555 140.778 164.546C140.857 164.529 140.937 164.521 141.017 164.523L141.696 164.492L144.2 164.427L152.461 164.277L160.718 164.185H163.222H163.906C163.987 164.182 164.068 164.189 164.148 164.204Z" fill="#263238"/>
<path d="M153.467 170.211L144.73 162.212L174.978 161.013L183.865 165.933L153.467 170.211Z" fill="#455A64"/>
<path d="M148.256 163.334L149.957 164.789L149.95 163.752L148.152 162.408L148.256 163.334Z" fill="#263238"/>
<path d="M149.93 163.817L152.381 163.732L150.41 162.303L148.152 162.407L149.93 163.817Z" fill="#FF725E"/>
<path d="M149.93 163.817L149.957 164.788L152.346 164.635L152.38 163.732L149.93 163.817Z" fill="#263238"/>
<path d="M152.381 163.731C151.688 163.365 151.028 162.941 150.407 162.464L150.291 162.38L150.353 162.399C149.621 162.464 148.884 162.464 148.152 162.399C148.876 162.267 149.61 162.197 150.345 162.191H150.38L150.407 162.211L150.526 162.291C151.182 162.72 151.802 163.202 152.381 163.731Z" fill="#263238"/>
<path d="M149.961 164.789C149.907 164.789 149.857 164.574 149.85 164.309C149.842 164.044 149.884 163.825 149.938 163.825C149.992 163.825 150.042 164.04 150.049 164.305C150.057 164.57 150.003 164.785 149.961 164.789Z" fill="#455A64"/>
<path d="M152.357 163.256L154.055 164.712L154.047 163.675L152.25 162.331L152.357 163.256Z" fill="#263238"/>
<path d="M154.032 163.74L156.478 163.655L154.508 162.227L152.25 162.33L154.032 163.74Z" fill="#E0E0E0"/>
<path d="M154.032 163.741L154.055 164.712L156.448 164.555L156.478 163.656L154.032 163.741Z" fill="#263238"/>
<path d="M156.49 163.656C155.798 163.29 155.139 162.866 154.519 162.388L154.4 162.304H154.466C153.732 162.369 152.995 162.369 152.261 162.304C152.985 162.172 153.719 162.102 154.454 162.097H154.489L154.516 162.116L154.635 162.196C155.294 162.629 155.914 163.117 156.49 163.656Z" fill="#263238"/>
<path d="M154.047 164.711C153.99 164.711 153.94 164.496 153.932 164.231C153.924 163.966 153.967 163.747 154.02 163.747C154.074 163.747 154.128 163.958 154.132 164.227C154.135 164.496 154.101 164.707 154.047 164.711Z" fill="#455A64"/>
<path d="M156.279 163.201L157.98 164.656L157.972 163.62L156.175 162.275L156.279 163.201Z" fill="#263238"/>
<path d="M157.953 163.686L160.403 163.605L158.433 162.172L156.175 162.276L157.953 163.686Z" fill="#455A64"/>
<path d="M157.953 163.686L157.98 164.658L160.372 164.504L160.403 163.605L157.953 163.686Z" fill="#263238"/>
<path d="M160.403 163.605C159.712 163.238 159.053 162.812 158.433 162.334L158.314 162.254L158.379 162.273C157.646 162.337 156.908 162.337 156.175 162.273C156.899 162.141 157.632 162.073 158.368 162.069H158.41L158.437 162.088L158.556 162.173C159.212 162.597 159.83 163.076 160.403 163.605Z" fill="#263238"/>
<path d="M157.972 164.658C157.915 164.658 157.865 164.447 157.857 164.182C157.849 163.917 157.892 163.698 157.945 163.694C157.999 163.69 158.053 163.909 158.057 164.174C158.061 164.439 158.026 164.658 157.972 164.658Z" fill="#455A64"/>
<path d="M160.369 163.086L162.066 164.542L162.059 163.505L160.261 162.161L160.369 163.086Z" fill="#263238"/>
<path d="M162.039 163.571L164.49 163.487L162.519 162.058L160.261 162.162L162.039 163.571Z" fill="#455A64"/>
<path d="M162.039 163.571L162.066 164.543L164.459 164.385L164.49 163.486L162.039 163.571Z" fill="#263238"/>
<path d="M164.489 163.487C163.798 163.121 163.139 162.697 162.519 162.219L162.4 162.135H162.465C161.732 162.2 160.994 162.2 160.261 162.135C160.985 162.003 161.718 161.934 162.454 161.928H162.488L162.515 161.947L162.634 162.027C163.293 162.46 163.914 162.948 164.489 163.487Z" fill="#263238"/>
<path d="M162.058 164.547C162.001 164.547 161.951 164.332 161.943 164.067C161.935 163.802 161.978 163.583 162.031 163.583C162.085 163.583 162.139 163.794 162.143 164.063C162.147 164.332 162.112 164.547 162.058 164.547Z" fill="#455A64"/>
<path d="M164.512 162.983L166.21 164.439L166.202 163.402L164.405 162.058L164.512 162.983Z" fill="#263238"/>
<path d="M166.187 163.468L168.637 163.387L166.663 161.955L164.405 162.058L166.187 163.468Z" fill="#455A64"/>
<path d="M166.187 163.467L166.21 164.439L168.603 164.285L168.637 163.387L166.187 163.467Z" fill="#263238"/>
<path d="M168.633 163.394C167.942 163.029 167.282 162.605 166.663 162.127L166.548 162.046H166.609C165.876 162.111 165.138 162.111 164.405 162.046C165.128 161.915 165.862 161.847 166.598 161.843H166.632H166.663L166.778 161.927C167.437 162.363 168.057 162.854 168.633 163.394Z" fill="#263238"/>
<path d="M166.202 164.439C166.148 164.439 166.095 164.228 166.091 163.959C166.087 163.69 166.121 163.479 166.175 163.475C166.229 163.471 166.283 163.69 166.29 163.955C166.298 164.22 166.256 164.439 166.202 164.439Z" fill="#455A64"/>
<path d="M168.468 162.799L170.17 164.254L170.162 163.217L168.365 161.873L168.468 162.799Z" fill="#263238"/>
<path d="M170.143 163.283L172.593 163.199L170.623 161.77L168.365 161.874L170.143 163.283Z" fill="#455A64"/>
<path d="M170.143 163.283L170.17 164.255L172.562 164.097L172.593 163.199L170.143 163.283Z" fill="#263238"/>
<path d="M172.593 163.199C171.901 162.833 171.242 162.409 170.623 161.932L170.504 161.847H170.565C169.833 161.912 169.097 161.912 168.365 161.847C169.088 161.715 169.822 161.646 170.558 161.64H170.592L170.619 161.659L170.738 161.74C171.395 162.175 172.015 162.663 172.593 163.199Z" fill="#263238"/>
<path d="M170.158 164.254C170.104 164.254 170.054 164.039 170.047 163.774C170.039 163.509 170.081 163.29 170.135 163.29C170.189 163.29 170.239 163.502 170.246 163.77C170.254 164.039 170.216 164.25 170.158 164.254Z" fill="#455A64"/>
<path d="M172.339 162.577L174.037 164.032L174.029 162.992L172.232 161.651L172.339 162.577Z" fill="#263238"/>
<path d="M174.014 163.06L176.46 162.976L174.49 161.547L172.232 161.651L174.014 163.06Z" fill="#455A64"/>
<path d="M174.014 163.06L174.037 164.032L176.429 163.874L176.46 162.976L174.014 163.06Z" fill="#263238"/>
<path d="M176.46 162.976C175.766 162.612 175.106 162.188 174.486 161.708L174.371 161.624L174.432 161.643C173.699 161.708 172.961 161.708 172.228 161.643C172.951 161.512 173.685 161.442 174.421 161.436H174.455L174.486 161.455L174.601 161.536C175.26 161.962 175.882 162.444 176.46 162.976Z" fill="#263238"/>
<path d="M174.029 164.031C173.975 164.031 173.922 163.816 173.918 163.551C173.914 163.286 173.948 163.067 174.002 163.067C174.056 163.067 174.11 163.278 174.117 163.547C174.125 163.816 174.083 164.027 174.029 164.031Z" fill="#455A64"/>
<path d="M150.99 166.066L152.691 167.521L152.684 166.485L150.886 165.14L150.99 166.066Z" fill="#263238"/>
<path d="M152.664 166.552L155.115 166.467L153.144 165.038L150.886 165.142L152.664 166.552Z" fill="#455A64"/>
<path d="M152.665 166.55L152.691 167.522L155.08 167.368L155.115 166.466L152.665 166.55Z" fill="#263238"/>
<path d="M155.115 166.466C154.422 166.1 153.762 165.676 153.141 165.199L153.025 165.114H153.087C152.355 165.179 151.618 165.179 150.886 165.114C151.61 164.982 152.344 164.913 153.079 164.907H153.114L153.141 164.926L153.26 165.007C153.917 165.442 154.537 165.93 155.115 166.466Z" fill="#263238"/>
<path d="M152.68 167.522C152.627 167.522 152.577 167.307 152.569 167.042C152.561 166.777 152.604 166.558 152.657 166.558C152.711 166.558 152.761 166.769 152.769 167.038C152.776 167.307 152.738 167.518 152.68 167.522Z" fill="#455A64"/>
<path d="M155.092 165.991L156.789 167.447L156.782 166.41L154.984 165.066L155.092 165.991Z" fill="#263238"/>
<path d="M156.762 166.473L159.213 166.389L157.242 164.96L154.984 165.064L156.762 166.473Z" fill="#455A64"/>
<path d="M156.762 166.473L156.789 167.445L159.182 167.287L159.213 166.389L156.762 166.473Z" fill="#263238"/>
<path d="M159.213 166.389C158.521 166.024 157.862 165.6 157.242 165.122L157.123 165.038L157.189 165.057C156.455 165.122 155.718 165.122 154.984 165.057C155.708 164.925 156.442 164.855 157.177 164.849H157.212L157.239 164.869L157.358 164.949C158.017 165.374 158.638 165.856 159.213 166.389Z" fill="#263238"/>
<path d="M156.782 167.446C156.724 167.446 156.674 167.231 156.667 166.966C156.659 166.701 156.701 166.482 156.755 166.482C156.809 166.482 156.862 166.693 156.866 166.962C156.87 167.231 156.836 167.442 156.782 167.446Z" fill="#455A64"/>
<path d="M159.013 165.937L160.714 167.392L160.707 166.355L158.909 165.011L159.013 165.937Z" fill="#263238"/>
<path d="M160.688 166.42L163.138 166.34L161.168 164.907L158.909 165.011L160.688 166.42Z" fill="#455A64"/>
<path d="M160.687 166.421L160.714 167.392L163.107 167.239L163.137 166.34L160.687 166.421Z" fill="#263238"/>
<path d="M163.137 166.339C162.447 165.969 161.788 165.544 161.167 165.068L161.048 164.987L161.113 165.006C160.38 165.07 159.642 165.07 158.909 165.006C159.633 164.874 160.366 164.806 161.102 164.803H161.137L161.163 164.822L161.282 164.906C161.941 165.33 162.561 165.809 163.137 166.339Z" fill="#263238"/>
<path d="M160.714 167.391C160.657 167.391 160.607 167.18 160.599 166.915C160.591 166.65 160.633 166.431 160.687 166.427C160.741 166.423 160.795 166.642 160.799 166.907C160.802 167.172 160.76 167.391 160.714 167.391Z" fill="#455A64"/>
<path d="M163.099 165.821L164.8 167.277L164.793 166.236L162.995 164.896L163.099 165.821Z" fill="#263238"/>
<path d="M164.773 166.305L167.224 166.22L165.254 164.792L162.995 164.895L164.773 166.305Z" fill="#455A64"/>
<path d="M164.773 166.305L164.8 167.276L167.193 167.119L167.223 166.22L164.773 166.305Z" fill="#263238"/>
<path d="M167.243 166.221C166.552 165.855 165.892 165.431 165.273 164.953L165.154 164.869L165.219 164.888C164.486 164.953 163.748 164.953 163.015 164.888C163.738 164.756 164.472 164.686 165.208 164.681H165.242L165.269 164.7L165.388 164.78C166.046 165.208 166.666 165.69 167.243 166.221Z" fill="#263238"/>
<path d="M164.793 167.277C164.735 167.277 164.685 167.062 164.678 166.797C164.67 166.532 164.712 166.313 164.766 166.313C164.82 166.313 164.874 166.524 164.877 166.793C164.881 167.062 164.847 167.273 164.793 167.277Z" fill="#455A64"/>
<path d="M167.247 165.717L168.945 167.173L168.937 166.136L167.14 164.792L167.247 165.717Z" fill="#263238"/>
<path d="M168.921 166.2L171.372 166.12L169.398 164.687L167.14 164.791L168.921 166.2Z" fill="#455A64"/>
<path d="M168.922 166.201L168.945 167.173L171.337 167.019L171.372 166.12L168.922 166.201Z" fill="#263238"/>
<path d="M171.368 166.118C170.676 165.752 170.017 165.328 169.398 164.851L169.282 164.77H169.344C168.611 164.835 167.873 164.835 167.14 164.77C167.863 164.638 168.597 164.569 169.332 164.562H169.367H169.398L169.513 164.647C170.172 165.084 170.792 165.576 171.368 166.118Z" fill="#263238"/>
<path d="M168.936 167.173C168.883 167.173 168.829 166.962 168.825 166.693C168.821 166.424 168.856 166.213 168.91 166.209C168.963 166.205 169.017 166.424 169.025 166.689C169.033 166.954 168.99 167.173 168.936 167.173Z" fill="#455A64"/>
<path d="M171.203 165.533L172.904 166.989L172.896 165.948L171.099 164.608L171.203 165.533Z" fill="#263238"/>
<path d="M172.877 166.018L175.327 165.934L173.357 164.505L171.099 164.609L172.877 166.018Z" fill="#455A64"/>
<path d="M172.877 166.017L172.904 166.988L175.293 166.831L175.327 165.932L172.877 166.017Z" fill="#263238"/>
<path d="M175.327 165.933C174.635 165.567 173.974 165.143 173.353 164.665L173.238 164.581L173.299 164.6C172.567 164.665 171.831 164.665 171.099 164.6C171.823 164.468 172.556 164.399 173.292 164.393H173.326L173.353 164.412L173.472 164.493C174.13 164.92 174.75 165.402 175.327 165.933Z" fill="#263238"/>
<path d="M172.892 166.988C172.839 166.988 172.789 166.773 172.781 166.508C172.773 166.243 172.816 166.024 172.869 166.024C172.923 166.024 172.973 166.235 172.981 166.504C172.988 166.773 172.95 166.984 172.892 166.988Z" fill="#455A64"/>
<path d="M175.074 165.31L176.771 166.766L176.764 165.725L174.966 164.385L175.074 165.31Z" fill="#263238"/>
<path d="M176.748 165.795L179.198 165.71L177.224 164.282L174.966 164.385L176.748 165.795Z" fill="#455A64"/>
<path d="M176.748 165.795L176.771 166.766L179.164 166.609L179.198 165.71L176.748 165.795Z" fill="#263238"/>
<path d="M179.195 165.698C178.503 165.333 177.844 164.909 177.224 164.431L177.109 164.347L177.171 164.366C176.437 164.431 175.7 164.431 174.966 164.366C175.69 164.232 176.423 164.163 177.159 164.158H177.194H177.224L177.34 164.239C178 164.67 178.62 165.158 179.195 165.698Z" fill="#263238"/>
<path d="M176.764 166.766C176.71 166.766 176.656 166.551 176.652 166.286C176.648 166.021 176.683 165.802 176.737 165.802C176.791 165.802 176.844 166.013 176.852 166.282C176.86 166.551 176.817 166.762 176.764 166.766Z" fill="#455A64"/>
<path d="M192.36 163.735L158.064 165.602L153.51 169.907L144.73 162.211V164.446L153.825 173.16L158.844 168.279L192.882 166.247L192.36 163.735Z" fill="#263238"/>
<path d="M153.825 173.16L184.813 171.347L192.882 166.247L158.022 167.614L153.825 173.16Z" fill="#263238"/>
<path d="M192.882 166.247C192.849 166.259 192.814 166.265 192.779 166.266L192.467 166.293L191.273 166.381L186.88 166.677L172.374 167.572L158.848 168.34L158.894 168.321L155.203 171.866C154.769 172.273 154.435 172.595 154.19 172.826L153.921 173.068C153.892 173.098 153.86 173.125 153.825 173.148C153.825 173.148 153.848 173.114 153.905 173.052L154.159 172.791L155.146 171.804L158.79 168.213L158.81 168.194H158.837L172.363 167.365L186.868 166.527L191.269 166.297L192.464 166.247H192.775H192.882Z" fill="#455A64"/>
<path d="M158.844 168.279C158.619 167.868 158.455 167.427 158.356 166.97C158.196 166.53 158.096 166.07 158.06 165.603C158.285 166.013 158.449 166.455 158.548 166.912C158.708 167.352 158.807 167.812 158.844 168.279Z" fill="#455A64"/>
<path d="M196.696 110.997L165.914 105.105C165.69 105.062 165.477 104.976 165.287 104.851C165.096 104.725 164.932 104.564 164.804 104.375C164.676 104.186 164.586 103.974 164.54 103.751C164.494 103.528 164.493 103.298 164.536 103.074L174.44 51.3234C174.564 50.6818 174.937 50.1153 175.477 49.7482C176.018 49.3811 176.682 49.2432 177.324 49.3648L206.673 54.9834C207.315 55.1062 207.882 55.479 208.25 56.0199C208.617 56.5608 208.754 57.2254 208.632 57.8676L198.735 109.629C198.691 109.853 198.603 110.066 198.477 110.256C198.35 110.445 198.188 110.608 197.998 110.735C197.809 110.862 197.596 110.951 197.373 110.996C197.149 111.04 196.919 111.041 196.696 110.997Z" fill="#455A64"/>
<g opacity="0.4">
<path opacity="0.4" d="M196.672 110.987L165.891 105.096C165.667 105.053 165.454 104.966 165.263 104.841C165.073 104.716 164.909 104.554 164.781 104.366C164.653 104.177 164.563 103.965 164.517 103.742C164.471 103.518 164.469 103.288 164.512 103.064L174.417 51.3139C174.539 50.6718 174.912 50.1047 175.453 49.7374C175.994 49.3701 176.659 49.2327 177.301 49.3553L206.65 54.9739C207.291 55.0977 207.858 55.4707 208.225 56.0113C208.592 56.5519 208.73 57.216 208.608 57.8581L198.704 109.628C198.613 110.076 198.348 110.471 197.968 110.726C197.587 110.98 197.122 111.074 196.672 110.987Z" fill="black"/>
</g>
<path d="M194.015 110.473L163.233 104.578C163.01 104.536 162.796 104.449 162.606 104.325C162.415 104.2 162.252 104.038 162.123 103.85C161.995 103.662 161.906 103.45 161.86 103.227C161.813 103.004 161.812 102.774 161.855 102.55L171.763 50.7962C171.823 50.4781 171.946 50.175 172.124 49.9044C172.301 49.6339 172.531 49.4011 172.799 49.2194C173.067 49.0378 173.368 48.9109 173.685 48.846C174.003 48.7811 174.329 48.7795 174.647 48.8414L203.996 54.4561C204.314 54.5173 204.617 54.6406 204.887 54.8189C205.158 54.9972 205.39 55.227 205.572 55.4952C205.753 55.7634 205.88 56.0647 205.945 56.382C206.01 56.6992 206.012 57.0262 205.951 57.3441L196.046 109.094C195.959 109.546 195.696 109.945 195.315 110.203C194.934 110.462 194.467 110.559 194.015 110.473Z" fill="#455A64"/>
<path d="M179.222 94.6316L169.517 92.7732C169.013 92.6766 168.526 93.0071 168.429 93.5112L167.803 96.7815C167.707 97.2856 168.037 97.7725 168.541 97.8691L178.246 99.7274C178.751 99.824 179.238 99.4936 179.334 98.9894L179.96 95.7192C180.057 95.215 179.726 94.7281 179.222 94.6316Z" fill="#455A64"/>
<g opacity="0.2">
<path opacity="0.2" d="M179.222 94.6306L169.517 92.7722C169.013 92.6757 168.526 93.0061 168.429 93.5102L167.803 96.7805C167.707 97.2846 168.037 97.7715 168.541 97.8681L178.246 99.7265C178.751 99.823 179.238 99.4926 179.334 98.9884L179.96 95.7182C180.057 95.2141 179.726 94.7271 179.222 94.6306Z" fill="black"/>
</g>
<path d="M173.853 54.4573L171.657 65.924L200.89 71.5215L203.085 60.0548L173.853 54.4573Z" fill="#FAFAFA"/>
<path d="M200.878 71.515C200.878 71.515 200.878 71.442 200.912 71.3076C200.947 71.1732 200.974 70.9735 201.02 70.7162C201.12 70.1939 201.262 69.4258 201.45 68.435C201.834 66.4571 202.364 63.596 203.036 60.0397L203.063 60.082L173.833 54.5018L173.891 54.4634C173.123 58.4728 172.381 62.3478 171.694 65.9271L171.656 65.8734C180.105 67.5017 187.402 68.9035 192.601 69.9059L198.685 71.081L200.313 71.3998L200.736 71.4843L200.882 71.515L200.739 71.492L200.325 71.4152L198.704 71.1079L192.625 69.9558L171.64 65.9617H171.59V65.9156C172.274 62.3325 173.015 58.4574 173.783 54.448V54.3981H173.833L203.059 60.009H203.094V60.0435C202.402 63.6037 201.849 66.4725 201.465 68.4503C201.273 69.4373 201.123 70.2016 201.024 70.72L200.905 71.3076C200.889 71.4497 200.878 71.515 200.878 71.515Z" fill="#263238"/>
<path d="M176.58 71.6154L173.182 70.9647C172.748 70.8817 172.33 71.1657 172.247 71.599L171.596 74.9975C171.513 75.4308 171.797 75.8493 172.23 75.9323L175.629 76.5831C176.062 76.6661 176.481 76.382 176.564 75.9487L177.214 72.5502C177.297 72.1169 177.013 71.6984 176.58 71.6154Z" fill="#455A64"/>
<g opacity="0.2">
<path opacity="0.2" d="M176.58 71.6152L173.182 70.9644C172.748 70.8815 172.33 71.1655 172.247 71.5988L171.596 74.9973C171.513 75.4306 171.797 75.8491 172.23 75.9321L175.629 76.5828C176.062 76.6658 176.481 76.3818 176.564 75.9485L177.215 72.55C177.297 72.1167 177.013 71.6982 176.58 71.6152Z" fill="black"/>
</g>
<path d="M175.811 71.467L172.412 70.8162C171.979 70.7333 171.561 71.0173 171.478 71.4506L170.827 74.8491C170.744 75.2824 171.028 75.7009 171.461 75.7839L174.86 76.4346C175.293 76.5176 175.712 76.2336 175.795 75.8003L176.445 72.4018C176.528 71.9685 176.244 71.55 175.811 71.467Z" fill="#263238"/>
<path d="M174.198 72.625L173.814 74.695L173.334 74.6067L173.657 72.9207L173.242 72.8401L173.315 72.4561L174.198 72.625Z" fill="white"/>
<path d="M183.509 72.9388L180.11 72.288C179.677 72.2051 179.258 72.4891 179.175 72.9224L178.524 76.3209C178.441 76.7542 178.725 77.1727 179.159 77.2557L182.557 77.9064C182.991 77.9894 183.409 77.7054 183.492 77.2721L184.143 73.8736C184.226 73.4403 183.942 73.0218 183.509 72.9388Z" fill="#455A64"/>
<g opacity="0.2">
<path opacity="0.2" d="M183.509 72.9389L180.11 72.2882C179.677 72.2052 179.258 72.4892 179.175 72.9225L178.525 76.321C178.442 76.7543 178.726 77.1728 179.159 77.2558L182.557 77.9066C182.991 77.9895 183.409 77.7055 183.492 77.2722L184.143 73.8737C184.226 73.4404 183.942 73.0219 183.509 72.9389Z" fill="black"/>
</g>
<path d="M182.739 72.7924L179.341 72.1417C178.907 72.0587 178.489 72.3427 178.406 72.776L177.755 76.1745C177.672 76.6078 177.956 77.0264 178.389 77.1093L181.788 77.7601C182.221 77.8431 182.64 77.5591 182.723 77.1257L183.374 73.7272C183.457 73.2939 183.173 72.8754 182.739 72.7924Z" fill="#263238"/>
<path d="M181.552 75.7739L181.479 76.158L179.912 75.8584L179.974 75.5474L180.915 74.9482C181.134 74.8061 181.184 74.7063 181.203 74.6064C181.237 74.4451 181.141 74.3261 180.923 74.2838C180.84 74.2658 180.754 74.2679 180.673 74.29C180.591 74.312 180.516 74.3534 180.454 74.4106L180.147 74.1187C180.266 74.01 180.411 73.9324 180.568 73.8929C180.724 73.8534 180.889 73.8531 181.045 73.8921C181.506 73.9804 181.767 74.2762 181.694 74.6602C181.667 74.7878 181.611 74.9073 181.529 75.0092C181.448 75.1112 181.344 75.1929 181.226 75.2478L180.661 75.605L181.552 75.7739Z" fill="white"/>
<path d="M190.691 74.3142L187.293 73.6634C186.859 73.5804 186.441 73.8644 186.358 74.2977L185.707 77.6963C185.624 78.1296 185.908 78.5481 186.341 78.631L189.74 79.2818C190.173 79.3648 190.592 79.0808 190.675 78.6475L191.325 75.249C191.408 74.8157 191.124 74.3971 190.691 74.3142Z" fill="#455A64"/>
<g opacity="0.2">
<path opacity="0.2" d="M190.691 74.3137L187.292 73.6629C186.859 73.58 186.441 73.864 186.358 74.2973L185.707 77.6958C185.624 78.1291 185.908 78.5476 186.341 78.6306L189.74 79.2813C190.173 79.3643 190.592 79.0803 190.675 78.647L191.325 75.2485C191.408 74.8152 191.124 74.3967 190.691 74.3137Z" fill="black"/>
</g>
<path d="M189.926 74.17L186.527 73.5193C186.094 73.4363 185.675 73.7203 185.592 74.1536L184.941 77.5521C184.858 77.9854 185.142 78.4039 185.576 78.4869L188.974 79.1377C189.408 79.2206 189.826 78.9366 189.909 78.5033L190.56 75.1048C190.643 74.6715 190.359 74.253 189.926 74.17Z" fill="#263238"/>
<path d="M188.75 76.9031C188.68 77.2526 188.365 77.5215 187.763 77.4101C187.482 77.3577 187.223 77.2241 187.017 77.026L187.271 76.6919C187.419 76.8492 187.615 76.9543 187.828 76.9915C188.066 77.0376 188.235 76.9684 188.266 76.7994C188.296 76.6305 188.2 76.5229 187.928 76.473L187.709 76.4308L187.77 76.112L188.289 75.728L187.405 75.559L187.478 75.1749L188.93 75.4514L188.869 75.7625L188.316 76.2157C188.461 76.2547 188.587 76.3471 188.667 76.4745C188.747 76.6019 188.777 76.755 188.75 76.9031Z" fill="white"/>
<path d="M197.874 75.6916L194.475 75.0409C194.042 74.9579 193.623 75.2419 193.54 75.6752L192.89 79.0737C192.807 79.507 193.091 79.9255 193.524 80.0085L196.923 80.6592C197.356 80.7422 197.774 80.4582 197.857 80.0249L198.508 76.6264C198.591 76.1931 198.307 75.7746 197.874 75.6916Z" fill="#455A64"/>
<g opacity="0.2">
<path opacity="0.2" d="M197.874 75.6926L194.475 75.0418C194.042 74.9589 193.624 75.2429 193.541 75.6762L192.89 79.0747C192.807 79.508 193.091 79.9265 193.524 80.0095L196.923 80.6602C197.356 80.7432 197.774 80.4592 197.857 80.0259L198.508 76.6274C198.591 76.1941 198.307 75.7756 197.874 75.6926Z" fill="black"/>
</g>
<path d="M197.124 75.5442L193.725 74.8934C193.292 74.8104 192.873 75.0944 192.79 75.5277L192.139 78.9262C192.056 79.3595 192.34 79.7781 192.774 79.861L196.172 80.5118C196.606 80.5948 197.024 80.3108 197.107 79.8775L197.758 76.4789C197.841 76.0456 197.557 75.6271 197.124 75.5442Z" fill="#263238"/>
<path d="M193.859 77.3087L193.822 77.4973L196.04 77.922L196.076 77.7334L193.859 77.3087Z" fill="white"/>
<path d="M195.486 76.7118C195.474 76.7883 195.44 76.8596 195.388 76.9164C195.335 76.9731 195.267 77.0127 195.191 77.0299C195.116 77.0472 195.037 77.0412 194.965 77.0129C194.893 76.9846 194.831 76.9352 194.788 76.8712C194.745 76.8072 194.722 76.7316 194.722 76.6542C194.722 76.5769 194.746 76.5015 194.79 76.4378C194.833 76.3741 194.895 76.3251 194.968 76.2972C195.04 76.2694 195.119 76.264 195.194 76.2817C195.288 76.3038 195.37 76.3602 195.424 76.4399C195.478 76.5195 195.5 76.6166 195.486 76.7118Z" fill="white"/>
<path d="M195.117 78.6468C195.106 78.7233 195.071 78.7946 195.019 78.8513C194.966 78.9081 194.898 78.9477 194.822 78.9649C194.747 78.9821 194.668 78.9761 194.596 78.9478C194.524 78.9195 194.463 78.8701 194.419 78.8061C194.376 78.7421 194.353 78.6665 194.353 78.5892C194.353 78.5118 194.377 78.4364 194.421 78.3727C194.464 78.309 194.527 78.26 194.599 78.2322C194.671 78.2043 194.75 78.1989 194.825 78.2166C194.919 78.2387 195.001 78.2952 195.055 78.3748C195.109 78.4545 195.131 78.5515 195.117 78.6468Z" fill="white"/>
<g opacity="0.2">
<path opacity="0.2" d="M174.509 83.8964L170.577 83.1284C170.439 83.1014 170.318 83.0213 170.24 82.9054C170.162 82.7896 170.132 82.6475 170.158 82.51L170.926 78.5774C170.952 78.4405 171.032 78.3195 171.147 78.241C171.262 78.1625 171.404 78.1329 171.541 78.1588L175.477 78.9269C175.545 78.9388 175.611 78.9644 175.669 79.0019C175.727 79.0395 175.777 79.0884 175.816 79.1457C175.855 79.203 175.882 79.2675 175.896 79.3355C175.91 79.4034 175.91 79.4734 175.896 79.5414L175.128 83.4778C175.101 83.6151 175.02 83.7361 174.905 83.8145C174.789 83.8929 174.647 83.9224 174.509 83.8964Z" fill="black"/>
</g>
<path d="M174.418 78.7447L171.019 78.094C170.586 78.011 170.167 78.295 170.084 78.7283L169.434 82.1268C169.351 82.5601 169.635 82.9786 170.068 83.0616L173.466 83.7124C173.9 83.7953 174.318 83.5113 174.401 83.078L175.052 79.6795C175.135 79.2462 174.851 78.8277 174.418 78.7447Z" fill="#263238"/>
<path d="M173.096 81.6589L172.758 81.5937L172.673 82.0276L172.209 81.9393L172.289 81.5053L171.176 81.2903L171.237 80.9677L172.466 79.8424L172.969 79.9384L171.817 81.0099L172.374 81.1174L172.447 80.7334L172.9 80.8179L172.827 81.2019L173.161 81.2672L173.096 81.6589Z" fill="white"/>
<path d="M182.114 80.2194L178.716 79.5687C178.282 79.4857 177.864 79.7697 177.781 80.203L177.13 83.6015C177.047 84.0348 177.331 84.4534 177.764 84.5363L181.163 85.1871C181.596 85.2701 182.015 84.9861 182.098 84.5528L182.748 81.1542C182.831 80.7209 182.547 80.3024 182.114 80.2194Z" fill="#455A64"/>
<g opacity="0.2">
<path opacity="0.2" d="M182.114 80.2197L178.715 79.5689C178.282 79.486 177.864 79.77 177.781 80.2033L177.13 83.6018C177.047 84.0351 177.331 84.4536 177.764 84.5366L181.163 85.1873C181.596 85.2703 182.014 84.9863 182.097 84.553L182.748 81.1545C182.831 80.7212 182.547 80.3027 182.114 80.2197Z" fill="black"/>
</g>
<path d="M181.349 80.0713L177.95 79.4205C177.517 79.3375 177.098 79.6215 177.015 80.0548L176.365 83.4533C176.282 83.8866 176.566 84.3052 176.999 84.3881L180.397 85.0389C180.831 85.1219 181.249 84.8379 181.332 84.4046L181.983 81.006C182.066 80.5727 181.782 80.1542 181.349 80.0713Z" fill="#263238"/>
<path d="M179.982 82.7445C179.909 83.1286 179.579 83.3821 178.987 83.2668C178.706 83.2151 178.447 83.0815 178.242 82.8828L178.499 82.5525C178.648 82.7082 178.841 82.8131 179.053 82.8521C179.294 82.8982 179.46 82.8252 179.494 82.6562C179.529 82.4872 179.437 82.3682 179.064 82.2952L178.534 82.1954L178.864 81.0432L180.124 81.2852L180.051 81.6692L179.187 81.5041L179.079 81.8881L179.248 81.9227C179.863 82.0609 180.051 82.3835 179.982 82.7445Z" fill="white"/>
<path d="M189.298 81.5926L185.899 80.9419C185.466 80.8589 185.047 81.1429 184.964 81.5762L184.314 84.9747C184.231 85.408 184.515 85.8265 184.948 85.9095L188.346 86.5603C188.78 86.6432 189.198 86.3592 189.281 85.9259L189.932 82.5274C190.015 82.0941 189.731 81.6756 189.298 81.5926Z" fill="#455A64"/>
<g opacity="0.2">
<path opacity="0.2" d="M189.298 81.5915L185.899 80.9408C185.466 80.8578 185.047 81.1418 184.964 81.5751L184.314 84.9736C184.231 85.4069 184.515 85.8254 184.948 85.9084L188.346 86.5592C188.78 86.6421 189.198 86.3581 189.281 85.9248L189.932 82.5263C190.015 82.093 189.731 81.6745 189.298 81.5915Z" fill="black"/>
</g>
<path d="M188.528 81.4476L185.13 80.7968C184.696 80.7139 184.278 80.9979 184.195 81.4312L183.544 84.8297C183.461 85.263 183.745 85.6815 184.178 85.7645L187.577 86.4152C188.01 86.4982 188.429 86.2142 188.512 85.7809L189.162 82.3824C189.245 81.9491 188.961 81.5306 188.528 81.4476Z" fill="#263238"/>
<path d="M187.31 84.1502C187.288 84.2476 187.246 84.3396 187.188 84.4203C187.129 84.501 187.054 84.5687 186.968 84.6191C186.882 84.6696 186.786 84.7017 186.687 84.7136C186.588 84.7254 186.487 84.7166 186.392 84.6878C185.823 84.5803 185.535 84.154 185.666 83.4858C185.678 83.3376 185.722 83.1938 185.795 83.0643C185.867 82.9348 185.968 82.8227 186.088 82.7357C186.209 82.6488 186.347 82.5891 186.493 82.5608C186.639 82.5325 186.789 82.5362 186.933 82.5717C187.136 82.6058 187.325 82.6933 187.482 82.8252L187.237 83.144C187.136 83.0481 187.009 82.9852 186.872 82.9635C186.793 82.9438 186.711 82.9412 186.631 82.956C186.552 82.9709 186.476 83.0027 186.41 83.0493C186.343 83.096 186.288 83.1563 186.247 83.2263C186.206 83.2964 186.181 83.3744 186.173 83.455C186.253 83.4049 186.343 83.3712 186.437 83.356C186.53 83.3409 186.626 83.3445 186.718 83.3667C186.81 83.3764 186.898 83.4048 186.978 83.4501C187.058 83.4954 187.128 83.5567 187.184 83.6301C187.239 83.7036 187.279 83.7876 187.301 83.8771C187.322 83.9666 187.325 84.0595 187.31 84.1502ZM186.841 84.0849C186.851 84.0401 186.85 83.9938 186.84 83.9492C186.83 83.9045 186.811 83.8625 186.783 83.8261C186.755 83.7897 186.72 83.7596 186.68 83.738C186.639 83.7164 186.595 83.7037 186.549 83.7008C186.506 83.6876 186.46 83.6834 186.415 83.6885C186.37 83.6936 186.326 83.708 186.287 83.7307C186.248 83.7534 186.214 83.7839 186.187 83.8204C186.16 83.8569 186.141 83.8986 186.131 83.9428C186.096 84.1194 186.204 84.2731 186.434 84.3268C186.476 84.3382 186.52 84.3409 186.563 84.3348C186.606 84.3287 186.647 84.3138 186.684 84.2912C186.721 84.2685 186.753 84.2385 186.778 84.2031C186.803 84.1676 186.821 84.1274 186.83 84.0849H186.841Z" fill="white"/>
<path d="M196.48 82.968L193.081 82.3172C192.648 82.2343 192.229 82.5183 192.147 82.9516L191.496 86.3501C191.413 86.7834 191.697 87.2019 192.13 87.2849L195.529 87.9356C195.962 88.0186 196.38 87.7346 196.463 87.3013L197.114 83.9028C197.197 83.4695 196.913 83.051 196.48 82.968Z" fill="#455A64"/>
<g opacity="0.2">
<path opacity="0.2" d="M196.48 82.9665L193.081 82.3158C192.648 82.2328 192.229 82.5168 192.147 82.9501L191.496 86.3486C191.413 86.7819 191.697 87.2004 192.13 87.2834L195.529 87.9342C195.962 88.0171 196.38 87.7331 196.463 87.2998L197.114 83.9013C197.197 83.468 196.913 83.0495 196.48 82.9665Z" fill="black"/>
</g>
<path d="M195.711 82.8231L192.313 82.1723C191.88 82.0894 191.461 82.3734 191.378 82.8067L190.727 86.2052C190.644 86.6385 190.928 87.057 191.362 87.14L194.76 87.7907C195.193 87.8737 195.612 87.5897 195.695 87.1564L196.346 83.7579C196.429 83.3246 196.145 82.9061 195.711 82.8231Z" fill="#263238"/>
<path d="M194.436 84.2735L192.549 85.5133L192.654 85.6738L194.542 84.434L194.436 84.2735Z" fill="white"/>
<path d="M192.991 83.9827L192.832 84.0906L194.101 85.9589L194.259 85.8511L192.991 83.9827Z" fill="white"/>
<path d="M173.8 86.1142L170.401 85.4635C169.968 85.3805 169.549 85.6645 169.466 86.0978L168.816 89.4963C168.733 89.9296 169.017 90.3481 169.45 90.4311L172.848 91.0819C173.282 91.1648 173.7 90.8808 173.783 90.4475L174.434 87.049C174.517 86.6157 174.233 86.1972 173.8 86.1142Z" fill="#455A64"/>
<g opacity="0.2">
<path opacity="0.2" d="M173.8 86.1142L170.401 85.4635C169.968 85.3805 169.55 85.6645 169.467 86.0978L168.816 89.4963C168.733 89.9296 169.017 90.3481 169.45 90.4311L172.849 91.0819C173.282 91.1648 173.7 90.8808 173.783 90.4475L174.434 87.049C174.517 86.6157 174.233 86.1972 173.8 86.1142Z" fill="black"/>
</g>
<path d="M173.038 85.9677L169.64 85.317C169.206 85.234 168.788 85.518 168.705 85.9513L168.054 89.3498C167.971 89.7831 168.255 90.2017 168.689 90.2846L172.087 90.9354C172.52 91.0184 172.939 90.7344 173.022 90.301L173.673 86.9025C173.756 86.4692 173.472 86.0507 173.038 85.9677Z" fill="#263238"/>
<path d="M171.752 87.1876L171.694 87.4987L170.588 89.1117L170.066 89.0118L171.13 87.4756L170.442 87.3451L170.381 87.683L169.954 87.6024L170.093 86.8727L171.752 87.1876Z" fill="white"/>
<path d="M180.735 87.4348L177.337 86.784C176.903 86.7011 176.485 86.9851 176.402 87.4184L175.751 90.8169C175.668 91.2502 175.952 91.6687 176.385 91.7517L179.784 92.4024C180.217 92.4854 180.636 92.2014 180.719 91.7681L181.37 88.3696C181.453 87.9363 181.168 87.5178 180.735 87.4348Z" fill="#455A64"/>
<g opacity="0.2">
<path opacity="0.2" d="M180.735 87.4348L177.337 86.784C176.904 86.7011 176.485 86.9851 176.402 87.4184L175.751 90.8169C175.668 91.2502 175.952 91.6687 176.386 91.7517L179.784 92.4024C180.217 92.4854 180.636 92.2014 180.719 91.7681L181.37 88.3696C181.453 87.9363 181.169 87.5178 180.735 87.4348Z" fill="black"/>
</g>
<path d="M179.966 87.2896L176.567 86.6389C176.134 86.5559 175.716 86.8399 175.633 87.2732L174.982 90.6717C174.899 91.105 175.183 91.5235 175.616 91.6065L179.015 92.2573C179.448 92.3402 179.867 92.0562 179.949 91.6229L180.6 88.2244C180.683 87.7911 180.399 87.3726 179.966 87.2896Z" fill="#263238"/>
<path d="M178.764 90.0416C178.691 90.4257 178.296 90.61 177.77 90.5102C177.243 90.4103 176.944 90.0954 177.021 89.7075C177.038 89.6041 177.085 89.508 177.156 89.4309C177.227 89.3538 177.319 89.2991 177.42 89.2736C177.354 89.2165 177.304 89.1424 177.276 89.0592C177.248 88.976 177.244 88.8868 177.263 88.8012C177.332 88.4402 177.7 88.275 178.169 88.3634C178.638 88.4517 178.937 88.7474 178.86 89.1084C178.845 89.1958 178.807 89.2775 178.75 89.3451C178.692 89.4126 178.618 89.4635 178.534 89.4925C178.623 89.5504 178.692 89.6337 178.734 89.7316C178.775 89.8295 178.785 89.9376 178.764 90.0416ZM178.284 89.9341C178.319 89.7498 178.188 89.6077 177.95 89.5501C177.712 89.4925 177.543 89.5885 177.508 89.7728C177.474 89.9572 177.601 90.0993 177.835 90.1569C178.069 90.2145 178.242 90.1261 178.277 89.9456L178.284 89.9341ZM177.743 88.9202C177.712 89.0739 177.816 89.1967 178.012 89.2351C178.207 89.2736 178.357 89.2006 178.396 89.0431C178.434 88.8857 178.315 88.7551 178.119 88.7205C177.923 88.686 177.766 88.7666 177.735 88.9318L177.743 88.9202Z" fill="white"/>
<path d="M187.914 88.8112L184.515 88.1605C184.082 88.0775 183.664 88.3615 183.581 88.7948L182.93 92.1933C182.847 92.6266 183.131 93.0451 183.564 93.1281L186.963 93.7789C187.396 93.8618 187.815 93.5778 187.897 93.1445L188.548 89.746C188.631 89.3127 188.347 88.8942 187.914 88.8112Z" fill="#455A64"/>
<g opacity="0.2">
<path opacity="0.2" d="M187.914 88.8112L184.516 88.1605C184.083 88.0775 183.664 88.3615 183.581 88.7948L182.93 92.1933C182.847 92.6266 183.131 93.0451 183.565 93.1281L186.963 93.7789C187.396 93.8618 187.815 93.5778 187.898 93.1445L188.549 89.746C188.632 89.3127 188.348 88.8942 187.914 88.8112Z" fill="black"/>
</g>
<path d="M187.149 88.665L183.75 88.0142C183.317 87.9313 182.898 88.2153 182.815 88.6486L182.165 92.0471C182.082 92.4804 182.366 92.8989 182.799 92.9819L186.198 93.6326C186.631 93.7156 187.049 93.4316 187.132 92.9983L187.783 89.5998C187.866 89.1665 187.582 88.748 187.149 88.665Z" fill="#263238"/>
<path d="M185.954 90.9338C185.941 91.0821 185.897 91.2259 185.824 91.3554C185.75 91.485 185.65 91.597 185.529 91.6839C185.408 91.7708 185.27 91.8304 185.124 91.8587C184.978 91.887 184.827 91.8833 184.682 91.8478C184.481 91.8092 184.294 91.7163 184.141 91.5789L184.387 91.2602C184.486 91.3573 184.614 91.4204 184.752 91.4407C184.83 91.4604 184.912 91.4629 184.992 91.4481C185.072 91.4333 185.147 91.4015 185.214 91.3548C185.28 91.3082 185.335 91.2478 185.376 91.1778C185.417 91.1078 185.443 91.0298 185.451 90.9491C185.369 90.9988 185.279 91.0318 185.184 91.0463C185.09 91.0608 184.994 91.0565 184.901 91.0336C184.811 91.0243 184.724 90.9967 184.645 90.9525C184.565 90.9083 184.496 90.8485 184.441 90.7766C184.385 90.7047 184.345 90.6224 184.323 90.5345C184.3 90.4466 184.296 90.3551 184.31 90.2655C184.332 90.168 184.373 90.0761 184.432 89.9954C184.491 89.9147 184.566 89.847 184.652 89.7966C184.738 89.7461 184.833 89.714 184.933 89.7021C185.032 89.6903 185.132 89.6991 185.228 89.7278C185.796 89.8392 186.08 90.2655 185.954 90.9338ZM185.485 90.4691C185.52 90.2924 185.412 90.1388 185.186 90.085C185.143 90.0714 185.097 90.0671 185.052 90.0724C185.007 90.0777 184.964 90.0925 184.926 90.1158C184.887 90.139 184.853 90.1702 184.828 90.2073C184.802 90.2444 184.784 90.2866 184.776 90.3309C184.768 90.3753 184.769 90.421 184.78 90.4648C184.791 90.5087 184.811 90.5498 184.839 90.5853C184.866 90.6209 184.901 90.6501 184.941 90.6712C184.981 90.6922 185.025 90.7044 185.07 90.7072C185.113 90.7199 185.158 90.7238 185.203 90.7186C185.247 90.7134 185.29 90.6992 185.329 90.677C185.368 90.6547 185.401 90.6248 185.428 90.5891C185.455 90.5533 185.475 90.5125 185.485 90.4691Z" fill="white"/>
<path d="M195.097 90.1876L191.699 89.5368C191.265 89.4539 190.847 89.7379 190.764 90.1712L190.113 93.5697C190.03 94.003 190.314 94.4215 190.747 94.5045L194.146 95.1552C194.579 95.2382 194.998 94.9542 195.081 94.5209L195.731 91.1224C195.814 90.6891 195.53 90.2706 195.097 90.1876Z" fill="#455A64"/>
<g opacity="0.2">
<path opacity="0.2" d="M195.097 90.1865L191.699 89.5357C191.265 89.4528 190.847 89.7368 190.764 90.1701L190.113 93.5686C190.03 94.0019 190.314 94.4204 190.747 94.5034L194.146 95.1541C194.579 95.2371 194.998 94.9531 195.081 94.5198L195.731 91.1213C195.814 90.688 195.53 90.2695 195.097 90.1865Z" fill="black"/>
</g>
<path d="M194.328 90.0416L190.93 89.3908C190.496 89.3079 190.078 89.5919 189.995 90.0252L189.344 93.4237C189.261 93.857 189.545 94.2755 189.978 94.3585L193.377 95.0092C193.81 95.0922 194.229 94.8082 194.312 94.3749L194.963 90.9764C195.046 90.5431 194.762 90.1246 194.328 90.0416Z" fill="#263238"/>
<path d="M191.216 92.4025L191.18 92.5907L193.393 93.0198L193.429 92.8316L191.216 92.4025Z" fill="white"/>
<path d="M186.519 96.0955L183.121 95.4448C182.687 95.3618 182.269 95.6458 182.186 96.0791L181.535 99.4776C181.452 99.9109 181.736 100.329 182.169 100.412L185.568 101.063C186.001 101.146 186.42 100.862 186.503 100.429L187.153 97.0303C187.236 96.597 186.952 96.1785 186.519 96.0955Z" fill="#455A64"/>
<g opacity="0.2">
<path opacity="0.2" d="M186.518 96.0952L183.12 95.4444C182.686 95.3614 182.268 95.6455 182.185 96.0788L181.534 99.4773C181.451 99.9106 181.735 100.329 182.168 100.412L185.567 101.063C186 101.146 186.419 100.862 186.502 100.428L187.152 97.03C187.235 96.5967 186.951 96.1782 186.518 96.0952Z" fill="black"/>
</g>
<path d="M185.754 95.9472L182.356 95.2965C181.923 95.2135 181.504 95.4975 181.421 95.9308L180.77 99.3293C180.687 99.7626 180.971 100.181 181.405 100.264L184.803 100.915C185.236 100.998 185.655 100.714 185.738 100.281L186.389 96.882C186.472 96.4487 186.188 96.0302 185.754 95.9472Z" fill="#263238"/>
<path d="M193.702 97.472L190.303 96.8213C189.87 96.7383 189.451 97.0223 189.368 97.4556L188.718 100.854C188.635 101.287 188.919 101.706 189.352 101.789L192.75 102.44C193.184 102.523 193.602 102.239 193.685 101.805L194.336 98.4068C194.419 97.9735 194.135 97.555 193.702 97.472Z" fill="#FF725E"/>
<g opacity="0.4">
<path opacity="0.4" d="M193.702 97.4719L190.303 96.8211C189.87 96.7382 189.452 97.0222 189.369 97.4555L188.718 100.854C188.635 101.287 188.919 101.706 189.352 101.789L192.751 102.44C193.184 102.522 193.603 102.238 193.686 101.805L194.336 98.4067C194.419 97.9734 194.135 97.5549 193.702 97.4719Z" fill="black"/>
</g>
<path d="M192.933 97.3226L189.535 96.6718C189.102 96.5889 188.683 96.8729 188.6 97.3062L187.949 100.705C187.866 101.138 188.15 101.557 188.584 101.639L191.982 102.29C192.416 102.373 192.834 102.089 192.917 101.656L193.568 98.2574C193.651 97.8241 193.367 97.4056 192.933 97.3226Z" fill="#FF725E"/>
<path d="M189.733 98.8945L189.697 99.0831L191.915 99.5074L191.951 99.3188L189.733 98.8945Z" fill="white"/>
<path d="M189.568 99.7406L189.532 99.9292L191.75 100.354L191.786 100.165L189.568 99.7406Z" fill="white"/>
<path d="M178.26 94.4474L168.151 92.5117C167.63 92.412 167.127 92.7534 167.028 93.2742L166.413 96.4841C166.313 97.0049 166.655 97.5079 167.175 97.6076L177.284 99.5433C177.805 99.643 178.308 99.3017 178.408 98.7809L179.022 95.571C179.122 95.0502 178.781 94.5471 178.26 94.4474Z" fill="#263238"/>
<path d="M172.289 95.8329C172.42 95.1493 172.873 94.8344 173.383 94.9342C173.894 95.0341 174.194 95.4911 174.063 96.1747C173.933 96.8583 173.483 97.1732 172.973 97.0734C172.462 96.9735 172.158 96.5165 172.289 95.8329ZM173.583 96.0825C173.672 95.6102 173.545 95.3836 173.307 95.3375C173.069 95.2914 172.865 95.4565 172.777 95.9289C172.688 96.4013 172.815 96.624 173.049 96.6701C173.284 96.7162 173.491 96.5703 173.583 96.0825Z" fill="white"/>
<path d="M183.721 96.9713L183.264 99.1826L183.452 99.2215L183.909 97.0102L183.721 96.9713Z" fill="white"/>
<path d="M182.487 97.7873L182.451 97.976L184.669 98.4003L184.705 98.2117L182.487 97.7873Z" fill="white"/>
<path d="M184.502 62.4936L183.907 65.589L183.761 65.5621L184.329 62.6049L183.561 62.4552L183.588 62.3169L184.502 62.4936Z" fill="#263238"/>
<path d="M186.784 65.9968L186.757 66.1351L184.66 65.751V65.6435L186.242 64.5605C186.695 64.2533 186.818 64.0459 186.868 63.7924C186.945 63.3815 186.711 63.0589 186.169 62.9552C185.999 62.9092 185.82 62.9029 185.647 62.9369C185.474 62.9709 185.311 63.0441 185.171 63.151L185.086 63.0358C185.244 62.9198 185.426 62.8403 185.619 62.8031C185.811 62.7659 186.01 62.7719 186.2 62.8208C186.791 62.936 187.11 63.3123 187.014 63.8116C186.96 64.1035 186.818 64.3416 186.334 64.6719L184.909 65.6397L186.784 65.9968Z" fill="#263238"/>
<path d="M189.299 65.7329C189.199 66.2475 188.769 66.5394 188.089 66.4088C187.887 66.3811 187.694 66.3101 187.522 66.2007C187.351 66.0913 187.205 65.9462 187.094 65.7751L187.194 65.683C187.295 65.841 187.429 65.9753 187.587 66.0767C187.745 66.1781 187.922 66.2442 188.108 66.2706C188.703 66.3858 189.068 66.1515 189.153 65.706C189.237 65.2605 188.995 64.911 188.339 64.7843L188.166 64.7536V64.646L189.372 63.5746L187.666 63.2481L187.69 63.1099L189.61 63.4747L189.587 63.5822L188.365 64.6537C189.107 64.7958 189.399 65.2183 189.299 65.7329Z" fill="#263238"/>
<path d="M192.348 66.281L191.676 66.1504L191.503 67.0452L191.357 67.0184L191.53 66.1235L189.752 65.7817L189.771 65.678L191.883 63.9076L192.056 63.9422L189.971 65.6896L191.557 65.9891L191.707 65.2018L191.852 65.2326L191.703 66.0006L192.375 66.1274L192.348 66.281Z" fill="#263238"/>
<path d="M192.928 67.1791C192.914 67.2333 192.894 67.286 192.87 67.3366L192.598 67.9011L192.482 67.8781L192.736 67.2944C192.701 67.2829 192.671 67.2589 192.653 67.227C192.634 67.1951 192.628 67.1576 192.636 67.1215C192.64 67.1026 192.647 67.0845 192.658 67.0684C192.668 67.0523 192.682 67.0385 192.698 67.0278C192.714 67.0171 192.732 67.0097 192.751 67.006C192.77 67.0023 192.79 67.0024 192.809 67.0063C192.847 67.0138 192.881 67.0361 192.904 67.0684C192.926 67.1007 192.935 67.1405 192.928 67.1791Z" fill="#263238"/>
<path d="M196.046 66.999L195.374 66.8684L195.205 67.7633L195.059 67.7364L195.228 66.8416L193.45 66.4998L193.473 66.3961L195.585 64.6256L195.758 64.6602L193.673 66.4076L195.255 66.711L195.405 65.9429L195.551 65.9698L195.401 66.7571L196.073 66.8838L196.046 66.999Z" fill="#263238"/>
<path d="M198.351 67.449C198.255 67.9521 197.832 68.2747 197.129 68.1403C196.928 68.1123 196.736 68.0411 196.565 67.9318C196.394 67.8224 196.248 67.6774 196.138 67.5067L196.242 67.4183C196.343 67.5757 196.476 67.7096 196.633 67.811C196.79 67.9123 196.967 67.9788 197.152 68.0059C197.759 68.1211 198.116 67.86 198.201 67.4222C198.285 66.9844 198.063 66.6041 197.179 66.4352L196.576 66.3199L197.022 64.8951L198.616 65.1985L198.592 65.3368L197.118 65.0526L196.757 66.2047L197.237 66.2969C198.189 66.4851 198.462 66.8999 198.351 67.449Z" fill="#263238"/>
<path d="M107.875 57.4205C109.478 55.7004 111.43 54.0806 112.028 51.7928C112.551 49.6803 111.82 47.2673 112.933 45.4053C114.312 43.1175 117.717 42.9004 119.362 40.8464C120.192 39.836 120.441 38.4834 121.23 37.4647C122.576 35.728 125.068 35.3439 127.244 35.6529C129.42 35.9618 131.48 36.8302 133.664 37.0556C136.654 37.3812 139.786 36.5045 142.635 37.4731C145.774 38.5419 147.618 41.4392 149.587 44.253L152.17 47.5261C152.7 48.0919 153.284 48.6037 153.914 49.0541C155.092 49.7136 156.205 50.4853 157.236 51.3586C157.712 51.8966 158.074 52.5257 158.3 53.2081C158.527 53.8905 158.614 54.612 158.556 55.3291C158.497 56.0461 158.295 56.7439 157.962 57.3803C157.628 58.0167 157.169 58.5786 156.614 59.0319C157.749 59.472 158.715 60.2666 159.368 61.2991C160.021 62.3316 160.328 63.5475 160.243 64.7682C160.013 66.0897 159.619 67.3771 159.072 68.6007C158.529 69.8407 158.441 71.2341 158.823 72.5334C159.313 73.7775 160.841 74.6792 162.029 74.0614C161.786 74.9221 161.355 75.7174 160.768 76.3892C160.18 77.0609 159.45 77.5922 158.632 77.944C159.242 78.6186 160.086 79.0337 160.991 79.1046C158.349 84.7573 151.63 87.5294 145.417 87.3374C139.204 87.1453 133.357 84.5486 127.684 82.0103L111.131 77.0005C109.669 76.608 109.129 74.7878 109.204 73.2765C109.278 71.7652 109.719 70.2038 109.204 68.7677C108.539 66.8055 106.33 65.695 105.632 63.7579C104.835 61.5369 106.263 59.1405 107.875 57.4205Z" fill="#263238"/>
<path d="M123.672 91.2894L119.229 96.8043L100.706 101.958L103.475 131.879C104.328 143.604 105.526 146.473 106.356 154.277V160.633H158.97L166.317 99.8997L148.167 95.729L144.265 91.2894H123.672Z" fill="#597EF7"/>
<path d="M122.885 101.974L125.151 131.933L127.574 147.141L145.36 97.5111L131.3 108.063L122.885 101.974Z" fill="white"/>
<path d="M127.317 149.281C127.317 149.281 127.34 149.231 127.386 149.135C127.432 149.039 127.517 148.897 127.609 148.721L128.496 147.115C129.264 145.725 130.37 143.732 131.738 141.266L142.491 122.01L148.359 111.56L148.378 111.676L145.824 109.517L145.732 109.44L145.84 109.375L149.477 107.232L149.438 107.309C149.054 103.764 148.716 100.872 148.49 98.8599C148.382 97.8614 148.301 97.0818 148.24 96.5556C148.217 96.2983 148.198 96.0948 148.182 95.9488C148.167 95.8029 148.182 95.7415 148.182 95.7415C148.182 95.7415 148.182 95.8106 148.217 95.9488L148.298 96.5518C148.367 97.0895 148.463 97.8691 148.589 98.8561C148.831 100.872 149.177 103.76 149.603 107.305V107.355L149.561 107.382L145.932 109.54V109.402L148.49 111.549L148.551 111.599L148.513 111.664L142.664 122.114L131.849 141.355L128.55 147.173C128.166 147.853 127.859 148.383 127.644 148.751L127.405 149.158C127.381 149.203 127.352 149.244 127.317 149.281Z" fill="#263238"/>
<path d="M127.317 149.28C127.296 149.236 127.279 149.19 127.267 149.142C127.233 149.038 127.191 148.9 127.137 148.723C127.022 148.339 126.86 147.802 126.653 147.107C126.238 145.693 125.647 143.65 124.913 141.162C124.18 138.673 123.296 135.666 122.378 132.328C121.522 128.972 120.704 125.258 119.84 121.36C118.665 116.014 117.605 111.01 116.725 106.766V106.693L116.794 106.666L119.218 105.818V105.964L116.268 104.401L116.211 104.374L116.234 104.316L118.43 98.8012L119.033 97.315L119.191 96.9309C119.209 96.8875 119.229 96.8452 119.252 96.8042C119.242 96.8502 119.228 96.8952 119.21 96.9386C119.176 97.0346 119.129 97.1652 119.068 97.3227C118.934 97.676 118.745 98.1791 118.5 98.8204L116.364 104.358L116.33 104.27L119.291 105.806L119.452 105.891L119.279 105.952L116.86 106.809L116.917 106.713C117.816 110.937 118.884 115.93 120.059 121.306C120.923 125.201 121.733 128.918 122.582 132.271C123.431 135.624 124.368 138.596 125.074 141.104L126.753 147.072C126.945 147.767 127.095 148.312 127.198 148.696L127.31 149.119C127.317 149.172 127.32 149.226 127.317 149.28Z" fill="#263238"/>
<path d="M100.707 101.962C100.707 101.962 96.6358 103.948 93.7631 113.076C91.6777 119.713 83.198 142.56 83.198 142.56L73.8042 139.817C73.8042 139.817 66.8914 148.428 68.4583 151.427C70.0252 154.427 81.466 160.644 81.466 160.644H94.8615C96.6965 159.233 98.0402 157.279 98.7019 155.06L106.364 129.26L100.707 101.962Z" fill="#597EF7"/>
<path d="M166.309 99.9038C168.766 101.377 170.798 103.464 172.204 105.96C174.543 110.119 193.219 140.524 194.767 147.718C197.071 158.471 192.463 160.625 192.463 160.625H186.011L170.034 160.556L168.018 148.056L175.119 146.539L161.958 131.945L161.086 133.431L158.513 112.6L166.309 99.9038Z" fill="#597EF7"/>
<path d="M102.401 114.513C102.458 114.513 102.934 119.679 103.464 126.058C103.994 132.437 104.382 137.614 104.328 137.617C104.275 137.621 103.798 132.452 103.265 126.073C102.731 119.694 102.347 114.517 102.401 114.513Z" fill="#263238"/>
<path d="M165.365 108.73C165.418 108.73 164.681 115.186 163.721 123.132C162.761 131.078 161.939 137.514 161.881 137.514C161.824 137.514 162.561 131.062 163.525 123.113C164.489 115.163 165.311 108.711 165.365 108.73Z" fill="#263238"/>
<path d="M170.227 160.636C170.227 160.636 170.288 160.555 170.407 160.405C170.58 160.188 170.74 159.961 170.887 159.726C171.424 158.854 171.84 157.914 172.124 156.93C172.326 156.253 172.475 155.56 172.569 154.86C172.703 154.065 172.738 153.256 172.673 152.452C172.575 151.568 172.27 150.719 171.782 149.975C171.255 149.178 170.566 148.503 169.758 147.993L169.589 147.882L169.374 147.767L169.604 147.697C172.823 146.755 176.128 146.138 179.471 145.858C180.749 145.746 181.775 145.7 182.501 145.677C182.858 145.677 183.138 145.677 183.326 145.677C183.422 145.666 183.519 145.666 183.614 145.677C183.519 145.696 183.423 145.706 183.326 145.708L182.505 145.762C181.79 145.808 180.757 145.877 179.486 146.004C176.159 146.327 172.87 146.96 169.662 147.897L169.681 147.713L169.866 147.82C170.698 148.344 171.408 149.041 171.947 149.863C172.448 150.634 172.76 151.511 172.857 152.425C172.919 153.246 172.878 154.072 172.734 154.883C172.631 155.588 172.472 156.284 172.258 156.964C171.961 157.956 171.521 158.899 170.952 159.764C170.797 159.997 170.625 160.219 170.438 160.429C170.377 160.507 170.306 160.576 170.227 160.636Z" fill="#263238"/>
<path d="M127.364 160.637C127.31 160.637 127.264 158.064 127.264 154.876C127.264 151.689 127.31 149.115 127.364 149.115C127.417 149.115 127.463 151.689 127.463 154.876C127.463 158.064 127.421 160.637 127.364 160.637Z" fill="#263238"/>
<path d="M102.4 112.8C102.347 112.8 101.824 110.592 101.248 107.842C100.672 105.092 100.223 102.849 100.277 102.849C100.33 102.849 100.853 105.058 101.429 107.807C102.005 110.557 102.454 112.788 102.4 112.8Z" fill="#263238"/>
<g opacity="0.3">
<path opacity="0.3" d="M128.2 147.709L150.917 112.864L147.637 109.696L149.511 107.303L145.878 109.458L148.436 111.612L128.2 147.709Z" fill="black"/>
</g>
<g opacity="0.3">
<path opacity="0.3" d="M72.0839 148.877V150.812L97.8687 150.893V148.877H72.0839Z" fill="black"/>
</g>
<path d="M148.467 58.6457C148.259 53.7683 145.222 49.6821 140.525 48.3418L125.896 44.1595C119.544 43.2877 115.066 51.007 114.463 57.3899C113.799 64.4832 113.311 71.9836 113.979 77.3027C115.343 88.0176 123.473 89.6267 123.473 89.6267C123.473 89.6267 123.204 99.2855 123.12 102.4L131.3 108.063L145.01 98.0527L148.513 58.784C148.52 58.5958 148.49 58.8915 148.467 58.6457Z" fill="#FFBF9D"/>
<path d="M137.713 86.2371C137.713 86.2371 134.034 93.4648 123.392 92.136L123.461 89.6282C128.435 89.841 133.369 88.6669 137.713 86.2371Z" fill="#FF9A6C"/>
<path d="M143.582 66.9456C143.724 66.5885 150.356 64.4071 150.245 71.389C150.137 78.1713 143.332 76.6389 143.332 76.4431C143.332 76.2472 143.582 66.9456 143.582 66.9456Z" fill="#FFBF9D"/>
<path d="M145.467 73.9156C145.498 73.8926 145.582 74.0001 145.782 74.0961C146.059 74.2215 146.375 74.2339 146.661 74.1307C147.383 73.8811 148.009 72.7558 148.067 71.5345C148.095 70.9535 147.992 70.3735 147.767 69.837C147.709 69.6234 147.598 69.4274 147.446 69.2661C147.294 69.1048 147.105 68.983 146.896 68.9115C146.761 68.8742 146.617 68.8849 146.489 68.9416C146.361 68.9983 146.256 69.0976 146.193 69.2226C146.097 69.4108 146.139 69.5452 146.104 69.5567C146.07 69.5682 145.959 69.4415 146.02 69.1726C146.062 69.0066 146.158 68.8593 146.293 68.754C146.482 68.6164 146.718 68.5585 146.949 68.5927C147.227 68.6528 147.484 68.7833 147.697 68.9716C147.909 69.1599 148.07 69.3998 148.163 69.6681C148.444 70.2596 148.576 70.911 148.547 71.5653C148.478 72.9325 147.752 74.1998 146.765 74.461C146.582 74.5118 146.391 74.5202 146.204 74.4856C146.018 74.451 145.842 74.3743 145.69 74.2613C145.475 74.0808 145.44 73.9271 145.467 73.9156Z" fill="#FF9A6C"/>
<path d="M75.0598 150.812L69.998 144.863C69.998 144.863 66.4456 144.863 64.6713 143.173C62.897 141.484 59.6096 139.89 60.9422 136.871C60.9422 136.871 59.3446 135.005 60.6311 132.965L60.6734 132.432C60.6734 132.432 56.6793 130.742 57.8315 128.703C58.9836 126.663 61.2072 127.55 61.2072 127.55C61.2072 127.55 56.8445 124.601 56.0572 123.794C53.9526 121.636 56.2146 120.181 58.5535 121.49C62.44 123.61 75.4976 129.766 76.3924 134.206V136.126C76.3924 136.126 80.0293 140.585 80.0293 140.85C80.0293 141.115 79.7643 148.058 75.0598 150.812Z" fill="#FFBF9D"/>
<path d="M49.4711 105.972C49.3137 105.772 69.334 138.048 69.334 138.048L70.2442 148.878H101.49L98.5906 136.55C98.5906 136.55 93.1909 122.071 93.2524 121.902C93.3714 121.572 83.1405 105.484 83.1405 105.484L49.4711 105.972Z" fill="white"/>
<path d="M49.4712 105.972L50.0857 105.953L51.8638 105.919L58.6461 105.796L83.1405 105.412H83.1789L83.202 105.45C85.8903 109.675 88.8244 114.283 91.8737 119.276C92.2578 119.902 92.6418 120.532 92.999 121.196C93.0912 121.361 93.1833 121.522 93.264 121.695C93.2881 121.741 93.3087 121.788 93.3254 121.837C93.3307 121.86 93.3307 121.884 93.3254 121.906C93.3254 121.956 93.3254 121.937 93.3254 121.941V121.972L93.4099 122.233L93.794 123.297L95.3609 127.606L98.6637 136.519C99.5431 140.26 100.469 144.181 101.406 148.171C101.46 148.398 101.513 148.624 101.563 148.847L101.594 148.97H101.467H70.2212H70.1367V148.886C69.8218 145.094 69.521 141.484 69.2342 138.056V138.094L54.867 114.802L50.8614 108.273C50.4083 107.524 50.0588 106.948 49.8168 106.556C49.7055 106.36 49.6171 106.214 49.5557 106.111C49.5232 106.062 49.495 106.01 49.4712 105.957L69.407 137.986V138.006V138.025C69.6989 141.453 70.0049 145.063 70.3249 148.855L70.2327 148.77H101.479L101.383 148.893L101.221 148.217L98.4832 136.565C97.3592 133.529 96.2595 130.556 95.1842 127.648C94.6542 126.191 94.1332 124.755 93.6211 123.339C93.4944 122.982 93.3715 122.625 93.2371 122.271L93.1526 121.999V121.964C93.1486 121.941 93.1486 121.918 93.1526 121.895V121.86C93.0835 121.83 93.2563 121.883 93.2141 121.86C93.1963 121.856 93.178 121.856 93.1603 121.86C93.1334 121.86 93.1603 121.86 93.1603 121.86C93.1471 121.82 93.1304 121.782 93.1104 121.745C93.0335 121.584 92.9414 121.419 92.853 121.257C92.4882 120.612 92.108 119.982 91.7316 119.337C88.6861 114.345 85.752 109.709 83.0829 105.485L83.152 105.523L58.6 105.884L51.8292 105.961H50.0588C49.6747 105.98 49.4712 105.972 49.4712 105.972Z" fill="#263238"/>
<path d="M65.5128 139.257L71.358 138.873C71.9725 138.835 72.6484 138.77 73.0785 138.328C73.6085 137.775 73.3474 136.527 72.6753 136.158L65.9775 134.541" fill="#FFBF9D"/>
<path d="M65.9696 134.554C66.1444 134.57 66.3177 134.6 66.4881 134.642L67.9014 134.953L72.6904 136.074H72.7173C72.9676 136.227 73.1637 136.454 73.278 136.723C73.4013 136.99 73.4604 137.282 73.4508 137.576C73.453 137.896 73.3288 138.204 73.1052 138.432C72.8898 138.635 72.625 138.778 72.3371 138.847C71.8065 138.949 71.2681 139.004 70.7279 139.012L68.0166 139.162L66.1923 139.247C65.9687 139.265 65.7439 139.265 65.5203 139.247C65.7395 139.204 65.9615 139.177 66.1847 139.166L68.0089 139.02L70.6972 138.824C71.2258 138.811 71.7524 138.754 72.2718 138.655C72.5327 138.589 72.7721 138.457 72.9669 138.271C73.1533 138.077 73.2554 137.818 73.2511 137.549C73.2672 137.294 73.2178 137.038 73.1075 136.807C72.9973 136.576 72.83 136.376 72.6213 136.228H72.6443L67.8706 135.041L66.4727 134.657C66.3021 134.639 66.1336 134.604 65.9696 134.554Z" fill="#FF9A6C"/>
<path d="M68.2009 132.455C69.975 132.779 71.7148 133.269 73.397 133.919C73.6683 134.007 73.8971 134.193 74.039 134.441C74.1809 134.689 74.2258 134.98 74.1651 135.259C74.1587 135.399 74.1208 135.536 74.0544 135.66C73.9879 135.783 73.8945 135.891 73.7811 135.973C73.5284 136.112 73.247 136.189 72.9592 136.2C71.2771 136.361 69.6641 136.131 67.9896 135.897C66.3152 135.662 63.9956 135.897 63.0239 136.411" fill="#FFBF9D"/>
<path d="M63.0358 136.411C63.0358 136.411 63.0895 136.368 63.2009 136.311C63.3674 136.232 63.5394 136.165 63.7155 136.111C64.3669 135.925 65.0364 135.809 65.7126 135.766C66.179 135.731 66.6469 135.722 67.1143 135.739C67.6493 135.765 68.1826 135.818 68.712 135.9C69.9137 136.086 71.1293 136.167 72.345 136.142C72.6601 136.132 72.9742 136.104 73.286 136.057C73.4266 136.044 73.5621 135.998 73.6816 135.923C73.801 135.847 73.901 135.745 73.9734 135.623C74.1923 135.116 74.1193 134.429 73.6623 134.153C73.4297 134.021 73.1838 133.914 72.9288 133.834L72.1991 133.576C71.7267 133.411 71.2851 133.269 70.878 133.15C70.0638 132.904 69.3956 132.743 68.9309 132.632C68.6885 132.586 68.4487 132.527 68.2127 132.455C68.2764 132.446 68.341 132.446 68.4047 132.455C68.5315 132.455 68.712 132.501 68.9501 132.543C69.4186 132.628 70.1022 132.77 70.9164 132.997C71.3273 133.112 71.7767 133.246 72.2529 133.404L72.9902 133.653C73.2571 133.736 73.5145 133.847 73.7583 133.984C73.8889 134.071 74.0003 134.184 74.0855 134.316C74.1707 134.448 74.2279 134.597 74.2538 134.752C74.3103 135.071 74.2716 135.399 74.1424 135.696C74.0679 135.858 73.9442 135.993 73.7891 136.08C73.6417 136.161 73.4821 136.217 73.3167 136.246C72.9951 136.297 72.6706 136.328 72.345 136.338C71.1172 136.362 69.8897 136.276 68.6774 136.08C68.1546 135.994 67.6278 135.933 67.099 135.9C66.6372 135.875 66.1744 135.875 65.7126 135.9C65.0448 135.93 64.3814 136.023 63.7309 136.176C63.2777 136.303 63.0434 136.426 63.0358 136.411Z" fill="#FF9A6C"/>
<path d="M61.5069 127.613L66.1154 130.182C66.8105 130.566 67.5364 130.989 67.955 131.668C68.3736 132.348 68.339 133.373 67.667 133.807C67.1447 134.153 66.4534 134.023 65.8466 133.869C64.1279 133.433 62.4364 132.895 60.781 132.26" fill="#FFBF9D"/>
<path d="M60.781 132.26C61.0008 132.31 61.2165 132.377 61.4262 132.459C61.841 132.598 62.4362 132.801 63.1813 133.032C63.9263 133.262 64.8173 133.516 65.8159 133.765C66.3103 133.934 66.8415 133.965 67.352 133.854C67.6042 133.771 67.8164 133.597 67.9473 133.366C68.0799 133.124 68.1412 132.85 68.124 132.575C68.1043 132.298 68.0284 132.028 67.901 131.782C67.7736 131.536 67.5972 131.318 67.3828 131.142C66.975 130.799 66.5307 130.501 66.0578 130.255L63.6767 128.903L62.0791 127.974C61.8795 127.868 61.6882 127.747 61.5069 127.613C61.7189 127.693 61.9233 127.792 62.1175 127.909L63.7458 128.78L66.1461 130.094C66.6342 130.338 67.0929 130.637 67.5133 130.985C67.7364 131.18 67.9258 131.411 68.074 131.668C68.2244 131.939 68.3099 132.242 68.3237 132.552C68.3426 132.866 68.272 133.179 68.1201 133.454C67.9737 133.733 67.7287 133.948 67.4327 134.057C66.8857 134.181 66.3149 134.149 65.7851 133.965C64.7866 133.704 63.8956 133.431 63.1544 133.197C62.4132 132.963 61.8218 132.724 61.4147 132.563L60.95 132.371C60.8878 132.344 60.8307 132.306 60.781 132.26Z" fill="#FF9A6C"/>
<path d="M171.048 159.547L168.859 158.925L161.908 158.276L159.961 155.691L161.316 150.107L170.015 148.037C174.025 150.894 172.938 155.656 171.048 159.547Z" fill="#FFBF9D"/>
<path d="M150.81 145.528C149.991 145.424 149.159 145.489 148.367 145.72C147.856 145.943 147.412 146.293 147.075 146.736C146.739 147.18 146.523 147.703 146.447 148.255C146.22 150.045 146.151 151.497 146.024 153.163C146.014 153.381 146.048 153.598 146.126 153.801C146.204 154.004 146.324 154.188 146.478 154.342C147.027 154.903 148.014 154.726 148.586 154.173C149.158 153.62 149.404 152.856 149.677 152.123C149.949 151.389 150.237 149.634 150.664 149.48C151.877 149.042 153.525 151.128 154.435 150.106L156.09 146.074C153.513 145.824 153.371 145.778 150.81 145.528Z" fill="#FFBF9D"/>
<path d="M150.809 145.529H150.901H151.178L152.226 145.618L156.067 146.002H156.167L156.128 146.094L154.492 150.134C154.394 150.245 154.27 150.331 154.132 150.385C153.994 150.439 153.845 150.459 153.697 150.445C153.413 150.409 153.136 150.326 152.879 150.199C152.389 149.927 151.875 149.7 151.343 149.523L151.136 149.493H150.932C150.866 149.502 150.801 149.514 150.736 149.531C150.667 149.531 150.652 149.573 150.602 149.623C150.446 149.866 150.331 150.131 150.26 150.41C150.08 150.986 149.964 151.593 149.745 152.196C149.57 152.743 149.332 153.268 149.035 153.759C148.876 154.003 148.674 154.216 148.44 154.389C148.204 154.555 147.936 154.668 147.652 154.719C147.369 154.775 147.077 154.75 146.807 154.646C146.546 154.53 146.327 154.335 146.181 154.09C146.033 153.859 145.946 153.595 145.928 153.321C145.928 153.041 145.959 152.807 145.974 152.553C146.047 151.563 146.112 150.633 146.201 149.735C146.243 149.297 146.289 148.87 146.339 148.463C146.373 148.065 146.475 147.675 146.642 147.311C146.884 146.751 147.286 146.275 147.797 145.943C148.307 145.61 148.905 145.435 149.515 145.441C149.84 145.426 150.166 145.432 150.49 145.46L150.74 145.487L150.825 145.506C150.712 145.512 150.599 145.512 150.487 145.506C150.165 145.493 149.843 145.499 149.523 145.525C149.017 145.539 148.521 145.671 148.075 145.909C147.499 146.249 147.042 146.759 146.769 147.369C146.613 147.723 146.52 148.101 146.493 148.486C146.446 148.893 146.404 149.32 146.366 149.758C146.285 150.641 146.228 151.582 146.158 152.576C146.158 152.818 146.108 153.087 146.116 153.318C146.134 153.56 146.213 153.794 146.347 153.997C146.469 154.209 146.656 154.376 146.88 154.474C147.115 154.564 147.371 154.585 147.618 154.535C147.876 154.482 148.12 154.377 148.335 154.225C148.551 154.074 148.732 153.88 148.87 153.656C149.16 153.173 149.391 152.658 149.557 152.119C149.768 151.54 149.887 150.929 150.068 150.345C150.146 150.04 150.276 149.75 150.452 149.489C150.479 149.451 150.513 149.418 150.552 149.393C150.59 149.365 150.633 149.345 150.679 149.335C150.757 149.314 150.836 149.299 150.917 149.289H151.155L151.385 149.327C151.936 149.504 152.467 149.736 152.971 150.019C153.212 150.14 153.472 150.219 153.739 150.253C153.859 150.265 153.979 150.249 154.091 150.207C154.203 150.164 154.304 150.096 154.385 150.007L154.365 150.034C154.988 148.54 155.552 147.177 156.036 146.009L156.098 146.109C154.469 145.944 153.156 145.779 152.257 145.675L151.212 145.548L150.94 145.51C150.899 145.527 150.854 145.534 150.809 145.529Z" fill="#FF9A6C"/>
<path d="M165.484 146.039C165.484 146.039 164.62 145.77 163.456 146.623C163.456 146.623 163.018 144.702 161.486 144.318C160.372 144.046 158.955 145.186 158.955 145.186C158.955 145.186 157.995 143.266 155.433 144.065C153.317 144.729 148.87 157.871 148.49 158.751C148.052 159.761 149.849 161.024 150.84 160.007C151.831 158.989 155.372 153.094 155.372 153.094L153.048 161.282C152.987 161.55 152.996 161.829 153.075 162.092C153.325 162.925 154.965 163.901 156.121 162.334C157.565 160.379 159.032 156.358 159.032 156.358L160.449 153.286C160.449 153.286 157.803 161.466 158.767 162.211C159.731 162.956 160.96 162.668 161.839 160.748C162.719 158.828 165.921 152.74 165.921 152.74L167.458 151.942L166.897 153.862C166.897 153.862 163.986 155.398 164.639 156.742C165.292 158.086 166.67 157.702 168.018 157.065C169.366 156.427 170.542 153.267 171.26 151.969C171.905 150.816 171.966 147.387 169.205 147.256C168.912 147.246 168.62 147.296 168.348 147.405C168.075 147.513 167.828 147.677 167.623 147.886L167.485 148.024C167.485 148.024 167.016 146.312 165.484 146.039Z" fill="#FFBF9D"/>
<path d="M165.484 146.04L165.668 146.078C165.744 146.094 165.819 146.118 165.891 146.147C165.994 146.182 166.093 146.227 166.186 146.282C166.825 146.672 167.293 147.289 167.496 148.01H167.446C167.806 147.588 168.31 147.315 168.859 147.242C169.536 147.177 170.212 147.383 170.737 147.814C171.3 148.374 171.626 149.129 171.648 149.923C171.678 150.353 171.651 150.786 171.567 151.209C171.521 151.433 171.453 151.652 171.363 151.862C171.267 152.077 171.152 152.265 171.052 152.476C170.645 153.31 170.25 154.212 169.747 155.115C169.493 155.581 169.197 156.023 168.863 156.436C168.689 156.653 168.484 156.844 168.256 157.004C168.013 157.157 167.756 157.285 167.488 157.388C166.959 157.639 166.376 157.759 165.791 157.738C165.478 157.706 165.185 157.57 164.957 157.354C164.844 157.248 164.744 157.128 164.662 156.997L164.547 156.793L164.47 156.563C164.415 156.24 164.482 155.909 164.658 155.633C164.823 155.362 165.028 155.116 165.265 154.904C165.74 154.473 166.266 154.101 166.832 153.798L166.789 153.847L167.35 151.927L167.469 152.023C167.004 152.273 166.478 152.549 165.933 152.826L165.971 152.791C165.203 154.256 164.419 155.77 163.617 157.335L162.411 159.727L161.839 160.941C161.636 161.366 161.365 161.755 161.036 162.093C160.866 162.273 160.661 162.416 160.434 162.514C160.207 162.613 159.963 162.664 159.715 162.665C159.463 162.651 159.218 162.58 158.997 162.458C158.887 162.399 158.783 162.329 158.686 162.25C158.588 162.151 158.523 162.024 158.502 161.886C158.435 161.398 158.445 160.903 158.529 160.419C158.594 159.938 158.682 159.462 158.782 158.982C159.193 157.062 159.742 155.165 160.349 153.221L160.533 153.294L159.12 156.367C158.797 157.235 158.421 158.153 158.01 159.055C157.707 159.727 157.384 160.388 157.031 161.029C156.854 161.352 156.666 161.663 156.466 161.97C156.278 162.301 156.042 162.601 155.763 162.861C155.469 163.107 155.102 163.249 154.719 163.264C154.337 163.267 153.964 163.155 153.647 162.942C153.323 162.74 153.081 162.427 152.968 162.062C152.922 161.879 152.906 161.69 152.921 161.502C152.945 161.321 152.986 161.144 153.044 160.972C153.812 158.26 154.56 155.627 155.287 153.072L155.46 153.149C154.574 154.623 153.684 156.053 152.791 157.438C152.342 158.126 151.892 158.806 151.412 159.455C151.188 159.801 150.896 160.098 150.552 160.326C150.362 160.415 150.155 160.46 149.945 160.46C149.735 160.46 149.528 160.415 149.338 160.326C148.956 160.172 148.641 159.886 148.451 159.52C148.362 159.33 148.328 159.118 148.355 158.909C148.413 158.694 148.49 158.525 148.551 158.356L149.319 156.259C149.826 154.881 150.329 153.571 150.855 152.288C151.381 151.006 151.869 149.807 152.391 148.667C152.876 147.57 153.428 146.506 154.047 145.479C154.325 144.993 154.682 144.555 155.103 144.185C155.218 144.097 155.348 144.031 155.487 143.989L155.871 143.889C156.124 143.836 156.381 143.809 156.639 143.809C157.121 143.798 157.597 143.917 158.018 144.153C158.438 144.39 158.787 144.735 159.028 145.153H158.951C159.449 144.761 160.019 144.473 160.629 144.304C160.905 144.23 161.194 144.221 161.474 144.277C161.731 144.335 161.975 144.44 162.192 144.588C162.554 144.847 162.851 145.186 163.06 145.579C163.242 145.9 163.38 146.243 163.471 146.601H163.433C163.878 146.258 164.41 146.048 164.969 145.994C165.144 145.975 165.322 145.991 165.491 146.04H165.365C165.237 146.026 165.108 146.026 164.98 146.04C164.437 146.111 163.923 146.325 163.49 146.662L163.46 146.685V146.647C163.365 146.296 163.225 145.959 163.045 145.644C162.828 145.254 162.523 144.92 162.154 144.669C161.943 144.53 161.709 144.431 161.463 144.377C161.193 144.327 160.916 144.339 160.652 144.411C160.057 144.58 159.502 144.866 159.02 145.253L158.97 145.287L158.943 145.233C158.707 144.835 158.369 144.507 157.964 144.283C157.559 144.059 157.102 143.947 156.639 143.958C156.387 143.962 156.136 143.99 155.89 144.043L155.506 144.139C155.387 144.179 155.277 144.24 155.18 144.319C154.772 144.682 154.427 145.109 154.158 145.583C153.547 146.606 153 147.667 152.522 148.759C152.01 149.903 151.498 151.111 150.986 152.38C150.474 153.65 149.969 154.968 149.473 156.332C149.219 157.02 148.966 157.723 148.705 158.433C148.643 158.606 148.559 158.798 148.52 158.955C148.499 159.129 148.527 159.304 148.601 159.462C148.775 159.788 149.058 160.042 149.4 160.18C149.566 160.258 149.748 160.299 149.932 160.299C150.115 160.299 150.297 160.258 150.464 160.18C150.782 159.965 151.053 159.687 151.259 159.362C151.731 158.717 152.18 158.041 152.63 157.354C153.521 155.971 154.406 154.541 155.287 153.064L155.671 152.45L155.475 153.141C154.753 155.687 154.004 158.325 153.24 161.037C153.183 161.197 153.144 161.363 153.125 161.532C153.109 161.698 153.122 161.866 153.163 162.028C153.265 162.347 153.477 162.62 153.763 162.796C154.045 162.984 154.376 163.085 154.715 163.088C155.056 163.069 155.382 162.941 155.644 162.723C155.906 162.489 156.131 162.217 156.313 161.916C156.508 161.613 156.697 161.302 156.869 160.987C157.219 160.353 157.538 159.697 157.841 159.028C158.248 158.122 158.609 157.204 158.947 156.34L160.364 153.268L160.549 153.341C159.946 155.261 159.396 157.181 158.986 159.067C158.886 159.539 158.797 160.015 158.732 160.488C158.653 160.948 158.643 161.418 158.701 161.882C158.715 161.98 158.758 162.073 158.824 162.147C158.91 162.218 159.002 162.28 159.101 162.331C159.295 162.441 159.512 162.504 159.734 162.515C159.956 162.513 160.175 162.467 160.377 162.377C160.58 162.288 160.762 162.159 160.913 161.997C161.566 161.363 161.854 160.461 162.277 159.658L163.49 157.266C164.301 155.702 165.092 154.193 165.852 152.726V152.703H165.875L167.411 151.904L167.588 151.812L167.531 152.004L166.97 153.924V153.959H166.939C166.385 154.254 165.869 154.617 165.403 155.038C165.177 155.239 164.982 155.472 164.823 155.729C164.667 155.97 164.607 156.261 164.654 156.543C164.724 156.817 164.874 157.064 165.086 157.251C165.297 157.438 165.561 157.557 165.841 157.592C166.401 157.609 166.958 157.493 167.465 157.254C167.721 157.157 167.967 157.039 168.203 156.901C168.418 156.746 168.613 156.564 168.783 156.359C169.112 155.954 169.404 155.519 169.654 155.061C170.157 154.17 170.553 153.271 170.968 152.434C171.068 152.227 171.191 152.023 171.279 151.824C171.368 151.623 171.435 151.413 171.479 151.198C171.563 150.785 171.592 150.362 171.563 149.942C171.549 149.174 171.239 148.441 170.699 147.895C170.194 147.478 169.546 147.275 168.894 147.33C168.359 147.4 167.867 147.662 167.511 148.068L167.477 148.11V148.056C167.283 147.346 166.831 146.733 166.209 146.339C165.981 146.209 165.737 146.109 165.484 146.04Z" fill="#FF9A6C"/>
<path d="M161.881 149.281C161.943 149.281 161.693 150.475 161.148 151.842C160.883 152.53 160.622 153.141 160.43 153.582C160.341 153.828 160.223 154.063 160.08 154.281C160.308 153.422 160.604 152.582 160.963 151.769C161.228 151.09 161.455 150.468 161.609 150.014C161.677 149.762 161.768 149.516 161.881 149.281Z" fill="#FF9A6C"/>
<path d="M157.338 148.458C157.392 148.485 156.904 149.557 156.363 150.909C156.077 151.742 155.724 152.551 155.307 153.328C155.347 153.071 155.421 152.821 155.526 152.583C155.683 152.134 155.91 151.512 156.178 150.836C156.447 150.16 156.728 149.553 156.947 149.127C157.047 148.887 157.179 148.663 157.338 148.458Z" fill="#FF9A6C"/>
<path d="M118.035 47.4695C116.995 46.8672 120.212 43.5337 122.818 42.4116C126.753 40.7614 132.716 39.7547 136.304 40.8439C140.601 42.164 144.156 44.3918 146.251 48.3771C148.262 52.4315 149.158 56.948 148.849 61.4633C148.874 62.8436 148.53 64.2054 147.851 65.4073C146.919 66.8265 145.162 67.6929 145.195 69.6732C145.214 70.0313 145.161 70.3895 145.039 70.7267C144.917 71.0639 144.729 71.3734 144.486 71.6369C143.274 72.8828 141.847 71.6369 141.187 70.457C139.809 67.8909 139.71 64.8545 139.644 61.9419C139.49 59.8719 139.671 57.7905 140.181 55.7783C140.519 54.6974 141.055 53.6908 141.335 52.5934C141.506 52.0561 141.559 51.4885 141.49 50.9289C141.422 50.3694 141.234 49.8312 140.939 49.3507C140.785 49.1522 140.611 48.9698 140.42 48.8062C139.533 47.9971 138.446 47.4391 137.272 47.1897C136.098 46.9403 134.878 47.0084 133.739 47.387C130.06 48.6081 123.783 50.4151 122.192 49.1362C119.882 47.3045 119.346 46.1328 119.346 46.1328L118.035 47.4695Z" fill="#263238"/>
<circle cx="149.235" cy="132.81" r="7.77147" fill="white"/>
<path fill-rule="evenodd" clip-rule="evenodd" d="M149.083 128.66V128.391H150.716V131.411C150.927 131.081 151.168 130.834 151.44 130.669C151.712 130.504 152.015 130.421 152.349 130.421C152.873 130.421 153.29 130.631 153.601 131.051C153.912 131.471 154.067 132.035 154.067 132.744C154.067 133.532 153.889 134.163 153.533 134.638C153.176 135.112 152.703 135.35 152.113 135.35C151.843 135.35 151.59 135.296 151.357 135.189C151.123 135.082 150.909 134.922 150.716 134.708H150.664L150.557 135.293H149.874V129.515C149.874 129.124 149.841 128.891 149.777 128.814C149.713 128.737 149.509 128.687 149.164 128.664L149.083 128.66ZM152.039 130.972C151.785 130.972 151.548 131.034 151.328 131.157C151.108 131.28 150.904 131.464 150.716 131.71V134.368C150.941 134.536 151.161 134.662 151.375 134.746C151.589 134.83 151.799 134.872 152.005 134.872C152.396 134.872 152.688 134.714 152.882 134.399C153.076 134.083 153.174 133.61 153.174 132.979C153.174 132.31 153.079 131.808 152.891 131.474C152.702 131.139 152.418 130.972 152.039 130.972Z" fill="#0066FF"/>
<path fill-rule="evenodd" clip-rule="evenodd" d="M144.207 131.067V130.798H145.839V131.681C146.041 131.35 146.273 131.102 146.535 130.937C146.796 130.772 147.087 130.689 147.408 130.689C147.911 130.689 148.313 130.9 148.611 131.32C148.91 131.741 149.059 132.306 149.059 133.017C149.059 133.806 148.888 134.438 148.545 134.914C148.203 135.389 147.749 135.627 147.182 135.627C146.922 135.627 146.679 135.573 146.455 135.466C146.23 135.359 146.025 135.198 145.839 134.984L145.835 137.235H144.979L144.997 131.924C144.997 131.532 144.965 131.299 144.901 131.224C144.837 131.149 144.633 131.098 144.288 131.072L144.207 131.067ZM147.092 131.241C146.851 131.241 146.627 131.303 146.418 131.426C146.21 131.549 146.017 131.734 145.839 131.981V134.644C146.052 134.812 146.26 134.939 146.463 135.023C146.666 135.107 146.865 135.149 147.059 135.149C147.43 135.149 147.707 134.991 147.891 134.675C148.074 134.358 148.166 133.884 148.166 133.252C148.166 132.581 148.077 132.079 147.899 131.744C147.72 131.409 147.451 131.241 147.092 131.241Z" fill="#0066FF"/>
<path d="M117.705 67.3975C117.711 67.747 117.853 68.0805 118.1 68.3277C118.347 68.5749 118.68 68.7165 119.03 68.7228C119.201 68.7327 119.372 68.7085 119.533 68.6514C119.694 68.5944 119.842 68.5058 119.969 68.3907C120.095 68.2756 120.198 68.1365 120.27 67.9814C120.342 67.8263 120.382 67.6584 120.388 67.4875C120.384 67.1365 120.243 66.801 119.996 66.5521C119.748 66.3031 119.414 66.1604 119.063 66.154C118.891 66.1441 118.72 66.1686 118.558 66.2262C118.396 66.2837 118.248 66.3731 118.121 66.489C117.995 66.6049 117.892 66.745 117.821 66.9011C117.749 67.0571 117.71 67.2259 117.705 67.3975Z" fill="#263238"/>
<path d="M117.165 62.9789C117.337 63.1507 118.335 62.3817 119.783 62.3571C121.231 62.3326 122.303 63.028 122.458 62.848C122.614 62.668 122.352 62.4553 121.886 62.1281C121.251 61.7084 120.503 61.4942 119.742 61.5145C118.99 61.5257 118.262 61.778 117.664 62.2344C117.223 62.5862 117.084 62.8807 117.165 62.9789Z" fill="#263238"/>
<path d="M130.95 67.79C130.952 68.1394 131.091 68.474 131.338 68.7219C131.584 68.9697 131.918 69.111 132.267 69.1153C132.439 69.1263 132.61 69.1029 132.773 69.0464C132.935 68.9899 133.084 68.9014 133.211 68.7862C133.339 68.6711 133.442 68.5315 133.514 68.3759C133.587 68.2202 133.627 68.0516 133.633 67.88C133.629 67.529 133.489 67.1935 133.241 66.9445C132.994 66.6956 132.659 66.5528 132.308 66.5465C132.137 66.5365 131.965 66.5611 131.803 66.6186C131.642 66.6761 131.493 66.7655 131.367 66.8814C131.24 66.9974 131.138 67.1375 131.066 67.2935C130.995 67.4496 130.955 67.6184 130.95 67.79Z" fill="#263238"/>
<path d="M131.334 63.2825C131.506 63.4461 132.504 62.6771 133.952 62.6526C135.4 62.628 136.472 63.3234 136.627 63.1434C136.783 62.9635 136.529 62.7507 136.055 62.4235C135.418 62.0076 134.671 61.7938 133.911 61.8099C133.16 61.8251 132.433 62.077 131.833 62.5299C131.4 62.8816 131.253 63.2007 131.334 63.2825Z" fill="#263238"/>
<path d="M126.377 74.4888C125.61 74.2661 124.819 74.1396 124.021 74.1124C123.653 74.1124 123.301 74.0143 123.203 73.7688C123.167 73.3966 123.247 73.0225 123.432 72.6971L124.463 69.8665C125.902 65.8333 126.917 62.5037 126.77 62.4628C126.622 62.4219 125.305 65.6288 123.874 69.662C123.53 70.6601 123.203 71.6091 122.884 72.509C122.661 72.9607 122.606 73.4767 122.728 73.9652C122.782 74.0949 122.865 74.21 122.972 74.3011C123.078 74.3921 123.205 74.4565 123.342 74.4888C123.547 74.5447 123.759 74.5722 123.972 74.5706C124.774 74.6472 125.582 74.6197 126.377 74.4888Z" fill="#263238"/>
<path d="M131.293 57.4065C131.441 57.7992 132.881 57.5864 134.566 57.7501C136.251 57.9137 137.65 58.3555 137.838 58.0037C137.936 57.8319 137.691 57.4637 137.135 57.0956C136.386 56.6462 135.545 56.3722 134.675 56.2943C133.805 56.2164 132.928 56.3365 132.112 56.6456C131.539 56.9074 131.228 57.2265 131.293 57.4065Z" fill="#263238"/>
<path d="M117.664 58.1685C117.926 58.4876 118.915 58.1276 120.118 58.0867C121.321 58.0458 122.335 58.2585 122.572 57.9149C122.679 57.7431 122.507 57.4159 122.057 57.0968C121.455 56.7363 120.76 56.5625 120.06 56.5974C119.359 56.6324 118.685 56.8745 118.122 57.2931C117.705 57.6695 117.549 57.9722 117.664 58.1685Z" fill="#263238"/>
<path d="M127.076 78.2573C127.164 78.2329 127.257 78.2329 127.346 78.2573C127.404 78.2901 127.456 78.3346 127.497 78.3881C127.537 78.4416 127.567 78.5029 127.583 78.5682C127.898 79.1772 128.007 79.8718 127.894 80.548C127.821 80.8015 127.699 81.0383 127.535 81.2447C127.371 81.451 127.167 81.6229 126.937 81.7506C126.474 82.0047 125.95 82.1264 125.423 82.1023C125.121 82.0951 124.822 82.037 124.54 81.9305C124.261 81.816 123.615 81.5624 123.214 80.2944L122.936 79.4108C124.049 79.0836 125.963 78.5355 127.076 78.2573Z" fill="#EB996E"/>
<path d="M123.942 81.6211C124.141 81.8408 124.387 82.0119 124.662 82.1211C124.938 82.2303 125.234 82.2748 125.529 82.2511C126.189 82.2613 126.827 82.0183 127.313 81.572C127.609 81.296 127.841 80.9595 127.995 80.5853C128.149 80.2112 128.221 79.8083 128.205 79.4041C128.21 79.1751 128.157 78.9485 128.051 78.7454C127.945 78.5423 127.79 78.3693 127.599 78.2424C127.409 78.1616 127.205 78.12 126.998 78.12C126.791 78.12 126.587 78.1616 126.397 78.2424C125.726 78.4551 125.153 78.6596 124.654 78.8396C124.11 78.9872 123.588 79.2045 123.1 79.4859C123.658 79.4325 124.207 79.3117 124.736 79.1259L126.487 78.6187C126.773 78.5077 127.091 78.5077 127.378 78.6187C127.503 78.7143 127.603 78.8385 127.67 78.9809C127.737 79.1233 127.769 79.2796 127.763 79.4368C127.777 79.7807 127.719 80.1237 127.592 80.4437C127.465 80.7636 127.273 81.0533 127.027 81.2939C126.617 81.6927 126.076 81.9283 125.505 81.9565C124.967 81.9486 124.436 81.8346 123.942 81.6211Z" fill="#263238"/>
<path d="M146.808 58.5121C146.808 58.5121 144.616 48.7682 139.571 43.6343C129.942 33.8982 117.455 42.428 117.455 42.428C117.455 42.428 118.661 40.8195 120.672 38.809C122.682 36.7985 126.703 36.3964 126.703 36.3964C126.703 36.3964 136.907 34.594 143.592 42.0258C150.276 49.4577 151.232 58.5121 151.232 58.5121H146.808Z" fill="#DEE1EB"/>
<path d="M148.484 73.8081C148.484 73.8081 147.959 75.8402 144.946 78.1951C142.663 79.8513 140.186 81.2225 137.571 82.2782L137.223 80.7525C137.223 80.7525 141.736 78.7838 143.838 76.6251C145.939 74.4665 146.193 73.2827 146.193 73.2827L148.484 73.8081Z" fill="#DEE1EB"/>
<path d="M136.697 79.6193C135.783 79.5663 134.881 79.8452 134.157 80.4047C133.432 80.9642 132.934 81.7666 132.754 82.6642C132.583 83.9303 133.747 85.2976 136.47 84.0759C139.856 82.5566 139.122 79.7332 136.697 79.6193Z" fill="#223A7A"/>
<path d="M147.276 57.8936C153.606 56.8238 157.132 61.7615 157.404 66.7371C157.676 71.7128 154.036 75.4984 149.175 75.1312C138.337 74.2703 139.578 59.204 147.276 57.8936Z" fill="white"/>
<path d="M150.44 70.2821C151.237 70.2944 152.021 70.0849 152.706 69.6768C153.39 69.2687 153.947 68.6782 154.315 67.9715C154.738 67.2079 154.944 66.3432 154.912 65.4708C154.88 64.5983 154.61 63.7513 154.131 63.0211C154.095 62.9698 154.041 62.9345 153.979 62.9227C153.918 62.9109 153.854 62.9235 153.802 62.9578C153.776 62.975 153.753 62.9973 153.736 63.0233C153.719 63.0492 153.707 63.0784 153.701 63.1091C153.695 63.1398 153.695 63.1713 153.702 63.2019C153.708 63.2324 153.721 63.2614 153.739 63.287C154.164 63.942 154.403 64.7003 154.431 65.4807C154.459 66.2612 154.274 67.0346 153.897 67.7183C153.563 68.3706 153.048 68.9125 152.413 69.2786C151.779 69.6448 151.052 69.8196 150.32 69.782C149.638 69.7783 148.968 69.6065 148.368 69.2819C147.769 68.9572 147.259 68.4898 146.883 67.9208C146.441 67.2399 146.164 66.4655 146.074 65.6589C145.984 64.8524 146.083 64.0359 146.364 63.2744C146.623 62.5579 147.107 61.9446 147.744 61.5259C148.381 61.1072 149.135 60.9056 149.896 60.9511C149.929 60.9588 149.963 60.9595 149.996 60.9531C150.03 60.9467 150.061 60.9333 150.089 60.9139C150.116 60.8945 150.14 60.8695 150.157 60.8405C150.175 60.8115 150.186 60.7791 150.19 60.7455C150.194 60.712 150.191 60.6779 150.181 60.6456C150.171 60.6133 150.154 60.5835 150.131 60.5581C150.109 60.5327 150.082 60.5122 150.051 60.4982C150.02 60.4841 149.987 60.4766 149.953 60.4763C149.086 60.4132 148.222 60.6359 147.494 61.1104C146.766 61.5848 146.213 62.2849 145.921 63.1034C145.62 63.9346 145.515 64.8238 145.613 65.7022C145.712 66.5805 146.012 67.4242 146.49 68.1677C146.907 68.7961 147.471 69.3131 148.133 69.6739C148.795 70.0346 149.535 70.2282 150.289 70.2378L150.44 70.2821Z" fill="#818FB3"/>
<defs>
<clipPath id="clip0_45_2767">
<rect width="97.3801" height="97.3801" fill="white" transform="translate(0.87085 0.000488281)"/>
</clipPath>
</defs>
</svg>
