<svg width="206" height="207" viewBox="0 0 206 207" fill="none" xmlns="http://www.w3.org/2000/svg">
<path d="M122.105 157.296C150.928 146.805 165.789 114.935 155.299 86.1117C144.808 57.2884 112.937 42.4269 84.114 52.9178C55.2907 63.4086 40.4293 95.279 50.9201 124.102C61.4109 152.926 93.2813 167.787 122.105 157.296Z" fill="white"/>
<path d="M136.136 107.72C136.127 107.825 136.118 107.931 136.106 108.037C136.097 108.143 136.086 108.249 136.074 108.354C134.762 120.589 126.694 131.619 114.357 136.109C102.019 140.6 88.7481 137.337 79.8786 128.808C79.8019 128.735 79.7256 128.66 79.6501 128.586C79.5739 128.512 79.4981 128.437 79.4233 128.362" stroke="#FF1616" stroke-width="1.2561"/>
<path d="M126.509 81.2684C126.434 81.1929 126.359 81.1182 126.282 81.0451C126.208 80.9703 126.13 80.8957 126.054 80.8225C117.184 72.2932 103.914 69.03 91.5768 73.5203C79.2385 78.0111 71.1701 89.0409 69.8583 101.276C69.8465 101.381 69.8361 101.488 69.8261 101.594C69.8151 101.699 69.8051 101.804 69.7961 101.91" stroke="#FF1616" stroke-width="1.2561"/>
<path d="M121.019 154.415C98.4137 162.642 73.8333 154.446 60.3369 135.92L155.617 101.241C157.186 124.108 143.624 146.187 121.019 154.415ZM84.9139 55.2171C107.519 46.9895 132.1 55.1848 145.596 73.7104L50.3165 108.39C48.7474 85.5226 62.3089 63.4446 84.9139 55.2171ZM163.139 82.3431L167.053 65.9006L148.78 72.5515C148.728 70.9872 149.774 68.6146 148.971 67.62C148.128 66.5772 145.411 67.1862 143.929 66.7166C143.654 66.63 143.422 66.5063 143.252 66.3279C143.081 66.1497 142.967 65.9117 142.891 65.6335C142.483 64.1263 143.216 61.4389 142.218 60.5551C141.213 59.664 138.621 60.7236 137.081 60.495C136.802 60.4539 136.558 60.3701 136.364 60.2252C136.17 60.08 136.02 59.8695 135.902 59.6136C135.244 58.1999 135.528 55.4123 134.394 54.7004C133.256 53.9869 130.868 55.4631 129.312 55.486C129.032 55.4901 128.78 55.4477 128.566 55.3372C128.352 55.2264 128.171 55.0449 128.013 54.8147C127.132 53.5301 126.957 50.726 125.719 50.2083C124.48 49.6925 122.367 51.5387 120.835 51.8166C120.559 51.8664 120.302 51.8648 120.073 51.791C119.843 51.7167 119.635 51.5656 119.441 51.3636C118.363 50.2407 117.731 47.5051 116.424 47.1987C115.123 46.8931 113.348 49.0502 111.883 49.5829C111.615 49.6796 111.357 49.7225 111.115 49.6872C110.873 49.6504 110.64 49.5341 110.413 49.362C109.17 48.4246 108.099 45.845 106.76 45.7571C105.434 45.6716 104.044 48.0758 102.69 48.8516C102.437 48.9964 102.185 49.0846 101.935 49.0889C101.686 49.0936 101.433 49.0142 101.176 48.8778C99.8016 48.1505 98.3234 45.7997 96.9901 45.9359C95.6757 46.0703 94.7067 48.6544 93.5038 49.6528C93.2739 49.8426 93.0352 49.9754 92.7844 50.0217C92.5365 50.0686 92.2685 50.0302 91.9867 49.9349C90.5156 49.4357 88.6772 47.3765 87.3859 47.731C86.117 48.079 85.586 50.7789 84.5629 51.9633C84.3662 52.1929 84.1507 52.3639 83.9077 52.4524C83.6654 52.5406 83.3896 52.5483 83.0913 52.4989C81.5463 52.2492 79.4041 50.5223 78.2091 51.0711C76.9921 51.6296 76.9066 54.389 76.1006 55.7169C75.9467 55.9709 75.7661 56.1725 75.5467 56.2957C75.3242 56.4217 75.0567 56.4732 74.7583 56.4748C73.1945 56.4842 70.792 55.1272 69.6987 55.8691C68.5898 56.6218 68.9685 59.3729 68.3834 60.8132C68.2736 61.0834 68.13 61.3072 67.9371 61.4632C67.7426 61.6198 67.4935 61.7147 67.2065 61.7665C65.6695 62.0431 63.0602 61.0935 62.1001 62.0121C61.1305 62.94 61.9679 65.6048 61.6185 67.1208C61.5549 67.3987 61.4516 67.6377 61.2897 67.8206C61.127 68.0038 60.9026 68.1364 60.6348 68.2339C59.1698 68.7688 56.4224 68.2568 55.6235 69.3266C54.8191 70.4025 56.0929 72.9033 55.9899 74.457C55.971 74.7365 55.9081 74.9862 55.7804 75.1907C55.6516 75.3947 55.4557 75.5612 55.2118 75.7009C53.859 76.4719 51.0545 76.4164 50.4388 77.6071C49.8219 78.7992 51.4896 81.0589 51.6406 82.6102C51.6679 82.8883 51.6453 83.1437 51.5529 83.3659C51.4605 83.5881 51.2936 83.783 51.0775 83.9593C49.8698 84.9425 47.0922 85.3462 46.6782 86.624C46.2663 87.8986 48.2763 89.8503 48.6818 91.3565C48.7554 91.6287 48.7764 91.8869 48.7212 92.1228C48.6655 92.3596 48.532 92.5807 48.3446 92.7916C47.3123 93.9556 44.6452 94.8099 44.4482 96.1379C44.2522 97.4571 46.5411 99.0456 47.1967 100.462C47.3182 100.724 47.3832 100.979 47.3675 101.225C47.3518 101.472 47.2531 101.716 47.0987 101.959C46.2639 103.272 43.7923 104.551 43.8168 105.893C43.8401 107.17 46.1677 108.316 47.1326 109.549L29.0581 116.127C28.8106 116.217 28.7266 116.526 28.8943 116.73L42.4639 126.344C42.666 126.589 42.7777 126.896 42.7806 127.215L38.5651 143.176C38.5679 143.501 38.891 143.726 39.197 143.615L57.1529 137.079C57.205 138.644 56.1593 141.017 56.9619 142.011C57.8052 143.054 60.5209 142.445 62.0041 142.914C62.2787 143.001 62.5113 143.124 62.6816 143.303C62.8529 143.482 62.9667 143.72 63.0414 143.997C63.4497 145.504 62.7175 148.193 63.7153 149.076C64.7198 149.967 67.3116 148.908 68.8513 149.136C69.1304 149.177 69.3756 149.26 69.5694 149.406C69.7636 149.551 69.9133 149.762 70.0318 150.018C70.6891 151.432 70.4042 154.219 71.5389 154.931C72.6768 155.644 75.0647 154.168 76.6211 154.145C76.9007 154.141 77.1534 154.184 77.367 154.295C77.5814 154.405 77.7621 154.587 77.9196 154.816C78.8016 156.101 78.9764 158.905 80.2152 159.422C81.4522 159.939 83.5647 158.093 85.0979 157.815C85.3735 157.765 85.6311 157.765 85.8604 157.84C86.0899 157.915 86.2983 158.065 86.4924 158.267C87.57 159.391 88.2018 162.126 89.5095 162.433C90.8089 162.738 92.585 160.581 94.0508 160.049C94.3178 159.951 94.5757 159.908 94.8181 159.944C95.0597 159.98 95.2932 160.097 95.5198 160.269C96.763 161.206 97.834 163.787 99.1728 163.874C100.499 163.96 101.888 161.555 103.243 160.779C103.495 160.635 103.747 160.546 103.998 160.542C104.246 160.537 104.5 160.617 104.757 160.753C106.131 161.48 107.61 163.831 108.943 163.695C110.257 163.56 111.226 160.977 112.43 159.979C112.659 159.788 112.898 159.656 113.149 159.609C113.396 159.562 113.665 159.601 113.946 159.697C115.417 160.196 117.256 162.254 118.547 161.9C119.816 161.553 120.347 158.853 121.369 157.668C121.566 157.439 121.782 157.267 122.025 157.179C122.268 157.09 122.543 157.083 122.841 157.132C124.386 157.382 126.529 159.109 127.724 158.56C128.94 158.001 129.026 155.243 129.832 153.915C129.986 153.66 130.167 153.458 130.386 153.335C130.609 153.21 130.876 153.158 131.175 153.156C132.738 153.147 135.141 154.504 136.235 153.762C137.343 153.009 136.965 150.259 137.55 148.818C137.66 148.548 137.803 148.323 137.996 148.168C138.19 148.011 138.44 147.916 138.727 147.865C140.263 147.589 142.872 148.537 143.833 147.619C144.802 146.692 143.965 144.026 144.314 142.51C144.378 142.232 144.482 141.993 144.643 141.81C144.805 141.627 145.031 141.495 145.298 141.397C146.763 140.863 149.51 141.374 150.31 140.304C151.114 139.228 149.839 136.728 149.943 135.175C149.961 134.894 150.024 134.646 150.153 134.441C150.281 134.236 150.477 134.07 150.721 133.931C152.074 133.159 154.879 133.215 155.495 132.024C156.11 130.832 154.443 128.572 154.292 127.021C154.266 126.743 154.287 126.487 154.379 126.265C154.473 126.043 154.639 125.848 154.856 125.671C156.063 124.688 158.842 124.284 159.254 123.007C159.667 121.733 157.657 119.78 157.251 118.274C157.177 118.002 157.157 117.745 157.212 117.508C157.268 117.272 157.401 117.051 157.588 116.839C158.621 115.675 161.287 114.822 161.485 113.493C161.681 112.174 159.393 110.585 158.736 109.169C158.615 108.907 158.549 108.652 158.566 108.406C158.581 108.159 158.679 107.915 158.834 107.672C159.669 106.359 162.141 105.079 162.116 103.738C162.092 102.461 159.765 101.315 158.8 100.083L177.074 93.4312L163.506 83.3519C163.279 83.0642 163.15 82.7102 163.139 82.3431Z" fill="#FF1616"/>
<path d="M55.1875 118.689C55.091 118.797 54.8258 119.054 54.3934 119.457C54.3189 119.521 54.2031 119.625 54.0454 119.771C53.8888 119.914 53.7626 120.039 53.6658 120.147L52.9287 118.122C53.9894 116.973 54.6112 116.191 54.7938 115.778L56.933 114.999L61.7486 128.23L59.0215 129.223L55.1875 118.689Z" fill="white"/>
<path d="M67.7833 126.313C66.6192 126.736 65.6011 126.719 64.7295 126.259C63.8597 125.799 63.215 124.991 62.7949 123.837L60.6131 117.843C60.1727 116.633 60.1284 115.573 60.4817 114.663C60.8338 113.751 61.6085 113.077 62.8071 112.641C64.0049 112.205 65.0289 112.224 65.8791 112.698C66.7303 113.17 67.3762 114.011 67.8166 115.221L69.9983 121.215C70.4141 122.357 70.4345 123.389 70.0606 124.308C69.6863 125.228 68.9271 125.896 67.7833 126.313ZM66.8977 123.879C67.2352 123.757 67.4041 123.534 67.4027 123.213C67.403 122.892 67.3345 122.541 67.1961 122.16L65.0613 116.295C64.9035 115.861 64.7254 115.517 64.5291 115.262C64.3315 115.006 64.0527 114.943 63.6927 115.074C63.3327 115.205 63.158 115.43 63.1697 115.747C63.1801 116.062 63.267 116.443 63.4292 116.889L65.564 122.754C65.9091 123.702 66.3531 124.078 66.8977 123.879Z" fill="white"/>
<path d="M76.7657 123.043C75.6016 123.467 74.5836 123.449 73.712 122.989C72.8422 122.529 72.1974 121.722 71.7773 120.568L69.5955 114.573C69.1551 113.363 69.1108 112.303 69.4642 111.393C69.8163 110.482 70.5909 109.807 71.7895 109.371C72.9874 108.935 74.0113 108.955 74.8615 109.429C75.7127 109.9 76.3586 110.741 76.799 111.951L78.9808 117.946C79.3965 119.088 79.4169 120.119 79.0431 121.039C78.6687 121.959 77.9095 122.627 76.7657 123.043ZM75.8801 120.61C76.2176 120.487 76.3865 120.265 76.3851 119.944C76.3854 119.623 76.317 119.271 76.1786 118.891L74.0437 113.025C73.8859 112.592 73.7078 112.247 73.5115 111.993C73.3139 111.737 73.0351 111.673 72.6751 111.804C72.3151 111.935 72.1405 112.16 72.1521 112.477C72.1625 112.793 72.2495 113.174 72.4116 113.62L74.5464 119.485C74.8915 120.433 75.3356 120.808 75.8801 120.61Z" fill="white"/>
<path d="M82.9093 114.056C81.8089 114.456 80.9162 114.461 80.2301 114.07C79.5449 113.676 78.9831 112.875 78.5433 111.666L78.3293 111.078C77.8854 109.859 77.7976 108.899 78.0658 108.198C78.3349 107.495 79.0358 106.938 80.1684 106.525C81.3002 106.114 82.1966 106.086 82.8568 106.444C83.517 106.802 84.0672 107.585 84.5067 108.793L84.7448 109.447C85.181 110.645 85.2612 111.612 84.9857 112.349C84.7111 113.083 84.0193 113.652 82.9093 114.056ZM85.8412 104.478L87.3113 103.943L88.0767 118.648L86.5886 119.189L85.8412 104.478ZM82.2901 112.355C82.5616 112.256 82.7372 112.113 82.8167 111.925C82.8971 111.736 82.9065 111.507 82.8454 111.239C82.7838 110.972 82.6663 110.597 82.4916 110.117L82.3431 109.709C82.1648 109.219 82.0164 108.863 81.8997 108.641C81.7823 108.418 81.6397 108.271 81.4705 108.199C81.3009 108.125 81.075 108.139 80.793 108.242C80.5087 108.345 80.3258 108.48 80.2435 108.645C80.1621 108.809 80.1472 109.013 80.1986 109.26C80.2516 109.506 80.3658 109.868 80.5405 110.348L80.701 110.789C80.9543 111.485 81.1869 111.956 81.3981 112.2C81.6102 112.443 81.9076 112.494 82.2901 112.355ZM93.7495 116.6C92.6492 117 91.7595 117.004 91.0793 116.61C90.3995 116.217 89.8395 115.416 89.3997 114.208L89.1857 113.62C88.7418 112.4 88.6539 111.44 88.9221 110.739C89.1913 110.037 89.8877 109.481 91.0098 109.072C92.1416 108.66 93.038 108.633 93.6982 108.991C94.3584 109.349 94.9086 110.132 95.3481 111.34L95.5796 111.976C96.0158 113.174 96.0969 114.144 95.8227 114.884C95.5503 115.624 94.8596 116.196 93.7495 116.6ZM93.1315 114.902C93.403 114.803 93.5786 114.66 93.6581 114.472C93.7385 114.283 93.7479 114.054 93.6868 113.786C93.6252 113.519 93.5098 113.15 93.3395 112.682L93.179 112.241C93.0007 111.751 92.8534 111.398 92.739 111.182C92.6232 110.964 92.4805 110.817 92.3108 110.743C92.1411 110.669 91.9153 110.683 91.6333 110.786C91.349 110.889 91.1661 111.024 91.0838 111.189C91.0029 111.355 90.9886 111.56 91.04 111.807C91.0929 112.052 91.2071 112.415 91.3819 112.895L91.5424 113.336C91.7957 114.032 92.0283 114.503 92.2395 114.747C92.4516 114.99 92.749 115.041 93.1315 114.902Z" fill="white"/>
<path d="M97.9431 100.074L101.585 98.7481C103.033 98.2212 104.221 98.0794 105.147 98.3215C106.073 98.5646 106.774 99.3388 107.25 100.645C107.571 101.527 107.711 102.272 107.672 102.88C107.634 103.485 107.358 104.047 106.846 104.567L110.988 110.31L107.967 111.409L104.357 106.009L103.523 106.313L105.681 112.241L102.759 113.305L97.9431 100.074ZM103.727 104.333C104.315 104.119 104.669 103.815 104.79 103.419C104.912 103.024 104.859 102.516 104.633 101.893C104.415 101.295 104.142 100.887 103.816 100.668C103.491 100.447 103.061 100.433 102.527 100.627L101.579 100.972L102.91 104.63L103.727 104.333Z" fill="white"/>
<path d="M107.742 96.507L113.685 94.3438L114.412 96.3389L111.39 97.4386L112.585 100.721L114.889 99.882L115.626 101.908L113.322 102.746L114.76 106.698L117.814 105.586L118.534 107.563L112.558 109.738L107.742 96.507Z" fill="white"/>
<path d="M115.042 93.8498L120.758 91.7695L121.477 93.7467L118.684 94.7633L119.897 98.0965L122.33 97.2109L123.073 99.2511L120.64 100.136L122.78 106.017L119.858 107.08L115.042 93.8498Z" fill="white"/>
<path d="M130.839 103.304C129.847 103.665 129.003 103.791 128.309 103.681C127.616 103.569 127.039 103.243 126.577 102.702C126.115 102.161 125.708 101.407 125.355 100.438L122.031 91.3055L124.923 90.2528L128.408 99.8265C128.602 100.359 128.824 100.758 129.075 101.024C129.326 101.292 129.659 101.349 130.073 101.198C130.484 101.048 130.698 100.792 130.713 100.428C130.73 100.064 130.642 99.6165 130.448 99.0839L126.964 89.5103L129.871 88.4521L133.195 97.5848C133.547 98.5531 133.717 99.3941 133.705 100.107C133.695 100.82 133.462 101.442 133.008 101.971C132.552 102.499 131.829 102.944 130.839 103.304Z" fill="white"/>
<path d="M131.733 87.7745L133.791 87.0254L138.82 92.4117L136.5 86.0393L138.919 85.1592L143.734 98.3901L141.757 99.1097L136.552 93.2373L139.048 100.096L136.549 101.005L131.733 87.7745Z" fill="white"/>
<path d="M140.895 84.4397L144.243 83.2211C145.385 82.8056 146.33 82.6232 147.075 82.6731C147.821 82.7208 148.438 82.9992 148.925 83.5083C149.41 84.0162 149.838 84.7754 150.206 85.7872L151.954 90.5906C152.326 91.6129 152.49 92.4775 152.446 93.184C152.402 93.8914 152.114 94.5076 151.584 95.0336C151.055 95.5592 150.224 96.028 149.092 96.44L145.711 97.6706L140.895 84.4397ZM148.355 94.4148C148.779 94.2606 149.068 94.0855 149.223 93.8881C149.379 93.6887 149.442 93.462 149.411 93.2083C149.381 92.9541 149.284 92.5979 149.117 92.1397L147.018 86.3733C146.864 85.9495 146.716 85.6371 146.576 85.437C146.434 85.2353 146.242 85.1166 146.001 85.082C145.759 85.0462 145.426 85.1045 145.002 85.2588L144.561 85.4193L147.896 94.5819L148.355 94.4148Z" fill="white"/>
<path d="M62.9866 99.6263L57.7473 100.167L57.7383 100.208C58.755 100.35 59.4315 100.454 59.7679 100.519L62.6966 101.098L62.4615 102.291L56.1655 101.049L56.5239 99.2333L61.6309 98.6928L61.6353 98.6674L57.1332 96.1371L57.4906 94.3184L63.7866 95.5604L63.5428 96.8043L60.5604 96.2182C60.421 96.1899 60.2592 96.1562 60.0748 96.1163C59.8922 96.0766 59.4093 95.961 58.6241 95.7711L58.617 95.8077L63.2279 98.4037L62.9866 99.6263Z" fill="#FF1616"/>
<path d="M65.8599 90.1621L64.2666 90.0319L63.4039 92.2078L64.6533 93.2039L64.1127 94.566L58.9573 90.082L59.5706 88.5371L66.4004 88.7999L65.8599 90.1621ZM63.0857 89.9147C61.6414 89.8041 60.8256 89.7401 60.6372 89.722C60.4477 89.7052 60.301 89.6898 60.1956 89.6755C60.5073 89.9018 61.2655 90.5007 62.4697 91.4708L63.0857 89.9147Z" fill="#FF1616"/>
<path d="M69.598 83.3393L68.8104 84.6758L65.9596 84.7315L67.2939 87.2494L66.5515 88.5049L64.7818 84.9869L61.092 85.1271L61.8546 83.8336L64.5458 83.8157L63.2456 81.4756L63.9918 80.2119L65.7116 83.5646L69.598 83.3393Z" fill="#FF1616"/>
<path d="M70.4145 82.3761L65.3135 78.4805L66.1394 77.3984L71.2404 81.294L70.4145 82.3761Z" fill="#FF1616"/>
<path d="M74.3439 77.7904L69.7237 75.2623L69.6992 75.2882C70.4519 75.9817 70.948 76.451 71.1871 76.6969L73.2676 78.8379L72.3969 79.6848L67.9231 75.0853L69.2503 73.7936L73.7606 76.2529L73.7783 76.2363L71.5142 71.5935L72.8415 70.3018L77.3152 74.9014L76.4072 75.7857L74.2892 73.6074C74.1888 73.5064 74.0739 73.3868 73.9452 73.2502C73.8174 73.1115 73.4853 72.7405 72.9492 72.1381L72.9217 72.1651L75.2403 76.9205L74.3439 77.7904Z" fill="#FF1616"/>
<path d="M79.6266 65.585L81.908 69.0526C82.1696 69.4493 82.31 69.856 82.3282 70.2724C82.3473 70.6867 82.2416 71.0845 82.0113 71.4648C81.782 71.843 81.4375 72.1824 80.9786 72.4828C80.2896 72.9374 79.6391 73.113 79.0265 73.0098C78.4131 72.9069 77.9047 72.5483 77.5003 71.9345L75.2273 68.4807L76.3594 67.7357L78.5186 71.0168C78.792 71.432 79.0745 71.6809 79.3682 71.7642C79.6611 71.8479 80 71.7636 80.3834 71.5103C80.7565 71.2657 80.9611 70.9925 80.9983 70.6885C81.0364 70.3824 80.9197 70.0222 80.6485 69.6062L78.4915 66.3311L79.6266 65.585Z" fill="#FF1616"/>
<path d="M87.2089 69.0039L83.8548 64.9414L83.8199 64.9575C84.2631 65.8834 84.5505 66.5051 84.6818 66.8216L85.8218 69.5802L84.6992 70.0431L82.2454 64.1137L83.9553 63.4064L87.2376 67.3558L87.2616 67.3471L86.8725 62.1985L88.5853 61.4902L91.039 67.4196L89.8665 67.9041L88.705 65.0957C88.6504 64.9644 88.5887 64.811 88.5208 64.6361C88.4524 64.4623 88.2805 63.9948 88.0037 63.2342L87.9688 63.2503L88.3634 68.5259L87.2089 69.0039Z" fill="#FF1616"/>
<path d="M99.2403 63.9864C99.3282 64.5592 99.1911 65.0414 98.8294 65.4339C98.4689 65.825 97.9206 66.0781 97.1856 66.1919C96.5097 66.2952 95.8901 66.2591 95.3282 66.083L95.1375 64.8308C95.596 64.9586 95.9795 65.0391 96.2884 65.071C96.596 65.1017 96.8734 65.0985 97.1204 65.0604C97.4146 65.017 97.6323 64.9267 97.7725 64.7891C97.9129 64.6522 97.9648 64.4727 97.9294 64.2495C97.9119 64.1267 97.8604 64.0223 97.7744 63.9356C97.6902 63.849 97.575 63.7703 97.4276 63.7016C97.2803 63.6329 96.9839 63.5327 96.5397 63.3996C96.1232 63.2777 95.8056 63.147 95.5857 63.0096C95.3667 62.8701 95.1832 62.6974 95.0342 62.4934C94.8847 62.2879 94.7861 62.0358 94.7389 61.7379C94.6546 61.1774 94.7769 60.7081 95.1064 60.33C95.4369 59.9498 95.9373 59.7073 96.6087 59.6031C96.9388 59.5535 97.2603 59.5452 97.5715 59.5788C97.8837 59.6105 98.2142 59.6711 98.5623 59.7619L98.2907 60.8732C97.9314 60.7891 97.6363 60.7368 97.4047 60.7166C97.174 60.6944 96.9535 60.6999 96.7416 60.7338C96.4856 60.7726 96.2986 60.861 96.1792 60.9996C96.0607 61.1362 96.0167 61.3 96.0462 61.4931C96.0638 61.6115 96.1085 61.7108 96.1786 61.7915C96.2482 61.8706 96.3491 61.9426 96.4814 62.0074C96.6132 62.0707 96.9193 62.1742 97.4 62.3187C98.0365 62.5134 98.4873 62.7366 98.7515 62.9887C99.0144 63.2396 99.178 63.5725 99.2403 63.9864Z" fill="#FF1616"/>
<path d="M104.965 65.5782L104.485 64.0541L102.144 64.0736L101.692 65.604L100.226 65.6178L102.439 59.1518L104.102 59.1377L106.428 65.5655L104.965 65.5782ZM104.148 62.9159C103.709 61.5359 103.461 60.7553 103.405 60.5738C103.347 60.3933 103.307 60.2507 103.283 60.1459C103.19 60.5218 102.922 61.4496 102.475 62.9303L104.148 62.9159Z" fill="#FF1616"/>
<path d="M112.115 59.9017L113.475 60.0998L110.388 66.1332L108.917 65.9208L107.694 59.2549L109.054 59.453L109.694 63.4059C109.727 63.6411 109.757 63.912 109.786 64.2185C109.813 64.5253 109.827 64.7378 109.827 64.8557C109.899 64.5934 110.076 64.1434 110.358 63.5039L112.115 59.9017Z" fill="#FF1616"/>
<path d="M113.753 66.8343L115.422 60.6377L116.737 60.9916L115.068 67.1882L113.753 66.8343Z" fill="#FF1616"/>
<path d="M122.269 69.9057L120.678 69.2382L119.976 63.68L119.944 63.6648C119.663 64.4761 119.452 65.0498 119.31 65.387L118.143 68.1732L117.021 67.7049L119.501 61.7871L121.085 62.4508L121.798 67.9571L121.826 67.9675C122.108 67.1826 122.316 66.6312 122.45 66.3132L123.623 63.5147L124.75 63.9879L122.269 69.9057Z" fill="#FF1616"/>
<path d="M127.918 69.0903L130.064 70.4669L128.266 73.2683C127.844 73.1589 127.464 73.0287 127.129 72.8772C126.793 72.7276 126.466 72.5494 126.146 72.3445C125.331 71.8209 124.861 71.1823 124.739 70.4276C124.615 69.6732 124.843 68.8464 125.419 67.9476C125.979 67.0763 126.664 66.5569 127.476 66.3905C128.286 66.2229 129.133 66.4218 130.017 66.9877C130.573 67.3452 131.037 67.7989 131.41 68.3495L130.441 69.0214C130.173 68.5704 129.825 68.2095 129.397 67.9369C128.904 67.6206 128.401 67.5333 127.888 67.6741C127.377 67.8151 126.943 68.166 126.583 68.7268C126.206 69.3144 126.038 69.8401 126.08 70.3031C126.121 70.7656 126.372 71.143 126.832 71.436C127.072 71.5908 127.33 71.7218 127.607 71.8299L128.332 70.7031L127.308 70.0463L127.918 69.0903Z" fill="#FF1616"/>
<path d="M133.61 75.8289C133.228 76.267 132.769 76.4748 132.234 76.4523C131.7 76.4307 131.154 76.1757 130.596 75.686C130.078 75.2355 129.706 74.7392 129.479 74.1964L130.311 73.2415C130.51 73.6733 130.698 74.0177 130.873 74.2735C131.048 74.5293 131.23 74.7392 131.419 74.904C131.641 75.0991 131.85 75.2066 132.046 75.2262C132.24 75.2454 132.413 75.1707 132.562 75.001C132.645 74.9071 132.692 74.799 132.702 74.678C132.713 74.5585 132.696 74.4193 132.652 74.2612C132.611 74.104 132.498 73.8122 132.313 73.3857C132.137 72.9903 132.031 72.6644 131.995 72.4076C131.96 72.151 131.973 71.8992 132.033 71.6531C132.094 71.405 132.223 71.1677 132.419 70.9416C132.793 70.5132 133.231 70.3046 133.733 70.3138C134.236 70.3211 134.743 70.5476 135.255 70.9934C135.507 71.2143 135.721 71.4539 135.897 71.7112C136.074 71.9702 136.241 72.2618 136.398 72.5853L135.371 73.0951C135.204 72.7633 135.054 72.5036 134.92 72.3146C134.788 72.125 134.64 71.9604 134.479 71.8196C134.285 71.6504 134.097 71.5644 133.913 71.5634C133.731 71.5618 133.577 71.6339 133.451 71.779C133.373 71.8688 133.326 71.9665 133.31 72.0717C133.294 72.1777 133.303 72.3017 133.34 72.4446C133.375 72.5856 133.493 72.8869 133.693 73.349C133.956 73.96 134.077 74.447 134.055 74.8107C134.033 75.1739 133.885 75.5133 133.61 75.8289Z" fill="#FF1616"/>
<path d="M82.1411 142.037C81.5516 142.92 80.8776 143.453 80.1203 143.636C79.365 143.82 78.5786 143.638 77.7612 143.091C76.9435 142.544 76.4738 141.886 76.3528 141.117C76.2341 140.35 76.4703 139.521 77.0626 138.633C77.6573 137.746 78.3306 137.216 79.0826 137.042C79.8341 136.866 80.6196 137.052 81.4401 137.6C82.2601 138.15 82.7292 138.804 82.8482 139.565C82.967 140.328 82.731 141.152 82.1411 142.037ZM78.2451 139.436C77.8452 140.032 77.6578 140.555 77.682 141.007C77.706 141.46 77.9443 141.837 78.3967 142.14C79.2975 142.743 80.1493 142.444 80.9518 141.244C81.7555 140.042 81.709 139.142 80.8114 138.543C80.3623 138.242 79.9211 138.167 79.4891 138.317C79.0587 138.467 78.6442 138.841 78.2451 139.436Z" fill="#FF1616"/>
<path d="M85.54 143.27L85.9449 143.449C86.3379 143.621 86.6565 143.682 86.9013 143.631C87.1456 143.581 87.3299 143.416 87.4543 143.134C87.5745 142.855 87.5651 142.615 87.4265 142.414C87.2867 142.212 87.0164 142.022 86.6151 141.846L86.2348 141.679L85.54 143.27ZM85.0971 144.284L84.1103 146.539L82.8633 145.998L85.4327 140.119L87.1459 140.868C87.9453 141.216 88.4737 141.62 88.7314 142.078C88.9878 142.535 88.9873 143.061 88.728 143.656C88.5766 144.001 88.3468 144.265 88.0387 144.45C87.7305 144.637 87.3682 144.732 86.9526 144.734C87.2619 146.442 87.4645 147.547 87.5613 148.049L86.1793 147.444L85.7605 144.576L85.0971 144.284Z" fill="#FF1616"/>
<path d="M95.8413 150.093L95.0315 144.89L94.992 144.884C94.8992 145.906 94.8284 146.587 94.7801 146.925L94.3568 149.879L93.1521 149.706L94.0643 143.353L95.8966 143.617L96.7039 148.692L96.7293 148.696L99.0228 144.066L100.855 144.33L99.9429 150.683L98.6886 150.504L99.1225 147.496C99.1409 147.355 99.166 147.193 99.1971 147.01C99.2289 146.824 99.3188 146.334 99.467 145.539L99.4275 145.533L97.0784 150.271L95.8413 150.093Z" fill="#FF1616"/>
<path d="M108.772 147.149C108.84 148.21 108.629 149.041 108.138 149.646C107.649 150.252 106.914 150.585 105.934 150.648C104.954 150.713 104.182 150.478 103.618 149.942C103.055 149.404 102.74 148.603 102.672 147.538C102.601 146.472 102.811 145.641 103.304 145.045C103.794 144.447 104.532 144.117 105.515 144.053C106.499 143.99 107.271 144.225 107.831 144.76C108.389 145.293 108.703 146.089 108.772 147.149ZM104.094 147.451C104.14 148.169 104.311 148.7 104.607 149.045C104.902 149.389 105.319 149.543 105.862 149.506C106.945 149.435 107.441 148.68 107.347 147.239C107.253 145.799 106.666 145.115 105.587 145.186C105.047 145.222 104.652 145.43 104.401 145.811C104.149 146.19 104.047 146.737 104.094 147.451Z" fill="#FF1616"/>
<path d="M117.323 148.423L115.653 148.865L111.71 144.884L111.673 144.894C111.945 145.711 112.128 146.295 112.223 146.648L112.993 149.568L111.819 149.88L110.179 143.674L111.841 143.236L115.763 147.17L115.791 147.163C115.536 146.368 115.364 145.803 115.276 145.468L114.5 142.533L115.683 142.218L117.323 148.423Z" fill="#FF1616"/>
<path d="M123.553 145.774L120.185 147.302L117.531 141.459L120.899 139.931L121.36 140.945L119.231 141.91L119.814 143.193L121.794 142.296L122.256 143.314L120.276 144.211L120.959 145.715L123.088 144.75L123.553 145.774Z" fill="#FF1616"/>
<path d="M125.568 140.212L125.255 137.268L126.486 136.47L126.825 140.92L128.182 143.015L127.05 143.75L125.715 141.688L121.776 139.52L123.014 138.719L125.568 140.212Z" fill="#FF1616"/>
<path d="M129.668 133.738L131.044 132.29C131.669 131.632 132.217 131.243 132.689 131.124C133.162 131.004 133.602 131.138 134.011 131.526C134.291 131.791 134.456 132.074 134.51 132.374C134.562 132.674 134.504 132.95 134.335 133.202L134.366 133.231C134.712 132.999 135.037 132.904 135.342 132.944C135.646 132.983 135.947 133.145 136.246 133.43C136.671 133.833 136.856 134.301 136.802 134.835C136.748 135.367 136.472 135.896 135.973 136.421L134.319 138.161L129.668 133.738ZM132.446 134.508L132.991 133.932C133.244 133.666 133.388 133.434 133.42 133.236C133.451 133.037 133.371 132.846 133.178 132.665C133.001 132.494 132.81 132.438 132.607 132.495C132.406 132.553 132.171 132.724 131.903 133.006L131.412 133.525L132.446 134.508ZM133.23 135.252L134.441 136.405L135.053 135.761C135.309 135.489 135.447 135.238 135.465 135.009C135.486 134.78 135.389 134.564 135.175 134.36C134.79 133.993 134.335 134.087 133.809 134.64L133.23 135.252Z" fill="#FF1616"/>
<path d="M141.489 129.306L139.96 128.84L138.651 130.781L139.66 132.021L138.842 133.236L134.763 127.752L135.695 126.373L142.31 128.09L141.489 129.306ZM138.834 128.472C137.446 128.056 136.662 127.819 136.482 127.762C136.301 127.705 136.161 127.657 136.059 127.617C136.317 127.908 136.93 128.655 137.898 129.859L138.834 128.472Z" fill="#FF1616"/>
<path d="M139.583 121.37C139.369 121.838 139.378 122.28 139.611 122.696C139.844 123.112 140.273 123.463 140.898 123.749C142.199 124.345 143.074 124.153 143.522 123.175C143.71 122.765 143.835 122.222 143.898 121.546L144.934 122.022C144.916 122.595 144.772 123.177 144.502 123.766C144.111 124.615 143.554 125.146 142.833 125.359C142.112 125.569 141.27 125.455 140.308 125.014C139.7 124.737 139.218 124.384 138.862 123.954C138.507 123.524 138.303 123.046 138.252 122.521C138.199 121.995 138.3 121.453 138.555 120.899C138.814 120.334 139.211 119.827 139.746 119.381L140.568 120.238C140.366 120.411 140.176 120.59 139.998 120.774C139.82 120.96 139.681 121.158 139.583 121.37Z" fill="#FF1616"/>
<path d="M147.474 114.514L147.062 116.006L144.009 116.907L144.255 117.572L146.464 118.181L146.102 119.492L139.915 117.785L140.277 116.475L143.11 117.255L142.522 116.537L140.882 114.28L141.283 112.823L143.424 115.737L147.474 114.514Z" fill="#FF1616"/>
</svg>
