<?xml version="1.0" encoding="UTF-8"?>
<svg width="40px" height="55px" viewBox="0 0 40 55" version="1.1" xmlns="http://www.w3.org/2000/svg" xmlns:xlink="http://www.w3.org/1999/xlink">
    <title>48D578B5-40EB-4BF9-932F-B37877CA756E@1x</title>
    <g id="New---Revamp-Bureaus---Mobile-&amp;-Desktop--Copy-3" stroke="none" stroke-width="1" fill="none" fill-rule="evenodd">
        <g id="Desktop" transform="translate(-895.000000, -3364.000000)">
            <g id="Credit-Factors--Copy" transform="translate(871.000000, 3338.000000)">
                <g id="Group-16" transform="translate(24.000000, 24.000000)">
                    <g id="Group-6" transform="translate(0.000000, 2.000000)">
                        <g id="Group-3" fill="#FFFFFF" opacity="0">
                            <polygon id="Rectangle" points="0 0 40 0 40 55 4.72955008e-13 55"></polygon>
                        </g>
                        <g id="Group-2" transform="translate(6.000000, 11.000000)">
                            <g id="Group-9" stroke="#052F5F" stroke-width="1.31657506">
                                <g id="payment-history-">
                                    <rect id="Rectangle" x="0.658287532" y="0.658287532" width="21.6834249" height="28.6834249" rx="5.26630026"></rect>
                                    <rect id="Rectangle" fill="#F7F7FF" x="5.65828753" y="6.65828753" width="12.6834249" height="1"></rect>
                                    <rect id="Rectangle-Copy-5" fill="#F7F7FF" x="5.65828753" y="12.6582875" width="8.68342494" height="1"></rect>
                                </g>
                            </g>
                            <g id="noun_History_576599" transform="translate(8.000032, 11.999965)">
                                <ellipse id="Oval" fill="#FFFFFF" cx="11.490637" cy="11.419639" rx="9.83063444" ry="9.43244649"></ellipse>
                                <ellipse id="Oval" fill="#FFE0B5" transform="translate(11.999968, 12.000035) rotate(44.000000) translate(-11.999968, -12.000035) " cx="11.9999676" cy="12.0000355" rx="8.48520117" ry="8.48794886"></ellipse>
                                <g id="noun_Rupee_1698758" transform="translate(7.999968, 9.000035)" fill="#052F5F" fill-rule="nonzero">
                                    <g id="Group">
                                        <path d="M5.5,1.99998926 C5.77614358,1.99998926 6,2.22384569 6,2.49998658 C6,2.77612747 5.77614358,2.9999839 5.5,2.9999839 L4.46000827,2.9999839 C4.31852133,4.22369871 3.22685385,5.11123324 2.00002147,4.99997316 L4.80000644,7.09996189 C4.90609247,7.17952641 4.9762266,7.29797468 4.99498014,7.42924944 C5.01373368,7.5605242 4.97957042,7.6938721 4.9000059,7.79995813 C4.80557922,7.92586038 4.65738586,7.99995706 4.5,7.99995706 C4.39182353,7.99995706 4.28655728,7.96486831 4.20000966,7.89995759 L0.200031134,4.8999737 C0.0278598947,4.77084527 -0.0423662374,4.54603278 0.0256904205,4.34186281 C0.0937470784,4.13769284 0.284815475,3.99997853 0.500029523,3.99997853 L2.00002147,3.99997853 C2.9450164,3.99997853 3.32001439,3.52498108 3.44501371,2.9999839 L0.500029523,2.9999839 C0.223888631,2.9999839 0,2.77612747 0,2.49998658 C0,2.22384569 0.223888631,1.99998926 0.500029523,1.99998926 L3.44501371,1.99998926 C3.32001439,1.47499208 2.9450164,1 1.9950215,1 L0.500029523,1 C0.223888631,1 0,0.776138209 0,0.5 C0,0.223856423 0.223888631,0 0.500029523,0 L5.5,0 C5.77614358,0 6,0.223856423 6,0.5 C6,0.776138209 5.77614358,1 5.5,1 L4.07501033,1 C4.27204625,1.30264081 4.40321862,1.64334827 4.46000827,1.99998926 L5.5,1.99998926 Z" id="Shape"></path>
                                    </g>
                                </g>
                                <g id="Group" transform="translate(1.183004, 1.745137)" fill="#052F5F" fill-rule="nonzero">
                                    <g transform="translate(9.990579, 10.077365) rotate(-2.000000) translate(-9.990579, -10.077365) translate(0.334259, 0.331064)" id="Path">
                                        <path d="M9.65632026,19.4926023 C4.33206668,19.4926023 0,15.1201679 0,9.74630113 C0,4.37243434 4.33206668,0 9.65632026,0 C9.98946331,0 10.2598403,0.272896432 10.2598403,0.609143821 C10.2598403,0.94539121 9.98946331,1.21828764 9.65632026,1.21828764 C4.99714573,1.21828764 1.20704003,5.04371083 1.20704003,9.74630113 C1.20704003,14.4488914 4.99714573,18.2743146 9.65632026,18.2743146 C14.3154948,18.2743146 18.1056005,14.4488914 18.1056005,9.74630113 C18.1056005,9.41005374 18.3753739,9.13715731 18.7091205,9.13715731 C19.0428671,9.13715731 19.3126405,9.41005374 19.3126405,9.74630113 C19.3126405,15.1201679 14.9805738,19.4926023 9.65632026,19.4926023 Z"></path>
                                        <path d="M17.2513416,7.58189772 C17.171324,7.27845672 17.3562354,6.96317942 17.6603385,6.88255703 L17.6603385,6.88255703 C17.9707709,6.79619805 18.2808192,6.97903096 18.3665833,7.28246369 L18.3665833,7.28246369 C18.4465927,7.59163218 18.2622641,7.90118117 17.9575782,7.98753187 L17.9575782,7.98753187 C17.9058435,7.99906129 17.8598635,8.00485495 17.8081452,8.00492999 L17.8081452,8.00492999 C17.5553002,8.00529335 17.3199316,7.83953537 17.2513416,7.58189772 Z" transform="translate(17.808979, 7.433025) rotate(-9.000000) translate(-17.808979, -7.433025) "></path>
                                        <path d="M16.4468333,5.65118444 L16.4525798,5.65117617 C16.2920707,5.3764884 16.3845128,5.02697936 16.6605725,4.86621268 L16.6605725,4.86621268 C16.9366323,4.70544601 17.2870285,4.80230872 17.446963,5.07699731 L17.446963,5.07699731 C17.6023085,5.34596503 17.5092835,5.70120239 17.2338066,5.85624075 L17.2338066,5.85624075 C17.1417894,5.90792047 17.0440584,5.93669853 16.9463683,5.93685039 L16.9463683,5.93685039 C16.7504134,5.93712121 16.5557549,5.83430686 16.4468333,5.65118444 Z" transform="translate(16.947904, 5.362601) rotate(-9.000000) translate(-16.947904, -5.362601) "></path>
                                        <path d="M15.1706859,3.98967538 C14.9468919,3.76662598 14.9474068,3.40579431 15.1718381,3.18209973 L15.1718381,3.18209973 C15.3968441,2.95840432 15.7588722,2.9578832 15.9820915,3.18093342 L15.9820915,3.18093342 C15.9820915,3.18093342 15.9820915,3.18093342 15.987838,3.18092515 L15.987838,3.18092515 C16.2064601,3.40398199 16.2059452,3.76481366 15.9815139,3.98850824 L15.9815139,3.98850824 C15.872742,4.10321432 15.7226854,4.15497759 15.5790235,4.15519119 L15.5790235,4.15519119 C15.429615,4.15539944 15.2802802,4.10406713 15.1706859,3.98967538 Z" transform="translate(15.577004, 3.584589) rotate(-9.000000) translate(-15.577004, -3.584589) "></path>
                                        <path d="M13.5050627,2.71196821 C13.2294524,2.5577231 13.1374407,2.20275209 13.2993009,1.93332777 L13.2993009,1.93332777 C13.454848,1.65818507 13.8055139,1.5660407 14.0811242,1.72028581 L14.0811242,1.72028581 L14.0811242,1.72028581 L14.0811242,1.72028581 C14.3561517,1.88025923 14.4481715,2.22950275 14.2926243,2.50464546 L14.2926243,2.50464546 C14.1831797,2.6880822 13.9928242,2.79145076 13.7922722,2.79174273 L13.7922722,2.79174273 C13.694582,2.79188006 13.5969328,2.76338324 13.5050627,2.71196821 Z" transform="translate(13.793760, 2.218768) rotate(-9.000000) translate(-13.793760, -2.218768) "></path>
                                        <path d="M11.5688821,1.91544933 L11.5688821,1.91544933 C11.2644413,1.82997543 11.0810035,1.51522834 11.1618873,1.21155574 L11.1618873,1.21155574 C11.2427711,0.907883128 11.5585142,0.724149432 11.8635378,0.803895023 L11.8635378,0.803895023 C11.8635378,0.803895023 11.8635378,0.803895023 11.8692843,0.803886751 L11.8692843,0.803886751 C12.173725,0.889360655 12.3519992,1.1983877 12.2705326,1.50778862 L12.2705326,1.50778862 C12.2012153,1.7598973 11.971111,1.93205278 11.718266,1.93241879 L11.718266,1.93241879 C11.6665477,1.93249117 11.6148376,1.92683813 11.5688821,1.91544933 Z" transform="translate(11.716511, 1.358840) rotate(-9.000000) translate(-11.716511, -1.358840) "></path>
                                    </g>
                                </g>
                            </g>
                        </g>
                    </g>
                </g>
            </g>
        </g>
    </g>
</svg>