<?xml version="1.0" encoding="UTF-8"?>
<svg width="67px" height="67px" viewBox="0 0 67 67" version="1.1" xmlns="http://www.w3.org/2000/svg" xmlns:xlink="http://www.w3.org/1999/xlink">
    <title>88376755-2282-4742-9736-637CBA9CB453@1x</title>
    <defs>
        <linearGradient x1="50%" y1="0%" x2="50%" y2="100%" id="linearGradient-1">
            <stop stop-color="#C8D2FF" offset="1.03256119%"></stop>
            <stop stop-color="#FFFFFF" offset="100%"></stop>
        </linearGradient>
    </defs>
    <g id="Final_02" stroke="none" stroke-width="1" fill="none" fill-rule="evenodd">
        <g id="Desktop---Manage-My-Plan" transform="translate(-392.000000, -737.000000)">
            <g id="Group-26" transform="translate(376.000000, 713.000000)">
                <g id="Better-insurance-plan" transform="translate(16.000000, 24.000000)">
                    <rect id="Rectangle" fill="#FFFFFF" fill-rule="nonzero" x="0" y="0" width="67" height="67"></rect>
                    <circle id="Oval" fill="url(#linearGradient-1)" fill-rule="nonzero" cx="29" cy="42" r="23"></circle>
                    <path d="M23.45,14.911587 L48.70431,14.911587 C50.09188,14.911587 51.21681,16.0364667 51.21681,17.42402 L51.21681,53.793965 L30.15,53.793965 C25.06202,53.793965 20.9375,49.6692775 20.9375,44.581465 L20.9375,17.42402 C20.9375,16.0364667 22.06243,14.911587 23.45,14.911587 Z" id="Path" stroke="#5557FF" stroke-width="1.68" fill="#FFFFFF" fill-rule="nonzero"></path>
                    <g id="noun-credit-score-2674497-(1)" transform="translate(25.000000, 17.500000)">
                        <path d="M8.69464558,10.5687523 C7.93777377,11.0228805 7.70221873,11.9928455 8.167986,12.7377194 C8.63697467,13.4880872 9.62582656,13.7230825 10.3828555,13.2687995 L10.8800511,12.8061985 L16.7009634,7.32710176 L9.13813805,10.3885016 L8.69464558,10.5687523 Z" id="Path" fill="#5557FF" fill-rule="nonzero" transform="translate(12.314950, 10.413551) rotate(4.000000) translate(-12.314950, -10.413551) "></path>
                        <path d="M19.3447023,5.28271235 C18.8871064,5.30870652 18.5065098,5.60340703 18.3590325,6.01067933 C16.5681699,3.98934839 13.9327506,2.71095698 11.0000982,2.71095698 C5.61250346,2.71095698 1.22982831,7.02668384 1.22982831,12.332842 C1.22982831,12.6665322 0.95483076,12.9373532 0.613833805,12.9373532 C0.274997545,12.9373532 0,12.6665322 0,12.332842 C0,6.35969028 4.93463451,1.5 10.9999018,1.5 C14.3351506,1.5 17.3272024,2.96897206 19.3445059,5.2828671 L19.3447023,5.28271235 Z" id="Path" fill="#5557FF" fill-rule="nonzero"></path>
                        <g id="Star-1" transform="translate(13.500000, 0.000000)"></g>
                        <path d="M22,12.3325711 C22,12.6662614 21.7250025,12.9370824 21.3840055,12.9370824 C21.0451692,12.9370824 20.7701717,12.6662614 20.7701717,12.3325711 C20.7701717,10.56469 20.2840153,8.90939308 19.436905,7.48603502 C19.8989795,7.47953648 20.2904581,7.197835 20.4532567,6.79915547 C21.434605,8.41986469 21.9999607,10.3112015 21.9999607,12.3328033 L22,12.3325711 Z" id="Path" fill="#5557FF" fill-rule="nonzero"></path>
                        <path d="M19.9777117,1.5459021 L20.91641,4.58358292 L20.91641,4.58358292 L24.0218567,4.58358292 C24.2979991,4.58358292 24.5218567,4.80744054 24.5218567,5.08358292 C24.5218567,5.23940363 24.4492119,5.38631656 24.3253884,5.48090961 L21.791803,7.41640382 L21.791803,7.41640382 L22.7463584,10.5054119 C22.8278872,10.7692445 22.6801006,11.0492153 22.4162679,11.130744 C22.2617343,11.1784975 22.0936465,11.1485484 21.9651161,11.05036 L19.5,9.1671791 L19.5,9.1671791 L17.0348876,11.0503587 C16.8154499,11.2179944 16.501665,11.1760005 16.3340294,10.9565627 C16.2358408,10.8280324 16.2058917,10.6599444 16.2536452,10.5054108 L17.2082003,7.41640382 L17.2082003,7.41640382 L14.6746128,5.48090974 C14.4551752,5.3132739 14.4131816,4.99948893 14.5808175,4.78005138 C14.6754105,4.65622782 14.8223235,4.58358292 14.9781443,4.58358292 L18.0835933,4.58358292 L18.0835933,4.58358292 L19.0222893,1.54590242 C19.1038182,1.28206979 19.383789,1.13428338 19.6476216,1.21581225 C19.8054151,1.26457318 19.9289507,1.38810863 19.9777117,1.5459021 Z" id="Path" stroke="#FFFFFF" stroke-width="0.5" fill="#FF66A9" fill-rule="nonzero"></path>
                    </g>
                    <path d="M28.703135,53.40235 C32.77573,53.40235 36.077155,50.100925 36.077155,46.02833 L36.077155,46.02833 C36.077155,45.3822825 36.5637425,44.7993825 37.20979,44.7993825 L57.75333,44.7993825 C58.6784325,44.7993825 59.42833,45.54928 59.42833,46.4743825 L59.42833,47.257445 C59.42833,51.3298725 56.126905,54.631465 52.05431,54.631465 L28.475,54.4375 L27.6375,52.7625 C28.037155,52.8296675 28.284385,53.40235 28.703135,53.40235 Z" id="Path" fill="#5557FF" fill-rule="nonzero"></path>
                    <circle id="Oval" fill="#FF66A9" fill-rule="nonzero" cx="26.2450725" cy="36.2801225" r="1.22900948"></circle>
                    <rect id="Rectangle" fill="#5557FF" fill-rule="nonzero" x="28.7029675" y="35.6657325" width="11.061097" height="1.22900947" rx="0.614504737"></rect>
                    <circle id="Oval" fill="#FF66A9" fill-rule="nonzero" cx="26.2450725" cy="41.425195" r="1.22900948"></circle>
                    <rect id="Rectangle" fill="#5557FF" fill-rule="nonzero" x="28.7029675" y="40.810805" width="17.2061025" height="1.22900947" rx="0.614504737"></rect>
                </g>
            </g>
        </g>
    </g>
</svg>