<?xml version="1.0" encoding="UTF-8"?>
<svg width="133px" height="50px" viewBox="0 0 133 50" version="1.1" xmlns="http://www.w3.org/2000/svg" xmlns:xlink="http://www.w3.org/1999/xlink">
    <title>0BA0D1FA-C3DE-4A13-8866-C0EB8B65A8F1@1x</title>
    <g id="Final_02" stroke="none" stroke-width="1" fill="none" fill-rule="evenodd">
        <g id="Mobile---CHR-Credit-alert" transform="translate(-17.000000, -760.000000)" fill-rule="nonzero">
            <g id="Group" transform="translate(17.000000, 761.000000)">
                <path d="M0,0 L108.533333,0 C121.493778,0 132,10.745 132,24 C132,37.255 121.493778,48 108.533333,48 L0,48" id="Path" stroke="#DEE0FF" fill-opacity="0.8" fill="#FFFFFF"></path>
                <g id="Group-103" transform="translate(19.000000, 14.000000)">
                    <g id="Group-73">
                        <path d="M0,9.133 L0,4.15 C0,1.858 1.8666,0 4.1666,0 L12.5,0 C14.8,0 16.6666,1.858 16.6666,4.158 L16.6666,9.975 C16.6666,12.267 14.8,14.125 12.5,14.125 L11.25,14.125 C10.9916,14.125 10.7416,14.25 10.5833,14.458 L9.3333,16.117 C8.7833,16.85 7.8833,16.85 7.3333,16.117 L6.0833,14.458 C5.9416,14.275 5.65,14.125 5.4166,14.125 L4.1666,14.125 C1.8666,14.125 0,12.267 0,9.975 L0,9.133 Z" id="Path" fill="#6BA6FF"></path>
                        <path d="M8.3333,8.333 C7.8666,8.333 7.4916,7.958 7.4916,7.499 C7.4916,7.041 7.8666,6.666 8.3249,6.666 C8.7833,6.666 9.1583,7.041 9.1583,7.499 C9.1583,7.958 8.7999,8.333 8.3333,8.333 Z" id="Path" fill="#FFFFFF"></path>
                        <path d="M11.6666,8.333 C11.2,8.333 10.825,7.958 10.825,7.499 C10.825,7.041 11.2,6.666 11.6583,6.666 C12.1166,6.666 12.4916,7.041 12.4916,7.499 C12.4916,7.958 12.1333,8.333 11.6666,8.333 Z" id="Path" fill="#FFFFFF"></path>
                        <path d="M5,8.333 C4.5333,8.333 4.1583,7.958 4.1583,7.499 C4.1583,7.041 4.5333,6.666 4.9916,6.666 C5.4499,6.666 5.8249,7.041 5.8249,7.499 C5.8249,7.958 5.4666,8.333 5,8.333 Z" id="Path" fill="#FFFFFF"></path>
                        <path d="M20.0526,17.681 L19.0974,16.727 C19.5879,15.978 19.8848,15.075 19.8848,14.107 C19.8848,11.475 17.7422,9.333 15.1091,9.333 C12.4759,9.333 10.3333,11.475 10.3333,14.107 C10.3333,16.739 12.4759,18.881 15.1091,18.881 C16.0771,18.881 16.9806,18.585 17.7292,18.094 L18.6844,19.049 C18.878,19.243 19.1232,19.333 19.3685,19.333 C19.6137,19.333 19.859,19.243 20.0526,19.049 C20.4269,18.675 20.4269,18.056 20.0526,17.681 Z" id="Path" fill="#19417E"></path>
                    </g>
                    <path d="M38.2278,13.333 L36.7874,13.333 L33.2913,7.635 L33.2474,7.635 C33.2604,7.827 33.2718,8.03 33.2815,8.245 C33.2946,8.46 33.3043,8.681 33.3108,8.909 C33.3206,9.137 33.3287,9.368 33.3353,9.603 L33.3353,13.333 L32.2708,13.333 L32.2708,6.194 L33.7015,6.194 L37.1927,11.854 L37.2269,11.854 C37.2203,11.687 37.2122,11.497 37.2024,11.282 C37.1927,11.067 37.1829,10.846 37.1731,10.618 C37.1666,10.387 37.1618,10.164 37.1585,9.949 L37.1585,6.194 L38.2278,6.194 L38.2278,13.333 Z M42.139,7.825 C42.6207,7.825 43.0341,7.924 43.3792,8.123 C43.7243,8.322 43.9895,8.603 44.1751,8.968 C44.3606,9.332 44.4534,9.769 44.4534,10.276 L44.4534,10.892 L40.845,10.892 C40.858,11.416 40.998,11.819 41.2649,12.103 C41.5351,12.386 41.9127,12.527 42.3978,12.527 C42.7428,12.527 43.0521,12.495 43.3255,12.43 C43.6022,12.361 43.887,12.262 44.18,12.132 L44.18,13.064 C43.9098,13.191 43.6347,13.284 43.3548,13.343 C43.0748,13.401 42.7395,13.431 42.3489,13.431 C41.8183,13.431 41.3512,13.328 40.9476,13.123 C40.5472,12.915 40.233,12.605 40.0052,12.195 C39.7806,11.785 39.6683,11.276 39.6683,10.667 C39.6683,10.062 39.7708,9.547 39.9759,9.124 C40.181,8.701 40.469,8.379 40.8401,8.157 C41.2112,7.936 41.6442,7.825 42.139,7.825 Z M42.139,8.689 C41.7776,8.689 41.4847,8.807 41.2601,9.041 C41.0387,9.275 40.9085,9.619 40.8694,10.071 L43.3304,10.071 C43.3271,9.801 43.2815,9.562 43.1937,9.354 C43.109,9.145 42.9788,8.982 42.803,8.865 C42.6305,8.748 42.4091,8.689 42.139,8.689 Z M50.1663,13.328 L49.4827,10.813 C49.4502,10.69 49.4111,10.54 49.3655,10.364 C49.32,10.188 49.2744,10.008 49.2288,9.822 C49.1832,9.633 49.1409,9.459 49.1019,9.3 C49.066,9.14 49.0384,9.017 49.0188,8.929 L48.9798,8.929 C48.9635,9.017 48.9375,9.14 48.9017,9.3 C48.8659,9.459 48.8252,9.633 48.7796,9.822 C48.734,10.011 48.6884,10.195 48.6429,10.374 C48.6006,10.553 48.5615,10.706 48.5257,10.833 L47.8079,13.328 L46.5481,13.328 L45.0345,7.923 L46.1966,7.923 L46.8997,10.608 C46.9453,10.791 46.9892,10.988 47.0315,11.199 C47.0771,11.411 47.1162,11.613 47.1487,11.805 C47.1813,11.997 47.2057,12.155 47.222,12.278 L47.261,12.278 C47.2741,12.19 47.292,12.08 47.3147,11.946 C47.3375,11.81 47.3636,11.668 47.3929,11.521 C47.4222,11.372 47.4515,11.232 47.4808,11.102 C47.5101,10.968 47.5377,10.861 47.5638,10.779 L48.3938,7.923 L49.6487,7.923 L50.4446,10.779 C50.4804,10.903 50.5195,11.059 50.5618,11.248 C50.6041,11.434 50.6416,11.621 50.6741,11.81 C50.7099,11.995 50.7327,12.15 50.7425,12.273 L50.7815,12.273 C50.7946,12.163 50.8173,12.013 50.8499,11.824 C50.8857,11.632 50.9264,11.429 50.972,11.214 C51.0175,10.996 51.0647,10.794 51.1136,10.608 L51.8313,7.923 L52.9739,7.923 L51.4505,13.328 L50.1663,13.328 Z M60.6595,13.333 L56.6165,13.333 L56.6165,6.194 L60.6595,6.194 L60.6595,7.181 L57.7884,7.181 L57.7884,9.119 L60.4788,9.119 L60.4788,10.101 L57.7884,10.101 L57.7884,12.342 L60.6595,12.342 L60.6595,13.333 Z M64.9026,7.825 C65.5114,7.825 65.985,7.983 66.3235,8.299 C66.6653,8.611 66.8362,9.114 66.8362,9.808 L66.8362,13.333 L65.6888,13.333 L65.6888,10.022 C65.6888,9.603 65.6025,9.288 65.43,9.08 C65.2575,8.868 64.9905,8.763 64.6292,8.763 C64.1051,8.763 63.7405,8.924 63.5354,9.246 C63.3336,9.568 63.2327,10.035 63.2327,10.647 L63.2327,13.333 L62.0853,13.333 L62.0853,7.928 L62.9788,7.928 L63.1399,8.66 L63.2034,8.66 C63.3206,8.471 63.4655,8.317 63.638,8.196 C63.8138,8.073 64.0091,7.98 64.2239,7.918 C64.442,7.856 64.6683,7.825 64.9026,7.825 Z M71.8753,15.73 L71.8753,13.436 C71.8753,13.305 71.8785,13.164 71.8851,13.011 C71.8948,12.858 71.9095,12.718 71.929,12.591 L71.8704,12.591 C71.7239,12.828 71.5205,13.029 71.2601,13.191 C70.9996,13.351 70.6595,13.431 70.2395,13.431 C69.6048,13.431 69.0937,13.196 68.7063,12.728 C68.319,12.256 68.1253,11.559 68.1253,10.638 C68.1253,10.026 68.2148,9.511 68.3938,9.095 C68.5729,8.678 68.8235,8.362 69.1458,8.147 C69.4713,7.933 69.8489,7.825 70.2786,7.825 C70.692,7.825 71.0273,7.907 71.2845,8.069 C71.5449,8.229 71.7532,8.426 71.9095,8.66 L71.9485,8.66 L72.0755,7.928 L73.0276,7.928 L73.0276,15.73 L71.8753,15.73 Z M70.5813,12.508 C70.9069,12.508 71.1673,12.446 71.3626,12.322 C71.5579,12.199 71.6995,12.011 71.7874,11.761 C71.8753,11.507 71.9225,11.193 71.929,10.818 L71.929,10.643 C71.929,10.031 71.8297,9.565 71.6312,9.246 C71.4326,8.927 71.0794,8.768 70.5716,8.768 C70.1419,8.768 69.8229,8.935 69.6145,9.271 C69.4062,9.603 69.3021,10.065 69.3021,10.657 C69.3021,11.256 69.4062,11.715 69.6145,12.034 C69.8261,12.35 70.1484,12.508 70.5813,12.508 Z M79.3853,7.928 L79.3853,13.333 L78.4813,13.333 L78.3255,12.605 L78.262,12.605 C78.1481,12.791 78.0032,12.946 77.8274,13.069 C77.6517,13.19 77.4563,13.279 77.2415,13.338 C77.0267,13.4 76.8004,13.431 76.5628,13.431 C76.1559,13.431 75.8076,13.362 75.5179,13.226 C75.2314,13.086 75.0117,12.871 74.8587,12.581 C74.7057,12.291 74.6292,11.917 74.6292,11.458 L74.6292,7.928 L75.7815,7.928 L75.7815,11.243 C75.7815,11.663 75.8662,11.977 76.0354,12.186 C76.208,12.394 76.4749,12.498 76.8362,12.498 C77.1845,12.498 77.4612,12.426 77.6663,12.283 C77.8714,12.14 78.0162,11.928 78.1009,11.648 C78.1888,11.368 78.2327,11.025 78.2327,10.618 L78.2327,7.928 L79.3853,7.928 Z M82.1783,7.928 L82.1783,13.333 L81.0303,13.333 L81.0303,7.928 L82.1783,7.928 Z M81.6113,5.857 C81.7873,5.857 81.9383,5.905 82.0653,5.999 C82.1963,6.093 82.2613,6.256 82.2613,6.487 C82.2613,6.715 82.1963,6.878 82.0653,6.976 C81.9383,7.07 81.7873,7.117 81.6113,7.117 C81.4293,7.117 81.2743,7.07 81.1473,6.976 C81.0243,6.878 80.9623,6.715 80.9623,6.487 C80.9623,6.256 81.0243,6.093 81.1473,5.999 C81.2743,5.905 81.4293,5.857 81.6113,5.857 Z M86.5623,7.825 C86.6543,7.825 86.7533,7.83 86.8603,7.84 C86.9683,7.85 87.0613,7.863 87.1393,7.879 L87.0313,8.953 C86.9633,8.934 86.8783,8.919 86.7773,8.909 C86.6803,8.899 86.5923,8.895 86.5143,8.895 C86.3093,8.895 86.1133,8.929 85.9283,8.997 C85.7423,9.062 85.5783,9.163 85.4353,9.3 C85.2913,9.433 85.1793,9.601 85.0983,9.803 C85.0163,10.005 84.9763,10.239 84.9763,10.506 L84.9763,13.333 L83.8233,13.333 L83.8233,7.928 L84.7223,7.928 L84.8783,8.88 L84.9323,8.88 C85.0393,8.688 85.1733,8.512 85.3323,8.353 C85.4923,8.193 85.6743,8.066 85.8793,7.972 C86.0873,7.874 86.3153,7.825 86.5623,7.825 Z M87.3243,7.928 L88.5743,7.928 L89.6833,11.014 C89.7313,11.154 89.7753,11.292 89.8143,11.429 C89.8573,11.562 89.8933,11.694 89.9223,11.824 C89.9543,11.954 89.9803,12.085 90.0003,12.215 L90.0293,12.215 C90.0623,12.046 90.1073,11.857 90.1663,11.648 C90.2283,11.437 90.2963,11.225 90.3713,11.014 L91.4363,7.928 L92.6713,7.928 L90.3523,14.075 C90.2183,14.427 90.0543,14.726 89.8583,14.974 C89.6663,15.224 89.4383,15.413 89.1753,15.54 C88.9113,15.67 88.6103,15.735 88.2713,15.735 C88.1093,15.735 87.9673,15.726 87.8473,15.706 C87.7263,15.69 87.6243,15.672 87.5393,15.652 L87.5393,14.734 C87.6073,14.751 87.6943,14.765 87.7983,14.778 C87.9023,14.791 88.0093,14.798 88.1203,14.798 C88.3253,14.798 88.5033,14.757 88.6523,14.676 C88.8023,14.594 88.9293,14.479 89.0333,14.329 C89.1373,14.183 89.2243,14.015 89.2923,13.826 L89.4823,13.318 L87.3243,7.928 Z" id="Shape" fill="#052F5F"></path>
                </g>
            </g>
        </g>
    </g>
</svg>