<?xml version="1.0" encoding="UTF-8"?>
<svg width="36px" height="36px" viewBox="0 0 36 36" version="1.1" xmlns="http://www.w3.org/2000/svg" xmlns:xlink="http://www.w3.org/1999/xlink">
    <title>A51E0563-6DAC-4F87-8BFD-EB0F89B2362F@1x</title>
    <g id="Credit-Alerts" stroke="none" stroke-width="1" fill="none" fill-rule="evenodd">
        <g id="Desktop---credit-alerts-page" transform="translate(-435.000000, -762.000000)">
            <g id="Group-3" transform="translate(435.000000, 762.000000)">
                <rect id="Rectangle" fill="#FFFFFF" opacity="0.0599999987" x="0" y="0" width="36" height="36" rx="6"></rect>
                <g id="fi-rr-comment-alt" transform="translate(9.000000, 9.000000)" fill="#052F5F" fill-rule="nonzero">
                    <g id="late-payment">
                        <path d="M17.78025,11.4638686 C18.0730365,11.7565933 18.0730365,12.2311001 17.78025,12.5238248 L15.6855,14.6175006 L17.78025,16.7111765 C18.0644792,17.0053097 18.0604143,17.4728493 17.7711139,17.7620013 C17.4818136,18.0511533 17.0140342,18.0552161 16.71975,17.7711327 L14.625,15.6774568 L12.53025,17.7711327 C12.3419441,17.9660001 12.0630916,18.0441521 11.8008695,17.9755507 C11.5386474,17.9069493 11.3338637,17.7022706 11.2652271,17.440183 C11.1965906,17.1780953 11.2747826,16.8993858 11.46975,16.7111765 L13.5645,14.6175006 L11.46975,12.5238248 C11.1855208,12.2296915 11.1895857,11.7621519 11.4788861,11.4729999 C11.7681864,11.1838479 12.2359658,11.1797852 12.53025,11.4638686 L14.625,13.5575444 L16.71975,11.4638686 C17.0126249,11.1712322 17.4873751,11.1712322 17.78025,11.4638686 Z M9,-8.70414851e-14 C13.9705627,-8.70414851e-14 18,4.02737104 18,8.995385 C18,9.40938616 17.6642136,9.74500041 17.25,9.74500041 C16.8357864,9.74500041 16.5,9.40938616 16.5,8.995385 C16.5,4.85537337 13.1421356,1.49923083 9,1.49923083 C4.85786438,1.49923083 1.5,4.85537337 1.5,8.995385 C1.5,13.1353966 4.85786438,16.4915392 9,16.4915392 C9.41421356,16.4915392 9.75,16.8271534 9.75,17.2411546 C9.75,17.6551557 9.41421356,17.99077 9,17.99077 C4.02943725,17.99077 1.95399252e-14,13.9633989 1.95399252e-14,8.995385 C1.95399252e-14,4.02737104 4.02943725,-8.70414851e-14 9,-8.70414851e-14 Z M9,4.4976925 C9.41421356,4.4976925 9.75,4.83330675 9.75,5.24730791 L9.75,8.995385 C9.74995752,9.19417912 9.67091203,9.38481565 9.53025,9.52536309 L7.28025,11.7742093 C7.09194415,11.9690768 6.81309158,12.0472287 6.55086951,11.9786273 C6.28864743,11.910026 6.08386371,11.7053472 6.01522713,11.4432596 C5.94659055,11.181172 6.02478256,10.9024624 6.21975,10.7142531 L8.25,8.68504421 L8.25,5.24730791 C8.25,4.83330675 8.58578644,4.4976925 9,4.4976925 Z"></path>
                    </g>
                </g>
            </g>
        </g>
    </g>
</svg>