<?xml version="1.0" encoding="UTF-8"?>
<svg width="36px" height="36px" viewBox="0 0 36 36" version="1.1" xmlns="http://www.w3.org/2000/svg" xmlns:xlink="http://www.w3.org/1999/xlink">
    <title>813ABA03-0F1C-4AA8-96AA-EE8A16B2A89E@1x</title>
    <g id="Credit-Alerts" stroke="none" stroke-width="1" fill="none" fill-rule="evenodd">
        <g id="Desktop---credit-alerts-page" transform="translate(-435.000000, -498.000000)">
            <g id="Group-3" transform="translate(435.000000, 498.000000)">
                <rect id="Rectangle" fill="#FFFFFF" opacity="0.0599999987" x="0" y="0" width="36" height="36" rx="6"></rect>
                <path d="M24.6666667,8 C26.5076158,8 28,9.49238417 28,11.3333333 L28,21.3333333 C28,23.1742825 26.5076158,24.6666667 24.6666667,24.6666667 L22.25,24.6666667 L18.5358333,27.8025 C18.225112,28.0654584 17.769888,28.0654584 17.4591667,27.8025 L13.75,24.6666667 L11.3333333,24.6666667 C9.49238417,24.6666667 8,23.1742825 8,21.3333333 L8,11.3333333 C8,9.49238417 9.49238417,8 11.3333333,8 Z M24.6666667,9.66666667 L11.3333333,9.66666667 C10.4128588,9.66666667 9.66666667,10.4128588 9.66666667,11.3333333 L9.66666667,21.3333333 C9.66666667,22.2538079 10.4128588,23 11.3333333,23 L13.75,23 C14.1444969,22.9997271 14.5263016,23.1393973 14.8275,23.3941667 L18,26.075 L21.1741667,23.3941667 C21.4749276,23.1397675 21.8560761,23.0001213 22.25,23 L24.6666667,23 C25.5871412,23 26.3333333,22.2538079 26.3333333,21.3333333 L26.3333333,11.3333333 C26.3333333,10.4128588 25.5871412,9.66666667 24.6666667,9.66666667 Z M22.1666667,16.5 C22.626904,16.5 23,16.873096 23,17.3333333 C23,17.7935706 22.626904,18.1666667 22.1666667,18.1666667 L13.8333333,18.1666667 C13.373096,18.1666667 13,17.7935706 13,17.3333333 C13,16.873096 13.373096,16.5 13.8333333,16.5 Z M18,13.1666667 C18.4602373,13.1666667 18.8333333,13.5397627 18.8333333,14 C18.8333333,14.4602373 18.4602373,14.8333333 18,14.8333333 L13.8333333,14.8333333 C13.373096,14.8333333 13,14.4602373 13,14 C13,13.5397627 13.373096,13.1666667 13.8333333,13.1666667 Z" id="new-enquiry" fill="#052F5F" fill-rule="nonzero"></path>
            </g>
        </g>
    </g>
</svg>