<?xml version="1.0" encoding="UTF-8"?>
<svg width="36px" height="36px" viewBox="0 0 36 36" version="1.1" xmlns="http://www.w3.org/2000/svg" xmlns:xlink="http://www.w3.org/1999/xlink">
    <title>F16FACF1-AF0B-4882-A628-501BF61B1773@1x</title>
    <g id="Credit-Alerts" stroke="none" stroke-width="1" fill="none" fill-rule="evenodd">
        <g id="Desktop---credit-alerts-page" transform="translate(-435.000000, -586.000000)">
            <g id="Group-3" transform="translate(435.000000, 586.000000)">
                <rect id="Rectangle" fill="#FFFFFF" opacity="0.0599999987" x="0" y="0" width="36" height="36" rx="6"></rect>
                <path d="M25.427381,26.5682725 C25.8218138,26.5682725 26.1415647,26.8887756 26.1415647,27.2841362 C26.1415647,27.6794969 25.8218138,28 25.427381,28 L9.71533868,28 C9.3209059,28 9.00115494,27.6794969 9.00115494,27.2841362 C9.00115494,26.8887756 9.3209059,26.5682725 9.71533868,26.5682725 L25.427381,26.5682725 Z M19.2761164,11.2359026 L24.6324945,14.0327823 C25.1099659,14.2894629 25.5186121,14.657815 25.823753,15.1065779 C26.2045915,15.6486233 26.2469036,16.3599182 25.9330231,16.9434843 C25.5953045,17.5838247 24.9301515,17.9825859 24.2075552,17.9779074 L23.9990135,17.9779074 L23.9990135,23.7048175 L24.7131973,23.7048175 C25.10763,23.7048175 25.427381,24.0253206 25.427381,24.4206812 C25.427381,24.8160419 25.10763,25.136545 24.7131973,25.136545 L10.4295224,25.136545 C10.0350896,25.136545 9.71533868,24.8160419 9.71533868,24.4206812 C9.71533868,24.0253206 10.0350896,23.7048175 10.4295224,23.7048175 L11.1437062,23.7048175 L11.1437062,17.9779074 L10.9351645,17.9779074 C10.2118467,17.9824351 9.54623879,17.5827382 9.20898241,16.9413367 C8.89510192,16.3577706 8.93741397,15.6464757 9.31825252,15.1044303 C9.6233934,14.6556674 10.0320396,14.2873153 10.509511,14.0306347 L15.8666032,11.2359026 C16.9351908,10.6789416 18.2075289,10.6789416 19.2761164,11.2359026 Z M14.7146249,17.9779074 L12.5720736,17.9779074 L12.5720736,23.7048175 L14.7146249,23.7048175 L14.7146249,17.9779074 Z M18.9997273,17.9779074 L16.1429924,17.9779074 L16.1429924,23.7048175 L18.9997273,23.7048175 L18.9997273,17.9779074 Z M22.570646,17.9779074 L20.4280948,17.9779074 L20.4280948,23.7048175 L22.570646,23.7048175 L22.570646,17.9779074 Z M16.5272232,12.5044132 L11.1708451,15.3012929 C10.8987297,15.4503416 10.6662949,15.662701 10.4930848,15.920515 C10.415828,16.0250227 10.4085132,16.1657413 10.474516,16.277731 C10.5658677,16.4465508 10.7436022,16.5501279 10.9351645,16.5461799 L24.2075552,16.5461799 C24.3991175,16.5501279 24.576852,16.4465508 24.6682037,16.277731 C24.7349401,16.1658516 24.7281835,16.0247572 24.6510633,15.9197992 C24.5126299,15.7135799 24.3361512,15.5365524 24.1317147,15.3979222 L23.9733029,15.3012929 L18.6169248,12.5044132 C17.9618413,12.163636 17.1823067,12.163636 16.5272232,12.5044132 Z M26.5423648,7 C26.8816934,7 27.1567736,7.27571907 27.1567736,7.61583578 L27.1567736,8.84750733 L28.3855912,8.84750733 C28.7249198,8.84750733 29,9.1232264 29,9.46334311 C29,9.80345982 28.7249198,10.0791789 28.3855912,10.0791789 L27.1567736,10.0791789 L27.1567736,11.3108504 C27.1567736,11.6509671 26.8816934,11.9266862 26.5423648,11.9266862 C26.2030362,11.9266862 25.927956,11.6509671 25.927956,11.3108504 L25.927956,10.0791789 L24.6991384,10.0791789 C24.3598098,10.0791789 24.0847296,9.80345982 24.0847296,9.46334311 C24.0847296,9.1232264 24.3598098,8.84750733 24.6991384,8.84750733 L25.927956,8.84750733 L25.927956,7.61583578 C25.927956,7.27571907 26.2030362,7 26.5423648,7 Z" id="new-account-added" fill="#052F5F" fill-rule="nonzero"></path>
            </g>
        </g>
    </g>
</svg>