<?xml version="1.0" encoding="UTF-8"?>
<svg width="36px" height="36px" viewBox="0 0 36 36" version="1.1" xmlns="http://www.w3.org/2000/svg" xmlns:xlink="http://www.w3.org/1999/xlink">
    <title>D527B806-98F0-4175-8578-CD488D733CEC@1x</title>
    <g id="Credit-Alerts" stroke="none" stroke-width="1" fill="none" fill-rule="evenodd">
        <g id="Desktop---credit-alerts-page" transform="translate(-435.000000, -308.000000)">
            <g id="Group-3" transform="translate(435.000000, 308.000000)">
                <rect id="Rectangle" fill="#FFFFFF" opacity="0.0599999987" x="0" y="0" width="36" height="36" rx="6"></rect>
                <g id="noun-mobile-phone-4391662" transform="translate(11.000000, 8.000000)" fill="#052F5F" fill-rule="nonzero">
                    <path d="M11.2,1.42108547e-16 L2.8,1.42108547e-16 C2.05764,0.00078124 1.34592,0.296092 0.82108,0.82092 C0.29608,1.34592 0.00076,2.05764 0,2.8 L0,18.7728 C0.000625,19.32968 0.222032,19.86344 0.6158,20.257 C1.009392,20.650752 1.54332,20.87216 2.1,20.8728 L11.9,20.8728 C12.45672,20.872175 12.99064,20.650768 13.3842,20.257 C13.777952,19.863408 13.99936,19.32964 14,18.7728 L14,2.8 C13.9992188,2.05764 13.703908,1.34592 13.17892,0.82092 C12.65408,0.29608 11.94236,0.00076 11.2,1.42108547e-16 L11.2,1.42108547e-16 Z M2.8,1.4 L11.2,1.4 C11.571248,1.40031248 11.92704,1.547968 12.18952,1.81048 C12.452,2.072992 12.59968,2.42876 12.6,2.8 L12.6,16.0364 L1.4,16.0364 L1.4,2.8 C1.40031248,2.428752 1.547968,2.07296 1.81048,1.81048 C2.072992,1.548 2.42876,1.40032 2.8,1.4 Z M12.600016,18.7728 C12.5996875,18.958424 12.525936,19.136392 12.394688,19.26748 C12.26344,19.398728 12.085624,19.472636 11.900016,19.472792 L2.100008,19.472792 C1.914384,19.4726358 1.736572,19.398728 1.605328,19.26748 C1.47408,19.136388 1.400328,18.958416 1.400016,18.7728 L1.400016,17.4364 L12.600016,17.4364 L12.600016,18.7728 Z M6.068,3.3092 C6.068,3.061856 6.16628,2.82484 6.341124,2.65 C6.515968,2.475156 6.753004,2.377032 7.000204,2.377032 C7.247548,2.377032 7.484564,2.475312 7.659404,2.650156 C7.834248,2.824844 7.932372,3.062036 7.932372,3.309236 C7.932372,3.556424 7.834092,3.793596 7.659404,3.968436 C7.48456,4.143124 7.247364,4.241404 7.000204,4.241404 C6.753044,4.241404 6.515844,4.143124 6.341004,3.96828 C6.16616,3.793436 6.068036,3.5564 6.068036,3.3092 L6.068,3.3092 Z" id="Shape"></path>
                </g>
            </g>
        </g>
    </g>
</svg>