<?xml version="1.0" encoding="UTF-8"?>
<svg width="24px" height="24px" viewBox="0 0 24 24" version="1.1" xmlns="http://www.w3.org/2000/svg" xmlns:xlink="http://www.w3.org/1999/xlink">
    <title>90A586B8-20D4-460D-8325-811BC368716C@1x</title>
    <g id="Desktop-Copy" stroke="none" stroke-width="1" fill="none" fill-rule="evenodd">
        <g id="Desktop---Where-you-stand-pop-up" transform="translate(-708.000000, -100.000000)">
            <g id="Group-70" transform="translate(540.000000, 100.000000)">
                <g id="Group-4" transform="translate(168.000000, 0.000000)">
                    <circle id="Oval" fill="#000000" cx="12" cy="12" r="12"></circle>
                    <path d="M16.8696223,7.13037775 C16.6135217,6.87427719 16.1983006,6.87427719 15.9422001,7.13037775 L12.7071068,10.3654711 C12.3165825,10.7559953 11.6834175,10.7559953 11.2928932,10.3654711 L8.05779991,7.13037775 C7.80169935,6.87427719 7.38647831,6.87427719 7.13037775,7.13037775 C6.87427719,7.38647831 6.87427719,7.80169935 7.13037775,8.05779991 L10.3654711,11.2928932 C10.7559953,11.6834175 10.7559953,12.3165825 10.3654711,12.7071068 L7.13037775,15.9422001 C6.87427719,16.1983006 6.87427719,16.6135217 7.13037775,16.8696223 C7.38647831,17.1257228 7.80169935,17.1257228 8.05779991,16.8696223 L11.2928932,13.6345289 C11.6834175,13.2440047 12.3165825,13.2440047 12.7071068,13.6345289 L15.9422001,16.8696223 C16.1983006,17.1257228 16.6135217,17.1257228 16.8696223,16.8696223 C17.1257228,16.6135217 17.1257228,16.1983006 16.8696223,15.9422001 L13.6345289,12.7071068 C13.2440047,12.3165825 13.2440047,11.6834175 13.6345289,11.2928932 L16.8696223,8.05779991 C17.1257228,7.80169935 17.1257228,7.38647831 16.8696223,7.13037775 Z" id="Path" fill="#FFFFFF" fill-rule="nonzero"></path>
                </g>
            </g>
        </g>
    </g>
</svg>