<?xml version="1.0" encoding="UTF-8"?>
<svg width="48px" height="48px" viewBox="0 0 48 48" version="1.1" xmlns="http://www.w3.org/2000/svg" xmlns:xlink="http://www.w3.org/1999/xlink">
    <!-- Generator: Sketch 55.2 (78181) - https://sketchapp.com -->
    <title>amex</title>
    <desc>Created with Sketch.</desc>
    <g id="amex" stroke="none" stroke-width="1" fill="none" fill-rule="evenodd">
        <g id="American_Express_logo" transform="translate(1.000000, 1.000000)" fill-rule="nonzero">
            <path d="M46,24.8953229 L46,0 L0,0 L0,46 L46,46 L46,32.5790646 C45.8975501,32.5790646 46,24.8953229 46,24.8953229" id="Path" fill="#006FCF"></path>
            <path d="M40.3652561,22.6217366 L43.8485523,22.6217366 L43.8485523,14.6808511 L40.0579065,14.6808511 L40.0579065,15.786544 L39.3407572,14.6808511 L36.0623608,14.6808511 L36.0623608,16.0880966 L35.4476615,14.6808511 L29.403118,14.6808511 C29.1982183,14.6808511 28.9933185,14.7813686 28.7884187,14.7813686 C28.5835189,14.7813686 28.481069,14.8818861 28.2761693,14.9824037 C28.0712695,15.0829212 27.9688196,15.0829212 27.7639198,15.1834388 L27.7639198,14.6808511 L10.4498886,14.6808511 L9.9376392,15.9875791 L9.42538976,14.6808511 L5.32739421,14.6808511 L5.32739421,16.0880966 L4.71269488,14.6808511 L1.43429844,14.6808511 L0,18.0984474 L0,22.6217366 L2.35634744,22.6217366 L2.76614699,21.5160437 L3.5857461,21.5160437 L3.99554566,22.6217366 L22.0267261,22.6217366 L22.0267261,21.6165612 L22.7438753,22.6217366 L27.7639198,22.6217366 L27.7639198,22.0186314 C27.8663697,22.1191489 28.0712695,22.1191489 28.1737194,22.2196665 C28.2761693,22.320184 28.481069,22.320184 28.5835189,22.4207016 C28.7884187,22.5212191 28.9933185,22.5212191 29.1982183,22.5212191 L32.8864143,22.5212191 L33.2962138,21.4155262 L34.1158129,21.4155262 L34.5256125,22.5212191 L39.545657,22.5212191 L39.545657,21.5160437 L40.3652561,22.6217366 L40.3652561,22.6217366 Z M46,32.6734905 L46,25.2351926 L17.8262806,25.2351926 L17.1091314,26.240368 L16.3919822,25.2351926 L8.19599109,25.2351926 L8.19599109,33.1760782 L16.3919822,33.1760782 L17.1091314,32.1709028 L17.8262806,33.1760782 L22.9487751,33.1760782 L22.9487751,31.46728 L22.7438753,31.46728 C23.4610245,31.46728 24.0757238,31.3667625 24.5879733,31.1657274 L24.5879733,33.2765957 L28.2761693,33.2765957 L28.2761693,32.2714204 L28.9933185,33.2765957 L44.2583519,33.2765957 C44.8730512,33.0755607 45.4877506,32.9750431 46,32.6734905 L46,32.6734905 Z" id="Shape" fill="#FFFFFF"></path>
            <path d="M44.2583519,31.1395098 L41.4922049,31.1395098 L41.4922049,32.2978723 L44.155902,32.2978723 C45.2828508,32.2978723 46,31.5607326 46,30.5076757 C46,29.4546189 45.3853007,28.9280905 44.3608018,28.9280905 L43.1314031,28.9280905 C42.8240535,28.9280905 42.6191537,28.7174791 42.6191537,28.4015621 C42.6191537,28.085645 42.8240535,27.8750337 43.1314031,27.8750337 L45.4877506,27.8750337 L46,26.7166712 L43.233853,26.7166712 C42.1069042,26.7166712 41.389755,27.4538109 41.389755,28.4015621 C41.389755,29.4546189 42.0044543,29.9811473 43.0289532,29.9811473 L44.2583519,29.9811473 C44.5657016,29.9811473 44.7706013,30.1917587 44.7706013,30.5076757 C44.8730512,30.9288985 44.6681514,31.1395098 44.2583519,31.1395098 L44.2583519,31.1395098 Z M39.2383073,31.1395098 L36.4721604,31.1395098 L36.4721604,32.2978723 L39.1358575,32.2978723 C40.2628062,32.2978723 40.9799555,31.5607326 40.9799555,30.5076757 C40.9799555,29.4546189 40.3652561,28.9280905 39.3407572,28.9280905 L38.1113586,28.9280905 C37.8040089,28.9280905 37.5991091,28.7174791 37.5991091,28.4015621 C37.5991091,28.085645 37.8040089,27.8750337 38.1113586,27.8750337 L40.467706,27.8750337 L40.9799555,26.7166712 L38.2138085,26.7166712 C37.0868597,26.7166712 36.3697105,27.4538109 36.3697105,28.4015621 C36.3697105,29.4546189 36.9844098,29.9811473 38.0089087,29.9811473 L39.2383073,29.9811473 C39.545657,29.9811473 39.7505568,30.1917587 39.7505568,30.5076757 C39.8530067,30.9288985 39.545657,31.1395098 39.2383073,31.1395098 L39.2383073,31.1395098 Z M35.6525612,27.769728 L35.6525612,26.6113655 L31.3496659,26.6113655 L31.3496659,32.1925667 L35.6525612,32.1925667 L35.6525612,31.0342041 L32.5790646,31.0342041 L32.5790646,29.8758416 L35.5501114,29.8758416 L35.5501114,28.7174791 L32.5790646,28.7174791 L32.5790646,27.6644223 L35.6525612,27.6644223 L35.6525612,27.769728 L35.6525612,27.769728 Z M28.6859688,27.769728 C29.1982183,27.769728 29.403118,28.085645 29.403118,28.4015621 C29.403118,28.7174791 29.1982183,29.0333962 28.6859688,29.0333962 L27.1492205,29.0333962 L27.1492205,27.6644223 L28.6859688,27.769728 L28.6859688,27.769728 Z M27.1492205,30.1917587 L27.7639198,30.1917587 L29.403118,32.1925667 L30.9398664,32.1925667 L29.0957684,30.086453 C30.0178174,29.8758416 30.5300668,29.2440075 30.5300668,28.4015621 C30.5300668,27.3485053 29.8129176,26.6113655 28.6859688,26.6113655 L25.8173719,26.6113655 L25.8173719,32.1925667 L27.0467706,32.1925667 L27.1492205,30.1917587 Z M23.8708241,28.5068678 C23.8708241,28.9280905 23.6659243,29.2440075 23.1536748,29.2440075 L21.5144766,29.2440075 L21.5144766,27.769728 L23.0512249,27.769728 C23.5634744,27.769728 23.8708241,28.085645 23.8708241,28.5068678 L23.8708241,28.5068678 Z M20.285078,26.6113655 L20.285078,32.1925667 L21.5144766,32.1925667 L21.5144766,30.2970644 L23.1536748,30.2970644 C24.2806236,30.2970644 25.1002227,29.5599246 25.1002227,28.4015621 C25.1002227,27.3485053 24.3830735,26.5060598 23.2561247,26.5060598 L20.285078,26.6113655 L20.285078,26.6113655 Z M18.44098,32.1925667 L19.9777283,32.1925667 L17.8262806,29.3493132 L19.9777283,26.6113655 L18.44098,26.6113655 L17.1091314,28.4015621 L15.7772829,26.6113655 L14.2405345,26.6113655 L16.3919822,29.3493132 L14.2405345,32.087261 L15.7772829,32.087261 L17.1091314,30.2970644 L18.44098,32.1925667 L18.44098,32.1925667 Z M13.830735,27.769728 L13.830735,26.6113655 L9.52783964,26.6113655 L9.52783964,32.1925667 L13.830735,32.1925667 L13.830735,31.0342041 L10.7572383,31.0342041 L10.7572383,29.8758416 L13.7282851,29.8758416 L13.7282851,28.7174791 L10.7572383,28.7174791 L10.7572383,27.6644223 L13.830735,27.6644223 L13.830735,27.769728 L13.830735,27.769728 Z M38.7260579,17.8709938 L40.8775056,21.2407757 L42.4142539,21.2407757 L42.4142539,15.6595745 L41.1848552,15.6595745 L41.1848552,19.3452734 L40.8775056,18.818745 L38.9309577,15.6595745 L37.2917595,15.6595745 L37.2917595,21.2407757 L38.5211581,21.2407757 L38.5211581,17.4497711 L38.7260579,17.8709938 L38.7260579,17.8709938 Z M33.3986637,17.7656881 L33.8084633,16.6073256 L34.2182628,17.7656881 L34.7305122,19.0293563 L32.8864143,19.0293563 L33.3986637,17.7656881 Z M35.5501114,21.2407757 L36.8819599,21.2407757 L34.5256125,15.6595745 L32.8864143,15.6595745 L30.5300668,21.2407757 L31.8619154,21.2407757 L32.3741648,20.0824131 L35.0378619,20.0824131 L35.5501114,21.2407757 Z M29.8129176,21.2407757 L30.325167,20.0824131 L30.0178174,20.0824131 C29.0957684,20.0824131 28.5835189,19.450579 28.5835189,18.5028279 L28.5835189,18.3975222 C28.5835189,17.4497711 29.0957684,16.817937 30.0178174,16.817937 L31.3496659,16.817937 L31.3496659,15.6595745 L29.9153675,15.6595745 C28.2761693,15.6595745 27.3541203,16.817937 27.3541203,18.3975222 L27.3541203,18.5028279 C27.3541203,20.1877188 28.2761693,21.2407757 29.8129176,21.2407757 Z M25.2026726,21.2407757 L26.4320713,21.2407757 L26.4320713,15.7648802 L25.2026726,15.7648802 L25.2026726,21.2407757 Z M22.5389755,16.817937 C23.0512249,16.817937 23.2561247,17.133854 23.2561247,17.4497711 C23.2561247,17.7656881 23.0512249,18.0816052 22.5389755,18.0816052 L21.0022272,18.0816052 L21.0022272,16.7126313 L22.5389755,16.817937 L22.5389755,16.817937 Z M21.0022272,19.2399677 L21.6169265,19.2399677 L23.2561247,21.2407757 L24.7928731,21.2407757 L22.9487751,19.134662 C23.8708241,18.9240506 24.3830735,18.2922165 24.3830735,17.4497711 C24.3830735,16.3967142 23.6659243,15.6595745 22.5389755,15.6595745 L19.6703786,15.6595745 L19.6703786,21.2407757 L20.8997773,21.2407757 L21.0022272,19.2399677 Z M18.7483296,16.817937 L18.7483296,15.6595745 L14.4454343,15.6595745 L14.4454343,21.2407757 L18.7483296,21.2407757 L18.7483296,20.0824131 L15.674833,20.0824131 L15.674833,18.9240506 L18.6458797,18.9240506 L18.6458797,17.7656881 L15.674833,17.7656881 L15.674833,16.7126313 L18.7483296,16.7126313 L18.7483296,16.817937 L18.7483296,16.817937 Z M9.42538976,21.2407757 L10.5523385,21.2407757 L12.0890869,16.7126313 L12.0890869,21.2407757 L13.3184855,21.2407757 L13.3184855,15.6595745 L11.2694878,15.6595745 L10.0400891,19.450579 L8.81069042,15.6595745 L6.76169265,15.6595745 L6.76169265,21.2407757 L7.99109131,21.2407757 L7.99109131,16.7126313 L9.42538976,21.2407757 Z M2.76614699,17.7656881 L3.17594655,16.6073256 L3.5857461,17.7656881 L4.09799555,19.0293563 L2.25389755,19.0293563 L2.76614699,17.7656881 L2.76614699,17.7656881 Z M4.91759465,21.2407757 L6.24944321,21.2407757 L3.89309577,15.6595745 L2.35634744,15.6595745 L0,21.2407757 L1.33184855,21.2407757 L1.844098,20.0824131 L4.5077951,20.0824131 L4.91759465,21.2407757 Z" id="Shape" fill="#006FCF"></path>
        </g>
    </g>
</svg>