<?xml version="1.0" encoding="UTF-8"?>
<svg width="48px" height="48px" viewBox="0 0 48 48" version="1.1" xmlns="http://www.w3.org/2000/svg" xmlns:xlink="http://www.w3.org/1999/xlink">
    <!-- Generator: Sketch 55.2 (78181) - https://sketchapp.com -->
    <title>centra bank</title>
    <desc>Created with Sketch.</desc>
    <g id="centra-bank" stroke="none" stroke-width="1" fill="none" fill-rule="evenodd">
        <g id="Central_Bank_of_India" transform="translate(1.000000, 1.000000)">
            <g id="g4871" transform="translate(22.828358, 23.000000) scale(-1, 1) rotate(-180.000000) translate(-22.828358, -23.000000) ">
                <g id="g4873-Clipped" transform="translate(0.000000, 0.000000)">
                    <g id="g4873" transform="translate(0.241818, 0.294964)">
                        <polygon id="path5579" fill="#176FC1" points="0.0766816291 0.0313305424 45.2545933 0.0313305424 45.2545933 45.5478839 0.0766816291 45.5478839 0.0766816291 0.0313305424"></polygon>
                        <polygon id="path5593" fill="#FFFFFF" points="4.2825639 4.26843076 41.0552827 4.26843076 41.0552827 41.3099553 4.2825639 41.3099553 4.2825639 4.26843076"></polygon>
                        <g id="g5595" transform="translate(8.076815, 7.652161)" fill="#CE0F3E">
                            <path d="M26.764942,15.3803305 L19.4917229,22.5147135 L17.7461175,22.500645 L14.8422515,22.500645 L14.8422515,23.3513753 L17.7461175,23.3728918 L19.5286887,23.396891 L27.329286,15.458121 L26.764942,15.3803305 Z M24.3868113,15.3348148 L19.4917229,20.0899667 L17.7461175,20.0899667 L14.8488232,20.0758982 L14.8471803,20.9315938 L17.7461175,20.9572481 L19.5303316,20.9771095 L24.9503338,15.4175706 L24.3868113,15.3348148 Z M17.7461175,4.8347508 L15.0624032,2.16835688 L14.9753283,2.73440698 L17.7461175,5.58369136 L22.0735761,10.0508529 L22.0735761,14.7348348 L22.9106452,14.7348348 L22.9525397,10.0086474 L17.7461175,4.8347508 Z M17.7461175,8.04236807 L19.6650513,10.0508529 L19.6650513,14.7348348 L20.5045848,14.7348348 L20.5473008,10.0086474 L17.7461175,7.24708422 L15.0188657,4.56248401 L14.9416484,5.12356876 L17.7461175,8.04236807 Z M11.7009832,13.5671495 L10.1591002,15.1949574 L11.7009832,16.7160101 L14.8677168,19.8292857 L17.7461175,16.7846975 L19.4071124,15.0277905 L17.7461175,13.3875693 L14.6943885,10.391807 L11.7009832,13.5671495 L11.7009832,13.5671495 Z M11.7009832,6.61565698 L9.91512616,6.60241604 L2.11945764,14.533738 L2.67887284,14.6164939 L9.95209192,7.48542111 L11.7009832,7.48542111 L14.5982775,7.49121402 L14.5982775,6.64544909 L11.7009832,6.61565698 Z M5.04714601,14.6553891 L9.94880607,9.91016791 L11.7009832,9.91182303 L14.5982775,9.91761594 L14.5982775,9.0660581 L11.7009832,9.03543843 L9.90526862,9.01392191 L4.48937373,14.5767711 L5.04714601,14.6553891 L5.04714601,14.6553891 Z M14.4972377,24.8682902 L11.7009832,21.9511461 L9.77876357,19.9509368 L9.77876357,15.2686101 L8.93676565,15.2686101 L8.89979989,19.9840392 L11.7009832,22.7489126 L14.4249491,25.4384781 L14.4972377,24.8682902 Z M11.7009832,25.1637287 L14.3863405,27.8251572 L14.4635578,27.2632449 L11.7009832,24.4106503 L7.37352464,19.9509368 L7.37352464,15.2686101 L6.5298838,15.2686101 L6.49456096,19.9840392 L11.7009832,25.1637287 Z M19.6864093,24.8426359 L19.6864093,29.9933609 L14.513667,29.9768097 L11.7009832,27.0050466 L5.12107753,20.0278998 L0.178344395,20.0278998 L0.178344395,14.9723441 L9.73194027,5.02260661 L9.73194027,0.131735075 L14.5966346,0.131735075 L17.7461175,3.30376732 L24.2233405,9.83486007 L29.0001384,9.83486007 L29.0001384,15.3803305 L19.6864093,24.8426359 Z" id="path5597"></path>
                        </g>
                    </g>
                </g>
            </g>
        </g>
    </g>
</svg>