<?xml version="1.0" encoding="UTF-8"?>
<svg width="48px" height="48px" viewBox="0 0 48 48" version="1.1" xmlns="http://www.w3.org/2000/svg" xmlns:xlink="http://www.w3.org/1999/xlink">
    <!-- Generator: Sketch 55.2 (78181) - https://sketchapp.com -->
    <title>indusind</title>
    <desc>Created with Sketch.</desc>
    <g id="indusind" stroke="none" stroke-width="1" fill="none" fill-rule="evenodd">
        <g id="IndusInd_Bank_SVG_Logo" transform="translate(6.000000, 19.000000)" fill="#98272A">
            <g id="g18" transform="translate(18.000000, 3.215094) scale(-1, 1) rotate(-180.000000) translate(-18.000000, -3.215094) translate(0.000000, 0.090566)">
                <g id="g32" transform="translate(2.578108, 0.350152)">
                    <path d="M4.97044864,1.66772417 L4.62894958,0.030296989 L3.13635309,0.030296989 C3.24979627,0.572307343 3.36353183,1.15350922 3.49247112,1.7080275 C3.51878526,1.82838159 3.54802319,1.95151523 3.57579922,2.08576702 C3.57579922,2.1808273 3.58954105,2.27533167 3.60503716,2.37011399 C3.66146637,3.03247844 3.16412913,3.15477822 2.68228799,2.95159382 C2.39546386,2.8434697 2.2676941,2.65473892 2.1276444,2.41041733 C1.99812035,2.19389114 1.95747962,1.99181856 1.89871138,1.72136929 L1.52885152,0.030296989 L0.0497044864,0.030296989 L0.916609204,4.06063039 C1.3721362,4.07425014 1.8262013,4.08786989 2.28260544,4.10037782 C2.22646861,3.8441042 2.15512805,3.60033852 2.11244067,3.343509 C2.6679614,3.97918986 3.37610414,4.30328426 4.20295289,4.07425014 C5.02746261,3.85772395 5.19938165,3.07222587 5.06927285,2.31646887 C5.05319199,2.08576702 5.02746261,1.88369445 4.97044864,1.66772417" id="path34"></path>
                </g>
                <g id="g36" transform="translate(30.138950, 0.120006)">
                    <path d="M4.38568997,6.11498861 L5.8367686,6.11498861 L4.54269767,0.247657039 L3.20710889,0.247657039 C3.26295334,0.464183226 3.31909017,0.679597598 3.39160025,0.89779151 C3.12027223,0.653191965 2.89397062,0.451119387 2.59486657,0.314921913 L2.59486657,1.19436846 C2.70860213,1.22049614 2.82379958,1.26218924 2.92203904,1.31527846 C3.35037476,1.57266389 3.5182005,2.03239985 3.5182005,2.49241377 L3.49071684,2.72200379 C3.4629408,2.93741817 3.36411659,3.12809463 3.1065304,3.23510693 C2.96618832,3.31710337 2.7656161,3.31710337 2.59486657,3.28930796 L2.59486657,4.33107966 C2.67936419,4.33107966 2.75070475,4.30439607 2.82379958,4.30439607 C3.23546968,4.20961375 3.58954105,3.95167241 3.79128279,3.56031314 L4.38568997,6.11498861 Z M2.59486657,0.314921913 C2.49604235,0.260720878 2.38347631,0.234037291 2.25278275,0.207909613 C1.85719351,0.113405243 1.6267986,0.0858877946 1.2151285,0.234037291 C0.732702605,0.396918352 0.491782036,0.707393001 0.306705919,1.12654767 C-0.119875526,2.15358781 0.347639025,3.61395827 1.40020462,4.11455347 C1.74111892,4.27743453 2.18144219,4.37082709 2.59486657,4.33107966 L2.59486657,3.28930796 C2.48171577,3.27568822 2.35511552,3.23510693 2.26827885,3.18173976 C2.02618877,3.03247844 1.86918107,2.81650816 1.78468344,2.56023455 C1.68644398,2.30396094 1.6267986,1.93817344 1.71363526,1.66828007 C1.74111892,1.53263851 1.79930241,1.43646642 1.88321527,1.35669361 C2.08203322,1.19436846 2.35511552,1.15406512 2.59486657,1.19436846 L2.59486657,0.314921913 Z" id="path38"></path>
                </g>
                <g id="g40" transform="translate(18.372442, 0.186159)">
                    <path d="M4.09331064,4.16931042 L3.79508372,3.30459544 C3.38341362,3.41188569 3.08314005,3.4674765 2.65772812,3.49388213 C2.52849646,3.49388213 2.43142652,3.50750188 2.33230993,3.4813742 C2.03174397,3.41188569 1.90338945,3.15616799 2.13173771,2.96632538 C2.41505328,2.69643202 2.91356004,2.62972306 3.26880093,2.41264096 C3.35563759,2.35760606 3.45416942,2.27672144 3.55299364,2.19583682 C3.83513969,1.7769601 3.79508372,1.33056593 3.49714918,0.896957648 C3.02671084,0.235705016 2.13173771,0.167884233 1.32096982,0.222085268 C0.880061788,0.250158625 0.509909554,0.330487339 0.0684167636,0.411371961 L0.340329542,1.38532287 C0.880061788,1.2491254 1.22214561,1.12710358 1.73088564,1.18297234 C1.96040342,1.19603618 2.28933017,1.18297234 2.28933017,1.47927134 C2.23114668,1.69607548 2.01858691,1.83171704 1.78965389,1.9256655 C1.44990911,2.07437091 1.07975687,2.16887528 0.809890748,2.42626071 C0.651128771,2.64223099 0.607564251,2.80455614 0.607564251,3.07472746 C0.607564251,3.34517672 0.694985671,3.53362956 0.822755439,3.71013036 C1.54931808,4.6960333 3.04308408,4.41252019 4.09331064,4.16931042" id="path42"></path>
                </g>
                <g id="g44" transform="translate(13.448771, 0.281775)">
                    <path d="M0.584758663,4.16931042 L2.09168174,4.195994 C1.97823856,3.6953988 1.86333348,3.1953595 1.74959792,2.66891457 C1.6805964,2.33064452 1.53791528,1.89675829 1.63790902,1.55960005 C1.69550774,1.37086926 1.76333975,1.30277053 1.95017014,1.2491254 C2.16360705,1.18074871 2.43551983,1.22188591 2.6056846,1.34362977 C3.11617892,1.69440775 3.25856765,2.27672144 3.38633742,2.84458152 L3.6991833,4.195994 L5.16458851,4.195994 L4.25324214,0.0986736799 C3.82724545,0.0858877946 3.40007925,0.112293427 2.95917121,0.0986736799 C3.00156622,0.329653477 3.0597497,0.667645575 3.11617892,0.897513556 C2.95917121,0.761594036 2.83227858,0.612332723 2.66123668,0.491422721 C2.4486769,0.329653477 2.19167547,0.220973452 1.92210173,0.153152669 C1.60867108,0.0858877946 1.18208964,0.0858877946 0.883277961,0.207909613 C0.55552073,0.329653477 0.314600161,0.612332723 0.186245634,0.924475096 C0.0160808632,1.34362977 0.0862519028,1.62658697 0.158177218,2.06019525 C0.27132802,2.76258508 0.428920479,3.47942852 0.584758663,4.16931042" id="path46"></path>
                </g>
                <g id="g48" transform="translate(7.968998, 0.120006)">
                    <path d="M4.38568997,6.11498861 L5.8367686,6.11498861 L4.52895585,0.247657039 L3.19161278,0.247657039 C3.24862675,0.464183226 3.31967493,0.679597598 3.37551938,0.89779151 C3.12144174,0.653191965 2.87993642,0.451119387 2.59486657,0.314921913 L2.59486657,1.19436846 C2.70918689,1.22049614 2.82146055,1.26218924 2.9226238,1.31527846 C3.33312438,1.57266389 3.50562819,2.03239985 3.50562819,2.49241377 L3.48925494,2.72200379 C3.46177129,2.93741817 3.34803573,3.12809463 3.09454285,3.23510693 C2.94893794,3.31710337 2.75070475,3.31710337 2.59486657,3.28930796 L2.59486657,4.33107966 C2.66620712,4.33107966 2.73520865,4.30439607 2.82146055,4.30439607 C3.22026596,4.20961375 3.57550685,3.95167241 3.78894376,3.56031314 L4.38568997,6.11498861 Z M2.59486657,0.314921913 C2.48171577,0.260720878 2.36710307,0.234037291 2.25161323,0.207909613 C1.856024,0.113405243 1.61539581,0.0858877946 1.20255619,0.234037291 C0.730948329,0.396918352 0.475116414,0.707393001 0.289455538,1.12654767 C-0.123968837,2.15358781 0.34997806,3.61395827 1.38646279,4.11455347 C1.72737709,4.27743453 2.18202695,4.37082709 2.59486657,4.33107966 L2.59486657,3.28930796 C2.4670968,3.27568822 2.353946,3.23510693 2.25161323,3.18173976 C2.02618877,3.03247844 1.856024,2.81650816 1.76918734,2.56023455 C1.67094788,2.30396094 1.61539581,1.93817344 1.69784678,1.66828007 C1.72737709,1.53263851 1.78409868,1.43646642 1.88175338,1.35669361 C2.08320274,1.19436846 2.33728038,1.15406512 2.59486657,1.19436846 L2.59486657,0.314921913 Z" id="path50"></path>
                </g>
                <g id="g52" transform="translate(0.071248, 0.120006)">
                    <polyline id="path54" points="1.46189666 6.11498861 2.98314632 6.11498861 1.71831333 0.260720878 0.182737082 0.260720878"></polyline>
                </g>
                <g id="g56" transform="translate(24.777884, 0.350152)">
                    <path d="M4.97044864,1.66772417 L4.61345347,0.030296989 L3.1065304,0.030296989 C3.23400779,0.572307343 3.36177755,1.15350922 3.47668263,1.7080275 C3.50504343,1.82838159 3.53486612,1.95151523 3.57696874,2.07159137 C3.57696874,2.1808273 3.57696874,2.27533167 3.58954105,2.37011399 C3.66263589,3.03247844 3.13284454,3.15477822 2.66503761,2.95159382 C2.3948791,2.83012791 2.26710934,2.65473892 2.12559774,2.41041733 C1.98437852,2.19389114 1.94052162,1.97764291 1.89812662,1.72136929 L1.51277066,0.030296989 L0.0628615563,0.030296989 L0.902282617,4.06063039 C1.35576296,4.07425014 1.81421375,4.07425014 2.26710934,4.10037782 C2.21097251,3.8441042 2.15278902,3.60033852 2.09519029,3.343509 C2.65012626,3.97918986 3.36177755,4.30328426 4.18628727,4.07425014 C5.01225888,3.85772395 5.18359317,3.07222587 5.06985761,2.30229321 C5.04061968,2.08576702 5.01225888,1.88369445 4.97044864,1.66772417" id="path58"></path>
                </g>
                <g id="g60" transform="translate(22.169861, 0.120006)">
                    <polyline id="path62" points="1.46189666 6.11498861 2.99805767 6.11498861 1.73322468 0.260720878 0.195309393 0.260720878"></polyline>
                </g>
            </g>
        </g>
    </g>
</svg>