<?xml version="1.0" encoding="UTF-8"?>
<svg width="96px" height="30px" viewBox="0 0 96 30" version="1.1" xmlns="http://www.w3.org/2000/svg" xmlns:xlink="http://www.w3.org/1999/xlink">
    <title>Group@1x</title>
    <g id="Final.---CHR-30-days-Free-Plan-" stroke="none" stroke-width="1" fill="none" fill-rule="evenodd">
        <g id="Artboard" transform="translate(-30.000000, -42.000000)" fill-rule="nonzero">
            <g id="Paytm_Logo_(standalone)" transform="translate(30.000000, 42.000000)">
                <g id="g52" transform="translate(83.000000, 17.500000) scale(-1, 1) rotate(-180.000000) translate(-83.000000, -17.500000) translate(70.000000, 5.000000)" fill="#54C1F0">
                    <path d="M25.6763569,20.7811012 C24.8059378,23.2366709 22.4338952,25 19.6477501,25 L19.5894542,25 C17.7782589,25 16.1459719,24.2561885 14.984073,23.0621231 C13.8201639,24.2561885 12.1878769,25 10.3786918,25 L10.3203959,25 C8.72831297,25 7.27292408,24.4247858 6.15524973,23.4727071 L6.15524973,23.9566804 C6.11705582,24.4386703 5.71501469,24.8175182 5.21849389,24.8175182 L0.94479666,24.8175182 C0.422143188,24.8175182 0,24.4009838 0,23.883291 L0,0.983814662 C0,0.466121866 0.422143188,0.0495874326 0.94479666,0.0495874326 L5.21849389,0.0495874326 C5.69491263,0.0495874326 6.08690274,0.400666455 6.14921911,0.854887337 L6.14720891,17.294113 C6.14720891,17.3516344 6.14921911,17.4051888 6.15524973,17.4587433 C6.22359672,18.1926373 6.76836246,18.7956204 7.62873048,18.8709933 L7.78753672,18.8709933 L8.23581259,18.8709933 L8.4167311,18.8709933 C8.77655791,18.8392574 9.08009896,18.714297 9.31931344,18.5258648 C9.69120148,18.2342907 9.89825267,17.7860203 9.89825267,17.294113 L9.91433431,0.936210727 C9.91433431,0.418517931 10.3384877,0 10.859131,0 L15.1328282,0 C15.6373898,0 16.0474718,0.39669946 16.0715942,0.890590289 L16.069584,17.3159315 C16.0675738,17.8554427 16.3208597,18.3433831 16.7651152,18.6329737 C16.9842276,18.7718185 17.2475646,18.8650428 17.5511056,18.8928118 L17.7099119,18.8928118 L18.1581877,18.8928118 L18.3391062,18.8928118 C19.2638008,18.8134719 19.822638,18.1212314 19.8206278,17.3159315 L19.8367094,0.979847667 C19.8367094,0.462154871 20.2608628,0.045620438 20.7815061,0.045620438 L25.0552033,0.045620438 C25.5758466,0.045620438 26,0.462154871 26,0.979847667 L26,18.5496668 C26,19.7476991 25.863306,20.2574579 25.6763569,20.7811012" id="path54"></path>
                </g>
                <g id="g56" transform="translate(60.500000, 15.000000) scale(-1, 1) rotate(-180.000000) translate(-60.500000, -15.000000) translate(54.000000, 0.000000)" fill="#54C1F0">
                    <path d="M12.0519783,25.1742358 L9.5992242,25.1742358 L9.5992242,29.1271487 L9.5992242,29.1271487 C9.5992242,29.1311618 9.5992242,29.1351749 9.5992242,29.139188 C9.5992242,29.6147415 9.21194725,30 8.73390225,30 C8.67742436,30 8.62296354,29.9919738 8.57051978,29.981941 C5.8515128,29.2395158 6.39612102,25.493278 1.43211792,25.1742358 L1.32117921,25.1742358 L0.95003879,25.1742358 C0.87742436,25.1742358 0.808844065,25.1642031 0.742280838,25.1501572 L0.738246703,25.1501572 L0.742280838,25.1481506 C0.318696664,25.0538426 0,24.6806234 0,24.2311551 L0,19.9652197 C0,19.445522 0.425601241,19.022139 0.95003879,19.022139 L3.53793638,19.022139 L3.53390225,0.933047957 C3.53390225,0.417363387 3.95345229,0 4.47183863,0 L8.71171451,0 C9.22808379,0 9.64763382,0.417363387 9.64763382,0.933047957 L9.64965089,19.022139 L12.0519783,19.022139 C12.5743988,19.022139 13,19.445522 13,19.9652197 L13,24.2311551 C13,24.7508528 12.5743988,25.1742358 12.0519783,25.1742358" id="path58"></path>
                </g>
                <g id="g60" transform="translate(44.000000, 17.500000) scale(-1, 1) rotate(-180.000000) translate(-44.000000, -17.500000) translate(36.000000, 5.000000)" fill="#233266">
                    <path d="M15.0630451,25 L10.8248193,25 C10.3084974,25 9.88985796,24.5778987 9.88985796,24.0597743 L9.88985796,15.2656638 C9.87989036,14.7215332 9.44131572,14.2854285 8.89708448,14.2854285 L7.12285074,14.2854285 C6.57263892,14.2854285 6.12808373,14.7295351 6.12808373,15.2816676 L6.11213556,24.0597743 C6.11213556,24.5778987 5.69150262,25 5.17518066,25 L0.936954897,25 C0.418639422,25 0,24.5778987 0,24.0597743 L0,14.4214612 C0,10.7605825 2.60154498,8.14995599 6.25168203,8.14995599 C6.25168203,8.14995599 8.99077997,8.14995599 9.07450785,8.13395215 C9.56890107,8.07793871 9.95365064,7.66183884 9.95365064,7.14971593 C9.95365064,6.64359446 9.57687516,6.22949508 9.0884625,6.1674802 C9.06454024,6.16347924 9.04261151,6.15747779 9.01669574,6.15347683 L2.81883877,6.13147155 C2.3005233,6.13147155 1.88188388,5.70937025 1.88188388,5.1912459 L1.88188388,0.940225654 C1.88188388,0.420100824 2.3005233,0 2.81883877,0 L9.74831797,0 C13.4004485,0 16,2.60862607 16,6.27150516 L16,24.0597743 C16,24.5778987 15.5813606,25 15.0630451,25" id="path62"></path>
                </g>
                <g id="g64" transform="translate(8.000000, 17.500000) scale(-1, 1) rotate(-180.000000) translate(-8.000000, -17.500000) translate(0.000000, 5.000000)" fill="#233266">
                    <path d="M9.84692346,17.1980135 L9.84692346,15.2114707 L9.84692346,14.5706504 C9.84692346,14.0199455 9.40070035,13.5713714 8.85042521,13.5713714 L6.15107554,13.5693688 L6.15107554,18.8341077 L8.85042521,18.8341077 C9.40070035,18.8341077 9.84692346,18.3895386 9.84692346,17.8368311 L9.84692346,17.1980135 Z M10.2211106,25 L0.922461231,25 C0.412206103,25 0,24.5854694 0,24.0768183 L0,19.905479 C0,19.8974688 0.0020010005,19.8894585 0.0020010005,19.8814483 C0.0020010005,19.8614226 0,19.841397 0,19.8233739 L0,6.44424864 L0,0.943207305 C0,0.430551105 0.384192096,0.0120153797 0.860430215,0 L0.940470235,0 L5.1945973,0 C5.71285643,0 6.13506753,0.420538289 6.13506753,0.941204742 L6.15107554,7.4114867 L10.2211106,7.4114867 C13.6268134,7.4114867 16,9.77651394 16,13.1988946 L16,19.2045819 C16,22.6269625 13.6268134,25 10.2211106,25" id="path66"></path>
                </g>
                <g id="g68" transform="translate(26.000000, 17.500000) scale(-1, 1) rotate(-180.000000) translate(-26.000000, -17.500000) translate(18.000000, 5.000000)" fill="#233266">
                    <path d="M9.89948007,7.14573107 L9.89948007,6.47783053 C9.89948007,6.42351332 9.89155732,6.37120785 9.88363456,6.32091414 C9.87373112,6.27263217 9.8598663,6.22636195 9.8440208,6.18210348 C9.71329537,5.80791824 9.34488735,5.53633218 8.90715524,5.53633218 L7.1542461,5.53633218 C6.60757613,5.53633218 6.16192127,5.95879939 6.16192127,6.47783053 L6.16192127,7.28454172 C6.16192127,7.29460047 6.15994058,7.30465921 6.15994058,7.31471795 L6.16192127,9.46125372 L6.16192127,9.46527722 L6.16192127,9.70266356 L6.16192127,10.1331778 L6.16390196,10.139213 C6.16588264,10.6562324 6.60757613,11.0746761 7.1542461,11.0746761 L8.90715524,11.0746761 C9.45580589,11.0746761 9.89948007,10.6542206 9.89948007,10.1331778 L9.89948007,7.14573107 Z M9.23000743,25 L3.38697697,25 C2.87001733,25 2.4520921,24.6016738 2.4520921,24.1128189 L2.4520921,22.4491028 C2.4520921,22.439044 2.45407279,22.4269735 2.45407279,22.4169148 C2.45407279,22.4048443 2.4520921,22.3927738 2.4520921,22.3807033 L2.4520921,20.1013921 C2.4520921,19.5843727 2.89576628,19.1619055 3.44243625,19.1619055 L9.00618965,19.1619055 C9.44590245,19.0914943 9.79450359,18.7655911 9.8440208,18.2566187 L9.8440208,17.7053995 C9.79450359,17.2205681 9.44986383,16.8665004 9.02995791,16.8262654 L6.2748205,16.8262654 C2.61054717,16.8262654 0,14.3538263 0,10.8815482 L0,6.03524584 L0,5.90850567 C0,2.45634506 2.24411983,0 5.88264422,0 L13.5181976,0 C14.8888339,0 16,1.05415627 16,2.35173413 L16,18.5805102 C16,22.5154905 14.0034662,25 9.23000743,25" id="path70"></path>
                </g>
            </g>
        </g>
    </g>
</svg>