<?xml version="1.0" encoding="UTF-8"?>
<svg width="48px" height="48px" viewBox="0 0 48 48" version="1.1" xmlns="http://www.w3.org/2000/svg" xmlns:xlink="http://www.w3.org/1999/xlink">
    <!-- Generator: Sketch 55.2 (78181) - https://sketchapp.com -->
    <title>rbl</title>
    <desc>Created with Sketch.</desc>
    <g id="rbl" stroke="none" stroke-width="1" fill="none" fill-rule="evenodd">
        <g id="RBL_Bank_SVG_Logo" transform="translate(6.000000, 1.000000)" fill-rule="nonzero">
            <g id="g18" transform="translate(17.623377, 23.000000) scale(-1, 1) rotate(-180.000000) translate(-17.623377, -23.000000) translate(0.000000, 0.000000)">
                <path d="M9.09887143,34.9143408 L9.09887143,45.8539769 L0.485918947,45.8539769 L0.485918947,19.9808693 C0.485918947,26.3499774 3.95404015,31.939276 9.09887143,34.9143408" id="path27530" fill="#21317D"></path>
                <path d="M18.8038556,37.1916395 L18.8038556,28.5388605 C23.0581609,28.0091635 26.3582128,24.3841246 26.3582128,19.9912243 C26.3582128,15.2143933 22.5013817,11.3551726 17.7301248,11.3551726 C12.9740037,11.3551726 9.10840996,15.2143933 9.10840996,19.9912243 L9.09885152,19.9912243 L9.09885152,5.04819407 C11.6406012,3.58336294 14.5893795,2.72628936 17.7301248,2.72628936 C27.2559097,2.72628936 34.9751476,10.4471207 34.9751476,19.9808693 C34.9751476,29.1394492 27.8286197,36.6412326 18.8038556,37.1916395" id="path27534" fill="#21317D"></path>
                <path d="M9.09887143,34.9143408 C3.95404015,31.939276 0.485918947,26.3499774 0.485918947,19.9808693 L0.485918947,4.04137158 L0.485918947,0.585994647 L9.09887143,0.585994647 L9.09887143,2.84497334 L9.09887143,5.04899061 L9.09887143,19.9912243 L9.10842987,19.9912243 C9.10842987,24.3841246 12.3989233,28.008367 16.6548193,28.5388605 L16.6548193,37.1916395 C13.9139362,37.0283494 11.3387328,36.2166785 9.09887143,34.9143408" id="path27538" fill="#ED1C24"></path>
            </g>
        </g>
    </g>
</svg>