<?xml version="1.0" encoding="UTF-8"?>
<svg width="145px" height="92px" viewBox="0 0 145 92" version="1.1" xmlns="http://www.w3.org/2000/svg" xmlns:xlink="http://www.w3.org/1999/xlink">
    <title>0BF1E2A3-6A3F-48C7-ADB6-F46A814B8E79@1x</title>
    <defs>
        <rect id="path-1" x="0" y="0" width="110" height="111"></rect>
        <rect id="path-3" x="0" y="0" width="21.3892716" height="22.9910742"></rect>
        <path d="M8.98931068,16.4896074 C10.3905856,11.9805256 14.6208494,8.70357656 19.6178486,8.70357656 C24.6148478,8.70357656 28.8451116,11.9805256 30.2463865,16.4896074 L39.2356972,16.4896074 C37.6757874,7.13064103 29.4796512,0 19.6178486,0 C9.756046,0 1.55990979,7.13064103 0,16.4896074 L8.98931068,16.4896074 Z" id="path-5"></path>
    </defs>
    <g id="Final---Credit-plus-with-Old-bureau-Dashboard-design" stroke="none" stroke-width="1" fill="none" fill-rule="evenodd">
        <g id="Desktop---Rectification-(active)" transform="translate(-981.000000, -734.000000)">
            <g id="Group-71" transform="translate(442.000000, 559.000000)">
                <g id="Group-91" transform="translate(24.000000, 32.382166)">
                    <g id="Group-22-Copy" transform="translate(344.000000, 133.617834)">
                        <g id="Group-10" transform="translate(171.000000, -5.000000)">
                            <circle id="Oval" fill="#EAF9F9" cx="72.5" cy="104.5" r="72.5"></circle>
                            <g id="shutterstock_604427552-[Converted]" transform="translate(64.000000, 55.500000) scale(-1, 1) translate(-64.000000, -55.500000) translate(9.000000, 0.000000)">
                                <mask id="mask-2" fill="white">
                                    <use xlink:href="#path-1"></use>
                                </mask>
                                <g id="SVGID_1_"></g>
                                <g id="Group" mask="url(#mask-2)">
                                    <g transform="translate(-5.000000, 14.000000)">
                                        <path d="M35.8884372,86.7108795 L88,86.7108795 L88,2.11316397 L28.6969887,2.11316397 L28.6969887,44.844579 L15.6889273,59.1320766 C15.6889273,59.1320766 14.0761392,60.8360901 14.1554567,63.352787 C14.2612133,65.8694838 17.8833767,91.4559016 17.8833767,91.4559016 L17.222398,92.7928968 L14.393409,91.9802135 C13.9439435,91.8491355 13.494478,92.1112914 13.3622822,92.5569565 C13.2300865,93.0026216 13.494478,93.4482866 13.9439435,93.5793646 L13.4151605,95.3620248 L13.2300865,95.9649835 L11.8816899,95.5717496 C11.3000286,95.414456 10.665489,95.7290431 10.5068541,96.3320017 C10.3482192,96.9087448 10.665489,97.537919 11.2735894,97.6952125 L2.49579196,127.948006 L26.3439044,135 L34.9101887,105.717184 L34.9101887,105.717184 L35.2274585,104.589913 L35.2274585,104.589913 L35.2274585,104.563698 L35.2274585,104.563698 C35.8091198,104.720991 36.4436593,104.406404 36.6022942,103.803445 C36.7609291,103.226702 36.4436593,102.597528 35.8355589,102.440235 L34.4871623,102.047001 L34.777993,101.077024 L34.777993,101.077024 L35.2010193,99.6613819 C35.6504849,99.7924599 36.0999504,99.530304 36.2321462,99.0846389 C36.3643419,98.6389738 36.0999504,98.1933088 35.6504849,98.0622308 L31.9754432,97.0136071 L32.1076389,95.8863367 C32.1076389,95.8863367 34.3814057,91.0102366 35.8884372,86.7108795 Z" id="Path" fill="#CBE3E3" fill-rule="nonzero"></path>
                                        <g id="Group" stroke-width="1" fill="none" fill-rule="evenodd">
                                            <g transform="translate(55.852702, 42.285750) scale(-1, 1) translate(-55.852702, -42.285750) translate(26.201197, 0.000000)">
                                                <rect id="Rectangle" fill="#FFFFFF" fill-rule="nonzero" x="0" y="0" width="59.3030113" height="84.5714999"></rect>
                                                <g transform="translate(3.833677, 17.166962)">
                                                    <rect id="Rectangle" fill="#F0F0F0" fill-rule="nonzero" x="0" y="0" width="23.2664512" height="25.0096748"></rect>
                                                    <g id="Clipped" transform="translate(0.951809, 2.018601)">
                                                        <mask id="mask-4" fill="white">
                                                            <use xlink:href="#path-3"></use>
                                                        </mask>
                                                        <g id="SVGID_00000041264121719662595380000007833735082969320381_"></g>
                                                        <g id="Group" mask="url(#mask-4)">
                                                            <g transform="translate(0.786383, 0.599710)">
                                                                <path d="M8.20292773,50.7304192 C8.57307582,50.6517724 8.83746731,50.3371853 8.83746731,49.9439515 L8.62595412,42.8133104 C8.62595412,42.393861 8.25580603,42.0530583 7.83277965,42.0530583 C7.40975326,42.0530583 7.06604432,42.4200765 7.06604432,42.839526 L7.27755752,49.9701671 C7.27755752,50.3896165 7.6477056,50.7304192 8.07073199,50.7304192 C8.09717114,50.7566348 8.15004943,50.7566348 8.20292773,50.7304192 Z" id="Path" fill="#FDD0A2" fill-rule="nonzero"></path>
                                                                <g id="Group" stroke-width="1" fill="none" fill-rule="evenodd" transform="translate(3.787590, 49.655580)">
                                                                    <g transform="translate(0.079317, 0.000000)" fill-rule="nonzero" id="Path">
                                                                        <g transform="translate(0.000000, 0.131078)">
                                                                            <path d="M2.16801022,0 L2.16801022,0 C2.11513192,0 2.08869278,0 2.03581448,0 C0.925370217,0 0,0.865114537 0,1.93995381 L2.16801022,1.93995381 L4.07162895,1.93995381 L4.97056002,1.93995381 L4.97056002,1.93995381 C5.15563407,1.36321079 5.18207321,0.734036577 4.99699917,0.13107796 L4.97056002,0 L4.91768172,0.026215592 C4.44177704,0.26215592 3.86011576,0.26215592 3.38421108,0 L3.38421108,0 L2.16801022,0 Z" fill="#595959"></path>
                                                                            <path d="M4.67972938,2.35940328 L0.317269789,2.35940328 C0.158634894,2.35940328 0.0264391491,2.22832532 0.0264391491,2.07103177 L0.0264391491,1.93995381 L4.99699917,1.93995381 L4.99699917,2.07103177 C4.97056002,2.22832532 4.83836428,2.35940328 4.67972938,2.35940328 Z" fill="#6E6E6E"></path>
                                                                        </g>
                                                                        <path d="M3.04050214,1.02240809 C3.06694129,1.02240809 3.06694129,1.02240809 3.04050214,1.02240809 C3.09338044,1.02240809 3.11981959,0.996192497 3.11981959,0.943761313 C3.04050214,0.13107796 2.56459746,0 2.56459746,0 C2.53815831,0 2.48528001,0 2.48528001,0.0524311841 C2.48528001,0.0786467761 2.48528001,0.13107796 2.53815831,0.13107796 C2.56459746,0.13107796 2.93474554,0.26215592 2.98762384,0.969976905 C2.98762384,0.996192497 3.01406299,1.02240809 3.04050214,1.02240809 Z" fill="#F6F7FA"></path>
                                                                    </g>
                                                                    <path d="M0.0793174472,2.12346295 L5.04987747,2.12346295 C5.07631662,2.12346295 5.12919492,2.09724736 5.12919492,2.04481618 C5.12919492,2.01860059 5.10275577,1.9661694 5.04987747,1.9661694 L0.0793174472,1.9661694 C0.0528782981,1.9661694 0,1.99238499 0,2.04481618 C0.0264391491,2.09724736 0.0528782981,2.12346295 0.0793174472,2.12346295 Z" id="Path" fill="#FFFFFF" fill-rule="nonzero"></path>
                                                                </g>
                                                                <path d="M10.6882077,33.6640688 L10.6882077,33.6640688 C8.28224518,33.6640688 6.32574815,31.724115 6.32574815,29.3384961 L6.32574815,22.9418917 C6.32574815,20.5562728 8.28224518,18.616319 10.6882077,18.616319 L10.6882077,18.616319 C13.0941703,18.616319 15.0506673,20.5562728 15.0506673,22.9418917 L15.0506673,29.3122805 C15.0771065,31.724115 13.1206095,33.6640688 10.6882077,33.6640688 Z" id="Path" fill="#E26B44" fill-rule="nonzero"></path>
                                                                <path d="M7.99141454,39.562577 L7.99141454,39.562577 C7.09248347,39.4314991 6.45794389,38.5926001 6.59013964,37.70127 L7.46263156,31.6192526 C7.5948273,30.7279225 8.44088007,30.0987483 9.33981114,30.2298262 L9.33981114,30.2298262 C10.2387422,30.3609042 10.8732818,31.1998032 10.741086,32.0911333 L9.86859412,38.1731506 C9.73639838,39.0644808 8.89034561,39.693655 7.99141454,39.562577 Z" id="Path" fill="#424242" fill-rule="nonzero"></path>
                                                                <path d="M7.8063405,49.4458552 L7.8063405,49.4458552 C6.88097028,49.4196396 6.16711326,48.6593875 6.21999155,47.7418417 L6.56370049,38.0945039 C6.59013964,37.1769581 7.35687496,36.4691372 8.28224518,36.5215683 L8.28224518,36.5215683 C9.2076154,36.5477839 9.92147242,37.3080361 9.86859412,38.2255818 L9.52488518,47.8729197 C9.47200689,48.7642498 8.70527156,49.4720708 7.8063405,49.4458552 Z" id="Path" fill="#424242" fill-rule="nonzero"></path>
                                                                <path d="M12.3538741,19.6649427 C12.3538741,20.5562728 11.6400171,21.2640938 10.741086,21.2640938 C9.84215497,21.2640938 9.12829795,20.5562728 9.12829795,19.6649427 C9.12829795,18.7736125 9.84215497,18.0657915 10.741086,18.0657915 C11.6400171,18.0657915 12.3538741,18.7736125 12.3538741,19.6649427 Z" id="Path" fill="#FFFFFF" fill-rule="nonzero"></path>
                                                                <path d="M10.741086,20.3989792 L10.741086,20.3989792 C10.1329856,20.3989792 9.65708093,19.9270986 9.65708093,19.32414 L9.65708093,17.9347136 C9.65708093,17.331755 10.1329856,16.8598743 10.741086,16.8598743 L10.741086,16.8598743 C11.3491865,16.8598743 11.8250912,17.331755 11.8250912,17.9347136 L11.8250912,19.32414 C11.8250912,19.9270986 11.3491865,20.3989792 10.741086,20.3989792 Z" id="Path" fill="#FDD0A2" fill-rule="nonzero"></path>
                                                                <path d="M13.5965141,50.7304192 C13.2263661,50.6517724 12.9619746,50.3371853 12.9619746,49.9439515 L13.1734878,42.8133104 C13.1734878,42.393861 13.5436358,42.0530583 13.9666622,42.0530583 C14.3896886,42.0530583 14.7333975,42.4200765 14.7333975,42.839526 L14.5218844,49.9701671 C14.5218844,50.3896165 14.1517363,50.7304192 13.7287099,50.7304192 C13.6758316,50.7566348 13.6493924,50.7566348 13.5965141,50.7304192 Z" id="Path" fill="#FDD0A2" fill-rule="nonzero"></path>
                                                                <g id="Group" stroke-width="1" fill="none" fill-rule="evenodd" transform="translate(12.782805, 49.655580)">
                                                                    <g fill-rule="nonzero" id="Path">
                                                                        <g transform="translate(0.000000, 0.131078)">
                                                                            <path d="M2.95528071,0 L2.95528071,0 C3.00815901,0 3.03459815,0 3.08747645,0 C4.19792071,0 5.12329093,0.865114537 5.12329093,1.93995381 L2.95528071,1.93995381 L1.05166198,1.93995381 L0.152730908,1.93995381 L0.152730908,1.93995381 C-0.0323431354,1.36321079 -0.0587822844,0.734036577 0.126291759,0.13107796 L0.152730908,0 L0.205609206,0.026215592 C0.681513889,0.26215592 1.26317517,0.26215592 1.73907985,0 L1.73907985,0 L2.95528071,0 Z" fill="#595959"></path>
                                                                            <path d="M0.470000697,2.35940328 L4.83246029,2.35940328 C4.99109518,2.35940328 5.12329093,2.22832532 5.12329093,2.07103177 L5.12329093,1.93995381 L0.152730908,1.93995381 L0.152730908,2.07103177 C0.179170057,2.22832532 0.311365802,2.35940328 0.470000697,2.35940328 Z" fill="#6E6E6E"></path>
                                                                        </g>
                                                                        <path d="M2.08278879,1.02240809 C2.08278879,1.02240809 2.08278879,1.02240809 2.08278879,1.02240809 C2.02991049,1.02240809 2.00347134,0.996192497 2.00347134,0.943761313 C2.08278879,0.13107796 2.55869347,0 2.55869347,0 C2.58513262,0 2.63801092,0 2.63801092,0.0524311841 C2.63801092,0.0786467761 2.63801092,0.13107796 2.58513262,0.13107796 C2.55869347,0.13107796 2.18854539,0.26215592 2.13566709,0.969976905 C2.16210624,0.996192497 2.10922794,1.02240809 2.08278879,1.02240809 Z" fill="#F6F7FA"></path>
                                                                    </g>
                                                                    <path d="M5.12329093,2.12346295 L0.152730908,2.12346295 C0.126291759,2.12346295 0.0734134608,2.09724736 0.0734134608,2.04481618 C0.0734134608,2.01860059 0.0998526099,1.9661694 0.152730908,1.9661694 L5.12329093,1.9661694 C5.14973008,1.9661694 5.20260838,1.99238499 5.20260838,2.04481618 C5.20260838,2.09724736 5.17616923,2.12346295 5.12329093,2.12346295 Z" id="Path" fill="#FFFFFF" fill-rule="nonzero"></path>
                                                                </g>
                                                                <path d="M13.8080273,39.562577 L13.8080273,39.562577 C14.7069584,39.4314991 15.341498,38.5926001 15.2093022,37.70127 L14.3368103,31.6192526 C14.2046146,30.7279225 13.3585618,30.0987483 12.4596307,30.2298262 L12.4596307,30.2298262 C11.5606997,30.3609042 10.9261601,31.1998032 11.0583558,32.0911333 L11.9308477,38.1731506 C12.0630435,39.0644808 12.8826571,39.693655 13.8080273,39.562577 Z" id="Path" fill="#424242" fill-rule="nonzero"></path>
                                                                <path d="M13.9931014,49.4458552 L13.9931014,49.4458552 C14.9184716,49.4196396 15.6323286,48.6593875 15.5794503,47.7418417 L15.2357414,38.0945039 C15.2093022,37.1769581 14.4425669,36.4691372 13.5171967,36.5215683 L13.5171967,36.5215683 C12.5918265,36.5477839 11.8779695,37.3080361 11.9308477,38.2255818 L12.2745567,47.8729197 C12.3009958,48.7642498 13.0677312,49.4720708 13.9931014,49.4458552 Z" id="Path" fill="#424242" fill-rule="nonzero"></path>
                                                                <path d="M14.812715,47.5059014 C14.627641,47.5059014 14.4690061,47.3486078 14.4690061,47.1650987 L14.2046146,37.9109947 L13.5171967,32.8251699 C13.4907575,32.6416607 13.6229533,32.4581516 13.8080273,32.431936 C13.9931014,32.4057204 14.1781754,32.5367983 14.2046146,32.7203075 L14.9184716,37.8323479 L14.9184716,37.8585635 L15.1828631,47.1126675 C15.1564239,47.3486078 14.997789,47.5059014 14.812715,47.5059014 C14.812715,47.5059014 14.812715,47.5059014 14.812715,47.5059014 Z" id="Path" fill="#1A1A1A" fill-rule="nonzero"></path>
                                                                <path d="M6.32574815,29.600652 C6.45794389,31.8814085 8.36156263,33.6640688 10.6882077,33.6640688 L10.6882077,33.6640688 C13.0148529,33.6640688 14.9184716,31.855193 15.0506673,29.600652 L6.32574815,29.600652 Z" id="Path" fill="#424242" fill-rule="nonzero"></path>
                                                                <path d="M6.98672688,47.5059014 C6.98672688,47.5059014 6.98672688,47.5059014 6.98672688,47.5059014 C6.77521368,47.5059014 6.64301794,47.3486078 6.64301794,47.1650987 L6.90740943,37.8847791 L6.90740943,37.8585635 L7.62126645,32.7727387 C7.6477056,32.5892295 7.83277965,32.4581516 8.01785369,32.4843672 C8.20292773,32.5105828 8.33512348,32.6940919 8.30868433,32.877601 L7.62126645,37.9634259 L7.35687496,47.2175299 C7.33043581,47.3486078 7.17180092,47.5059014 6.98672688,47.5059014 Z" id="Path" fill="#1A1A1A" fill-rule="nonzero"></path>
                                                                <path d="M9.65708093,18.2230851 C9.65708093,18.2230851 10.0801073,18.3541631 10.741086,18.3279475 C10.6882077,20.3727636 10.6882077,20.3727636 10.6882077,20.3727636 C10.6882077,20.3727636 9.86859412,20.4251948 9.65708093,19.4290023 C9.65708093,18.5638878 9.65708093,18.2230851 9.65708093,18.2230851 Z" id="Path" fill="#F2F2F2" fill-rule="nonzero"></path>
                                                                <g id="Group" stroke-width="1" fill="none" fill-rule="evenodd" transform="translate(3.651377, 18.670074)">
                                                                    <path d="M1.43173094,5.76610638 C1.16733945,5.79232197 0.929387112,5.71367519 0.69143477,5.58259723 C0.162651789,5.24179454 0.0304560438,4.53397355 0.400604131,4.00966171 L2.83300584,0.496772378 C3.17671478,-0.0275394632 3.89057181,-0.158617423 4.41935479,0.208400865 C4.94813777,0.549203562 5.08033351,1.25702455 4.71018543,1.78133639 L2.27778371,5.29422572 C2.06627052,5.55638164 1.74900073,5.73989078 1.43173094,5.76610638 Z" id="Path" fill="#E26B44" fill-rule="nonzero"></path>
                                                                    <path d="M2.27778371,4.76991388 C2.33066201,5.39908809 1.85475733,5.94961552 1.2466569,6.0020467 C0.612117323,6.05447789 0.0568951928,5.58259723 0.0040168947,4.97963862 C-0.0488614034,4.35046441 0.42704328,3.79993697 1.03514371,3.74750579 C1.66968329,3.66885901 2.22490542,4.14073967 2.27778371,4.76991388 Z" id="Path" fill="#FFFFFF" fill-rule="nonzero"></path>
                                                                    <path d="M1.27309605,3.74750579 C1.22021775,3.74750579 1.16733945,3.74750579 1.11446115,3.69507461 C1.00870456,3.61642783 0.98226541,3.48534987 1.06158286,3.35427191 L3.15027563,0.339478825 C3.22959308,0.234616457 3.36178882,0.208400865 3.49398457,0.287047641 C3.59974117,0.365694417 3.62618031,0.496772378 3.54686287,0.627850338 L1.45817009,3.64264342 C1.40529179,3.69507461 1.32597435,3.74750579 1.27309605,3.74750579 Z" id="Path" fill="#1A1A1A" fill-rule="nonzero"></path>
                                                                </g>
                                                                <g id="Group" stroke-width="1" fill="none" fill-rule="evenodd" transform="translate(1.367903, 22.753071)">
                                                                    <path d="M0.0666021624,4.59303967 C0.0930413115,4.56682408 0.0930413115,4.54060849 0.119480461,4.4881773 L2.65763877,0.398544944 C2.89559111,0.00531106331 3.42437409,-0.125766897 3.82096133,0.136389023 C4.21754856,0.372329352 4.34974431,0.896641193 4.08535282,1.28987507 L1.54719451,5.37950743 C1.30924217,5.77274131 0.780459187,5.90381927 0.383871951,5.64166335 C0.0401630134,5.43193861 -0.0920327319,4.96005796 0.0666021624,4.59303967 Z" id="Path" fill="#FDD0A2" fill-rule="nonzero"></path>
                                                                    <path d="M0.886215783,3.80657191 C0.886215783,3.78035632 0.886215783,3.78035632 0.886215783,3.80657191 L3.00134771,0.34611376 C3.08066515,0.241251392 3.2128609,0.188820208 3.3186175,0.267466984 C3.42437409,0.34611376 3.47725239,0.47719172 3.39793494,0.582054088 L1.28280302,4.01629664 C1.20348557,4.12115901 1.07128983,4.1735902 0.96553323,4.09494342 C0.886215783,4.04251224 0.833337485,3.91143428 0.886215783,3.80657191 Z" id="Path" fill="#262626" fill-rule="nonzero"></path>
                                                                </g>
                                                                <g id="Group" stroke-width="1" fill="none" fill-rule="evenodd" transform="translate(3.579451, 11.742473)">
                                                                    <path d="M2.50834499,1.0277688 C2.64054074,1.70937419 2.1910752,2.36476399 1.50365733,2.49584195 C0.816239452,2.62691991 0.155260726,2.18125485 0.0230649806,1.49964945 C-0.109130765,0.818044061 0.340334769,0.16265426 1.02775264,0.0315762997 C1.68873137,-0.125717252 2.37614925,0.319947812 2.50834499,1.0277688 Z" id="Path" fill="#FECA9A" fill-rule="nonzero"></path>
                                                                    <path d="M1.34502243,0.451025772 C1.26570499,0.451025772 1.21282669,0.451025772 1.13350924,0.451025772 C0.684043707,0.529672548 0.393213067,0.949122021 0.498969664,1.39478709 C0.578287111,1.81423656 0.974874347,2.10260807 1.42433988,2.05017689 L1.34502243,0.451025772 Z" id="Path" fill="#F2F2F2" fill-rule="nonzero"></path>
                                                                </g>
                                                                <g id="Group" stroke-width="1" fill="none" fill-rule="evenodd" transform="translate(15.159798, 11.742473)">
                                                                    <path d="M0.0230649806,1.0277688 C-0.109130765,1.70937419 0.340334769,2.36476399 1.02775264,2.49584195 C1.71517052,2.62691991 2.37614925,2.18125485 2.50834499,1.49964945 C2.64054074,0.818044061 2.1910752,0.16265426 1.50365733,0.0315762997 C0.816239452,-0.125717252 0.128821577,0.319947812 0.0230649806,1.0277688 Z" id="Path" fill="#FECA9A" fill-rule="nonzero"></path>
                                                                    <path d="M1.15994839,0.451025772 C1.23926584,0.451025772 1.29214414,0.451025772 1.37146158,0.451025772 C1.82092712,0.529672548 2.11175776,0.949122021 2.00600116,1.39478709 C1.92668371,1.81423656 1.53009648,2.10260807 1.08063094,2.05017689 L1.15994839,0.451025772 Z" id="Path" fill="#F2F2F2" fill-rule="nonzero"></path>
                                                                </g>
                                                                <path d="M11.0054775,18.3279475 L10.1858639,18.3279475 C7.22467922,18.3279475 4.81871665,15.9423286 4.81871665,13.0061823 L4.81871665,4.74827079 L16.3726248,4.74827079 L16.3726248,13.0061823 C16.3726248,15.9685442 13.9666622,18.3279475 11.0054775,18.3279475 Z" id="Path" fill="#FECA9A" fill-rule="nonzero"></path>
                                                                <path d="M3.52319835,7.31739881 C3.52319835,7.31739881 3.07373282,10.1486828 4.58076431,11.223522 C4.68652091,11.3021688 4.81871665,11.223522 4.81871665,11.0924441 L4.81871665,7.21253644 L3.52319835,7.31739881 Z" id="Path" fill="#3D2712" fill-rule="nonzero"></path>
                                                                <path d="M16.3726248,3.48992237 L16.3726248,3.48992237 C13.8609056,-0.783219129 9.07541965,-0.127829328 7.17180092,0.344051329 C7.03960517,0.370266921 7.03960517,0.579991657 7.19824007,0.606207249 C9.12829795,0.737285209 10.1858639,1.36645942 10.1858639,1.36645942 C8.57307582,0.763500801 7.54194901,0.737285209 6.53726134,1.18295027 C6.32574815,1.28781264 6.32574815,1.57618415 6.53726134,1.68104652 C6.64301794,1.73347771 6.80165283,1.81212448 7.06604432,2.02184922 C2.06904515,3.17533527 1.17011408,6.29499072 1.11723579,8.13008216 C1.11723579,8.41845368 1.43450557,8.60196282 1.69889707,8.44466927 C1.9897277,8.23494453 2.43919324,7.94657302 2.99441537,7.76306387 C3.10017196,7.73684828 3.17948941,7.86792624 3.10017196,7.94657302 C2.88865877,8.15629776 2.67714558,8.41845368 2.57138898,8.6806096 C2.43919324,8.94276552 2.73002388,9.20492144 2.99441537,9.07384348 C3.70827239,8.70682519 4.76583836,8.41845368 5.63833027,8.49710045 C9.49844604,9.44086177 12.7504614,8.31359131 14.4161278,7.47469236 C14.5483235,7.42226118 14.6805193,7.36982999 14.7862758,7.29118322 C14.5218844,7.52712355 14.2574929,7.76306387 13.9402231,7.97278861 C13.7287099,8.10386657 13.8609056,8.41845368 14.098858,8.36602249 C14.6805193,8.26116012 15.2093022,8.10386657 15.6587678,7.92035743 C15.5794503,8.57574723 15.5530112,9.67680209 16.1082333,10.9351505 C16.2139899,11.1973064 16.584138,11.223522 16.7427729,10.9875817 C17.3244342,10.1224672 18.4084393,8.26116012 18.3291218,6.32120631 C18.2233652,3.67343152 16.3726248,3.48992237 16.3726248,3.48992237 Z" id="Shape" fill="#4E3217" fill-rule="nonzero"></path>
                                                                <path d="M5.16242559,8.07765098 C5.16242559,8.07765098 12.512509,9.80788005 15.9231593,5.35122941 C14.3103712,6.45228427 12.0894826,8.49710045 5.16242559,8.07765098 Z" id="Path" fill="#1A1A1A" fill-rule="nonzero"></path>
                                                                <path d="M7.88565794,0.317835737 C7.88565794,0.317835737 13.6493924,-0.757003537 16.1082333,3.56856915 C14.3632495,1.96941804 12.6447048,0.422698105 7.88565794,0.317835737 Z" id="Path" fill="#1A1A1A" fill-rule="nonzero"></path>
                                                                <path d="M16.3726248,3.85694066 C16.3726248,3.85694066 18.0382912,4.32882132 18.011852,7.10767407 C18.011852,7.86792624 17.297995,9.9913892 16.6105771,10.6992102 C17.0336035,9.51950854 18.6463916,6.60957783 16.3726248,3.85694066 Z" id="Path" fill="#1A1A1A" fill-rule="nonzero"></path>
                                                                <path d="M1.35518813,7.92035743 C1.35518813,7.92035743 1.61957962,2.51994547 8.89034561,2.20535836 C6.08779581,2.99182612 3.17948941,3.30641323 1.35518813,7.92035743 Z" id="Path" fill="#1A1A1A" fill-rule="nonzero"></path>
                                                                <path d="M16.1875507,5.56095414 C16.1875507,5.56095414 16.5312597,7.55333914 14.4954452,8.13008216 C14.8655933,7.89414184 16.0817942,7.23875203 16.1875507,5.56095414 Z" id="Path" fill="#1A1A1A" fill-rule="nonzero"></path>
                                                                <g id="Group" stroke-width="1" fill="none" fill-rule="evenodd" transform="translate(0.000000, 26.973118)">
                                                                    <path d="M2.33343664,0.110837163 C3.12661111,0.45163986 3.47032005,1.44783236 3.07373282,2.36537808 C2.67714558,3.2829238 1.69889707,3.72858886 0.905722593,3.41400176 C0.112548122,3.07319906 -0.231160816,2.07700657 0.16542642,1.15946084 C0.535574507,0.241915123 1.51382302,-0.229965533 2.33343664,0.110837163 Z" id="Path" fill="#FDD0A2" fill-rule="nonzero"></path>
                                                                    <path d="M0.482696209,2.70618077 C0.905722593,2.91590551 1.51382302,2.54888722 1.83109281,1.89349742 C2.1483626,1.23810762 2.06904515,0.530286636 1.67245792,0.3205619 C1.24943153,0.110837163 0.641331103,0.477855452 0.324061314,1.13324525 C0.00679152566,1.78863505 0.0596698238,2.49645604 0.482696209,2.70618077 Z" id="Path" fill="#333333" fill-rule="nonzero"></path>
                                                                </g>
                                                                <g id="Group" stroke-width="1" fill="none" fill-rule="evenodd" transform="translate(13.386336, 18.670074)">
                                                                    <path d="M3.48863251,5.76610638 C3.753024,5.79232197 3.99097635,5.71367519 4.22892869,5.58259723 C4.75771167,5.24179454 4.88990741,4.53397355 4.51975933,4.00966171 L2.08735761,0.496772378 C1.74364868,-0.0275394632 1.02979165,-0.158617423 0.501008671,0.208400865 C-0.0277743097,0.549203562 -0.159970055,1.25702455 0.210178032,1.78133639 L2.64257974,5.29422572 C2.85409294,5.55638164 3.17136273,5.73989078 3.48863251,5.76610638 Z" id="Path" fill="#E26B44" fill-rule="nonzero"></path>
                                                                    <path d="M2.64257974,4.76991388 C2.58970145,5.39908809 3.06560613,5.94961552 3.67370656,6.0020467 C4.30824614,6.05447789 4.86346827,5.58259723 4.91634656,4.97963862 C4.96922486,4.35046441 4.49332018,3.79993697 3.88521975,3.74750579 C3.25068017,3.66885901 2.69545804,4.14073967 2.64257974,4.76991388 Z" id="Path" fill="#FFFFFF" fill-rule="nonzero"></path>
                                                                    <path d="M3.64726741,3.74750579 C3.70014571,3.74750579 3.753024,3.74750579 3.8059023,3.69507461 C3.9116589,3.61642783 3.93809805,3.48534987 3.8587806,3.35427191 L1.77008783,0.339478825 C1.69077038,0.234616457 1.55857463,0.208400865 1.42637889,0.287047641 C1.32062229,0.365694417 1.29418314,0.496772378 1.37350059,0.627850338 L3.46219337,3.64264342 C3.51507166,3.69507461 3.59438911,3.74750579 3.64726741,3.74750579 Z" id="Path" fill="#1A1A1A" fill-rule="nonzero"></path>
                                                                </g>
                                                                <g id="Group" stroke-width="1" fill="none" fill-rule="evenodd" transform="translate(16.367268, 22.753071)">
                                                                    <path d="M4.15630276,4.59303967 C4.12986361,4.56682408 4.12986361,4.54060849 4.10342446,4.4881773 L1.56526615,0.398544944 C1.32731381,0.00531106331 0.798530826,-0.125766897 0.40194359,0.136389023 C0.00535635412,0.372329352 -0.126839391,0.896641193 0.137552099,1.28987507 L2.67571041,5.37950743 C2.91366275,5.77274131 3.44244573,5.90381927 3.83903297,5.64166335 C4.1827419,5.43193861 4.31493765,4.96005796 4.15630276,4.59303967 Z" id="Path" fill="#FDD0A2" fill-rule="nonzero"></path>
                                                                    <path d="M3.33668913,3.80657191 C3.33668913,3.78035632 3.33668913,3.78035632 3.33668913,3.80657191 L1.22155721,0.34611376 C1.14223976,0.241251392 1.01004402,0.188820208 0.904287422,0.267466984 C0.798530826,0.34611376 0.745652528,0.47719172 0.824969975,0.582054088 L2.9401019,4.01629664 C3.01941935,4.12115901 3.15161509,4.1735902 3.25737169,4.09494342 C3.33668913,4.04251224 3.38956743,3.91143428 3.33668913,3.80657191 Z" id="Path" fill="#262626" fill-rule="nonzero"></path>
                                                                </g>
                                                                <g id="Group" stroke-width="1" fill="none" fill-rule="evenodd" transform="translate(18.718918, 26.973118)">
                                                                    <path d="M0.905722593,0.110837163 C0.112548122,0.45163986 -0.231160816,1.44783236 0.16542642,2.36537808 C0.562013656,3.2829238 1.54026217,3.72858886 2.33343664,3.41400176 C3.12661111,3.07319906 3.47032005,2.07700657 3.07373282,1.15946084 C2.70358473,0.241915123 1.72533621,-0.229965533 0.905722593,0.110837163 Z" id="Path" fill="#FDD0A2" fill-rule="nonzero"></path>
                                                                    <path d="M2.75646303,2.70618077 C2.33343664,2.91590551 1.72533621,2.54888722 1.40806643,1.89349742 C1.09079664,1.23810762 1.17011408,0.530286636 1.56670132,0.3205619 C1.9897277,0.110837163 2.59782813,0.477855452 2.91509792,1.13324525 C3.23236771,1.78863505 3.17948941,2.49645604 2.75646303,2.70618077 Z" id="Path" fill="#333333" fill-rule="nonzero"></path>
                                                                </g>
                                                            </g>
                                                        </g>
                                                    </g>
                                                </g>
                                                <g opacity="0.491024926" transform="translate(13.483966, 8.274739)" fill="#8C8886" fill-rule="nonzero">
                                                    <path d="M1.53347065,0.03276949 C2.16801022,0.03276949 2.82898895,0.373572187 2.96118469,1.16003995 C2.6967932,1.16003995 2.45884086,1.16003995 2.19444937,1.16003995 C2.08869278,0.845452843 1.85074043,0.714374883 1.53347065,0.714374883 C1.08400511,0.714374883 0.793174472,1.05517758 0.793174472,1.55327383 C0.793174472,1.99893889 1.08400511,2.36595718 1.53347065,2.39217277 C1.85074043,2.39217277 2.11513192,2.23487922 2.19444937,1.92029212 C2.45884086,1.92029212 2.6967932,1.92029212 2.96118469,1.92029212 C2.8554281,2.75919106 2.16801022,3.09999376 1.53347065,3.09999376 C0.766735323,3.09999376 0,2.60189751 0,1.57948942 C0,0.530865739 0.766735323,0.03276949 1.53347065,0.03276949 Z" id="Path"></path>
                                                    <path d="M6.10744343,2.94270021 L6.10744343,3.04756257 L5.23495151,3.04756257 L4.70616853,2.15623244 L4.3095813,2.15623244 L4.3095813,3.04756257 C4.04518981,3.04756257 3.78079831,3.04756257 3.54284597,3.04756257 C3.54284597,2.05137008 3.54284597,1.05517758 3.54284597,0.0589850821 C3.96587236,0.0589850821 4.41533789,0.0589850821 4.86480343,0.0589850821 C6.05456513,0.0589850821 6.26607833,1.47462705 5.499343,1.99893889 L6.10744343,2.94270021 Z M4.86480343,0.740590475 C4.67972938,0.740590475 4.49465534,0.740590475 4.3095813,0.740590475 C4.3095813,0.976530803 4.3095813,1.23868672 4.3095813,1.47462705 L4.86480343,1.47462705 C5.28782981,1.50084264 5.31426896,0.740590475 4.86480343,0.740590475 Z" id="Shape"></path>
                                                    <path d="M8.43408855,0.740590475 C7.98462301,0.740590475 7.77310982,0.740590475 7.32364429,0.740590475 L7.32364429,1.16003995 L8.3547711,1.16003995 C8.3547711,1.39598028 8.3547711,1.60570501 8.3547711,1.84164534 L7.32364429,1.84164534 C7.32364429,2.02515448 7.32364429,2.18244804 7.32364429,2.36595718 C7.77310982,2.36595718 8.03750131,2.36595718 8.48696685,2.36595718 C8.48696685,2.57568192 8.48696685,2.81162225 8.48696685,3.04756257 C7.77310982,3.04756257 7.27076599,3.04756257 6.55690897,3.04756257 C6.55690897,2.05137008 6.55690897,1.05517758 6.55690897,0.0589850821 C7.24432684,0.0589850821 7.72023152,0.0589850821 8.43408855,0.0589850821 C8.43408855,0.29492541 8.43408855,0.504650147 8.43408855,0.740590475 Z" id="Path"></path>
                                                    <path d="M10.284829,3.04756257 L9.14794557,3.04756257 L9.14794557,0.0589850821 L10.284829,0.0589850821 C12.241326,0.0852006741 12.241326,3.04756257 10.284829,3.04756257 Z M9.91468089,2.36595718 L10.284829,2.36595718 C11.2366383,2.36595718 11.2366383,0.766806067 10.284829,0.766806067 L9.91468089,0.766806067 L9.91468089,2.36595718 Z" id="Shape"></path>
                                                    <polygon id="Path" points="13.6161618 2.39217277 13.6161618 3.07377817 12.0826911 3.07377817 12.0826911 2.39217277 12.4528392 2.39217277 12.4528392 0.740590475 12.1091303 0.740590475 12.1091303 0.0852006741 13.5632835 0.0852006741 13.5632835 0.740590475 13.2195745 0.740590475 13.2195745 2.39217277"></polygon>
                                                    <path d="M13.827675,0.740590475 C13.827675,0.504650147 13.827675,0.29492541 13.827675,0.0589850821 L16.0750026,0.0589850821 C16.0750026,0.29492541 16.0750026,0.504650147 16.0750026,0.740590475 L15.3347065,0.740590475 L15.3347065,3.04756257 C15.070315,3.04756257 14.8323626,3.04756257 14.5679711,3.04756257 L14.5679711,0.740590475 L13.827675,0.740590475 Z" id="Path"></path>
                                                    <path d="M19.1948222,2.18244804 C19.1948222,1.9727233 18.9568699,1.92029212 18.6396001,1.92029212 C17.9786214,1.86786093 17.555595,1.6581362 17.555595,1.0027464 C17.5291558,-0.281817614 19.8822401,-0.281817614 19.8558009,1.0027464 C19.5914094,1.0027464 19.3798963,1.0027464 19.1155048,1.0027464 C19.1155048,0.609512515 18.2958911,0.635728107 18.269452,1.0027464 C18.2430128,1.23868672 18.4809652,1.26490232 18.7453567,1.3173335 C19.3534571,1.36976468 19.9351184,1.47462705 19.9351184,2.20866363 C19.9351184,3.46701205 17.4762775,3.49322764 17.5027167,2.18244804 C17.7671082,2.18244804 17.9786214,2.18244804 18.2430128,2.18244804 C18.2430128,2.52325073 19.1948222,2.52325073 19.1948222,2.18244804 Z" id="Path"></path>
                                                    <path d="M21.8651763,0.03276949 C22.4997158,0.03276949 23.1606946,0.373572187 23.2928903,1.16003995 C23.0284988,1.16003995 22.7905465,1.16003995 22.526155,1.16003995 C22.4203984,0.845452843 22.1824461,0.714374883 21.8651763,0.714374883 C21.4157107,0.714374883 21.1248801,1.05517758 21.1248801,1.55327383 C21.1248801,1.99893889 21.4157107,2.36595718 21.8651763,2.39217277 C22.1824461,2.39217277 22.4468375,2.23487922 22.526155,1.92029212 C22.7905465,1.92029212 23.0284988,1.92029212 23.2928903,1.92029212 C23.1871337,2.75919106 22.4997158,3.09999376 21.8651763,3.09999376 C21.0984409,3.09999376 20.3317056,2.60189751 20.3317056,1.57948942 C20.3317056,0.530865739 21.0984409,0.03276949 21.8651763,0.03276949 Z" id="Path"></path>
                                                    <path d="M23.6894776,1.55327383 C23.6894776,-0.517757943 26.782858,-0.517757943 26.782858,1.55327383 C26.782858,3.6243056 23.6894776,3.6243056 23.6894776,1.55327383 Z M25.9896835,1.55327383 C25.9896835,0.478434555 24.482652,0.478434555 24.482652,1.55327383 C24.482652,2.65432869 25.9896835,2.65432869 25.9896835,1.55327383 Z" id="Shape"></path>
                                                    <path d="M29.9026776,2.94270021 L29.9026776,3.04756257 L29.0301857,3.04756257 L28.5014027,2.15623244 L28.1048154,2.15623244 L28.1048154,3.04756257 C27.840424,3.04756257 27.5760325,3.04756257 27.3380801,3.04756257 C27.3380801,2.05137008 27.3380801,1.05517758 27.3380801,0.0589850821 C27.7611065,0.0589850821 28.210572,0.0589850821 28.6600376,0.0589850821 C29.8497993,0.0589850821 30.0613125,1.47462705 29.2945772,1.99893889 L29.9026776,2.94270021 Z M28.6864767,0.740590475 C28.5014027,0.740590475 28.3163286,0.740590475 28.1312546,0.740590475 C28.1312546,0.976530803 28.1312546,1.23868672 28.1312546,1.47462705 L28.6864767,1.47462705 C29.1095031,1.50084264 29.1095031,0.740590475 28.6864767,0.740590475 Z" id="Shape"></path>
                                                    <path d="M32.2557618,0.740590475 C31.8062963,0.740590475 31.5947831,0.740590475 31.1453176,0.740590475 L31.1453176,1.16003995 L32.1764444,1.16003995 C32.1764444,1.39598028 32.1764444,1.60570501 32.1764444,1.84164534 L31.1453176,1.84164534 C31.1453176,2.02515448 31.1453176,2.18244804 31.1453176,2.36595718 C31.5947831,2.36595718 31.8591746,2.36595718 32.3086401,2.36595718 C32.3086401,2.57568192 32.3086401,2.81162225 32.3086401,3.04756257 C31.5947831,3.04756257 31.0924393,3.04756257 30.3785823,3.04756257 C30.3785823,2.05137008 30.3785823,1.05517758 30.3785823,0.0589850821 C31.0660001,0.0589850821 31.5419048,0.0589850821 32.2557618,0.0589850821 C32.2557618,0.29492541 32.2557618,0.504650147 32.2557618,0.740590475 Z" id="Path"></path>
                                                </g>
                                                <path d="M55.2313824,18.5039568 L30.3521431,18.5039568 C29.981995,18.5039568 29.6911644,18.2155853 29.6911644,17.848567 L29.6911644,17.848567 C29.6911644,17.4815487 29.981995,17.1931772 30.3521431,17.1931772 L55.2313824,17.1931772 C55.6015305,17.1931772 55.8923611,17.4815487 55.8923611,17.848567 L55.8923611,17.848567 C55.8923611,18.2155853 55.6015305,18.5039568 55.2313824,18.5039568 Z" id="Path" fill="#66A9A9" fill-rule="nonzero"></path>
                                                <path d="M55.2313824,20.8633601 L30.3521431,20.8633601 C29.981995,20.8633601 29.6911644,20.5749886 29.6911644,20.2079703 L29.6911644,20.2079703 C29.6911644,19.840952 29.981995,19.5525805 30.3521431,19.5525805 L55.2313824,19.5525805 C55.6015305,19.5525805 55.8923611,19.840952 55.8923611,20.2079703 L55.8923611,20.2079703 C55.8923611,20.5749886 55.6015305,20.8633601 55.2313824,20.8633601 Z" id="Path" fill="#66A9A9" fill-rule="nonzero"></path>
                                                <path d="M55.2313824,23.248979 L30.3521431,23.248979 C29.981995,23.248979 29.6911644,22.9606074 29.6911644,22.5935892 L29.6911644,22.5935892 C29.6911644,22.2265709 29.981995,21.9381994 30.3521431,21.9381994 L55.2313824,21.9381994 C55.6015305,21.9381994 55.8923611,22.2265709 55.8923611,22.5935892 L55.8923611,22.5935892 C55.8923611,22.9343919 55.6015305,23.248979 55.2313824,23.248979 Z" id="Path" fill="#F0F0F0" fill-rule="nonzero"></path>
                                                <path d="M55.2313824,25.7132446 L30.3521431,25.7132446 C29.981995,25.7132446 29.6911644,25.4248731 29.6911644,25.0578548 L29.6911644,25.0578548 C29.6911644,24.6908365 29.981995,24.402465 30.3521431,24.402465 L55.2313824,24.402465 C55.6015305,24.402465 55.8923611,24.6908365 55.8923611,25.0578548 L55.8923611,25.0578548 C55.8923611,25.3986575 55.6015305,25.7132446 55.2313824,25.7132446 Z" id="Path" fill="#F0F0F0" fill-rule="nonzero"></path>
                                                <path d="M55.2313824,28.0726479 L30.3521431,28.0726479 C29.981995,28.0726479 29.6911644,27.7842764 29.6911644,27.4172581 L29.6911644,27.4172581 C29.6911644,27.0502398 29.981995,26.7618683 30.3521431,26.7618683 L55.2313824,26.7618683 C55.6015305,26.7618683 55.8923611,27.0502398 55.8923611,27.4172581 L55.8923611,27.4172581 C55.8923611,27.7842764 55.6015305,28.0726479 55.2313824,28.0726479 Z" id="Path" fill="#F0F0F0" fill-rule="nonzero"></path>
                                                <path d="M55.2313824,39.8172331 L30.3521431,39.8172331 C29.981995,39.8172331 29.6911644,39.5288616 29.6911644,39.1618433 L29.6911644,39.1618433 C29.6911644,38.794825 29.981995,38.5064535 30.3521431,38.5064535 L55.2313824,38.5064535 C55.6015305,38.5064535 55.8923611,38.794825 55.8923611,39.1618433 L55.8923611,39.1618433 C55.8923611,39.502646 55.6015305,39.8172331 55.2313824,39.8172331 Z" id="Path" fill="#F0F0F0" fill-rule="nonzero"></path>
                                                <path d="M55.2313824,37.4840454 L30.3521431,37.4840454 C29.981995,37.4840454 29.6911644,37.1956739 29.6911644,36.8286556 L29.6911644,36.8286556 C29.6911644,36.4616373 29.981995,36.1732658 30.3521431,36.1732658 L55.2313824,36.1732658 C55.6015305,36.1732658 55.8923611,36.4616373 55.8923611,36.8286556 L55.8923611,36.8286556 C55.8923611,37.1956739 55.6015305,37.4840454 55.2313824,37.4840454 Z" id="Path" fill="#F0F0F0" fill-rule="nonzero"></path>
                                                <path d="M55.2313824,42.1766364 L30.3521431,42.1766364 C29.981995,42.1766364 29.6911644,41.8882649 29.6911644,41.5212466 L29.6911644,41.5212466 C29.6911644,41.1542283 29.981995,40.8658568 30.3521431,40.8658568 L55.2313824,40.8658568 C55.6015305,40.8658568 55.8923611,41.1542283 55.8923611,41.5212466 L55.8923611,41.5212466 C55.8923611,41.8882649 55.6015305,42.1766364 55.2313824,42.1766364 Z" id="Path" fill="#F0F0F0" fill-rule="nonzero"></path>
                                                <g transform="translate(6.292517, 54.021833)">
                                                    <g transform="translate(2.696793, 2.464266)">
                                                        <g id="SVGID_00000062908368810219732070000005872901272228845485_-link" fill="#F0F0F0" fill-rule="nonzero">
                                                            <path d="M8.98931068,16.4896074 C10.3905856,11.9805256 14.6208494,8.70357656 19.6178486,8.70357656 C24.6148478,8.70357656 28.8451116,11.9805256 30.2463865,16.4896074 L39.2356972,16.4896074 C37.6757874,7.13064103 29.4796512,0 19.6178486,0 C9.756046,0 1.55990979,7.13064103 0,16.4896074 L8.98931068,16.4896074 Z" id="SVGID_00000062908368810219732070000005872901272228845485_"></path>
                                                        </g>
                                                        <g id="Clipped">
                                                            <mask id="mask-6" fill="white">
                                                                <use xlink:href="#path-5"></use>
                                                            </mask>
                                                            <g id="SVGID_00000062908368810219732070000005872901272228845485_"></g>
                                                            <g id="Group" mask="url(#mask-6)" fill-rule="nonzero">
                                                                <g transform="translate(-1.242640, -2.726422)" id="Path">
                                                                    <polygon fill="#EEC94D" points="20.8604886 0 20.8604886 14.5758692 16.3922724 16.6993321 4.81192513 7.20928781"></polygon>
                                                                    <polygon fill="#97CE88" points="20.8604886 0 20.8604886 14.5758692 25.3287048 16.6993321 36.9090521 7.20928781"></polygon>
                                                                    <polygon fill="#C94639" points="10.2319507 19.216029 0 19.216029 5.12919492 7.47144373 15.6784154 16.1225891"></polygon>
                                                                    <polygon fill="#6FB459" points="31.4625874 19.216029 41.6945381 19.216029 36.5653431 7.47144373 26.0161227 16.1225891"></polygon>
                                                                </g>
                                                            </g>
                                                        </g>
                                                    </g>
                                                    <path d="M14.5727782,19.4788934 L14.5727782,19.4788934 L24.6725332,14.943596 C24.989803,14.7863024 24.8311681,14.3144218 24.4874591,14.3930686 L13.647408,16.7262562 L13.647408,16.7262562 C13.5416514,16.7262562 13.4358948,16.7524718 13.3301382,16.804903 C12.5369638,17.0670589 12.1139374,17.9059579 12.3783289,18.6924257 C12.6427204,19.4788934 13.4887731,19.8983429 14.2819476,19.636187 C14.3612651,19.5837558 14.4670217,19.5313246 14.5727782,19.4788934 Z" id="Path" fill="#8C8886" fill-rule="nonzero" transform="translate(18.571835, 17.049253) scale(-1, 1) translate(-18.571835, -17.049253) "></path>
                                                    <path d="M38.7333534,7.20928781 C38.7333534,7.20928781 43.7832308,11.95431 44.1269398,18.953873" id="Path" stroke="#6FB459" stroke-width="1.23291353" stroke-linecap="round"></path>
                                                    <path d="M5.39358641,7.20928781 C5.39358641,7.20928781 0.343708938,11.95431 0,18.953873" id="Path" stroke="#C94639" stroke-width="1.23291353" stroke-linecap="round"></path>
                                                    <g transform="translate(4.970560, 15.644155)" fill="#FFFFFF" fill-rule="nonzero" id="Shape">
                                                        <path d="M0,1.50084264 C0,1.0027464 0,0.530865739 0,0.03276949 C0.211513192,0.03276949 0.423026385,0.03276949 0.660978726,0.03276949 C1.37483575,0.03276949 1.37483575,1.13382436 0.660978726,1.13382436 L0.396587236,1.13382436 L0.396587236,1.50084264 C0.264391491,1.50084264 0.132195745,1.50084264 0,1.50084264 Z M0.660978726,0.373572187 C0.581661279,0.373572187 0.475904683,0.373572187 0.396587236,0.373572187 C0.396587236,0.504650147 0.396587236,0.661943699 0.396587236,0.793021659 L0.660978726,0.793021659 C0.872491919,0.793021659 0.872491919,0.373572187 0.660978726,0.373572187 Z"></path>
                                                        <path d="M1.37483575,0.766806067 C1.37483575,-0.255602022 2.88186725,-0.255602022 2.88186725,0.766806067 C2.9083064,1.78921416 1.37483575,1.78921416 1.37483575,0.766806067 Z M2.51171916,0.766806067 C2.51171916,0.242494226 1.77142299,0.242494226 1.77142299,0.766806067 C1.77142299,1.29111791 2.51171916,1.29111791 2.51171916,0.766806067 Z"></path>
                                                        <path d="M3.09338044,0.766806067 C3.09338044,-0.255602022 4.60041194,-0.255602022 4.60041194,0.766806067 C4.60041194,1.78921416 3.09338044,1.78921416 3.09338044,0.766806067 Z M4.23026385,0.766806067 C4.23026385,0.242494226 3.48996768,0.242494226 3.48996768,0.766806067 C3.48996768,1.29111791 4.23026385,1.29111791 4.23026385,0.766806067 Z"></path>
                                                        <path d="M6.13388258,1.44841146 L6.13388258,1.50084264 L5.7108562,1.50084264 L5.4464647,1.08139317 L5.26139066,1.08139317 L5.26139066,1.50084264 C5.12919492,1.50084264 4.99699917,1.50084264 4.89124257,1.50084264 C4.89124257,1.0027464 4.89124257,0.530865739 4.89124257,0.03276949 C5.10275577,0.03276949 5.31426896,0.03276949 5.5522213,0.03276949 C6.13388258,0.03276949 6.23963918,0.740590475 5.86949109,0.976530803 L6.13388258,1.44841146 Z M5.5522213,0.373572187 C5.47290385,0.373572187 5.36714726,0.373572187 5.28782981,0.373572187 C5.28782981,0.504650147 5.28782981,0.609512515 5.28782981,0.740590475 L5.5522213,0.740590475 C5.73729534,0.714374883 5.76373449,0.373572187 5.5522213,0.373572187 Z"></path>
                                                    </g>
                                                    <g transform="translate(33.736354, 15.644155)" fill="#FFFFFF" fill-rule="nonzero">
                                                        <path d="M0.793174472,0.00655389801 C1.08400511,0.00655389801 1.4012749,0.16384745 1.48059235,0.530865739 L1.11044426,0.530865739 C1.05756596,0.399787779 0.951809366,0.347356594 0.793174472,0.347356594 C0.55522213,0.347356594 0.423026385,0.530865739 0.423026385,0.766806067 C0.423026385,1.0027464 0.55522213,1.16003995 0.793174472,1.16003995 C0.951809366,1.16003995 1.03112681,1.10760876 1.11044426,0.976530803 L0.793174472,0.976530803 L0.793174472,0.661943699 L1.48059235,0.661943699 C1.48059235,0.819237251 1.48059235,0.950315211 1.42771405,1.08139317 C1.32195745,1.39598028 1.03112681,1.50084264 0.766735323,1.50084264 C0.396587236,1.50084264 0,1.23868672 0,0.740590475 C0.0264391491,0.268709818 0.423026385,0.00655389801 0.793174472,0.00655389801 Z" id="Path"></path>
                                                        <path d="M1.69210554,0.766806067 C1.69210554,-0.255602022 3.19913704,-0.255602022 3.19913704,0.766806067 C3.22557618,1.78921416 1.69210554,1.78921416 1.69210554,0.766806067 Z M2.82898895,0.766806067 C2.82898895,0.242494226 2.08869278,0.242494226 2.08869278,0.766806067 C2.08869278,1.29111791 2.82898895,1.29111791 2.82898895,0.766806067 Z" id="Shape"></path>
                                                        <path d="M3.41065023,0.766806067 C3.41065023,-0.255602022 4.91768172,-0.255602022 4.91768172,0.766806067 C4.91768172,1.78921416 3.41065023,1.78921416 3.41065023,0.766806067 Z M4.54753364,0.766806067 C4.54753364,0.242494226 3.80723746,0.242494226 3.80723746,0.766806067 C3.80723746,1.29111791 4.54753364,1.29111791 4.54753364,0.766806067 Z" id="Shape"></path>
                                                        <path d="M5.76373449,1.50084264 L5.20851236,1.50084264 L5.20851236,0.03276949 L5.76373449,0.03276949 C6.74198301,0.03276949 6.74198301,1.50084264 5.76373449,1.50084264 Z M5.6050996,1.16003995 L5.79017364,1.16003995 C6.26607833,1.16003995 6.26607833,0.373572187 5.79017364,0.373572187 L5.6050996,0.373572187 L5.6050996,1.16003995 Z" id="Shape"></path>
                                                    </g>
                                                    <path d="M7.21788769,5.55770551 C9.12150642,3.85369203 14.0391881,0.209724736 21.1777584,0.0786467761" id="Path" stroke="#EEC94D" stroke-width="1.23291353" stroke-linecap="round"></path>
                                                    <path d="M37.1205653,5.66256788 C35.2433857,3.93233881 30.3785823,0.209724736 23.2135729,0" id="Path" stroke="#97CE88" stroke-width="1.23291353" stroke-linecap="round"></path>
                                                </g>
                                            </g>
                                            <path d="M23.7423558,77.9913863 L32.0706878,79.6953998 L39.4736495,43.9373323 C39.9495542,41.6565757 38.4689619,39.4282504 36.1687559,38.9563698 L36.1687559,38.9563698 C33.8685499,38.4844891 31.6212223,39.9525623 31.1453176,42.2333188 L23.7423558,77.9913863 Z" id="Path" fill="#FDD0A2" fill-rule="nonzero"></path>
                                            <path d="M23.0205352,45.3267586 C22.6768263,45.7986393 22.3331174,46.2705199 21.9629693,46.716185 C21.6192603,47.1880657 21.2491122,47.6337307 20.9054033,48.1056114 C20.1915463,49.0231571 19.4776893,49.9407028 18.7373931,50.8582485 C18.0235361,51.7757943 17.2832399,52.6671244 16.5429437,53.5846701 C16.1727956,54.0303352 15.8026475,54.5022158 15.4324994,54.9478809 L14.3220552,56.2848761 L14.295616,56.3110917 L14.2162986,56.3635229 C14.1369811,56.4159541 14.0312245,56.5208164 13.9519071,56.5994632 C13.8725897,56.7043256 13.7668331,56.7829723 13.6875156,56.8878347 C13.6081982,56.9926971 13.5288807,57.0975595 13.4495633,57.2024218 C13.3702458,57.3072842 13.2909284,57.4121466 13.2116109,57.5170089 C12.9207803,57.962674 12.6563888,58.4083391 12.4713148,58.9064353 C12.2598016,59.4045316 12.154045,59.9026278 12.0482884,60.4269396 C11.9954101,60.6890956 11.9689709,60.9512515 11.9425318,61.2134074 C11.9160926,61.4755633 11.9160926,61.7639348 11.9160926,62.0260908 C11.9160926,62.5766182 11.9425318,63.10093 12.0218492,63.6514575 L12.0747275,64.0446913 L12.154045,64.4641408 L12.2862407,65.3030398 C12.3655582,65.8797828 12.4713148,66.4303102 12.5241931,67.0070532 L12.7357062,68.7110667 L12.9472194,70.4150802 C13.0265369,70.9918232 13.0794152,71.5423507 13.1322935,72.1190937 L13.3173675,73.8231072 C13.3702458,74.3998502 13.4231241,74.9503776 13.4760024,75.5271207 C13.581759,76.6543911 13.6875156,77.8078772 13.7668331,78.9613632 C13.8197114,79.5381062 13.8461505,80.1148493 13.8725897,80.6653767 C13.8990288,81.2421197 13.925468,81.8188627 13.9519071,82.3693902 C13.8461505,81.8188627 13.7139548,81.2421197 13.6346373,80.6915923 L13.3173675,79.0137944 C13.1058543,77.8865239 12.9207803,76.7592535 12.7357062,75.631983 L12.4448756,73.9279695 L12.1804841,72.2239561 L11.625262,68.8421447 L11.0700399,65.4603333 L10.9378441,64.6214344 L10.8585267,64.2019849 L10.8056484,63.7563198 C10.6998918,63.1795768 10.6734526,62.5766182 10.6734526,61.9736596 C10.6998918,61.6590725 10.6998918,61.370701 10.7263309,61.0561139 C10.7792092,60.7677423 10.8056484,60.4531552 10.8585267,60.1647837 C10.9907224,59.5618251 11.1229182,58.9850821 11.3873096,58.4083391 C11.625262,57.831596 11.9160926,57.2810686 12.2862407,56.7829723 C12.3655582,56.6518944 12.4713148,56.5208164 12.5770714,56.4159541 C12.6828279,56.2848761 12.7885845,56.1800137 12.8943411,56.0751514 C13.0000977,55.970289 13.1058543,55.839211 13.2380501,55.7343487 C13.3702458,55.6294863 13.4760024,55.5246239 13.6346373,55.4197616 L13.5288807,55.5246239 L14.6922033,54.2138443 C15.0887905,53.7681793 15.4853777,53.3487298 15.8555258,52.9292803 C16.6487003,52.0641658 17.4154356,51.1990512 18.2086101,50.3601523 C19.0017846,49.4950378 19.794959,48.6561388 20.6145727,47.8172399 C21.0111599,47.3977904 21.4341863,46.9783409 21.8307735,46.5588915 C22.1744825,46.139442 22.5975088,45.7462081 23.0205352,45.3267586 Z" id="Path" fill="#E6E6E6" fill-rule="nonzero"></path>
                                            <path d="M26.2276359,42.731415 L13.2195745,57.0189127 C13.2195745,57.0189127 11.6067864,58.7229262 11.6861039,61.239623 C11.7918605,63.7563198 15.4140239,89.3427377 15.4140239,89.3427377 L9.67672855,101.192185 L28.5278418,103.237001 L29.6118469,93.7731727 C29.6118469,93.7731727 34.7146027,82.7888396 34.7146027,79.2235191 C34.7146027,75.6581986 29.0037465,65.9584296 29.0037465,65.9584296 L26.2276359,42.731415 Z" id="Path" fill="#FDD0A2" fill-rule="nonzero"></path>
                                            <g transform="translate(0.000000, 89.859453)" fill-rule="nonzero">
                                                <polygon id="Rectangle" fill="#E4E7E2" transform="translate(21.726118, 5.998040) rotate(-163.912148) translate(-21.726118, -5.998040) " points="10.6871953 3.80633908 32.7751003 3.75657898 32.7650412 8.18974026 10.6771362 8.23950036"></polygon>
                                                <path d="M11.4745907,1.63296271 L32.7052274,7.71498006 C33.1546929,7.84605802 33.6041584,7.5839021 33.7363542,7.13823704 C33.8685499,6.69257197 33.6041584,6.24690691 33.1546929,6.11582895 L11.9240562,0.033811596 C11.4745907,-0.0972663642 11.0251252,0.164889556 10.8929294,0.610554621 C10.7871728,1.05621969 11.0515643,1.50188475 11.4745907,1.63296271 Z" id="Path" fill="#ECF0EA"></path>
                                            </g>
                                            <g transform="translate(31.568344, 39.834605)" fill="#FDD0A2" fill-rule="nonzero" id="Path">
                                                <path d="M0,5.09891987 L6.13388258,6.35726829 L6.71554386,3.60463113 C7.0592528,2.00548001 6.02812598,0.458760084 4.41533789,0.117957388 L4.0980681,0.0655262035 C2.48528001,-0.275276493 0.925370217,0.747131596 0.581661279,2.34628271 L0,5.09891987 Z" opacity="0.5"></path>
                                                <path d="M6.13388258,6.35726829 L0,5.09891987 C0,5.09891987 3.64860257,3.34247521 6.13388258,6.35726829 Z" opacity="0.3"></path>
                                            </g>
                                            <path d="M27.2587627,61.6590725 C27.496715,61.7115037 27.7082282,61.5542101 27.7611065,61.3182698 L31.7269789,42.1284564 C32.1235661,40.2147182 34.0007457,39.0088009 35.9043644,39.3758192 C37.8344223,39.7690531 39.0506232,41.6303602 38.6804751,43.5178828 C38.6275968,43.7538231 38.7862317,43.9635478 39.024184,44.015979 C39.2621363,44.0684102 39.4736495,43.9111167 39.5265278,43.6751763 C40.0024325,41.315773 38.4689619,39.0088009 36.0894385,38.5369203 C33.709915,38.0650396 31.3832699,39.585544 30.9073652,41.9449473 L26.9414929,61.1347606 C26.8886146,61.3969165 27.0208103,61.6066413 27.2587627,61.6590725 Z" id="Path" fill="#F0C599" fill-rule="nonzero"></path>
                                            <path d="M34.7410419,53.3749454 L31.568344,52.7195556 C31.3303916,52.6671244 31.1717567,52.4311841 31.224635,52.1690282 L31.224635,52.1690282 C31.2775133,51.9330878 31.5154657,51.7757943 31.7798572,51.8282255 L34.952555,52.4836153 C35.1905074,52.5360464 35.3491423,52.7719868 35.296264,53.0341427 L35.296264,53.0341427 C35.2433857,53.270083 35.0054333,53.4273766 34.7410419,53.3749454 Z" id="Path" fill="#D8D8D8" fill-rule="nonzero" opacity="0.3"></path>
                                            <polygon id="Path" fill="#FDD0A2" fill-rule="nonzero" points="36.4067082 58.670495 34.7410419 79.2497347 24.482652 87.1668435 26.9150537 68.1605393"></polygon>
                                        </g>
                                    </g>
                                </g>
                            </g>
                        </g>
                    </g>
                </g>
            </g>
        </g>
    </g>
</svg>