<?xml version="1.0" encoding="UTF-8"?>
<svg width="16px" height="16px" viewBox="0 0 16 16" version="1.1" xmlns="http://www.w3.org/2000/svg" xmlns:xlink="http://www.w3.org/1999/xlink">
    <title>D6B31D56-433B-4003-9F83-4958600FD700</title>
    <g id="Final---Credit-plus-with-Old-bureau-Dashboard-design" stroke="none" stroke-width="1" fill="none" fill-rule="evenodd">
        <g id="Desktop---Rectification-(active)" transform="translate(-468.000000, -847.000000)" fill="#D90368">
            <g id="Group-71" transform="translate(442.000000, 559.000000)">
                <g id="Group-91" transform="translate(24.000000, 32.382166)">
                    <g id="Group-14" transform="translate(0.000000, 253.617834)">
                        <path d="M10,2 C14.416,2 18,5.584 18,10 C18,14.416 14.416,18 10,18 C5.584,18 2,14.416 2,10 C2,5.584 5.584,2 10,2 Z M10,3.33333333 C6.32,3.33333333 3.33333333,6.32 3.33333333,10 C3.33333333,13.68 6.32,16.6666667 10,16.6666667 C13.68,16.6666667 16.6666667,13.68 16.6666667,10 C16.6666667,6.32 13.68,3.33333333 10,3.33333333 Z M13.2777723,8.04632977 C13.5296315,8.28866375 13.5296315,8.68264559 13.2777723,8.92497957 L9.43840467,12.6191286 C9.1943943,12.8600891 8.7879754,12.8600891 8.5387995,12.6203369 L6.72222771,10.872467 C6.47036854,10.630133 6.47036854,10.2361511 6.72222771,9.99381716 C6.97119431,9.75426636 7.37162669,9.75426636 7.62042676,9.99365721 L8.99066667,11.3066667 L12.3794067,8.04632977 C12.6283733,7.80677897 13.0288057,7.80677897 13.2777723,8.04632977 Z" id="Combined-Shape"></path>
                    </g>
                </g>
            </g>
        </g>
    </g>
</svg>