<?xml version="1.0" encoding="UTF-8"?>
<svg width="26px" height="22px" viewBox="0 0 26 22" version="1.1" xmlns="http://www.w3.org/2000/svg" xmlns:xlink="http://www.w3.org/1999/xlink">
    <title>809A71CC-7867-4E38-85AC-A2C0C974B06B@2x</title>
    <g id="Credit-Advisory-&amp;-Rectification-Copy" stroke="none" stroke-width="1" fill="none" fill-rule="evenodd">
        <g id="Desktop---Rectification-" transform="translate(-465.000000, -672.000000)">
            <g id="Group-71" transform="translate(442.000000, 493.000000)">
                <g id="Group-91" transform="translate(24.000000, 32.000000)">
                    <g id="icon" transform="translate(0.000000, 148.000000)">
                        <g id="Group-20" transform="translate(0.000000, 2.000000)" stroke="#052F5F" stroke-width="1.2">
                            <polygon id="Path-2" stroke-linejoin="round" points="0 9 18 9 18 6.65217391 9 2.47801779e-13 0 6.26086957"></polygon>
                            <line x1="-2.72350077e-13" y1="17.6086957" x2="18" y2="17.6086957" id="Path-3" stroke-linecap="round"></line>
                            <line x1="2.73913043" y1="9" x2="2.73913043" y2="17.6086957" id="Path-4"></line>
                            <line x1="9" y1="9" x2="9" y2="17.6086957" id="Path-4"></line>
                            <line x1="15.2608696" y1="9" x2="15.2608696" y2="17.6086957" id="Path-4"></line>
                        </g>
                        <g id="noun_Discount_4185930" transform="translate(10.000000, 0.000000)" fill-rule="nonzero">
                            <g id="Group">
                                <ellipse id="Oval" fill="#000000" cx="5.07602314" cy="5.13316557" rx="1" ry="1"></ellipse>
                                <ellipse id="Oval" fill="#000000" cx="8.92119855" cy="8.86645018" rx="1" ry="1"></ellipse>
                                <path d="M13.8555199,4.8368361 C13.6176025,4.12100018 13.095761,3.52668228 12.4054081,3.18532432 C12.15022,1.64089563 10.6572175,0.587259797 9.06539263,0.828221752 C7.92357482,-0.276073917 6.0770114,-0.276073917 4.93519359,0.828221752 C3.34190579,0.585282752 1.84647858,1.63962489 1.59133292,3.18579098 C0.157578873,3.89978627 -0.411830612,5.604829 0.31761857,6.99980787 C-0.411691263,8.39550803 0.159163208,10.1010161 1.59421681,10.8138248 C1.84920273,12.357386 3.3407005,13.4109264 4.93182906,13.171394 C6.07342884,14.276202 7.92042832,14.276202 9.0620281,13.171394 C10.6546047,13.4137567 12.1490471,12.3597114 12.4039662,10.8142914 C13.8396226,10.1017989 14.4111442,8.39601561 13.6820064,6.99980787 C14.0341386,6.33000054 14.0965899,5.55150095 13.8555199,4.8368361 Z" id="Path" stroke="#052F5F" stroke-width="1.2" fill="#FFFFFF"></path>
                                <path d="M3.63408236,5.13316557 C3.63408236,4.35997701 4.27966124,3.73318384 5.07602314,3.73318384 C5.87238504,3.73318384 6.51796392,4.35997701 6.51796392,5.13316557 C6.51796392,5.90635413 5.87238504,6.5331473 5.07602314,6.5331473 C4.27966124,6.5331473 3.63408236,5.90635413 3.63408236,5.13316557 Z" id="Path" fill="#BF10ED"></path>
                                <path d="M5.47592138,10.058768 C5.38061756,10.1974805 5.21633301,10.2762916 5.04495215,10.265514 C4.87357129,10.2547365 4.72113094,10.1560075 4.64505391,10.0065174 C4.56897688,9.85702734 4.58082107,9.67948722 4.6761249,9.54077471 L8.52130031,3.9408478 C8.61660414,3.80213529 8.78088868,3.72332412 8.95226954,3.7341017 C9.1236504,3.74487928 9.27609075,3.84360823 9.35216778,3.99309832 C9.42824481,4.1425884 9.41640062,4.32012853 9.32109679,4.45884104 L5.47592138,10.058768 Z" id="Path" fill="#BF10ED"></path>
                                <path d="M8.92119855,10.2664319 C8.12483665,10.2664319 7.47925777,9.63963874 7.47925777,8.86645018 C7.47925777,8.09326162 8.12483665,7.46646845 8.92119855,7.46646845 C9.71756045,7.46646845 10.3631393,8.09326162 10.3631393,8.86645018 C10.3631393,9.63963874 9.71756045,10.2664319 8.92119855,10.2664319 Z" id="Path" fill="#BF10ED"></path>
                            </g>
                        </g>
                    </g>
                </g>
            </g>
        </g>
    </g>
</svg>