<?xml version="1.0" encoding="UTF-8"?>
<svg width="238px" height="164px" viewBox="0 0 238 164" version="1.1" xmlns="http://www.w3.org/2000/svg" xmlns:xlink="http://www.w3.org/1999/xlink">
    <title>0C2B46A1-A13F-43A3-932A-3F2D988F8328@2x</title>
    <defs>
        <linearGradient x1="50%" y1="23.3177246%" x2="50%" y2="104.695811%" id="linearGradient-1">
            <stop stop-color="#FAEDFF" offset="0%"></stop>
            <stop stop-color="#FFFCFF" offset="100%"></stop>
        </linearGradient>
        <linearGradient x1="0.0799458418%" y1="50.0687091%" x2="100.522247%" y2="50.0687091%" id="linearGradient-2">
            <stop stop-color="#FF66A9" offset="0%"></stop>
            <stop stop-color="#F53689" offset="100%"></stop>
        </linearGradient>
        <linearGradient x1="3.16336166%" y1="49.8113208%" x2="99.9527856%" y2="49.8113208%" id="linearGradient-3">
            <stop stop-color="#FF66A9" offset="0%"></stop>
            <stop stop-color="#F53689" offset="100%"></stop>
        </linearGradient>
        <linearGradient x1="3.16336166%" y1="50.1886792%" x2="99.9527856%" y2="50.1886792%" id="linearGradient-4">
            <stop stop-color="#83A6FF" offset="0%"></stop>
            <stop stop-color="#5A78FF" offset="100%"></stop>
        </linearGradient>
        <linearGradient x1="11.1209751%" y1="21.0227936%" x2="76.5134011%" y2="87.3834071%" id="linearGradient-5">
            <stop stop-color="#51DFC3" offset="0%"></stop>
            <stop stop-color="#12AB73" offset="100%"></stop>
        </linearGradient>
        <linearGradient x1="16.9569401%" y1="21.0227936%" x2="72.5335873%" y2="87.3834071%" id="linearGradient-6">
            <stop stop-color="#51DFC3" offset="0%"></stop>
            <stop stop-color="#12AB73" offset="100%"></stop>
        </linearGradient>
        <linearGradient x1="0%" y1="42.8344153%" x2="100%" y2="57.1655847%" id="linearGradient-7">
            <stop stop-color="#55068F" offset="0%"></stop>
            <stop stop-color="#C80BF5" offset="100%"></stop>
        </linearGradient>
        <linearGradient x1="49.8074639%" y1="96.8882806%" x2="49.8074639%" y2="44.5076713%" id="linearGradient-8">
            <stop stop-color="#FFFFFF" offset="0%"></stop>
            <stop stop-color="#D6DEEA" offset="99.13%"></stop>
        </linearGradient>
        <linearGradient x1="0.00264483794%" y1="49.5691545%" x2="99.9365239%" y2="49.5691545%" id="linearGradient-9">
            <stop stop-color="#FF66A9" offset="0%"></stop>
            <stop stop-color="#F53689" offset="100%"></stop>
        </linearGradient>
        <linearGradient x1="1.61134386%" y1="51.8721756%" x2="96.4872704%" y2="51.8721756%" id="linearGradient-10">
            <stop stop-color="#FF66A9" offset="0%"></stop>
            <stop stop-color="#F53689" offset="100%"></stop>
        </linearGradient>
    </defs>
    <g id="Credit-Advisory-&amp;-Rectification-Copy" stroke="none" stroke-width="1" fill="none" fill-rule="evenodd">
        <g id="Desktop---Rectification-" transform="translate(-1052.000000, -493.000000)">
            <g id="Group-71" transform="translate(442.000000, 493.000000)">
                <g id="Group-100" transform="translate(610.180212, -145.529783)">
                    <ellipse id="Oval" fill="url(#linearGradient-1)" cx="150.053004" cy="154.31447" rx="150.053004" ry="154.31447"></ellipse>
                    <g id="Group-29" transform="translate(64.819788, 171.421473)" fill-rule="nonzero">
                        <g id="Group-25">
                            <g id="Group-14">
                                <g id="Group-13" transform="translate(91.374422, 26.244207)">
                                    <path d="M47.5670721,72.2016664 L1.88590113,72.2016664 C0.838064581,72.2016664 0,71.3420602 0,70.267027 L0,1.93358851 C0,0.859606198 0.838064581,0 1.88590113,0 L47.5670721,0 C48.6149087,0 49.4529732,0.859606198 49.4529732,1.93358851 L49.4529732,70.267027 C49.4529732,71.3420602 48.6149087,72.2016664 47.5670721,72.2016664 Z" id="Path" fill="#FFFFFF"></path>
                                    <path d="M39.1000944,30.6400219 C38.4718017,30.6400219 37.8424859,30.962637 37.4239652,31.4996281 L32.4989288,30.2102188 C32.2901801,30.1030308 31.9760338,30.2102188 31.7662618,30.4256458 L23.5933414,38.8062808 C23.2791951,38.6980419 22.9650488,38.5908538 22.6509025,38.5908538 C22.3367562,38.5908538 22.0226099,38.6980419 21.7074403,38.8062808 L15.4214443,32.3592343 C15.5258186,32.1448582 15.5258186,31.9294312 15.5258186,31.6068162 C15.5258186,30.4256458 14.5833797,29.5660396 13.5355432,29.5660396 C12.4877066,29.5660396 11.5452677,30.5328339 11.5452677,31.6068162 C11.5452677,31.8222432 11.5452677,32.1448582 11.649642,32.3592343 L6.51585693,37.6240596 C6.30608496,37.5168715 5.99193865,37.5168715 5.78216669,37.5168715 C4.6299558,37.5168715 3.79189122,38.4836658 3.79189122,39.5576481 C3.79189122,40.6326813 4.73433014,41.5994755 5.78216669,41.5994755 C6.83000323,41.5994755 7.77346544,40.6326813 7.77346544,39.5576481 C7.77346544,39.2360839 7.66806781,39.0206569 7.56369347,38.6980419 L12.6974786,33.4342675 C13.0116249,33.5414556 13.2213969,33.6486436 13.5355432,33.6486436 C13.8496895,33.6486436 14.1638358,33.5414556 14.3736077,33.4342675 L20.6596037,39.8802631 C20.5552294,40.0956901 20.5552294,40.3100662 20.5552294,40.5254932 C20.5552294,41.7066636 21.4986916,42.5662698 22.5455049,42.5662698 C23.698739,42.5662698 24.5368036,41.5994755 24.5368036,40.5254932 C24.5368036,40.3100662 24.5368036,40.0956901 24.431406,39.8802631 L32.3945544,31.7150551 L36.9000469,32.8962255 C37.0044213,33.8640706 37.8424859,34.7236768 38.8903224,34.7236768 C40.0425333,34.7236768 40.8816211,33.7558317 40.8816211,32.6818494 C41.0903698,31.4996281 40.1479309,30.6400219 39.1000944,30.6400219 Z M5.88756431,40.6326813 C5.36364604,40.6326813 4.94410211,40.2028782 4.94410211,39.665887 C4.94410211,39.127845 5.36364604,38.6980419 5.88756431,38.6980419 C6.41148258,38.6980419 6.83000323,39.127845 6.83000323,39.665887 C6.83000323,40.0956901 6.41148258,40.6326813 5.88756431,40.6326813 Z M13.6399175,32.5746613 C13.1159992,32.5746613 12.6974786,32.1448582 12.6974786,31.6068162 C12.6974786,31.069825 13.1159992,30.6400219 13.6399175,30.6400219 C14.1638358,30.6400219 14.5833797,31.069825 14.5833797,31.6068162 C14.5833797,32.1448582 14.2692334,32.5746613 13.6399175,32.5746613 Z M22.7552768,41.5994755 C22.2313586,41.5994755 21.8128379,41.1696724 21.8128379,40.6326813 C21.8128379,40.0956901 22.2313586,39.665887 22.7552768,39.665887 C23.2791951,39.665887 23.698739,40.0956901 23.698739,40.6326813 C23.8031134,41.1696724 23.3845927,41.5994755 22.7552768,41.5994755 Z M39.1000944,33.6486436 C38.5761761,33.6486436 38.1566322,33.2188405 38.1566322,32.6818494 C38.1566322,32.1448582 38.5761761,31.7150551 39.1000944,31.7150551 C39.6240126,31.7150551 40.0425333,32.1448582 40.0425333,32.6818494 C40.0425333,33.2188405 39.6240126,33.6486436 39.1000944,33.6486436 Z" id="Shape-Copy" fill="url(#linearGradient-2)"></path>
                                    <path d="M36.7588776,50.4046593 L10.0348665,50.4046593 C9.29614779,50.4046593 8.55934285,50.1009598 8.55934285,49.5944437 C8.55934285,49.1898613 9.112425,48.7852789 10.0348665,48.7852789 L36.7588776,48.7852789 C37.4975963,48.7852789 38.2344013,49.0889784 38.2344013,49.5944437 C38.0506785,50.0000769 37.4975963,50.4046593 36.7588776,50.4046593 Z" id="Path" fill="#E6ECF5"></path>
                                    <path d="M5.89882037,50.7094097 C6.49743792,50.7094097 6.98247164,50.2102496 6.98247164,49.5954945 C6.98247164,48.9807395 6.49743792,48.4815794 5.89882037,48.4815794 C5.30020281,48.4815794 4.81516909,48.9807395 4.81516909,49.5954945 C4.81516909,50.2102496 5.30020281,50.7094097 5.89882037,50.7094097 Z" id="Path" fill="#E6ECF5"></path>
                                    <path d="M36.7588776,55.0631364 L10.0348665,55.0631364 C9.29614779,55.0631364 8.55934285,54.7594369 8.55934285,54.2529208 C8.55934285,53.8483384 9.112425,53.443756 10.0348665,53.443756 L36.7588776,53.443756 C37.4975963,53.443756 38.2344013,53.7474555 38.2344013,54.2529208 C38.0506785,54.6575032 37.4975963,55.0631364 36.7588776,55.0631364 Z" id="Path" fill="#E6ECF5"></path>
                                    <path d="M5.89882037,55.3678868 C6.49743792,55.3678868 6.98247164,54.8687267 6.98247164,54.2539717 C6.98247164,53.6381657 6.49743792,53.1400565 5.89882037,53.1400565 C5.30020281,53.1400565 4.81516909,53.6381657 4.81516909,54.2539717 C4.81516909,54.8687267 5.30020281,55.3678868 5.89882037,55.3678868 Z" id="Path" fill="url(#linearGradient-3)"></path>
                                    <path d="M36.7588776,59.7205627 L10.0348665,59.7205627 C9.29614779,59.7205627 8.55934285,59.4168632 8.55934285,58.9113979 C8.55934285,58.5068155 9.112425,58.1011823 10.0348665,58.1011823 L36.7588776,58.1011823 C37.4975963,58.1011823 38.2344013,58.4048818 38.2344013,58.9113979 C38.0506785,59.3159803 37.4975963,59.7205627 36.7588776,59.7205627 Z" id="Path" fill="#E6ECF5"></path>
                                    <path d="M5.89882037,60.025313 C6.49743792,60.025313 6.98247164,59.5272038 6.98247164,58.9113979 C6.98247164,58.2966429 6.49743792,57.7974828 5.89882037,57.7974828 C5.30020281,57.7974828 4.81516909,58.2966429 4.81516909,58.9113979 C4.81516909,59.5272038 5.30020281,60.025313 5.89882037,60.025313 Z" id="Path" fill="url(#linearGradient-4)"></path>
                                    <path d="M10.5817165,11.0666417 L5.34355707,11.0666417 C5.02941077,11.0666417 4.71424118,10.7440266 4.71424118,10.4214116 L4.71424118,9.77723236 C4.71424118,9.45461732 5.02941077,9.13200228 5.34355707,9.13200228 L10.5817165,9.13200228 C10.8958628,9.13200228 11.2110324,9.45461732 11.2110324,9.77723236 L11.2110324,10.4214116 C11.2110324,10.7440266 10.8958628,11.0666417 10.5817165,11.0666417 Z" id="Path" fill="#CED7E2"></path>
                                    <path d="M46.6236099,11.0666417 L15.7155016,11.0666417 C15.4013553,11.0666417 15.087209,10.7440266 15.087209,10.4214116 L15.087209,9.77723236 C15.087209,9.45461732 15.4013553,9.13200228 15.7155016,9.13200228 L46.6236099,9.13200228 C46.9377562,9.13200228 47.2529258,9.45461732 47.2529258,9.77723236 L47.2529258,10.4214116 C47.2529258,10.7440266 46.9377562,11.0666417 46.6236099,11.0666417 Z" id="Path" fill="#E3EAF2"></path>
                                    <path d="M10.5817165,17.4054492 L5.34355707,17.4054492 C5.02941077,17.4054492 4.71424118,17.0828342 4.71424118,16.7602191 L4.71424118,16.1160399 C4.71424118,15.7934249 5.02941077,15.4718607 5.34355707,15.4718607 L10.5817165,15.4718607 C10.8958628,15.4718607 11.2110324,15.7934249 11.2110324,16.1160399 L11.2110324,16.7602191 C11.2110324,17.0828342 10.8958628,17.4054492 10.5817165,17.4054492 Z" id="Path" fill="#CED7E2"></path>
                                    <path d="M46.6236099,17.4054492 L15.7155016,17.4054492 C15.4013553,17.4054492 15.087209,17.0828342 15.087209,16.7602191 L15.087209,16.1160399 C15.087209,15.7934249 15.4013553,15.4718607 15.7155016,15.4718607 L46.6236099,15.4718607 C46.9377562,15.4718607 47.2529258,15.7934249 47.2529258,16.1160399 L47.2529258,16.7602191 C47.2529258,17.0828342 46.9377562,17.4054492 46.6236099,17.4054492 Z" id="Path" fill="#E3EAF2"></path>
                                </g>
                                <g id="Group-19" transform="translate(126.045160, 3.559975)">
                                    <g id="Group-2" transform="translate(0.000000, 10.556919)">
                                        <path d="M18.1918649,22.1101473 C16.3299178,23.3914934 14.1341044,24.139715 11.749528,24.139715 C5.30205478,24.139715 0,18.6923448 0,12.0691977 C0,5.44737023 5.30205478,0 11.749528,0 C18.1918649,0 23.4952038,5.44737023 23.4952038,12.0691977 C23.4952038,16.2352219 21.4149595,19.9736909 18.1918649,22.1101473 Z" id="Path" fill="url(#linearGradient-5)"></path>
                                        <path d="M10.1893448,16.5558883 C9.77329594,16.5558883 9.4612593,16.4489995 9.14922265,16.1283331 L6.13415251,13.031197 C5.61409143,12.4967529 5.61409143,11.5347537 6.13415251,11.0016293 C6.65421358,10.4671852 7.59032352,10.4671852 8.1103846,11.0016293 L10.0853326,13.031197 L15.1742265,7.79628472 C15.7007081,7.26316031 16.6381022,7.26316031 17.1517427,7.79628472 C17.6782243,8.33072875 17.6782243,9.292728 17.1517427,9.82585241 L11.0214425,16.1283331 C10.9174303,16.4489995 10.6053937,16.5558883 10.1893448,16.5558883 Z" id="Path" fill="#FFFFFF"></path>
                                    </g>
                                    <path d="M28.4377102,10.3325845 C28.0614684,10.7152728 27.436111,10.8472343 26.9340274,10.464546 L22.1738634,6.20218995 C21.7976217,5.80630548 21.6730638,5.15969419 22.0480215,4.64504438 C22.4242632,4.26235607 23.0509047,4.13039458 23.5517042,4.52627905 L28.3131523,8.77543897 C28.6881099,9.17132343 28.8139519,9.94989621 28.4377102,10.3325845 Z M26.9340274,18.4614122 C26.8094695,18.7253352 26.4332278,18.9892582 26.0569861,18.9892582 L19.9189813,18.9892582 C19.2923398,18.9892582 18.9160981,18.4614122 18.9160981,17.9467624 C18.9160981,17.3001511 19.4181817,16.9174628 19.9189813,16.9174628 L26.0569861,16.9174628 C26.6836276,16.9174628 27.0598693,17.4321126 27.0598693,17.9467624 C27.0598693,18.0787239 27.0598693,18.2106854 26.9340274,18.4614122 Z M35.4527562,8.26078916 C35.3281984,8.39275065 35.0777986,8.39275065 34.9519567,8.39275065 C34.3253152,8.39275065 33.9503576,8.01006233 33.8245156,7.36345104 L33.6999578,1.02929961 C33.6999578,0.514649804 34.0749154,0 34.7015569,0 C35.3281984,0 35.7044401,0.382688316 35.828998,1.02929961 L35.9548399,7.36345104 C35.9548399,7.74613936 35.7044401,8.01006233 35.4527562,8.26078916 Z" id="Combined-Shape" fill="url(#linearGradient-6)" transform="translate(27.435469, 9.494629) scale(-1, 1) translate(-27.435469, -9.494629) "></path>
                                </g>
                                <g id="Group-12">
                                    <path d="M47.6714465,72.2016664 L1.88590113,72.2016664 C0.838064581,72.2016664 0,71.3420602 0,70.2680778 L0,1.93463938 C0,0.859606198 0.838064581,0 1.88590113,0 L47.5670721,0 C48.6149087,0 49.4529732,0.859606198 49.4529732,1.93463938 L49.4529732,70.2680778 C49.4529732,71.3420602 48.6149087,72.2016664 47.6714465,72.2016664 Z" id="Path" fill="#FFFFFF"></path>
                                    <path d="M43.7952699,51.6804074 L7.2294582,51.6804074 C6.91531189,51.6804074 6.60116558,51.3577923 6.60116558,51.0362282 L6.60116558,50.8208012 C6.60116558,50.4981861 6.91531189,50.176622 7.2294582,50.176622 L43.7952699,50.176622 C44.1094162,50.176622 44.4235625,50.4981861 44.4235625,50.8208012 L44.4235625,51.0362282 C44.4235625,51.3577923 44.2137905,51.6804074 43.7952699,51.6804074 Z" id="Path" fill="#E3EAF2"></path>
                                    <path d="M43.7952699,35.9174575 L7.2294582,35.9174575 C6.91531189,35.9174575 6.60116558,35.5948425 6.60116558,35.2732783 L6.60116558,35.0578513 C6.60116558,34.7352363 6.91531189,34.4136721 7.2294582,34.4136721 L43.7952699,34.4136721 C44.1094162,34.4136721 44.4235625,34.7352363 44.4235625,35.0578513 L44.4235625,35.2732783 C44.4235625,35.5948425 44.2137905,35.9174575 43.7952699,35.9174575 Z" id="Path-Copy" fill="#E3EAF2"></path>
                                    <path d="M43.7952699,56.3000025 L7.2294582,56.3000025 C6.91531189,56.3000025 6.60116558,55.9784384 6.60116558,55.6558233 L6.60116558,55.4403963 C6.60116558,55.1188322 6.91531189,54.7962171 7.2294582,54.7962171 L43.7952699,54.7962171 C44.1094162,54.7962171 44.4235625,55.1188322 44.4235625,55.4403963 L44.4235625,55.6558233 C44.4235625,55.9784384 44.2137905,56.3000025 43.7952699,56.3000025 Z" id="Path" fill="#E3EAF2"></path>
                                    <path d="M43.7952699,40.5370527 L7.2294582,40.5370527 C6.91531189,40.5370527 6.60116558,40.2154885 6.60116558,39.8928735 L6.60116558,39.6774465 C6.60116558,39.3558823 6.91531189,39.0332673 7.2294582,39.0332673 L43.7952699,39.0332673 C44.1094162,39.0332673 44.4235625,39.3558823 44.4235625,39.6774465 L44.4235625,39.8928735 C44.4235625,40.2154885 44.2137905,40.5370527 43.7952699,40.5370527 Z" id="Path-Copy-2" fill="#E3EAF2"></path>
                                    <path d="M16.7633382,60.8134605 L7.33383254,60.8134605 C6.91531189,60.8134605 6.60116558,60.4908455 6.60116558,60.0610424 C6.60116558,59.6312393 6.91531189,59.3086242 7.33383254,59.3086242 L16.7633382,59.3086242 C17.1828821,59.3086242 17.4970284,59.6312393 17.4970284,60.0610424 C17.4970284,60.4908455 17.1828821,60.8134605 16.7633382,60.8134605 Z" id="Path" fill="#E3EAF2"></path>
                                    <path d="M16.7633382,46.5227702 L7.33383254,46.5227702 C6.91531189,46.5227702 6.60116558,46.201206 6.60116558,45.7714029 C6.60116558,45.3415998 6.91531189,45.0189848 7.33383254,45.0189848 L16.7633382,45.0189848 C17.1828821,45.0189848 17.4970284,45.3415998 17.4970284,45.7714029 C17.4970284,46.201206 17.1828821,46.5227702 16.7633382,46.5227702 Z" id="Path" fill="#CED7E2"></path>
                                    <g id="gauge-(4)" transform="translate(9.684727, 5.872677)">
                                        <path d="M28.0365272,19.5584841 C28.0365272,19.6241217 28.0350486,19.6893452 28.0341077,19.7547067 L24.4298223,19.7547067 L23.1849328,19.7547067 L8.06022768,19.7547067 L6.81533819,19.7547067 L3.21098556,19.7547067 C3.20997744,19.6893452 3.20856608,19.6240527 3.20856608,19.5584841 C3.20856608,12.6229166 8.76651412,7.00051496 15.6225802,7.00051496 C22.4786463,7.00051496 28.0365272,12.6228475 28.0365272,19.5584841 Z" id="Path" fill="#E6EDF5"></path>
                                        <path d="M0.00309155735,19.7547067 C0.00181460975,19.6724354 0,19.5903021 0,19.5077548 C0,10.7796114 6.99444689,3.70400319 15.622513,3.70400319 C24.2505791,3.70400319 31.245026,10.7796114 31.245026,19.5077548 C31.245026,19.5903021 31.2432114,19.6724354 31.2419345,19.7547067 L25.1394019,19.7547067 C25.1414181,19.6726425 25.1424934,19.5903021 25.1424934,19.5077548 C25.1424934,14.1890392 20.880244,9.87731884 15.622513,9.87731884 C10.3647821,9.87731884 6.10253259,14.1889702 6.10253259,19.5077548 C6.10253259,19.5903021 6.10360792,19.6726425 6.10562415,19.7547067 L0.00309155735,19.7547067 Z" id="Path" fill="#F14D99"></path>
                                        <path d="M31.245026,19.5077548 C31.245026,19.5903021 31.2432114,19.6724354 31.2419345,19.7547067 L29.9588037,19.7547067 C29.9599463,19.6791993 29.9616265,19.60383 29.9616265,19.5280465 C29.9616265,11.5168783 23.541806,5.0226217 15.622513,5.0226217 C7.70322002,5.0226217 1.28339955,11.5168783 1.28339955,19.5280465 C1.28339955,19.60383 1.28507974,19.6791993 1.28622227,19.7547067 L0.00309155735,19.7547067 C0.00181460975,19.6724354 0,19.5903021 0,19.5077548 C0,10.7796114 6.99444689,3.70400319 15.622513,3.70400319 C24.2505791,3.70400319 31.245026,10.7796114 31.245026,19.5077548 Z" id="Path" fill="#F14D99"></path>
                                        <path d="M15.6225101,3.70400319 C24.2505791,3.70400319 31.245026,10.7796114 31.245026,19.5077548 C31.245026,19.5903021 31.2432114,19.6724354 31.2419345,19.7547067 L25.1394019,19.7547067 C25.1414181,19.6726425 25.1424934,19.5903021 25.1424934,19.5077548 C25.1424934,14.1890392 20.880244,9.87731884 15.6225101,9.87731884 C15.6225101,8.54422851 15.6225101,5.0226217 15.6225101,3.70400319 Z" id="Path" fill="#32D697"></path>
                                        <path d="M31.245026,19.5077548 C31.245026,19.5903021 31.2432114,19.6724354 31.2419345,19.7547067 L29.9588037,19.7547067 C29.9599463,19.6791993 29.9616265,19.60383 29.9616265,19.5280465 C29.9616265,11.5168783 23.541806,5.0226217 15.622502,5.0226217 C15.622502,4.50980163 15.622502,4.07363521 15.622502,3.70400319 C24.2505791,3.70400319 31.245026,10.7796114 31.245026,19.5077548 Z" id="Path" fill="#32D697"></path>
                                        <path d="M24.0694542,1.96388229 C24.2226207,2.03938968 24.2862665,2.22615658 24.2101201,2.38034626 L19.6296418,11.6476013 C19.5555116,11.7976498 19.376739,11.8596984 19.2267312,11.7881941 C18.1332608,11.2666824 16.9116252,10.9748677 15.622513,10.9748677 C14.3334008,10.9748677 13.1117652,11.2666134 12.0182948,11.7881941 C11.8682871,11.8597674 11.6895816,11.7976498 11.6153842,11.6476013 L7.03490597,2.38034626 C6.95869236,2.22615658 7.02240532,2.03938968 7.17557183,1.96388229 C9.72718197,0.70620804 12.5931901,0 15.622513,0 C18.651836,0 21.5178441,0.70620804 24.0694542,1.96388229 Z" id="Path" fill="#FFD777"></path>
                                        <g id="Group" transform="translate(8.537067, 3.704003)" fill="#FAC727">
                                            <path d="M7.08544621,0 C9.63624986,0 12.0441026,0.61876027 14.1708924,1.71548093 L11.4410473,7.23849437 C10.1358052,6.55789258 8.65508364,6.17338467 7.08544621,6.17338467 C5.51580877,6.17338467 4.03508722,6.55789258 2.72984514,7.23849437 L0,1.71548093 C2.12678984,0.61876027 4.53464256,0 7.08544621,0 Z" id="Path"></path>
                                        </g>
                                        <path d="M24.0555351,8.72633255 L24.172344,8.77493985 C24.6717649,9.01816474 24.9053119,9.60600425 24.7110143,10.1307599 L20.2263071,22.2420345 C19.9965059,23.2752864 19.0871277,24.0445491 18.0001169,24.0445491 C16.7405089,24.0445491 15.7194213,23.0116025 15.7194213,21.7374326 C15.7194213,21.1795175 15.9151906,20.6678513 16.2410323,20.2688993 L22.7886705,9.19471675 C23.0509669,8.75091043 23.5826416,8.56163186 24.0555351,8.72633255 Z" id="Combined-Shape" fill="#1E1F28" transform="translate(20.249322, 16.356045) rotate(31.000000) translate(-20.249322, -16.356045) "></path>
                                        <path d="M16.6492102,19.7912718 C16.6558106,20.3568552 16.2014891,20.8098804 15.6344636,20.8031801 C15.0674382,20.7964797 14.6024162,20.3325908 14.5958158,19.7670074 C14.5892154,19.201424 15.0435369,18.7483988 15.6105624,18.7550992 C16.1775871,18.761731 16.6426098,19.2256884 16.6492102,19.7912718 Z" id="Path" fill="#61AE9F" transform="translate(15.622513, 19.779140) rotate(31.000000) translate(-15.622513, -19.779140) "></path>
                                    </g>
                                </g>
                            </g>
                            <g id="support" transform="translate(29.737553, 25.993428)">
                                <path d="M68.3866323,35.207322 C68.3866323,44.3093662 65.0615716,52.5527786 59.574295,58.7353379 C59.574295,58.7353379 59.574295,58.7353379 59.574295,58.9074741 C51.7593436,68.3531077 37.1274884,73.8491714 21.664368,68.1816546 C15.8448501,65.7772121 10.0253321,60.9683272 9.52697011,59.766106 C-11.0905237,37.6117644 3.87357282,0 34.1346691,0 C53.0896326,0 68.3866323,15.8003291 68.3866323,35.207322 Z" id="Path" fill="#EAE5FF"></path>
                                <path d="M59.2003682,58.9045484 C47.8634486,72.9461442 24.0236666,75.3433901 9.18626404,59.7606103 L59.2003682,58.9045484 Z" id="Path" fill="#E9F0F8"></path>
                                <path d="M59.2003682,58.9819643 C51.3906043,68.5131277 36.7684615,73.7901657 21.3156053,68.1732851 C15.4999503,65.790325 9.68429523,61.0244048 9.18626404,59.8329248 C10.6816804,58.1310038 15.0019191,56.9395238 23.8084068,53.1944854 C26.7992395,52.0030054 26.1345366,48.7690848 26.1345366,42.3012437 C25.4698336,41.4502832 24.8051306,40.0888819 24.6391202,38.5568823 L23.9744172,38.2163627 C22.1463187,38.7268036 22.3129905,36.6843631 21.8142979,32.7700803 C21.6482875,31.0674824 21.8142979,30.8975611 22.6450113,30.5570416 L22.5689507,30.2936974 C20.242821,24.8467381 19.8201889,17.6978578 24.971141,15.1449764 C24.6391202,14.4639373 23.8084068,12.2515754 23.8084068,11.5705363 C26.300547,11.9110559 30.7113969,12.7620163 33.3695474,12.2515754 C37.3577653,11.400615 41.8440144,12.9326146 43.5054411,16.8468973 C51.1491947,19.9108966 47.3269872,27.4002964 46.4962739,30.4636187 C46.3302635,30.634217 46.3302635,30.9740596 46.3302635,30.9740596 C46.3302635,30.9740596 46.3302635,31.1446579 46.4962739,31.1446579 C46.9949664,31.3145792 47.7350686,31.2380807 47.5690582,32.5994821 C47.2370374,36.3445205 47.2370374,38.5568823 45.4089388,38.0464414 L43.7475121,40.9398424 C43.7475121,42.3012437 43.2488195,48.9396831 43.7475121,50.4716827 C44.0795329,51.6631628 44.9109076,52.5141232 45.9076314,52.8546428 C54.3820984,56.7689255 57.3729311,57.619886 59.2003682,58.9819643 Z" id="Path" fill="#FFFFFF"></path>
                                <path d="M59.2003682,58.6943766 C51.3906043,68.4640344 36.7684615,73.8731177 21.3156053,68.1156881 C15.4999503,65.6731001 9.68429523,60.7879242 9.18626404,59.5666303 C11.5123938,56.9498691 23.6423964,53.8092007 25.3038232,51.5414798 C29.9560827,58.1711631 39.5932838,58.1711631 44.2462047,51.5414798 C44.5782255,52.0646933 45.076918,52.4137335 45.5756106,52.5879067 C54.3820984,56.4259618 57.3729311,57.2982155 59.2003682,58.6943766 Z" id="Path" fill="url(#linearGradient-7)"></path>
                                <path d="M47.0163985,30.5041411 C47.1896889,29.6274605 46.6704894,28.4005142 46.3239086,27.5238336 C46.3239086,27.348362 46.1506183,27.1735679 46.1506183,27.1735679 C44.5923481,24.1932604 41.3018458,22.9656366 38.1839622,22.7908425 C30.0446874,22.4398993 29.3521975,24.0177888 26.754185,21.5632187 C27.9665461,23.3165798 27.6199653,28.2250426 22.424612,29.8029321 C18.7882006,21.3877471 20.5197611,15.953547 24.1568442,14.2001858 C22.9444832,11.5708215 22.9444832,10.5186693 22.9444832,10.5186693 C22.9444832,10.5186693 30.7371772,11.9210873 33.3351897,11.2198783 C36.7989824,10.5186693 41.9943357,11.3953499 43.8991866,15.953547 C52.5583325,19.109326 47.7095601,27.8747769 47.0163985,30.5041411 Z" id="Path" fill="#1C3754"></path>
                                <path d="M25.8638644,41.916098 C25.6906323,41.7374405 25.6906323,41.558783 25.5174001,41.3801255 L25.5174001,41.0228105 C26.5567931,42.8093856 27.250383,42.9880431 32.9703506,47.0958021 C34.3568692,48.3464046 36.2637455,48.3464046 37.650264,47.0958021 C37.8234962,46.9171445 43.5434638,41.7374405 43.716696,41.3801255 C43.716696,42.0947555 43.5434638,49.5963253 43.8899282,50.4896129 L25.6906323,50.4896129 C25.8638644,49.9536403 25.8638644,42.9880431 25.8638644,41.916098 Z" id="Path" fill="url(#linearGradient-8)"></path>
                                <path d="M48.5848698,37.8672097 L46.9520162,37.8672097 L46.9520162,28.4004072 L48.5848698,28.4004072 C49.8914127,28.4004072 51.0348002,29.5629507 51.0348002,30.8919492 L51.0348002,35.3763283 C51.0348002,36.8711213 50.054568,37.8672097 48.5848698,37.8672097 Z" id="Path" fill="#2D5887"></path>
                                <path d="M45.7454453,43.024474 C36.0028493,43.024474 34.7036641,43.5802956 34.7036641,42.097859 C34.7036641,41.5413003 35.0281373,41.1705069 35.3532567,41.1705069 L45.7454453,41.1705069 C46.7201574,41.1705069 47.5319865,40.2438919 47.5319865,39.1322488 L47.5319865,37.6490751 C47.5319865,36.5374319 48.9934082,36.5374319 48.9934082,37.6490751 L48.9934082,39.1322488 C48.9934082,41.3562722 47.5319865,43.024474 45.7454453,43.024474 Z" id="Path" fill="#1C3754"></path>
                                <path d="M36.8101186,43.1265443 L34.6025891,43.1265443 C34.0505236,43.1265443 33.6829681,42.8459349 33.6829681,42.4252997 L33.6829681,41.7240551 C33.6829681,41.3034199 34.0505236,41.0228105 34.6025891,41.0228105 L36.8101186,41.0228105 C37.3614519,41.0228105 37.7297396,41.3034199 37.7297396,41.7240551 L37.7297396,42.4252997 C37.9135173,42.8459349 37.3614519,43.1265443 36.8101186,43.1265443 Z" id="Path" fill="#1C3754"></path>
                                <g id="Group-27" transform="translate(47.972712, 43.929788)">
                                    <path d="M31.2682539,19.6018609 C31.2682539,19.9464999 31.1001037,20.1184769 31.1001037,20.463116 C30.9319535,21.3243711 30.5949832,22.1856262 30.2586828,23.0468813 C30.2586828,23.2195434 30.0898627,23.3915204 30.0898627,23.5634973 L30.0898627,23.7361594 C28.7439911,26.3199248 26.8923292,28.387074 24.5362166,29.9376073 C24.1992463,30.1102694 24.0310961,30.2822464 23.6947957,30.4542233 C23.5266455,30.6262003 23.3578254,30.6268855 23.1896752,30.7988624 C22.8527049,30.9715245 22.5164045,31.1435015 22.1801041,31.3154784 C21.1705329,31.8320945 20.1602919,32.0047566 18.9819007,32.3493957 C16.9627584,32.6940348 14.7747961,32.6940348 12.7549839,32.3493957 C4.17128465,30.4542233 -1.3823614,21.8409871 0.300480444,13.0550887 C2.15214241,4.26987554 10.5670215,-1.4149563 19.1507208,0.307553915 C22.1801041,0.996832068 25.0413371,2.54736533 27.2292995,4.78649157 C30.7638033,8.57683625 32.4466451,14.089006 31.2682539,19.6018609 Z" id="Path" fill="url(#linearGradient-9)"></path>
                                    <g id="noun-bank-1401483" transform="translate(6.000000, 7.000000)" fill="#F8F8F8">
                                        <path d="M17.1161537,17.2353326 L17.1161537,9.27483962 L14.4584182,9.27483962 L14.4584182,17.2353326 L11.3238399,17.2353326 L11.3238399,9.27483962 L8.66610439,9.27483962 L8.66610439,17.2353326 L5.531526,17.2353326 L5.531526,9.27483962 L2.87379053,9.27483962 L2.87379053,17.2353326 L0.903473117,17.2353326 C0.6936515,17.2353326 0.523627287,17.4063142 0.523627287,17.6176663 C0.523627287,17.8290184 0.693633866,18 0.903473117,18 L18.0864711,18 C18.2962927,18 18.466317,17.8290184 18.466317,17.6176663 C18.466317,17.4063142 18.2961728,17.2353326 18.0864711,17.2353326 L17.1161537,17.2353326 Z" id="Path"></path>
                                        <path d="M18.8139976,7.79910963 L9.7400203,0.0917308011 C9.59949497,-0.0305769337 9.39063972,-0.0305769337 9.25010029,0.0917308011 L0.134505741,7.83354452 C0.0129938709,7.93671427 -0.0326087901,8.10880703 0.0242904929,8.25787458 C0.0774689092,8.40694567 0.221852647,8.51011897 0.381387896,8.51011897 L18.612577,8.51011897 L18.6201542,8.51011897 C18.8290129,8.51011897 19,8.3380262 19,8.12778527 C19,7.98633955 18.9240908,7.86403181 18.8138755,7.79899603 L18.8139976,7.79910963 Z M9.49701772,6.25085339 C8.60827723,6.25085339 7.88664069,5.52449036 7.88664069,4.63365638 C7.88664069,3.73909492 8.60827723,3.01645937 9.49701772,3.01645937 C10.382055,3.01645937 11.1036915,3.73905942 11.1036915,4.63365638 C11.1036915,5.52449036 10.382055,6.25085339 9.49701772,6.25085339 L9.49701772,6.25085339 Z" id="Shape"></path>
                                    </g>
                                </g>
                                <path d="M3.06241695,9.46680241 C3.63674348,9.46680241 4.08278402,9.00639842 4.08278402,8.41493548 C4.08278402,7.82279347 3.63674348,7.36306854 3.06241695,7.36306854 C2.48809042,7.36306854 2.04139201,7.82279347 2.04139201,8.41493548 C2.04139201,9.00639842 2.48809042,9.46680241 3.06241695,9.46680241 Z" id="Path" fill="url(#linearGradient-10)"></path>
                            </g>
                        </g>
                    </g>
                </g>
            </g>
        </g>
    </g>
</svg>