<?xml version="1.0" encoding="UTF-8"?>
<svg width="40px" height="55px" viewBox="0 0 40 55" version="1.1" xmlns="http://www.w3.org/2000/svg" xmlns:xlink="http://www.w3.org/1999/xlink">
    <title>6B41D514-DBC6-46AE-8538-BAC66F5DD99E@1x</title>
    <g id="New---Revamp-Bureaus---Mobile-&amp;-Desktop--Copy-3" stroke="none" stroke-width="1" fill="none" fill-rule="evenodd">
        <g id="Desktop" transform="translate(-198.000000, -3716.000000)">
            <g id="Credit-Factors-" transform="translate(174.000000, 3338.000000)">
                <g id="Group-16" transform="translate(24.000000, 24.000000)">
                    <g id="Group-7" transform="translate(0.000000, 354.000000)">
                        <polygon id="Rectangle" fill="#FFFFFF" opacity="0" points="0 0 40 0 40 55 4.72955008e-13 55"></polygon>
                        <g id="Group-66" transform="translate(3.000000, 13.000000)">
                            <g id="Group-65" transform="translate(0.000000, 10.600000)" stroke="#052F5F" stroke-width="1.14285714">
                                <rect id="Rectangle-Copy-4" x="0.571428571" y="0.571428571" width="24" height="17.2571429" rx="4.57142857"></rect>
                                <line x1="24.5142857" y1="5.91428571" x2="0.628571429" y2="5.91428571" id="Line-2" fill="#FFFFFF" stroke-linecap="square"></line>
                            </g>
                            <g id="Group-61" transform="translate(10.000000, 0.000000)">
                                <path d="M5.33333333,0 L18.6666667,0 C21.6121853,-3.15722911e-15 24,2.38781467 24,5.33333333 L24,11.1666667 C24,14.1121853 21.6121853,16.5 18.6666667,16.5 L18,16.5 L18,16.5 L18,21.3125 L12,16.5 L5.33333333,16.5 C2.38781467,16.5 3.60722001e-16,14.1121853 0,11.1666667 L0,5.33333333 C-3.60722001e-16,2.38781467 2.38781467,5.41083001e-16 5.33333333,0 Z" id="Rectangle-Copy-6" fill="#FFFFFF" transform="translate(12.000000, 10.656250) scale(-1, 1) translate(-12.000000, -10.656250) "></path>
                                <path d="M8,2.75 L21,2.75 C22.6568542,2.75 24,4.09314575 24,5.75 L24,12.1370968 C24,13.793951 22.6568542,15.1370968 21,15.1370968 L18.6666667,15.1370968 L18.6666667,15.1370968 L18.6666667,18.75 L13.3333333,15.1370968 L8,15.1370968 C5.05448133,15.1370968 2.66666667,12.7492821 2.66666667,9.80376344 L2.66666667,8.08333333 C2.66666667,5.13781467 5.05448133,2.75 8,2.75 Z" id="Rectangle-Copy-6" fill="#FFD1DE" transform="translate(13.333333, 10.750000) scale(-1, 1) translate(-13.333333, -10.750000) "></path>
                                <path d="M18.6666667,0.666666667 C19.9553311,0.666666667 21.1219977,1.18900113 21.9664983,2.03350169 C22.8109989,2.87800225 23.3333333,4.04466892 23.3333333,5.33333333 L23.3333333,5.33333333 L23.3333333,11.1666667 C23.3333333,12.4553311 22.8109989,13.6219977 21.9664983,14.4664983 C21.1219977,15.3109989 19.9553311,15.8333333 18.6666667,15.8333333 L18.6666667,15.8333333 L17.3333333,15.8333333 L17.3333333,19.9231596 L12.2343292,15.8333333 L5.33333333,15.8333333 C4.04466892,15.8333333 2.87800225,15.3109989 2.03350169,14.4664983 C1.18900113,13.6219977 0.666666667,12.4553311 0.666666667,11.1666667 L0.666666667,11.1666667 L0.666666667,5.33333333 C0.666666667,4.04466892 1.18900113,2.87800225 2.03350169,2.03350169 C2.87800225,1.18900113 4.04466892,0.666666667 5.33333333,0.666666667 L5.33333333,0.666666667 Z" id="Rectangle-Copy-6" stroke="#052F5F" stroke-width="1.33333333" transform="translate(12.000000, 10.656250) scale(-1, 1) translate(-12.000000, -10.656250) "></path>
                                <rect id="Rectangle" fill="#052F5F" x="4" y="4.5" width="16" height="1.32"></rect>
                                <rect id="Rectangle" fill="#052F5F" x="4" y="9.5" width="10.6666667" height="1.32"></rect>
                            </g>
                        </g>
                    </g>
                </g>
            </g>
        </g>
    </g>
</svg>