<?xml version="1.0" encoding="UTF-8"?>
<svg width="24px" height="25px" viewBox="0 0 24 25" version="1.1" xmlns="http://www.w3.org/2000/svg" xmlns:xlink="http://www.w3.org/1999/xlink">
    <title>6A73764E-43E5-4878-9ABD-83DE263DF066@2x</title>
    <g id="Credit-Advisory-&amp;-Rectification-Copy" stroke="none" stroke-width="1" fill="none" fill-rule="evenodd">
        <g id="Desktop---Rectification-" transform="translate(-812.000000, -673.000000)">
            <g id="Group-71" transform="translate(442.000000, 493.000000)">
                <g id="Group-91" transform="translate(24.000000, 32.000000)">
                    <g id="Group-90" transform="translate(0.000000, 148.000000)">
                        <g id="Group-34" transform="translate(346.000000, 0.000000)">
                            <g id="Group-38">
                                <path d="M14,0.6 C14.6627417,0.6 15.2627417,0.86862915 15.6970563,1.30294373 C16.1313708,1.7372583 16.4,2.3372583 16.4,3 L16.4,3 L16.4,20 C16.4,20.6627417 16.1313708,21.2627417 15.6970563,21.6970563 C15.2627417,22.1313708 14.6627417,22.4 14,22.4 L14,22.4 L3,22.4 C2.3372583,22.4 1.7372583,22.1313708 1.30294373,21.6970563 C0.86862915,21.2627417 0.6,20.6627417 0.6,20 L0.6,20 L0.6,3 C0.6,2.3372583 0.86862915,1.7372583 1.30294373,1.30294373 C1.7372583,0.86862915 2.3372583,0.6 3,0.6 L3,0.6 Z" id="Rectangle" stroke="#052F5F" stroke-width="1.2"></path>
                                <g id="Group-37" transform="translate(4.000000, 4.000000)" stroke-linecap="round" stroke-linejoin="round">
                                    <path d="M6.50082272,4.48550017 C6.79370555,4.48550017 7.03949623,4.72852201 6.99470443,5.01928417 C6.73203002,6.72990653 5.27551517,8 3.5188258,8 C1.57529559,8 0,6.41619061 0,4.46254641 C0,2.85299041 1.21619293,1.35366482 2.58544189,1.01466486 C2.87967021,0.941627391 3.18120325,1.14971238 3.18120325,1.45426426 C3.18120325,3.51764575 3.25019217,4.05142975 3.63991992,4.34175553 C4.02963465,4.63203767 4.48783917,4.48550017 6.50082272,4.48550017 Z" id="Path" stroke="#062F5F"></path>
                                    <path d="M7.99980746,2.68051202 C8.01786949,1.64338467 6.76274385,-0.0283831156 5.23325709,0.000365948213 C5.1142899,0.00252016496 5.01903543,0.103143595 5.01372109,0.223530513 C4.97514169,1.07630674 5.02717512,2.18135507 5.0562358,2.68231118 C5.06508182,2.83828193 5.18579803,2.96080941 5.3391066,2.96978816 C5.84645774,2.99928488 6.97484649,3.03953562 7.80297513,2.91229686 C7.91555166,2.8950563 7.99805844,2.79588039 7.99980746,2.68051202 Z" id="Path" stroke="#BF10ED"></path>
                                </g>
                                <rect id="Rectangle" fill="#052F5F" x="3" y="15" width="7" height="1.2" rx="0.6"></rect>
                                <rect id="Rectangle-Copy-4" fill="#052F5F" x="3" y="18" width="7" height="1.2" rx="0.6"></rect>
                            </g>
                            <g id="Group-19" transform="translate(10.000000, 11.000000)">
                                <circle id="Oval" stroke="#052F5F" fill="#FFFFFF" cx="7" cy="7" r="6.5"></circle>
                                <path d="M9.83928571,5.16071429 C10.0535714,5.375 10.0535714,5.69642857 9.83928571,5.91071429 L6.4375,9.33928571 C6.33035714,9.44642857 6.19642857,9.5 6.0625,9.5 C5.92857143,9.5 5.79464286,9.44642857 5.6875,9.33928571 L4.16071429,7.8125 C3.94642857,7.59821429 3.94642857,7.27678571 4.16071429,7.0625 C4.375,6.84821429 4.69642857,6.84821429 4.91071429,7.0625 L6.03571429,8.1875 L9.0625,5.16071429 C9.30357143,4.94642857 9.625,4.94642857 9.83928571,5.16071429 Z" id="Path" stroke="#BF10ED" stroke-width="0.1" fill="#BF10ED" fill-rule="nonzero"></path>
                            </g>
                        </g>
                    </g>
                </g>
            </g>
        </g>
    </g>
</svg>