<?xml version="1.0" encoding="UTF-8"?>
<svg width="165px" height="125px" viewBox="0 0 165 125" version="1.1" xmlns="http://www.w3.org/2000/svg" xmlns:xlink="http://www.w3.org/1999/xlink">
    <title>30C0D35A-1098-4465-844B-1C1B1EB0748F@2x</title>
    <defs>
        <ellipse id="path-1" cx="99" cy="94" rx="99" ry="94"></ellipse>
        <linearGradient x1="50%" y1="97.7218809%" x2="50%" y2="-25.781417%" id="linearGradient-3">
            <stop stop-color="#FAE5FF" offset="0%"></stop>
            <stop stop-color="#B30FE2" offset="41.9947167%"></stop>
            <stop stop-color="#5E0899" offset="100%"></stop>
        </linearGradient>
    </defs>
    <g id="Final---Credit-Advisory-&amp;-Rectification" stroke="none" stroke-width="1" fill="none" fill-rule="evenodd">
        <g id="Mobile---Dashboard---Credit-plus-Advisory" transform="translate(-195.000000, -596.000000)">
            <g id="Group-39" transform="translate(0.000000, 596.000000)">
                <g id="Group-34" transform="translate(195.000000, -63.000000)">
                    <mask id="mask-2" fill="white">
                        <use xlink:href="#path-1"></use>
                    </mask>
                    <use id="Mask" fill="#FBF7FF" xlink:href="#path-1"></use>
                    <ellipse id="Oval-Copy-2" fill="#F0DFFF" opacity="0.391671317" mask="url(#mask-2)" cx="112.849763" cy="83.838604" rx="74.3203791" ry="70.5668246"></ellipse>
                    <g mask="url(#mask-2)">
                        <g transform="translate(38.315921, 81.181818)">
                            <g id="Group-36" transform="translate(0.000000, 0.000000)">
                                <g id="laptop" transform="translate(16.694832, 0.000000)">
                                    <path d="M5.30391333,0 L37.2855345,0 C40.2148049,0 42.5894476,2.48521132 42.5894476,5.55087487 L42.5894476,56.43817 L0,56.43817 L0,5.55087487 C0,2.48521132 2.37464288,0 5.30391333,0 Z" id="Rectangle" fill="url(#linearGradient-3)" fill-rule="nonzero"></path>
                                    <path d="M37.0687283,3.74611483 C38.5496372,3.74611483 39.7501511,4.9834963 39.7501511,6.50988372 L39.7501511,56.43817 L2.83929651,56.43817 L2.83929651,6.50988372 C2.83929651,4.9834963 4.0398104,3.74611483 5.52071933,3.74611483 L9.75998893,3.74611483 L9.76008173,4.942549 C9.76008173,5.78663421 10.402545,6.47605587 11.2109476,6.51965639 L11.2923234,6.5218455 L31.2971242,6.5218455 C32.1433579,6.5218455 32.8293659,5.81477035 32.8293659,4.942549 L32.8292475,3.74611483 L37.0687283,3.74611483 Z" id="Combined-Shape" fill="#FFFFFF" fill-rule="nonzero"></path>
                                    <g id="Group-50" transform="translate(9.619514, 21.351005)">
                                        <g id="Group-49" transform="translate(0.619733, 3.322375)" stroke-width="6.3">
                                            <path d="M23.4,11.2175288 C23.4,8.49692858 22.3700075,6.00474615 20.6600757,4.07335512" id="Oval" stroke="#00DE00"></path>
                                            <path d="M14.9075053,0.531078836 C13.8882352,0.255798362 12.8122419,0.108437859 11.7,0.108437859 C10.3263644,0.108437859 9.00801747,0.333201292 7.78352768,0.746107596" id="Oval" stroke="#FFC502"></path>
                                            <path d="M2.7,4.38116513 L2.05032991,4.93365222 C0.756957032,6.72080825 0,8.88523468 0,11.2175288" id="Oval" stroke="#DE2733"></path>
                                            <path d="M20.7317194,4.15506417 C19.1965314,2.38714657 17.096723,1.07771749 14.6943358,0.475583993" id="Oval" stroke="#00C4FF"></path>
                                            <path d="M7.68495813,0.779822181 C5.87648654,1.40715525 4.27673311,2.4461396 3.01150727,3.7773198 C2.74090327,4.06202999 2.48560183,4.36010634 2.24683383,4.67038013" id="Oval" stroke="#FD852C"></path>
                                        </g>
                                        <polygon id="Fill-21" fill="#303030" transform="translate(14.768204, 10.149884) rotate(-4.000000) translate(-14.768204, -10.149884) " points="10.313265 12.9541556 12.0194652 14.358413 19.2231432 5.9413557"></polygon>
                                        <path d="M13.6165837,13.1676778 C13.6165837,14.1115685 12.8345188,14.8767687 11.8697296,14.8767687 C10.9049832,14.8767687 10.1228755,14.1115685 10.1228755,13.1676778 C10.1228755,12.2237453 10.9049832,11.4585869 11.8697296,11.4585869 C12.8345188,11.4585869 13.6165837,12.2237453 13.6165837,13.1676778" id="Fill-23" fill="#303030"></path>
                                        <polygon id="Rectangle" fill="#FFFFFF" transform="translate(21.319733, 7.276267) rotate(49.000000) translate(-21.319733, -7.276267) " points="21.3400234 3.31639157 21.5019976 3.31222114 21.2994428 11.2361429 21.1374685 11.2403133"></polygon>
                                        <polygon id="Rectangle-Copy-8" fill="#FFFFFF" transform="translate(3.319733, 8.130813) scale(-1, 1) rotate(49.000000) translate(-3.319733, -8.130813) " points="3.34002335 4.17093702 3.50199764 4.1667666 3.29944281 12.0906884 3.13746852 12.0948588"></polygon>
                                        <polygon id="Rectangle-Copy-9" fill="#FFFFFF" transform="translate(8.719733, 3.858085) scale(-1, 1) rotate(19.000000) translate(-8.719733, -3.858085) " points="8.69975894 -0.00775343859 8.86563798 -0.0103462412 8.73970722 7.72392429 8.57382818 7.72651709"></polygon>
                                        <polygon id="Rectangle-Copy-10" fill="#FFFFFF" transform="translate(15.019733, 3.858085) scale(-1, 1) rotate(-15.000000) translate(-15.019733, -3.858085) " points="14.8854929 -0.00212392124 15.0517005 -1.82164764e-05 15.1539732 7.71829477 14.9877656 7.71618906"></polygon>
                                    </g>
                                </g>
                                <path d="M78.114509,56.7251611 C78.1134545,56.8399715 78.0615321,56.949031 77.971513,57.0255176 C77.8773724,57.1065796 77.7547187,57.1511483 77.6277383,57.1504513 L0.486771126,57.1504513 C0.218871909,57.1504513 0,56.9588953 0,56.7251611 C0.000909105638,56.6103205 0.0528567761,56.5012075 0.142996316,56.424805 C0.237136713,56.343743 0.359790281,56.2991743 0.486771126,56.299871 L77.6277383,56.299871 C77.8968044,56.3004432 78.114509,56.4919826 78.114509,56.7251611 Z" id="Path" fill="#C7B1DD" fill-rule="nonzero" opacity="0.321297433"></path>
                            </g>
                            <g id="Group-115" transform="translate(36.384079, 28.200000)">
                                <path d="M9.62698917,71.001803 C9.62698917,71.001803 5.93968917,64.0047848 11.2676892,59.6081485 C16.5956892,55.2106576 24.1295892,54.0612939 24.1295892,54.0612939 C24.1295892,54.0612939 22.0199892,60.4609848 19.6880892,63.1673303 C15.4256892,68.1134394 9.62698917,71.001803 9.62698917,71.001803" id="Fill-1" fill="#A5E3B7"></path>
                                <path d="M11.4696492,101.016943 C11.4696492,101.016943 3.79354917,76.5085794 13.6080492,61.6540158" id="Stroke-3" stroke="#23A64A" stroke-width="0.5" stroke-linecap="round"></path>
                                <path d="M15.2427192,81.7437812 C15.2427192,81.7437812 12.1413192,73.0966358 17.9859192,69.1793994 C23.8305192,65.2630176 31.6191192,65.4578539 31.6191192,65.4578539 C31.6191192,65.4578539 28.8669192,72.2796903 26.2353192,74.878363 C21.4257192,79.6279267 15.2427192,81.7437812 15.2427192,81.7437812" id="Fill-9" fill="#A5E3B7"></path>
                                <path d="M2.54830917,72.0224721 C2.54830917,72.0224721 8.39650917,71.1909994 10.3594092,74.7459085 C12.3232092,78.2991085 11.4610092,82.5026176 11.4610092,82.5026176 C11.4610092,82.5026176 7.33990917,80.3389085 5.91880917,78.657163 C3.32320917,75.5825085 2.54830917,72.0224721 2.54830917,72.0224721" id="Fill-11" fill="#A5E3B7"></path>
                                <path d="M15.3548592,109.397983 C15.3548592,109.397983 8.77855917,86.8157648 20.1797592,71.9586376" id="Stroke-13" stroke="#23A64A" stroke-width="0.5" stroke-linecap="round"></path>
                                <path d="M7.67407917,76.7875885 C7.67407917,76.7875885 12.4944792,82.0071521 13.7445792,89.4562248" id="Stroke-15" stroke="#23A64A" stroke-width="0.5" stroke-linecap="round"></path>
                                <polygon id="Fill-17" fill="#B5B6FF" points="30.1358292 71.3507139 58.7432292 71.8386594 57.3392292 145.951678 29.0387292 145.468859"></polygon>
                                <polygon id="Fill-19" fill="#FFD8CC" points="47.1184692 29.2664012 39.5710692 28.9237285 40.2595692 15.247583 47.8069692 15.5902558"></polygon>
                                <path d="M34.8638892,3.45434302 C34.8638892,3.45434302 32.2115892,8.71150666 33.4238892,12.5740521 L34.5569892,12.8791248 L37.5206892,5.81117939 L34.8638892,3.45434302 Z" id="Fill-21" fill="#424242"></path>
                                <path d="M48.9580692,9.67697211 C48.9580692,9.67697211 49.2766692,23.7692812 39.4108692,23.4590812 C35.1304692,23.3249176 33.6517692,16.2338994 34.5814692,9.52742666 C35.3509692,3.97544484 37.9699692,3.75668121 41.5375692,3.47468121 C47.0851692,3.03544484 49.3990692,1.78182666 48.9580692,9.67697211" id="Fill-23" fill="#FFD8CC"></path>
                                <path d="M32.8832592,14.8250958 C33.3611592,16.0000958 34.3880592,16.6700594 35.1782592,16.3205503 C35.9684592,15.9718958 36.2213592,14.736223 35.7443592,13.561223 C35.2664592,12.3853685 34.2386592,11.7154048 33.4493592,12.0649139 C32.6591592,12.4135685 32.4062592,13.6500958 32.8832592,14.8250958" id="Fill-25" fill="#FFD8CC"></path>
                                <path d="M38.4520092,13.7886176 C38.2630092,13.9296176 38.0614092,14.050963 37.8499092,14.1406903 C36.3379092,14.7798903 37.8922092,15.9924903 38.7157092,16.0899085" id="Stroke-27" stroke="#EAB8A9" stroke-width="0.5" stroke-linecap="round"></path>
                                <path d="M42.8957592,10.6170576 C42.8957592,10.6170576 43.8317592,10.4452939 44.4932592,11.0622758 C45.1952592,11.7177121 43.8605592,11.2947121 43.5230592,11.2690758 C43.0856592,11.2340394 41.8103592,10.8332576 42.8957592,10.6170576" id="Fill-29" fill="#424242"></path>
                                <path d="M36.0060792,9.99486302 C36.0060792,9.99486302 36.8655792,9.60348121 37.6701792,10.041863 C38.5242792,10.5067358 37.1202792,10.4195721 36.7863792,10.4751176 C36.3543792,10.5468994 35.0133792,10.4657176 36.0060792,9.99486302" id="Fill-31" fill="#424242"></path>
                                <path d="M37.9282092,18.2707939 C39.6580092,18.2109758 41.1601092,16.8385758 41.1601092,16.8385758 C41.1601092,16.8385758 41.4175092,18.8792303 39.9289092,19.1877212 C38.2837092,19.5286848 37.9282092,18.2707939 37.9282092,18.2707939" id="Fill-33" fill="#94685A"></path>
                                <path d="M36.0253392,12.2810285 C36.0253392,12.2810285 36.6832392,13.1834285 37.7308392,12.2810285" id="Stroke-35" stroke="#424242" stroke-width="0.5" stroke-linecap="round"></path>
                                <path d="M42.1434492,12.795123 C42.1434492,12.795123 42.8013492,13.697523 43.8489492,12.795123" id="Stroke-37" stroke="#424242" stroke-width="0.5" stroke-linecap="round"></path>
                                <path d="M49.1088192,13.177703 C49.1088192,13.177703 46.3170192,13.9587576 47.5464192,6.2362303 C47.5464192,6.2362303 38.6517192,10.3551394 34.1130192,3.90075757 C29.6670192,-2.42031516 46.8048192,0.578284842 48.9387192,1.68577575 C52.0077192,3.27950302 50.5308192,9.89112121 49.1088192,13.177703" id="Fill-39" fill="#424242"></path>
                                <path d="M50.0716392,16.1089648 C50.6611392,14.7228921 50.2993392,13.2513648 49.2643392,12.8206739 C48.2284392,12.3891285 46.9108392,13.1633467 46.3213392,14.5494194 C45.7309392,15.9346376 46.0927392,17.4070194 47.1277392,17.8377103 C48.1636392,18.2684012 49.4821392,17.4950376 50.0716392,16.1089648" id="Fill-41" fill="#FFD8CC"></path>
                                <path d="M48.8161392,14.3623594 C48.8161392,14.3623594 47.2924392,14.7751048 47.2582392,16.3449048" id="Stroke-43" stroke="#EAB8A9" stroke-width="0.5" stroke-linecap="round"></path>
                                <path d="M48.5379492,15.8440558 C48.5379492,15.8440558 48.4083492,15.3902921 47.9979492,14.862183" id="Stroke-45" stroke="#EAB8A9" stroke-width="0.5" stroke-linecap="round"></path>
                                <path d="M39.8864292,23.5512012 C39.8864292,23.5512012 43.2641292,23.265783 45.1541292,20.9653467" id="Stroke-47" stroke="#EAB8A9" stroke-width="0.5" stroke-linecap="round"></path>
                                <path d="M34.3888692,13.7644339 C34.3888692,13.7644339 34.2682692,14.5113067 34.5139692,16.2417612" id="Stroke-49" stroke="#EAB8A9" stroke-width="0.5" stroke-linecap="round"></path>
                                <path d="M47.2942392,26.6514067 C41.8780392,30.2379339 39.6370392,26.5984248 39.6370392,26.5984248 C37.5625392,27.1795158 35.3134392,27.8323885 33.8968392,28.246843 C32.9599392,28.5211521 32.0932392,28.9646612 31.3363392,29.5568612 C26.5771392,33.2835339 18.9361392,38.7098976 15.8950392,40.4659885 L18.3385392,49.791643 L28.8838392,44.6156612 L28.9432392,72.4106067 C39.9763392,78.1052976 59.1175392,73.9077703 59.1175392,73.9077703 L58.7944392,30.8865339 C55.1989392,28.2630794 47.2942392,26.6514067 47.2942392,26.6514067" id="Fill-51" fill="#E2E2FF"></path>
                                <path d="M40.5130992,61.1970903 C40.5130992,61.1970903 34.0636992,62.5464176 33.0826992,63.8000358 C32.1025992,65.0536539 32.7298992,65.4228176 35.4766992,64.2367085 C38.2243992,63.0505994 41.5894992,62.7284358 41.5894992,62.7284358 L40.5130992,61.1970903 Z" id="Fill-53" fill="#FFD8CC"></path>
                                <path d="M40.2295992,62.5865812 C40.2295992,62.5865812 32.9422992,64.3187448 31.9828992,65.5868903 C31.3582992,66.4115267 31.9018992,66.9592903 34.3597992,66.0252721 C37.1605992,64.961363 40.4716992,64.5178539 40.4716992,64.5178539 L40.2295992,62.5865812 Z" id="Fill-55" fill="#FFD8CC"></path>
                                <path d="M41.2737792,63.8016594 C41.2737792,63.8016594 34.8036792,65.8927321 33.8217792,67.1309685 C33.0288792,68.1316412 34.2636792,68.2179503 36.4704792,67.178823 C39.1884792,65.8995685 42.5013792,65.2253321 42.5013792,65.2253321 L41.2737792,63.8016594 Z" id="Fill-57" fill="#FFD8CC"></path>
                                <path d="M43.2882492,64.8247212 C43.2882492,64.8247212 37.9413492,67.6233576 37.3446492,68.477903 C36.8118492,69.2401576 38.1078492,69.1427394 40.3830492,67.7686303 C42.7653492,66.3304303 43.2171492,66.5158667 43.2171492,66.5158667 L43.2882492,64.8247212 Z" id="Fill-59" fill="#FFD8CC"></path>
                                <path d="M41.8995492,66.8943448 C41.8995492,66.8943448 46.9323492,66.0859448 48.4425492,65.995363 C49.9527492,65.9047812 51.3495492,64.8024176 51.3180492,63.6949267 C51.2847492,62.5865812 50.7042492,61.0637812 47.1051492,62.2712539 C43.5051492,63.4787267 41.8995492,66.8943448 41.8995492,66.8943448" id="Fill-61" fill="#FFD8CC"></path>
                                <path d="M39.7893192,64.5835685 C39.7893192,64.5835685 40.1394192,64.5955321 39.6552192,64.8424958 L40.6092192,64.5476776 L40.4868192,64.3878776 L39.7893192,64.5835685 Z" id="Fill-63" fill="#FFD8CC"></path>
                                <path d="M42.3939192,66.5914085 L40.4283192,64.7866085 L39.5094192,61.4513176 L44.5674192,59.185063 C44.5674192,59.185063 52.1994192,59.9763721 51.3048192,62.3050085 C50.4111192,64.6336448 42.3939192,66.5914085 42.3939192,66.5914085" id="Fill-65" fill="#FFD8CC"></path>
                                <path d="M39.6152592,62.881143 C39.6152592,62.881143 36.5714592,63.181943 32.9255592,64.9978521" id="Stroke-67" stroke="#EAB8A9" stroke-width="0.5" stroke-linecap="round"></path>
                                <path d="M44.5670592,59.185063 C44.5670592,59.185063 41.7833592,59.1995903 39.6872592,59.9396267 C37.5911592,60.679663 37.2662592,60.0002994 36.6056592,60.2814448 C35.9441592,60.5617358 36.7613592,61.5777903 38.5487592,61.7435721 C40.3352592,61.9102085 44.5670592,59.185063 44.5670592,59.185063" id="Fill-69" fill="#FFD8CC"></path>
                                <line x1="38.2687692" y1="61.6978539" x2="40.0453692" y2="61.2569085" id="Stroke-71" stroke="#EAB8A9" stroke-width="0.5" stroke-linecap="round"></line>
                                <path d="M40.3821492,65.7377176 C40.3821492,65.7377176 41.1579492,65.9043539 40.7898492,66.2863358 C40.7898492,66.2863358 41.8059492,65.8094994 41.7492492,65.8000994 C41.6934492,65.7915539 41.1660492,65.3010448 41.1660492,65.3010448 L40.3821492,65.7377176 Z" id="Fill-73" fill="#FFD8CC"></path>
                                <path d="M37.6201392,65.0784358 C37.6201392,65.0784358 39.1456392,64.3734358 40.1221392,64.2879812" id="Stroke-75" stroke="#EAB8A9" stroke-width="0.5" stroke-linecap="round"></path>
                                <path d="M58.7596092,30.8669648 C58.7596092,30.8669648 60.5749092,31.5386376 69.6190092,56.4418012 C69.6190092,56.4418012 67.6894092,64.0088012 45.2308092,66.5297103 L43.7359092,57.7680558 L58.2466092,52.5151648" id="Fill-77" fill="#E2E2FF"></path>
                                <line x1="28.9831092" y1="44.5501176" x2="29.4061092" y2="38.8639721" id="Stroke-79" stroke="#B5B6FF" stroke-width="0.5" stroke-linecap="round"></line>
                                <polygon id="Fill-81" fill="#B5B6FF" points="42.5876892 28.1919812 39.6572892 25.3292539 36.3569892 27.464763 39.9659892 31.0564176"></polygon>
                                <polygon id="Fill-83" fill="#B5B6FF" points="42.4690692 28.1919812 47.2903692 24.8301994 49.8994692 27.2314721 45.0853692 31.0547085"></polygon>
                                <path d="M3.31510917,15.2114358 C3.31510917,15.2114358 3.73270917,13.656163 4.90720917,13.9877267 C6.08170917,14.3201448 6.96280917,17.2136358 6.66940917,18.0912539 C6.24190917,19.3687994 4.92790917,18.1143267 4.92790917,18.1143267 C4.92790917,18.1143267 4.05940917,15.5096721 3.31510917,15.2114358" id="Fill-85" fill="#FFD8CC"></path>
                                <path d="M7.46311917,24.5542667 C7.46311917,24.5542667 8.97331917,22.2751939 9.12091917,21.0608848 C9.26851917,19.8465758 8.21371917,18.3075394 7.89061917,17.7879758 C7.56751917,17.2675576 6.76651917,15.1183758 6.76651917,15.1183758 L2.73271917,16.204503 L0.536719168,18.9450303 C0.536719168,18.9450303 1.63651917,21.9641394 1.94881917,22.6597394 C2.25931917,23.3553394 5.33011917,25.4421394 5.33011917,25.4421394 L7.46311917,24.5542667 Z" id="Fill-87" fill="#FFD8CC"></path>
                                <path d="M4.70947917,16.9397539 L4.95787917,14.6504267 C4.95787917,14.6504267 3.66367917,8.42762666 5.00107917,8.38831757 C5.75527917,8.36609939 6.04597917,10.5691176 6.46897917,12.7046267 C6.84427917,14.6042812 6.96667917,15.8476448 6.96667917,15.8476448 L4.70947917,16.9397539 Z" id="Fill-89" fill="#FFD8CC"></path>
                                <path d="M0.586579168,17.8130994 C0.586579168,17.8130994 0.518179168,18.0028085 0.861079168,18.3745358" id="Fill-91" fill="#8163D6"></path>
                                <path d="M6.65230917,18.2215721 C6.65230917,18.2215721 7.08610917,19.1641358 6.63070917,19.3658085 C6.17440917,19.5683358 4.31230917,18.9240085 3.86770917,19.4965539 C3.42400917,20.0690994 5.08810917,21.3090448 5.90800917,22.1037721 C5.90800917,22.1037721 5.34010917,22.995063 5.48320917,23.7333903" id="Stroke-93" stroke="#EAB8A9" stroke-width="0.5"></path>
                                <path d="M5.13886917,14.1394939 C5.13886917,14.1394939 7.31776917,17.7097848 6.65266917,18.2216576 C5.70856917,18.9463121 5.04976917,18.0413485 5.04976917,18.0413485" id="Stroke-95" stroke="#EAB8A9" stroke-width="0.5"></path>
                                <path d="M1.49575917,15.8519176 C1.49575917,15.8519176 1.91335917,14.2966448 3.08785917,14.6282085 C4.26235917,14.9606267 5.58175917,17.5909176 4.94725917,18.7864267 C4.31275917,19.9810812 3.10855917,18.7548085 3.10855917,18.7548085 C3.10855917,18.7548085 2.24005917,16.1501539 1.49575917,15.8519176" id="Fill-97" fill="#FFD8CC"></path>
                                <path d="M0.935509168,15.6867339 C0.935509168,15.6867339 1.82740917,15.4320794 2.57530917,17.2787521 C3.32410917,19.1254248 3.52480917,19.4176794 3.01540917,19.8628976 C2.50600917,20.3081158 0.931009168,18.5315158 0.931009168,18.5315158 L0.536809168,18.9451158 C0.536809168,18.9451158 -0.904090832,16.327643 0.935509168,15.6867339" id="Fill-99" fill="#FFD8CC"></path>
                                <path d="M1.49494917,15.7814176 C1.49494917,15.7814176 3.50824917,18.0339994 3.52984917,19.1286721 C3.55144917,20.2216358 2.08624917,19.4901448 0.924349168,18.1015085" id="Stroke-101" stroke="#EAB8A9" stroke-width="0.5"></path>
                                <path d="M3.43507917,14.7900594 C3.43507917,14.7900594 5.84887917,18.4748594 4.95247917,18.9602412 C3.90037917,19.530223 3.47017917,18.8423139 3.47017917,18.8423139" id="Stroke-103" stroke="#EAB8A9" stroke-width="0.5"></path>
                                <path d="M16.7224092,50.1714885 C16.7224092,50.1714885 22.8586092,49.7219976 21.3574092,44.5613976 C19.6474092,38.6795612 18.8887092,38.9658339 15.8476092,33.4070158 C12.3196092,26.9594703 9.65110917,22.1654703 9.53140917,21.5091794 C9.42700917,20.9357794 4.24030917,23.2157067 2.93080917,23.8002158 C2.76160917,23.8762703 2.68600917,24.0574339 2.75530917,24.2223612 C3.16660917,25.1999612 4.61290917,28.6565976 6.97270917,34.5529612 C9.46210917,40.7714885 10.8598092,49.4553794 16.7224092,50.1714885" id="Fill-105" fill="#E2E2FF"></path>
                                <path d="M44.0230092,59.0615812 C44.0230092,59.0615812 54.9985092,54.8572176 58.8865092,54.1393994" id="Stroke-107" stroke="#B5B6FF" stroke-width="0.5" stroke-linecap="round"></path>
                                <path d="M53.2031892,39.7833776 C53.2031892,39.7833776 56.6591892,51.062523 58.1711892,54.1397412" id="Stroke-109" stroke="#B5B6FF" stroke-width="0.5" stroke-linecap="round"></path>
                                <path d="M45.2306292,66.5296248 C45.2306292,66.5296248 50.9888292,65.6759339 59.0078292,63.6762976" id="Stroke-111" stroke="#B5B6FF" stroke-width="0.5" stroke-linecap="round"></path>
                                <path d="M18.9130992,38.4756667 C18.9130992,38.4756667 18.2650992,43.3209394 17.3740992,45.1667576" id="Stroke-113" stroke="#B5B6FF" stroke-width="0.5" stroke-linecap="round"></path>
                            </g>
                        </g>
                    </g>
                </g>
            </g>
        </g>
    </g>
</svg>