<?xml version="1.0" encoding="UTF-8"?>
<svg width="32px" height="32px" viewBox="0 0 32 32" version="1.1" xmlns="http://www.w3.org/2000/svg" xmlns:xlink="http://www.w3.org/1999/xlink">
    <title>A36AE536-704D-447A-A40C-7E0622CBCA85@2x</title>
    <g id="Final---Credit-Advisory-&amp;-Rectification" stroke="none" stroke-width="1" fill="none" fill-rule="evenodd">
        <g id="Mobile---Dashboard---Credit-plus-Advisory" transform="translate(-164.000000, -997.000000)">
            <g id="Group-39" transform="translate(0.000000, 596.000000)">
                <g id="Group-33" transform="translate(24.000000, 334.000000)">
                    <g id="Group-32" transform="translate(0.000000, 64.000000)">
                        <g id="Group-27" transform="translate(140.000000, 0.000000)">
                            <g id="Group-24" transform="translate(0.000000, 3.000000)">
                                <circle id="Oval" fill="#F4F4F4" cx="16" cy="16" r="16"></circle>
                                <g id="Group-25" transform="translate(8.000000, 5.000000)" fill-rule="nonzero">
                                    <g id="noun_Money-Bag_1253818-(1)" fill="#052F5F" stroke="#1B1DC7" stroke-width="0.1">
                                        <g id="Group">
                                            <path d="M15.4666667,3.2 C13.7909333,3.2 11.7045333,3.57866667 10.0810667,4.11946667 L11.3493333,2.53226667 C12.0106667,1.70773333 11.8709333,1.088 11.7290667,0.791466667 C11.5872,0.496 11.1914667,0 10.1333333,0 L5.86666667,0 C4.80853333,0 4.4128,0.496 4.26986667,0.791466667 C4.12906667,1.088 3.98933333,1.70773333 4.6496,2.53226667 L5.85706667,4.0416 C4.33493333,3.54453333 2.37226667,3.2 0.533333333,3.2 C0.238933333,3.2 0,3.43893333 0,3.73333333 C0,4.02773333 0.238933333,4.26666667 0.533333333,4.26666667 C3.2224,4.26666667 5.43893333,4.92266667 6.61653333,5.4656 C3.06773333,6.12266667 0.533333333,9.2832 0.533333333,13.3333333 L0.533333333,17.6 C0.533333333,19.6586667 2.208,21.3333333 4.26666667,21.3333333 L11.7333333,21.3333333 C13.792,21.3333333 15.4666667,19.6586667 15.4666667,17.6 L15.4666667,13.3333333 C15.4666667,9.328 12.9909333,6.18986667 9.504,5.4848 C10.8149333,4.9376 13.1669333,4.26666667 15.4666667,4.26666667 C15.7610667,4.26666667 16,4.02773333 16,3.73333333 C16,3.43893333 15.7610667,3.2 15.4666667,3.2 Z M5.232,1.2544 C5.27573333,1.16373333 5.49226667,1.06666667 5.86666667,1.06666667 L10.1333333,1.06666667 C10.5077333,1.06666667 10.7242667,1.16373333 10.768,1.2544 C10.8117333,1.344 10.752,1.5744 10.5173333,1.8656 L8.91733333,3.86773333 C8.41386667,4.49493333 7.58613333,4.49493333 7.0848,3.86773333 L5.48266667,1.8656 C5.248,1.5744 5.18826667,1.344 5.232,1.2544 Z M14.4,13.3333333 L14.4,17.6 C14.4,19.0709333 13.2032,20.2666667 11.7333333,20.2666667 L4.26666667,20.2666667 C2.7968,20.2666667 1.6,19.0709333 1.6,17.6 L1.6,13.3333333 C1.6,9.3152 4.2912,6.4 8,6.4 C11.7088,6.4 14.4,9.3152 14.4,13.3333333 Z" id="Shape"></path>
                                        </g>
                                    </g>
                                    <g id="Group" transform="translate(5.000000, 10.000000)" fill="#DB1072">
                                        <path d="M4.55357308,7.45971748 C4.44197775,7.35595584 4.32946014,7.25219419 4.2178648,7.14843255 C3.94856035,6.89958825 3.68017818,6.6498257 3.41087374,6.4009814 C3.08623276,6.1007154 2.76251406,5.80044941 2.43787308,5.50018341 C2.15657905,5.23940193 1.87528502,4.97862045 1.593991,4.71875721 C1.45749422,4.59203945 1.32191972,4.4634852 1.1835784,4.33860393 C1.18173385,4.33676744 1.1798893,4.33493095 1.17804475,4.33309446 C1.232459,4.46256696 1.28595098,4.5929577 1.34036523,4.72243019 C1.34036523,4.63519695 1.34036523,4.54704546 1.34036523,4.45981222 C1.15591013,4.64346115 0.971455033,4.82711008 0.786999932,5.01075901 C0.96592138,5.01075901 1.1457651,5.01075901 1.32468655,5.01075901 C1.50914165,5.01075901 1.6954413,5.01718672 1.8798964,5.00892252 C2.32351092,4.98872114 2.76712544,4.86016689 3.13972474,4.61683206 C3.49848991,4.38267967 3.80837448,4.06313053 4.00758599,3.68297725 C4.21325342,3.29180503 4.32577103,2.84553813 4.30179187,2.40294421 C4.27873498,1.96585976 4.15053869,1.52877531 3.90890251,1.16147745 C3.6718777,0.801525549 3.34723673,0.489322369 2.96080329,0.290981526 C2.59465992,0.103659618 2.19439235,0.00173446211 1.7821352,0.000816217464 C1.38555673,0.000816217464 0.988055992,0.000816217464 0.591477526,0.000816217464 C0.578565669,0.000816217464 0.566576087,0.000816217464 0.55366423,0.000816217464 C0.411633803,0.000816217464 0.263147447,0.0623386088 0.162619417,0.162427275 C0.0667027648,0.257924719 -0.00523472433,0.414944553 0.00029892868,0.551763005 C0.0067548572,0.694090926 0.0537909078,0.841928314 0.162619417,0.941098736 C0.270525651,1.04026916 0.404255599,1.10270979 0.55366423,1.10270979 C0.941942217,1.10270979 1.33114248,1.10270979 1.71942047,1.10270979 C1.82824897,1.10270979 1.93707748,1.10546453 2.04498372,1.1192382 C1.99610312,1.11281048 1.94722251,1.10638277 1.89741964,1.09995506 C2.07080743,1.12291118 2.23958385,1.16882341 2.40098206,1.23585527 C2.35671284,1.21749037 2.31244361,1.19912548 2.26909666,1.18076059 C2.42680578,1.24779245 2.57436986,1.33410744 2.70994435,1.43786909 C2.67305333,1.40940351 2.63524004,1.38001968 2.59834902,1.35155409 C2.72931214,1.45347925 2.84644113,1.57009632 2.94881371,1.70048706 C2.92022317,1.66375727 2.89071035,1.62610924 2.86211981,1.58937946 C2.96633694,1.72436142 3.05303084,1.87128056 3.12035695,2.0283004 C3.10191144,1.98422465 3.08346593,1.94014891 3.06502042,1.89699141 C3.13234653,2.05768423 3.17846031,2.225723 3.2015172,2.39835299 C3.19506127,2.34968602 3.18860534,2.30101906 3.18214941,2.25143385 C3.20428402,2.42039086 3.20428402,2.59210261 3.18214941,2.76105963 C3.18860534,2.71239266 3.19506127,2.66372569 3.2015172,2.61414048 C3.17846031,2.78677048 3.13234653,2.95480925 3.06502042,3.11550206 C3.08346593,3.07142632 3.10191144,3.02735057 3.12035695,2.98419307 C3.05303084,3.14121291 2.96633694,3.28813205 2.86211981,3.42311402 C2.89071035,3.38638423 2.92022317,3.3487362 2.94881371,3.31200641 C2.84644113,3.44239715 2.72931214,3.55901422 2.59834902,3.66093938 C2.63524004,3.63247379 2.67305333,3.60308997 2.70994435,3.57462438 C2.57436986,3.67838603 2.42680578,3.76470102 2.26909666,3.83173288 C2.31336589,3.81336799 2.35763511,3.7950031 2.40098206,3.7766382 C2.23958385,3.84367006 2.07080743,3.8895823 1.89741964,3.91253841 C1.94630024,3.9061107 1.99518084,3.89968299 2.04498372,3.89325527 C1.88081868,3.9143749 1.71573136,3.90978368 1.55064405,3.90978368 C1.34682116,3.90978368 1.14392055,3.90978368 0.940097666,3.90978368 C0.889372513,3.90978368 0.837725085,3.90978368 0.786999932,3.90978368 C0.488182669,3.90978368 0.233634631,4.16230096 0.233634631,4.46073047 C0.233634631,4.54612722 0.232712355,4.63152397 0.233634631,4.71692072 C0.235479182,4.87210407 0.299116191,5.02361443 0.413478354,5.12921257 C0.472503986,5.183389 0.531529618,5.23848368 0.59055525,5.29266012 C0.847870115,5.53048548 1.10518498,5.76922909 1.36249985,6.00705445 C1.70374178,6.32293061 2.04498372,6.63880677 2.38622565,6.95560117 C2.6933434,7.24025701 3.00138341,7.52491285 3.30850116,7.80956869 C3.46067661,7.95097837 3.6119298,8.09238804 3.76502753,8.23287947 C3.76687208,8.23471596 3.76963891,8.23655245 3.77148346,8.23838894 C3.87754514,8.33664112 4.01588647,8.4 4.16252827,8.4 C4.29810277,8.4 4.46042326,8.3403141 4.55357308,8.23838894 C4.65041201,8.13370905 4.7223495,7.99597236 4.71589357,7.84905321 C4.70943764,7.70672529 4.66147932,7.56072439 4.55357308,7.45971748 L4.55357308,7.45971748 Z" id="Path"></path>
                                        <path d="M0.55366423,1.10270979 C0.715984718,1.10270979 0.878305207,1.10270979 1.0406257,1.10270979 C1.43074823,1.10270979 1.82087077,1.10270979 2.21099331,1.10270979 C2.68135381,1.10270979 3.15079204,1.10270979 3.62115255,1.10270979 C4.02879832,1.10270979 4.43644409,1.10270979 4.84408987,1.10270979 C5.0423791,1.10270979 5.24066833,1.10454628 5.43803529,1.10270979 C5.44080212,1.10270979 5.44356894,1.10270979 5.44633577,1.10270979 C5.5883662,1.10270979 5.73685255,1.0411874 5.83738058,0.941098736 C5.93329724,0.845601292 6.00523472,0.688581458 5.99970107,0.551763005 C5.99324514,0.409435085 5.94620909,0.261597697 5.83738058,0.162427275 C5.72947435,0.0632568534 5.5957444,0.000816217464 5.44633577,0.000816217464 C5.28401528,0.000816217464 5.12169479,0.000816217464 4.9593743,0.000816217464 C4.56925177,0.000816217464 4.17912923,0.000816217464 3.78900669,0.000816217464 C3.31864619,0.000816217464 2.84920796,0.000816217464 2.37884745,0.000816217464 C1.97120168,0.000816217464 1.56355591,0.000816217464 1.15591013,0.000816217464 C0.9576209,0.000816217464 0.759331667,-0.00102027183 0.56196471,0.000816217464 C0.559197883,0.000816217464 0.556431057,0.000816217464 0.55366423,0.000816217464 C0.411633803,0.000816217464 0.263147447,0.0623386088 0.162619417,0.162427275 C0.0667027648,0.257924719 -0.00523472433,0.414944553 0.00029892868,0.551763005 C0.0067548572,0.694090926 0.0537909078,0.841928314 0.162619417,0.941098736 C0.270525651,1.04026916 0.404255599,1.10270979 0.55366423,1.10270979 L0.55366423,1.10270979 Z" id="Path"></path>
                                        <path d="M0.55366423,3.05765265 C0.715984718,3.05765265 0.878305207,3.05765265 1.0406257,3.05765265 C1.43074823,3.05765265 1.82087077,3.05765265 2.21099331,3.05765265 C2.68135381,3.05765265 3.15079204,3.05765265 3.62115255,3.05765265 C4.02879832,3.05765265 4.43644409,3.05765265 4.84408987,3.05765265 C5.0423791,3.05765265 5.24066833,3.05948914 5.43803529,3.05765265 C5.44080212,3.05765265 5.44356894,3.05765265 5.44633577,3.05765265 C5.5883662,3.05765265 5.73685255,2.99613025 5.83738058,2.89604159 C5.93329724,2.80054414 6.00523472,2.64352431 5.99970107,2.50670586 C5.99324514,2.36437794 5.94620909,2.21654055 5.83738058,2.11737013 C5.72947435,2.01819971 5.5957444,1.95575907 5.44633577,1.95575907 C5.28401528,1.95575907 5.12169479,1.95575907 4.9593743,1.95575907 C4.56925177,1.95575907 4.17912923,1.95575907 3.78900669,1.95575907 C3.31864619,1.95575907 2.84920796,1.95575907 2.37884745,1.95575907 C1.97120168,1.95575907 1.56355591,1.95575907 1.15591013,1.95575907 C0.9576209,1.95575907 0.759331667,1.95392258 0.56196471,1.95575907 C0.559197883,1.95575907 0.556431057,1.95575907 0.55366423,1.95575907 C0.411633803,1.95575907 0.263147447,2.01728146 0.162619417,2.11737013 C0.0667027648,2.21286757 -0.00523472433,2.36988741 0.00029892868,2.50670586 C0.0067548572,2.64903378 0.0537909078,2.79687117 0.162619417,2.89604159 C0.270525651,2.99521201 0.404255599,3.05765265 0.55366423,3.05765265 L0.55366423,3.05765265 Z" id="Path"></path>
                                    </g>
                                </g>
                            </g>
                        </g>
                    </g>
                </g>
            </g>
        </g>
    </g>
</svg>