<?xml version="1.0" encoding="UTF-8"?>
<svg width="14px" height="14px" viewBox="0 0 14 14" version="1.1" xmlns="http://www.w3.org/2000/svg" xmlns:xlink="http://www.w3.org/1999/xlink">
    <title>09C0F4F6-CE3C-4358-8A4E-000EEC9CA75D@2x</title>
    <g id="Credit-Advisory-&amp;-Rectification-Copy" stroke="none" stroke-width="1" fill="none" fill-rule="evenodd">
        <g id="Desktop----Credit-plus-Advisory-with-Pre-Approved-Offers" transform="translate(-1251.000000, -1391.000000)" fill="#1B1DC7" fill-rule="nonzero">
            <g id="Group-22" transform="translate(442.000000, 1137.000000)">
                <g id="Group-18" transform="translate(360.000000, 32.000000)">
                    <g id="Group-11" transform="translate(333.000000, 217.000000)">
                        <g id="noun_Error_2190951" transform="translate(116.000000, 5.000000)">
                            <path d="M12.8321376,7.00049814 C12.8321376,7.29244618 12.8117,7.58293448 12.7737445,7.87196305 C12.7810436,7.82087214 12.7883427,7.76832149 12.794182,7.71723058 C12.718271,8.27047212 12.5708284,8.81349548 12.3547738,9.32878378 C12.3737516,9.28207209 12.3941892,9.23536041 12.4131669,9.18864872 C12.1985722,9.69809805 11.9182852,10.1783526 11.581065,10.6162746 C11.6117213,10.5768617 11.6423777,10.5374487 11.6730341,10.4980357 C11.3328942,10.9374175 10.9387406,11.3330071 10.4993324,11.6716668 C10.5387477,11.6410123 10.5781631,11.6103577 10.6175785,11.5797032 C10.17963,11.9169032 9.69934662,12.1957136 9.18986664,12.4117551 C9.23658114,12.3927785 9.28329564,12.3723421 9.33001013,12.3533655 C8.81469084,12.5694071 8.27163481,12.7168408 7.71835999,12.7927473 C7.76945397,12.7854486 7.82200778,12.7781499 7.87310176,12.7723109 C7.29500986,12.8496772 6.70669916,12.8496772 6.12860726,12.7723109 C6.17970125,12.7796096 6.23225505,12.7869083 6.28334904,12.7927473 C5.73007421,12.7168408 5.18701819,12.5694071 4.67169889,12.3533655 C4.71841339,12.3723421 4.76512788,12.3927785 4.81184238,12.4117551 C4.3023624,12.1971733 3.82207898,11.9169032 3.38413057,11.5797032 C3.42354593,11.6103577 3.46296128,11.6410123 3.50237664,11.6716668 C3.0629684,11.3315474 2.66735501,10.9374175 2.3286749,10.4980357 C2.35933129,10.5374487 2.38998768,10.5768617 2.42064407,10.6162746 C2.08342379,10.1783526 1.80459664,9.69809805 1.58854209,9.18864872 C1.60751986,9.23536041 1.62795745,9.28207209 1.64693521,9.32878378 C1.43088066,8.81349548 1.28343803,8.27047212 1.20752698,7.71723058 C1.21482612,7.76832149 1.22212526,7.82087214 1.22796457,7.87196305 C1.15059368,7.29390592 1.15059368,6.70563062 1.22796457,6.12757349 C1.22066543,6.1786644 1.21336629,6.23121505 1.20752698,6.28230596 C1.28343803,5.72906441 1.43088066,5.18604106 1.64693521,4.67075276 C1.62795745,4.71746445 1.60751986,4.76417613 1.58854209,4.81088782 C1.80313681,4.30143849 2.08342379,3.82118396 2.42064407,3.38326189 C2.38998768,3.42267488 2.35933129,3.46208786 2.3286749,3.50150085 C2.66881483,3.06211905 3.0629684,2.66652945 3.50237664,2.32786972 C3.46296128,2.35852426 3.42354593,2.38917881 3.38413057,2.41983335 C3.82207898,2.08263336 4.3023624,1.80382298 4.81184238,1.58778143 C4.76512788,1.60675805 4.71841339,1.62719442 4.67169889,1.64617104 C5.18701819,1.43012949 5.73007421,1.28269573 6.28334904,1.20678924 C6.23225505,1.21408794 6.17970125,1.22138664 6.12860726,1.2272256 C6.70669916,1.14985937 7.29500986,1.14985937 7.87310176,1.2272256 C7.82200778,1.2199269 7.76945397,1.2126282 7.71835999,1.20678924 C8.27163481,1.28269573 8.81469084,1.43012949 9.33001013,1.64617104 C9.28329564,1.62719442 9.23658114,1.60675805 9.18986664,1.58778143 C9.69934662,1.80236324 10.17963,2.08263336 10.6175785,2.41983335 C10.5781631,2.38917881 10.5387477,2.35852426 10.4993324,2.32786972 C10.9387406,2.66798919 11.334354,3.06211905 11.6730341,3.50150085 C11.6423777,3.46208786 11.6117213,3.42267488 11.581065,3.38326189 C11.9182852,3.82118396 12.1971124,4.30143849 12.4131669,4.81088782 C12.3941892,4.76417613 12.3737516,4.71746445 12.3547738,4.67075276 C12.5708284,5.18604106 12.718271,5.72906441 12.794182,6.28230596 C12.7868829,6.23121505 12.7795838,6.1786644 12.7737445,6.12757349 C12.8117,6.41806179 12.8306777,6.7085501 12.8321376,7.00049814 C12.8321376,7.30558384 13.1007459,7.59899163 13.4160688,7.58439422 C13.7313916,7.56979682 14,7.32747995 14,7.00049814 C13.9985402,6.27938647 13.8905129,5.54951637 13.6671592,4.86343847 C13.4511047,4.19779693 13.1387015,3.55697098 12.7328693,2.98621255 C12.5197344,2.68550607 12.2861619,2.39793725 12.030692,2.13226453 C11.7752221,1.86805155 11.4978548,1.63303338 11.207349,1.40969312 C10.6496947,0.981989242 10.0278079,0.655007435 9.36796566,0.412690559 C8.69352511,0.164534723 7.97382989,0.0331581039 7.25705433,0.00542303987 C6.53005997,-0.0237717644 5.78846733,0.0652723886 5.08920971,0.263797058 C4.41914864,0.453563285 3.76660551,0.748430808 3.18413413,1.13088274 C2.6045824,1.51187494 2.073205,1.97461259 1.63233693,2.51033725 C1.40022428,2.79352685 1.1827099,3.08985411 0.992932256,3.40369826 C0.800234956,3.72338136 0.642573529,4.06058135 0.50097021,4.40508004 C0.22652254,5.07072158 0.0747004252,5.78015532 0.0192269601,6.49834751 C-0.0362465051,7.22383839 0.0294457563,7.96538642 0.201705464,8.67190068 C0.366666031,9.35359936 0.644033357,10.0192409 1.00899036,10.6191941 C1.36664823,11.2074694 1.81335561,11.7519525 2.3286749,12.210311 C2.84983351,12.6730486 3.43376472,13.0671785 4.07024974,13.3532875 C4.41038967,13.5065603 4.75782874,13.6408564 5.11694644,13.7415784 C5.48774276,13.84522 5.86583822,13.9094486 6.24685333,13.9547005 C6.97384769,14.0393654 7.7139805,13.9955732 8.43075607,13.851059 C9.12271455,13.7109239 9.7971551,13.4554694 10.4132025,13.1109707 C11.0146517,12.7752304 11.5737658,12.3431473 12.0496698,11.8453759 C12.5284933,11.344685 12.9430845,10.7680876 13.2511082,10.1462383 C13.5664311,9.51271105 13.7956241,8.83539159 13.9036514,8.13471629 C13.9620445,7.75810331 13.9985402,7.3800306 13.9985402,6.99757866 C13.9985402,6.69249295 13.7299318,6.39908517 13.414609,6.41368257 C13.0992861,6.43119946 12.8321376,6.67351633 12.8321376,7.00049814 Z" id="Path"></path>
                            <g id="?" transform="translate(5.000000, 3.400000)">
                                <path d="M1.30371094,5.07324219 L1.30371094,4.76074219 C1.30371094,4.40266927 1.3688151,4.10481771 1.49902344,3.8671875 C1.62923177,3.62955729 1.85709635,3.38378906 2.18261719,3.12988281 C2.56998698,2.82389323 2.81982422,2.58626302 2.93212891,2.41699219 C3.04443359,2.24772135 3.10058594,2.04589844 3.10058594,1.81152344 C3.10058594,1.53808594 3.0094401,1.328125 2.82714844,1.18164062 C2.64485677,1.03515625 2.3828125,0.961914062 2.04101562,0.961914062 C1.73177083,0.961914062 1.4453125,1.00585938 1.18164062,1.09375 C0.91796875,1.18164062 0.660807292,1.2874349 0.41015625,1.41113281 L0,0.551757812 C0.660807292,0.183919271 1.3688151,0 2.12402344,0 C2.76204427,0 3.26822917,0.15625 3.64257812,0.46875 C4.01692708,0.78125 4.20410156,1.2125651 4.20410156,1.76269531 C4.20410156,2.00683594 4.16829427,2.22412109 4.09667969,2.41455078 C4.0250651,2.60498047 3.91682943,2.78645833 3.77197266,2.95898438 C3.62711589,3.13151042 3.37727865,3.35611979 3.02246094,3.6328125 C2.71972656,3.87044271 2.51708984,4.06738281 2.41455078,4.22363281 C2.31201172,4.37988281 2.26074219,4.58984375 2.26074219,4.85351562 L2.26074219,5.07324219 L1.30371094,5.07324219 Z M1.10351562,6.63085938 C1.10351562,6.13932292 1.34277344,5.89355469 1.82128906,5.89355469 C2.05566406,5.89355469 2.23470052,5.95784505 2.35839844,6.08642578 C2.48209635,6.21500651 2.54394531,6.39648438 2.54394531,6.63085938 C2.54394531,6.86197917 2.48128255,7.04508464 2.35595703,7.18017578 C2.23063151,7.31526693 2.05240885,7.3828125 1.82128906,7.3828125 C1.59016927,7.3828125 1.41276042,7.31689453 1.2890625,7.18505859 C1.16536458,7.05322266 1.10351562,6.86848958 1.10351562,6.63085938 Z" id="Shape"></path>
                            </g>
                        </g>
                    </g>
                </g>
            </g>
        </g>
    </g>
</svg>