<?xml version="1.0" encoding="UTF-8"?>
<svg width="24px" height="24px" viewBox="0 0 24 24" version="1.1" xmlns="http://www.w3.org/2000/svg" xmlns:xlink="http://www.w3.org/1999/xlink">
    <title>4B7CF061-B1A8-45A9-A9D5-D17298554B43@1x</title>
    <g id="Personal-Details-" stroke="none" stroke-width="1" fill="none" fill-rule="evenodd">
        <g id="Personal-Details---Desktop--(1)" transform="translate(-450.000000, -350.000000)">
            <g id="Group-23" transform="translate(442.000000, 347.000000)">
                <g id="Group-21" transform="translate(8.000000, 3.000000)">
                    <path d="M24,0 L24,24 L0,24 L0,0 L24,0 Z" id="Vector" opacity="0"></path>
                    <g id="Group-18" transform="translate(1.000000, 4.000000)" fill="#052F5F" fill-rule="nonzero">
                        <g id="Group">
                            <path d="M19.6428571,0 L2.35714286,0 C1.0553288,0 -3.48927236e-16,1.0745166 -3.48927236e-16,2.4 L-3.48927236e-16,13.6 C-3.48927236e-16,14.9254834 1.0553288,16 2.35714286,16 L19.6428571,16 C20.9446712,16 22,14.9254834 22,13.6 L22,2.4 C22,1.0745166 20.9446712,0 19.6428571,0 Z M2.35714286,1.6 L19.6428571,1.6 C20.0767952,1.6 20.4285714,1.9581722 20.4285714,2.4 L20.4285714,4.8 L1.57142857,4.8 L1.57142857,2.4 C1.57142857,1.9581722 1.92320484,1.6 2.35714286,1.6 Z M19.6428571,14.4 L2.35714286,14.4 C1.92320484,14.4 1.57142857,14.0418278 1.57142857,13.6 L1.57142857,6.4 L20.4285714,6.4 L20.4285714,13.6 C20.4285714,14.0418278 20.0767952,14.4 19.6428571,14.4 Z" id="Shape"></path>
                            <path d="M17.8571429,10.4 L13.8571429,10.4 C13.3048581,10.4 12.8571429,10.8477153 12.8571429,11.4 C12.8571429,11.9522847 13.3048581,12.4 13.8571429,12.4 L17.8571429,12.4 C18.4094276,12.4 18.8571429,11.9522847 18.8571429,11.4 C18.8571429,10.8477153 18.4094276,10.4 17.8571429,10.4 Z" id="Path"></path>
                        </g>
                    </g>
                </g>
            </g>
        </g>
    </g>
</svg>