<svg width="16" height="16" viewBox="0 0 16 16" fill="none" xmlns="http://www.w3.org/2000/svg">
<path d="M8 16C5.87824 16 3.84346 15.1571 2.34318 13.6568C0.842851 12.1566 0 10.1217 0 8C0 5.8783 0.842851 3.84346 2.34318 2.34318C3.8434 0.842851 5.8783 0 8 0C10.1217 0 12.1565 0.842851 13.6568 2.34318C15.1571 3.8434 16 5.8783 16 8C15.9974 10.121 15.1538 12.1543 13.654 13.654C12.1544 15.1537 10.1209 15.9974 8.00009 15.9999L8 16ZM8 1.17439C6.18976 1.17439 4.45374 1.89347 3.17346 3.17361C1.89333 4.45363 1.17425 6.18987 1.17425 8.00014C1.17425 9.81042 1.89333 11.5464 3.17346 12.8267C4.45348 14.1068 6.18973 14.8259 8 14.8259C9.81027 14.8259 11.5463 14.1068 12.8265 12.8267C14.1067 11.5467 14.8258 9.81042 14.8258 8.00014C14.8236 6.19056 14.1038 4.4556 12.8242 3.17618C11.5446 1.89676 9.80964 1.17676 8.00023 1.17462L8 1.17439Z" fill="#BD7814"/>
<path d="M8.00068 6.97174C8.36554 6.97174 8.66128 7.3366 8.66128 7.63234V11.8892C8.66128 12.254 8.36551 12.5498 8.00068 12.5498C7.63586 12.5498 7.34009 12.1849 7.34009 11.8892V7.63234C7.34009 7.26748 7.63586 6.97174 8.00068 6.97174Z" fill="#BD7814"/>
<path d="M8.95319 4.76963C8.95319 5.29651 8.52597 5.72376 7.99906 5.72376C7.47215 5.72376 7.04492 5.29654 7.04492 4.76963C7.04492 4.24263 7.47215 3.81549 7.99906 3.81549C8.52597 3.81549 8.95319 4.2426 8.95319 4.76963Z" fill="#BD7814"/>
</svg>
