<?xml version="1.0" encoding="UTF-8"?>
<svg width="24px" height="24px" viewBox="0 0 24 24" version="1.1" xmlns="http://www.w3.org/2000/svg" xmlns:xlink="http://www.w3.org/1999/xlink">
    <title>18E9BC49-E407-4D85-88DA-96ABDD6DF8F3@1x</title>
    <g id="Personal-Details-" stroke="none" stroke-width="1" fill="none" fill-rule="evenodd">
        <g id="Personal-Details---Desktop-" transform="translate(-625.000000, -347.000000)">
            <g id="Group-23" transform="translate(442.000000, 347.000000)">
                <g id="Group-21" transform="translate(183.000000, 0.000000)">
                    <path d="M24,0 L24,24 L0,24 L0,0 L24,0 Z" id="Vector" opacity="0"></path>
                    <g id="💰-" transform="translate(4.000000, 1.000000)" fill="#052F5F" fill-rule="nonzero">
                        <g id="Group">
                            <path d="M13.0105297,7.7708769 C13.5654853,7.44833918 13.8545747,6.83760305 13.7389997,6.23189633 C13.6234247,5.62618961 13.1267884,5.14921188 12.4875368,5.0299706 L14.7669494,0.723989265 C14.8490196,0.568988088 14.840259,0.384898454 14.7437967,0.237477336 C14.6473345,0.090056219 14.4769294,0.000330697169 14.2934503,0.000350803981 C13.4884085,-0.0082622446 12.6903139,0.141814172 11.9501457,0.440993778 C10.9029008,0.834199453 9.74263667,0.867135804 8.67228249,0.534042294 C6.85519982,0.00645070671 3.83422776,0.000350803981 3.70654974,0.000350803981 C3.52307058,0.000330697169 3.35266547,0.090056219 3.25620325,0.237477336 C3.15974104,0.384898454 3.15098039,0.568988088 3.23305062,0.723989265 L5.51246323,5.0299706 C4.87321163,5.14921188 4.37657532,5.62618961 4.2610003,6.23189633 C4.14542528,6.83760305 4.43451469,7.44833918 4.98947035,7.7708769 C1.79618045,10.0900602 -0.0524720944,13.6956516 0.00113456242,17.5000718 C0.00405185112,19.9841712 2.13530646,21.9972445 4.76523979,22 L13.2347602,22 C15.8646935,21.9972445 17.9959481,19.9841712 17.9988654,17.5000718 C18.0524721,13.6956516 16.2038195,10.0900602 13.0105297,7.7708769 Z M8.36108055,1.48982705 C9.66963542,1.89179835 11.0861467,1.84650935 12.3629289,1.36187909 C12.6953473,1.22609095 13.0436065,1.12792693 13.4004452,1.06943376 L11.319484,5.00027108 L6.68051597,5.00027108 L4.57398744,1.02033454 C5.85092163,1.04315169 7.1211618,1.20062557 8.36108055,1.48982705 L8.36108055,1.48982705 Z M5.82392985,6.00025513 L12.1760702,6.00025513 C12.4684193,6.00025513 12.7054152,6.22410919 12.7054152,6.50025513 C12.7054152,6.77638513 12.4684193,7.00023918 12.1760702,7.00023918 L5.82392985,7.00023918 C5.53158066,7.00023918 5.29458482,6.77638513 5.29458482,6.50025513 C5.29458482,6.22410919 5.53158066,6.00025513 5.82392985,6.00025513 Z M13.2347602,21.0000159 L4.76523979,21.0000159 C2.7198233,20.9976742 1.06230382,19.4320667 1.05982461,17.5000718 C1.00131942,13.6566478 3.05905387,10.0599974 6.4949276,8.00022324 L11.503008,8.00022324 C14.916863,10.0795451 16.9680131,13.6633257 16.9401754,17.5000718 C16.9376962,19.4320667 15.2801767,20.9976742 13.2347602,21.0000159 L13.2347602,21.0000159 Z" id="Shape" stroke="#052F5F" stroke-width="0.4"></path>
                            <g transform="translate(6.375000, 11.680000)" id="Path">
                                <path d="M4.22405245,6.25187712 C4.12053274,6.16490653 4.0161575,6.07793594 3.91263779,5.99096534 C3.66282164,5.78238985 3.41386102,5.57304471 3.16404487,5.36446922 C2.86289663,5.11279327 2.56260393,4.86111731 2.26145569,4.60944135 C2.00051759,4.39086039 1.73957948,4.17227944 1.47864138,3.95446813 C1.35202223,3.84825626 1.22625862,3.74050508 1.0979284,3.63583251 C1.09621733,3.63429321 1.09450627,3.63275391 1.0927952,3.63121461 C1.14327175,3.73973543 1.19289276,3.84902591 1.24336932,3.95754674 C1.24336932,3.88442987 1.24336932,3.81054335 1.24336932,3.73742648 C1.07226236,3.89135673 0.901155408,4.04528698 0.730048454,4.19921723 C0.896022199,4.19921723 1.06285148,4.19921723 1.22882522,4.19921723 C1.39993218,4.19921723 1.5727502,4.20460479 1.74385715,4.19767793 C2.15536938,4.1807456 2.5668816,4.07299442 2.91251765,3.86903684 C3.24532067,3.67277577 3.53278036,3.40493714 3.71757587,3.08630152 C3.90836012,2.75843009 4.01273536,2.38437958 3.99049146,2.01340767 C3.96910309,1.64705368 3.85018375,1.28069968 3.62603365,0.972839182 C3.40616121,0.671135892 3.10501297,0.409454466 2.7465439,0.243209796 C2.4068966,0.0862009402 2.03559451,0.000769651252 1.65317047,0 C1.28529052,0 0.916555034,0 0.548675083,0 C0.536697596,0 0.525575644,0 0.513598158,0 C0.381845803,0 0.244104706,0.0515666339 0.150851416,0.13545862 C0.0618757999,0.21550235 -0.00485591199,0.347112715 0.000277296619,0.461790751 C0.00626604,0.581086695 0.0498983132,0.705000547 0.150851416,0.788122882 C0.250948984,0.871245217 0.375001525,0.923581502 0.513598158,0.923581502 C0.873778295,0.923581502 1.23481397,0.923581502 1.5949941,0.923581502 C1.69594721,0.923581502 1.79690031,0.925890456 1.89699788,0.937435225 C1.85165454,0.932047666 1.80631119,0.926660107 1.76011232,0.921272548 C1.92095285,0.94051383 2.07751571,0.978996392 2.2272343,1.03518093 C2.18616863,1.01978791 2.14510296,1.00439488 2.10489283,0.989001859 C2.25118927,1.0451864 2.38807484,1.11753362 2.51383845,1.20450421 C2.47961706,1.18064502 2.44454013,1.15601618 2.41031874,1.13215699 C2.53180468,1.21758828 2.64045759,1.31533399 2.73542195,1.42462447 C2.70890037,1.39383842 2.68152326,1.36228272 2.65500168,1.33149667 C2.75167711,1.4446354 2.83209738,1.5677796 2.89455142,1.69938996 C2.87744072,1.6624467 2.86033003,1.62550344 2.84321933,1.58932983 C2.90567337,1.7240188 2.94845011,1.86486498 2.96983848,2.00955942 C2.96384973,1.9687679 2.95786099,1.92797639 2.95187225,1.88641522 C2.97240508,2.02803105 2.97240508,2.17195583 2.95187225,2.31357166 C2.95786099,2.27278015 2.96384973,2.23198863 2.96983848,2.19042746 C2.94845011,2.3351219 2.90567337,2.47596808 2.84321933,2.61065705 C2.86033003,2.57371379 2.87744072,2.53677053 2.89455142,2.50059692 C2.83209738,2.63220728 2.75167711,2.75535148 2.65500168,2.86849022 C2.68152326,2.83770417 2.70890037,2.80614846 2.73542195,2.77536241 C2.64045759,2.88465289 2.53180468,2.9823986 2.41031874,3.06782989 C2.44454013,3.0439707 2.47961706,3.01934186 2.51383845,2.99548267 C2.38807484,3.08245326 2.25118927,3.15480048 2.10489283,3.21098502 C2.1459585,3.195592 2.18702416,3.18019897 2.2272343,3.16480595 C2.07751571,3.22099049 1.92095285,3.25947305 1.76011232,3.27871433 C1.80545566,3.27332677 1.850799,3.26793922 1.89699788,3.26255166 C1.74471269,3.28025364 1.59157197,3.27640538 1.43843124,3.27640538 C1.24935806,3.27640538 1.06114041,3.27640538 0.872067226,3.27640538 C0.825012813,3.27640538 0.777102866,3.27640538 0.730048454,3.27640538 C0.452855189,3.27640538 0.216727593,3.48805947 0.216727593,3.73819613 C0.216727593,3.8097737 0.215872058,3.88135126 0.216727593,3.95292883 C0.218438663,4.08299989 0.277470562,4.20999235 0.383556873,4.29850224 C0.438311098,4.34391167 0.493065323,4.39009074 0.547819548,4.43550016 C0.786513749,4.63483984 1.02520795,4.83494916 1.26390215,5.03428884 C1.58045001,5.29904887 1.89699788,5.5638089 2.21354574,5.82933858 C2.49843882,6.06793047 2.78418743,6.30652236 3.06908051,6.54511425 C3.21024375,6.66364054 3.35055145,6.78216683 3.49257022,6.89992347 C3.49428129,6.90146277 3.4968479,6.90300208 3.49855896,6.90454138 C3.59694546,6.98689406 3.72527568,7.04 3.86130571,7.04 C3.98706932,7.04 4.13764344,6.98997267 4.22405245,6.90454138 C4.3138836,6.81680114 4.38061531,6.70135345 4.37462657,6.57820925 C4.36863782,6.4589133 4.32415002,6.33653876 4.22405245,6.25187712 L4.22405245,6.25187712 Z"></path>
                                <path d="M0.484456201,0.879349112 C0.626486629,0.879349112 0.768517056,0.879349112 0.910547483,0.879349112 C1.2519047,0.879349112 1.59326192,0.879349112 1.93461914,0.879349112 C2.34618459,0.879349112 2.75694304,0.879349112 3.16850848,0.879349112 C3.52519853,0.879349112 3.88188858,0.879349112 4.23857863,0.879349112 C4.41208171,0.879349112 4.58558479,0.880813609 4.75828088,0.879349112 C4.76070185,0.879349112 4.76312283,0.879349112 4.7655438,0.879349112 C4.88982042,0.879349112 5.01974598,0.830288462 5.10770801,0.750473373 C5.19163508,0.674319527 5.25458038,0.54910503 5.24973844,0.44 C5.2440895,0.326501479 5.20293296,0.208609467 5.10770801,0.129526627 C5.01329006,0.050443787 4.89627635,0.000650887574 4.7655438,0.000650887574 C4.62351337,0.000650887574 4.48148294,0.000650887574 4.33945252,0.000650887574 C3.9980953,0.000650887574 3.65673808,0.000650887574 3.31538086,0.000650887574 C2.90381541,0.000650887574 2.49305696,0.000650887574 2.08149152,0.000650887574 C1.72480147,0.000650887574 1.36811142,0.000650887574 1.01142137,0.000650887574 C0.837918288,0.000650887574 0.664415209,-0.000813609467 0.491719121,0.000650887574 C0.489298148,0.000650887574 0.486877175,0.000650887574 0.484456201,0.000650887574 C0.360179577,0.000650887574 0.230254016,0.0497115385 0.14229199,0.129526627 C0.0583649192,0.205680473 -0.00458038379,0.33089497 0.000261562595,0.44 C0.00591050005,0.553498521 0.0470670443,0.671390533 0.14229199,0.750473373 C0.236709945,0.829556213 0.353723649,0.879349112 0.484456201,0.879349112 L0.484456201,0.879349112 Z"></path>
                                <path d="M0.484456201,2.63934911 C0.626486629,2.63934911 0.768517056,2.63934911 0.910547483,2.63934911 C1.2519047,2.63934911 1.59326192,2.63934911 1.93461914,2.63934911 C2.34618459,2.63934911 2.75694304,2.63934911 3.16850848,2.63934911 C3.52519853,2.63934911 3.88188858,2.63934911 4.23857863,2.63934911 C4.41208171,2.63934911 4.58558479,2.64081361 4.75828088,2.63934911 C4.76070185,2.63934911 4.76312283,2.63934911 4.7655438,2.63934911 C4.88982042,2.63934911 5.01974598,2.59028846 5.10770801,2.51047337 C5.19163508,2.43431953 5.25458038,2.30910503 5.24973844,2.2 C5.2440895,2.08650148 5.20293296,1.96860947 5.10770801,1.88952663 C5.01329006,1.81044379 4.89627635,1.76065089 4.7655438,1.76065089 C4.62351337,1.76065089 4.48148294,1.76065089 4.33945252,1.76065089 C3.9980953,1.76065089 3.65673808,1.76065089 3.31538086,1.76065089 C2.90381541,1.76065089 2.49305696,1.76065089 2.08149152,1.76065089 C1.72480147,1.76065089 1.36811142,1.76065089 1.01142137,1.76065089 C0.837918288,1.76065089 0.664415209,1.75918639 0.491719121,1.76065089 C0.489298148,1.76065089 0.486877175,1.76065089 0.484456201,1.76065089 C0.360179577,1.76065089 0.230254016,1.80971154 0.14229199,1.88952663 C0.0583649192,1.96568047 -0.00458038379,2.09089497 0.000261562595,2.2 C0.00591050005,2.31349852 0.0470670443,2.43139053 0.14229199,2.51047337 C0.236709945,2.58955621 0.353723649,2.63934911 0.484456201,2.63934911 L0.484456201,2.63934911 Z"></path>
                            </g>
                        </g>
                    </g>
                </g>
            </g>
        </g>
    </g>
</svg>