<svg width="84" height="84" viewBox="0 0 84 84" fill="none" xmlns="http://www.w3.org/2000/svg">
<g clip-path="url(#clip0_1_412)">
<path d="M36.511 74.9691L46.3458 61.9847L38.9526 60.9692L34.7937 65.9818C33.889 67.0732 32.3795 66.4173 31.593 65.8573L10.2846 50.6578C9.47823 50.0829 10.1589 49.0737 10.9952 48.9356L32.3459 45.4213L34.897 41.0757L1.56115 46.5637C0.319205 46.7653 -0.625321 48.1839 0.508356 49.1135L31.7735 74.7824C32.8786 75.6896 35.2467 76.6441 36.511 74.9691" fill="#FFB600"/>
<path d="M57.3055 10.541L82.9607 57.2857C85.5778 62.0506 82.9482 67.0134 78.4621 66.3962L48.7227 62.3119L51.672 57.2795L73.1335 60.0521C75.3647 60.3582 75.1308 58.825 74.19 57.1065L56.0909 19.3728C55.7089 18.6784 54.4172 18.3163 53.9791 19.0667L33.9438 53.1965C33.3502 54.2082 33.1847 54.8814 34.4739 55.0581L42.9485 56.1532L38.9514 60.9692L28.192 59.4908C26.186 59.2145 25.3087 57.4089 26.4971 55.3842L52.3054 11.4171C53.4664 9.44097 55.684 7.58925 57.3055 10.541" fill="#019EEC"/>
<path d="M50.0666 57.0729L52.1473 54.324L61.325 42.2082C63.3671 39.514 62.9391 36.4614 60.1652 36.9156L43.9776 39.5812L41.9144 43.8471L50.5955 42.4172C52.4671 42.1099 52.838 44.2354 51.3783 45.995L45.4958 53.0833L42.9472 56.1533L35.9087 64.6366L41.6991 68.1173L50.0666 57.0729" fill="#FFB500"/>
</g>
<defs>
<clipPath id="clip0_1_412">
<rect width="84" height="84" fill="white"/>
</clipPath>
</defs>
</svg>
