<?xml version="1.0" encoding="UTF-8"?>
<svg width="14px" height="14px" viewBox="0 0 14 14" version="1.1" xmlns="http://www.w3.org/2000/svg" xmlns:xlink="http://www.w3.org/1999/xlink">
    <title>305A6FAF-2545-46C9-B853-335F4A75C3A3@1x</title>
    <g id="Final" stroke="none" stroke-width="1" fill="none" fill-rule="evenodd">
        <g id="Desktop---CHR-Plan-Payment" transform="translate(-735.000000, -252.000000)" fill="#1B1DC7" fill-rule="nonzero">
            <g id="Group-8" transform="translate(560.000000, 107.000000)">
                <g id="Group-14" transform="translate(16.000000, 84.000000)">
                    <g id="Group-19" transform="translate(8.000000, 57.000000)">
                        <g id="Group-16" transform="translate(151.000000, 0.000000)">
                            <g id="Group" transform="translate(0.000000, 3.000000)">
                                <g id="noun_Error_2190951" transform="translate(0.000000, 1.000000)">
                                    <path d="M7.0001246,10.524311 C7.41033627,10.524311 7.72565913,10.187111 7.73879758,9.78568247 C7.75047621,9.38571365 7.39135851,9.04705392 7.0001246,9.04705392 C6.60889069,9.04705392 6.24831316,9.38425391 6.26145161,9.78568247 C6.26729093,9.97544869 6.33444302,10.1564565 6.46728737,10.2965915 C6.61181034,10.4469448 6.79574867,10.5126331 7.0001246,10.524311 C7.14464757,10.5316097 7.3125278,10.4542435 7.41325593,10.3535214 C7.51398406,10.2527993 7.59135495,10.0863889 7.58405581,9.94041493 C7.57675667,9.79006169 7.52712252,9.63240974 7.41325593,9.52730845 C7.29500986,9.41928767 7.16070568,9.36527728 7.0001246,9.35651884 C6.99428529,9.35651884 6.98844597,9.35651884 6.98260666,9.3550591 C7.03370064,9.3623578 7.08625445,9.36965651 7.13734843,9.37549547 C7.1198305,9.37257599 7.10669204,9.36965651 7.09063394,9.3623578 C7.13734843,9.38133443 7.18406293,9.40177079 7.23077743,9.42074741 C7.22055863,9.41636819 7.21179966,9.41052923 7.20304069,9.40469027 C7.24245605,9.43534481 7.28187141,9.46599936 7.32128676,9.4966539 C7.30814831,9.48643572 7.29792952,9.47621754 7.28771072,9.46307988 C7.31836711,9.50249286 7.3490235,9.54190585 7.37967989,9.58131884 C7.37384057,9.57256039 7.36800126,9.56380195 7.36362178,9.55358377 C7.38259954,9.60029546 7.40303713,9.64700715 7.4220149,9.69371883 C7.41617559,9.67766169 7.4117961,9.66306429 7.40887645,9.64700715 C7.41617559,9.69809805 7.42347473,9.7506487 7.42931404,9.80173961 C7.42785421,9.77984351 7.42785421,9.79006169 7.42931404,9.76816558 C7.4220149,9.81925649 7.41471576,9.87180714 7.40887645,9.92289805 C7.4117961,9.90538116 7.41471576,9.8922435 7.4220149,9.87618636 C7.40303713,9.92289805 7.38259954,9.96960973 7.36362178,10.0163214 C7.36800126,10.0061032 7.37384057,9.9973448 7.37967989,9.98858636 C7.3490235,10.0279993 7.31836711,10.0674123 7.28771072,10.1068253 C7.29792952,10.0936877 7.30814831,10.0834695 7.32128676,10.0732513 C7.28187141,10.1039058 7.24245605,10.1345604 7.20304069,10.1652149 C7.21179966,10.159376 7.22055863,10.153537 7.23077743,10.1491578 C7.18406293,10.1681344 7.13734843,10.1885708 7.09063394,10.2075474 C7.10669204,10.2017084 7.12129032,10.1973292 7.13734843,10.1944097 C7.08625445,10.2017084 7.03370064,10.2090071 6.98260666,10.2148461 C7.00450408,10.2133863 6.99428529,10.2133863 7.01618271,10.2148461 C6.96508873,10.2075474 6.91253492,10.2002487 6.86144094,10.1944097 C6.87895887,10.1973292 6.89209732,10.2002487 6.90815543,10.2075474 C6.86144094,10.1885708 6.81472644,10.1681344 6.76801194,10.1491578 C6.77823074,10.153537 6.78698971,10.159376 6.79574867,10.1652149 C6.75633332,10.1345604 6.71691796,10.1039058 6.6775026,10.0732513 C6.69064106,10.0834695 6.70085985,10.0936877 6.71107865,10.1068253 C6.68042226,10.0674123 6.64976587,10.0279993 6.61910948,9.98858636 C6.62494879,9.9973448 6.63078811,10.0061032 6.63516759,10.0163214 C6.61618983,9.96960973 6.59575223,9.92289805 6.57677447,9.87618636 C6.58261378,9.8922435 6.58699327,9.9068409 6.58991292,9.92289805 C6.58261378,9.87180714 6.57531464,9.81925649 6.56947533,9.76816558 C6.57093516,9.79006169 6.57093516,9.77984351 6.56947533,9.80173961 C6.57677447,9.7506487 6.58407361,9.69809805 6.58991292,9.64700715 C6.58699327,9.66452403 6.58407361,9.67766169 6.57677447,9.69371883 C6.59575223,9.64700715 6.61618983,9.60029546 6.63516759,9.55358377 C6.63078811,9.56380195 6.62494879,9.57256039 6.61910948,9.58131884 C6.64976587,9.54190585 6.68042226,9.50249286 6.71107865,9.46307988 C6.70085985,9.47621754 6.69064106,9.48643572 6.6775026,9.4966539 C6.71691796,9.46599936 6.75633332,9.43534481 6.79574867,9.40469027 C6.78698971,9.41052923 6.77823074,9.41636819 6.76801194,9.42074741 C6.81472644,9.40177079 6.86144094,9.38133443 6.90815543,9.3623578 C6.89209732,9.36819676 6.87749904,9.37257599 6.86144094,9.37549547 C6.91253492,9.36819676 6.96508873,9.36089806 7.01618271,9.3550591 C7.01034339,9.3550591 7.00450408,9.35651884 6.99866477,9.35651884 C6.84830248,9.35651884 6.69210088,9.42220715 6.58553344,9.52730845 C6.4848053,9.62803052 6.40743442,9.79444091 6.41473356,9.94041493 C6.43079167,10.2571786 6.67312312,10.524311 7.0001246,10.524311 Z" id="Path"></path>
                                    <path d="M6.41619339,3.78469045 C6.41619339,4.21677355 6.41619339,4.64885666 6.41619339,5.07948002 C6.41619339,5.7684774 6.41619339,6.45747478 6.41619339,7.14501242 C6.41619339,7.3041241 6.41619339,7.46323579 6.41619339,7.62088773 C6.41619339,7.92597343 6.68480174,8.21938122 7.0001246,8.20478382 C7.31690728,8.19018641 7.58405581,7.94786954 7.58405581,7.62088773 C7.58405581,7.18880463 7.58405581,6.75672152 7.58405581,6.32609816 C7.58405581,5.63710078 7.58405581,4.9481034 7.58405581,4.26056576 C7.58405581,4.10145408 7.58405581,3.94234239 7.58405581,3.78469045 C7.58405581,3.47960475 7.31544745,3.18619696 7.0001246,3.20079437 C6.68334192,3.21393203 6.41619339,3.4562489 6.41619339,3.78469045 L6.41619339,3.78469045 Z" id="Path"></path>
                                    <path d="M12.8321376,7.00049814 C12.8321376,7.29244618 12.8117,7.58293448 12.7737445,7.87196305 C12.7810436,7.82087214 12.7883427,7.76832149 12.794182,7.71723058 C12.718271,8.27047212 12.5708284,8.81349548 12.3547738,9.32878378 C12.3737516,9.28207209 12.3941892,9.23536041 12.4131669,9.18864872 C12.1985722,9.69809805 11.9182852,10.1783526 11.581065,10.6162746 C11.6117213,10.5768617 11.6423777,10.5374487 11.6730341,10.4980357 C11.3328942,10.9374175 10.9387406,11.3330071 10.4993324,11.6716668 C10.5387477,11.6410123 10.5781631,11.6103577 10.6175785,11.5797032 C10.17963,11.9169032 9.69934662,12.1957136 9.18986664,12.4117551 C9.23658114,12.3927785 9.28329564,12.3723421 9.33001013,12.3533655 C8.81469084,12.5694071 8.27163481,12.7168408 7.71835999,12.7927473 C7.76945397,12.7854486 7.82200778,12.7781499 7.87310176,12.7723109 C7.29500986,12.8496772 6.70669916,12.8496772 6.12860726,12.7723109 C6.17970125,12.7796096 6.23225505,12.7869083 6.28334904,12.7927473 C5.73007421,12.7168408 5.18701819,12.5694071 4.67169889,12.3533655 C4.71841339,12.3723421 4.76512788,12.3927785 4.81184238,12.4117551 C4.3023624,12.1971733 3.82207898,11.9169032 3.38413057,11.5797032 C3.42354593,11.6103577 3.46296128,11.6410123 3.50237664,11.6716668 C3.0629684,11.3315474 2.66735501,10.9374175 2.3286749,10.4980357 C2.35933129,10.5374487 2.38998768,10.5768617 2.42064407,10.6162746 C2.08342379,10.1783526 1.80459664,9.69809805 1.58854209,9.18864872 C1.60751986,9.23536041 1.62795745,9.28207209 1.64693521,9.32878378 C1.43088066,8.81349548 1.28343803,8.27047212 1.20752698,7.71723058 C1.21482612,7.76832149 1.22212526,7.82087214 1.22796457,7.87196305 C1.15059368,7.29390592 1.15059368,6.70563062 1.22796457,6.12757349 C1.22066543,6.1786644 1.21336629,6.23121505 1.20752698,6.28230596 C1.28343803,5.72906441 1.43088066,5.18604106 1.64693521,4.67075276 C1.62795745,4.71746445 1.60751986,4.76417613 1.58854209,4.81088782 C1.80313681,4.30143849 2.08342379,3.82118396 2.42064407,3.38326189 C2.38998768,3.42267488 2.35933129,3.46208786 2.3286749,3.50150085 C2.66881483,3.06211905 3.0629684,2.66652945 3.50237664,2.32786972 C3.46296128,2.35852426 3.42354593,2.38917881 3.38413057,2.41983335 C3.82207898,2.08263336 4.3023624,1.80382298 4.81184238,1.58778143 C4.76512788,1.60675805 4.71841339,1.62719442 4.67169889,1.64617104 C5.18701819,1.43012949 5.73007421,1.28269573 6.28334904,1.20678924 C6.23225505,1.21408794 6.17970125,1.22138664 6.12860726,1.2272256 C6.70669916,1.14985937 7.29500986,1.14985937 7.87310176,1.2272256 C7.82200778,1.2199269 7.76945397,1.2126282 7.71835999,1.20678924 C8.27163481,1.28269573 8.81469084,1.43012949 9.33001013,1.64617104 C9.28329564,1.62719442 9.23658114,1.60675805 9.18986664,1.58778143 C9.69934662,1.80236324 10.17963,2.08263336 10.6175785,2.41983335 C10.5781631,2.38917881 10.5387477,2.35852426 10.4993324,2.32786972 C10.9387406,2.66798919 11.334354,3.06211905 11.6730341,3.50150085 C11.6423777,3.46208786 11.6117213,3.42267488 11.581065,3.38326189 C11.9182852,3.82118396 12.1971124,4.30143849 12.4131669,4.81088782 C12.3941892,4.76417613 12.3737516,4.71746445 12.3547738,4.67075276 C12.5708284,5.18604106 12.718271,5.72906441 12.794182,6.28230596 C12.7868829,6.23121505 12.7795838,6.1786644 12.7737445,6.12757349 C12.8117,6.41806179 12.8306777,6.7085501 12.8321376,7.00049814 C12.8321376,7.30558384 13.1007459,7.59899163 13.4160688,7.58439422 C13.7313916,7.56979682 14,7.32747995 14,7.00049814 C13.9985402,6.27938647 13.8905129,5.54951637 13.6671592,4.86343847 C13.4511047,4.19779693 13.1387015,3.55697098 12.7328693,2.98621255 C12.5197344,2.68550607 12.2861619,2.39793725 12.030692,2.13226453 C11.7752221,1.86805155 11.4978548,1.63303338 11.207349,1.40969312 C10.6496947,0.981989242 10.0278079,0.655007435 9.36796566,0.412690559 C8.69352511,0.164534723 7.97382989,0.0331581039 7.25705433,0.00542303987 C6.53005997,-0.0237717644 5.78846733,0.0652723886 5.08920971,0.263797058 C4.41914864,0.453563285 3.76660551,0.748430808 3.18413413,1.13088274 C2.6045824,1.51187494 2.073205,1.97461259 1.63233693,2.51033725 C1.40022428,2.79352685 1.1827099,3.08985411 0.992932256,3.40369826 C0.800234956,3.72338136 0.642573529,4.06058135 0.50097021,4.40508004 C0.22652254,5.07072158 0.0747004252,5.78015532 0.0192269601,6.49834751 C-0.0362465051,7.22383839 0.0294457563,7.96538642 0.201705464,8.67190068 C0.366666031,9.35359936 0.644033357,10.0192409 1.00899036,10.6191941 C1.36664823,11.2074694 1.81335561,11.7519525 2.3286749,12.210311 C2.84983351,12.6730486 3.43376472,13.0671785 4.07024974,13.3532875 C4.41038967,13.5065603 4.75782874,13.6408564 5.11694644,13.7415784 C5.48774276,13.84522 5.86583822,13.9094486 6.24685333,13.9547005 C6.97384769,14.0393654 7.7139805,13.9955732 8.43075607,13.851059 C9.12271455,13.7109239 9.7971551,13.4554694 10.4132025,13.1109707 C11.0146517,12.7752304 11.5737658,12.3431473 12.0496698,11.8453759 C12.5284933,11.344685 12.9430845,10.7680876 13.2511082,10.1462383 C13.5664311,9.51271105 13.7956241,8.83539159 13.9036514,8.13471629 C13.9620445,7.75810331 13.9985402,7.3800306 13.9985402,6.99757866 C13.9985402,6.69249295 13.7299318,6.39908517 13.414609,6.41368257 C13.0992861,6.43119946 12.8321376,6.67351633 12.8321376,7.00049814 Z" id="Path"></path>
                                </g>
                            </g>
                        </g>
                    </g>
                </g>
            </g>
        </g>
    </g>
</svg>