<?xml version="1.0" encoding="UTF-8"?>
<svg width="98px" height="100px" viewBox="0 0 98 100" version="1.1" xmlns="http://www.w3.org/2000/svg" xmlns:xlink="http://www.w3.org/1999/xlink">
    <title>Group 8@1x</title>
    <g id="Final.---CHR-30-days-Free-Plan-" stroke="none" stroke-width="1" fill="none" fill-rule="evenodd" opacity="0.200000003">
        <g id="Desktop---Landing-Chr_with-Video_V04--Copy-2" transform="translate(-429.000000, -1706.000000)" fill="#1B1DC7" fill-rule="nonzero">
            <g id="Group-61" transform="translate(373.000000, 1726.000000)">
                <g id="Group-8" transform="translate(56.000000, -19.082609)">
                    <path d="M39.6311678,98.426087 L39.6311678,52.9363987 L20.4502467,52.9363987 C20.638295,43.9787614 22.4482593,36.8018593 25.8801398,31.4056922 C29.3120203,26.0095252 34.9769737,21.8005149 42.875,18.7786613 L35.1180099,0 C26.6558388,3.45354691 19.6980537,8.20217391 14.2446546,14.245881 C8.79125548,20.2895881 5.0537966,27.1157394 3.03227796,34.724335 C1.01075932,42.3329305 0,52.7205521 0,65.8871997 L0,98.426087 L39.6311678,98.426087 Z" id="“"></path>
                    <path d="M94.7561678,98.426087 L94.7561678,52.9363987 L75.5752467,52.9363987 C75.763295,43.9787614 77.5732593,36.8018593 81.0051398,31.4056922 C84.4370203,26.0095252 90.1019737,21.8005149 98,18.7786613 L90.2430099,0 C81.7808388,3.45354691 74.8230537,8.20217391 69.3696546,14.245881 C63.9162555,20.2895881 60.1787966,27.1157394 58.157278,34.724335 C56.1357593,42.3329305 55.125,52.7205521 55.125,65.8871997 L55.125,98.426087 L94.7561678,98.426087 Z" id="“"></path>
                </g>
            </g>
        </g>
    </g>
</svg>