<?xml version="1.0" encoding="UTF-8"?>
<svg width="78px" height="84px" viewBox="0 0 78 84" version="1.1" xmlns="http://www.w3.org/2000/svg" xmlns:xlink="http://www.w3.org/1999/xlink">
    <title>Group 3@1x</title>
    <defs>
        <path d="M46.587,68.707 L1.843,68.707 C0.819,68.707 0,67.889 0,66.867 L0,1.841 C0,0.818 0.819,0 1.843,0 L46.485,0 C47.509,0 48.328,0.818 48.328,1.841 L48.328,66.867 C48.328,67.889 47.509,68.707 46.587,68.707 Z" id="path-1"></path>
        <filter x="-57.9%" y="-24.7%" width="215.9%" height="181.5%" filterUnits="objectBoundingBox" id="filter-2">
            <feOffset dx="0" dy="11" in="SourceAlpha" result="shadowOffsetOuter1"></feOffset>
            <feGaussianBlur stdDeviation="7.5" in="shadowOffsetOuter1" result="shadowBlurOuter1"></feGaussianBlur>
            <feColorMatrix values="0 0 0 0 0.396078431   0 0 0 0 0.478431373   0 0 0 0 0.576470588  0 0 0 0.18 0" type="matrix" in="shadowBlurOuter1"></feColorMatrix>
        </filter>
        <linearGradient x1="23.1555226%" y1="9.53225043%" x2="78.783108%" y2="91.7970373%" id="linearGradient-3">
            <stop stop-color="#FF66A9" offset="0%"></stop>
            <stop stop-color="#F53689" offset="100%"></stop>
        </linearGradient>
        <linearGradient x1="29.9682299%" y1="24.7590808%" x2="64.169786%" y2="61.897702%" id="linearGradient-4">
            <stop stop-color="#E81778" offset="0%"></stop>
            <stop stop-color="#E01F79" stop-opacity="0" offset="100%"></stop>
        </linearGradient>
        <linearGradient x1="91.0195662%" y1="93.3270381%" x2="10.7115831%" y2="11.4888259%" id="linearGradient-5">
            <stop stop-color="#FFC9E3" offset="1.13208%"></stop>
            <stop stop-color="#FFFFFF" offset="100%"></stop>
        </linearGradient>
    </defs>
    <g id="CHR-7-days-Free-Plan" stroke="none" stroke-width="1" fill="none" fill-rule="evenodd">
        <g id="Artboard" transform="translate(-3.000000, -4.000000)" fill-rule="nonzero">
            <g id="Group-3" transform="translate(6.000000, 7.000000)">
                <path d="M36,71 C55.88222,71 72,55.1064462 72,35.5 C72,15.8935538 55.88222,0 36,0 C16.11778,0 0,15.8935538 0,35.5 C0,55.1064462 16.11778,71 36,71 Z" id="Path" fill="#EAEEF9"></path>
                <g id="Group-12" transform="translate(12.000000, 1.000000)">
                    <g id="Path">
                        <use fill="black" fill-opacity="1" filter="url(#filter-2)" xlink:href="#path-1"></use>
                        <use fill="#FFFFFF" xlink:href="#path-1"></use>
                    </g>
                    <path d="M42.799,49.179 L7.065,49.179 C6.758,49.179 6.451,48.872 6.451,48.566 L6.451,48.361 C6.451,48.054 6.758,47.748 7.065,47.748 L42.799,47.748 C43.106,47.748 43.413,48.054 43.413,48.361 L43.413,48.566 C43.413,48.872 43.208,49.179 42.799,49.179 Z" id="Path" fill="#E3EAF2"></path>
                    <path d="M42.799,34.179 L7.065,34.179 C6.758,34.179 6.451,33.872 6.451,33.566 L6.451,33.361 C6.451,33.054 6.758,32.748 7.065,32.748 L42.799,32.748 C43.106,32.748 43.413,33.054 43.413,33.361 L43.413,33.566 C43.413,33.872 43.208,34.179 42.799,34.179 Z" id="Path-Copy" fill="#E3EAF2"></path>
                    <path d="M42.799,53.575 L7.065,53.575 C6.758,53.575 6.451,53.269 6.451,52.962 L6.451,52.757 C6.451,52.451 6.758,52.144 7.065,52.144 L42.799,52.144 C43.106,52.144 43.413,52.451 43.413,52.757 L43.413,52.962 C43.413,53.269 43.208,53.575 42.799,53.575 Z" id="Path" fill="#E3EAF2"></path>
                    <path d="M42.799,38.575 L7.065,38.575 C6.758,38.575 6.451,38.269 6.451,37.962 L6.451,37.757 C6.451,37.451 6.758,37.144 7.065,37.144 L42.799,37.144 C43.106,37.144 43.413,37.451 43.413,37.757 L43.413,37.962 C43.413,38.269 43.208,38.575 42.799,38.575 Z" id="Path-Copy-2" fill="#E3EAF2"></path>
                    <path d="M16.382,57.87 L7.167,57.87 C6.758,57.87 6.451,57.563 6.451,57.154 C6.451,56.745 6.758,56.438 7.167,56.438 L16.382,56.438 C16.792,56.438 17.099,56.745 17.099,57.154 C17.099,57.563 16.792,57.87 16.382,57.87 Z" id="Path" fill="#E3EAF2"></path>
                    <path d="M16.382,46.271 L7.167,46.271 C6.758,46.271 6.451,45.965 6.451,45.556 C6.451,45.147 6.758,44.84 7.167,44.84 L16.382,44.84 C16.792,44.84 17.099,45.147 17.099,45.556 C17.099,45.965 16.792,46.271 16.382,46.271 Z" id="Path" fill="#CED7E2"></path>
                    <g id="gauge-(4)" transform="translate(9.297000, 5.063000)">
                        <path d="M27.5661581,19.1372561 C27.5661581,19.1997167 27.5647132,19.2617833 27.5637937,19.3239812 L24.0414998,19.3239812 L22.8249295,19.3239812 L8.04428638,19.3239812 L6.82771605,19.3239812 L3.30535648,19.3239812 C3.3043713,19.2617833 3.30299204,19.199651 3.30299204,19.1372561 C3.30299204,12.5373801 8.73450597,7.18711101 15.4346079,7.18711101 C22.1347099,7.18711101 27.5661581,12.5373145 27.5661581,19.1372561 Z" id="Path" fill="#E6EDF5"></path>
                        <path d="M0.170436754,19.3239812 C0.169188854,19.245692 0.167415524,19.1675341 0.167415524,19.0889821 C0.167415524,10.7832937 7.00275033,4.05015524 15.4345422,4.05015524 C23.8663341,4.05015524 30.701669,10.7832937 30.701669,19.0889821 C30.701669,19.1675341 30.6998956,19.245692 30.6986477,19.3239812 L24.7349376,19.3239812 C24.736908,19.245889 24.7379589,19.1675341 24.7379589,19.0889821 C24.7379589,14.0277001 20.5726685,9.92467337 15.4345422,9.92467337 C10.296416,9.92467337 6.13112561,14.0276345 6.13112561,19.0889821 C6.13112561,19.1675341 6.13217647,19.245889 6.13414684,19.3239812 L0.170436754,19.3239812 Z" id="Path" fill="#F14D99"></path>
                        <path d="M30.701669,19.0889821 C30.701669,19.1675341 30.6998956,19.245692 30.6986477,19.3239812 L29.4447061,19.3239812 C29.4458226,19.2521285 29.4474646,19.1804071 29.4474646,19.1082917 C29.4474646,11.4848757 23.1736844,5.30495069 15.4345422,5.30495069 C7.69540004,5.30495069 1.42161986,11.4848757 1.42161986,19.1082917 C1.42161986,19.1804071 1.42326183,19.2521285 1.42437837,19.3239812 L0.170436754,19.3239812 C0.169188854,19.245692 0.167415524,19.1675341 0.167415524,19.0889821 C0.167415524,10.7832937 7.00275033,4.05015524 15.4345422,4.05015524 C23.8663341,4.05015524 30.701669,10.7832937 30.701669,19.0889821 Z" id="Path" fill="#F14D99"></path>
                        <path d="M15.4345394,4.05015524 C23.8663341,4.05015524 30.701669,10.7832937 30.701669,19.0889821 C30.701669,19.1675341 30.6998956,19.245692 30.6986477,19.3239812 L24.7349376,19.3239812 C24.736908,19.245889 24.7379589,19.1675341 24.7379589,19.0889821 C24.7379589,14.0277001 20.5726685,9.92467337 15.4345394,9.92467337 C15.4345394,8.65610657 15.4345394,5.30495069 15.4345394,4.05015524 Z" id="Path" fill="#32D697"></path>
                        <path d="M30.701669,19.0889821 C30.701669,19.1675341 30.6998956,19.245692 30.6986477,19.3239812 L29.4447061,19.3239812 C29.4458226,19.2521285 29.4474646,19.1804071 29.4474646,19.1082917 C29.4474646,11.4848757 23.1736844,5.30495069 15.4345315,5.30495069 C15.4345315,4.81695186 15.4345315,4.40189653 15.4345315,4.05015524 C23.8663341,4.05015524 30.701669,10.7832937 30.701669,19.0889821 Z" id="Path" fill="#32D697"></path>
                        <path d="M23.6893295,2.39425874 C23.8390117,2.46611146 23.9012096,2.64383857 23.8267954,2.79056524 L19.3505155,11.6092716 C19.2780716,11.7520575 19.1033658,11.8111028 18.9567705,11.7430595 C17.8881747,11.2467897 16.6943293,10.9690993 15.4345422,10.9690993 C14.1747552,10.9690993 12.9809098,11.246724 11.912314,11.7430595 C11.7657187,11.8111685 11.5910785,11.7520575 11.518569,11.6092716 L7.04228903,2.79056524 C6.96780916,2.64383857 7.03007276,2.46611146 7.17975498,2.39425874 C9.67332021,1.19745776 12.4741314,0.525431225 15.4345422,0.525431225 C18.3949531,0.525431225 21.1957643,1.19745776 23.6893295,2.39425874 Z" id="Path" fill="#FFD777"></path>
                        <g id="Group" transform="translate(8.472579, 4.021230)" fill="#FAC727">
                            <path d="M6.96196373,0.0289256966 C9.45474082,0.0289256966 11.8078189,0.617737063 13.8862278,1.66137483 L11.2184821,6.91706634 C9.94293211,6.26940668 8.49589452,5.90350951 6.96196373,5.90350951 C5.42803295,5.90350951 3.98099536,6.26940668 2.70544538,6.91706634 L0.0376996904,1.66137483 C2.11610858,0.617737063 4.46918664,0.0289256966 6.96196373,0.0289256966 Z" id="Path"></path>
                        </g>
                        <path d="M23.6757271,8.82939651 L23.7898787,8.87565114 C24.2779387,9.10710359 24.5061728,9.66649081 24.3162951,10.1658475 L19.9336076,21.6909187 C19.7085956,22.6745208 18.8200806,23.406189 17.7580596,23.406189 C16.5271056,23.406189 15.529246,22.4232385 15.529246,21.2107403 C15.529246,20.6768576 15.7227094,20.1874794 16.0443499,19.8069218 L22.4376815,9.27511023 C22.6940111,8.85278478 23.213591,8.67266757 23.6757271,8.82939651 Z" id="Combined-Shape" fill="#1E1F28" transform="translate(19.956099, 16.089819) rotate(31.000000) translate(-19.956099, -16.089819) "></path>
                        <path d="M16.4307598,19.3472315 C16.4307598,19.8892138 15.9847344,20.32854 15.4345422,20.32854 C14.8843501,20.32854 14.4383246,19.8892138 14.4383246,19.3472315 C14.4383246,18.8052492 14.8843501,18.365923 15.4345422,18.365923 C15.9847344,18.3658574 16.4307598,18.8052492 16.4307598,19.3472315 Z" id="Path" fill="#61AE9F" transform="translate(15.434542, 19.347232) rotate(31.000000) translate(-15.434542, -19.347232) "></path>
                    </g>
                </g>
                <g id="Group-18" transform="translate(43.000000, 48.000000)">
                    <path d="M6.04796581,2.14252176 C8.20813677,0.750516497 10.6914358,0 13.4995726,0 C20.9520342,0 27,5.99906092 27,13.3918174 C27,20.7837288 20.9520342,26.7827897 13.4995726,26.7827897 C6.04796581,26.7827897 0,20.7837288 0,13.3918174 C0,8.6774244 2.37558968,4.60705566 6.04796581,2.14252176 Z" id="Path" fill="url(#linearGradient-3)"></path>
                    <g id="Group-17" transform="translate(8.164411, 8.406123)">
                        <path d="M17.0936613,11.4488673 C17.207336,15.2505518 14.1407946,18.4725468 10.3922052,18.5938772 L8.57474781,18.5938772 L0.284521012,10.1816391 L7.32566379,1.90421254 L9.9375065,0.40780481 L16.9799866,7.53933356 L17.0936613,11.4488673 Z" id="Path" fill="url(#linearGradient-4)"></path>
                        <path d="M7.6666878,5.35538713 L10.0511812,2.92878 C10.7332292,2.24124131 10.7332292,1.2031927 10.0511812,0.515654016 C9.3704705,-0.171884672 8.34739847,-0.171884672 7.6666878,0.515654016 L5.28085708,2.92878 L2.89636372,0.515654016 C2.2143157,-0.171884672 1.19258102,-0.171884672 0.510533002,0.515654016 C-0.170177667,1.2031927 -0.170177667,2.24124131 0.510533002,2.92878 L2.89636372,5.35538713 L0.510533002,7.76851312 C-0.170177667,8.45605181 -0.170177667,9.49410041 0.510533002,10.1816391 C0.851557011,10.532149 1.30625569,10.6534794 1.76095437,10.6534794 C2.2143157,10.6534794 2.66901438,10.532149 3.01003839,10.1816391 L5.39453175,7.76851312 L7.78036247,10.1816391 C8.46107314,10.8826589 9.48414517,10.8826589 10.1648558,10.1816391 C10.5058798,9.84461033 10.6195545,9.38625121 10.6195545,8.92789208 C10.6195545,8.45605181 10.5058798,7.99769268 10.1648558,7.66066391 L7.6666878,5.35538713 Z" id="Path" fill="url(#linearGradient-5)"></path>
                    </g>
                </g>
            </g>
        </g>
    </g>
</svg>