<?xml version="1.0" encoding="UTF-8"?>
<svg width="15px" height="12px" viewBox="0 0 15 12" version="1.1" xmlns="http://www.w3.org/2000/svg" xmlns:xlink="http://www.w3.org/1999/xlink">
    <title>2D8F4ED5-FC8A-42EE-8DFB-9CFAD1E31ED5@1x</title>
    <g id="Final.---CHR-30-days-Free-Plan-" stroke="none" stroke-width="1" fill="none" fill-rule="evenodd">
        <g id="-Bank-Logo---SVG" transform="translate(-264.000000, -30.000000)" fill-rule="nonzero">
            <g id="Canara_Bank_Logo" transform="translate(264.000000, 30.000000)">
                <path d="M6.51983004,11.8350979 L8.27603505,9.50564595 L6.95582516,9.32346896 L6.21316498,10.2227439 C6.0516116,10.4185391 5.78205889,10.3008832 5.6416149,10.2004183 L1.83653956,7.47357062 C1.69254084,7.37042643 1.81409528,7.18936581 1.96342726,7.16458437 L5.77605926,6.53410995 L6.23160851,5.75450034 L0.278776583,6.7390588 C0.0570007983,6.77522637 -0.111664396,7.02973811 0.0907779846,7.19651018 L5.67383625,11.8016096 C5.87117005,11.964363 6.29405332,12.1356002 6.51983004,11.8350979" id="path2890_1_" fill="#FFB600"></path>
                <path d="M10.233127,0.276469814 L14.8144164,8.66263141 C15.2817456,9.51747839 14.8121833,10.4078229 14.0110919,10.297088 L8.70047553,9.56436202 L9.22713705,8.66151523 L13.0595453,9.15892944 C13.4579854,9.21385026 13.4162093,8.93879922 13.2482117,8.63048264 L10.016241,1.86091691 C9.94801793,1.73634011 9.71735415,1.67137265 9.63913165,1.80599595 L6.06138768,7.92901261 C5.9553902,8.11051974 5.9258347,8.2313012 6.15605384,8.26300347 L7.66937249,8.45946861 L6.95560185,9.32346896 L5.03428638,9.05824116 C4.67606912,9.00867806 4.5194028,8.68473399 4.73162304,8.32149658 L9.34024674,0.433641946 C9.54757795,0.0791115915 9.94357354,-0.253093184 10.233127,0.276469814" id="path2892_1_" fill="#019EEC"></path>
                <path d="M8.94047274,8.62445484 L9.31202515,8.13128259 L10.9508974,5.95766314 C11.3155609,5.47431413 11.2391189,4.92666756 10.7437895,5.00815568 L7.85314981,5.48636992 L7.48470788,6.25169119 L9.03491559,5.99517005 C9.36913431,5.94002587 9.43535753,6.32134707 9.17469163,6.63703078 L8.12425776,7.90869627 L7.66915116,8.45946861 L6.41227337,9.98140428 L7.44626359,10.6058509 L8.94047274,8.62445484" id="path2894_1_" fill="#FFB500"></path>
            </g>
        </g>
    </g>
</svg>