<?xml version="1.0" encoding="UTF-8"?>
<svg width="11px" height="12px" viewBox="0 0 11 12" version="1.1" xmlns="http://www.w3.org/2000/svg" xmlns:xlink="http://www.w3.org/1999/xlink">
    <title>FFE116BC-0874-4950-B7AE-76DAB90D434C@1x</title>
    <g id="Final.---CHR-30-days-Free-Plan-" stroke="none" stroke-width="1" fill="none" fill-rule="evenodd">
        <g id="-Bank-Logo---SVG" transform="translate(-121.000000, -63.000000)" fill-rule="nonzero">
            <g id="icici" transform="translate(121.000000, 63.000000)">
                <path d="M3.11310788,2.60657249 C5.83334461,-0.113456083 9.13340858,-0.819394831 10.4540363,1.03457562 C11.774664,2.88854533 10.6139939,6.63575989 7.89375717,9.35578847 C5.17352769,12.0959581 1.87346372,12.8008898 0.532842198,10.926779 C-0.766790595,9.05367527 0.393879535,5.32559404 3.11310788,2.60657249" id="path160" fill="#F06321"></path>
                <path d="M4.91360113,1.15542059 C4.61368699,1.37697094 4.31377284,1.63880271 4.01385869,1.92178183 C1.63353095,4.29840879 0.632811162,7.56224125 1.81348234,9.19466134 C3.03313271,10.8260744 5.95330737,10.2218473 8.39361649,7.82407301 C9.71424421,6.53505526 10.5939928,5.04362195 10.9538956,3.65389956 C11.0538646,2.62671356 10.9139226,1.71936627 10.4540363,1.03457562 C9.41433007,-0.415569264 7.17396612,-0.295731302 4.91360113,1.15542059" id="path162" fill="#AE282E"></path>
                <path d="M8.3536289,1.45753451 L8.3536289,1.51795553 C8.33367863,1.86035086 8.13368994,2.28330976 7.77379441,2.64584617 C7.2339475,3.16950969 6.51414922,3.37091824 6.21323392,3.06981208 C5.87333218,2.7475578 6.0742785,2.04161906 6.61411817,1.47767412 C7.17396612,0.933869514 7.89375717,0.752601313 8.19367857,1.07485557 C8.29364752,1.17556021 8.3536289,1.29640592 8.3536289,1.45753304 M6.27421645,10.7052272 C4.9935763,11.6719907 3.67394972,12.1563799 2.39331683,11.9549706 C2.93316374,11.9751109 3.37403558,11.3698776 3.7339311,10.5642412 C4.09383388,9.73846448 4.29377905,8.97311025 4.47372319,8.24703043 C4.73364974,7.09899947 4.75365078,6.29336309 4.61368699,6.11209489 C4.393748,5.82911577 3.91388249,5.89054528 3.35304065,6.21279953 C3.07312028,6.37392665 2.71322476,6.27322056 3.13410281,5.7495585 C3.57398075,5.22589569 5.27350391,3.97615235 5.87333218,3.77474379 C6.55413679,3.59347559 7.31392266,3.85530735 7.05399611,4.60052051 C6.87305085,5.1443251 4.51371801,11.3497365 6.27421645,10.7052272" id="path164" fill="#FFFFFF"></path>
            </g>
        </g>
    </g>
</svg>