<?xml version="1.0" encoding="UTF-8"?>
<svg width="14px" height="14px" viewBox="0 0 14 14" version="1.1" xmlns="http://www.w3.org/2000/svg" xmlns:xlink="http://www.w3.org/1999/xlink">
    <title>112985BD-709A-42A5-AFEE-4C699E14D4CE@1x</title>
    <g id="Final.---CHR-30-days-Free-Plan-" stroke="none" stroke-width="1" fill="none" fill-rule="evenodd">
        <g id="-Bank-Logo---SVG" transform="translate(-21.000000, -92.000000)" fill-rule="nonzero">
            <g id="kotak" transform="translate(21.000000, 93.000000)">
                <g id="g81027" transform="translate(7.000000, 6.000000) scale(-1, 1) rotate(90.000000) translate(-7.000000, -6.000000) translate(0.979512, -0.976179)" fill="#003874">
                    <path d="M6.02048778,0 C2.69569101,0 1.3790756e-16,3.1231909 1.3790756e-16,6.97638669 C1.3790756e-16,10.829167 2.69569101,13.9523579 6.02048778,13.9523579 C9.34570142,13.9523579 12.0409755,10.829167 12.0409755,6.97638669 C12.0409755,3.1231909 9.34570142,0 6.02048778,0" id="path81029"></path>
                </g>
                <g id="g81031" transform="translate(6.964355, 6.046119) scale(-1, 1) rotate(90.000000) translate(-6.964355, -6.046119) translate(2.293797, 5.228862)" fill="#ED1C24">
                    <polyline id="path81033" points="0.537387212 0.00581677235 0 1.62661866 8.79163812 1.63451285 9.3411155 1.38742157e-13 0.537387212 0.00581677235"></polyline>
                </g>
                <g id="g81055" transform="translate(7.023138, 5.990657) scale(-1, 1) rotate(90.000000) translate(-7.023138, -5.990657) translate(3.876979, 0.767196)" fill="#FFFFFF">
                    <path d="M3.76171049,10.446922 C5.01950507,10.2948549 6.28980673,9.59185653 6.29231488,8.05664427 C6.29397576,7.16044597 5.67821087,6.46035594 4.92486822,5.97548646 L4.05229148,5.97548646 C4.35454571,6.58209265 4.6788958,7.1492279 4.68890147,7.83726888 C4.70140854,8.68485562 4.37455704,9.45100755 3.76171049,9.7680216 L3.76171049,10.446922 Z M4.55132365,5.31528287 C5.40305528,4.61103803 6.27313063,3.93047573 6.27313063,2.65535628 C6.27313063,0.854234474 4.52589261,2.77387619e-13 3.06506654,2.77387619e-13 C1.66135612,2.77387619e-13 0,0.667682296 0,2.42226993 C0,3.18343604 0.466930705,3.91593381 0.960960065,4.35260716 L2.15246717,4.35136071 C1.90607784,3.98656604 1.66427444,3.1693096 1.65551949,2.63582854 C1.63675888,1.52316322 2.12078258,0.542206221 3.22265568,0.55924105 C3.98141806,0.570874595 4.49712633,1.31999169 4.49712633,2.06536943 C4.49712633,3.20711861 3.45070129,3.89848349 2.65650218,4.4764213 C2.44888478,4.63804445 1.83895655,5.09258363 1.74098448,5.16363134 C0.84089217,5.80555365 0.0191775106,6.54843849 0.0191775106,7.82355792 C0.0191775106,9.32553148 1.23403115,10.1689634 2.48473839,10.407451 L2.48473839,9.73021259 C2.07909234,9.45765529 1.8310354,8.93289939 1.8310354,8.41603768 C1.8310354,7.23606398 2.92040141,6.53057269 3.72252164,5.94058582 C3.72252164,5.94058582 4.3503767,5.48147635 4.55132365,5.31528287 L4.55132365,5.31528287 Z" id="path81057"></path>
                </g>
            </g>
        </g>
    </g>
</svg>