<?xml version="1.0" encoding="UTF-8"?>
<svg width="12px" height="12px" viewBox="0 0 12 12" version="1.1" xmlns="http://www.w3.org/2000/svg" xmlns:xlink="http://www.w3.org/1999/xlink">
    <title>42D03D75-F6BC-4AB7-B2B6-E3700B379D37@1x</title>
    <g id="Final.---CHR-30-days-Free-Plan-" stroke="none" stroke-width="1" fill="none" fill-rule="evenodd">
        <g id="-Bank-Logo---SVG" transform="translate(-52.000000, -93.000000)">
            <g id="Group-7" transform="translate(52.000000, 93.000000)">
                <path d="M2,0 L10,0 C11.1045695,-2.02906125e-16 12,0.8954305 12,2 L12,10 C12,11.1045695 11.1045695,12 10,12 L2,12 C0.8954305,12 -7.52907669e-16,11.1045695 0,10 L0,2 C-1.3527075e-16,0.8954305 0.8954305,-6.85272294e-16 2,0 Z" id="path2898" fill="#A20E37"></path>
                <path d="M8.02575841,3 L10,3 L10,10 L8.02575841,10 L8.02575841,8.27772519 C6.29713728,8.8656235 4.67789782,8.91951418 3.183666,7.57046572 C2.56399927,6.97588675 2.22169322,6.16930809 2.36867485,4.7556799 C2.38625404,4.54724323 2.27980223,3.67073852 2,3.11268051 L3.753525,3.11268051 C4.56900446,4.31430901 3.49960325,5.71992219 4.75700421,6.69930732 C6.46413966,7.72278483 7.95641824,6.5037866 8.02575841,5.39390586 L8.02575841,3 Z M6.06470121,3.75402411 C6.99639871,3.75402411 7.75669902,4.44614075 7.75669902,5.29503206 C7.75669902,6.1434762 6.99639871,6.83559284 6.06470121,6.83559284 C5.13251541,6.83559284 4.3722151,6.1434762 4.3722151,5.29503206 C4.3722151,4.44614075 5.13251541,3.75402411 6.06470121,3.75402411" id="path2950" fill="#FBBC09"></path>
            </g>
        </g>
    </g>
</svg>