<?xml version="1.0" encoding="UTF-8"?>
<svg width="12px" height="12px" viewBox="0 0 12 12" version="1.1" xmlns="http://www.w3.org/2000/svg" xmlns:xlink="http://www.w3.org/1999/xlink">
    <title>372EFACB-1F9D-4B7A-AE86-FC57BE8521EE@1x</title>
    <g id="Final.---CHR-30-days-Free-Plan-" stroke="none" stroke-width="1" fill="none" fill-rule="evenodd">
        <g id="-Bank-Logo---SVG" transform="translate(-118.000000, -93.000000)" fill="#1166DD" fill-rule="nonzero">
            <g id="SBI-logo" transform="translate(118.000000, 93.000000)">
                <path d="M5.61446141,12 C2.38256124,11.7916804 -0.100948584,9.05343373 0.00315639998,5.81313601 C0.107261384,2.57283829 2.76140689,-2.30308293e-16 6,-2.30308293e-16 C9.23859311,-2.30308293e-16 11.8927386,2.57283829 11.9968436,5.81313601 C12.1009486,9.05343373 9.61743876,11.7916804 6.38553859,12 L6.38553859,7.0792527 C6.87460927,6.89300937 7.16104891,6.38370181 7.06646638,5.86852058 C6.97188385,5.35333936 6.52326324,4.97926392 6,4.97926392 C5.47673676,4.97926392 5.02811615,5.35333936 4.93353362,5.86852058 C4.83895109,6.38370181 5.12539073,6.89300937 5.61446141,7.0792527" id="Path"></path>
            </g>
        </g>
    </g>
</svg>