<?xml version="1.0" encoding="UTF-8"?>
<svg width="8px" height="12px" viewBox="0 0 8 12" version="1.1" xmlns="http://www.w3.org/2000/svg" xmlns:xlink="http://www.w3.org/1999/xlink">
    <title>94E2A8A7-2BDE-404B-B023-741161106B10@1x</title>
    <g id="Final.---CHR-30-days-Free-Plan-" stroke="none" stroke-width="1" fill="none" fill-rule="evenodd">
        <g id="-Bank-Logo---SVG" transform="translate(-206.000000, -93.000000)" fill-rule="nonzero">
            <g id="Standard_Chartered_(2021)" transform="translate(206.000000, 93.000000)">
                <path d="M6.21110496,11.8234965 L0.885894615,8.54760167 C0.885894615,8.54760167 0.218095872,8.18474682 0.0652206861,7.50883642 C-0.14952426,6.55979767 0.558321514,5.7461165 0.558321514,5.7461165 L7.46951035,9.99935016 C8.00265821,10.3276526 8.14810438,10.9993948 7.80544109,11.5060534 C7.45337546,12.0265329 6.72997518,12.1413784 6.21087281,11.8234965 L6.21110496,11.8234965 Z" id="Path" fill="#38D200"></path>
                <path d="M1.16715246,5.04409985 C1.16715246,5.04409985 0.351469895,4.57868476 0.351469895,3.50218611 C0.351469895,2.42941692 1.16680422,1.96970571 1.16680422,1.96970571 L4.07804922,0.169252396 C4.61121043,-0.150012218 5.31695722,-0.00452779114 5.66096876,0.495559429 C6.00498029,0.995646648 5.8592084,1.66419391 5.33401696,1.99504412 L2.88035281,3.50481867 L7.06091456,6.07770967 C7.06091456,6.07770967 7.8134505,6.48509871 7.96168255,7.17285564 C8.16865025,8.13231495 7.4697425,8.92285151 7.4697425,8.92285151 L1.16715246,5.04409985 Z M1.15171403,11.997136 C1.42496247,11.997136 1.61950978,11.9151975 1.80929788,11.7989259 L3.23044511,10.9241474 L1.80929788,10.0495882 C1.61776861,9.93298765 1.41672091,9.85137821 1.15171403,9.85137821 C0.742218973,9.84584472 0.361299052,10.0491154 0.154842451,10.3833399 C-0.0516141502,10.7175643 -0.0516141502,11.1309498 0.154842451,11.4651743 C0.361299052,11.7993987 0.742218973,12.0026695 1.15171403,11.997136 L1.15171403,11.997136 Z" id="Shape" fill="#0473EA"></path>
                <path d="M6.64674701,2.43204949 C6.3733825,2.43204949 6.17883518,2.51398799 5.98904708,2.63014981 L4.56778377,3.50481867 L5.98904708,4.37948753 C6.18057636,4.4961978 6.38174014,4.57780724 6.64674701,4.57780724 C7.05237291,4.57780724 7.4271867,4.37331769 7.62999965,4.0413678 C7.8328126,3.70941792 7.8328126,3.3004388 7.62999965,2.96848892 C7.4271867,2.63653903 7.05237291,2.43204949 6.64674701,2.43204949" id="Path" fill="#38D200"></path>
            </g>
        </g>
    </g>
</svg>