<svg width="86" height="86" viewBox="0 0 86 86" fill="none" xmlns="http://www.w3.org/2000/svg">
<path fill-rule="evenodd" clip-rule="evenodd" d="M70.9166 84.9999L84.9998 71.0503V15.3223L70.8364 1.00006H15.1845L1.00012 15.4189V71.1471L14.982 84.9999H70.9166" fill="white"/>
<path d="M70.9166 85L84.9996 71.0507V15.3224L70.8363 1H15.1843L1 15.4192V71.1474L14.982 85H70.9166V85Z" stroke="white" stroke-width="0.1925" stroke-miterlimit="2.613"/>
<path fill-rule="evenodd" clip-rule="evenodd" d="M70.8364 70.8746H57.0325V55.4988L68.8051 43.3384L44.7468 17.481V24.0015L60.0515 41.7428L44.855 57.1912V84.9999H70.9166L84.9998 71.0503V15.3223L70.8364 1.00006H15.1845L1.00012 15.4189V71.1471L14.982 84.9999H41.2531L41.2475 57.1912L26.051 41.7428L41.3557 24.0015V17.481L17.2975 43.3384L29.0666 55.4988V70.8746H15.2592V15.1255H70.74L70.8378 70.8746H70.8364ZM32.2343 40.8069C32.2343 34.9149 37.0543 30.142 42.9982 30.142C48.9456 30.142 53.7621 34.9149 53.7621 40.8069C53.7621 46.6952 48.9456 51.4717 42.9982 51.4717C37.0543 51.4717 32.2343 46.6952 32.2343 40.8069Z" fill="black"/>
<path d="M70.8363 70.8746H57.0323V55.4989L68.8049 43.3385L44.7467 17.481V24.0015L60.0514 41.7428L44.8549 57.1911V85H70.9166L84.9996 71.0507V15.3224L70.8363 1H15.1843L1 15.4192V71.1474L14.982 85H41.2529L41.246 57.1911L26.0495 41.7428L41.3542 24.0015V17.481L17.296 43.3385L29.065 55.4989V70.8746H15.2576V15.1256H70.7385L70.8363 70.8746V70.8746ZM32.2342 40.8069C32.2342 34.9149 37.0542 30.1422 42.998 30.1422C48.9454 30.1422 53.762 34.9149 53.762 40.8069C53.762 46.6954 48.9454 51.4718 42.998 51.4718C37.0542 51.4718 32.2342 46.6954 32.2342 40.8069Z" fill="#0044AA" stroke="black" stroke-width="0.1925" stroke-miterlimit="2.613"/>
</svg>
