<?xml version="1.0" encoding="UTF-8"?>
<svg width="23px" height="22px" viewBox="0 0 23 22" version="1.1" xmlns="http://www.w3.org/2000/svg" xmlns:xlink="http://www.w3.org/1999/xlink">
    <title>00358FE7-510C-4479-A244-1D9670B3B2E4</title>
    <g id="Credit-Factors" stroke="none" stroke-width="1" fill="none" fill-rule="evenodd">
        <g id="Assets" transform="translate(-54.000000, -1644.000000)">
            <g id="Group-Copy-21" transform="translate(36.000000, 1621.000000)">
                <g id="Group-6" transform="translate(18.000000, 21.000000)">
                    <g id="clear-icon" transform="translate(0.000000, 2.000000)">
                        <g id="Group-2" transform="translate(0.625000, 0.000000)">
                            <path d="M19.8507609,10.392354 C20.0769196,10.392354 20.2602575,10.2090161 20.2602575,9.98285736 L20.2602575,8.9427358 L20.6210826,8.9427358 C20.8472414,8.9427358 21.0305793,8.7593979 21.0305793,8.53323913 L21.0305793,6.39473048 C21.0302415,6.24248517 20.9450414,6.10313251 20.8096851,6.03343742 L20.8096851,6.03156543 L10.718985,0.776436087 C10.6005036,0.714674679 10.4593255,0.714674679 10.3408441,0.776436087 L0.249675973,6.03156543 L0.249675973,6.03367142 C0.114778775,6.10364015 0.0299316825,6.24276774 0.0294837607,6.39473048 L0.0294837607,8.53323913 C0.0296128531,8.7593444 0.212875161,8.94260671 0.438980437,8.9427358 L0.799805508,8.9427358 L0.799805508,9.98285736 C0.799805508,10.2090161 0.983143415,10.392354 1.20930218,10.392354 L1.57948718,10.392354 L1.57948718,17.3245478 L1.20906819,17.3245478 C1.10044388,17.3244856 0.996250701,17.367609 0.919441706,17.444418 C0.842632712,17.521227 0.799509386,17.6254201 0.79957151,17.7340444 L0.79957151,18.774166 L0.438746439,18.774166 C0.212641163,18.7742951 0.0292497626,18.9575574 0.0292497626,19.1836627 L0.0292497626,21.3219373 C0.0292497626,21.5480426 0.212641163,21.731434 0.438746439,21.731434 L20.6210826,21.731434 C20.8472414,21.731434 21.0305793,21.5480961 21.0305793,21.3219373 L21.0305793,19.1836627 C21.0305793,18.9575039 20.8472414,18.774166 20.6210826,18.774166 L20.2602575,18.774166 L20.2602575,17.7340444 C20.2603197,17.6254201 20.2171963,17.521227 20.1403874,17.444418 C20.0635784,17.367609 19.9593852,17.3244856 19.8507609,17.3245478 L19.4803419,17.3245478 L19.4803419,10.392354 L19.8507609,10.392354 Z M19.4412642,9.57336068 L16.5162879,9.57336068 L16.5162879,8.9427358 L19.4412642,8.9427358 L19.4412642,9.57336068 Z M16.1067913,17.3245478 C15.998167,17.3244856 15.8939738,17.367609 15.8171648,17.444418 C15.7403558,17.521227 15.6972325,17.6254201 15.6972946,17.7340444 L15.6972946,18.774166 L5.36253447,18.774166 L5.36253447,17.7340444 C5.36253447,17.5078857 5.17919657,17.3245478 4.9530378,17.3245478 L4.58238481,17.3245478 L4.58238481,10.392354 L4.9530378,10.392354 C5.17914307,10.3922249 5.36240538,10.2089626 5.36253447,9.98285736 L5.36253447,8.9427358 L15.6972946,8.9427358 L15.6972946,9.98285736 C15.6972946,10.2090161 15.8806325,10.392354 16.1067913,10.392354 L16.4774443,10.392354 L16.4774443,17.3245478 L16.1067913,17.3245478 Z M0.848243115,8.12374245 L0.848243115,6.80422716 L20.2115859,6.80422716 L20.2115859,8.12374245 L0.848243115,8.12374245 Z M10.5299145,1.60127939 L18.9479962,5.98523381 L2.11159886,5.98523381 L10.5299145,1.60127939 Z M4.54354112,8.9427358 L4.54354112,9.57453067 L1.61856486,9.57453067 L1.61856486,8.9427358 L4.54354112,8.9427358 Z M2.39848053,10.393524 L3.76339145,10.393524 L3.76339145,17.3245478 L2.39848053,17.3245478 L2.39848053,10.393524 Z M1.61856486,18.1435411 L4.54354112,18.1435411 L4.54354112,18.774166 L1.61856486,18.774166 L1.61856486,18.1435411 Z M20.2115859,20.9124406 L0.848243115,20.9124406 L0.848243115,19.5931594 L20.2115859,19.5931594 L20.2115859,20.9124406 Z M16.5162879,18.774166 L16.5162879,18.1435411 L19.4412642,18.1435411 L19.4412642,18.774166 L16.5162879,18.774166 Z M18.6613485,17.3245478 L17.2964376,17.3245478 L17.2964376,10.392354 L18.6613485,10.392354 L18.6613485,17.3245478 Z" id="Shape" fill="#1B1DC7" fill-rule="nonzero"></path>
                            <path d="M10.5299145,5.20531814 C11.1760824,5.20531814 11.699905,4.68149555 11.699905,4.03532764 C11.699905,3.38915972 11.1760824,2.86533713 10.5299145,2.86533713 C9.88374662,2.86533713 9.35992403,3.38915972 9.35992403,4.03532764 C9.36069765,4.68117483 9.88406733,5.20454451 10.5299145,5.20531814 Z M10.5299145,3.68433048 C10.7237649,3.68433048 10.8809117,3.84147726 10.8809117,4.03532764 C10.8809117,4.22917801 10.7237649,4.38632479 10.5299145,4.38632479 C10.3360642,4.38632479 10.1789174,4.22917801 10.1789174,4.03532764 C10.1789174,3.84147726 10.3360642,3.68433048 10.5299145,3.68433048 L10.5299145,3.68433048 Z" id="Shape" fill="#D90368" fill-rule="nonzero"></path>
                            <rect id="Rectangle" stroke="#1B1DC7" stroke-width="0.765811966" stroke-linejoin="round" x="8.61538462" y="8.55042735" width="3.82905983" height="1.53162393"></rect>
                            <rect id="Rectangle-Copy" stroke="#1B1DC7" stroke-width="0.765811966" stroke-linejoin="round" x="8.61538462" y="17.5487179" width="3.82905983" height="1.53162393"></rect>
                            <rect id="Rectangle-Copy-2" stroke="#1B1DC7" stroke-width="0.765811966" stroke-linejoin="round" x="9.57264957" y="10.0820513" width="1.91452991" height="7.46666667"></rect>
                        </g>
                    </g>
                </g>
            </g>
        </g>
    </g>
</svg>