<?xml version="1.0" encoding="UTF-8"?>
<svg width="48px" height="48px" viewBox="0 0 48 48" version="1.1" xmlns="http://www.w3.org/2000/svg" xmlns:xlink="http://www.w3.org/1999/xlink">
    <!-- Generator: Sketch 55.2 (78181) - https://sketchapp.com -->
    <title>icici</title>
    <desc>Created with Sketch.</desc>
    <g id="icici" stroke="none" stroke-width="1" fill="none" fill-rule="evenodd">
        <g id="ICICI_Bank_Logo" transform="translate(2.000000, 1.000000)" fill-rule="nonzero">
            <path d="M12.0592579,9.89207267 C22.411235,-0.383792338 34.9697694,-3.05072435 39.9954746,3.95330135 C45.0211798,10.9573243 40.6042001,25.1137458 30.252223,35.3896108 C19.9002735,45.7415658 7.34173909,48.4046934 2.23994664,41.3245805 C-2.70586147,34.2482719 1.71111829,20.1641333 12.0592579,9.89207267" id="path160" fill="#F06321"></path>
            <path d="M18.9111119,4.40983578 C17.7697758,5.24682018 16.6284397,6.2359818 15.4871036,7.30503501 C6.4286647,16.2835796 2.6203828,28.6138551 7.11347739,34.7808964 C11.754909,40.9441333 22.8677584,38.6614529 32.154459,29.6030167 C37.1801642,24.7332986 40.5280852,19.0988845 41.8977106,13.8487192 C42.2781468,9.96816266 41.7455914,6.54033901 39.9954746,3.95330135 C36.0388281,-1.52513118 27.5130274,-1.07240111 18.9111119,4.40983578" id="path162" fill="#AE282E"></path>
            <path d="M32.0022845,5.55117739 L32.0022845,5.77943908 C31.9263629,7.07295791 31.1652974,8.67083395 29.7956996,10.0404428 C27.7412891,12.018766 25.002066,12.7796577 23.85692,11.6421232 C22.5634094,10.4246943 23.3281192,7.75776232 25.3825021,5.62726186 C27.5130274,3.57284862 30.252223,2.88804421 31.3935867,4.10547305 C31.7740228,4.48592025 32.0022845,4.94245745 32.0022845,5.55117186 M24.0889916,40.4875906 C19.2154608,44.1398799 14.1935655,45.9698303 9.32006233,45.2089358 C11.3744728,45.2850231 13.0522294,42.998541 14.4218272,39.9549662 C15.7914526,36.8353041 16.5523525,33.9439092 17.2371376,31.2008872 C18.2262992,26.8637963 18.302414,23.8202214 17.7697758,23.135417 C16.9327886,22.0663638 15.1066399,22.2984354 12.9723323,23.5158642 C11.9070834,24.1245786 10.5374856,23.7441259 12.139155,21.7658082 C13.8131293,19.7874877 20.2807373,15.0661425 22.5634094,14.3052508 C25.1542404,13.6204464 28.045638,14.609608 27.0564764,17.4249129 C26.3678815,19.4793261 17.3893396,42.922451 24.0889916,40.4875906" id="path164" fill="#FFFFFF"></path>
        </g>
    </g>
</svg>