<svg width="84" height="84" viewBox="0 0 84 84" fill="none" xmlns="http://www.w3.org/2000/svg">
<path d="M42.0105 4C48.552 10.1839 55.0953 16.3643 61.6385 22.5448C61.0437 23.157 60.4366 23.7571 59.8348 24.3607C53.9056 18.7611 47.9746 13.1616 42.0506 7.5551C36.2662 13.3605 30.4172 19.0996 24.6292 24.9014C24.0117 24.3066 23.3785 23.7257 22.761 23.1274C27.7447 18.1558 32.7582 13.2157 37.735 8.23541C39.1985 6.86431 40.5958 5.42169 42.0105 4V4Z" fill="#013CC8"/>
<path d="M26.0125 25.99C31.3888 20.6416 36.8191 15.3491 42.2006 10.0078C47.6885 15.166 53.1572 20.3451 58.6433 25.5033C58.0398 26.1069 57.4345 26.7104 56.8326 27.3175C51.978 22.7262 47.1233 18.1349 42.2424 13.5733C37.4645 18.2972 32.6657 22.9966 27.8982 27.7309C27.258 27.1622 26.6388 26.5709 26.0125 25.99Z" fill="#013CC8"/>
<path d="M29.114 28.9485C33.4454 24.6607 37.8273 20.4236 42.1465 16.1219C46.5738 20.2212 50.961 24.3607 55.3778 28.4688C54.7725 29.0723 54.1672 29.6759 53.5636 30.283C49.7852 26.7471 45.9894 23.2321 42.2145 19.6927C38.4571 23.349 34.7258 27.0349 30.984 30.7086C30.3561 30.1277 29.7438 29.5276 29.114 28.9485Z" fill="#013CC8"/>
<path d="M55.8767 29.8643C58.1287 27.7204 60.2901 25.4823 62.4985 23.2931C69.0278 29.491 75.5763 35.6661 82.1213 41.8466C81.5212 42.4449 80.9194 43.0415 80.328 43.6485C74.3901 38.0787 68.4783 32.4791 62.5717 26.8761C56.7105 32.6117 50.9331 38.4328 45.0998 44.198C44.491 43.5945 43.8613 43.0153 43.235 42.4309C47.4547 38.2479 51.6762 34.0665 55.8767 29.8643V29.8643Z" fill="#013CC8"/>
<path d="M12.2039 32.774C15.1257 29.812 18.1121 26.9197 21.0497 23.9734C27.5825 30.1643 34.1415 36.3326 40.6725 42.5269C40.0724 43.1288 39.4724 43.7288 38.8706 44.3289C32.9448 38.7346 27.0138 33.142 21.1021 27.532C17.6237 30.9755 14.1349 34.4067 10.6845 37.8781C8.29639 40.165 6.02692 42.5723 3.62836 44.8487C3.01956 44.2574 2.39332 43.6887 1.78104 43.1026C3.80106 41.0529 5.87864 39.0608 7.90564 37.0181C9.33256 35.5982 10.7368 34.152 12.2039 32.774Z" fill="#013CC8"/>
<path d="M46.4918 45.2692C51.8838 39.9592 57.2705 34.6422 62.6712 29.341C63.2084 29.7038 63.6306 30.2132 64.1138 30.6423C69.1202 35.3557 74.1075 40.09 79.1331 44.7825C78.5278 45.393 77.919 46.0001 77.3102 46.6089C72.4695 42.0124 67.5904 37.456 62.7497 32.8595C57.956 37.5798 53.1537 42.2932 48.3758 47.0327C47.7338 46.4606 47.1181 45.8588 46.4918 45.2692V45.2692Z" fill="#013CC8"/>
<path d="M21.2381 29.9637C26.7068 35.1463 32.2034 40.2993 37.6791 45.4732C37.0703 46.0715 36.479 46.6873 35.8545 47.2664C30.9963 42.6856 26.1347 38.1101 21.2765 33.531C16.4968 38.2618 11.6875 42.9612 6.90609 47.6921C6.31125 47.092 5.63093 46.5756 5.09366 45.9215C8.98368 41.9582 13.0098 38.131 16.9312 34.1991C18.3895 32.8088 19.7798 31.3522 21.2381 29.9637V29.9637Z" fill="#013CC8"/>
<path d="M54.9016 43.0363C57.4816 40.5 60.0685 37.9671 62.652 35.4342C67.074 39.5423 71.4699 43.6783 75.885 47.7933C75.2658 48.3864 74.636 48.969 74.0307 49.5761C70.2663 46.0349 66.4652 42.5322 62.7008 38.991C58.9469 42.6491 55.2191 46.3332 51.4704 49.9965C50.8336 49.4156 50.2126 48.819 49.5969 48.2172C51.4058 46.5321 53.1206 44.7493 54.9016 43.0363V43.0363Z" fill="#013CC8"/>
<path d="M8.14288 48.9114C12.4707 44.6202 16.8597 40.3935 21.1753 36.0883C25.6079 40.1789 29.9828 44.3324 34.4119 48.4282C33.8135 49.0457 33.2012 49.6493 32.5942 50.2581C28.8053 46.7187 25.0182 43.1758 21.2154 39.6521C17.5191 43.3555 13.7302 46.9664 10.0356 50.6715C9.39885 50.0906 8.76215 49.5115 8.14288 48.9114V48.9114Z" fill="#013CC8"/>
<path d="M0 44.8575C7.11542 51.1234 14.2465 57.3718 21.3515 63.6499C27.893 57.6178 34.431 51.5821 40.9569 45.5325C40.8888 46.6978 41.058 47.8596 41.0249 49.0248C34.4764 55.0361 27.9436 61.063 21.4091 67.0899C14.428 60.9286 7.48 54.729 0.502388 48.5626C0.331436 48.3934 0.08722 48.2329 0.120364 47.9573C0.0924532 46.9246 0.0209328 45.8919 0 44.8575V44.8575Z" fill="#013CC8"/>
<path d="M42.9803 45.1628C50.0556 51.3624 57.206 57.4782 64.3144 63.6395C70.6448 57.5079 76.9823 51.3816 83.2935 45.2325C83.2796 46.3891 83.3947 47.5421 83.4226 48.6969C77.1131 54.8616 70.7321 60.9531 64.4086 67.1021C57.3228 60.8955 50.2092 54.7203 43.1164 48.5207C43.0745 47.4008 43.0554 46.2809 42.9803 45.1628V45.1628Z" fill="#013CC8"/>
<path d="M64.6162 70.3136C70.9885 63.9587 77.2683 57.5149 83.5796 51.0989C83.6284 52.2049 83.6267 53.3143 83.6755 54.422C77.366 60.8711 71.039 67.3027 64.74 73.7605C57.6281 67.5487 50.5371 61.3124 43.4199 55.1058C43.4042 53.8917 43.3013 52.6829 43.2664 51.4688C50.3766 57.7591 57.5042 64.0267 64.6162 70.3136Z" fill="#013CC8"/>
<path d="M0.198883 51.1512C7.31954 57.541 14.4297 63.9447 21.5661 70.3153C28.1303 64.0633 34.609 57.7207 41.1226 51.4164C41.0755 52.4892 41.2831 53.562 41.1749 54.6348C40.7266 55.2663 40.0969 55.7495 39.5526 56.2972C33.592 62.1427 27.5756 67.9289 21.6254 73.7849C15.0455 67.9324 8.47608 62.0695 1.90142 56.21C1.37112 55.7146 0.778025 55.2803 0.303547 54.729C0.287847 53.5376 0.216327 52.3444 0.198883 51.1512V51.1512Z" fill="#013CC8"/>
<path d="M64.9249 76.1695C71.2397 69.7431 77.5335 63.2975 83.822 56.845C83.918 58.0067 83.9738 59.1703 84 60.3355C77.6748 66.7602 71.3391 73.1761 65.0087 79.5972C57.9264 73.4726 50.8092 67.3882 43.7217 61.2688C43.6031 60.1035 43.6345 58.933 43.5769 57.766C50.6766 63.9185 57.8269 70.0135 64.9249 76.1695V76.1695Z" fill="#013CC8"/>
<path d="M21.7475 76.1573C28.3082 69.8617 34.7921 63.4894 41.2883 57.131C41.3668 58.3033 41.4087 59.4773 41.3999 60.653C34.8602 66.9712 28.3152 73.286 21.7946 79.6234C14.7071 73.3941 7.60037 67.184 0.500644 60.9705C0.448312 59.7947 0.4675 58.619 0.434357 57.445C3.25331 60.0076 6.15949 62.4724 9.01334 64.9966C13.261 68.7139 17.5033 72.4364 21.7475 76.1573V76.1573Z" fill="#013CC8"/>
</svg>
