<?xml version="1.0" encoding="UTF-8"?>
<svg width="66px" height="24px" viewBox="0 0 66 24" version="1.1" xmlns="http://www.w3.org/2000/svg" xmlns:xlink="http://www.w3.org/1999/xlink">
    <title>Group Copy@1x</title>
    <defs>
        <polygon id="path-1" points="0 38 76 38 76 0 0 0"></polygon>
    </defs>
    <g id="Final.---CHR-30-days-Free-Plan-" stroke="none" stroke-width="1" fill="none" fill-rule="evenodd">
        <g id="Artboard" transform="translate(-166.000000, -46.000000)">
            <g id="Group-Copy" transform="translate(161.000000, 39.000000)">
                <g id="g24-Clipped" transform="translate(38.000000, 19.000000) scale(-1, 1) rotate(-180.000000) translate(-38.000000, -19.000000) ">
                    <mask id="mask-2" fill="white">
                        <use xlink:href="#path-1"></use>
                    </mask>
                    <g id="path26"></g>
                    <g id="g24" mask="url(#mask-2)">
                        <g transform="translate(5.453721, 7.503135)">
                            <g id="g30" transform="translate(0.000000, 0.042750)">
                                <path d="M0.523643551,3.1974537 L1.01095837,3.1974537 L0.558125032,1.30607407 C0.490921328,1.02547222 0.503587995,0.814185185 0.596476884,0.673268519 C0.689013921,0.532175926 0.861245402,0.46162963 1.1129954,0.46162963 C1.36316207,0.46162963 1.5682917,0.532175926 1.72856022,0.673268519 C1.88900466,0.814185185 2.00282874,1.02547222 2.07003244,1.30607407 L2.52268985,3.1974537 L3.01633799,3.1974537 L2.55242133,1.25927778 C2.45161577,0.838111111 2.2719954,0.522851852 2.0147917,0.313851852 C1.75741207,0.1045 1.41998614,0 1.00251392,0 C0.584689847,0 0.298106513,0.104324074 0.142060217,0.312796296 C-0.014162005,0.521092593 -0.0414305236,0.836703704 0.0597268839,1.25927778 L0.523643551,3.1974537 Z" id="path32" fill="#696A6A" fill-rule="nonzero"></path>
                            </g>
                            <g id="g34" transform="translate(2.950858, 0.004732)">
                                <path d="M5.32778028e-14,0.120861111 L0.77512963,3.35877778 L2.24798148,1.45473148 C2.28738889,1.40107407 2.32714815,1.3435463 2.36637963,1.2825 C2.40561111,1.2214537 2.44572222,1.15284259 2.48688889,1.07613889 L3.00393519,3.2354537 L3.46011111,3.2354537 L2.68550926,0 L1.18169444,1.938 C1.14140741,1.99025 1.10393519,2.04549074 1.06892593,2.10372222 C1.03356481,2.1619537 1.00172222,2.223 0.972518519,2.28668519 L0.454064815,0.120861111 L5.32778028e-14,0.120861111 Z" id="path36" fill="#696A6A" fill-rule="nonzero"></path>
                            </g>
                            <g id="g38" transform="translate(6.370594, 0.125594)">
                                <polygon id="path40" fill="#696A6A" fill-rule="nonzero" points="0 0 0.745574074 3.11459259 1.23887037 3.11459259 0.493472222 0"></polygon>
                            </g>
                            <g id="g42" transform="translate(7.573382, 0.125594)">
                                <polygon id="path44" fill="#696A6A" fill-rule="nonzero" points="0 0 0.745574074 3.11459259 2.43974074 3.11459259 2.33682407 2.68498148 1.13612963 2.68498148 0.950175926 1.90844444 2.15087037 1.90844444 2.04461111 1.46387963 0.843740741 1.46387963 0.493472222 0"></polygon>
                            </g>
                            <g id="g46" transform="translate(9.811125, 0.125594)">
                                <polygon id="path48" fill="#696A6A" fill-rule="nonzero" points="0 0 0.745574074 3.11459259 1.23887037 3.11459259 0.493472222 0"></polygon>
                            </g>
                            <g id="g50" transform="translate(11.013913, 0.125594)">
                                <polygon id="path52" fill="#696A6A" fill-rule="nonzero" points="0 0 0.745574074 3.11459259 2.43974074 3.11459259 2.33682407 2.68498148 1.13612963 2.68498148 0.94912037 1.90422222 2.14981481 1.90422222 2.04355556 1.45948148 0.842861111 1.45948148 0.601842593 0.453185185 1.80253704 0.453185185 1.69416667 0"></polygon>
                            </g>
                            <g id="g54" transform="translate(13.274438, 0.125523)">
                                <path d="M0.602898148,0.457583333 L1.01773148,0.457583333 C1.24573148,0.457583333 1.42060185,0.473240741 1.54216667,0.50437963 C1.66373148,0.535518519 1.77526852,0.58812037 1.87748148,0.661833333 C2.01628704,0.762287037 2.13222222,0.887546296 2.22546296,1.03725926 C2.31852778,1.1867963 2.38907407,1.36113889 2.43657407,1.55975926 C2.48389815,1.75837963 2.49691667,1.93219444 2.4754537,2.08155556 C2.45381481,2.23144444 2.39787037,2.35652778 2.30726852,2.45733333 C2.23918519,2.53087037 2.14928704,2.58364815 2.0370463,2.61496296 C1.92462963,2.64592593 1.74166667,2.66158333 1.48727778,2.66158333 L1.30888889,2.66158333 L1.1305,2.66158333 L0.602898148,0.457583333 Z M-7.81268054e-17,0 L0.745574074,3.11476852 L1.41110185,3.11476852 C1.84387963,3.11476852 2.1429537,3.09260185 2.30867593,3.04791667 C2.4740463,3.00305556 2.61074074,2.92811111 2.71823148,2.82325926 C2.86090741,2.68568519 2.95168519,2.50905556 2.99074074,2.29372222 C3.02962037,2.07803704 3.01589815,1.83191667 2.94975,1.55536111 C2.88360185,1.27880556 2.77962963,1.03374074 2.63783333,0.820342593 C2.49638889,0.606768519 2.32099074,0.430666667 2.11234259,0.291685185 C1.95453704,0.186657407 1.7852963,0.111888889 1.6055,0.0670277778 C1.42517593,0.0225185185 1.15636111,0 0.798175926,0 L0.665351852,0 L-7.81268054e-17,0 Z" id="path56" fill="#696A6A" fill-rule="nonzero"></path>
                            </g>
                            <g id="g58" transform="translate(17.699696, 0.125541)">
                                <path d="M0.927305556,1.81256481 L1.05397222,1.81256481 C1.32753704,1.81256481 1.51736111,1.84335185 1.62326852,1.90422222 C1.72935185,1.96509259 1.80060185,2.07293519 1.8375463,2.22757407 C1.87730556,2.39347222 1.85672222,2.51063889 1.77544444,2.5785463 C1.69416667,2.64662963 1.52316667,2.68093519 1.26191667,2.68093519 L1.13525,2.68093519 L0.927305556,1.81256481 Z M0.796944444,1.39808333 L0.462333333,0 L5.32925975e-14,0 L0.74575,3.11459259 L1.4922037,3.11459259 C1.71334259,3.11459259 1.87325926,3.10227778 1.97177778,3.07747222 C2.06994444,3.05284259 2.1510463,3.01185185 2.21508333,2.95502778 C2.29301852,2.88272222 2.34421296,2.78525926 2.36884259,2.66263889 C2.3932963,2.53984259 2.38801852,2.40473148 2.35283333,2.25748148 C2.3172963,2.10987963 2.25783333,1.97371296 2.17409259,1.84880556 C2.09035185,1.72407407 1.99218519,1.62608333 1.87994444,1.55536111 C1.78881481,1.49853704 1.68836111,1.45807407 1.57823148,1.43414815 C1.46792593,1.40987037 1.30237963,1.39808333 1.08124074,1.39808333 L0.983953704,1.39808333 L0.796944444,1.39808333 Z" id="path60" fill="#696A6A" fill-rule="nonzero"></path>
                            </g>
                            <g id="g62" transform="translate(19.315558, 0.125611)">
                                <path d="M1.34618519,1.22321296 L2.19221296,1.22321296 L2.05094444,1.9339537 C2.04425926,1.97916667 2.03792593,2.03124074 2.03247222,2.09017593 C2.02737037,2.14911111 2.02385185,2.21473148 2.02156481,2.28703704 C1.98884259,2.2189537 1.95594444,2.15544444 1.9230463,2.09650926 C1.89032407,2.03775 1.85848148,1.98356481 1.82716667,1.9339537 L1.34618519,1.22321296 Z M2.41792593,0 L2.26539815,0.802046296 L1.06259259,0.802046296 L0.518101852,0 L0,0 L2.24499074,3.23791667 L2.93831481,0 L2.41792593,0 Z" id="path64" fill="#696A6A" fill-rule="nonzero"></path>
                            </g>
                            <g id="g66" transform="translate(22.684241, 0.125594)">
                                <path d="M0.276907407,0 L0.617851852,1.42552778 L-3.90634027e-17,3.11459259 L0.518453704,3.11459259 L0.901972222,2.05727778 C0.910768519,2.03018519 0.921324074,1.99482407 0.933462963,1.95084259 C0.945777778,1.90686111 0.957740741,1.85953704 0.969,1.80834259 C0.999962963,1.8579537 1.03180556,1.90510185 1.06364815,1.94890741 C1.09549074,1.99288889 1.12768519,2.03317593 1.16023148,2.07012037 L2.06325926,3.11459259 L2.55690741,3.11459259 L1.10727778,1.42552778 L0.766157407,0 L0.276907407,0 Z" id="path68" fill="#696A6A" fill-rule="nonzero"></path>
                            </g>
                            <g id="g70" transform="translate(24.533082, 0.000000)">
                                <path d="M3.13658333,1.66390741 C3.13675926,1.68800926 3.1437963,1.75450926 3.15751852,1.86375926 C3.16807407,1.95453704 3.17634259,2.02983333 3.18232407,2.08947222 C3.15294444,2.01839815 3.11828704,1.94732407 3.07852778,1.87660185 C3.03859259,1.8057037 2.99285185,1.73339815 2.94060185,1.65950926 L1.74905556,0 L1.36025926,1.69346296 C1.34372222,1.76312963 1.33105556,1.83050926 1.32261111,1.89560185 C1.31416667,1.96087037 1.30836111,2.02543519 1.3055463,2.08947222 C1.28865741,2.02402778 1.26719444,1.95576852 1.24098148,1.88399074 C1.21476852,1.81238889 1.1834537,1.73744444 1.14668519,1.65950926 L0.453888889,0.125611111 L5.32772232e-14,0.125611111 L1.49449074,3.37232407 L1.91987963,1.40635185 C1.92603704,1.37521296 1.93500926,1.32331481 1.94591667,1.25100926 C1.95682407,1.1787037 1.96966667,1.08933333 1.98462037,0.983074074 C2.03493519,1.07244444 2.10741667,1.18574074 2.20276852,1.32331481 C2.22810185,1.36025926 2.2474537,1.38858333 2.26047222,1.40846296 L3.60577778,3.37232407 L3.56267593,0.125611111 L3.10421296,0.125611111 L3.13658333,1.66390741 Z" id="path72" fill="#696A6A" fill-rule="nonzero"></path>
                            </g>
                            <g id="g74" transform="translate(28.489761, 0.125594)">
                                <polygon id="path76" fill="#696A6A" fill-rule="nonzero" points="0 0 0.74575 3.11459259 2.43991667 3.11459259 2.337 2.68498148 1.13612963 2.68498148 0.949296296 1.90422222 2.14999074 1.90422222 2.04373148 1.45948148 0.842861111 1.45948148 0.602018519 0.453185185 1.80271296 0.453185185 1.69399074 0"></polygon>
                            </g>
                            <g id="g78" transform="translate(30.750251, 0.004732)">
                                <path d="M5.32778028e-14,0.120861111 L0.77512963,3.35877778 L2.24798148,1.45473148 C2.28738889,1.40107407 2.32714815,1.3435463 2.36637963,1.2825 C2.40561111,1.2214537 2.44572222,1.15284259 2.48688889,1.07613889 L3.00393519,3.2354537 L3.46028704,3.2354537 L2.68550926,0 L1.18169444,1.938 C1.14140741,1.99025 1.10393519,2.04549074 1.06892593,2.10372222 C1.03356481,2.1619537 1.00172222,2.223 0.972518519,2.28668519 L0.454064815,0.120861111 L5.32778028e-14,0.120861111 Z" id="path80" fill="#696A6A" fill-rule="nonzero"></path>
                            </g>
                            <g id="g82" transform="translate(34.484842, 0.125541)">
                                <polygon id="path84" fill="#696A6A" fill-rule="nonzero" points="1.30026852 2.68498148 0.657611111 0 0.164138889 0 0.80662037 2.68498148 0 2.68498148 0.102916667 3.11459259 2.20558333 3.11459259 2.10284259 2.68498148"></polygon>
                            </g>
                            <g id="g86" transform="translate(36.297140, 0.042715)">
                                <path d="M0.000107954545,0.706342593 L0.438867214,0.893351852 C0.443265362,0.754546296 0.486191288,0.648462963 0.568172769,0.575453704 C0.650154251,0.502268519 0.768552399,0.465851852 0.923719066,0.465851852 C1.07008944,0.465851852 1.1967561,0.507722222 1.30301536,0.591462963 C1.40945055,0.675027778 1.47964499,0.787092593 1.51324684,0.927481481 C1.5570524,1.11062037 1.4478024,1.2737037 1.1865524,1.41673148 C1.14995981,1.43801852 1.12181166,1.45367593 1.10245981,1.4637037 C0.80778388,1.63100926 0.620950547,1.78248148 0.542135732,1.91794444 C0.463496843,2.05340741 0.447311658,2.2189537 0.494107955,2.41458333 C0.554802399,2.66844444 0.688154251,2.87410185 0.893811658,3.03155556 C1.09946907,3.18900926 1.33837647,3.26782407 1.61088573,3.26782407 C1.83483944,3.26782407 2.01164499,3.22349074 2.14095055,3.13482407 C2.27043203,3.04598148 2.34432092,2.91878704 2.36261721,2.75288889 L1.9282561,2.54863889 C1.89060795,2.6464537 1.84099684,2.71805556 1.77942277,2.76362037 C1.71767277,2.80900926 1.63956166,2.8317037 1.54579314,2.8317037 C1.41314499,2.8317037 1.29914499,2.79599074 1.20396907,2.72544444 C1.10932092,2.65437037 1.04721907,2.55937037 1.01854314,2.44009259 C0.973857955,2.25290741 1.10351536,2.07856481 1.40769129,1.91688889 C1.43108944,1.90422222 1.44938573,1.89401852 1.46258018,1.88698148 C1.7287561,1.74536111 1.90186721,1.60655556 1.98120981,1.47109259 C2.06072832,1.3354537 2.07638573,1.16638889 2.02765425,0.963722222 C1.95710795,0.668518519 1.81056166,0.434185185 1.58783944,0.260546296 C1.36511721,0.0869074074 1.09946907,0 0.791422769,0 C0.532635732,0 0.335422769,0.0608703704 0.199607955,0.182962963 C0.0634412879,0.30487963 -0.00305871212,0.479222222 0.000107954545,0.706342593" id="path88" fill="#696A6A" fill-rule="nonzero"></path>
                            </g>
                            <g id="g90" transform="translate(39.943243, 0.125594)">
                                <polygon id="path92" fill="#696A6A" fill-rule="nonzero" points="0 0 0.745574074 3.11459259 1.2390463 3.11459259 0.493472222 0"></polygon>
                            </g>
                            <g id="g94" transform="translate(41.146031, 0.004732)">
                                <path d="M5.32778028e-14,0.120861111 L0.77512963,3.35877778 L2.24798148,1.45473148 C2.28738889,1.40107407 2.32714815,1.3435463 2.36637963,1.2825 C2.40561111,1.2214537 2.44572222,1.15284259 2.48688889,1.07613889 L3.00393519,3.2354537 L3.46011111,3.2354537 L2.68550926,0 L1.18169444,1.938 C1.14140741,1.99025 1.10375926,2.04549074 1.06875,2.10372222 C1.03356481,2.1619537 1.0015463,2.223 0.972342593,2.28668519 L0.454064815,0.120861111 L5.32778028e-14,0.120861111 Z" id="path96" fill="#696A6A" fill-rule="nonzero"></path>
                            </g>
                            <g id="g98" transform="translate(44.880621, 0.125541)">
                                <polygon id="path100" fill="#696A6A" fill-rule="nonzero" points="1.30026852 2.68498148 0.657435185 0 0.164138889 0 0.80662037 2.68498148 0 2.68498148 0.102916667 3.11459259 2.20558333 3.11459259 2.10284259 2.68498148"></polygon>
                            </g>
                            <g id="g102" transform="translate(46.718115, 0.125594)">
                                <polygon id="path104" fill="#696A6A" fill-rule="nonzero" points="0 0 0.745574074 3.11459259 2.43974074 3.11459259 2.337 2.68498148 1.13630556 2.68498148 0.949296296 1.90422222 2.14999074 1.90422222 2.04355556 1.45948148 0.842861111 1.45948148 0.602018519 0.453185185 1.80271296 0.453185185 1.69416667 0"></polygon>
                            </g>
                            <g id="g106" transform="translate(48.978569, 0.125629)">
                                <path d="M0.921324074,1.78723148 L1.01069444,1.78723148 C1.27176852,1.78723148 1.4527963,1.81819444 1.55342593,1.88064815 C1.65405556,1.94310185 1.72372222,2.05358333 1.76137037,2.21262037 C1.80253704,2.38414815 1.78564815,2.50518519 1.71017593,2.5752037 C1.63540741,2.64575 1.47337963,2.68075926 1.22462037,2.68075926 L1.13525,2.68075926 L0.921324074,1.78723148 Z M0.796064815,1.39368519 L0.462333333,0 L0,0 L0.74575,3.11459259 L1.43414815,3.11459259 C1.63593519,3.11459259 1.78934259,3.10122222 1.89401852,3.07412963 C1.99887037,3.04721296 2.08331481,3.0027037 2.14717593,2.94007407 C2.22317593,2.86512963 2.27243519,2.76766667 2.29530556,2.64856481 C2.31764815,2.52963889 2.31184259,2.39910185 2.27806481,2.25748148 C2.21842593,2.00784259 2.11287037,1.81238889 1.96157407,1.67112037 C1.81027778,1.5302037 1.61640741,1.44523148 1.38013889,1.41708333 L2.08630556,0 L1.52826852,0 L0.852009259,1.39368519 L0.796064815,1.39368519 Z" id="path108" fill="#696A6A" fill-rule="nonzero"></path>
                            </g>
                            <g id="g110" transform="translate(51.357299, 0.125594)">
                                <polygon id="path112" fill="#696A6A" fill-rule="nonzero" points="0 0 0.745574074 3.11459259 2.43974074 3.11459259 2.337 2.68498148 1.13612963 2.68498148 0.950175926 1.90844444 2.1510463 1.90844444 2.04461111 1.46387963 0.843916667 1.46387963 0.493472222 0"></polygon>
                            </g>
                            <g id="g114" transform="translate(53.022807, 0.125611)">
                                <path d="M1.34618519,1.22321296 L2.19238889,1.22321296 L2.05112037,1.9339537 C2.04425926,1.97916667 2.03810185,2.03124074 2.03264815,2.09017593 C2.0275463,2.14911111 2.02402778,2.21473148 2.02174074,2.28703704 C1.98884259,2.2189537 1.95594444,2.15544444 1.92322222,2.09650926 C1.8905,2.03775 1.85848148,1.98356481 1.82716667,1.9339537 L1.34618519,1.22321296 Z M2.41810185,0 L2.26557407,0.802046296 L1.06276852,0.802046296 L0.518277778,0 L0,0 L2.24499074,3.23791667 L2.93849074,0 L2.41810185,0 Z" id="path116" fill="#696A6A" fill-rule="nonzero"></path>
                            </g>
                            <g id="g118" transform="translate(56.359157, 0.042803)">
                                <path d="M2.81447843,2.44009259 C2.70417288,2.56200926 2.57856176,2.65349074 2.43746917,2.71453704 C2.29672843,2.77523148 2.14050621,2.80601852 1.96897843,2.80601852 C1.63735806,2.80601852 1.3410988,2.69676852 1.08090436,2.47844444 C0.820358061,2.25994444 0.648654357,1.97705556 0.565441394,1.62942593 C0.485043246,1.29323148 0.520052505,1.01614815 0.670293246,0.797824074 C0.820533987,0.579324074 1.04994139,0.469898148 1.35798769,0.469898148 C1.53795991,0.469898148 1.71670065,0.50262037 1.89473769,0.567888889 C2.07277473,0.633157407 2.2523951,0.731675926 2.43307102,0.863796296 L2.29602473,0.291333333 C2.13997843,0.193518519 1.97795065,0.120333333 1.81029325,0.0723055556 C1.64245991,0.0241018519 1.46741362,0 1.28497843,0 C1.05275621,0 0.847274728,0.0388796296 0.669061765,0.116990741 C0.490672876,0.194925926 0.344830283,0.30962963 0.232061765,0.46162963 C0.119821024,0.610462963 0.0478673201,0.785861111 0.0170802831,0.988175926 C-0.0142345317,1.19013889 -0.00244749471,1.40547222 0.0520895423,1.634 C0.106802505,1.86217593 0.198108061,2.07662963 0.325654357,2.27736111 C0.453024728,2.47809259 0.610478431,2.65437037 0.797311765,2.80601852 C0.984848802,2.95925 1.18540436,3.07500926 1.39897843,3.154 C1.61272843,3.23246296 1.83316362,3.2720463 2.05993213,3.2720463 C2.23832102,3.2720463 2.40193213,3.24530556 2.55094139,3.192 C2.69995065,3.1390463 2.83752473,3.05864815 2.96401547,2.9504537 L2.81447843,2.44009259 Z" id="path120" fill="#696A6A" fill-rule="nonzero"></path>
                            </g>
                            <g id="g122" transform="translate(59.221399, 0.125594)">
                                <polygon id="path124" fill="#696A6A" fill-rule="nonzero" points="0 0 0.745574074 3.11459259 2.43974074 3.11459259 2.33682407 2.68498148 1.13630556 2.68498148 0.949296296 1.90422222 2.14999074 1.90422222 2.04355556 1.45948148 0.842861111 1.45948148 0.602018519 0.453185185 1.80271296 0.453185185 1.69416667 0"></polygon>
                            </g>
                            <g id="g126" transform="translate(46.827928, 5.954336)">
                                <polygon id="path128" fill="#66686C" fill-rule="nonzero" points="3.39237963 0 0 0 4.71798148 17.0393056 8.11053704 17.0393056"></polygon>
                            </g>
                            <g id="g130" transform="translate(23.988556, 5.882206)">
                                <path d="M24.4705926,16.57275 C24.2353796,16.8969815 23.8726204,17.0605926 23.3798519,17.0605926 L4.72537037,17.0605926 L3.80140741,13.7232778 L7.19572222,13.7232778 L7.19572222,13.725213 L20.77175,13.725213 L19.7841019,10.1588426 L6.20772222,10.1588426 L6.2089537,10.1662315 L2.8160463,10.1662315 L0,0 L3.39466667,0 L5.28446296,6.82346296 L20.5453333,6.82346296 C21.0219167,6.82346296 21.4705278,6.98601852 21.8923981,7.31112963 C22.3133889,7.63659259 22.5904722,8.03787963 22.7232963,8.51710185 L24.6129167,15.3419722 C24.7508426,15.8372037 24.7031667,16.2481667 24.4705926,16.57275" id="path132" fill="#66686C" fill-rule="nonzero"></path>
                            </g>
                            <g id="g134" transform="translate(1.719780, 5.876559)">
                                <path d="M20.2919837,1.14140741 C20.1046226,0.466731481 19.4902893,0 18.7899282,0 L1.28688189,0 C0.809946706,0 0.455455965,0.162555556 0.222354113,0.487314815 C-0.010571813,0.812425926 -0.0605347759,1.21459259 0.07264115,1.69363889 L4.34341893,17.0672778 L7.73896522,17.0672778 L3.92436337,3.33625926 L17.5069004,3.33625926 L21.3215023,17.0672778 L24.7163449,17.0672778 L20.2919837,1.14140741 Z" id="path136" fill="#66686C" fill-rule="nonzero"></path>
                            </g>
                            <g id="g138" transform="translate(56.063687, 5.880588)">
                                <polygon id="path140" fill="#27803B" fill-rule="nonzero" points="4.73381481 17.0811759 9.02887037 8.53944444 0 0"></polygon>
                            </g>
                            <g id="g142" transform="translate(53.045994, 5.880588)">
                                <polygon id="path144" fill="#E9661C" fill-rule="nonzero" points="4.74067593 17.0811759 9.03256481 8.53944444 0 0"></polygon>
                            </g>
                        </g>
                    </g>
                </g>
            </g>
        </g>
    </g>
</svg>