<?xml version="1.0" encoding="UTF-8"?>
<svg width="40px" height="55px" viewBox="0 0 40 55" version="1.1" xmlns="http://www.w3.org/2000/svg" xmlns:xlink="http://www.w3.org/1999/xlink">
    <title>3CB5FD18-6EF7-47CA-B3D0-A0448B250284@1x</title>
    <g id="New---Revamp-Bureaus---Mobile-&amp;-Desktop--Copy-3" stroke="none" stroke-width="1" fill="none" fill-rule="evenodd">
        <g id="Desktop" transform="translate(-198.000000, -3540.000000)">
            <g id="Credit-Factors-" transform="translate(174.000000, 3338.000000)">
                <g id="Group-16" transform="translate(24.000000, 24.000000)">
                    <g id="Group-10" transform="translate(0.000000, 178.000000)">
                        <polygon id="Rectangle-Copy-2" fill="#FFFFFF" opacity="0" points="0 0 40 0 40 55 4.72955008e-13 55"></polygon>
                        <g id="Group-63" transform="translate(3.000000, 12.000000)">
                            <rect id="Rectangle-Copy-4" stroke="#052F5F" stroke-width="1.28" x="0.64" y="0.64" width="26.88" height="18.893913" rx="5.12"></rect>
                            <g id="Group-25" transform="translate(23.209913, 19.209913) rotate(4.000000) translate(-23.209913, -19.209913) translate(11.770132, 7.770132)">
                                <circle id="Oval" fill="#FFFFFF" cx="11.05463" cy="11.048876" r="9"></circle>
                                <circle id="Oval" fill="#DDDBFF" cx="11.4926349" cy="11.4857262" r="8.5"></circle>
                                <path d="M11.566478,20.4388008 C16.5365379,20.5113895 20.5088432,16.5412356 20.4388701,11.5712139 C20.3688971,6.60119223 16.2831431,2.51334891 11.3130832,2.4407603 C6.79577071,2.37478414 3.10271169,5.64855135 2.519899,9.97730712 C2.46148662,10.4111565 2.4343168,10.8556033 2.44069099,11.3083473 C2.46285994,12.8829559 2.88811583,14.3690153 3.6168741,15.6668899 C4.66451442,17.5326742 5.00762728,17.6378782 4.64621269,15.9825019" id="Oval" stroke="#052F5F" stroke-width="1.12795473" stroke-linecap="round" transform="translate(11.439781, 11.439781) rotate(71.000000) translate(-11.439781, -11.439781) "></path>
                                <path d="M2.71685104,3.75643453 L7.16642847,6.62520898 C7.24388151,6.67514525 7.26618825,6.77841468 7.21625199,6.85586771 C7.19513518,6.88862067 7.16322052,6.91294949 7.12604341,6.92463446 L3.70329155,8.00042488 C3.61537645,8.0280571 3.52170685,7.97918817 3.49407463,7.89127307 C3.49324293,7.88862693 3.49247734,7.88596045 3.49177858,7.88327614 L2.46495302,3.93871127 C2.44173739,3.8495281 2.49521465,3.75841087 2.58439782,3.73519524 C2.62957607,3.7234347 2.67761502,3.7311379 2.71685104,3.75643453 Z" id="Path-2" fill="#052F5F"></path>
                                <polyline id="Path-3" stroke="#052F5F" stroke-width="1.12795473" stroke-linecap="round" points="10.1389583 7.49821605 11.4504265 11.9174978 15.1620154 14.2205914"></polyline>
                            </g>
                            <line x1="27.456" y1="6.48447205" x2="0.704" y2="6.48447205" id="Line-2" stroke="#052F5F" stroke-width="1.28" stroke-linecap="square"></line>
                        </g>
                    </g>
                </g>
            </g>
        </g>
    </g>
</svg>