<?xml version="1.0" encoding="UTF-8"?>
<svg width="48px" height="48px" viewBox="0 0 48 48" version="1.1" xmlns="http://www.w3.org/2000/svg" xmlns:xlink="http://www.w3.org/1999/xlink">
    <title>6971321D-2745-463F-8092-53D9406330E3@2x</title>
    <g id="Credit-Advisory-&amp;-Rectification-Copy" stroke="none" stroke-width="1" fill="none" fill-rule="evenodd">
        <g id="Desktop---Rectification-" transform="translate(-820.000000, -262.000000)">
            <g id="Group-12" transform="translate(442.000000, 104.000000)">
                <g id="Group-2" transform="translate(378.000000, 153.000000)">
                    <g id="Group-28" transform="translate(0.000000, 5.000000)">
                        <g id="Group-25">
                            <circle id="Oval" fill="#FFDBDD" cx="24" cy="24" r="24"></circle>
                            <circle id="Oval-Copy" fill="#FF6F6F" cx="24.5052632" cy="24.5052632" r="14.4"></circle>
                        </g>
                        <path d="M25.9741353,26.3668304 L23.3323308,26.3668304 L22.7801504,16.4210526 L26.5263158,16.4210526 L25.9741353,26.3668304 Z M22.7368421,29.8483617 C22.7368421,29.2104203 22.9227068,28.762504 23.2944361,28.5046128 C23.6661654,28.2467216 24.1154887,28.117776 24.642406,28.117776 C25.1548872,28.117776 25.5969925,28.2467216 25.9687218,28.5046128 C26.3404511,28.762504 26.5263158,29.2104203 26.5263158,29.8483617 C26.5263158,30.4591566 26.3404511,30.9002863 25.9687218,31.1717507 C25.5969925,31.4432152 25.1548872,31.5789474 24.642406,31.5789474 C24.1154887,31.5789474 23.6661654,31.4432152 23.2944361,31.1717507 C22.9227068,30.9002863 22.7368421,30.4591566 22.7368421,29.8483617 Z" id="Shape" fill="#FFFFFF" fill-rule="nonzero"></path>
                    </g>
                </g>
            </g>
        </g>
    </g>
</svg>