<?xml version="1.0" encoding="UTF-8"?>
<svg width="8px" height="6px" viewBox="0 0 8 6" version="1.1" xmlns="http://www.w3.org/2000/svg" xmlns:xlink="http://www.w3.org/1999/xlink">
    <title>1331ADD8-44C7-43EF-9B4B-1D4B09F2649B@1x</title>
    <g id="Final" stroke="none" stroke-width="1" fill="none" fill-rule="evenodd">
        <g id="Desktop---CHR-Plan-Payment" transform="translate(-588.000000, -253.000000)" fill="#FFFFFF" fill-rule="nonzero">
            <g id="Group-8" transform="translate(560.000000, 107.000000)">
                <g id="Group-14" transform="translate(16.000000, 84.000000)">
                    <g id="Group-3" transform="translate(8.000000, 57.000000)">
                        <path d="M7.06335078,10.8844112 C6.98698579,10.9586048 6.88279731,11 6.77456993,11 C6.66634255,11 6.56215408,10.9586048 6.48578908,10.8844112 L4.17950636,8.65643625 C3.94016455,8.42525857 3.94016455,8.05038951 4.17950636,7.8196453 L4.46828721,7.54064272 C4.70770382,7.30946504 5.09536275,7.30946504 5.33470456,7.54064272 L6.77456993,8.93146545 L10.6652954,5.17338326 C10.904712,4.94220558 11.292745,4.94220558 11.5317128,5.17338326 L11.8204936,5.45238584 C12.0598355,5.68356352 12.0598355,6.05836032 11.8204936,6.28917679 L7.06335078,10.8844112 Z" id="Path"></path>
                    </g>
                </g>
            </g>
        </g>
    </g>
</svg>