<?xml version="1.0" encoding="UTF-8"?>
<svg width="12px" height="12px" viewBox="0 0 12 12" version="1.1" xmlns="http://www.w3.org/2000/svg" xmlns:xlink="http://www.w3.org/1999/xlink">
    <title>5C074C7A-482C-49F9-A342-5213236BFAF5</title>
    <g id="Page-1" stroke="none" stroke-width="1" fill="none" fill-rule="evenodd" opacity="0.800000012">
        <g id="Mobile---Credit-Report-Modal---02" transform="translate(-908.000000, -124.000000)" fill="#052F5F" fill-rule="nonzero">
            <g id="Screen" transform="translate(496.000000, 100.000000)">
                <path d="M419.426182,30.0000282 L423.704623,25.7215821 C424.098459,25.327746 424.098459,24.6892132 423.704623,24.2954334 C423.310788,23.9015973 422.672312,23.9015973 422.278476,24.2954334 L417.999979,28.5739358 L413.721481,24.2953771 C413.327646,23.901541 412.68917,23.901541 412.295334,24.2953771 C411.901555,24.6892132 411.901555,25.327746 412.295334,25.7215258 L416.573832,29.9999718 L412.295334,34.2784742 C411.901555,34.6723103 411.901555,35.3108432 412.295334,35.7046229 C412.68917,36.098459 413.327646,36.098459 413.721481,35.7046229 L417.999979,31.4261205 L422.278476,35.7046229 C422.672256,36.098459 423.310788,36.098459 423.704623,35.7046229 C424.098459,35.3107868 424.098459,34.6723103 423.704623,34.2784742 L419.426182,30.0000282 Z" id="Path"></path>
            </g>
        </g>
    </g>
</svg>