<?xml version="1.0" encoding="UTF-8"?>
<svg width="10px" height="10px" viewBox="0 0 10 10" version="1.1" xmlns="http://www.w3.org/2000/svg" xmlns:xlink="http://www.w3.org/1999/xlink">
    <title>3F21802B-6A53-4172-B5AD-788FBFDEA2ED@2x</title>
    <g id="Desktop-Copy" stroke="none" stroke-width="1" fill="none" fill-rule="evenodd">
        <g id="Desktop----Dashboard" transform="translate(-655.000000, -330.000000)" fill="#1B1DC7" fill-rule="nonzero">
            <g id="Group-12" transform="translate(442.000000, 104.000000)">
                <g id="Group-15" transform="translate(74.000000, 118.000000)">
                    <g id="Download-Button" transform="translate(0.000000, 43.000000)">
                        <g id="score-details" transform="translate(81.000000, 0.000000)">
                            <g id="Group-32" transform="translate(0.000000, 61.000000)">
                                <g id="noun_Error_2190951" transform="translate(58.000000, 4.000000)">
                                    <path d="M5.000089,7.51865306 C5.29309734,7.51865306 5.51832795,7.27775465 5.52771256,6.99097084 C5.53605443,6.70522987 5.27954179,6.46328862 5.000089,6.46328862 C4.7206362,6.46328862 4.46308083,6.70418702 4.47246544,6.99097084 C4.47663638,7.12654137 4.52460215,7.2558548 4.61949098,7.35596842 C4.72272167,7.46338199 4.8541062,7.51031025 5.000089,7.51865306 C5.10331969,7.52386731 5.22323414,7.46859624 5.29518281,7.39663958 C5.36713147,7.32468291 5.42239639,7.20579798 5.41718272,7.10151296 C5.41196905,6.99409939 5.37651608,6.88147156 5.29518281,6.80638634 C5.21072133,6.72921543 5.11478977,6.69062997 5.000089,6.68437287 C4.99591806,6.68437287 4.99174712,6.68437287 4.98757619,6.68333002 C5.02407189,6.68854427 5.06161032,6.69375852 5.09810602,6.69792992 C5.08559321,6.69584422 5.0762086,6.69375852 5.06473853,6.68854427 C5.09810602,6.70210132 5.13147352,6.71670122 5.16484102,6.73025828 C5.15754188,6.72712973 5.15128547,6.72295833 5.14502907,6.71878692 C5.17318289,6.74068678 5.20133672,6.76258663 5.22949055,6.78448649 C5.22010594,6.77718654 5.2128068,6.76988659 5.20550766,6.76050093 C5.22740508,6.78865789 5.2493025,6.81681485 5.27119992,6.8449718 C5.26702898,6.8387147 5.26285804,6.8324576 5.25972984,6.82515765 C5.27328539,6.85852886 5.28788367,6.89190006 5.30143921,6.92527127 C5.29726828,6.91379992 5.29414007,6.90337142 5.2920546,6.89190006 C5.29726828,6.92839982 5.30248195,6.96594243 5.30665288,7.00244219 C5.30561015,6.98679944 5.30561015,6.99409939 5.30665288,6.97845663 C5.30143921,7.01495639 5.29622554,7.052499 5.2920546,7.08899876 C5.29414007,7.07648456 5.29622554,7.0670989 5.30143921,7.05562755 C5.28788367,7.08899876 5.27328539,7.12236997 5.25972984,7.15574117 C5.26285804,7.14844122 5.26702898,7.14218412 5.27119992,7.13592702 C5.2493025,7.16408398 5.22740508,7.19224093 5.20550766,7.22039789 C5.2128068,7.21101224 5.22010594,7.20371228 5.22949055,7.19641233 C5.20133672,7.21831219 5.17318289,7.24021204 5.14502907,7.2621119 C5.15128547,7.2579405 5.15754188,7.2537691 5.16484102,7.25064054 C5.13147352,7.2641976 5.09810602,7.2787975 5.06473853,7.29235455 C5.0762086,7.28818315 5.08663595,7.2850546 5.09810602,7.2829689 C5.06161032,7.28818315 5.02407189,7.2933974 4.98757619,7.29756881 C5.0032172,7.29652596 4.99591806,7.29652596 5.01155908,7.29756881 C4.97506338,7.29235455 4.93752494,7.2871403 4.90102924,7.2829689 C4.91354205,7.2850546 4.92292666,7.2871403 4.93439674,7.29235455 C4.90102924,7.2787975 4.86766174,7.2641976 4.83429424,7.25064054 C4.84159338,7.2537691 4.84784979,7.2579405 4.8541062,7.2621119 C4.82595237,7.24021204 4.79779854,7.21831219 4.76964472,7.19641233 C4.77902933,7.20371228 4.78632847,7.21101224 4.79362761,7.22039789 C4.77173019,7.19224093 4.74983276,7.16408398 4.72793534,7.13592702 C4.73210628,7.14218412 4.73627722,7.14844122 4.73940542,7.15574117 C4.72584988,7.12236997 4.7112516,7.08899876 4.69769605,7.05562755 C4.70186699,7.0670989 4.70499519,7.07752741 4.70708066,7.08899876 C4.70186699,7.052499 4.69665332,7.01495639 4.69248238,6.97845663 C4.69352511,6.99409939 4.69352511,6.98679944 4.69248238,7.00244219 C4.69769605,6.96594243 4.70290972,6.92839982 4.70708066,6.89190006 C4.70499519,6.90441427 4.70290972,6.91379992 4.69769605,6.92527127 C4.7112516,6.89190006 4.72584988,6.85852886 4.73940542,6.82515765 C4.73627722,6.8324576 4.73210628,6.8387147 4.72793534,6.8449718 C4.74983276,6.81681485 4.77173019,6.78865789 4.79362761,6.76050093 C4.78632847,6.76988659 4.77902933,6.77718654 4.76964472,6.78448649 C4.79779854,6.76258663 4.82595237,6.74068678 4.8541062,6.71878692 C4.84784979,6.72295833 4.84159338,6.72712973 4.83429424,6.73025828 C4.86766174,6.71670122 4.90102924,6.70210132 4.93439674,6.68854427 C4.92292666,6.69271567 4.91249932,6.69584422 4.90102924,6.69792992 C4.93752494,6.69271567 4.97506338,6.68750142 5.01155908,6.68333002 C5.00738814,6.68333002 5.0032172,6.68437287 4.99904626,6.68437287 C4.89164463,6.68437287 4.78007206,6.73130113 4.70395246,6.80638634 C4.63200379,6.87834301 4.57673887,6.99722794 4.58195254,7.10151296 C4.59342262,7.32781146 4.76651651,7.51865306 5.000089,7.51865306 Z" id="Path"></path>
                                    <path d="M4.58299528,2.70381352 C4.58299528,3.01249719 4.58299528,3.32118086 4.58299528,3.62882168 C4.58299528,4.12104699 4.58299528,4.6132723 4.58299528,5.10445476 C4.58299528,5.21812544 4.58299528,5.33179611 4.58299528,5.44442394 C4.58299528,5.66237964 4.77485839,5.87199253 5.000089,5.86156403 C5.22636234,5.85113553 5.41718272,5.67802239 5.41718272,5.44442394 C5.41718272,5.13574027 5.41718272,4.8270566 5.41718272,4.51941578 C5.41718272,4.02719047 5.41718272,3.53496516 5.41718272,3.0437827 C5.41718272,2.93011202 5.41718272,2.81644135 5.41718272,2.70381352 C5.41718272,2.48585782 5.22531961,2.27624493 5.000089,2.28667343 C4.77381565,2.29605908 4.58299528,2.46917222 4.58299528,2.70381352 L4.58299528,2.70381352 Z" id="Path"></path>
                                    <path d="M9.16581255,5.00121259 C9.16581255,5.20978264 9.15121427,5.41730983 9.12410318,5.62379418 C9.12931685,5.58729442 9.13453053,5.54975181 9.13870146,5.51325205 C9.08447928,5.90849229 8.97916311,6.29643258 8.82483844,6.66455871 C8.83839398,6.63118751 8.85299226,6.5978163 8.86654781,6.56444509 C8.71326587,6.92839982 8.51306088,7.27149755 8.27218925,7.58435262 C8.29408667,7.55619566 8.31598409,7.52803871 8.33788151,7.49988175 C8.09492442,7.81377967 7.81338616,8.09639209 7.49952313,8.33833334 C7.52767696,8.31643348 7.55583078,8.29453363 7.58398461,8.27263377 C7.27116432,8.51353218 6.92810473,8.71271657 6.56419046,8.86705841 C6.59755796,8.85350136 6.63092545,8.83890145 6.66429295,8.8253444 C6.29620774,8.97968623 5.90831058,9.08501411 5.51311428,9.13924232 C5.54960998,9.13402807 5.58714841,9.12881382 5.62364411,9.12464242 C5.21072133,9.17991348 4.7904994,9.17991348 4.37757662,9.12464242 C4.41407232,9.12985667 4.45161075,9.13507092 4.48810645,9.13924232 C4.09291015,9.08501411 3.70501299,8.97968623 3.33692778,8.8253444 C3.37029528,8.83890145 3.40366277,8.85350136 3.43703027,8.86705841 C3.073116,8.71375942 2.73005641,8.51353218 2.41723612,8.27263377 C2.44538995,8.29453363 2.47354377,8.31643348 2.5016976,8.33833334 C2.18783457,8.09534923 1.90525358,7.81377967 1.66333922,7.49988175 C1.68523664,7.52803871 1.70713406,7.55619566 1.72903148,7.58435262 C1.48815985,7.27149755 1.2889976,6.92839982 1.13467292,6.56444509 C1.14822847,6.5978163 1.16282675,6.63118751 1.1763823,6.66455871 C1.02205762,6.29643258 0.916741453,5.90849229 0.862519269,5.51325205 C0.86773294,5.54975181 0.872946612,5.58729442 0.877117549,5.62379418 C0.821852631,5.21082549 0.821852631,4.79055684 0.877117549,4.37758815 C0.871903877,4.41408791 0.866690206,4.45163051 0.862519269,4.48813027 C0.916741453,4.09289003 1.02205762,3.70494975 1.1763823,3.33682361 C1.16282675,3.37019482 1.14822847,3.40356603 1.13467292,3.43693724 C1.28795487,3.0729825 1.48815985,2.72988478 1.72903148,2.41702971 C1.70713406,2.44518666 1.68523664,2.47334362 1.66333922,2.50150058 C1.90629631,2.18760266 2.18783457,1.90499024 2.5016976,1.66304899 C2.47354377,1.68494884 2.44538995,1.7068487 2.41723612,1.72874855 C2.73005641,1.48785015 3.073116,1.28866575 3.43703027,1.13432392 C3.40366277,1.14788097 3.37029528,1.16248087 3.33692778,1.17603793 C3.70501299,1.02169609 4.09291015,0.916368219 4.48810645,0.862140007 C4.45161075,0.867354258 4.41407232,0.872568509 4.37757662,0.87673991 C4.7904994,0.821468848 5.21072133,0.821468848 5.62364411,0.87673991 C5.58714841,0.871525659 5.54960998,0.866311408 5.51311428,0.862140007 C5.90831058,0.916368219 6.29620774,1.02169609 6.66429295,1.17603793 C6.63092545,1.16248087 6.59755796,1.14788097 6.56419046,1.13432392 C6.92810473,1.2876229 7.27116432,1.48785015 7.58398461,1.72874855 C7.55583078,1.7068487 7.52767696,1.68494884 7.49952313,1.66304899 C7.81338616,1.90603309 8.09596716,2.18760266 8.33788151,2.50150058 C8.31598409,2.47334362 8.29408667,2.44518666 8.27218925,2.41702971 C8.51306088,2.72988478 8.71222313,3.0729825 8.86654781,3.43693724 C8.85299226,3.40356603 8.83839398,3.37019482 8.82483844,3.33682361 C8.97916311,3.70494975 9.08447928,4.09289003 9.13870146,4.48813027 C9.13348779,4.45163051 9.12827412,4.41408791 9.12410318,4.37758815 C9.15121427,4.58511534 9.16476982,4.79264254 9.16581255,5.00121259 C9.16581255,5.21916829 9.35767567,5.42878118 9.58290628,5.41835268 C9.80813689,5.40792418 10,5.23481104 10,5.00121259 C9.99895727,4.48604457 9.92179493,3.96461946 9.76225658,3.47447984 C9.6079319,2.99894014 9.38478676,2.54112888 9.09490662,2.13337444 C8.94266741,1.91854729 8.77582992,1.7131058 8.59335142,1.52330706 C8.41087292,1.33455116 8.2127534,1.16665228 8.00524927,1.00709619 C7.60692477,0.701541071 7.16271995,0.467942618 6.69140404,0.294829479 C6.20966079,0.117544939 5.69559278,0.0236884181 5.18361024,0.00387426362 C4.66432855,-0.0169827411 4.13461952,0.0466311232 3.63514979,0.188458755 C3.15653474,0.324029286 2.69043251,0.534685033 2.27438152,0.807911795 C1.860416,1.08009571 1.48086071,1.41067923 1.16595495,1.79340527 C1.0001602,1.99571821 0.844792785,2.20741681 0.709237326,2.43162961 C0.571596397,2.66001381 0.458981092,2.90091222 0.357835864,3.14702487 C0.161801814,3.62256458 0.0533574466,4.12938979 0.0137335429,4.64247211 C-0.0258903608,5.16076867 0.0210326831,5.69053659 0.144075331,6.19527611 C0.261904308,6.68228717 0.460023826,7.15782687 0.720707403,7.58643832 C0.976177308,8.00670696 1.29525401,8.3956901 1.66333922,8.72314508 C2.03559536,9.0537286 2.45268909,9.33529816 2.90732124,9.53969681 C3.15027834,9.64919608 3.3984491,9.74513831 3.65496174,9.81709497 C3.91981626,9.89113734 4.18988444,9.93702275 4.4620381,9.96935111 C4.98131978,10.0298364 5.50998607,9.99855091 6.02196862,9.89530874 C6.51622468,9.79519512 6.99796793,9.61269633 7.43800181,9.36658367 C7.86760834,9.12672812 8.26697558,8.81804445 8.60690697,8.46243252 C8.94892382,8.10473489 9.24506036,7.69280904 9.4650773,7.24855484 C9.69030791,6.79595784 9.8540172,6.31207533 9.93117954,5.81150722 C9.97288891,5.54245186 9.99895727,5.27235365 9.99895727,4.99912689 C9.99895727,4.78117119 9.80709415,4.57155829 9.58186354,4.58198679 C9.35663293,4.594501 9.16581255,4.76761414 9.16581255,5.00121259 Z" id="Path"></path>
                                </g>
                            </g>
                        </g>
                    </g>
                </g>
            </g>
        </g>
    </g>
</svg>