<?xml version="1.0" encoding="UTF-8"?>
<svg width="36px" height="50px" viewBox="0 0 36 50" version="1.1" xmlns="http://www.w3.org/2000/svg" xmlns:xlink="http://www.w3.org/1999/xlink">
    <title>5CC9156E-D5F4-4081-B591-13AA3EBC016C@1x</title>
    <defs>
        <path d="M4.29658762,30.554856 C3.59871445,30.559456 2.90927169,30.3997332 2.28241653,30.0881334 C1.12289932,29.5726106 0.284907757,28.5136174 0.038559265,27.2525085 C-0.139071017,25.9484951 0.303556834,24.6362911 1.23116057,23.7169509 L0.992640306,23.9412883 L1.02827519,23.8963332 C1.44014468,23.3705585 5.28269221,18.2984013 5.22416641,12.1411406 C5.1711619,5.92250761 9.70304685,0.0987084602 16.4081164,0 L18.1219286,0 L18.1300067,0.0214274503 C24.5638039,0.44078415 28.8532028,6.62236383 28.7758336,12.1411406 C28.6922253,18.2984013 32.5571679,23.3705585 32.9715089,23.8963332 L33.0073597,23.9412883 L32.7688394,23.7169509 C33.6964432,24.6362911 34.139071,25.9484951 33.9614407,27.2525085 C33.9194463,28.6001397 33.004223,29.7567329 31.7175835,30.0881334 C31.0579398,30.2444925 30.3797811,30.3049189 29.7034124,30.2676033 L4.29658762,30.554856 Z" id="path-1"></path>
    </defs>
    <g id="Credit-Alerts" stroke="none" stroke-width="1" fill="none" fill-rule="evenodd">
        <g id="Desktop---credit-alerts-page" transform="translate(-434.000000, -881.000000)">
            <g id="Group-6-Copy" transform="translate(411.000000, 857.000000)">
                <g id="Group-20" transform="translate(24.000000, 24.000000)">
                    <g id="Graphics-Notification-" transform="translate(0.000000, 1.000000)">
                        <path d="M20.6956522,4.35668031 C20.4686529,2.15909532 18.5520666,0 16.2494677,0 C13.7939079,0 11.826087,1.95886514 11.826087,4.36499323" id="Oval" stroke="#1A1875" stroke-width="0.6"></path>
                        <path d="M16.9999336,37.8299413 C19.8573089,37.8299413 21.31138,35.8981041 22.1736692,33.5798995 C22.2320158,33.4230389 11.7983687,33.4302657 11.8261979,33.5798995 C12.2573425,35.8981041 14.1425582,37.8299413 16.9999336,37.8299413 Z" id="Oval" fill="#272689"></path>
                        <ellipse id="Oval" fill="#C9C9F7" cx="17" cy="47.6" rx="17" ry="1.4"></ellipse>
                        <g id="Path-7" transform="translate(0.000000, 2.909995)">
                            <mask id="mask-2" fill="white">
                                <use xlink:href="#path-1"></use>
                            </mask>
                            <use id="Mask" fill="#F2F2FF" xlink:href="#path-1"></use>
                            <path d="M16.15,0.439806136 C15.8666667,2.19903068 15.0166667,3.81165318 13.6,5.27767363 C11.475,7.47670431 10.2,9.23592886 10.625,14.0737964 C10.9083333,17.2990414 9.775,20.5242864 7.225,23.7495313 C6.09166667,24.8823763 5.525,25.9085906 5.525,26.8281743 C5.525,27.747758 6.09166667,28.9205744 7.225,30.3466234 L2.125,30.3466234 C-0.708333333,28.5873988 -0.991666667,26.2417661 1.275,23.3097252 C4.675,18.9116639 4.25,11.8747657 4.25,10.9951534 C4.25,10.1155411 5.95,5.71747977 8.925,3.07864295 C10.9083333,1.31941841 13.3166667,0.439806136 16.15,0.439806136 Z" fill="#CECEFF" mask="url(#mask-2)"></path>
                        </g>
                        <path d="M4.29658762,33.4648515 C3.59871445,33.4694515 2.90927169,33.3097287 2.28241653,32.9981288 C1.12289932,32.4826061 0.284907757,31.4236129 0.038559265,30.162504 C-0.139071017,28.8584906 0.303556834,27.5462866 1.23116057,26.6269464 L0.992640306,26.8512838 L1.02827519,26.8063287 C1.44014468,26.280554 5.28269221,21.2083968 5.22416641,15.0511361 C5.1711619,8.8325031 9.70304685,3.00870395 16.4081164,2.90999549 L18.1219286,2.90999549 L18.1300067,2.93142294 C24.5638039,3.35077964 28.8532028,9.53235932 28.7758336,15.0511361 C28.6922253,21.2083968 32.5571679,26.280554 32.9715089,26.8063287 L33.0073597,26.8512838 L32.7688394,26.6269464 C33.6964432,27.5462866 34.139071,28.8584906 33.9614407,30.162504 C33.9194463,31.5101352 33.004223,32.6667284 31.7175835,32.9981288 C31.0579398,33.154488 30.3797811,33.2149144 29.7034124,33.1775988 L4.29658762,33.4648515 Z" id="Combined-Shape" stroke="#1A1875" stroke-width="0.6"></path>
                        <ellipse id="Oval" stroke="#FFFFFF" stroke-width="0.73728" fill="#7172EF" cx="25.8695652" cy="9.45748533" rx="5.17391304" ry="5.0924921"></ellipse>
                    </g>
                </g>
            </g>
        </g>
    </g>
</svg>