<?xml version="1.0" encoding="UTF-8"?>
<svg width="187px" height="109px" viewBox="0 0 187 109" version="1.1" xmlns="http://www.w3.org/2000/svg" xmlns:xlink="http://www.w3.org/1999/xlink">
    <title>2F82E3B9-A354-4FE5-BBF8-388DAD9EDD17@1x</title>
    <defs>
        <polygon id="path-1" points="0 0 63.3333333 0 63.3333333 53.9673204 0 53.9673204"></polygon>
    </defs>
    <g id="Final---Credit-Alerts-New-" stroke="none" stroke-width="1" fill="none" fill-rule="evenodd">
        <g id="Desktop---No-Credit-Alerts" transform="translate(-767.000000, -328.000000)">
            <g id="Group-13" transform="translate(753.000000, 328.000000)">
                <g id="Group-12" transform="translate(14.000000, 0.000000)">
                    <g id="Untitled-design-(3)" opacity="0.8" transform="translate(0.000000, 12.019560)">
                        <g id="Clipped" transform="translate(116.647136, 36.700473)">
                            <mask id="mask-2" fill="white">
                                <use xlink:href="#path-1"></use>
                            </mask>
                            <g id="Path"></g>
                            <path d="M7.00086778,28.991787 L38.3897567,6.16781823 L46.1523439,0.525937687 C56.9596356,15.3825991 63.3355033,33.6730698 63.3355033,53.4500754 L6.94010444,53.4500754 C6.94010444,46.0695581 4.55946167,39.2454037 0.523003333,33.6991488 L7.00086778,28.991787" id="Path" fill="#EEF1FF" fill-rule="nonzero" mask="url(#mask-2)"></path>
                        </g>
                        <path d="M17.2070311,37.2264106 L24.9717883,42.8682912 L56.3606772,65.6922599 L62.8363717,70.3996218 C58.8042533,75.9458767 56.4236111,82.770031 56.4236111,90.1505483 L0.0282122222,90.1505483 C0.0282122222,70.3735428 6.39974,52.083072 17.2070311,37.2264106" id="Path" fill="#C9CEE2" fill-rule="nonzero"></path>
                        <path d="M62.1918406,4.50307216 L65.15625,13.6309211 L77.1506078,50.5682833 L79.6267361,58.1900374 C72.8190106,60.4002807 66.9618056,64.7316622 62.8363717,70.3996218 L56.3606772,65.6922599 L24.9717883,42.8682912 L17.2070311,37.2264106 C28.2573789,22.0307154 43.9474828,10.4296542 62.1918406,4.50307216" id="Path" fill="#D8DBEC" fill-rule="nonzero"></path>
                        <path d="M90.0043406,0.117358336 C99.7113717,0.117358336 109.05599,1.65387916 117.81467,4.50307216 L114.850261,13.6309211 L102.858073,50.5682833 L100.384114,58.1900374 C97.1180556,57.1272951 93.6263022,56.5491977 90.0043406,56.5491977 C86.3802083,56.5491977 82.8949656,57.1272951 79.6267361,58.1900374 L77.1506078,50.5682833 L65.15625,13.6309211 L62.1918406,4.50307216 C70.9505211,1.65387916 80.2951389,0.117358336 90.0043406,0.117358336" id="Path" fill="#E1E4F4" fill-rule="nonzero"></path>
                        <path d="M102.858073,50.5682833 L114.850261,13.6309211 L117.81467,4.50307216 C136.061198,10.4296542 151.749132,22.0307154 162.799479,37.2264106 L155.036892,42.8682912 L123.648003,65.6922599 L117.170139,70.3996218 C113.049046,64.7316622 107.191841,60.4002807 100.384114,58.1900374 L102.858073,50.5682833" id="Path" fill="#E4E8F9" fill-rule="nonzero"></path>
                        <g id="Clipped" fill="#ECEFFE" fill-rule="nonzero">
                            <path d="M10.3190106,90.0657901 C10.3190106,46.0260921 45.9960939,10.325336 90.0065106,10.325336 C134.014757,10.325336 169.691841,46.0260921 169.691841,90.0657901 L169.691841,90.1505483 L180.010851,90.1505483 L180.010851,90.0657901 C180.010851,40.3233598 139.713542,0 90.0065106,0 C40.2973089,0 0,40.3233598 0,90.0657901 L0,90.1505483 L10.3190106,90.1505483 L10.3190106,90.0657901" id="Path"></path>
                        </g>
                        <path d="M56.4496528,90.0657901 C56.4496528,71.5188701 71.4713544,56.4861722 90.0065106,56.4861722 C108.539497,56.4861722 123.561198,71.5188701 123.561198,90.0657901 L123.561198,90.1505483 L133.967014,90.1505483 L133.967014,90.0657901 C133.967014,65.7704986 114.283854,46.0739044 90.0065106,46.0739044 C65.7269967,46.0739044 46.0438367,65.7704986 46.0438367,90.0657901 L46.0460072,90.1505483 L56.4496528,90.1505483 L56.4496528,90.0657901" id="Path" fill="#F2F4FF" fill-rule="nonzero"></path>
                        <path d="M90.0065106,93.6582506 C88.1857639,93.6582506 86.7100694,92.1825815 86.7100694,90.3635317 C86.7100694,88.5423088 88.1857639,87.0644666 90.0065106,87.0644666 C91.8250867,87.0644666 93.3007811,88.5423088 93.3007811,90.3635317 C93.3007811,92.1825815 91.8250867,93.6582506 90.0065106,93.6582506 Z M88.359375,84.421737 C85.2365456,85.3453882 83.4548611,88.6292407 84.3793406,91.7522689 C85.3038194,94.8774703 88.5828994,96.6617478 91.7057294,95.7359229 C94.8285589,94.8122716 154.053819,71.1189833 154.053819,71.1189833 C154.053819,71.1189833 91.482205,83.4980852 88.359375,84.421737" id="Shape" fill="#D4D8E8" fill-rule="nonzero" transform="translate(119.094505, 83.549712) rotate(1.000000) translate(-119.094505, -83.549712) "></path>
                    </g>
                    <g id="Group-11" transform="translate(121.980469, 0.000000)">
                        <circle id="Oval" fill="#DADEF0" cx="32.5" cy="32.5" r="32.5"></circle>
                        <g id="Illustrations-(1)" transform="translate(12.000000, 11.000000)">
                            <path d="M21,9.49019608 C23.6035429,9.49019608 25.7142857,7.36574187 25.7142857,4.74509804 C25.7142857,2.1244542 23.6035429,0 21,0 C18.3964571,0 16.2857143,2.1244542 16.2857143,4.74509804 C16.2857143,7.36574187 18.3964571,9.49019608 21,9.49019608 Z M20.8952381,7.38126362 C22.2837524,7.38126362 23.4095238,6.24821856 23.4095238,4.85054466 C23.4095238,3.45287076 22.2837524,2.31982571 20.8952381,2.31982571 C19.5067238,2.31982571 18.3809524,3.45287076 18.3809524,4.85054466 C18.3809524,6.24821856 19.5067238,7.38126362 20.8952381,7.38126362 Z" id="Shape" fill="#B5BCD6"></path>
                            <path d="M21,44 C26.2072256,44 30.4285714,39.7510636 30.4285714,34.5098039 C30.4285714,29.2685442 26.2072256,25.0196078 21,25.0196078 C15.7927744,25.0196078 11.5714286,29.2685442 11.5714286,34.5098039 C11.5714286,39.7510636 15.7927744,44 21,44 Z" id="Path" fill="#B5BCD6" fill-rule="nonzero"></path>
                            <path d="M35.8554934,27.4518738 L35.8554934,20.1643177 C35.8554934,16.1892088 34.2904078,12.377059 31.5047563,9.56629854 C28.718891,6.7555381 24.9407148,5.17647059 21.0009649,5.17647059 C17.0614287,5.17647059 13.2830388,6.7555381 10.4972804,9.56629854 C7.71152202,12.377059 6.1465005,16.1892088 6.1465005,20.1643177 L6.1465005,27.4518738 C6.14667148,29.1261032 5.67725264,30.7662616 4.792508,32.1825855 C3.90776336,33.5991251 2.64379053,34.7340388 1.14673258,35.4562174 C0.802640281,35.6213977 0.512192188,35.8821065 0.309177734,36.2075074 C0.106163279,36.5329082 -0.0010396376,36.909847 0,37.2943333 L0,37.3337954 C0,37.4726676 0.0266587236,37.610246 0.0791488279,37.7387675 C0.131638932,37.8670733 0.208707058,37.9837346 0.305950532,38.0820664 C0.403194007,38.1803983 0.518689335,38.2582444 0.645832507,38.3115075 C0.772997051,38.3647706 0.909287521,38.3921569 1.04692444,38.3921569 L40.9531887,38.3921569 C41.0908257,38.3921569 41.2269665,38.3647706 41.3541311,38.3115075 C41.4812956,38.2582444 41.5969192,38.1803983 41.6941627,38.0820664 C41.7914061,37.9837346 41.868346,37.8670733 41.9209216,37.7387675 C41.9734972,37.610246 42,37.4726676 42,37.3337954 L42,37.2943333 C42,36.9111409 41.8927103,36.5354959 41.6901019,36.2111732 C41.4874936,35.8870662 41.1981141,35.6272199 40.8553041,35.4620396 C39.3573272,34.7394298 38.0927345,33.6036536 37.2079258,32.1860358 C36.323117,30.7686336 35.8542111,29.1271814 35.8554934,27.4518738 Z" id="Path" fill="#FFFFFF" fill-rule="nonzero"></path>
                            <polygon id="Path" fill="#DADFF1" points="42 38.3921569 0 38.3921569 0 37.0980392 42 37.0980392"></polygon>
                            <path d="M33,21.9411765 C37.938295,21.9411765 41.9415584,17.9117479 41.9415584,12.9411765 C41.9415584,7.97060504 37.938295,3.94117647 33,3.94117647 C28.061705,3.94117647 24.0584416,7.97060504 24.0584416,12.9411765 C24.0584416,17.9117479 28.061705,21.9411765 33,21.9411765 Z" id="Path" stroke="#DADEF0" stroke-width="3" fill="#23336F" fill-rule="nonzero"></path>
                            <g id="0" transform="translate(30.502441, 9.075421)" fill="#FFFFFF" fill-rule="nonzero">
                                <path d="M4.99023438,3.68164062 C4.99023438,4.2578125 4.94547526,4.77213542 4.85595703,5.22460938 C4.7664388,5.67708333 4.62320964,6.06119792 4.42626953,6.37695312 C4.22932943,6.69270833 3.97135417,6.93359375 3.65234375,7.09960938 C3.33333333,7.265625 2.94596354,7.34863281 2.49023438,7.34863281 C1.91731771,7.34863281 1.4469401,7.20296224 1.07910156,6.91162109 C0.711263021,6.62027995 0.439453125,6.20035807 0.263671875,5.65185547 C0.087890625,5.10335286 0,4.44661458 0,3.68164062 C0,2.91015625 0.0805664063,2.25016276 0.241699219,1.70166016 C0.402832031,1.15315755 0.665690104,0.732421875 1.03027344,0.439453125 C1.39485677,0.146484375 1.88151042,0 2.49023438,0 C3.05989583,0 3.52945964,0.145670573 3.89892578,0.437011719 C4.26839193,0.728352865 4.54264323,1.14827474 4.72167969,1.69677734 C4.90071615,2.24527995 4.99023438,2.90690104 4.99023438,3.68164062 Z M1.49902344,3.68164062 C1.49902344,4.22526042 1.52913411,4.67854818 1.58935547,5.04150391 C1.64957682,5.40445964 1.75130208,5.67708333 1.89453125,5.859375 C2.03776042,6.04166667 2.23632813,6.1328125 2.49023438,6.1328125 C2.74088542,6.1328125 2.93863932,6.04248047 3.08349609,5.86181641 C3.22835286,5.68115234 3.33170573,5.40934245 3.39355469,5.04638672 C3.45540365,4.68343099 3.48632813,4.22851562 3.48632813,3.68164062 C3.48632813,3.13802083 3.45540365,2.68391927 3.39355469,2.31933594 C3.33170573,1.9547526 3.22835286,1.6805013 3.08349609,1.49658203 C2.93863932,1.31266276 2.74088542,1.22070312 2.49023438,1.22070312 C2.23632813,1.22070312 2.03776042,1.31266276 1.89453125,1.49658203 C1.75130208,1.6805013 1.64957682,1.9547526 1.58935547,2.31933594 C1.52913411,2.68391927 1.49902344,3.13802083 1.49902344,3.68164062 Z" id="Shape"></path>
                            </g>
                        </g>
                    </g>
                </g>
            </g>
        </g>
    </g>
</svg>