<svg width="333" height="396" viewBox="0 0 333 396" fill="none" xmlns="http://www.w3.org/2000/svg">
<circle cx="94.1122" cy="192.63" r="191.682" fill="#FFF4F4"/>
<path d="M-167.3 297.207C-167.869 297.362 -168.205 297.949 -168.05 298.517C-167.895 299.086 -167.309 299.422 -166.74 299.267L-167.3 297.207ZM36.3575 394.321L36.293 395.387L36.3575 394.321ZM284.405 249.127L284.607 248.079L284.405 249.127ZM657.583 222.725L657.704 223.786L657.583 222.725ZM908.529 350.016L908.673 351.073L908.529 350.016ZM1127.98 211.228L1128.21 210.186L1127.98 211.228ZM-159.685 297.638C-159.106 297.528 -158.725 296.97 -158.834 296.391C-158.944 295.811 -159.502 295.43 -160.081 295.54L-159.685 297.638ZM-145.365 294.088C-145.954 294.091 -146.43 294.572 -146.427 295.161C-146.423 295.751 -145.943 296.226 -145.353 296.223L-145.365 294.088ZM-131.045 297.555C-130.466 297.668 -129.906 297.289 -129.794 296.71C-129.682 296.132 -130.06 295.571 -130.639 295.459L-131.045 297.555ZM-116.447 299.623C-116.996 299.407 -117.616 299.677 -117.832 300.225C-118.047 300.774 -117.777 301.394 -117.229 301.61L-116.447 299.623ZM-104.237 307.909C-103.725 308.203 -103.073 308.026 -102.779 307.515C-102.486 307.003 -102.662 306.351 -103.174 306.057L-104.237 307.909ZM-90.8373 314.08C-91.3154 313.735 -91.9827 313.843 -92.3278 314.321C-92.673 314.799 -92.5652 315.466 -92.0871 315.811L-90.8373 314.08ZM-80.6119 324.742C-80.1577 325.118 -79.4847 325.055 -79.1087 324.601C-78.7326 324.147 -78.7959 323.474 -79.25 323.098L-80.6119 324.742ZM-68.1523 332.665C-68.593 332.273 -69.2678 332.313 -69.6594 332.754C-70.0511 333.194 -70.0114 333.869 -69.5706 334.261L-68.1523 332.665ZM-58.712 344.032C-58.2745 344.427 -57.5994 344.393 -57.2041 343.955C-56.8088 343.518 -56.8431 342.843 -57.2806 342.447L-58.712 344.032ZM-46.3887 352.168C-46.8325 351.78 -47.507 351.825 -47.8951 352.269C-48.2833 352.713 -48.2382 353.387 -47.7944 353.776L-46.3887 352.168ZM-36.5907 363.226C-36.1318 363.596 -35.4597 363.524 -35.0895 363.065C-34.7193 362.606 -34.7912 361.934 -35.2501 361.564L-36.5907 363.226ZM-23.6615 370.35C-24.1433 370.01 -24.8094 370.125 -25.1493 370.607C-25.4892 371.089 -25.3742 371.755 -24.8925 372.095L-23.6615 370.35ZM-12.527 380.049C-12.0167 380.344 -11.3636 380.17 -11.0683 379.66C-10.7729 379.149 -10.9473 378.496 -11.4576 378.201L-12.527 380.049ZM1.45667 384.749C0.915939 384.514 0.287018 384.762 0.0519409 385.303C-0.183136 385.843 0.0646362 386.472 0.605362 386.707L1.45667 384.749ZM14.4818 391.683C15.0491 391.844 15.6392 391.514 15.7998 390.947C15.9604 390.379 15.6308 389.789 15.0634 389.629L14.4818 391.683ZM29.2142 392.56C28.6297 392.482 28.0929 392.893 28.0153 393.478C27.9376 394.062 28.3485 394.599 28.9329 394.677L29.2142 392.56ZM43.3362 395.614C43.9258 395.617 44.4055 395.14 44.4076 394.551C44.4096 393.961 43.9333 393.481 43.3437 393.479L43.3362 395.614ZM56.9395 392.7C56.3541 392.771 55.937 393.303 56.0078 393.888C56.0786 394.474 56.6105 394.891 57.1958 394.82L56.9395 392.7ZM70.9139 392.216C71.4843 392.066 71.8256 391.483 71.6763 390.913C71.5269 390.342 70.9435 390.001 70.3731 390.15L70.9139 392.216ZM83.3028 385.79C82.7583 386.016 82.5004 386.641 82.7267 387.185C82.953 387.73 83.5778 387.988 84.1223 387.761L83.3028 385.79ZM96.607 381.579C97.1176 381.284 97.2927 380.631 96.9979 380.121C96.7032 379.61 96.0502 379.435 95.5396 379.73L96.607 381.579ZM106.972 372.213C106.498 372.563 106.398 373.232 106.748 373.706C107.099 374.18 107.767 374.281 108.241 373.93L106.972 372.213ZM119.016 365.14C119.456 364.748 119.494 364.073 119.101 363.633C118.709 363.193 118.034 363.154 117.594 363.547L119.016 365.14ZM127.493 354.029C127.082 354.451 127.091 355.127 127.514 355.538C127.937 355.949 128.613 355.94 129.024 355.517L127.493 354.029ZM138.419 345.312C138.808 344.869 138.764 344.195 138.321 343.806C137.878 343.417 137.203 343.461 136.814 343.904L138.419 345.312ZM145.714 333.388C145.34 333.844 145.406 334.517 145.862 334.891C146.318 335.265 146.991 335.199 147.365 334.743L145.714 333.388ZM156.042 323.97C156.409 323.509 156.332 322.837 155.87 322.47C155.409 322.103 154.737 322.18 154.37 322.642L156.042 323.97ZM162.956 311.813C162.589 312.274 162.665 312.946 163.127 313.313C163.588 313.68 164.26 313.604 164.627 313.142L162.956 311.813ZM173.29 302.412C173.665 301.957 173.6 301.284 173.145 300.909C172.69 300.534 172.017 300.599 171.642 301.054L173.29 302.412ZM180.632 290.504C180.241 290.945 180.281 291.62 180.723 292.011C181.164 292.402 181.839 292.361 182.23 291.92L180.632 290.504ZM191.617 281.881C192.033 281.463 192.031 280.787 191.612 280.372C191.194 279.956 190.518 279.958 190.103 280.376L191.617 281.881ZM200.276 270.9C199.828 271.283 199.775 271.956 200.158 272.405C200.541 272.853 201.215 272.906 201.663 272.523L200.276 270.9ZM212.511 264.189C212.999 263.857 213.124 263.193 212.792 262.706C212.46 262.219 211.796 262.093 211.309 262.425L212.511 264.189ZM223.323 255.345C222.795 255.608 222.581 256.249 222.844 256.776C223.107 257.304 223.748 257.518 224.276 257.255L223.323 255.345ZM236.904 252.122C237.466 251.943 237.777 251.343 237.598 250.781C237.42 250.219 236.82 249.908 236.258 250.087L236.904 252.122ZM249.843 246.951C249.26 247.037 248.857 247.58 248.943 248.163C249.03 248.747 249.572 249.15 250.156 249.063L249.843 246.951ZM263.793 248.104C264.382 248.106 264.862 247.63 264.864 247.041C264.866 246.451 264.39 245.971 263.8 245.969L263.793 248.104ZM277.637 246.941C277.053 246.862 276.516 247.273 276.438 247.857C276.359 248.442 276.77 248.979 277.354 249.057L277.637 246.941ZM291.411 251.717C291.985 251.852 292.56 251.496 292.695 250.922C292.831 250.348 292.475 249.774 291.901 249.638L291.411 251.717ZM306.207 253.686C305.648 253.499 305.043 253.802 304.857 254.361C304.671 254.921 304.973 255.525 305.533 255.712L306.207 253.686ZM319.19 261.002C319.728 261.241 320.359 260.999 320.599 260.46C320.839 259.921 320.596 259.29 320.058 259.051L319.19 261.002ZM333.314 265.763C332.802 265.471 332.15 265.649 331.857 266.161C331.565 266.673 331.743 267.325 332.255 267.617L333.314 265.763ZM344.614 275.491C345.095 275.831 345.761 275.716 346.101 275.234C346.441 274.752 346.326 274.086 345.844 273.746L344.614 275.491ZM357.596 282.814C357.144 282.435 356.471 282.495 356.092 282.947C355.714 283.399 355.773 284.072 356.225 284.451L357.596 282.814ZM367.168 294.245C367.596 294.65 368.271 294.632 368.677 294.204C369.083 293.776 369.065 293.101 368.637 292.695L367.168 294.245ZM379.187 303.086C378.772 302.667 378.096 302.663 377.677 303.077C377.258 303.491 377.253 304.167 377.668 304.587L379.187 303.086ZM388.03 315.104C388.446 315.522 389.122 315.523 389.54 315.107C389.958 314.691 389.959 314.015 389.543 313.597L388.03 315.104ZM400.14 323.804C399.703 323.407 399.028 323.44 398.632 323.876C398.235 324.313 398.268 324.988 398.704 325.384L400.14 323.804ZM410.17 334.841C410.646 335.19 411.314 335.087 411.662 334.611C412.011 334.135 411.907 333.467 411.432 333.119L410.17 334.841ZM423.814 340.805C423.288 340.538 422.646 340.747 422.378 341.273C422.111 341.798 422.321 342.441 422.846 342.708L423.814 340.805ZM436.753 348.154C437.321 348.314 437.911 347.983 438.07 347.415C438.229 346.847 437.898 346.258 437.331 346.099L436.753 348.154ZM451.652 348.65C451.064 348.601 450.548 349.038 450.499 349.625C450.45 350.213 450.887 350.729 451.474 350.778L451.652 348.65ZM465.82 350.87C466.408 350.833 466.855 350.326 466.818 349.737C466.781 349.149 466.274 348.702 465.686 348.739L465.82 350.87ZM478.951 347.005C478.373 347.122 477.999 347.685 478.115 348.263C478.232 348.841 478.795 349.215 479.373 349.098L478.951 347.005ZM492.531 345.446C493.086 345.248 493.376 344.637 493.177 344.081C492.979 343.526 492.369 343.236 491.813 343.435L492.531 345.446ZM504.057 338.074C503.534 338.347 503.331 338.992 503.604 339.515C503.876 340.038 504.521 340.24 505.044 339.968L504.057 338.074ZM516.733 332.91C517.219 332.576 517.342 331.912 517.008 331.426C516.674 330.94 516.009 330.817 515.523 331.151L516.733 332.91ZM526.182 322.998C525.731 323.377 525.673 324.051 526.052 324.502C526.432 324.953 527.106 325.011 527.557 324.631L526.182 322.998ZM537.622 315.479C538.044 315.068 538.053 314.392 537.642 313.969C537.231 313.547 536.555 313.538 536.132 313.949L537.622 315.479ZM545.541 304.297C545.139 304.728 545.163 305.404 545.594 305.806C546.026 306.208 546.701 306.184 547.103 305.753L545.541 304.297ZM556.202 295.695C556.592 295.254 556.551 294.579 556.109 294.188C555.667 293.798 554.993 293.839 554.602 294.281L556.202 295.695ZM563.515 284.106C563.127 284.55 563.172 285.225 563.616 285.613C564.06 286.001 564.735 285.955 565.122 285.511L563.515 284.106ZM574.072 275.38C574.466 274.942 574.43 274.267 573.991 273.873C573.553 273.478 572.878 273.514 572.484 273.953L574.072 275.38ZM581.712 264.004C581.303 264.429 581.316 265.104 581.74 265.514C582.165 265.923 582.841 265.91 583.25 265.486L581.712 264.004ZM592.847 256.035C593.28 255.634 593.305 254.959 592.904 254.526C592.503 254.094 591.828 254.069 591.396 254.47L592.847 256.035ZM601.716 245.597C601.253 245.962 601.174 246.634 601.54 247.096C601.905 247.559 602.577 247.638 603.039 247.272L601.716 245.597ZM613.962 239.479C614.459 239.162 614.605 238.503 614.289 238.005C613.972 237.508 613.312 237.361 612.815 237.678L613.962 239.479ZM624.739 231.042C624.207 231.297 623.982 231.934 624.237 232.466C624.491 232.998 625.128 233.223 625.66 232.969L624.739 231.042ZM638.074 228.012C638.635 227.83 638.943 227.228 638.761 226.667C638.58 226.106 637.978 225.799 637.417 225.98L638.074 228.012ZM650.675 222.661C650.095 222.766 649.709 223.321 649.814 223.902C649.919 224.482 650.474 224.867 651.054 224.763L650.675 222.661ZM664.379 223.211C664.967 223.177 665.417 222.673 665.383 222.084C665.35 221.496 664.845 221.046 664.257 221.079L664.379 223.211ZM677.699 221.119C677.11 221.081 676.602 221.527 676.564 222.115C676.525 222.703 676.971 223.212 677.559 223.25L677.699 221.119ZM690.703 224.995C691.281 225.112 691.845 224.738 691.961 224.16C692.078 223.582 691.705 223.019 691.127 222.902L690.703 224.995ZM704.14 226.467C703.583 226.273 702.974 226.568 702.781 227.125C702.587 227.682 702.882 228.29 703.438 228.484L704.14 226.467ZM715.636 233.625C716.164 233.887 716.805 233.672 717.067 233.144C717.329 232.616 717.113 231.975 716.585 231.713L715.636 233.625ZM728.311 238.38C727.815 238.061 727.154 238.206 726.836 238.702C726.518 239.199 726.663 239.859 727.159 240.177L728.311 238.38ZM737.997 247.842C738.464 248.203 739.134 248.117 739.495 247.65C739.855 247.183 739.769 246.513 739.302 246.153L737.997 247.842ZM749.659 254.747C749.217 254.356 748.543 254.397 748.152 254.839C747.762 255.281 747.803 255.955 748.245 256.346L749.659 254.747ZM758 265.417C758.423 265.827 759.099 265.817 759.51 265.394C759.921 264.971 759.911 264.295 759.488 263.885L758 265.417ZM768.967 273.381C768.555 272.958 767.88 272.949 767.457 273.36C767.034 273.771 767.025 274.447 767.436 274.87L768.967 273.381ZM776.69 284.515C777.096 284.943 777.772 284.96 778.199 284.553C778.626 284.147 778.643 283.471 778.237 283.044L776.69 284.515ZM787.464 292.729C787.056 292.304 786.38 292.29 785.955 292.698C785.529 293.106 785.515 293.782 785.923 294.208L787.464 292.729ZM795.293 303.796C795.71 304.213 796.386 304.213 796.803 303.796C797.219 303.379 797.219 302.703 796.802 302.286L795.293 303.796ZM806.398 311.55C805.966 311.149 805.29 311.175 804.89 311.607C804.489 312.04 804.514 312.715 804.947 313.116L806.398 311.55ZM815.042 321.989C815.496 322.365 816.169 322.302 816.545 321.848C816.921 321.394 816.858 320.721 816.404 320.345L815.042 321.989ZM826.943 328.448C826.462 328.107 825.796 328.221 825.455 328.702C825.115 329.183 825.228 329.85 825.71 330.19L826.943 328.448ZM837.054 337.461C837.565 337.754 838.217 337.577 838.511 337.066C838.804 336.554 838.627 335.902 838.116 335.609L837.054 337.461ZM849.957 341.555C849.416 341.322 848.787 341.571 848.554 342.113C848.32 342.654 848.57 343.282 849.111 343.516L849.957 341.555ZM861.805 348.084C862.371 348.249 862.964 347.922 863.128 347.356C863.292 346.79 862.966 346.198 862.399 346.034L861.805 348.084ZM875.317 348.885C874.734 348.796 874.189 349.195 874.099 349.778C874.01 350.361 874.409 350.906 874.992 350.996L875.317 348.885ZM888.452 352.207C889.041 352.224 889.532 351.76 889.549 351.17C889.566 350.581 889.102 350.09 888.512 350.073L888.452 352.207ZM901.712 349.693C901.125 349.742 900.688 350.258 900.737 350.846C900.787 351.433 901.303 351.87 901.891 351.82L901.712 349.693ZM915.5 349.934C916.078 349.819 916.453 349.257 916.339 348.678C916.224 348.1 915.662 347.724 915.083 347.839L915.5 349.934ZM928.108 344.396C927.548 344.582 927.246 345.186 927.432 345.746C927.618 346.305 928.223 346.608 928.782 346.422L928.108 344.396ZM941.542 341.268C942.073 341.014 942.299 340.377 942.045 339.845C941.791 339.313 941.154 339.087 940.621 339.341L941.542 341.268ZM952.44 332.824C951.94 333.138 951.789 333.797 952.103 334.296C952.416 334.796 953.075 334.947 953.574 334.633L952.44 332.824ZM964.819 326.748C965.285 326.386 965.369 325.716 965.008 325.25C964.646 324.784 963.975 324.7 963.51 325.061L964.819 326.748ZM973.845 316.312C973.41 316.71 973.381 317.385 973.779 317.82C974.177 318.255 974.853 318.284 975.287 317.886L973.845 316.312ZM985.076 308.298C985.484 307.873 985.471 307.197 985.046 306.788C984.62 306.38 983.945 306.393 983.536 306.818L985.076 308.298ZM992.708 296.798C992.32 297.241 992.364 297.916 992.807 298.304C993.251 298.693 993.925 298.649 994.314 298.206L992.708 296.798ZM1003.16 287.79C1003.54 287.336 1003.47 286.663 1003.02 286.287C1002.56 285.911 1001.89 285.975 1001.51 286.429L1003.16 287.79ZM1010.12 275.863C1009.75 276.322 1009.82 276.994 1010.28 277.365C1010.74 277.735 1011.41 277.663 1011.78 277.204L1010.12 275.863ZM1020.35 266.603C1020.72 266.146 1020.65 265.473 1020.19 265.101C1019.73 264.729 1019.06 264.798 1018.69 265.255L1020.35 266.603ZM1027.42 254.742C1027.04 255.19 1027.09 255.864 1027.54 256.247C1027.99 256.629 1028.66 256.575 1029.04 256.127L1027.42 254.742ZM1038.07 245.963C1038.47 245.531 1038.44 244.856 1038.01 244.454C1037.58 244.052 1036.9 244.076 1036.5 244.507L1038.07 245.963ZM1046.15 234.795C1045.72 235.198 1045.7 235.873 1046.1 236.304C1046.5 236.735 1047.18 236.758 1047.61 236.355L1046.15 234.795ZM1057.92 227.593C1058.39 227.235 1058.48 226.565 1058.13 226.096C1057.77 225.627 1057.1 225.537 1056.63 225.895L1057.92 227.593ZM1068.09 218.271C1067.58 218.562 1067.4 219.214 1067.69 219.726C1067.98 220.239 1068.63 220.418 1069.14 220.127L1068.09 218.271ZM1081.32 214.453C1081.87 214.25 1082.16 213.636 1081.95 213.083C1081.75 212.529 1081.14 212.245 1080.58 212.448L1081.32 214.453ZM1093.93 208.886C1093.35 208.986 1092.96 209.537 1093.06 210.119C1093.16 210.7 1093.71 211.09 1094.29 210.991L1093.93 208.886ZM1107.65 209.903C1108.24 209.906 1108.72 209.43 1108.73 208.84C1108.73 208.251 1108.25 207.771 1107.66 207.768L1107.65 209.903ZM1121.38 208.891C1120.79 208.8 1120.25 209.199 1120.16 209.781C1120.07 210.364 1120.47 210.91 1121.05 211L1121.38 208.891ZM1135.4 213.457C1135.99 213.51 1136.51 213.076 1136.56 212.489C1136.61 211.902 1136.18 211.383 1135.59 211.331L1135.4 213.457ZM1150.5 210.818C1149.92 210.907 1149.52 211.451 1149.61 212.034C1149.69 212.617 1150.24 213.018 1150.82 212.929L1150.5 210.818ZM1165.73 209.085C1166.29 208.886 1166.57 208.274 1166.37 207.719C1166.17 207.164 1165.56 206.876 1165.01 207.076L1165.73 209.085ZM1178.72 200.901C1178.2 201.18 1178.01 201.828 1178.29 202.347C1178.57 202.866 1179.22 203.06 1179.74 202.781L1178.72 200.901ZM1192.78 194.722C1193.26 194.385 1193.38 193.72 1193.04 193.236C1192.71 192.752 1192.04 192.633 1191.56 192.97L1192.78 194.722ZM1203.54 183.753C1203.09 184.132 1203.04 184.806 1203.42 185.257C1203.79 185.708 1204.47 185.766 1204.92 185.386L1203.54 183.753ZM1216.22 175.086C1216.64 174.672 1216.65 173.996 1216.24 173.576C1215.82 173.156 1215.15 173.15 1214.73 173.563L1216.22 175.086ZM1225.11 162.572C1224.72 163.015 1224.77 163.69 1225.21 164.078C1225.66 164.467 1226.33 164.422 1226.72 163.978L1225.11 162.572ZM-166.74 299.267C-164.344 298.615 -161.993 298.074 -159.685 297.638L-160.081 295.54C-162.447 295.986 -164.852 296.54 -167.3 297.207L-166.74 299.267ZM-145.353 296.223C-140.405 296.196 -135.647 296.664 -131.045 297.555L-130.639 295.459C-135.375 294.541 -140.273 294.06 -145.365 294.088L-145.353 296.223ZM-117.229 301.61C-112.784 303.358 -108.465 305.482 -104.237 307.909L-103.174 306.057C-107.479 303.586 -111.892 301.414 -116.447 299.623L-117.229 301.61ZM-92.0871 315.811C-88.218 318.605 -84.4031 321.603 -80.6119 324.742L-79.25 323.098C-83.0682 319.936 -86.9211 316.907 -90.8373 314.08L-92.0871 315.811ZM-69.5706 334.261C-65.9615 337.468 -62.3531 340.742 -58.712 344.032L-57.2806 342.447C-60.917 339.162 -64.5347 335.88 -68.1523 332.665L-69.5706 334.261ZM-47.7944 353.776C-44.1218 356.988 -40.3952 360.157 -36.5907 363.226L-35.2501 361.564C-39.0264 358.518 -42.7306 355.368 -46.3887 352.168L-47.7944 353.776ZM-24.8925 372.095C-20.8847 374.922 -16.7712 377.593 -12.527 380.049L-11.4576 378.201C-15.6389 375.781 -19.6983 373.146 -23.6615 370.35L-24.8925 372.095ZM0.605362 386.707C5.07133 388.649 9.68878 390.326 14.4818 391.683L15.0634 389.629C10.3686 388.299 5.84114 386.655 1.45667 384.749L0.605362 386.707ZM28.9329 394.677C31.3427 394.997 33.7952 395.235 36.293 395.387L36.4221 393.255C33.9753 393.107 31.5735 392.873 29.2142 392.56L28.9329 394.677ZM36.293 395.387C38.6835 395.531 41.0307 395.606 43.3362 395.614L43.3437 393.479C41.0795 393.471 38.7729 393.398 36.4221 393.255L36.293 395.387ZM57.1958 394.82C61.9538 394.245 66.5204 393.366 70.9139 392.216L70.3731 390.15C66.073 391.276 61.6015 392.136 56.9395 392.7L57.1958 394.82ZM84.1223 387.761C88.4551 385.96 92.609 383.887 96.607 381.579L95.5396 379.73C91.6168 381.994 87.5454 384.026 83.3028 385.79L84.1223 387.761ZM108.241 373.93C111.959 371.183 115.543 368.239 119.016 365.14L117.594 363.547C114.164 366.608 110.632 369.509 106.972 372.213L108.241 373.93ZM129.024 355.517C132.232 352.217 135.357 348.803 138.419 345.312L136.814 343.904C133.771 347.372 130.671 350.759 127.493 354.029L129.024 355.517ZM147.365 334.743C150.289 331.181 153.175 327.578 156.042 323.97L154.37 322.642C151.506 326.246 148.628 329.839 145.714 333.388L147.365 334.743ZM164.627 313.142C167.505 309.524 170.385 305.936 173.29 302.412L171.642 301.054C168.726 304.592 165.837 308.19 162.956 311.813L164.627 313.142ZM182.23 291.92C185.303 288.453 188.424 285.094 191.617 281.881L190.103 280.376C186.876 283.623 183.727 287.012 180.632 290.504L182.23 291.92ZM201.663 272.523C205.168 269.528 208.776 266.736 212.511 264.189L211.309 262.425C207.501 265.021 203.833 267.861 200.276 270.9L201.663 272.523ZM224.276 257.255C228.318 255.239 232.518 253.513 236.904 252.122L236.258 250.087C231.761 251.513 227.459 253.282 223.323 255.345L224.276 257.255ZM250.156 249.063C254.514 248.418 259.053 248.087 263.793 248.104L263.8 245.969C258.955 245.952 254.31 246.29 249.843 246.951L250.156 249.063ZM277.354 249.057C279.594 249.356 281.877 249.728 284.203 250.176L284.607 248.079C282.241 247.624 279.919 247.245 277.637 246.941L277.354 249.057ZM284.203 250.176C286.665 250.649 289.067 251.164 291.411 251.717L291.901 249.638C289.527 249.079 287.097 248.558 284.607 248.079L284.203 250.176ZM305.533 255.712C310.34 257.312 314.882 259.085 319.19 261.002L320.058 259.051C315.687 257.106 311.08 255.308 306.207 253.686L305.533 255.712ZM332.255 267.617C336.617 270.107 340.721 272.745 344.614 275.491L345.844 273.746C341.901 270.964 337.739 268.289 333.314 265.763L332.255 267.617ZM356.225 284.451C360.05 287.654 363.678 290.936 367.168 294.245L368.637 292.695C365.123 289.364 361.462 286.051 357.596 282.814L356.225 284.451ZM377.668 304.587C381.18 308.142 384.623 311.683 388.03 315.104L389.543 313.597C386.135 310.176 382.72 306.663 379.187 303.086L377.668 304.587ZM398.704 325.384C402.423 328.762 406.215 331.944 410.17 334.841L411.432 333.119C407.552 330.277 403.818 327.146 400.14 323.804L398.704 325.384ZM422.846 342.708C427.201 344.922 431.808 346.766 436.753 348.154L437.331 346.099C432.528 344.75 428.052 342.959 423.814 340.805L422.846 342.708ZM451.474 350.778C453.89 350.979 456.382 351.083 458.956 351.083V348.948C456.439 348.948 454.007 348.846 451.652 348.65L451.474 350.778ZM458.956 351.083C461.291 351.083 463.578 351.011 465.82 350.87L465.686 348.739C463.489 348.877 461.247 348.948 458.956 348.948V351.083ZM479.373 349.098C483.954 348.173 488.331 346.943 492.531 345.446L491.813 343.435C487.708 344.898 483.429 346.101 478.951 347.005L479.373 349.098ZM505.044 339.968C509.101 337.852 512.987 335.484 516.733 332.91L515.523 331.151C511.842 333.68 508.03 336.002 504.057 338.074L505.044 339.968ZM527.557 324.631C531.01 321.725 534.355 318.659 537.622 315.479L536.132 313.949C532.896 317.1 529.589 320.129 526.182 322.998L527.557 324.631ZM547.103 305.753C550.174 302.458 553.199 299.092 556.202 295.695L554.602 294.281C551.606 297.67 548.595 301.021 545.541 304.297L547.103 305.753ZM565.122 285.511C568.091 282.114 571.064 278.725 574.072 275.38L572.484 273.953C569.466 277.309 566.484 280.708 563.515 284.106L565.122 285.511ZM583.25 265.486C586.381 262.237 589.571 259.074 592.847 256.035L591.396 254.47C588.084 257.54 584.865 260.732 581.712 264.004L583.25 265.486ZM603.039 247.272C606.555 244.494 610.187 241.883 613.962 239.479L612.815 237.678C608.973 240.125 605.282 242.778 601.716 245.597L603.039 247.272ZM625.66 232.969C629.627 231.073 633.757 229.408 638.074 228.012L637.417 225.98C633.006 227.407 628.788 229.107 624.739 231.042L625.66 232.969ZM651.054 224.763C653.224 224.371 655.44 224.044 657.704 223.786L657.462 221.664C655.152 221.928 652.891 222.262 650.675 222.661L651.054 224.763ZM657.704 223.786C659.967 223.527 662.192 223.337 664.379 223.211L664.257 221.079C662.029 221.207 659.764 221.401 657.462 221.664L657.704 223.786ZM677.559 223.25C682.1 223.548 686.476 224.139 690.703 224.995L691.127 222.902C686.805 222.028 682.335 221.423 677.699 221.119L677.559 223.25ZM703.438 228.484C707.641 229.945 711.7 231.671 715.636 233.625L716.585 231.713C712.574 229.721 708.433 227.96 704.14 226.467L703.438 228.484ZM727.159 240.177C730.866 242.552 734.472 245.119 737.997 247.842L739.302 246.153C735.733 243.396 732.077 240.792 728.311 238.38L727.159 240.177ZM748.245 256.346C751.547 259.267 754.793 262.302 758 265.417L759.488 263.885C756.261 260.752 752.991 257.694 749.659 254.747L748.245 256.346ZM767.436 274.87C770.533 278.052 773.611 281.278 776.69 284.515L778.237 283.044C775.157 279.805 772.072 276.572 768.967 273.381L767.436 274.87ZM785.923 294.208C789.021 297.436 792.138 300.643 795.293 303.796L796.802 302.286C793.662 299.147 790.556 295.951 787.464 292.729L785.923 294.208ZM804.947 313.116C808.247 316.175 811.605 319.144 815.042 321.989L816.404 320.345C813.003 317.529 809.674 314.586 806.398 311.55L804.947 313.116ZM825.71 330.19C829.382 332.79 833.157 335.226 837.054 337.461L838.116 335.609C834.284 333.411 830.566 331.012 826.943 328.448L825.71 330.19ZM849.111 343.516C853.199 345.28 857.424 346.815 861.805 348.084L862.399 346.034C858.108 344.79 853.967 343.286 849.957 341.555L849.111 343.516ZM874.992 350.996C879.327 351.663 883.809 352.075 888.452 352.207L888.512 350.073C883.957 349.944 879.564 349.539 875.317 348.885L874.992 350.996ZM901.891 351.82C904.116 351.634 906.376 351.386 908.673 351.073L908.385 348.958C906.124 349.265 903.9 349.509 901.712 349.693L901.891 351.82ZM908.673 351.073C910.992 350.758 913.267 350.377 915.5 349.934L915.083 347.839C912.894 348.274 910.662 348.648 908.385 348.958L908.673 351.073ZM928.782 346.422C933.208 344.948 937.455 343.219 941.542 341.268L940.621 339.341C936.612 341.256 932.447 342.951 928.108 344.396L928.782 346.422ZM953.574 334.633C957.465 332.192 961.207 329.552 964.819 326.748L963.51 325.061C959.948 327.825 956.266 330.424 952.44 332.824L953.574 334.633ZM975.287 317.886C978.65 314.804 981.905 311.596 985.076 308.298L983.536 306.818C980.393 310.089 977.169 313.265 973.845 316.312L975.287 317.886ZM994.314 298.206C997.319 294.778 1000.26 291.294 1003.16 287.79L1001.51 286.429C998.625 289.922 995.697 293.39 992.708 296.798L994.314 298.206ZM1011.78 277.204C1014.65 273.643 1017.5 270.1 1020.35 266.603L1018.69 265.255C1015.84 268.757 1012.99 272.307 1010.12 275.863L1011.78 277.204ZM1029.04 256.127C1032.02 252.632 1035.02 249.231 1038.07 245.963L1036.5 244.507C1033.43 247.804 1030.41 251.229 1027.42 254.742L1029.04 256.127ZM1047.61 236.355C1050.96 233.222 1054.39 230.285 1057.92 227.593L1056.63 225.895C1053.03 228.637 1049.55 231.621 1046.15 234.795L1047.61 236.355ZM1069.14 220.127C1073.05 217.908 1077.1 215.999 1081.32 214.453L1080.58 212.448C1076.24 214.038 1072.09 215.998 1068.09 218.271L1069.14 220.127ZM1094.29 210.991C1098.55 210.26 1103 209.883 1107.65 209.903L1107.66 207.768C1102.89 207.748 1098.32 208.134 1093.93 208.886L1094.29 210.991ZM1121.05 211C1123.24 211.341 1125.47 211.763 1127.75 212.27L1128.21 210.186C1125.89 209.669 1123.61 209.238 1121.38 208.891L1121.05 211ZM1127.75 212.27C1130.31 212.84 1132.86 213.231 1135.4 213.457L1135.59 211.331C1133.14 211.112 1130.68 210.735 1128.21 210.186L1127.75 212.27ZM1150.82 212.929C1155.91 212.154 1160.89 210.826 1165.73 209.085L1165.01 207.076C1160.28 208.776 1155.43 210.067 1150.5 210.818L1150.82 212.929ZM1179.74 202.781C1184.29 200.328 1188.65 197.594 1192.78 194.722L1191.56 192.97C1187.49 195.802 1183.2 198.492 1178.72 200.901L1179.74 202.781ZM1204.92 185.386C1209.1 181.866 1212.9 178.357 1216.22 175.086L1214.73 173.563C1211.43 176.801 1207.68 180.273 1203.54 183.753L1204.92 185.386ZM1226.72 163.978C1228.3 162.175 1229.52 160.707 1230.35 159.688C1230.77 159.179 1231.08 158.781 1231.3 158.511C1231.4 158.375 1231.48 158.271 1231.54 158.201C1231.57 158.166 1231.59 158.139 1231.6 158.12C1231.61 158.111 1231.61 158.104 1231.62 158.099C1231.62 158.097 1231.62 158.095 1231.62 158.094C1231.62 158.093 1231.62 158.093 1231.62 158.092C1231.62 158.092 1231.62 158.092 1231.62 158.092C1231.62 158.092 1231.62 158.092 1231.62 158.092C1231.62 158.092 1231.62 158.091 1230.78 157.442C1229.93 156.793 1229.93 156.793 1229.93 156.793C1229.93 156.793 1229.93 156.792 1229.93 156.793C1229.93 156.793 1229.93 156.793 1229.93 156.793C1229.93 156.793 1229.93 156.793 1229.93 156.793C1229.93 156.794 1229.93 156.796 1229.93 156.798C1229.92 156.802 1229.92 156.808 1229.91 156.816C1229.9 156.832 1229.88 156.857 1229.85 156.89C1229.8 156.957 1229.72 157.056 1229.62 157.188C1229.41 157.45 1229.1 157.839 1228.7 158.339C1227.88 159.34 1226.67 160.789 1225.11 162.572L1226.72 163.978Z" fill="#1B1DC7" fill-opacity="0.21"/>
</svg>
