<svg width="180" height="191" viewBox="0 0 180 191" fill="none" xmlns="http://www.w3.org/2000/svg">
<g clip-path="url(#clip0_45_3043)">
<path d="M75.9654 125.986C75.8894 125.991 75.8137 126 75.7388 126.014C74.6649 126.069 71.2412 125.546 71.2412 125.546C71.2412 125.546 72.3151 130.09 72.9123 130.269C74.5232 130.743 75.8699 132.158 77.2198 132.484C77.4378 132.537 77.6644 132.545 77.8857 132.508C78.107 132.471 78.3186 132.39 78.5075 132.269C78.6964 132.148 78.8588 131.99 78.9849 131.804C79.111 131.619 79.1981 131.409 79.2409 131.189C79.2699 131.092 79.2894 130.991 79.2989 130.89C79.3311 130.574 79.2706 130.256 79.125 129.974L77.5291 126.877C77.3817 126.594 77.1559 126.36 76.8785 126.202C76.6012 126.044 76.2842 125.969 75.9654 125.986Z" fill="#E7B2B6"/>
<path d="M70.4698 124.875L73.2513 125.454L73.8162 130.665L70.3785 130.649L70.4698 124.875Z" fill="#D0D6EC"/>
<path d="M86.012 185.553L87.1138 189.749H98.5448C98.5448 189.749 95.687 184.21 86.012 185.553Z" fill="#221E50"/>
<path d="M37.0505 187.388C37.0505 187.388 36.434 187.935 34.9756 187.935C33.3228 187.935 32.9019 187.388 32.9019 187.388V164.188H37.0505V187.388Z" fill="#B9C0D6"/>
<path d="M59.8756 154.762C59.8756 154.777 59.8756 154.796 59.8681 154.814C59.7348 155.784 59.536 156.745 59.2732 157.688C58.7985 159.395 58.1767 160.787 57.5968 161.767C55.3501 165.554 51.0898 169.77 40.8735 171.146C40.3784 171.211 39.8683 171.273 39.3442 171.326C38.3905 171.423 37.3882 171.494 36.3372 171.541L36.1363 171.548C36.0698 171.548 36.0032 171.548 35.9344 171.555C32.9629 171.481 29.638 170.937 25.9297 170.052C18.3176 168.246 13.3582 164.531 10.2234 160.01C9.95706 159.626 9.70468 159.236 9.46305 158.842C8.84383 157.825 8.29866 156.765 7.83174 155.669C6.08982 151.602 5.42291 147.219 5.36169 143.154C5.41969 139.29 6.01787 135.813 6.68478 133.337C7.18479 131.42 8.00108 129.6 9.10006 127.951C9.38662 127.526 9.69564 127.115 10.0258 126.722C11.0776 125.451 12.3511 124.38 13.7846 123.562C17.4209 121.492 29.3802 119.427 39.5106 124.771C58.152 134.607 60.9592 146.757 59.8756 154.762Z" fill="#080F25"/>
<path d="M47.6379 161.921H49.6727V204.744H47.6379V161.921Z" fill="#455A64"/>
<path d="M42.2299 95.5188L40.0464 93.3441L36.546 104.388L29.4857 92.8981L27.5655 93.6499L28.4152 111.914L26.2699 139.799L32.077 139.51L42.8841 138.015L42.0345 126.492C42.0345 126.492 43.4279 110.606 43.4279 110.394C43.4279 110.181 42.2299 95.5188 42.2299 95.5188Z" fill="white"/>
<path d="M56.7972 161.921H58.832V204.744H56.7972V161.921Z" fill="#455A64"/>
<path d="M60.9513 189.364L60.552 199.227C60.552 199.227 70.4415 202.947 70.5435 204.778L51.3931 204.685V189.296L60.9513 189.364Z" fill="#C75A21"/>
<path d="M19.7583 136.376C19.7583 136.376 16.4915 145.843 17.6087 149.649C18.9426 154.198 23.3182 155.171 25.7651 155.77C28.0845 156.318 43.4583 158.174 43.4583 158.174L50.149 162.74V195.871L62.8338 195.752L64.4013 159.678C64.4013 159.678 64.4608 154.126 62.8805 151.37C60.4124 147.063 34.5926 138.228 32.9018 138.024L19.7583 136.376Z" fill="#00A0C8"/>
<path d="M47.3742 178.323L41.9027 186.542C41.9027 186.542 48.4192 194.859 47.5569 196.494L31.2443 186.462L39.2392 173.294L47.3742 178.323Z" fill="#C75A21"/>
<path d="M37.2939 182.734C37.108 182.684 36.9105 182.706 36.7394 182.794C36.5684 182.882 36.436 183.03 36.3678 183.209C36.3117 183.394 36.3284 183.593 36.4145 183.765C36.5007 183.937 36.6497 184.07 36.8309 184.135C37.0289 184.181 37.2368 184.155 37.4168 184.06C37.5969 183.966 37.7371 183.81 37.8122 183.621C37.8503 183.424 37.81 183.219 37.6998 183.05C37.5896 182.881 37.4182 182.762 37.2217 182.717" fill="white"/>
<path d="M31.2444 186.446L31.9581 185.248L47.4636 195.289C47.6404 195.661 47.6693 196.086 47.5443 196.479L31.2444 186.446Z" fill="#263238"/>
<path d="M42.2215 186.619C42.1705 186.7 41.7499 186.488 41.1977 186.505C40.6454 186.522 40.2334 186.725 40.1824 186.649C40.1314 186.573 40.5265 186.186 41.1934 186.178C41.8604 186.169 42.2809 186.56 42.2215 186.619Z" fill="#263238"/>
<path d="M43.4957 188.383C43.4659 188.468 43.0369 188.383 42.5611 188.561C42.0853 188.74 41.7837 189.041 41.7115 188.986C41.6392 188.931 41.8601 188.451 42.4591 188.251C43.0581 188.052 43.5424 188.302 43.4957 188.383Z" fill="#263238"/>
<path d="M43.2073 191.025C43.1266 190.999 43.2583 190.532 43.7341 190.222C44.2098 189.912 44.6856 189.967 44.6771 190.056C44.6686 190.145 44.2948 190.234 43.9125 190.481C43.5302 190.727 43.2923 191.067 43.2073 191.025Z" fill="#263238"/>
<path d="M43.2585 184.602C43.182 184.653 42.8846 184.317 42.4089 184.071C41.9331 183.825 41.504 183.752 41.504 183.646C41.504 183.54 42.018 183.476 42.566 183.774C43.114 184.071 43.3392 184.572 43.2585 184.602Z" fill="#263238"/>
<path d="M43.3505 70.2992C43.0942 69.4685 42.6747 68.6973 42.1167 68.0307C41.5587 67.3641 40.8733 66.8155 40.1007 66.4169C38.3529 65.5982 36.3737 65.4163 34.506 65.903C32.6591 66.3891 30.9041 67.1739 29.3106 68.2264C28.3695 68.7431 27.5349 69.4335 26.8509 70.2609C25.6785 71.8198 24.5527 74.3641 24.489 76.3137C24.4423 77.8938 25.1559 81.8355 25.8611 83.2286C26.2375 83.8113 26.7766 84.2706 27.4117 84.5496C28.1758 85.9468 29.1827 87.1967 30.3853 88.2407L31.3921 85.0381L43.3505 70.2992Z" fill="#263238"/>
<path d="M24.1243 89.8268C23.3554 86.981 23.6995 83.481 23.8142 81.0472C23.9289 78.6134 23.3894 77.5642 25.2331 73.4866C26.4195 70.8731 28.4682 68.7467 31.0359 67.4636L39.77 68.4151C39.7063 68.2622 39.6425 68.1092 39.5788 67.9903L42.7011 68.4575C43.1973 68.3893 43.7024 68.4748 44.1483 68.7027C44.5942 68.9306 44.9595 69.2898 45.1948 69.7318C45.3846 69.9444 45.5473 70.1798 45.6791 70.4326C46.0463 71.2591 46.2759 72.1401 46.3587 73.0406C46.4801 73.9246 46.5426 74.8158 46.5457 75.7081C46.5754 76.0606 46.5966 76.3707 46.6179 76.6128C46.6413 77.0004 46.6098 77.3893 46.5244 77.7681C46.3927 81.5187 45.9127 85.6515 46.3715 88.7692C46.449 89.0901 46.4312 89.4266 46.3205 89.7377C46.134 90.0388 45.851 90.2678 45.5176 90.3875C41.6434 92.2267 38.9034 90.0222 35.0758 88.0896C34.3324 87.7158 33.572 87.2401 32.7352 87.2911C31.8983 87.342 31.1251 89.6357 30.318 89.9883" fill="#263238"/>
<path d="M27.8633 76.1423C27.8861 75.0076 28.2722 73.9101 28.9649 73.011C29.6577 72.1119 30.6206 71.4587 31.7121 71.1472L38.8106 69.1212C41.8905 68.6964 44.0612 72.4385 44.3543 75.5349C44.6772 78.9712 44.9193 82.6028 44.588 85.1853C43.9295 90.38 39.9873 91.1531 39.9873 91.1531C39.9873 91.1531 40.0553 93.6124 40.0978 95.1203L36.6526 111.686L29.5795 93.9012L27.8463 76.2018C27.8421 76.1168 27.8591 76.2612 27.8633 76.1423Z" fill="#FFBE9D"/>
<path d="M43.4569 79.4842C43.4628 79.6568 43.4015 79.8251 43.2858 79.9534C43.1701 80.0818 43.0091 80.1602 42.8367 80.1722C42.7525 80.1816 42.6673 80.174 42.5861 80.1499C42.5049 80.1257 42.4294 80.0855 42.364 80.0316C42.2987 79.9778 42.2448 79.9113 42.2056 79.8362C42.1663 79.7612 42.1426 79.679 42.1357 79.5946C42.1276 79.422 42.1876 79.2532 42.3028 79.1244C42.4181 78.9957 42.5793 78.9174 42.7517 78.9065C42.8361 78.8971 42.9215 78.9047 43.003 78.9288C43.0844 78.9529 43.1602 78.9931 43.2259 79.0469C43.2916 79.1007 43.3459 79.1671 43.3856 79.2422C43.4252 79.3173 43.4495 79.3996 43.4569 79.4842Z" fill="#263238"/>
<path d="M43.6357 77.5815C43.5549 77.6707 43.0409 77.3139 42.3273 77.3352C41.6136 77.3564 41.1038 77.7344 41.0231 77.6495C40.9424 77.5645 41.0613 77.4541 41.2865 77.28C41.5876 77.0551 41.9516 76.9304 42.3273 76.9232C42.6978 76.9074 43.0633 77.0133 43.368 77.2247C43.5932 77.3861 43.6739 77.5603 43.6357 77.5815Z" fill="#263238"/>
<path d="M37.2082 79.4924C37.2141 79.6651 37.1528 79.8334 37.0371 79.9617C36.9214 80.0901 36.7604 80.1685 36.588 80.1805C36.5039 80.1893 36.4189 80.1813 36.338 80.1569C36.2571 80.1325 36.1818 80.0923 36.1165 80.0385C36.0513 79.9847 35.9974 79.9185 35.958 79.8437C35.9186 79.769 35.8945 79.6871 35.8871 79.6029C35.8811 79.4309 35.9419 79.2632 36.0567 79.135C36.1715 79.0067 36.3314 78.9278 36.5031 78.9148C36.5876 78.9048 36.6732 78.9119 36.7549 78.9358C36.8366 78.9597 36.9126 78.9998 36.9785 79.0537C37.0443 79.1076 37.0986 79.1743 37.138 79.2497C37.1775 79.325 37.2014 79.4076 37.2082 79.4924Z" fill="#263238"/>
<path d="M36.8604 77.7723C36.7797 77.8615 36.2656 77.5047 35.552 77.5302C34.8383 77.5556 34.3285 77.9252 34.2478 77.8402C34.1671 77.7553 34.286 77.6448 34.5112 77.4749C34.8113 77.2483 35.1759 77.1233 35.552 77.1182C35.9236 77.1043 36.2899 77.21 36.597 77.4197C36.8179 77.5811 36.8986 77.734 36.8604 77.7723Z" fill="#263238"/>
<path d="M39.2473 83.3107C39.6217 83.1849 40.0095 83.1036 40.4028 83.0686C40.5812 83.0431 40.7554 83.0006 40.7809 82.8775C40.7908 82.6894 40.7434 82.5028 40.645 82.3423L40.063 80.9703C39.2516 79.0165 38.6611 77.4109 38.7418 77.3812C38.8225 77.3514 39.5405 78.9018 40.3476 80.8556L40.9083 82.2318C41.0279 82.4478 41.0684 82.6986 41.023 82.9412C40.999 83.0068 40.9599 83.0659 40.9091 83.1138C40.8582 83.1617 40.7969 83.1971 40.7299 83.2173C40.6309 83.2487 40.5279 83.2659 40.4241 83.2682C40.0355 83.3347 39.6397 83.349 39.2473 83.3107Z" fill="#263238"/>
<path d="M33.0745 89.5162C33.0745 89.5162 34.8587 93.0162 40.0201 92.3748L39.9861 91.16C37.5746 91.2611 35.1823 90.6921 33.0745 89.5162Z" fill="#EB996E"/>
<path d="M36.5628 75.2021C36.499 75.3975 35.7811 75.3295 34.9485 75.4527C34.1159 75.5759 33.4447 75.8307 33.33 75.6608C33.2747 75.5759 33.3894 75.3932 33.6571 75.1936C34.0146 74.9546 34.4213 74.7992 34.8471 74.7389C35.273 74.6786 35.7069 74.7149 36.1167 74.8453C36.4311 74.96 36.5882 75.1087 36.5628 75.2021Z" fill="#263238"/>
<path d="M43.338 75.406C43.2191 75.5717 42.722 75.406 42.1316 75.406C41.5411 75.406 41.0441 75.5505 40.9209 75.406C40.8699 75.3253 40.9209 75.1597 41.1588 74.9813C41.4462 74.7877 41.785 74.6843 42.1316 74.6843C42.4782 74.6843 42.8169 74.7877 43.1044 74.9813C43.3168 75.1597 43.3932 75.3253 43.338 75.406Z" fill="#263238"/>
<path d="M42.8161 70.8532C42.6217 70.479 42.3275 70.1658 41.9661 69.9484C41.6047 69.731 41.1902 69.6179 40.7685 69.6214C39.923 69.6455 39.102 69.9107 38.4023 70.386C35.3777 72.2506 33.9163 76.5959 30.9257 78.5242C30.1908 78.9957 29.2052 78.6092 28.585 79.2293C27.9648 79.8495 27.5824 80.8179 27.9563 81.6079C27.5056 81.0794 27.1337 80.4885 26.8518 79.8537C26.7107 79.5354 26.6399 79.1903 26.6443 78.8421C26.6487 78.494 26.7282 78.1508 26.8773 77.8361C27.1279 77.3732 27.5825 77.0121 27.6971 76.4939C27.7949 76.0437 27.6037 75.5765 27.6122 75.1135C27.6463 74.6429 27.7919 74.1872 28.037 73.784C29.1223 71.6026 30.78 69.7571 32.8331 68.4449C34.187 67.6076 35.7442 67.1567 37.336 67.1409C38.9433 67.1271 40.502 67.6908 41.7286 68.7294C42.4252 69.3453 43.1602 69.9825 42.8331 70.8532" fill="#263238"/>
<path d="M28.6783 79.8666C28.6189 79.7221 25.8959 78.8259 25.9426 81.693C25.9851 84.4751 28.7803 83.8465 28.7845 83.77C28.7888 83.6936 28.6783 79.8666 28.6783 79.8666Z" fill="#FFBE9D"/>
<path d="M27.9053 82.7295C27.9053 82.7295 27.8586 82.7635 27.7736 82.806C27.6578 82.8525 27.5284 82.8525 27.4126 82.806C27.2304 82.6954 27.0809 82.5384 26.9794 82.3511C26.8779 82.1637 26.828 81.9528 26.8348 81.7398C26.8252 81.5015 26.8673 81.2639 26.958 81.0432C26.9823 80.9555 27.0274 80.8749 27.0895 80.8083C27.1517 80.7418 27.229 80.6912 27.3149 80.661C27.3709 80.6464 27.4303 80.651 27.4834 80.6741C27.5365 80.6972 27.5804 80.7374 27.608 80.7884C27.6462 80.8691 27.6292 80.9243 27.642 80.9285C27.6547 80.9328 27.7014 80.8818 27.6759 80.7671C27.6595 80.6985 27.6206 80.6372 27.5655 80.593C27.5257 80.5638 27.48 80.5433 27.4317 80.5331C27.3834 80.5228 27.3334 80.523 27.2851 80.5335C27.1729 80.5561 27.0684 80.607 26.9814 80.6813C26.8944 80.7556 26.8278 80.851 26.7881 80.9583C26.675 81.2027 26.6225 81.4708 26.6352 81.7398C26.628 81.9876 26.6934 82.2322 26.8232 82.4434C26.9529 82.6547 27.1415 82.8235 27.3658 82.9291C27.4384 82.946 27.5136 82.9475 27.5868 82.9336C27.6599 82.9197 27.7293 82.8907 27.7906 82.8484C27.9011 82.7975 27.9138 82.7337 27.9053 82.7295Z" fill="#EB996E"/>
<path d="M27.5316 78.4691C27.5895 78.4413 27.645 78.4086 27.6973 78.3714C27.7992 78.2992 27.9607 78.2057 28.1561 78.0613C28.691 77.6418 29.1807 77.1678 29.6174 76.6469C30.2541 75.8688 30.8455 75.0547 31.3889 74.2088C32.0436 73.1721 32.7855 72.1931 33.6064 71.2823C34.0431 70.8253 34.5289 70.4179 35.055 70.0675C35.5484 69.7465 36.079 69.4869 36.6352 69.2944C37.5799 68.9699 38.5771 68.8258 39.5749 68.8697C40.2493 68.8919 40.9178 69.0033 41.563 69.201C41.7924 69.2647 41.9666 69.3369 42.0855 69.3751C42.1442 69.4011 42.2054 69.421 42.2682 69.4346L42.094 69.3539C41.9261 69.2753 41.753 69.2086 41.5758 69.1543C40.9318 68.9337 40.2593 68.8078 39.5792 68.7805C38.5699 68.7303 37.5604 68.8745 36.6055 69.2052C36.0393 69.398 35.4986 69.659 34.9955 69.9825C34.4619 70.3398 33.9678 70.7527 33.5214 71.2143C32.6968 72.1307 31.9534 73.117 31.2997 74.1621C30.7625 75.009 30.1811 75.8271 29.5579 76.6129C29.1299 77.1341 28.6518 77.6121 28.1306 78.0401C27.9479 78.193 27.7907 78.2907 27.7058 78.3714C27.6433 78.3954 27.5846 78.4283 27.5316 78.4691Z" fill="#455A64"/>
<path d="M27.6035 83.2306C27.4659 83.2088 27.3251 83.2403 27.2098 83.3186C27.0945 83.397 27.0134 83.5163 26.983 83.6523C26.9526 83.7883 26.9752 83.9308 27.0461 84.0508C27.1171 84.1707 27.2311 84.2592 27.365 84.298C27.4989 84.3369 27.6425 84.3233 27.7667 84.26C27.8909 84.1966 27.9863 84.0884 28.0335 83.9573C28.0806 83.8261 28.0761 83.6819 28.0206 83.554C27.9652 83.4261 27.8632 83.3242 27.7352 83.2689" fill="white"/>
<path d="M27.7348 83.2681C27.8565 83.3605 27.9469 83.488 27.994 83.6334C28.012 83.7069 28.0126 83.7836 27.9956 83.8574C27.9786 83.9311 27.9446 83.9999 27.8962 84.0581C27.8358 84.1296 27.756 84.182 27.6664 84.2091C27.5769 84.2362 27.4813 84.2367 27.3915 84.2106C27.3016 84.1846 27.2212 84.133 27.16 84.0622C27.0988 83.9915 27.0594 83.9045 27.0466 83.8118C27.0342 83.7338 27.0416 83.654 27.0684 83.5797C27.0951 83.5054 27.1402 83.4391 27.1995 83.387C27.3183 83.284 27.4675 83.2229 27.6244 83.2129C27.6244 83.2129 27.5776 83.1874 27.4927 83.1874C27.4137 83.1904 27.3362 83.2097 27.2649 83.2439C27.1937 83.2781 27.1302 83.3266 27.0785 83.3863C27.0267 83.446 26.9877 83.5157 26.964 83.5911C26.9402 83.6665 26.9322 83.7459 26.9404 83.8245C26.9525 83.9432 26.9998 84.0555 27.0761 84.1472C27.1525 84.2388 27.2545 84.3055 27.369 84.3389C27.4836 84.3722 27.6055 84.3705 27.7191 84.3341C27.8327 84.2977 27.9328 84.2282 28.0067 84.1346C28.069 84.0603 28.1104 83.9709 28.1268 83.8754C28.1433 83.7798 28.1341 83.6817 28.1002 83.5909C28.0615 83.4712 27.9837 83.368 27.8792 83.2978C27.7858 83.2681 27.7348 83.2596 27.7348 83.2681Z" fill="#263238"/>
<path d="M28.2531 79.2589C28.1649 80.0188 28.2807 80.7885 28.5887 81.4888C28.9583 82.1557 29.8631 82.5889 30.5088 82.1897C31.0398 81.8669 31.1843 81.1745 31.2565 80.5544C31.4689 78.7747 31.5411 76.978 31.7662 75.1982L28.2531 79.2589Z" fill="#263238"/>
<path d="M42.0895 69.5491C42.0895 69.5491 41.8431 69.5067 41.397 69.5067C40.7653 69.5123 40.1411 69.6452 39.5619 69.8974C39.1626 70.0645 38.7823 70.2738 38.4276 70.5218C38.0205 70.8135 37.6304 71.1283 37.2594 71.4648C36.4061 72.2327 35.6474 73.0997 34.9994 74.0473C34.6596 74.5527 34.3622 75.0709 34.0351 75.5551C33.7264 76.0205 33.3643 76.4482 32.9561 76.8294C32.2526 77.4625 31.4786 78.0127 30.6494 78.4689C29.9442 78.8682 29.375 79.1486 28.9502 79.3439L28.4829 79.5606C28.4288 79.5881 28.3718 79.6095 28.313 79.6243C28.3597 79.5866 28.4111 79.5552 28.4659 79.5308L28.9247 79.2887C29.3197 79.0763 29.9017 78.7833 30.5942 78.3755C31.407 77.9091 32.1663 77.355 32.8584 76.7232C33.2579 76.342 33.6102 75.9141 33.9077 75.449C34.2305 74.969 34.5279 74.4508 34.872 73.9368C35.5245 72.9775 36.2952 72.1041 37.166 71.3374C37.5427 71.0006 37.9384 70.6858 38.3512 70.3944C38.718 70.144 39.1112 69.9347 39.5236 69.77C40.1169 69.5247 40.7553 69.4075 41.397 69.426C41.571 69.43 41.7444 69.4485 41.9153 69.4812C41.9764 69.4951 42.0351 69.518 42.0895 69.5491Z" fill="#455A64"/>
<path d="M36.4098 85.1126C36.4422 84.8459 36.5093 84.5846 36.6095 84.3353C36.6183 84.2849 36.6376 84.237 36.6661 84.1945C36.6947 84.1521 36.7318 84.1161 36.7751 84.0889C36.8222 84.0691 36.8727 84.0588 36.9238 84.0588C36.9749 84.0588 37.0255 84.0691 37.0725 84.0889C37.6587 84.2758 38.4064 84.6241 38.9926 84.8153C39.03 85.018 39.0236 85.2263 38.9738 85.4263C38.924 85.6263 38.8319 85.8134 38.7038 85.9748C38.4301 86.2112 38.075 86.3316 37.714 86.3104C37.5082 86.3238 37.3022 86.2894 37.1121 86.2098C36.9219 86.1302 36.7528 86.0076 36.618 85.8517C36.4565 85.641 36.382 85.3765 36.4098 85.1126Z" fill="#EB996E"/>
<path d="M38.4568 86.0553C38.1917 86.1802 37.9 86.2385 37.6072 86.2252C37.2975 86.1995 37.0097 86.0549 36.8043 85.8217C36.687 85.6756 36.6034 85.5055 36.5593 85.3234C36.5152 85.1414 36.5119 84.9518 36.5494 84.7683C36.5852 84.5817 36.6736 84.4092 36.8043 84.2714C36.919 84.1524 37.0677 84.1822 37.2291 84.2501L38.1467 84.6281C38.4248 84.7599 38.717 84.8596 39.0176 84.9255C38.7687 84.7486 38.4972 84.6057 38.2104 84.5007L37.3014 84.076C37.2038 84.0296 37.0988 84.0009 36.9912 83.991C36.8624 83.9877 36.7373 84.0349 36.6429 84.1227C36.4759 84.2898 36.3621 84.5027 36.3158 84.7343C36.2707 84.95 36.2756 85.1732 36.3301 85.3867C36.3846 85.6002 36.4873 85.7984 36.6302 85.9661C36.7521 86.0971 36.8993 86.2023 37.0627 86.2752C37.2262 86.3482 37.4027 86.3875 37.5817 86.3909C37.8176 86.402 38.0518 86.346 38.2572 86.2295C38.4059 86.1403 38.4653 86.0553 38.4568 86.0553Z" fill="#263238"/>
<path d="M48.1004 135.866C48.1004 135.866 59.7699 137.166 62.0213 138.763C64.515 140.53 65.577 144.285 65.1437 147.606C64.8633 149.764 57.5863 164.426 57.5863 164.426C57.5863 164.426 46.7495 185.316 47.2508 185.027L35.8872 177.356L46.7835 147.984L32.0894 139.154C32.0851 138.567 38.8311 135.042 48.1004 135.866Z" fill="#00A0C8"/>
<path d="M40.0297 93.1138L42.8122 96.087L48.2922 98.4402C48.2922 98.4402 47.3407 118.998 46.593 122.698C45.9048 126.07 45.0807 132.629 45.0807 132.629L47.8037 139.148H42.2812C41.7716 136.828 41.4688 134.467 41.3764 132.093C41.2574 128.666 41.9414 122.668 41.9414 122.668L42.5106 105.678L40.0297 93.1138Z" fill="#455A64"/>
<g opacity="0.3">
<path opacity="0.3" d="M28.2754 139.367C28.2754 139.367 28.0757 147.208 24.6305 148.575C22.3879 149.409 19.998 149.775 17.6085 149.65L17.3961 147.989L25.3315 143.971L28.2754 139.367Z" fill="black"/>
</g>
<path d="M19.0394 126.491C18.9756 124.24 17.2892 114.687 17.3062 106.978C17.3293 103.459 17.9026 99.9646 19.0054 96.6224C20.335 96.0745 27.5313 93.5047 27.5313 93.5047L29.4089 92.1923C29.5002 92.6583 29.5471 93.1318 29.5491 93.6067C29.2815 96.0108 28.9756 101.074 29.0139 101.894C29.0393 102.493 30.9382 111.489 30.9382 116.76C30.9382 118.964 30.9382 124.406 30.42 129.345C30.42 135.806 26.0402 144.853 23.81 147.011C21.5797 149.169 13.5678 148.587 13.5678 148.587C10.42 146.862 19.0946 128.339 19.0394 126.491Z" fill="#455A64"/>
<path d="M19.3961 96.533C19.3961 96.533 16.397 96.928 14.2602 102.378C12.9858 105.648 7.46327 121.305 7.46327 126.058C7.46327 128.105 11.1973 131.715 11.1973 131.715H23.9671L25.3307 125.718L17.1786 122.056L19.7275 113.854L19.3961 96.533Z" fill="#455A64"/>
<path d="M27.5865 126.674C27.5865 126.674 31.6179 123.701 32.1489 123.862C32.6799 124.024 37.0257 126.432 37.0257 126.432L37.3783 130.068C37.0719 130.136 36.7544 130.136 36.448 130.068L36.2271 129.936C36.1927 130.214 36.0637 130.471 35.8617 130.665C35.6597 130.858 35.3971 130.976 35.1183 130.998C35.1183 130.998 34.4089 132.234 33.4786 131.703C33.4786 131.703 33.4488 132.459 32.7989 132.506C32.369 132.517 31.9445 132.409 31.5712 132.196L31.1464 131.703L29.9909 131.308C29.9909 131.308 29.1413 132.727 27.9263 132.727C26.7114 132.727 23.8099 131.075 23.8099 131.075L25.0844 126.313L27.5865 126.674Z" fill="#FFBE9D"/>
<path d="M30.4036 128.874C30.4036 128.904 30.599 129.018 30.9388 129.188C31.3869 129.399 31.8136 129.652 32.2133 129.944C32.5993 130.236 32.9132 130.612 33.1309 131.044C33.2923 131.38 33.322 131.613 33.3602 131.609C33.3989 131.397 33.3691 131.179 33.2753 130.985C33.0864 130.501 32.7655 130.08 32.3492 129.77C31.9434 129.464 31.4937 129.22 31.0153 129.048C30.8232 128.954 30.6161 128.896 30.4036 128.874Z" fill="#EB996E"/>
<path d="M34.8812 131.385C34.9257 131.11 34.9257 130.831 34.8812 130.556C34.8566 129.875 34.6609 129.21 34.3119 128.624C33.9036 128.068 33.3224 127.663 32.6594 127.473C32.4026 127.365 32.13 127.301 31.8523 127.281C32.0908 127.419 32.3428 127.531 32.6042 127.617C33.2103 127.838 33.7389 128.23 34.125 128.747C34.4529 129.306 34.6571 129.929 34.724 130.573C34.7485 130.848 34.8012 131.12 34.8812 131.385Z" fill="#EB996E"/>
<path d="M32.5318 125.532C32.763 125.753 33.0422 125.917 33.3474 126.012C33.6193 126.127 33.9464 126.237 34.2947 126.382C34.6698 126.525 35.0091 126.748 35.2888 127.036C35.7486 127.614 36.0174 128.32 36.0577 129.058C36.0681 129.37 36.1065 129.682 36.1724 129.988C36.2304 129.677 36.2447 129.36 36.2149 129.045C36.214 128.26 35.9458 127.499 35.4545 126.887C35.1529 126.574 34.7817 126.337 34.3712 126.195C34.0101 126.05 33.6745 125.957 33.4026 125.868C32.8546 125.689 32.553 125.502 32.5318 125.532Z" fill="#EB996E"/>
<path d="M32.9011 138.003C33.0968 138.103 33.3016 138.184 33.5128 138.245C33.9079 138.39 34.4813 138.593 35.1823 138.87C36.5884 139.417 38.5 140.241 40.5561 141.265C42.6122 142.289 44.4134 143.338 45.6793 144.149C46.3165 144.553 46.8178 144.897 47.1661 145.139C47.3389 145.272 47.5222 145.392 47.7141 145.496C47.5611 145.34 47.3948 145.198 47.2171 145.071C46.8857 144.812 46.393 144.442 45.7642 144.022C44.1296 142.932 42.4269 141.947 40.6666 141.074C38.9027 140.19 37.0901 139.408 35.2375 138.729C34.5281 138.47 33.9631 138.283 33.5383 138.169C33.3311 138.095 33.1179 138.04 32.9011 138.003Z" fill="#263238"/>
<path d="M48.9121 142.267C48.9121 142.267 48.8824 142.322 48.8356 142.437C48.7889 142.552 48.7252 142.73 48.636 142.951L47.8841 144.93L45.1271 152.321C42.7864 158.607 39.5238 167.37 35.811 177.33L35.7813 177.411L35.8535 177.458L42.1661 181.705L47.2171 185.103L47.3191 185.175L47.3743 185.065C52.421 175.27 56.6946 166.516 59.6937 160.213C61.1975 157.057 62.3827 154.517 63.1899 152.763L64.1075 150.745C64.2094 150.52 64.2859 150.346 64.3411 150.218C64.3963 150.091 64.4133 150.036 64.4133 150.036C64.4133 150.036 64.3793 150.095 64.3241 150.21C64.2689 150.325 64.1797 150.503 64.0692 150.728L63.1177 152.729L59.562 160.149C56.5247 166.435 52.2256 175.177 47.1746 184.963L47.3361 184.925L42.2851 181.527L35.9725 177.279L36.0107 177.407L45.2587 152.372C46.4057 149.233 47.3276 146.714 47.969 144.973L48.6869 142.976L48.8696 142.458C48.8951 142.326 48.9121 142.267 48.9121 142.267Z" fill="#263238"/>
<path d="M22.3363 107.255C22.281 107.234 21.0618 110.534 19.6515 114.62C18.2411 118.706 17.1026 122.041 17.1791 122.062C17.2555 122.083 18.4535 118.783 19.8596 114.693C21.2657 110.602 22.3957 107.298 22.3363 107.255Z" fill="#263238"/>
<path d="M18.2159 97.4349C18.2159 97.4731 18.5303 97.5028 19.0145 97.6515C19.6424 97.8463 20.2266 98.1608 20.735 98.5775C21.2395 98.9966 21.6591 99.5085 21.9712 100.085C22.2091 100.51 22.3026 100.837 22.3365 100.829C22.3223 100.545 22.2454 100.268 22.1114 100.017C21.8289 99.3927 21.4059 98.8417 20.8752 98.4076C20.346 97.9714 19.7241 97.6619 19.057 97.5028C18.7847 97.4208 18.4979 97.3976 18.2159 97.4349Z" fill="#263238"/>
<path d="M23.6575 131.721C23.7215 131.584 23.7727 131.442 23.8104 131.296L24.18 130.085C24.4944 129.011 24.9192 127.537 25.4247 125.8L25.4502 125.719L25.3737 125.681C24.0993 125.069 22.6507 124.347 21.1002 123.629C19.814 123.025 18.4983 122.487 17.158 122.015C16.0681 121.594 14.9237 121.331 13.7595 121.234C12.9629 121.189 12.1705 121.376 11.4783 121.773C11.2948 121.883 11.1251 122.014 10.9728 122.164C10.9165 122.215 10.8679 122.273 10.8283 122.338C11.0471 122.156 11.2801 121.991 11.525 121.845C12.2106 121.491 12.9812 121.333 13.751 121.391C14.896 121.509 16.0194 121.783 17.09 122.206C18.3177 122.631 19.6388 123.2 21.0025 123.833C22.5488 124.542 23.9761 125.26 25.2845 125.863L25.2293 125.744C24.7578 127.49 24.3542 128.973 24.0611 130.051C23.9294 130.557 23.8274 130.965 23.7467 131.279C23.7037 131.423 23.6738 131.571 23.6575 131.721Z" fill="#263238"/>
<path d="M41.8092 123.221C41.8528 123.129 41.8883 123.034 41.9154 122.936C41.9833 122.724 42.0725 122.448 42.1787 122.087C42.4039 121.365 42.714 120.312 43.0666 119.008C43.9895 115.6 44.7241 112.144 45.2671 108.656C45.3425 107.889 45.1682 107.117 44.7701 106.456C44.4264 105.833 43.9974 105.261 43.4956 104.757L43.4362 104.935L45.1694 104.744H45.2883L45.2586 104.634L43.6103 98.4622C43.4064 97.7274 43.2408 97.137 43.1218 96.7038C43.0666 96.5169 43.0241 96.364 42.9859 96.2408C42.9734 96.1859 42.9534 96.133 42.9264 96.0836C42.9287 96.1396 42.9373 96.1952 42.9519 96.2493C42.9816 96.3767 43.0156 96.5296 43.0623 96.7207C43.1643 97.1455 43.3087 97.7486 43.4871 98.4877C43.878 100.025 44.4175 102.166 45.0589 104.685L45.1439 104.557L43.3937 104.744L43.1813 104.766L43.3342 104.923C43.8201 105.421 44.2373 105.983 44.5747 106.592C44.9476 107.211 45.1114 107.933 45.0419 108.652C44.4132 112.73 43.5848 116.374 42.9179 118.995C42.5823 120.307 42.2977 121.365 42.098 122.095C42.0046 122.444 41.9323 122.72 41.8729 122.945C41.8435 123.035 41.8222 123.127 41.8092 123.221Z" fill="#263238"/>
<path d="M30.9431 122.906C30.8847 122.808 30.818 122.716 30.7435 122.63C30.5905 122.443 30.3866 122.205 30.136 121.869C29.8853 121.534 29.6177 121.084 29.2864 120.595L28.8318 119.746L28.5854 119.283L28.356 118.781C27.0816 116.042 25.9516 111.985 25.3442 107.385C25.2464 106.642 25.1572 105.903 25.102 105.181L25.0298 105.291L27.4682 104.442L27.7103 104.319L27.4937 104.204L25.8454 103.354L25.8964 103.465C26.3977 100.551 26.8267 98.0705 27.1326 96.295C27.2728 95.4455 27.3832 94.7447 27.464 94.2435C27.4979 94.0226 27.5277 93.8187 27.5447 93.6998C27.5541 93.6364 27.5541 93.572 27.5447 93.5087C27.5232 93.5694 27.5076 93.6319 27.4979 93.6956L27.3832 94.235C27.2898 94.7277 27.1581 95.4158 26.9924 96.2738C26.6696 98.045 26.215 100.521 25.6798 103.427V103.499L25.7435 103.537L27.3917 104.387V104.195L24.9533 105.045L24.8726 105.075V105.155C24.9278 105.886 25.0128 106.625 25.1105 107.377C25.7222 111.977 26.8692 116.067 28.2031 118.807L28.441 119.312L28.6959 119.775L29.1674 120.625C29.5115 121.122 29.7961 121.564 30.051 121.899L30.6967 122.638C30.7702 122.735 30.8527 122.825 30.9431 122.906Z" fill="#263238"/>
<path d="M14.2611 148.562C14.3339 148.585 14.41 148.595 14.4862 148.592C14.6349 148.592 14.8558 148.592 15.1362 148.617C15.7012 148.617 16.521 148.617 17.5278 148.571C18.7126 148.506 19.8918 148.364 21.058 148.146C21.3865 148.086 21.7221 148.014 22.0648 147.929C22.4212 147.856 22.7687 147.745 23.1013 147.598C23.7725 147.228 24.3587 146.722 24.8218 146.111C25.708 144.955 26.4538 143.697 27.0435 142.365C27.6085 141.15 28.0376 140.025 28.3817 139.073C28.7258 138.122 28.9594 137.34 29.1166 136.801C29.1973 136.529 29.2525 136.316 29.2908 136.172C29.3122 136.099 29.3264 136.023 29.3333 135.947C29.2952 136.013 29.2666 136.085 29.2483 136.159C29.1888 136.325 29.1208 136.525 29.0359 136.775C28.8532 137.306 28.5898 138.079 28.233 139.022C27.8762 139.965 27.4301 141.078 26.8609 142.276C26.2683 143.588 25.5271 144.828 24.6519 145.971C24.2077 146.557 23.6464 147.045 23.0036 147.402C22.6861 147.545 22.3543 147.653 22.0138 147.725C21.6782 147.81 21.3426 147.882 21.0198 147.946C19.863 148.169 18.6942 148.323 17.5193 148.409C16.5168 148.486 15.7012 148.511 15.1362 148.524H14.4862C14.41 148.528 14.3344 148.541 14.2611 148.562Z" fill="#263238"/>
<path d="M55.0131 136.856C54.7936 136.778 54.5675 136.719 54.3376 136.682C53.9128 136.58 53.2586 136.465 52.4685 136.325C50.3972 135.994 48.3043 135.817 46.2068 135.794C44.1117 135.78 42.0177 135.895 39.9366 136.138C39.138 136.227 38.4965 136.312 38.0505 136.38C37.8182 136.403 37.5881 136.444 37.3623 136.503C37.5952 136.511 37.8283 136.498 38.059 136.465L39.9536 136.291C41.5509 136.155 43.7769 135.985 46.2068 136.015C48.2933 136.04 50.3761 136.196 52.443 136.482C53.2374 136.597 53.8788 136.69 54.3206 136.767C54.5487 136.815 54.7803 136.844 55.0131 136.856Z" fill="#263238"/>
<g opacity="0.3">
<path opacity="0.3" d="M30.6069 122.617C30.6069 122.617 29.3028 122.4 27.5696 120.017C25.5857 117.303 23.8142 105.091 23.8142 105.091L25.5857 104.39L24.4812 103.447L26.6775 96.5325L25.7641 103.439L27.4124 104.288L24.974 105.138C24.974 105.138 26.0402 112.231 26.8856 115.175C27.7947 118.301 28.4022 119.185 30.6069 122.617Z" fill="black"/>
</g>
<g opacity="0.3">
<path opacity="0.3" d="M10.2633 121.451C10.3555 121.227 10.4922 121.024 10.6653 120.854C10.8384 120.685 11.0442 120.552 11.2701 120.465C11.723 120.295 12.2057 120.218 12.689 120.24C14.3882 120.24 15.8878 121.039 17.1792 122.122L17.0603 122.173C15.2166 121.128 12.7485 120.898 10.9473 122.02C10.8226 122.123 10.6629 122.175 10.5012 122.164C10.2208 122.113 10.1656 121.739 10.2633 121.451Z" fill="black"/>
</g>
<g opacity="0.3">
<path opacity="0.3" d="M47.7494 145.408L47.6341 145.382V145.344L47.7494 145.408Z" fill="black"/>
</g>
<g opacity="0.3">
<path opacity="0.3" d="M47.4514 143.311C48.1438 142.683 48.7513 141.438 49.4437 140.81C48.992 142.374 48.3917 143.892 47.651 145.342C44.5882 143.32 41.4616 140.861 37.7105 140.037C41.1175 139.777 44.5584 141.485 47.4514 143.311Z" fill="black"/>
</g>
<g opacity="0.3">
<path opacity="0.3" d="M62.8336 153.422L50.5142 184.008V178.427L62.8336 153.422Z" fill="black"/>
</g>
<path d="M47.2772 97.9738C47.2772 97.9738 51.6443 99.248 52.4854 102.718C53.42 106.541 54.4437 111.744 55.544 115.036C56.6442 118.328 55.7904 118.583 56.3936 119.929C56.9968 121.276 59.5712 125.319 57.6171 128.31C55.6629 131.3 53.7003 133.012 50.0342 131.542C47.8864 130.707 45.9393 129.427 44.3206 127.787L47.2772 97.9738Z" fill="#455A64"/>
<path d="M48.657 106.52C48.6187 106.52 48.7207 107.157 48.7802 108.185C48.8605 109.523 48.8506 110.866 48.7504 112.203C48.6525 113.54 48.4752 114.871 48.2194 116.187C48.0197 117.198 47.8583 117.818 47.8923 117.826C47.961 117.691 48.0138 117.549 48.0495 117.402C48.1429 117.126 48.2534 116.722 48.3723 116.217C48.6754 114.901 48.8743 113.563 48.9671 112.215C49.0751 110.868 49.0651 109.513 48.9373 108.168C48.8864 107.654 48.8226 107.237 48.7674 106.953C48.7457 106.805 48.7087 106.66 48.657 106.52Z" fill="#263238"/>
<path d="M46.8774 118.247C46.8774 118.285 47.4041 118.149 48.2495 118.064C50.4638 117.842 52.6921 118.319 54.6216 119.428C55.3565 119.853 55.7686 120.184 55.7941 120.154C55.7147 120.057 55.6234 119.97 55.5222 119.895C55.2631 119.676 54.9876 119.477 54.6981 119.3C52.7681 118.101 50.4803 117.611 48.2282 117.916C47.891 117.961 47.5574 118.031 47.23 118.124C47.1079 118.15 46.9895 118.192 46.8774 118.247Z" fill="#263238"/>
<path d="M44.329 127.617C44.4254 127.751 44.535 127.874 44.6561 127.986C44.877 128.211 45.2041 128.534 45.6161 128.921C46.6834 129.954 47.9061 130.814 49.2397 131.469C50.6037 132.12 52.1411 132.314 53.6238 132.021C54.0702 131.928 54.4998 131.768 54.8982 131.546C55.0556 131.479 55.1995 131.384 55.323 131.265C54.4047 131.743 53.3846 131.993 52.3493 131.993C51.314 131.993 50.294 131.743 49.3757 131.265C48.0627 130.618 46.8484 129.787 45.7691 128.798C45.3698 128.453 45.0342 128.156 44.7623 127.918C44.6328 127.798 44.4869 127.696 44.329 127.617Z" fill="#263238"/>
<path d="M46.6012 115.982C45.9023 116.504 45.1747 116.986 44.4219 117.427C43.4359 118 42.6837 118.902 42.2979 119.975C41.9793 121.169 41.1382 121.768 40.8536 122.328C40.5689 122.889 40.5732 125.208 40.6072 125.773C40.6412 126.338 38.9079 127.672 38.8145 127.897C38.721 128.122 38.5723 128.746 39.0269 128.882C39.2242 128.957 39.4375 128.98 39.6463 128.95C39.8552 128.92 40.0529 128.836 40.2206 128.708C40.467 128.462 41.495 127.582 41.495 127.582C41.495 127.582 41.3888 128.67 41.7414 128.742C42.0446 128.781 42.3516 128.781 42.6547 128.742L43.9632 126.835C43.9632 126.835 44.2818 128.207 44.8425 128.067C45.4032 127.927 45.7558 127.782 45.8281 126.941C45.9061 126.304 46.0587 125.678 46.2826 125.076V124.376C46.2826 124.376 47.0218 125.289 47.5868 125.149C48.1518 125.008 48.3939 124.724 48.4364 124.516C48.3917 123.768 48.2736 123.027 48.0838 122.303C47.8865 121.703 47.6524 121.116 47.3829 120.544C47.3829 120.544 47.0643 118.998 47.4168 118.421C47.7694 117.843 49.7363 116.14 49.9657 115.575C50.1951 115.01 50.5647 114.169 49.7193 113.876C48.8739 113.583 47.8162 115.133 46.6012 115.982Z" fill="#FFBE9D"/>
<path d="M42.4762 120.77C42.4762 120.77 42.5952 120.919 42.8543 121.055C43.1966 121.225 43.5699 121.325 43.9517 121.348C44.3335 121.37 44.716 121.315 45.0761 121.186C45.3479 121.08 45.5009 120.97 45.4796 120.948C44.9837 121.073 44.4745 121.137 43.9631 121.14C43.4546 121.076 42.9555 120.952 42.4762 120.77Z" fill="#EB996E"/>
<path d="M41.6225 127.758C41.8728 127.547 42.051 127.264 42.1323 126.947C42.2769 126.654 42.3245 126.322 42.2682 126C42.1267 126.28 42.017 126.575 41.9411 126.879C41.8013 127.159 41.6943 127.454 41.6225 127.758Z" fill="#EB996E"/>
<path d="M43.925 126.904C44.1316 126.665 44.2605 126.369 44.2945 126.055C44.3942 125.748 44.3942 125.418 44.2945 125.112C44.1972 125.403 44.1344 125.706 44.1076 126.012C44.0141 126.302 43.9528 126.601 43.925 126.904Z" fill="#EB996E"/>
<path d="M51.886 189.754H17.4729C17.0861 189.753 16.7154 189.599 16.4417 189.326C16.1681 189.052 16.0137 188.682 16.0123 188.295C16.0135 187.909 16.1677 187.538 16.4414 187.264C16.715 186.991 17.0859 186.837 17.4729 186.836H51.886C52.273 186.837 52.6439 186.991 52.9175 187.264C53.1912 187.538 53.3454 187.909 53.3466 188.295C53.3451 188.682 53.1908 189.052 52.9172 189.326C52.6435 189.599 52.2728 189.753 51.886 189.754Z" fill="#B9C0D6"/>
<path d="M59.8685 157.739C59.4507 160.245 58.4723 162.254 57.5971 163.475C55.3504 166.594 51.0901 170.077 40.8738 171.21C40.3787 171.264 39.8686 171.317 39.3445 171.357C38.3909 171.438 37.3885 171.498 36.3375 171.537C36.2709 171.537 36.2043 171.544 36.1367 171.544C36.069 171.544 36.0035 171.544 35.9348 171.55C32.9632 171.476 29.6383 170.933 25.93 170.047C18.318 168.242 13.3585 164.527 10.2237 160.005C9.95739 159.621 9.70501 159.231 9.46338 158.838C15.2379 157.46 27.5731 155.046 39.8278 156.032C46.4765 156.568 53.3722 157.16 59.2767 157.68L59.8685 157.739Z" fill="#C5592D"/>
<path d="M22.8567 144.65C22.8567 144.65 27.6647 157.158 43.3795 157.456C68.0596 157.924 68.0575 158.016 68.0575 158.016C68.0575 158.016 66.1759 169.956 83.6854 186.161H93.5398L74.6171 140.046L42.4098 138.832C42.4098 138.832 19.8937 138.327 18.1217 141.43C17.7372 142.105 22.8567 144.65 22.8567 144.65Z" fill="#333383"/>
<path d="M65.5347 151.866C65.0911 151.805 64.6089 151.591 64.1386 151.384C63.709 151.191 63.2558 150.992 62.8745 150.936C57.9774 150.222 53.5388 149.349 49.6222 148.575C48.5955 148.373 47.5892 148.176 46.6034 147.984C37.6897 146.267 32.6347 145.329 32.5842 145.323C32.6347 145.329 37.7284 145.967 46.6528 147.685C47.6401 147.875 48.6467 148.072 49.6727 148.275C53.585 149.045 58.0193 149.917 62.9089 150.63C63.3385 150.692 63.8046 150.901 64.2588 151.103C64.7131 151.304 65.1652 151.505 65.5615 151.56C66.8545 151.741 66.8245 152.044 65.5347 151.866Z" fill="#2B295E"/>
<path d="M62.3344 125.786L62.2205 125.464C62.2098 125.438 62.2012 125.411 62.1926 125.389L62.1722 125.332L62.1421 125.246C62.1325 125.218 62.1239 125.196 62.1174 125.176C62.111 125.157 62.1056 125.141 62.1013 125.131L62.3344 125.786Z" fill="#2B295E"/>
<path d="M62.1013 125.134C62.1013 125.143 62.1099 125.158 62.1174 125.179C62.1249 125.199 62.1325 125.22 62.1421 125.248L62.1722 125.334L62.1926 125.391C62.2012 125.414 62.2098 125.441 62.2205 125.466L62.3344 125.788L62.3902 125.947L62.1013 125.134Z" fill="#2B295E"/>
<path d="M62.1013 125.134C62.1013 125.143 62.11 125.158 62.1175 125.179L62.1013 125.134Z" fill="#2B295E"/>
<path d="M85.1839 182.525L85.1001 182.548C82.0813 177.164 78.8315 170.665 75.8149 163.764C75.3531 162.71 74.8859 161.617 74.4252 160.53C73.9172 159.326 73.4114 158.105 72.9217 156.899C72.7921 156.54 72.7109 156.165 72.6801 155.785C72.7681 155.655 72.854 155.523 72.9399 155.39C72.9394 155.4 72.9394 155.411 72.9399 155.421C72.9926 155.905 73.0473 156.405 73.1955 156.777C73.6863 157.981 74.1922 159.201 74.699 160.403C75.1608 161.491 75.628 162.58 76.0876 163.634C79.1022 170.523 82.1704 177.149 85.1839 182.525Z" fill="#2B295E"/>
<path d="M172.889 134.573H0V190.077H172.889V134.573Z" fill="#EAEEF9"/>
<path d="M179.118 131.125H0V135.256H179.118V131.125Z" fill="#5A6688"/>
<path d="M60.2252 113.21H86.2714L79.5013 131.125H54.0641L60.2252 113.21Z" fill="black"/>
<path d="M62.2054 24.5185C61.5278 24.5185 60.9786 23.9692 60.9786 23.2917V14.0614C60.9786 13.4099 60.4505 12.8818 59.799 12.8818C59.1476 12.8818 58.6195 13.4099 58.6195 14.0614V23.2917C58.6195 23.9692 58.0702 24.5185 57.3927 24.5185H28.888C28.2104 24.5185 27.6611 25.0678 27.6611 25.7453V47.5273C27.6611 48.2048 28.2104 48.7541 28.888 48.7541H89.7094C90.387 48.7541 90.9362 48.2048 90.9362 47.5273V25.7453C90.9362 25.0678 90.387 24.5185 89.7094 24.5185H62.2054Z" fill="#D7DEF2"/>
<path d="M88.5897 25.7734H30.0081C29.3305 25.7734 28.7812 26.3227 28.7812 27.0003V45.8458C28.7812 46.5233 29.3305 47.0726 30.0081 47.0726H88.5897C89.2673 47.0726 89.8165 46.5233 89.8165 45.8458V27.0003C89.8165 26.3227 89.2673 25.7734 88.5897 25.7734Z" fill="#EAEEF9"/>
<path d="M34.3809 43.1493V29.1373H39.1346C39.8451 29.1292 40.554 29.2071 41.2469 29.3692C41.8682 29.5239 42.3945 29.7608 42.8257 30.08C43.2479 30.3863 43.5878 30.7985 43.8133 31.2779C44.0397 31.7591 44.1532 32.327 44.1536 32.9818C44.1547 33.2937 44.1155 33.6045 44.0372 33.9058C43.8807 34.5045 43.5467 35.0377 43.0821 35.4306C42.8224 35.6504 42.5298 35.825 42.2158 35.9475C42.5812 36.0356 42.9272 36.1939 43.236 36.414C43.7757 36.8033 44.1649 37.377 44.335 38.0339C44.4187 38.3589 44.4607 38.6939 44.4601 39.0302C44.4601 40.3906 44.0362 41.417 43.1884 42.1097C42.3407 42.8024 41.1343 43.1489 39.5693 43.1493H34.3809ZM37.1756 35.0081H39.2441C39.958 34.9951 40.489 34.8396 40.8372 34.5415C41.1854 34.2435 41.3593 33.8185 41.3589 33.2667C41.3589 32.6309 41.1802 32.1737 40.8228 31.895C40.4655 31.6163 39.9025 31.4767 39.134 31.4763H37.1756V35.0081ZM37.1756 37.0485V40.8304H39.57C39.8857 40.8373 40.2005 40.7901 40.5013 40.6908C40.7423 40.6092 40.9643 40.4773 41.1537 40.3031C41.3243 40.1445 41.4566 39.9469 41.5403 39.7261C41.6257 39.4941 41.6682 39.2475 41.6654 38.9992C41.6692 38.7239 41.6315 38.4497 41.5534 38.1864C41.4847 37.9558 41.3652 37.7448 41.2044 37.57C41.0308 37.3913 40.8182 37.2584 40.5845 37.1823C40.2894 37.0864 39.9812 37.041 39.6719 37.0479L37.1756 37.0485Z" fill="#D0D6EC"/>
<path d="M54.4956 40.2616H49.5328L48.5895 43.1493H45.5791L50.6927 29.1367H53.3154L58.4581 43.1493H55.4484L54.4956 40.2616ZM50.2968 37.9232H53.7316L52.0047 32.6783L50.2968 37.9232Z" fill="#D0D6EC"/>
<path d="M71.3378 43.1493H68.4998L62.9748 33.9293V43.1493H60.1387V29.1367H62.9761L68.5093 38.3768V29.1367H71.3378V43.1493Z" fill="#D0D6EC"/>
<path d="M78.4374 37.5293L76.9663 39.1443V43.1493H74.1367V29.1393H76.9663V35.4893L78.2113 33.7451L81.7109 29.1367H85.194L80.3176 35.3614L85.3359 43.1455H81.9686L78.4374 37.5293Z" fill="#D0D6EC"/>
<path d="M115.521 172.219L108.73 172.21V170.353C108.73 169.914 108.556 169.493 108.246 169.183C107.936 168.872 107.515 168.697 107.077 168.696L98.2306 168.685C97.7915 168.685 97.3704 168.859 97.0596 169.169C96.7487 169.479 96.5735 169.899 96.5724 170.338V172.196L89.783 172.187C89.5355 172.187 89.2903 172.236 89.0616 172.33C88.8328 172.424 88.6249 172.563 88.4496 172.738C88.2744 172.912 88.1354 173.12 88.0404 173.348C87.9454 173.577 87.8964 173.822 87.8961 174.069L87.8843 188.159C87.8839 188.406 87.9322 188.651 88.0266 188.88C88.121 189.109 88.2596 189.317 88.4345 189.492C88.6093 189.667 88.817 189.806 89.0456 189.901C89.2742 189.996 89.5193 190.045 89.7669 190.045L115.503 190.077C115.75 190.077 115.995 190.029 116.224 189.934C116.453 189.84 116.661 189.701 116.836 189.527C117.011 189.352 117.15 189.144 117.245 188.916C117.34 188.688 117.389 188.443 117.39 188.195L117.407 174.104C117.407 173.857 117.359 173.611 117.264 173.382C117.169 173.154 117.031 172.946 116.855 172.77C116.68 172.595 116.472 172.456 116.243 172.362C116.014 172.267 115.769 172.218 115.521 172.219ZM98.2166 170.34C98.2166 170.336 98.2182 170.332 98.221 170.329C98.2238 170.327 98.2276 170.325 98.2316 170.325L107.078 170.336C107.082 170.336 107.085 170.337 107.088 170.34C107.091 170.343 107.093 170.347 107.093 170.351V172.209L98.2166 172.197V170.34Z" fill="#D5652C"/>
<path d="M117.398 178.842L87.8921 178.806L87.8914 179.358L117.398 179.394L117.398 178.842Z" fill="#C5592D"/>
<path d="M110.642 150.565C111.104 150.5 111.609 150.277 112.094 150.061C112.546 149.86 113.015 149.652 113.412 149.594C118.52 148.85 123.148 147.939 127.233 147.135C128.306 146.92 129.351 146.717 130.381 146.52C139.675 144.731 144.949 143.751 145.002 143.744C144.949 143.751 139.632 144.415 130.33 146.207C129.301 146.405 128.251 146.611 127.18 146.823C123.099 147.626 118.481 148.54 113.377 149.279C112.932 149.343 112.442 149.561 111.969 149.771C111.495 149.982 111.024 150.191 110.609 150.248C109.266 150.434 109.298 150.75 110.642 150.565Z" fill="#2B295E"/>
<path d="M133.012 136.968C133.012 136.968 94.5885 150.835 94.1374 151.92L79.7467 186.183C75.8129 187.471 74.4705 190.077 74.4705 190.077H86.3911L87.3738 186.335H89.9705C104.696 172.703 106.271 161.969 106.329 158.325C106.334 157.959 106.48 157.61 106.737 157.349C106.994 157.088 107.342 156.936 107.708 156.925C110.031 156.853 105.59 156.701 121.486 156.4C137.874 156.088 143.189 141.029 143.189 141.029L133.012 136.968Z" fill="#151E23"/>
<path d="M77.0197 185.701L75.8706 190.077H63.95C63.95 190.077 66.928 184.296 77.0197 185.701Z" fill="#221E50"/>
<path d="M142.883 143.039C142.883 143.039 137.868 156.083 121.481 156.397C105.586 156.698 99.5058 156.85 97.1818 156.921C96.8159 156.933 96.4684 157.085 96.2118 157.346C95.9551 157.607 95.809 157.956 95.804 158.322C95.746 161.972 94.1716 172.706 79.4458 186.332H69.165L85.6306 145.244C86.0763 144.159 122.491 136.972 122.491 136.972L142.883 143.039Z" fill="#263238"/>
<path d="M77.8823 182.537L77.9704 182.562C81.1181 176.947 84.5085 170.168 87.654 162.969C88.1352 161.869 88.6206 160.733 89.1028 159.595C89.6322 158.34 90.1606 157.067 90.6739 155.809C90.8081 155.435 90.8926 155.044 90.9253 154.648C90.8329 154.514 90.7438 154.375 90.6535 154.237C90.6535 154.247 90.6535 154.258 90.6535 154.269C90.5988 154.774 90.5462 155.296 90.3861 155.682C89.8749 156.938 89.3466 158.211 88.8171 159.464C88.336 160.6 87.8506 161.734 87.3695 162.834C84.2261 170.021 81.0257 176.932 77.8823 182.537Z" fill="#2B295E"/>
<path d="M116.671 97.5154C114.399 94.1471 113.536 91.3755 113.536 91.3755L119.259 87.9985C121.28 92.2332 126.018 95.4051 126.018 95.4051C126.018 95.4051 116.695 97.5519 116.671 97.5154Z" fill="#EFA983"/>
<path d="M111.788 91.6481C111.788 91.6481 120.778 92.0592 120.947 86.4592C121.117 80.8592 122.392 77.1409 116.659 76.6418C110.927 76.1426 109.745 78.2519 109.234 80.1014C108.723 81.9509 109.453 91.3969 111.788 91.6481Z" fill="#FFBF9D"/>
<path d="M106.764 79.2319C107.398 78.5553 108.17 77.918 108.406 77.018C108.613 76.187 108.324 75.2377 108.764 74.5052C109.309 73.6052 110.656 73.5198 111.306 72.7117C111.634 72.3143 111.733 71.7822 112.045 71.3814C112.577 70.6982 113.562 70.5471 114.423 70.6686C115.283 70.7902 116.098 71.1318 116.961 71.2205C118.144 71.3486 119.382 71.0037 120.508 71.3847C121.75 71.8051 122.479 72.9449 123.257 74.0519L124.279 75.3395C124.488 75.5621 124.719 75.7634 124.968 75.9406C125.434 76.2001 125.874 76.5036 126.282 76.8472C126.47 77.0588 126.613 77.3063 126.703 77.5748C126.792 77.8432 126.827 78.1271 126.804 78.4092C126.781 78.6913 126.701 78.9658 126.569 79.2161C126.437 79.4665 126.255 79.6875 126.036 79.8659C126.485 80.039 126.867 80.3516 127.125 80.7578C127.383 81.1639 127.505 81.6423 127.471 82.1225C127.38 82.6423 127.224 83.1488 127.008 83.6302C126.793 84.118 126.758 84.6661 126.909 85.1773C127.103 85.6667 127.707 86.0214 128.177 85.7784C128.081 86.117 127.911 86.4298 127.678 86.6941C127.446 86.9584 127.157 87.1674 126.834 87.3058C127.075 87.5712 127.409 87.7345 127.766 87.7623C126.722 89.9861 124.065 91.0766 121.609 91.0011C119.152 90.9255 116.84 89.904 114.597 88.9054L108.051 86.9346C107.473 86.7802 107.26 86.0641 107.289 85.4696C107.319 84.8751 107.493 84.2608 107.289 83.6959C107.027 82.9239 106.153 82.4871 105.877 81.725C105.562 80.8513 106.127 79.9086 106.764 79.2319Z" fill="#263238"/>
<path d="M78.5559 131.152C79.0607 129.756 79.5579 127.661 79.5579 127.661C79.5579 127.661 76.1331 128.184 75.0603 128.13C74.9851 128.115 74.9091 128.106 74.8326 128.101C74.514 128.084 74.1971 128.158 73.9199 128.316C73.6428 128.475 73.4171 128.709 73.27 128.992L72.1553 131.152H78.5559Z" fill="#A05F32"/>
<path d="M136.607 101.923C136.233 101.354 135.865 100.801 135.511 100.271C133.607 97.4261 132.649 95.7129 131.215 94.4613C128.295 91.9055 122.682 92.5828 122.66 92.586C122.66 92.586 120.405 93.3782 119.346 93.6369C117.915 93.9807 116.506 94.4068 115.125 94.9132C114.982 94.9519 106.405 97.293 105.62 100.454C104.29 105.808 95.687 123.599 95.687 123.599C95.687 123.599 82.832 126.448 79.1162 127.769L78.3516 131.152L100.045 131.125C100.045 131.125 106.639 124.489 110.407 118.632L110.449 118.749C111.308 121.167 112.148 123.598 112.819 125.869C114.602 131.91 116.052 137.227 119.585 137.945C121.779 138.392 123.68 138.776 125.331 139.09C138.023 141.512 135.844 139.811 138.289 130.335C139.241 126.65 139.174 122.969 138.504 119.412C139.233 119.143 139.937 118.859 140.589 118.553C141.4 118.196 142.17 117.754 142.887 117.234C145.108 115.542 140.521 107.878 136.607 101.923Z" fill="#597EF7"/>
<path opacity="0.2" d="M142.883 117.239C142.166 117.759 141.396 118.202 140.585 118.559C137.671 112.24 135.826 103.745 135.085 99.8898C135.571 100.534 136.083 101.217 136.607 101.923C140.521 107.878 145.108 115.542 142.883 117.239Z" fill="#3959C2"/>
<path opacity="0.2" d="M125.323 139.09C123.672 138.776 121.771 138.392 119.577 137.945C116.046 137.227 114.596 131.91 112.811 125.87C112.14 123.598 111.297 121.167 110.441 118.75C110.798 117.643 111.446 116.668 112.615 116.333C115.268 115.574 125.286 134.391 125.323 139.09Z" fill="#3959C2"/>
<path d="M132.834 186.973H116.679V162.244H112.149V186.973H95.3395C94.9455 186.968 94.5634 187.108 94.2646 187.365C93.9658 187.621 93.7707 187.978 93.7157 188.368C93.6887 188.592 93.7095 188.819 93.7766 189.034C93.8437 189.249 93.9556 189.448 94.1051 189.617C94.2545 189.786 94.438 189.921 94.6436 190.014C94.8491 190.107 95.072 190.156 95.2976 190.156H132.873C133.099 190.155 133.322 190.107 133.527 190.014C133.733 189.921 133.916 189.786 134.066 189.617C134.215 189.448 134.327 189.249 134.394 189.034C134.461 188.819 134.482 188.592 134.455 188.368C134.4 187.978 134.205 187.622 133.907 187.365C133.609 187.109 133.227 186.969 132.834 186.973Z" fill="#7A7A7A"/>
<path d="M154.779 128.076C152.831 140.192 150.039 157.442 149.566 159.75C149.005 162.49 144.747 163.104 135.176 163.104C132.153 163.104 128.599 163.043 124.464 162.968C107.235 162.656 101.019 163.104 101.019 163.104C101.019 163.104 96.1941 154.211 124.464 157.13C127.686 157.462 129.089 141.151 129.688 128.57C129.776 126.715 130.233 124.895 131.032 123.218C131.831 121.541 132.957 120.039 134.343 118.802C135.729 117.564 137.348 116.615 139.106 116.009C140.863 115.404 142.723 115.155 144.578 115.276C146.116 115.377 147.616 115.798 148.982 116.512C150.347 117.226 151.549 118.217 152.509 119.422C153.47 120.627 154.168 122.019 154.559 123.509C154.95 124.999 155.025 126.555 154.78 128.076H154.779Z" fill="#E8E8E8"/>
<path d="M154.78 128.075C152.832 140.192 150.039 157.442 149.567 159.75C149.005 162.49 144.747 163.104 135.176 163.104H101.014C101.014 163.104 96.1892 154.211 124.459 157.129C135.021 159.289 132.824 129.591 133.064 127.123C133.303 124.655 137.8 118.508 142.882 117.239C147.964 115.97 152.932 119.991 152.932 119.991C154.578 122.342 155.242 125.243 154.78 128.075Z" fill="white"/>
</g>
<defs>
<clipPath id="clip0_45_3043">
<rect width="179.118" height="190.16" fill="white"/>
</clipPath>
</defs>
</svg>
