<?xml version="1.0" encoding="UTF-8"?>
<svg width="48px" height="48px" viewBox="0 0 48 48" version="1.1" xmlns="http://www.w3.org/2000/svg" xmlns:xlink="http://www.w3.org/1999/xlink">
    <!-- Generator: Sketch 55.2 (78181) - https://sketchapp.com -->
    <title>standard chartered</title>
    <desc>Created with Sketch.</desc>
    <g id="standard-chartered" stroke="none" stroke-width="1" fill="none" fill-rule="evenodd">
        <g id="Standard_Chartered" transform="translate(9.000000, 1.000000)" fill-rule="nonzero">
            <path d="M9.54094118,44.2580882 C8.34088235,44.9731176 7.25108824,45.3999706 6.10852941,45.3999706 C3.14897059,45.3999706 0.676470588,42.9761765 0.533735294,40.0626176 L6.29861765,36.6275 L15.2611765,40.6349118 L9.54094118,44.2580882" id="Path" fill="#78ADD2"></path>
            <path d="M12.9686176,29.5008824 L8.68723529,27.6148824 C6.7735,26.7591471 4.96732353,26.0475 4.96732353,23.9409706 C4.96732353,22.8505 5.29879412,22.2782059 5.82170588,21.7086176 L14.8796471,25.7011471 L12.6337647,26.9972647 C12.0154706,27.3774412 11.5872647,27.7102647 11.5872647,28.1865 C11.5865882,28.7026471 12.1744412,29.141 12.9686176,29.5008824" id="Path" fill="#A4D0A0"></path>
            <path d="M17.1755882,9.73914706 L12.7846176,12.4030882 C12.3956471,12.6385 11.8740882,13.0186765 11.8740882,13.6031471 C11.8740882,14.2674412 12.8874412,14.7768235 13.7878235,15.2057059 L8.29488235,12.7819118 C6.67608824,12.0695882 5.06202941,11.2605294 5.06202941,9.30958824 C5.06202941,8.48970588 5.29947059,7.82608824 5.67964706,7.2565 L17.5544118,0 C18.9777059,0.807029412 20.3583824,2.43867647 20.3583824,4.62773529 C20.3583824,6.96967647 19.1718529,8.53841176 17.1755882,9.73914706" id="Path" fill="#78ADD2"></path>
            <path d="M26.5135882,18.3208529 L25.4231176,18.9377941 L16.3523235,14.9337647 L26.8964706,8.58644118 C28.3197647,9.40767647 29.7139706,11.0230882 29.7139706,13.2101176 C29.7139706,15.5527353 28.5599118,17.1674706 26.5135882,18.3208529" id="Path" fill="#A4D0A0"></path>
            <path d="M18.8566176,26.0217941 L24.2223824,28.3786176 C26.2328529,29.2796765 26.8504706,30.3363235 26.8504706,31.6716765 C26.8504706,32.4306765 26.4222647,33.1923824 25.806,33.7152941 L16.7832353,29.7078824 L18.3100294,28.8521471 C19.6007353,28.1384706 20.0296176,27.7102647 20.0296176,27.2347059 C20.0289412,26.7422353 19.7279118,26.4168529 18.8566176,26.0217941" id="Path" fill="#78ADD2"></path>
            <path d="M28.4192059,45.8275 C26.1367941,44.0686765 23.7015,42.8801176 20.7412647,41.5366471 L7.05897059,35.4835882 C3.62114706,33.9507059 1.34144118,31.9091176 1.34144118,28.4726471 C1.34144118,25.1322353 2.95955882,23.5141176 5.06135294,22.1855294 L5.82102941,21.7092941 C5.29879412,22.2788824 4.96664706,22.8511765 4.96664706,23.9416471 C4.96664706,26.0475 6.77282353,26.7598235 8.68655882,27.6155588 L24.6039118,34.6298824 C27.3733824,35.8191176 29.9067652,37.8634118 29.9067652,41.3465588 C29.9074412,43.2602941 29.1788824,44.9724412 28.4192059,45.8275" id="Path" fill="#21AA47"></path>
            <path d="M26.8037941,33.0956471 L25.8053235,33.7159706 C26.4215882,33.1930588 26.8497941,32.4313529 26.8497941,31.671 C26.8497941,30.3376765 26.2301471,29.2803529 24.2217059,28.3792941 L7.20102941,20.8880588 C3.76523529,19.3687059 1.62555882,17.4069412 1.62555882,13.9846765 C1.62555882,10.8343529 3.19429412,8.77652941 5.67897059,7.25785294 C5.29811765,7.82744118 5.06135294,8.49105882 5.06135294,9.31094118 C5.06135294,11.2618824 6.67608824,12.0709412 8.29420588,12.7832647 L24.8393235,20.0810294 C27.8469118,21.4136765 30.2828826,23.4214412 30.2828826,27.0946765 C30.2835588,29.9581765 28.9434706,31.7643529 26.8037941,33.0956471" id="Path" fill="#0072AA"></path>
        </g>
    </g>
</svg>