<?xml version="1.0" encoding="UTF-8"?>
<svg width="24px" height="24px" viewBox="0 0 24 24" version="1.1" xmlns="http://www.w3.org/2000/svg" xmlns:xlink="http://www.w3.org/1999/xlink">
    <title>A1F58CBF-6206-44CD-AE47-B6EFCF1E8E4F@2x</title>
    <g id="Final---Credit-plus-with-Old-bureau-Dashboard-design" stroke="none" stroke-width="1" fill="none" fill-rule="evenodd">
        <g id="Desktop---Rectification-(active)" transform="translate(-474.000000, -597.000000)">
            <g id="Group-71" transform="translate(442.000000, 559.000000)">
                <g id="Group-91" transform="translate(24.000000, 32.382166)">
                    <g id="Group-28" transform="translate(8.000000, 5.617834)">
                        <g id="Group-25">
                            <circle id="Oval" fill="#FFDBDD" cx="12" cy="12" r="12"></circle>
                            <circle id="Oval-Copy" fill="#FF6F6F" cx="12.2" cy="12.2" r="7.2"></circle>
                        </g>
                        <path d="M12.6186466,12.9728889 L11.2977444,12.9728889 L11.0216541,8 L12.8947368,8 L12.6186466,12.9728889 Z M11,14.7136545 C11,14.3946838 11.0929323,14.1707257 11.278797,14.0417801 C11.4646617,13.9128345 11.6893233,13.8483617 11.952782,13.8483617 C12.2090226,13.8483617 12.4300752,13.9128345 12.6159398,14.0417801 C12.8018045,14.1707257 12.8947368,14.3946838 12.8947368,14.7136545 C12.8947368,15.019052 12.8018045,15.2396168 12.6159398,15.3753491 C12.4300752,15.5110813 12.2090226,15.5789474 11.952782,15.5789474 C11.6893233,15.5789474 11.4646617,15.5110813 11.278797,15.3753491 C11.0929323,15.2396168 11,15.019052 11,14.7136545 Z" id="Shape" fill="#FFFFFF" fill-rule="nonzero"></path>
                    </g>
                </g>
            </g>
        </g>
    </g>
</svg>