<?xml version="1.0" encoding="UTF-8"?>
<svg width="161px" height="159px" viewBox="0 0 161 159" version="1.1" xmlns="http://www.w3.org/2000/svg" xmlns:xlink="http://www.w3.org/1999/xlink">
    <title>FF0B8CE0-38E6-46D6-B4B4-1DE2F40BD02C@2x</title>
    <defs>
        <linearGradient x1="42.3562177%" y1="0.817476017%" x2="55.7458984%" y2="91.1066393%" id="linearGradient-1">
            <stop stop-color="#E38DDD" offset="0%"></stop>
            <stop stop-color="#9571F6" offset="100%"></stop>
        </linearGradient>
        <linearGradient x1="116.785188%" y1="316.667835%" x2="107.397975%" y2="279.702237%" id="linearGradient-2">
            <stop stop-color="#AA80F9" offset="0%"></stop>
            <stop stop-color="#6165D7" offset="100%"></stop>
        </linearGradient>
        <linearGradient x1="-0.85363092%" y1="44.714003%" x2="145.963258%" y2="78.3135832%" id="linearGradient-3">
            <stop stop-color="#FF9085" offset="0%"></stop>
            <stop stop-color="#FB6FBB" offset="100%"></stop>
        </linearGradient>
        <linearGradient x1="43.3580896%" y1="75.0224211%" x2="55.0302897%" y2="8.35329456%" id="linearGradient-4">
            <stop stop-color="#AA80F9" offset="0%"></stop>
            <stop stop-color="#6165D7" offset="100%"></stop>
        </linearGradient>
        <linearGradient x1="63.8193228%" y1="10.0294041%" x2="34.4397496%" y2="102.393318%" id="linearGradient-5">
            <stop stop-color="#AA80F9" offset="0%"></stop>
            <stop stop-color="#6165D7" offset="100%"></stop>
        </linearGradient>
        <linearGradient x1="121.075028%" y1="-9.87236498%" x2="101.813558%" y2="7.75794945%" id="linearGradient-6">
            <stop stop-color="#AA80F9" offset="0%"></stop>
            <stop stop-color="#6165D7" offset="100%"></stop>
        </linearGradient>
        <linearGradient x1="65.1327276%" y1="4.74545606%" x2="42.4997015%" y2="70.1554864%" id="linearGradient-7">
            <stop stop-color="#FFFFFF" offset="0%"></stop>
            <stop stop-color="#EBEFF2" offset="100%"></stop>
        </linearGradient>
        <linearGradient x1="45.0842283%" y1="-0.663694232%" x2="68.804735%" y2="192.787629%" id="linearGradient-8">
            <stop stop-color="#FFC444" offset="0%"></stop>
            <stop stop-color="#F36F56" offset="100%"></stop>
        </linearGradient>
        <linearGradient x1="47.3172724%" y1="44.5258646%" x2="105.226623%" y2="118.892129%" id="linearGradient-9">
            <stop stop-color="#E38DDD" offset="0%"></stop>
            <stop stop-color="#9571F6" offset="100%"></stop>
        </linearGradient>
        <linearGradient x1="27.5307163%" y1="2.56571369%" x2="93.8169478%" y2="130.432506%" id="linearGradient-10">
            <stop stop-color="#AA80F9" offset="0%"></stop>
            <stop stop-color="#6165D7" offset="100%"></stop>
        </linearGradient>
        <linearGradient x1="91.2544309%" y1="-10.496258%" x2="30.5507169%" y2="79.7030294%" id="linearGradient-11">
            <stop stop-color="#FF9085" offset="0%"></stop>
            <stop stop-color="#FB6FBB" offset="100%"></stop>
        </linearGradient>
        <linearGradient x1="102.085498%" y1="18.2227217%" x2="33.3891849%" y2="60.8799355%" id="linearGradient-12">
            <stop stop-color="#FF9085" offset="0%"></stop>
            <stop stop-color="#FB6FBB" offset="100%"></stop>
        </linearGradient>
        <linearGradient x1="-13.9860929%" y1="98.6105029%" x2="65.2805632%" y2="36.2878107%" id="linearGradient-13">
            <stop stop-color="#FF9085" offset="0%"></stop>
            <stop stop-color="#FB6FBB" offset="100%"></stop>
        </linearGradient>
        <linearGradient x1="-29.7655009%" y1="11.5977307%" x2="87.4798437%" y2="61.2297153%" id="linearGradient-14">
            <stop stop-color="#444B8C" offset="0%"></stop>
            <stop stop-color="#26264F" offset="100%"></stop>
        </linearGradient>
        <linearGradient x1="47.7153933%" y1="120.109054%" x2="51.0006946%" y2="-21.292471%" id="linearGradient-15">
            <stop stop-color="#FFC444" offset="0%"></stop>
            <stop stop-color="#F36F56" offset="100%"></stop>
        </linearGradient>
        <linearGradient x1="6098.26159%" y1="966.79542%" x2="6231.45404%" y2="1044.18408%" id="linearGradient-16">
            <stop stop-color="#444B8C" offset="0%"></stop>
            <stop stop-color="#26264F" offset="100%"></stop>
        </linearGradient>
        <linearGradient x1="-23.217985%" y1="-5.60772248%" x2="86.3157326%" y2="66.0633194%" id="linearGradient-17">
            <stop stop-color="#444B8C" offset="0%"></stop>
            <stop stop-color="#26264F" offset="100%"></stop>
        </linearGradient>
        <linearGradient x1="41.5510411%" y1="115.882072%" x2="56.7312573%" y2="-17.9624807%" id="linearGradient-18">
            <stop stop-color="#FFC444" offset="0%"></stop>
            <stop stop-color="#F36F56" offset="100%"></stop>
        </linearGradient>
        <linearGradient x1="-78.0919148%" y1="-32.301215%" x2="57.9377247%" y2="49.0480932%" id="linearGradient-19">
            <stop stop-color="#444B8C" offset="0%"></stop>
            <stop stop-color="#26264F" offset="100%"></stop>
        </linearGradient>
        <linearGradient x1="0%" y1="49.9985998%" x2="100.002061%" y2="49.9985998%" id="linearGradient-20">
            <stop stop-color="#311944" offset="0%"></stop>
            <stop stop-color="#6B3976" offset="100%"></stop>
        </linearGradient>
        <linearGradient x1="0%" y1="49.9985998%" x2="99.9813127%" y2="49.9985998%" id="linearGradient-21">
            <stop stop-color="#311944" offset="0%"></stop>
            <stop stop-color="#6B3976" offset="100%"></stop>
        </linearGradient>
        <linearGradient x1="68.7504911%" y1="61.1088272%" x2="45.4501123%" y2="49.5084278%" id="linearGradient-22">
            <stop stop-color="#311944" offset="0%"></stop>
            <stop stop-color="#5C3169" offset="74%"></stop>
            <stop stop-color="#6B3976" offset="100%"></stop>
        </linearGradient>
        <linearGradient x1="57.3839978%" y1="52.1674224%" x2="-21.2300659%" y2="24.3075851%" id="linearGradient-23">
            <stop stop-color="#FFC444" offset="0%"></stop>
            <stop stop-color="#F78E50" offset="64%"></stop>
            <stop stop-color="#F36F56" offset="100%"></stop>
        </linearGradient>
        <linearGradient x1="51.979443%" y1="16.8347054%" x2="41.0906602%" y2="141.097031%" id="linearGradient-24">
            <stop stop-color="#FFC444" offset="0%"></stop>
            <stop stop-color="#F36F56" offset="100%"></stop>
        </linearGradient>
        <linearGradient x1="-6.56057661e-05%" y1="49.9968453%" x2="100.00699%" y2="49.9968453%" id="linearGradient-25">
            <stop stop-color="#FF9085" offset="0%"></stop>
            <stop stop-color="#FB6FBB" offset="100%"></stop>
        </linearGradient>
        <linearGradient x1="24.2082531%" y1="25.4451183%" x2="100.027519%" y2="190.286387%" id="linearGradient-26">
            <stop stop-color="#FFC444" offset="0%"></stop>
            <stop stop-color="#F36F56" offset="100%"></stop>
        </linearGradient>
        <linearGradient x1="-89.3055781%" y1="-349.220397%" x2="457.280685%" y2="1266.20897%" id="linearGradient-27">
            <stop stop-color="#FFC444" offset="0%"></stop>
            <stop stop-color="#F36F56" offset="100%"></stop>
        </linearGradient>
        <linearGradient x1="14.7685757%" y1="25.269744%" x2="57.3518453%" y2="79.024843%" id="linearGradient-28">
            <stop stop-color="#FF9085" offset="0%"></stop>
            <stop stop-color="#FB6FBB" offset="100%"></stop>
        </linearGradient>
        <linearGradient x1="-0.00205595486%" y1="49.9906136%" x2="99.9844399%" y2="49.9906136%" id="linearGradient-29">
            <stop stop-color="#FF9085" offset="0%"></stop>
            <stop stop-color="#FB6FBB" offset="100%"></stop>
        </linearGradient>
        <linearGradient x1="95.7439318%" y1="3.7234058%" x2="-2.57789426%" y2="101.425456%" id="linearGradient-30">
            <stop stop-color="#311944" offset="0%"></stop>
            <stop stop-color="#A03976" offset="100%"></stop>
        </linearGradient>
        <linearGradient x1="106.251857%" y1="-11.8849512%" x2="-147.594692%" y2="225.362096%" id="linearGradient-31">
            <stop stop-color="#FFC444" offset="0%"></stop>
            <stop stop-color="#F36F56" offset="100%"></stop>
        </linearGradient>
        <linearGradient x1="40.727463%" y1="164.303055%" x2="65.0438649%" y2="-167.83708%" id="linearGradient-32">
            <stop stop-color="#FFC444" offset="0%"></stop>
            <stop stop-color="#F36F56" offset="100%"></stop>
        </linearGradient>
        <linearGradient x1="73.9121467%" y1="211.27964%" x2="-1.77008135%" y2="-262.558982%" id="linearGradient-33">
            <stop stop-color="#AA80F9" offset="0%"></stop>
            <stop stop-color="#6165D7" offset="100%"></stop>
        </linearGradient>
        <linearGradient x1="43.2269498%" y1="103.955062%" x2="80.6509223%" y2="-470.242391%" id="linearGradient-34">
            <stop stop-color="#FFC444" offset="0%"></stop>
            <stop stop-color="#F36F56" offset="100%"></stop>
        </linearGradient>
        <linearGradient x1="66.1221831%" y1="115.81715%" x2="-3.34052666%" y2="-147.54645%" id="linearGradient-35">
            <stop stop-color="#AA80F9" offset="0%"></stop>
            <stop stop-color="#6165D7" offset="100%"></stop>
        </linearGradient>
        <linearGradient x1="35.0991264%" y1="228.820031%" x2="72.4946984%" y2="-345.269772%" id="linearGradient-36">
            <stop stop-color="#FFC444" offset="0%"></stop>
            <stop stop-color="#F36F56" offset="100%"></stop>
        </linearGradient>
        <linearGradient x1="44.5126016%" y1="100.185547%" x2="58.987896%" y2="-19.271852%" id="linearGradient-37">
            <stop stop-color="#444B8C" offset="0%"></stop>
            <stop stop-color="#26264F" offset="100%"></stop>
        </linearGradient>
        <linearGradient x1="41.0335236%" y1="97.3998295%" x2="54.5681313%" y2="-22.0588235%" id="linearGradient-38">
            <stop stop-color="#444B8C" offset="0%"></stop>
            <stop stop-color="#26264F" offset="100%"></stop>
        </linearGradient>
        <linearGradient x1="70.1404213%" y1="21.2491468%" x2="20.7163736%" y2="65.7784741%" id="linearGradient-39">
            <stop stop-color="#FFC444" offset="0%"></stop>
            <stop stop-color="#F36F56" offset="100%"></stop>
        </linearGradient>
        <linearGradient x1="96.048325%" y1="-55.8865333%" x2="43.9074581%" y2="79.0366141%" id="linearGradient-40">
            <stop stop-color="#FFC444" offset="0%"></stop>
            <stop stop-color="#F36F56" offset="100%"></stop>
        </linearGradient>
        <linearGradient x1="52.092382%" y1="71.5333188%" x2="-1.83891087%" y2="17.1953301%" id="linearGradient-41">
            <stop stop-color="#FFC444" offset="0%"></stop>
            <stop stop-color="#F36F56" offset="100%"></stop>
        </linearGradient>
        <linearGradient x1="7.10133863%" y1="161.670289%" x2="45.5811327%" y2="3.93328959%" id="linearGradient-42">
            <stop stop-color="#444B8C" offset="0%"></stop>
            <stop stop-color="#3E4177" offset="100%"></stop>
        </linearGradient>
        <linearGradient x1="176.14137%" y1="116.294488%" x2="-39.5115901%" y2="8.83463027%" id="linearGradient-43">
            <stop stop-color="#FFC444" offset="0%"></stop>
            <stop stop-color="#F36F56" offset="100%"></stop>
        </linearGradient>
        <linearGradient x1="166.166852%" y1="107.981993%" x2="10.0782837%" y2="22.1202263%" id="linearGradient-44">
            <stop stop-color="#444B8C" offset="0%"></stop>
            <stop stop-color="#3E4177" offset="100%"></stop>
        </linearGradient>
    </defs>
    <g id="Final---Revamp-Bureaus---Mobile-&amp;-Desktop--Copy-3" stroke="none" stroke-width="1" fill="none" fill-rule="evenodd">
        <g id="Desktop----Dashboard" transform="translate(-1078.000000, -2023.000000)" fill-rule="nonzero">
            <g id="Group-30" transform="translate(442.000000, 1902.000000)">
                <g id="Group-31" transform="translate(585.000000, 72.000000)">
                    <g id="Illustration" transform="translate(51.000000, 49.000000)">
                        <path d="M82.0076614,0.0343130027 C43.4133968,-1.13025305 9.98276262,27.4854226 4.93231659,65.0348978 C-0.590097807,106.089537 29.8037853,143.028611 67.2024701,148.945349 C113.719649,156.304009 158.839055,113.72992 154.788039,67.5469317 C151.734805,32.7508117 121.240924,1.21798821 82.0076614,0.0343130027 Z" id="Path" fill="#F8ECFF"></path>
                        <path d="M63.1728823,140.790657 C65.2338291,134.549609 67.3315883,125.021788 64.8761441,114.44351 C62.0564216,102.29719 55.8103957,99.8659602 50.2011699,86.8832052 C42.1952898,68.3489699 51.2560933,54.9234288 42.9678015,49.2589314 C38.926126,46.4962946 32.5702122,46.4941107 28.6521606,49.267667 C17.4716203,57.1799461 20.5363927,91.6457508 38.2755899,105.094769 C46.2974036,111.177484 53.2978098,110.45625 59.319115,118.327035 C64.6360391,125.282219 64.2190147,134.457885 63.1728823,140.790657 Z" id="Path" fill="url(#linearGradient-1)"></path>
                        <g id="Group" style="mix-blend-mode: soft-light;" transform="translate(23.138678, 43.864692)" fill="#FFFFFF">
                            <path d="M41.294618,81.2220672 C40.6219132,78.5950284 39.7233916,76.0302555 38.6089587,73.5560231 C36.057912,67.8975315 33.2420356,64.7849244 29.6772734,60.8446181 C27.3509474,58.2725268 24.7136388,55.3575629 21.6664485,51.1781193 C15.9649169,43.3586561 14.194074,40.6113066 12.6100405,36.1834441 C9.4727421,27.4210809 9.95460036,19.5644914 10.5221712,15.6618574 C11.3235241,10.1299195 13.2112813,4.80843736 16.0781014,0 L16.2500759,0.10155147 C13.3964,4.88707844 11.5172236,10.1833507 10.7194199,15.6891562 C10.1551457,19.5743189 9.6754852,27.3943281 12.7984982,36.1162891 C14.375389,40.5206746 16.140188,43.2598345 21.8285331,51.0607345 C24.8696796,55.2319885 27.5025927,58.1425846 29.8261715,60.7108541 C33.4024719,64.6642637 36.2271393,67.7872445 38.7913725,73.4741268 C39.9105152,75.9587712 40.8128953,78.5343163 41.48857,81.1723834 L41.294618,81.2220672 Z" id="Path"></path>
                            <path d="M11.0782037,29.9931722 L10.9331518,29.9150977 C10.9001854,29.8970805 7.58926418,28.0888091 4.64756618,24.4083873 C1.93113828,21.0102349 -1.02044963,15.2758526 0.344357587,7.25164855 L0.541606295,7.28495307 C-0.810563819,15.2365424 2.11300269,20.918511 4.80415638,24.2849968 C7.37333454,27.4986095 10.2199795,29.2697545 10.8848011,29.6584891 C11.0688633,23.2476431 15.2039434,19.0938603 18.6582683,16.7314237 C22.4257736,14.1549646 26.2174542,13.0979558 26.2553655,13.0875822 L26.3103094,13.2792197 C26.2723981,13.2895932 22.5087389,14.3395044 18.7687056,16.8984923 C15.3253695,19.2543772 11.1968826,23.4103438 11.0825992,29.8293795 L11.0782037,29.9931722 Z" id="Path"></path>
                            <path d="M12.021591,50.6086667 C8.67330792,50.6086667 4.73822366,49.7897032 1.10478158,46.9806585 L1.22730654,46.8234175 C9.38483181,53.1327121 19.0840838,49.2841298 20.0439542,48.8779239 C18.3956363,42.5489742 19.8538482,37.8797904 21.3703007,35.0729296 C23.0219152,32.015466 25.1031913,30.44524 25.12407,30.4321366 L25.2443972,30.5910155 C25.2235185,30.6063029 23.1724616,32.1568737 21.5422752,35.177211 C20.0384598,37.9616868 18.5956322,42.6073936 20.2593344,48.9117744 L20.2807625,48.9925788 L20.2043905,49.0269752 C20.1439522,49.0526361 16.6407272,50.6086667 12.021591,50.6086667 Z" id="Path"></path>
                            <path d="M19.4917677,62.6812802 C16.9802807,62.6812802 13.9742983,62.2281204 10.4765677,60.958727 L10.545797,60.7714574 C21.9999581,64.9301539 28.124558,60.2697058 28.7553143,59.7504829 C25.9663604,53.2681141 29.8937525,42.7831977 29.9338616,42.6778244 L30.1212204,42.7482553 C30.0811113,42.8530826 26.1548181,53.335815 28.9673979,59.7390174 L28.9959687,59.8039885 L28.9410248,59.8520344 C28.8998168,59.8935285 25.7202116,62.6812802 19.4917677,62.6812802 Z" id="Path"></path>
                        </g>
                        <path d="M69.5617624,131.006227 C70.2595503,126.81368 70.660641,120.26634 67.226096,114.408568 C61.2372076,104.193363 50.3143544,107.583872 39.8612717,96.6376062 C31.4306751,87.8157316 34.0877635,80.9522718 24.7456471,75.0857634 C23.1819429,74.1030073 14.9200242,68.7005782 8.77564448,71.9551391 C5.3141769,73.7890713 4.05925754,77.5541194 3.82354808,78.2611578 C0.264280303,88.9431714 11.2140561,105.669135 25.4862913,113.317162 C33.6861234,117.712266 36.3316736,116.275804 50.7604991,121.401424 C57.4220053,123.775227 63.7426447,127.004185 69.5617624,131.006227 Z" id="Path" fill="url(#linearGradient-2)"></path>
                        <g id="Group" style="mix-blend-mode: soft-light;" transform="translate(0.000000, 67.057738)" fill="#FFFFFF">
                            <path d="M70.7721772,68.9954886 C68.6843079,59.0265192 64.7283449,52.3334037 59.0224178,49.1017739 C56.23731,47.5255422 54.0120808,47.2749394 51.6560851,47.0101412 C49.0836103,46.7207741 46.4237747,46.4215794 42.9051654,44.3075617 C39.4810597,42.2503255 38.2569089,40.2738936 36.7069407,37.7722332 C35.3289469,35.5490204 33.6146963,32.7820158 29.7675223,29.0977721 C26.3950639,25.8677802 23.9379714,24.3554277 21.7704333,23.0210632 C19.3985039,21.5611243 17.5249159,20.4080237 15.3502351,17.576048 C11.8063517,12.9614619 9.95474122,7.04963756 9.84595224,0.00327585389 L10.0459481,0 C10.155836,7.00268366 11.9920621,12.8757437 15.5090231,17.4553874 C17.6617263,20.2578804 19.51993,21.4027914 21.8759257,22.8518107 C24.0522547,24.191635 26.5186878,25.7099932 29.9065305,28.9547265 C33.7712865,32.6564414 35.4937787,35.4354575 36.8772669,37.6684979 C38.4156969,40.1472273 39.6244634,42.105096 43.00846,44.1372173 C46.4897074,46.22885 49.1275655,46.5258608 51.6786121,46.812498 C54.0554865,47.0800261 56.3004955,47.3322668 59.1213169,48.9292456 C64.8810891,52.1898122 68.8672712,58.9276976 70.968327,68.9550864 L70.7721772,68.9954886 Z" id="Path"></path>
                            <path d="M21.89131,23.6352858 C14.5612403,23.6352858 9.08937432,20.8437123 5.74438787,18.4485171 C1.97633316,15.7503055 0.0192303755,12.9565481 0,12.9287033 L0.16483179,12.8156864 C0.184062165,12.8435311 2.12578065,15.6138116 5.86801171,18.2918221 C9.29926013,20.7487125 14.9887041,23.6216364 22.6341519,23.4272691 C22.1885566,22.0077324 18.3358883,9.11124161 23.2934791,3.58323818 L23.4429266,3.71536428 C18.2946803,9.45575224 22.8182141,23.3519244 22.864367,23.4916942 L22.9061244,23.6178146 L22.7726106,23.6221824 C22.4759134,23.630918 22.1821465,23.6352858 21.89131,23.6352858 Z" id="Path"></path>
                            <path d="M21.3281347,35.4862332 C16.6397692,35.4862332 10.6596718,34.5275 4.65979469,30.9546353 L4.76253984,30.7842909 C12.2299694,35.2323545 19.6677291,35.6047099 24.5912547,35.1335329 C29.4928027,34.6645398 32.9399848,33.2919571 33.495468,33.0588255 C31.5059483,25.7733264 33.2756923,15.4936969 33.2954721,15.3899616 L33.4927208,15.424358 C33.4745893,15.5280934 31.6971532,25.8426653 33.7124965,33.0899461 L33.735573,33.1723884 L33.6570031,33.2067849 C33.6207401,33.2231641 29.9790565,34.817413 24.611584,35.3306301 C23.6121539,35.4250839 22.5110775,35.4862332 21.3281347,35.4862332 Z" id="Path"></path>
                            <path d="M27.6878946,52.4065645 C27.330759,52.4065645 26.9695943,52.4025607 26.6044003,52.394553 L26.6087958,52.1958179 C40.1859903,52.4868229 48.3116481,47.215974 49.2275634,46.5902859 C43.7194345,39.796165 45.8759837,28.6992099 45.8985107,28.5872849 L46.0946605,28.6260492 C46.0721335,28.7352443 43.9166832,39.8349292 49.4500863,46.5471538 L49.5171179,46.6279582 L49.4319548,46.6901995 C49.3517367,46.7464349 41.4464041,52.4065645 27.6878946,52.4065645 Z" id="Path"></path>
                        </g>
                        <path d="M69.7090122,127.444828 C66.2244067,124.949427 62.4022181,122.956177 58.3559479,121.524268 C49.168224,118.287724 44.9573212,120.197001 41.0678404,116.337499 C37.0415492,112.34205 39.6491881,108.406657 34.8289572,103.943852 C34.423471,103.568767 29.2477528,98.9017672 24.5654311,100.639608 C21.289674,101.855495 20.0144253,105.553388 19.4160859,107.287953 C17.0930566,114.021471 18.4435784,124.280899 25.6725512,129.341547 C32.5262571,134.139581 41.2035519,131.853035 43.9584405,131.107233 C48.7935064,129.799621 49.9363401,127.928016 54.8499758,126.744341 C60.8251281,125.305149 66.1953479,126.37144 69.7090122,127.444828 Z" id="Path" fill="url(#linearGradient-3)"></path>
                        <path d="M100.719366,131.577318 C98.2963389,126.261153 95.5233187,118.045311 96.670548,108.467261 C97.9892023,97.4685811 103.271512,94.7266914 106.971985,82.7228708 C112.253745,65.5879711 102.953386,54.5931135 109.727424,48.7986739 C113.031202,45.97325 118.644823,45.3650331 122.373868,47.4413785 C133.01321,53.3646683 133.637373,84.1009133 119.26569,97.6711381 C112.766922,103.808996 106.513753,103.840663 101.958352,111.366391 C97.9293134,118.018013 99.1836834,126.083711 100.719366,131.577318 Z" id="Path" fill="url(#linearGradient-4)"></path>
                        <g id="Group" opacity="0.5" style="mix-blend-mode: soft-light;" transform="translate(97.902940, 43.671963)" fill="#FFFFFF">
                            <path d="M0.196699269,74.1555044 L0,74.1282056 C0.342216544,71.7327671 0.890739161,69.3709416 1.63952687,67.0687405 C3.3554258,61.7989836 5.54988636,58.7699107 8.32785145,54.9366156 C10.1316607,52.4469667 12.1739265,49.6248186 14.459594,45.6512078 C18.7298363,38.2188413 20.0237658,35.6314627 20.9913284,31.5917889 C22.9066738,23.5921537 21.7281265,16.7325157 20.8556169,13.3562023 C19.6191577,8.57010581 17.4482129,4.07212112 14.4661873,0.11793074 L14.6255247,0 C17.6228759,3.97480955 19.8050126,8.49614915 21.0479207,13.3070645 C21.9270235,16.701941 23.1099664,23.5976135 21.184731,31.6387428 C20.211674,35.7024395 18.9138984,38.2996457 14.632118,45.7500294 C12.3437033,49.7329217 10.295943,52.5594377 8.48883717,55.0534544 C5.72131142,58.875284 3.53509245,61.8907075 1.82853399,67.1304357 C1.08326889,69.4214037 0.53731923,71.7717238 0.196699269,74.1555044 L0.196699269,74.1555044 Z" id="Path"></path>
                            <path d="M21.9215291,26.0397625 L21.9011999,25.8759698 C21.1803355,20.2196621 17.1326162,16.9438082 13.8640018,15.1923184 C10.314624,13.2906852 6.89491376,12.7234165 6.86084853,12.7179567 L6.892716,12.5230434 C6.92733068,12.5285032 10.3800072,13.1006857 13.9585054,15.0186981 C17.2364602,16.7751018 21.2880256,20.0471338 22.076471,25.6859703 C22.6506351,25.2584714 24.9742139,23.4250852 26.9159324,20.3665296 C28.9642421,17.1392675 30.9944203,11.8460336 29.0334714,4.95855083 L29.2252257,4.90395327 C31.2065039,11.8651428 29.1521503,17.2157041 27.0796653,20.4779086 C24.8357552,24.010917 22.0836137,25.9251077 22.0561418,25.9442168 L21.9215291,26.0397625 Z" id="Path"></path>
                            <path d="M21.0402285,44.4402338 C17.9699617,44.4402338 15.7491281,43.7304655 15.7035246,43.7129942 L15.6238559,43.6867874 L15.636493,43.6048911 C17.2848109,32.6471598 9.54705726,27.9534072 9.46903688,27.9075452 L9.57013371,27.7372008 C9.64925297,27.7841547 17.4606315,32.5221314 15.8452799,43.5502935 C16.7793267,43.829833 25.6802434,46.2676143 32.2493396,39.9408485 L32.3872489,40.0828022 C28.7395214,43.5977934 24.3857644,44.4402338 21.0402285,44.4402338 Z" id="Path"></path>
                            <path d="M15.7128651,55.8233172 C14.9164848,55.825034 14.1211967,55.7646087 13.3343423,55.6425621 C10.5602233,55.2057816 9.087726,54.1525946 9.0261888,54.1083706 L8.97124487,54.0663305 L8.99212357,53.9991754 C10.85747,48.0791615 6.37899026,39.1972297 6.3333868,39.1082356 L6.51085569,39.0192416 C6.55645915,39.1082356 11.0360378,47.9912594 9.20310826,53.98771 C9.8426556,54.4048354 15.6919864,57.8941657 25.3698102,53.1479994 L25.4577205,53.3254415 C21.4995598,55.265839 18.1985285,55.8233172 15.7128651,55.8233172 Z" id="Path"></path>
                        </g>
                        <path d="M91.3728543,132.683464 C90.1146383,128.202096 88.9003774,121.122976 91.9398756,114.346872 C97.2452615,102.524316 109.534021,104.929338 119.60854,91.7898884 C127.733648,81.1919551 124.026032,74.0369442 133.495069,66.554894 C135.080201,65.3024258 143.429481,58.4504314 150.504061,61.2709416 C154.490793,62.8597308 156.303942,66.8104106 156.644595,67.5496616 C161.789544,78.7579957 151.861726,98.2476883 137.238948,108.249962 C128.836922,113.996902 125.786985,112.744434 110.691689,120.018467 C103.724162,123.385501 97.2295166,127.643245 91.3728543,132.683464 L91.3728543,132.683464 Z" id="Path" fill="url(#linearGradient-5)"></path>
                        <g id="Group" opacity="0.7" style="mix-blend-mode: soft-light;" transform="translate(90.447599, 56.072162)" fill="#FFFFFF">
                            <path d="M0.198347587,82.2463175 L0,82.2272084 C1.0933842,71.06965 4.62792721,63.2703879 10.5069277,59.0461743 C13.3854402,56.9780186 15.7974787,56.4396866 18.351822,55.869688 C21.0951724,55.2576493 23.9319275,54.6243176 27.4725144,51.9386634 C30.9142022,49.3272618 32.002092,47.0532733 33.3795363,44.1737977 C34.6190713,41.5809593 36.1624463,38.3547892 39.9277539,33.8728752 C43.2276863,29.9445804 45.7314812,28.002545 47.9402271,26.2887274 C50.331387,24.4324102 52.2198098,22.9691955 54.2302082,19.6644049 C57.5142069,14.2647057 58.8163781,7.65294065 58.1004587,0.018563172 L58.2988062,0 C59.0185717,7.67969346 57.7070601,14.3296768 54.3977872,19.7643184 C52.3687079,23.1007756 50.4676479,24.5754558 48.0605544,26.4426926 C45.8595005,28.1499584 43.3650461,30.0848961 40.0783002,33.9973576 C36.3289264,38.4601625 34.7915953,41.6737752 33.5564557,44.25624 C32.1680226,47.1597385 31.0707924,49.4533822 27.5911933,52.0931745 C24.0148929,54.8066734 21.1561602,55.444373 18.3919311,56.0613255 C15.8584665,56.6269562 13.4656583,57.1609204 10.6201122,59.2055992 C4.792759,63.3954163 1.28513852,71.1471786 0.198347587,82.2463175 Z" id="Path"></path>
                            <path d="M46.9171712,27.2228918 L46.9451926,27.0934955 C46.9792578,26.9362545 50.2489711,11.2738511 43.9595394,5.62791698 L44.0925037,5.48104953 C50.158863,10.9266106 47.4693577,25.4746777 47.1660672,27.0050475 C55.5263355,26.3231239 61.3822596,22.5182196 64.8283429,19.4367331 C68.5815627,16.0811667 70.3622955,12.8424392 70.3776798,12.8096806 L70.5524015,12.9035885 C70.5348194,12.936347 68.7392518,16.2051032 64.9591094,19.5836005 C61.4723676,22.7016674 55.5340277,26.5557095 47.0473883,27.2125182 L46.9171712,27.2228918 Z" id="Path"></path>
                            <path d="M45.9748828,40.1739801 C40.3233501,40.1739801 36.3893648,38.9357073 36.3492557,38.9226039 L36.2679387,38.8969431 L36.2816747,38.8128628 C37.6118672,30.6865613 34.4492946,19.6665888 34.4174271,19.5563017 L34.6080826,19.5017042 C34.6404995,19.6108993 37.7948305,30.5975672 36.4915605,38.7593572 C37.0959437,38.9400751 41.0326763,40.040762 46.4484995,39.973607 C51.8643226,39.906452 59.9130589,38.6266851 67.5107055,32.9075902 L67.6304833,33.0653772 C59.9877827,38.8183226 51.8906957,40.1046412 46.4435545,40.1712502 C46.2860486,40.1727062 46.1298247,40.1736161 45.9748828,40.1739801 Z" id="Path"></path>
                            <path d="M39.4085337,59.4289033 C34.441053,59.4289033 30.4158607,58.7147671 27.6087753,57.9891655 C23.2588644,56.8639097 20.809464,55.4678499 20.7852887,55.4536546 L20.6946312,55.399057 L20.7495751,55.3117009 C25.9769406,47.350284 22.307785,35.5228136 22.2704231,35.4043368 L22.4599797,35.3448255 C22.4973415,35.4638482 26.1664972,47.2929566 20.9764936,55.3308101 C22.000099,55.8811535 31.4927617,60.6977507 46.2770744,58.7808302 L46.302898,58.9762895 C44.0170664,59.2753727 41.7140944,59.4265624 39.4085337,59.4289033 L39.4085337,59.4289033 Z" id="Path"></path>
                        </g>
                        <path d="M92.3953608,119.263929 C96.5123154,117.006386 100.929999,115.339014 105.51707,114.311384 C115.931143,111.993171 120.25523,114.618768 124.993045,110.931249 C129.89789,107.114333 127.583651,102.497017 133.413202,98.277171 C133.903302,97.9222869 140.146031,93.5271829 145.006371,96.0261134 C148.405752,97.7732355 149.302987,101.960323 149.723857,103.924197 C151.35789,111.545471 148.533222,122.520128 140.007023,127.076294 C131.923672,131.396054 122.795288,127.777873 119.897545,126.607847 C114.817979,124.555525 113.820746,122.371076 108.634039,120.443236 C102.334168,118.100455 96.3562687,118.557982 92.3953608,119.263929 Z" id="Path" fill="url(#linearGradient-6)"></path>
                        <path d="M121.295868,10.2325921 L47.5946298,7.75386268 C45.9094995,7.69926512 44.5408462,8.99431936 44.5408462,10.6513554 L44.5408462,143.689241 C44.5408462,145.346824 45.9094995,146.612395 47.5946298,146.517395 L121.295868,142.352693 C122.820013,142.266429 124.053505,140.922783 124.053505,139.349827 L124.053505,13.173217 C124.054603,11.6013531 122.821111,10.2871897 121.295868,10.2325921 Z" id="Path" fill="#D8DEE8"></path>
                        <g id="Group" opacity="0.3" style="mix-blend-mode: multiply;" transform="translate(44.541945, 7.756566)" fill="#D8DEE8">
                            <path d="M46.515531,100.715063 C45.2617106,85.5036351 54.6653642,79.2249151 51.0797233,65.4450357 C46.646847,48.4105955 29.5993939,47.6795341 23.7934688,30.9737713 C21.5687891,24.5732988 20.6896862,14.8969724 27.0576877,0.808616752 L3.05378362,0.00166474451 C1.36865329,-0.0529328202 0,1.24212142 0,2.89915751 L0,135.932676 C0,137.590258 1.36865329,138.855829 3.05378362,138.76083 L68.7705698,135.048195 C52.0505825,122.182825 47.2858449,110.064896 46.515531,100.715063 Z" id="Path"></path>
                        </g>
                        <path d="M121.295868,11.9141971 L47.5957287,9.52164575 C47.268727,9.50837754 46.9499784,9.62729767 46.7133452,9.85202732 C46.4767121,10.076757 46.3424478,10.3877895 46.3424478,10.7130507 L46.3424478,143.590966 C46.3411201,143.914296 46.4756244,144.223513 46.7135465,144.444077 C46.9514687,144.664641 47.271223,144.776541 47.5957287,144.752802 L121.295868,140.672726 C121.921679,140.63833 122.429912,140.085256 122.429912,139.439913 L122.429912,13.1213493 C122.43101,12.4760061 121.922778,11.9349442 121.295868,11.9141971 Z" id="Path" fill="url(#linearGradient-7)"></path>
                        <path d="M107.377472,112.509664 L62.6569588,114.111011 C61.5945096,114.155738 60.7536466,115.019865 60.7443175,116.076523 L60.7443175,116.076523 C60.7409174,116.574778 60.9439063,117.052498 61.3056696,117.397523 C61.6674328,117.742548 62.1561061,117.924488 62.6569588,117.900628 L107.377472,116.188448 C108.370858,116.15023 109.175237,115.29687 109.175237,114.281901 L109.175237,114.281901 C109.175237,113.268024 108.370858,112.474176 107.377472,112.509664 Z" id="Path" fill="#D8DEE8"></path>
                        <path d="M107.377472,119.064102 L62.6569588,120.865821 C61.5934764,120.915866 60.7542409,121.782153 60.7443059,122.840069 L60.7443059,122.840069 C60.7404758,123.337795 60.9435981,123.815024 61.305706,124.15893 C61.6678139,124.502837 62.1567635,124.682893 62.6569588,124.65653 L107.377472,122.745616 C108.370858,122.703576 109.175237,121.846394 109.175237,120.831425 L109.175237,120.831425 C109.175237,119.814272 108.370858,119.024246 107.377472,119.064102 Z" id="Path" fill="#D8DEE8"></path>
                        <path d="M107.377472,125.61854 L62.6569588,127.617356 C61.5926888,127.673206 60.7553476,128.541362 60.7442917,129.60034 L60.7442917,129.60034 C60.7399972,130.097457 60.943284,130.574114 61.3057832,130.916736 C61.6682825,131.259359 62.1575326,131.437265 62.6569588,131.408065 L107.377472,129.299507 C108.370858,129.252553 109.175237,128.392096 109.175237,127.377127 L109.175237,127.377127 C109.175237,126.361612 108.370858,125.57377 107.377472,125.61854 Z" id="Path" fill="#D8DEE8"></path>
                        <path d="M84.1872871,17.2341838 L61.6915939,16.6013981 C61.4427862,16.5924745 61.201077,16.6847657 61.0223023,16.8569521 C60.8435276,17.0291385 60.7431512,17.2663261 60.7443498,17.5137234 L60.7443498,17.5137234 C60.7485373,18.0354603 61.1667809,18.4607103 61.6915939,18.4768244 L84.1872871,19.0823114 C84.4304086,19.0887121 84.6656716,18.9964637 84.8388842,18.8268152 C85.0120967,18.6571666 85.1083239,18.4247457 85.1054649,18.1830895 L85.1054649,18.1830895 C85.104931,17.6733233 84.6998727,17.2546797 84.1872871,17.2341838 Z" id="Path" fill="#D8DEE8"></path>
                        <path d="M84.1872871,20.5291469 L61.6915939,19.9454989 C61.4426209,19.9373394 61.2010211,20.0301823 61.0223541,20.2026769 C60.8436871,20.3751715 60.7433297,20.6124722 60.7443527,20.8600081 L60.7443527,20.8600081 C60.7474101,21.3821142 61.1663752,21.8078562 61.6915939,21.8225632 L84.1872871,22.3789124 C84.43023,22.3846939 84.6651306,22.2922442 84.8382048,22.1227312 C85.011279,21.9532182 85.1077034,21.7211601 85.1054405,21.4796905 L85.1054405,21.4796905 C85.1072417,20.9687216 84.7011404,20.5482756 84.1872871,20.5291469 Z" id="Path" fill="#D8DEE8"></path>
                        <path d="M84.1872871,23.8241099 L61.6915939,23.2895997 C61.4424126,23.282046 61.2008304,23.375388 61.0222351,23.548225 C60.8436399,23.721062 60.7433506,23.9585692 60.744353,24.2062928 L60.744353,24.2062928 C60.7474464,24.7280177 61.1667273,25.1531138 61.6915939,25.166664 L84.1872871,25.6738754 C84.4307766,25.678917 84.6659155,25.585625 84.8389523,25.4153254 C85.0119892,25.2450257 85.108131,25.0122775 85.1054568,24.7702857 L85.1054568,24.7702857 C85.1060146,24.2605516 84.6999371,23.8420621 84.1872871,23.8241099 Z" id="Path" fill="#D8DEE8"></path>
                        <path d="M75.5193328,59.2137054 C76.9797424,56.4685398 79.7132029,54.5183148 82.916434,54.1541491 L83.1400558,40.5872002 C74.0111219,40.8241536 66.1475466,46.4176741 62.6245418,54.4342346 L75.5193328,59.2137054 Z" id="Path" fill="url(#linearGradient-8)"></path>
                        <path d="M93.4244606,65.3837762 C92.6448063,69.8913511 88.75093,73.3506528 84.0378396,73.3937849 C82.6891695,73.4081221 81.3530959,73.1348095 80.119788,72.5922927 L72.9649895,84.2761715 C76.3706691,86.0742412 80.182061,86.9781872 84.0378396,86.9023144 C95.9057285,86.6839241 105.520916,77.4569357 106.604411,65.8757002 L93.4244606,65.3837762 Z" id="Path" fill="url(#linearGradient-9)"></path>
                        <path d="M70.7551446,82.9483587 L77.9302724,71.2513765 C75.6792623,69.4128674 74.3782619,66.6669226 74.3863889,63.7715101 C74.3860336,63.055354 74.4647073,62.3413184 74.6209995,61.6422051 L61.709176,56.8807515 C61.0142813,59.1251253 60.6623819,61.4604424 60.665224,63.8086364 C60.6641424,71.7957142 64.6706538,78.8016737 70.7551446,82.9483587 Z" id="Path" fill="url(#linearGradient-10)"></path>
                        <path d="M85.4724257,54.2049248 C89.7794803,54.872107 93.1266645,58.4247706 93.5266563,62.8280642 L115.339397,63.6847 L115.339397,63.6552173 C115.339397,46.8566386 102.431968,32.8982252 85.8443961,31.6583145 L85.4724257,54.2049248 Z" id="Path" fill="url(#linearGradient-11)"></path>
                        <path d="M91.2267034,108.466169 C89.9734324,93.256379 99.3748882,86.978205 95.7897968,73.1961417 C91.3585689,56.1617015 74.3144124,55.432824 68.5101356,38.7292451 C66.3777617,32.5930248 65.4821756,23.4457488 71.0260182,10.279546 L47.7753954,9.52492108 C47.4484441,9.51164909 47.1297492,9.63058514 46.8932019,9.85533176 C46.6566546,10.0800784 46.5226615,10.3911152 46.5226615,10.7163265 L46.5226615,143.581138 C46.5211821,143.904419 46.6555615,144.213643 46.893399,144.434225 C47.1312365,144.654807 47.4509398,144.766722 47.7753954,144.742974 L111.481234,141.216518 C96.3744002,128.935342 91.9651499,117.427813 91.2267034,108.466169 Z" id="Path" fill="#FFFFFF" opacity="0.35" style="mix-blend-mode: soft-light;"></path>
                        <path d="M68.5683762,44.5138571 L21.3165965,44.0465019 C20.2484865,44.0355824 19.3809218,43.1898661 19.3809218,42.1568802 L19.3809218,24.2969248 C19.3809218,23.2644849 20.2484865,22.4477053 21.3165965,22.4728202 L62.450919,23.4452028 C63.4663553,23.4728752 64.2766537,24.2959425 64.2822002,25.3053418 L64.2822002,40.6554472 L68.5683762,44.5138571 Z" id="Path" fill="url(#linearGradient-12)" opacity="0.3" style="mix-blend-mode: multiply;"></path>
                        <polygon id="Path" fill="#FFFFFF" opacity="0.67" points="57.6449735 29.9008189 26.3511088 29.2947859 26.3511088 27.1534694 57.6449735 27.8026344"></polygon>
                        <polygon id="Path" fill="#FFFFFF" opacity="0.67" points="57.6449735 34.0971877 26.3511088 33.5768729 26.3511088 31.4355564 57.6449735 31.9990033"></polygon>
                        <polygon id="Path" fill="#FFFFFF" opacity="0.67" points="57.6449735 38.2935565 26.3511088 37.8589599 26.3511088 35.7181894 57.6449735 36.1953721"></polygon>
                        <path d="M84.2729997,91.6266417 L116.140479,90.946356 C116.969583,90.9283388 117.641547,91.6053486 117.641547,92.4581626 L117.641547,107.199505 C117.641547,108.052319 116.969583,108.765909 116.140479,108.793754 L82.5521558,109.91901 C82.1366234,109.933363 81.7332839,109.778098 81.4359268,109.489319 C81.1385698,109.20054 80.9731064,108.803411 80.9779061,108.390278 L80.9779061,89.1173376 L84.2729997,91.6266417 Z" id="Path" fill="url(#linearGradient-13)" opacity="0.3" style="mix-blend-mode: multiply;"></path>
                        <polygon id="Path" fill="#FFFFFF" opacity="0.67" points="86.650973 104.108737 112.202098 103.349285 112.202098 105.131349 86.650973 105.921376"></polygon>
                        <polygon id="Path" fill="#FFFFFF" opacity="0.67" points="86.650973 100.482913 112.202098 99.7851558 112.202098 101.56722 86.650973 102.295552"></polygon>
                        <polygon id="Path" fill="#FFFFFF" opacity="0.67" points="86.650973 96.8570884 112.202098 96.2215727 112.202098 98.0030913 86.650973 98.6697275"></polygon>
                        <path d="M136.752694,153.942118 C136.827967,153.529907 138.1675,153.157005 138.830124,153.708987 C139.159788,153.981974 139.386157,154.538324 139.196051,154.788926 C139.126272,154.88065 139.410332,155.041167 139.13836,155.043897 C138.23618,155.054817 136.680168,154.3516 136.752694,153.942118 Z" id="Path" fill="url(#linearGradient-14)"></path>
                        <path d="M138.218598,153.944302 L139.60813,154.013095 C139.126822,153.143356 139.705381,150.778735 139.705381,150.778735 L138.205412,150.822413 C138.205412,150.822413 138.242224,151.508705 138.333431,152.528587 C138.363101,152.878012 138.30541,153.403786 138.218598,153.944302 Z" id="Path" fill="url(#linearGradient-15)"></path>
                        <path d="M138.034536,153.923009 C138.034536,153.923009 139.692195,153.543556 139.871861,153.868411 C140.051528,154.193267 140.190536,155.069558 139.13836,155.041713 C138.086183,155.013868 137.940582,154.200365 138.034536,153.923009 Z" id="Path" fill="url(#linearGradient-16)"></path>
                        <path d="M119.168439,156.930789 C119.300854,156.533319 120.679397,156.349871 121.256308,156.988662 C121.543665,157.305874 121.690365,157.887338 121.466194,158.109004 C121.384877,158.189809 121.643114,158.388544 121.373339,158.353601 C120.4805,158.238947 119.036574,157.325529 119.168439,156.930789 Z" id="Path" fill="url(#linearGradient-17)"></path>
                        <path d="M120.796977,157.313518 L122.161784,157.579408 C121.811242,156.651249 122.725509,154.392548 122.725509,154.392548 L121.234331,154.222204 C121.234331,154.222204 121.171695,154.906857 121.115102,155.928924 C121.095872,156.281078 120.962908,156.791565 120.796977,157.313518 Z" id="Path" fill="url(#linearGradient-18)"></path>
                        <path d="M120.439842,157.090214 C120.439842,157.090214 122.134862,156.944984 122.266178,157.293863 C122.397494,157.642741 122.412878,158.527768 121.374987,158.353601 C120.337096,158.179435 120.306877,157.351736 120.439842,157.090214 Z" id="Path" fill="url(#linearGradient-19)"></path>
                        <path d="M132.979145,109.576137 C133.350566,115.891983 133.881691,122.452063 134.572519,129.256375 C135.38459,137.130436 136.371383,144.652889 137.477954,151.805169 C138.841663,152.269795 140.102076,151.805169 140.102076,151.805169 C140.102076,151.805169 141.69545,149.209601 142.914107,142.311199 C143.69486,137.884974 143.748705,137.943394 143.757496,137.168654 C143.801451,133.273118 142.426205,132.145678 142.164122,128.663446 C141.921819,125.442189 142.953666,124.47745 143.570137,120.850534 C144.044303,118.061691 144.221772,113.997994 142.726748,108.686197 L132.979145,109.576137 Z" id="Path" fill="url(#linearGradient-20)"></path>
                        <path d="M132.979145,109.576137 C133.350566,115.891983 133.881691,122.452063 134.572519,129.256375 C135.38459,137.130436 136.371383,144.652889 137.477954,151.805169 C138.841663,152.269795 140.102076,151.805169 140.102076,151.805169 C140.085044,151.143447 140.038341,150.14595 139.899333,148.941527 C139.53011,145.745932 138.94221,144.836336 138.881772,142.875738 C138.80485,140.367526 139.718568,140.290543 139.899333,137.821095 C140.179547,133.992714 138.064206,133.085302 137.866408,129.733558 C137.655423,126.191814 139.886696,125.026156 141.596551,120.634874 C142.605871,118.042581 143.501457,114.150321 142.728396,108.686197 L132.979145,109.576137 Z" id="Path" fill="url(#linearGradient-21)" opacity="0.3" style="mix-blend-mode: multiply;"></path>
                        <path d="M126.136978,109.377948 C121.693046,124.283688 119.916494,139.848839 120.888184,155.364931 L122.668917,155.859585 C126.120494,152.270887 127.352887,148.972102 127.823756,146.563257 C128.520445,142.999674 127.471016,141.79143 128.386382,137.761584 C128.596817,136.833425 128.892965,135.838658 132.322565,129.157554 C135.596125,122.780558 136.267539,121.854583 136.821924,119.564216 C137.613116,116.295459 137.404329,113.394691 137.102687,111.454839 L126.136978,109.377948 Z" id="Path" fill="url(#linearGradient-22)"></path>
                        <path d="M111.417499,95.8666885 L105.560476,82.2325847 C105.420038,81.9083416 105.430672,81.5390529 105.58954,81.2233206 C105.748407,80.9075882 106.039332,80.6775612 106.384635,80.5946577 L117.114085,78.0050952 C117.693323,77.866191 118.288021,78.167459 118.515156,78.7148636 L123.899661,91.8182791 C124.028006,92.1299553 124.018396,92.4809201 123.873184,92.7851997 C123.727972,93.0894794 123.460573,93.3189653 123.13649,93.4174418 L112.87681,96.5371466 C112.28963,96.7141027 111.662184,96.4258318 111.417499,95.8666885 Z" id="Path" fill="#26264F"></path>
                        <path d="M111.68068,95.2109718 L106.209364,82.4755438 C106.079148,82.1728524 106.089489,81.8285709 106.23764,81.5341356 C106.385792,81.2397003 106.65676,81.0249108 106.978579,80.946812 L117.000901,78.5286859 C117.54251,78.3978816 118.098947,78.6803818 118.309665,79.1931382 L123.34198,91.4333663 C123.46172,91.724697 123.452505,92.0526587 123.316593,92.3368966 C123.180682,92.6211346 122.930632,92.8353857 122.627709,92.9271557 L113.048784,95.8415737 C112.497545,96.0102624 111.907108,95.7381112 111.68068,95.2109718 L111.68068,95.2109718 Z" id="Path" fill="url(#linearGradient-23)"></path>
                        <path d="M108.304925,91.4672168 L108.129654,89.8604104 L107.195607,88.0958172 C107.068801,87.8556531 107.002618,87.5884687 107.002754,87.3172559 L107.002754,85.5646741 L108.127456,88.1493228 C108.127456,88.1493228 108.865353,87.4854164 109.146666,87.3461926 C109.427979,87.2069688 109.392815,87.7649559 109.18183,87.9746106 C108.970846,88.1842652 109.287323,89.8953529 109.076338,90.0700651 L109.146666,91.1177924 L108.304925,91.4672168 Z" id="Path" fill="url(#linearGradient-24)"></path>
                        <path d="M117.232764,81.2339952 C118.107472,79.108512 119.984906,77.8860725 120.958512,77.2521948 C123.261762,75.7523997 124.736457,76.0264795 130.024261,75.2266252 C137.074116,74.1608807 137.918055,73.1519177 140.287237,73.9708812 C143.399811,75.0459072 145.025602,77.853314 145.770642,79.1401786 C149.526059,85.6258233 145.13494,88.9224243 146.265137,101.841846 C146.725567,107.118155 147.906312,111.703804 145.070106,114.415119 C144.473415,114.98621 143.806396,115.284858 142.46961,115.882156 C137.171367,118.251144 132.421464,117.842754 129.53471,117.558847 C126.358951,117.246003 124.754588,117.067469 123.911199,115.952041 C122.566172,114.171068 123.950759,111.906907 124.192512,107.988986 C124.366135,105.176119 123.722192,102.946901 122.434306,98.4890096 C119.44206,88.1236619 115.556974,85.3042437 117.232764,81.2339952 Z" id="Path" fill="url(#linearGradient-25)"></path>
                        <path d="M129.033072,71.4037037 C128.7122,70.2669824 129.273177,69.2148873 129.396801,68.9883074 C129.914922,68.0388558 130.047337,67.9094595 130.294585,67.7451209 L130.637984,67.5343743 C130.637984,67.5343743 130.657764,67.5261846 130.678643,67.5190869 C130.898419,67.4410124 131.650052,67.4186274 131.802246,67.45084 C132.2885,67.5540294 132.806072,69.5217256 132.658273,72.3040175 C132.678602,72.4099368 132.697832,72.516948 132.717063,72.6245052 C132.793618,73.0641976 132.854972,73.4946084 132.901125,73.9157376 C132.946179,74.3186677 133.520892,74.3093861 133.928027,74.2837252 C135.579641,74.1788979 136.388416,74.3186677 136.458744,74.5627188 C136.59006,75.0213383 134.63076,76.5189495 132.211578,76.8558165 C128.964392,76.8798394 126.322688,76.5364207 126.607298,76.0281174 C126.733669,75.8026295 129.249002,75.1490966 129.958877,74.5021155 C130.606666,73.90864 130.55392,73.2971472 130.607216,72.8587288 C130.408319,72.7571773 129.269331,72.2406843 129.033072,71.4037037 Z" id="Path" fill="url(#linearGradient-26)"></path>
                        <path d="M129.630296,66.7438015 C129.630296,67.6058971 130.041843,68.526412 130.25008,68.6743714 C130.372776,68.7704202 130.478924,68.8856716 130.564359,69.0156062 C130.585159,69.0472083 130.601779,69.0813391 130.613809,69.1171577 C130.803915,69.6631333 129.934702,70.2997409 130.102281,70.5427001 C130.224257,70.7195962 130.816552,70.4831887 130.885232,70.6360619 C130.951165,70.7791075 130.460515,71.0761183 130.535239,71.2475546 C130.590183,71.3774968 130.894023,71.2590201 131.084678,71.4572093 C131.179731,71.5565769 131.15171,71.6346514 131.252807,71.9371219 C131.304328,72.0969708 131.370539,72.2517704 131.450605,72.3995633 C131.750599,72.9056827 132.599483,73.0902225 132.762666,72.8876655 C132.80827,72.8330679 132.769259,72.7839301 132.81761,72.5944766 C132.854849,72.4614475 132.910312,72.3341358 132.982442,72.2161154 C133.157713,71.9262024 133.58188,71.7187316 134.009893,71.4124393 C134.801635,70.8457166 135.017016,70.3625281 135.081849,70.1992814 C135.104926,70.140862 135.119211,70.097184 135.129101,70.0655174 C135.335141,69.4300017 135.33624,68.4969293 135.048883,67.9231089 C134.567574,66.9616458 133.481333,67.4180815 132.59234,66.4658999 C131.565987,65.3668509 132.176964,63.864326 131.620382,63.6983494 C131.006658,63.5154475 129.624818,65.1500986 129.630296,66.7438015 Z" id="Path" fill="#26264F"></path>
                        <path d="M130.41656,70.3401431 C130.629193,70.05023 131.002812,70.3226719 131.00501,70.6983031 C131.007208,71.0739344 130.640732,71.4626691 130.285244,71.3900543 C129.929757,71.3174395 130.128105,70.7310617 130.41656,70.3401431 Z" id="Path" fill="url(#linearGradient-27)"></path>
                        <path d="M130.586886,69.7122711 L130.092391,70.3494247 C130.092391,70.3494247 129.560534,71.1307159 129.250101,70.7026709 C128.996809,70.3532465 128.930876,70.3608902 128.915492,70.3750856 C128.912196,70.3750856 128.911646,70.3821832 128.911097,70.3816373 C128.910547,70.3810913 128.947909,70.208017 128.985271,70.0540519 C128.793178,70.3273216 128.650564,70.6318143 128.563851,70.9538197 C128.45726,71.35129 128.344075,71.7760591 128.568796,72.1844489 C128.581433,72.2079258 128.82978,72.6430684 129.293506,72.7478957 C129.293506,72.7478957 129.47592,72.7893899 130.246234,72.6545339 C130.246234,72.6545339 129.404493,72.047409 129.391307,71.9032714 C129.356692,71.5112609 129.903933,71.2988764 130.310519,70.4946542 C130.435862,70.2466473 130.528739,69.9837159 130.586886,69.7122711 Z" id="Path" fill="#26264F"></path>
                        <path d="M132.275863,113.854948 C131.341816,112.006275 133.63133,109.548292 132.135206,106.729966 C130.864903,104.336409 128.557258,104.873649 127.495741,102.678281 C126.214449,100.028661 129.001754,98.0484072 128.901756,94.0169231 C128.782528,89.197596 124.609536,84.3733552 122.153543,84.7964863 C120.564564,85.0694741 120.360173,87.425905 119.241514,90.004548 C120.230505,92.1600599 121.387075,94.8610014 122.434306,98.4873717 C123.721093,102.945263 124.365036,105.174481 124.192512,107.987348 C123.950759,111.905269 122.566172,114.16943 123.911199,115.950403 C124.753489,117.065831 126.358951,117.244365 129.53471,117.557209 C132.421464,117.841116 137.171916,118.249506 142.46961,115.880518 C143.139926,115.580777 143.642114,115.356381 144.051446,115.134715 C135.774143,116.370258 133.017057,115.321439 132.275863,113.854948 Z" id="Path" fill="url(#linearGradient-28)" opacity="0.3" style="mix-blend-mode: multiply;"></path>
                        <path d="M107.988998,91.1527348 L109.537867,90.4910123 C110.409278,91.3765848 111.520793,92.2381344 112.45539,91.9580489 C113.848768,91.5409235 113.499324,88.9939471 115.197092,84.5185847 C117.120129,79.4475629 119.300304,78.144319 120.398634,77.673142 C121.012357,77.4099818 121.435975,77.2363615 121.945305,77.3586601 C124.288114,77.9281127 125.062824,83.9949941 124.405694,88.5353276 C124.035372,91.0926775 123.306816,96.1085558 119.168439,98.4890096 C118.580539,98.8275145 115.343243,100.688745 112.138913,99.2222549 C109.399408,97.9708787 107.707685,94.7545362 107.988998,91.1527348 Z" id="Path" fill="url(#linearGradient-29)"></path>
                        <polygon id="Path" fill="url(#linearGradient-30)" points="77.5363244 73.346285 105.481906 50.5616293 105.627507 50.6326061 77.9028004 73.9708812"></polygon>
                        <path d="M75.8292165,74.8613675 L76.9236996,73.6738704 L77.4929187,72.3635289 C77.591314,72.1372859 77.7480538,71.9408541 77.947305,71.7940763 L78.2769686,71.553301 C78.4645018,71.415056 78.691804,71.3404043 78.925307,71.3403705 L79.9978125,71.3403705 C79.9978125,71.3403705 79.8110031,71.687611 79.5066137,71.7411166 C79.2022244,71.7946222 78.5659737,72.5082124 78.5659737,72.5082124 L78.4791623,73.3451931 L79.6961703,72.4623505 L80.9939459,70.9805726 L80.9939459,71.8028119 C80.9933712,72.083575 80.8914037,72.3548075 80.7065892,72.5671778 L79.6544129,73.7770598 C79.3944444,74.0757485 79.0368956,74.2738862 78.6445435,74.3366849 L78.3846587,74.378179 C77.8449111,74.4647275 77.3646055,74.767714 77.0561145,75.2162516 L76.3132725,76.2956455 L75.8292165,74.8613675 Z" id="Path" fill="url(#linearGradient-31)"></path>
                        <path d="M16.7710852,114.313022 C16.7710852,114.313022 16.4677947,115.729829 16.2035144,116.923877 C15.9392341,118.117926 14.88486,119.032435 14.4211333,119.985163 C13.9574065,120.93789 13.7513668,119.82137 13.6244463,119.133987 C13.4975258,118.446603 13.6244463,117.023245 14.1964126,116.536235 C14.7683789,116.049224 15.2029854,115.624455 15.174964,115.52618 C15.1469426,115.427904 15.5425389,113.787793 15.5425389,113.787793 L16.7710852,114.313022 Z" id="Path" fill="url(#linearGradient-32)"></path>
                        <path d="M29.4477487,156.917139 C29.3757721,156.621767 29.4241228,156.227026 29.6829087,155.961682 C30.0318026,155.60516 30.6169555,155.634097 30.9834315,155.797889 C31.1977128,155.893981 31.3636435,156.047946 31.9515435,157.265472 C32.57241,158.552337 32.5696628,158.759807 32.4696648,158.877192 C32.2663723,159.115783 31.6966037,158.939979 31.5740788,158.901761 C31.1658454,158.775641 31.0658474,158.583457 30.2252053,157.801074 C29.6548873,157.27257 29.5131319,157.186305 29.4477487,156.917139 Z" id="Path" fill="url(#linearGradient-33)"></path>
                        <path d="M29.8444438,154.905765 L29.9872981,156.397371 C30.3290493,156.573721 30.5411329,156.561163 30.652669,156.397371 L30.9400258,154.905765 L29.8444438,154.905765 Z" id="Path" fill="url(#linearGradient-34)"></path>
                        <path d="M44.1968972,156.730416 C43.9963519,156.501652 43.8562448,156.129843 43.9628361,155.775504 C44.1073386,155.298868 44.6397453,155.057546 45.0424843,155.036253 C45.2765454,155.023696 45.4957717,155.083753 46.5809143,155.895073 C47.728693,156.752801 47.8226471,156.938433 47.7896808,157.08803 C47.719902,157.39323 47.1303536,157.497512 47.0056309,157.520443 C46.5853098,157.595241 46.4072915,157.470213 45.2979736,157.161191 C44.5457912,156.95099 44.3804099,156.939524 44.1968972,156.730416 Z" id="Path" fill="url(#linearGradient-35)"></path>
                        <path d="M44.2968952,154.239675 L44.4391999,155.73128 C44.7809512,155.908176 44.9930347,155.895073 45.1051204,155.73128 L45.3919277,154.239675 L44.2968952,154.239675 Z" id="Path" fill="url(#linearGradient-36)"></path>
                        <path d="M29.4603858,155.197316 L31.0806823,155.2945 C32.2242486,149.752483 33.4835635,144.083072 34.8586269,138.286266 C36.369585,131.93657 37.9420802,125.78306 39.5761127,119.825738 C40.0920362,122.092629 40.6024653,124.744432 41.0046549,127.724914 C41.4011191,130.628307 41.6501475,133.549702 41.7507934,136.477995 C41.8985926,141.277121 41.4760738,141.843844 41.6766191,144.840158 C41.8326599,147.196043 42.3463856,150.656983 44.0650318,154.860995 C44.5800395,154.829329 45.0948642,154.798208 45.6095056,154.767633 C46.9451284,148.339659 47.7354322,141.811626 47.9720946,135.25228 C48.2573788,127.385799 47.7478791,119.510719 46.4512466,111.745298 L32.4174681,112.178257 C30.9570584,115.418076 30.2916874,118.188357 29.9543317,120.136398 C29.276873,124.051589 29.6922492,125.983251 29.1823695,132.65289 C28.9191881,136.10018 28.7268843,136.646702 28.5356794,138.935978 C28.2208507,142.727232 28.1659068,148.200638 29.4603858,155.197316 Z" id="Path" fill="url(#linearGradient-37)"></path>
                        <path d="M32.5691133,141.967234 C32.9960277,137.459659 31.3603469,137.553021 32.1213203,133.659123 C32.8224048,130.076431 34.3091876,129.479679 35.4058684,124.906041 C36.2849713,121.235447 35.6141059,120.429041 36.3014545,118.823873 C37.1514371,116.838705 39.6338038,114.674458 46.769372,113.751213 C46.6671763,113.066559 46.5622334,112.395009 46.4539938,111.745298 L32.4202153,112.178257 C30.9598056,115.418076 30.2944346,118.188357 29.9570789,120.136398 C29.2796202,124.051589 29.6949963,125.983251 29.1851167,132.65289 C28.9219353,136.10018 28.7296315,136.646702 28.5384266,138.935978 C28.2208507,142.727232 28.1659068,148.200638 29.4603858,155.197316 L31.0806823,155.2945 C31.1141981,155.133437 31.1493622,154.969644 31.182878,154.808582 C30.8893294,154.340618 30.6530472,153.839507 30.4790462,153.315884 C29.2944551,149.699887 32.0361572,147.600065 32.5691133,141.967234 Z" id="Path" fill="url(#linearGradient-38)" opacity="0.3" style="mix-blend-mode: multiply;"></path>
                        <path d="M14.8777173,114.595837 L16.9655867,114.966555 C17.3957976,113.6715 18.0205101,111.718545 18.6935733,109.314069 C19.4627883,106.565081 19.8578351,104.788477 20.0259636,104.136582 C20.696829,101.543743 22.6577778,97.9059076 28.4367804,93.4774991 C28.3818364,96.2947335 28.3351341,98.6124001 28.3049149,100.205011 C28.0648099,112.980841 28.0785459,115.301238 29.788401,116.574999 C31.2718871,117.682783 32.0960461,116.549338 38.8393146,116.67655 C44.9930347,116.792843 46.2864149,117.772869 47.8501191,116.650344 C50.385232,114.828969 49.4006368,110.50375 49.4401964,105.100775 C49.4731628,100.642338 50.2094115,94.332497 53.4714326,86.6309645 C55.8713834,86.8624582 59.8844881,86.9252454 64.4442848,85.3697607 C71.5265574,82.9538185 75.5506508,78.1268478 77.0599605,76.0974563 L75.567134,74.0948176 C71.9062104,75.687197 68.059489,76.8190272 64.1162695,77.4640334 C55.5021602,78.862823 51.5418018,77.0447241 43.5430644,77.3586601 C38.9360159,77.539378 29.5268679,77.9084575 23.1643608,82.6993939 C11.4629521,91.5092569 14.4579457,111.963689 14.8777173,114.595837 Z" id="Path" fill="url(#linearGradient-39)"></path>
                        <path d="M37.19759,113.111875 C36.8415533,111.138719 37.9118611,110.307198 37.3470375,108.068152 C36.5503505,104.907499 33.9954577,104.883476 33.3910745,102.208196 C32.8119655,99.6568515 34.9553282,98.8908477 35.4789438,94.8642773 C35.8635514,91.9039973 35.3196065,87.6251861 33.314153,86.9274293 C30.8191492,86.059328 27.1527407,91.1134246 26.7450568,91.6746875 C25.4962604,93.4078505 24.5783135,95.3541252 24.0368704,97.4167134 C25.1780559,96.1871763 26.6192352,94.8713749 28.4373298,93.4774991 C28.3823859,96.2947335 28.3356835,98.6124001 28.3054644,100.205011 C28.0653594,112.980841 28.0790954,115.301238 29.7889505,116.574999 C31.2724366,117.682783 32.0965955,116.549338 38.839864,116.67655 C39.0327172,116.680372 39.2068895,116.686924 39.3893033,116.692384 C37.9332892,115.366755 37.3805533,114.125206 37.19759,113.111875 Z" id="Path" fill="url(#linearGradient-40)" opacity="0.3" style="mix-blend-mode: multiply;"></path>
                        <path d="M40.9453154,72.0217481 C40.9453154,72.0217481 40.6705958,74.1876335 39.8607223,75.7616813 C39.1283197,77.181218 35.82564,77.8522221 35.1448848,78.1284857 C34.4641295,78.4047494 36.2668398,79.5141719 38.1398784,79.8532228 C40.0129169,80.1922737 45.4391795,80.1955495 46.4682793,79.5616718 C47.4973791,78.9277941 45.7402722,78.8420759 44.4353539,78.2431406 C43.1304355,77.6442053 42.5590187,74.9629189 42.8930777,73.7934391 C43.2271368,72.6239593 40.9453154,72.0217481 40.9453154,72.0217481 Z" id="Path" fill="url(#linearGradient-41)"></path>
                        <path d="M44.42931,71.218072 C44.8738064,70.4711773 44.5902957,69.1171577 43.7199839,68.5346017 C43.0743927,68.1027349 42.3337485,68.2485104 41.7969463,68.3544297 C41.5475009,68.4035675 39.7936907,68.7704631 39.3920505,70.0633335 C39.2640312,70.4739072 39.3167774,71.0171529 39.5019384,71.4375542 C39.5986397,71.6559444 39.776658,71.9201966 40.1722543,72.4257701 C40.5222472,72.8745621 40.5019179,72.8625506 40.6063114,72.9897629 C40.8628995,73.302607 41.3540983,73.8256517 42.2348495,74.4158513 C42.2764636,74.1219102 42.3439368,73.8321613 42.4364937,73.549934 C42.5558179,73.1831095 42.7220061,72.8330116 42.9309891,72.5082124 C43.5095486,71.6499387 44.0820644,71.8017199 44.42931,71.218072 Z" id="Path" fill="url(#linearGradient-42)"></path>
                        <path d="M41.1178394,73.8485826 C41.1178394,73.8485826 42.0645233,75.1043266 43.682622,74.8422583 C45.130944,74.6085807 45.0298472,71.3403705 44.0320654,70.7397973 C43.6991052,70.5399702 43.0677994,70.5039358 42.5755018,70.6928434 C42.2848484,70.8020385 42.1958393,70.9379865 41.7172776,71.1116067 C41.2777262,71.2715776 41.1431136,71.2339053 41.017292,71.3611176 C40.8601523,71.5205425 40.7694949,71.8825243 41.1464102,72.8052232 C40.8414714,72.5518905 40.4975224,72.4776378 40.2717029,72.6097639 C40.1949442,72.6609951 40.1340624,72.7324583 40.0958823,72.8161427 C39.9277539,73.2070612 40.3145591,73.6482096 41.1178394,73.8485826 Z" id="Path" fill="url(#linearGradient-43)"></path>
                        <path d="M40.7892747,72.001001 C40.7892747,72.001001 41.406295,73.1377223 41.7496946,73.4057964 C42.0930941,73.6738704 42.8678035,73.8376631 43.6177882,73.4298193 C44.3677728,73.0219755 44.7858961,72.6408845 44.7858961,72.6408845 C44.7858961,72.6408845 45.0935821,74.2154783 44.9067728,74.4098456 C44.7199634,74.6042129 43.3337281,75.4471993 42.9353846,75.388234 C42.5370411,75.3292686 41.565083,74.5485234 41.3420106,74.0658809 C41.1189383,73.5832385 40.8475152,72.3302244 40.8475152,72.3302244 L40.7892747,72.001001 Z" id="Path" fill="url(#linearGradient-44)"></path>
                    </g>
                </g>
            </g>
        </g>
    </g>
</svg>