<?xml version="1.0" encoding="UTF-8"?>
<svg width="20px" height="20px" viewBox="0 0 20 20" version="1.1" xmlns="http://www.w3.org/2000/svg" xmlns:xlink="http://www.w3.org/1999/xlink">
    <title>427CDBC8-24B2-4B8D-A2E9-168A973FD9C0</title>
    <g id="Final---Credit-plus-with-Old-bureau-Dashboard-design" stroke="none" stroke-width="1" fill="none" fill-rule="evenodd">
        <g id="Desktop---Rectification-Payment-" transform="translate(-200.000000, -279.000000)" fill="#D90368">
            <g id="Group-24" transform="translate(150.000000, 120.000000)">
                <g id="Group-35" transform="translate(50.000000, 63.000000)">
                    <g id="Group-21" transform="translate(0.000000, 90.000000)">
                        <g id="Group-15-Copy-6" transform="translate(0.000000, 6.000000)">
                            <path d="M10,0 C15.52,0 20,4.48 20,10 C20,15.52 15.52,20 10,20 C4.48,20 0,15.52 0,10 C0,4.48 4.48,0 10,0 Z M10,1.66666667 C5.4,1.66666667 1.66666667,5.4 1.66666667,10 C1.66666667,14.6 5.4,18.3333333 10,18.3333333 C14.6,18.3333333 18.3333333,14.6 18.3333333,10 C18.3333333,5.4 14.6,1.66666667 10,1.66666667 Z" id="Combined-Shape"></path>
                            <path d="M12.9742584,7.55791221 C13.2854666,7.25847371 13.7860071,7.25847371 14.0972154,7.55791221 C14.4120393,7.86082969 14.4120393,8.35330699 14.0972154,8.65622447 L9.29800584,13.2739107 C8.99299288,13.5751114 8.48496925,13.5751114 8.17349938,13.2754211 L5.90278464,11.0905837 C5.58796067,10.7876662 5.58796067,10.2951889 5.90278464,9.99227145 C6.21399288,9.69283295 6.71453337,9.69283295 7.02553346,9.99207152 L8.73833333,11.6333333 Z" id="Path" fill-rule="nonzero"></path>
                        </g>
                    </g>
                </g>
            </g>
        </g>
    </g>
</svg>