<?xml version="1.0" encoding="UTF-8"?>
<svg width="123px" height="108px" viewBox="0 0 123 108" version="1.1" xmlns="http://www.w3.org/2000/svg" xmlns:xlink="http://www.w3.org/1999/xlink">
    <title>CE5C493D-DF0F-4C74-9278-D581C9486D63@2x</title>
    <defs>
        <linearGradient x1="50%" y1="23.3177246%" x2="50%" y2="104.695811%" id="linearGradient-1">
            <stop stop-color="#FAEDFF" offset="0%"></stop>
            <stop stop-color="#FFFCFF" offset="100%"></stop>
        </linearGradient>
        <linearGradient x1="0.0799458418%" y1="50.0687091%" x2="100.522247%" y2="50.0687091%" id="linearGradient-2">
            <stop stop-color="#FF66A9" offset="0%"></stop>
            <stop stop-color="#F53689" offset="100%"></stop>
        </linearGradient>
        <linearGradient x1="3.16336166%" y1="49.8113208%" x2="99.9527856%" y2="49.8113208%" id="linearGradient-3">
            <stop stop-color="#FF66A9" offset="0%"></stop>
            <stop stop-color="#F53689" offset="100%"></stop>
        </linearGradient>
        <linearGradient x1="3.16336166%" y1="50.1886792%" x2="99.9527856%" y2="50.1886792%" id="linearGradient-4">
            <stop stop-color="#83A6FF" offset="0%"></stop>
            <stop stop-color="#5A78FF" offset="100%"></stop>
        </linearGradient>
        <linearGradient x1="8.95869037%" y1="21.1720256%" x2="77.9879628%" y2="87.1908833%" id="linearGradient-5">
            <stop stop-color="#51DFC3" offset="0%"></stop>
            <stop stop-color="#12AB73" offset="100%"></stop>
        </linearGradient>
        <linearGradient x1="14.9386616%" y1="21.0227936%" x2="73.9099445%" y2="87.3834071%" id="linearGradient-6">
            <stop stop-color="#51DFC3" offset="0%"></stop>
            <stop stop-color="#12AB73" offset="100%"></stop>
        </linearGradient>
        <linearGradient x1="0%" y1="43.2468966%" x2="100%" y2="56.7531034%" id="linearGradient-7">
            <stop stop-color="#55068F" offset="0%"></stop>
            <stop stop-color="#C80BF5" offset="100%"></stop>
        </linearGradient>
        <linearGradient x1="49.8074639%" y1="96.8882806%" x2="49.8074639%" y2="44.5076713%" id="linearGradient-8">
            <stop stop-color="#FFFFFF" offset="0%"></stop>
            <stop stop-color="#D6DEEA" offset="99.13%"></stop>
        </linearGradient>
        <linearGradient x1="0.00264483794%" y1="49.5691545%" x2="99.9365239%" y2="49.5691545%" id="linearGradient-9">
            <stop stop-color="#FF66A9" offset="0%"></stop>
            <stop stop-color="#F53689" offset="100%"></stop>
        </linearGradient>
        <linearGradient x1="1.61134386%" y1="51.8721756%" x2="96.4872704%" y2="51.8721756%" id="linearGradient-10">
            <stop stop-color="#FF66A9" offset="0%"></stop>
            <stop stop-color="#F53689" offset="100%"></stop>
        </linearGradient>
    </defs>
    <g id="Credit-Advisory-&amp;-Rectification-Copy" stroke="none" stroke-width="1" fill="none" fill-rule="evenodd">
        <g id="Mobile---Rectification" transform="translate(-221.000000, -630.000000)">
            <g id="Group-28" transform="translate(0.000000, 540.000000)">
                <g id="Group-7" transform="translate(221.000000, 90.000000)">
                    <path d="M58.496167,108 C94.1206503,108 123,79.3909955 123,44.1 C123,8.80900449 93.6067467,0 57.9822635,0 C22.3577802,0 0,13.6194488 0,48.9104443 C0,84.2014398 22.8716838,108 58.496167,108 Z" id="Oval" fill="url(#linearGradient-1)"></path>
                    <g id="Group-25" transform="translate(9.124516, 19.800000)" fill-rule="nonzero">
                        <g id="Group-14">
                            <g id="Group-13" transform="translate(64.193944, 17.898999)">
                                <path d="M33.417645,49.2427758 L1.32491599,49.2427758 C0.588771674,49.2427758 0,48.6565096 0,47.9233185 L0,1.31874056 C0,0.586266182 0.588771674,0 1.32491599,0 L33.417645,0 C34.1537893,0 34.742561,0.586266182 34.742561,1.31874056 L34.742561,47.9233185 C34.742561,48.6565096 34.1537893,49.2427758 33.417645,49.2427758 Z" id="Path" fill="#FFFFFF"></path>
                                <path d="M27.4692769,20.8970209 C27.0278778,20.8970209 26.5857599,21.1170499 26.2917335,21.4832871 L22.8317115,20.6038878 C22.6850577,20.5307837 22.4643582,20.6038878 22.3169855,20.7508127 L16.5752037,26.4665496 C16.3545041,26.3927288 16.1338046,26.3196247 15.9131051,26.3196247 C15.6924056,26.3196247 15.4717061,26.3927288 15.2502877,26.4665496 L10.8341407,22.0695532 C10.9074676,21.923345 10.9074676,21.7764201 10.9074676,21.5563911 C10.9074676,20.7508127 10.245369,20.1645465 9.50922469,20.1645465 C8.77308037,20.1645465 8.11098182,20.8239168 8.11098182,21.5563911 C8.11098182,21.703316 8.11098182,21.923345 8.1843087,22.0695532 L4.57763289,25.6602544 C4.43026025,25.5871503 4.20956073,25.5871503 4.06218809,25.5871503 C3.2527169,25.5871503 2.66394522,26.2465206 2.66394522,26.978995 C2.66394522,27.7121861 3.32604377,28.3715563 4.06218809,28.3715563 C4.7983324,28.3715563 5.46114984,27.7121861 5.46114984,26.978995 C5.46114984,26.7596827 5.38710408,26.6127578 5.3137772,26.3927288 L8.92045301,22.8027443 C9.14115253,22.8758484 9.28852517,22.9489525 9.50922469,22.9489525 C9.7299242,22.9489525 9.95062372,22.8758484 10.0979964,22.8027443 L14.5141434,27.199024 C14.4408165,27.3459489 14.4408165,27.4921571 14.4408165,27.639082 C14.4408165,28.4446604 15.1036339,29.0309266 15.8390594,29.0309266 C16.6492494,29.0309266 17.2380211,28.3715563 17.2380211,27.639082 C17.2380211,27.4921571 17.2380211,27.3459489 17.1639753,27.199024 L22.7583846,21.6302119 L25.9236614,22.4357904 C25.9969882,23.0958774 26.5857599,23.6821436 27.3219042,23.6821436 C28.1313754,23.6821436 28.720866,23.0220566 28.720866,22.2895822 C28.8675197,21.4832871 28.2054212,20.8970209 27.4692769,20.8970209 Z M4.13623385,27.7121861 C3.7681617,27.7121861 3.47341641,27.419053 3.47341641,27.0528158 C3.47341641,26.6858619 3.7681617,26.3927288 4.13623385,26.3927288 C4.50430601,26.3927288 4.7983324,26.6858619 4.7983324,27.0528158 C4.7983324,27.3459489 4.50430601,27.7121861 4.13623385,27.7121861 Z M9.58255156,22.2164781 C9.2144794,22.2164781 8.92045301,21.923345 8.92045301,21.5563911 C8.92045301,21.190154 9.2144794,20.8970209 9.58255156,20.8970209 C9.95062372,20.8970209 10.245369,21.190154 10.245369,21.5563911 C10.245369,21.923345 10.0246695,22.2164781 9.58255156,22.2164781 Z M15.986432,28.3715563 C15.6183598,28.3715563 15.3243334,28.0784232 15.3243334,27.7121861 C15.3243334,27.3459489 15.6183598,27.0528158 15.986432,27.0528158 C16.3545041,27.0528158 16.6492494,27.3459489 16.6492494,27.7121861 C16.7225763,28.0784232 16.4285499,28.3715563 15.986432,28.3715563 Z M27.4692769,22.9489525 C27.1012047,22.9489525 26.8064594,22.6558194 26.8064594,22.2895822 C26.8064594,21.923345 27.1012047,21.6302119 27.4692769,21.6302119 C27.837349,21.6302119 28.1313754,21.923345 28.1313754,22.2895822 C28.1313754,22.6558194 27.837349,22.9489525 27.4692769,22.9489525 Z" id="Shape-Copy" fill="url(#linearGradient-2)"></path>
                                <path d="M25.8244846,34.3768428 L7.04986858,34.3768428 C6.53089108,34.3768428 6.01325808,34.1697145 6.01325808,33.8242619 C6.01325808,33.5483297 6.40181895,33.2723976 7.04986858,33.2723976 L25.8244846,33.2723976 C26.3434621,33.2723976 26.8610951,33.4795259 26.8610951,33.8242619 C26.732023,34.1009107 26.3434621,34.3768428 25.8244846,34.3768428 Z" id="Path" fill="#E6ECF5"></path>
                                <path d="M4.14414166,34.5846878 C4.56469285,34.5846878 4.90544715,34.2442521 4.90544715,33.8249786 C4.90544715,33.4057051 4.56469285,33.0652693 4.14414166,33.0652693 C3.72359046,33.0652693 3.38283616,33.4057051 3.38283616,33.8249786 C3.38283616,34.2442521 3.72359046,34.5846878 4.14414166,34.5846878 Z" id="Path" fill="#E6ECF5"></path>
                                <path d="M25.8244846,37.5540042 L7.04986858,37.5540042 C6.53089108,37.5540042 6.01325808,37.3468759 6.01325808,37.0014232 C6.01325808,36.7254911 6.40181895,36.4495589 7.04986858,36.4495589 L25.8244846,36.4495589 C26.3434621,36.4495589 26.8610951,36.6566872 26.8610951,37.0014232 C26.732023,37.2773553 26.3434621,37.5540042 25.8244846,37.5540042 Z" id="Path" fill="#E6ECF5"></path>
                                <path d="M4.14414166,37.7618491 C4.56469285,37.7618491 4.90544715,37.4214134 4.90544715,37.0021399 C4.90544715,36.5821497 4.56469285,36.2424307 4.14414166,36.2424307 C3.72359046,36.2424307 3.38283616,36.5821497 3.38283616,37.0021399 C3.38283616,37.4214134 3.72359046,37.7618491 4.14414166,37.7618491 Z" id="Path" fill="url(#linearGradient-3)"></path>
                                <path d="M25.8244846,40.7304488 L7.04986858,40.7304488 C6.53089108,40.7304488 6.01325808,40.5233205 6.01325808,40.1785846 C6.01325808,39.9026524 6.40181895,39.6260036 7.04986858,39.6260036 L25.8244846,39.6260036 C26.3434621,39.6260036 26.8610951,39.8331319 26.8610951,40.1785846 C26.732023,40.4545167 26.3434621,40.7304488 25.8244846,40.7304488 Z" id="Path" fill="#E6ECF5"></path>
                                <path d="M4.14414166,40.9382938 C4.56469285,40.9382938 4.90544715,40.5985748 4.90544715,40.1785846 C4.90544715,39.7593111 4.56469285,39.4188753 4.14414166,39.4188753 C3.72359046,39.4188753 3.38283616,39.7593111 3.38283616,40.1785846 C3.38283616,40.5985748 3.72359046,40.9382938 4.14414166,40.9382938 Z" id="Path" fill="url(#linearGradient-4)"></path>
                                <path d="M7.43405114,7.54763956 L3.75404845,7.54763956 C3.53334893,7.54763956 3.31193053,7.32761057 3.31193053,7.10758157 L3.31193053,6.66824029 C3.31193053,6.4482113 3.53334893,6.2281823 3.75404845,6.2281823 L7.43405114,6.2281823 C7.65475065,6.2281823 7.87616906,6.4482113 7.87616906,6.66824029 L7.87616906,7.10758157 C7.87616906,7.32761057 7.65475065,7.54763956 7.43405114,7.54763956 Z" id="Path" fill="#CED7E2"></path>
                                <path d="M32.7548276,7.54763956 L11.0407269,7.54763956 C10.8200274,7.54763956 10.5993279,7.32761057 10.5993279,7.10758157 L10.5993279,6.66824029 C10.5993279,6.4482113 10.8200274,6.2281823 11.0407269,6.2281823 L32.7548276,6.2281823 C32.9755271,6.2281823 33.1969455,6.4482113 33.1969455,6.66824029 L33.1969455,7.10758157 C33.1969455,7.32761057 32.9755271,7.54763956 32.7548276,7.54763956 Z" id="Path" fill="#E3EAF2"></path>
                                <path d="M7.43405114,11.8708151 L3.75404845,11.8708151 C3.53334893,11.8708151 3.31193053,11.6507861 3.31193053,11.4307571 L3.31193053,10.9914159 C3.31193053,10.7713869 3.53334893,10.5520746 3.75404845,10.5520746 L7.43405114,10.5520746 C7.65475065,10.5520746 7.87616906,10.7713869 7.87616906,10.9914159 L7.87616906,11.4307571 C7.87616906,11.6507861 7.65475065,11.8708151 7.43405114,11.8708151 Z" id="Path" fill="#CED7E2"></path>
                                <path d="M32.7548276,11.8708151 L11.0407269,11.8708151 C10.8200274,11.8708151 10.5993279,11.6507861 10.5993279,11.4307571 L10.5993279,10.9914159 C10.5993279,10.7713869 10.8200274,10.5520746 11.0407269,10.5520746 L32.7548276,10.5520746 C32.9755271,10.5520746 33.1969455,10.7713869 33.1969455,10.9914159 L33.1969455,11.4307571 C33.1969455,11.6507861 32.9755271,11.8708151 32.7548276,11.8708151 Z" id="Path" fill="#E3EAF2"></path>
                            </g>
                            <g id="Group-19" transform="translate(88.551433, 2.427964)">
                                <g id="Group-2" transform="translate(0.000000, 7.200000)">
                                    <path d="M12.7804646,15.0795 C11.4723773,15.9534 9.9297363,16.4637 8.25448234,16.4637 C3.72489154,16.4637 0,12.7485 0,8.2314 C0,3.7152 3.72489154,0 8.25448234,0 C12.7804646,0 16.5062583,3.7152 16.5062583,8.2314 C16.5062583,11.0727 15.044809,13.6224 12.7804646,15.0795 Z" id="Path" fill="url(#linearGradient-5)"></path>
                                    <path d="M7.15839535,11.2914 C6.86610548,11.2914 6.64688808,11.2185 6.42767068,10.9998 L4.30947127,8.8875 C3.94410894,8.523 3.94410894,7.8669 4.30947127,7.5033 C4.67483361,7.1388 5.33248581,7.1388 5.69784814,7.5033 L7.08532288,8.8875 L10.660461,5.3172 C11.0303339,4.9536 11.6888883,4.9536 12.04974,5.3172 C12.4196129,5.6817 12.4196129,6.3378 12.04974,6.7014 L7.74297508,10.9998 C7.66990261,11.2185 7.45068521,11.2914 7.15839535,11.2914 Z" id="Path" fill="#FFFFFF"></path>
                                </g>
                                <path d="M19.9785537,7.047 C19.7142298,7.308 19.2748929,7.398 18.9221603,7.137 L15.5779673,4.23 C15.3136435,3.96 15.2261369,3.519 15.4895587,3.168 C15.7538825,2.907 16.1941216,2.817 16.545952,3.087 L19.8910471,5.985 C20.1544689,6.255 20.2428775,6.786 19.9785537,7.047 Z M18.9221603,12.591 C18.8346538,12.771 18.57033,12.951 18.3060061,12.951 L13.9938284,12.951 C13.5535894,12.951 13.2892655,12.591 13.2892655,12.24 C13.2892655,11.799 13.641998,11.538 13.9938284,11.538 L18.3060061,11.538 C18.7462452,11.538 19.010569,11.889 19.010569,12.24 C19.010569,12.33 19.010569,12.42 18.9221603,12.591 Z M24.9068856,5.634 C24.819379,5.724 24.6434638,5.724 24.5550552,5.724 C24.1148161,5.724 23.8513944,5.463 23.7629857,5.022 L23.6754792,0.702 C23.6754792,0.351 23.9389009,0 24.37914,0 C24.819379,0 25.0837029,0.261 25.1712094,0.702 L25.2596181,5.022 C25.2596181,5.283 25.0837029,5.463 24.9068856,5.634 Z" id="Combined-Shape" fill="url(#linearGradient-6)" transform="translate(19.274442, 6.475500) scale(-1, 1) translate(-19.274442, -6.475500) "></path>
                            </g>
                            <g id="Group-12">
                                <path d="M33.4909719,49.2427758 L1.32491599,49.2427758 C0.588771674,49.2427758 0,48.6565096 0,47.9240352 L0,1.31945726 C0,0.586266182 0.588771674,0 1.32491599,0 L33.417645,0 C34.1537893,0 34.742561,0.586266182 34.742561,1.31945726 L34.742561,47.9240352 C34.742561,48.6565096 34.1537893,49.2427758 33.4909719,49.2427758 Z" id="Path" fill="#FFFFFF"></path>
                                <path d="M30.767813,35.2469249 L5.07896444,35.2469249 C4.85826492,35.2469249 4.63756541,35.0268959 4.63756541,34.8075836 L4.63756541,34.6606587 C4.63756541,34.4406297 4.85826492,34.2213174 5.07896444,34.2213174 L30.767813,34.2213174 C30.9885126,34.2213174 31.2092121,34.4406297 31.2092121,34.6606587 L31.2092121,34.8075836 C31.2092121,35.0268959 31.0618394,35.2469249 30.767813,35.2469249 Z" id="Path" fill="#E3EAF2"></path>
                                <path d="M30.767813,24.4963225 L5.07896444,24.4963225 C4.85826492,24.4963225 4.63756541,24.2762935 4.63756541,24.0569813 L4.63756541,23.9100564 C4.63756541,23.6900274 4.85826492,23.4707151 5.07896444,23.4707151 L30.767813,23.4707151 C30.9885126,23.4707151 31.2092121,23.6900274 31.2092121,23.9100564 L31.2092121,24.0569813 C31.2092121,24.2762935 31.0618394,24.4963225 30.767813,24.4963225 Z" id="Path-Copy" fill="#E3EAF2"></path>
                                <path d="M30.767813,38.3975681 L5.07896444,38.3975681 C4.85826492,38.3975681 4.63756541,38.1782558 4.63756541,37.9582268 L4.63756541,37.8113019 C4.63756541,37.5919896 4.85826492,37.3719606 5.07896444,37.3719606 L30.767813,37.3719606 C30.9885126,37.3719606 31.2092121,37.5919896 31.2092121,37.8113019 L31.2092121,37.9582268 C31.2092121,38.1782558 31.0618394,38.3975681 30.767813,38.3975681 Z" id="Path" fill="#E3EAF2"></path>
                                <path d="M30.767813,27.6469657 L5.07896444,27.6469657 C4.85826492,27.6469657 4.63756541,27.4276534 4.63756541,27.2076245 L4.63756541,27.0606996 C4.63756541,26.8413873 4.85826492,26.6213583 5.07896444,26.6213583 L30.767813,26.6213583 C30.9885126,26.6213583 31.2092121,26.8413873 31.2092121,27.0606996 L31.2092121,27.2076245 C31.2092121,27.4276534 31.0618394,27.6469657 30.767813,27.6469657 Z" id="Path-Copy-2" fill="#E3EAF2"></path>
                                <path d="M11.7768713,41.4758239 L5.15229132,41.4758239 C4.85826492,41.4758239 4.63756541,41.2557949 4.63756541,40.9626618 C4.63756541,40.6695287 4.85826492,40.4494997 5.15229132,40.4494997 L11.7768713,40.4494997 C12.0716165,40.4494997 12.2923161,40.6695287 12.2923161,40.9626618 C12.2923161,41.2557949 12.0716165,41.4758239 11.7768713,41.4758239 Z" id="Path" fill="#E3EAF2"></path>
                                <path d="M11.7768713,31.7293278 L5.15229132,31.7293278 C4.85826492,31.7293278 4.63756541,31.5100155 4.63756541,31.2168824 C4.63756541,30.9237493 4.85826492,30.7037203 5.15229132,30.7037203 L11.7768713,30.7037203 C12.0716165,30.7037203 12.2923161,30.9237493 12.2923161,31.2168824 C12.2923161,31.5100155 12.0716165,31.7293278 11.7768713,31.7293278 Z" id="Path" fill="#CED7E2"></path>
                                <g id="gauge-(4)" transform="translate(6.803883, 4.005267)">
                                    <path d="M19.6967076,13.3392219 C19.6967076,13.3839878 19.6956689,13.4284714 19.6950078,13.4730491 L17.1628627,13.4730491 L16.2882813,13.4730491 L5.66261104,13.4730491 L4.78802966,13.4730491 L2.2558373,13.4730491 C2.25512906,13.4284714 2.25413753,13.3839408 2.25413753,13.3392219 C2.25413753,8.60904576 6.15880364,4.77447136 10.9754462,4.77447136 C15.7920887,4.77447136 19.6967076,8.60899869 19.6967076,13.3392219 Z" id="Path" fill="#E6EDF5"></path>
                                    <path d="M0.00217193453,13.4730491 C0.00127483113,13.4169386 0,13.3609223 0,13.3046236 C0,7.35188002 4.91386022,2.52619376 10.975399,2.52619376 C17.0369377,2.52619376 21.9507979,7.35188002 21.9507979,13.3046236 C21.9507979,13.3609223 21.9495231,13.4169386 21.948626,13.4730491 L17.6613689,13.4730491 C17.6627854,13.4170798 17.6635408,13.3609223 17.6635408,13.3046236 C17.6635408,9.67716827 14.6691514,6.73650099 10.975399,6.73650099 C7.28164658,6.73650099 4.28725711,9.67712119 4.28725711,13.3046236 C4.28725711,13.3609223 4.28801256,13.4170798 4.28942904,13.4730491 L0.00217193453,13.4730491 Z" id="Path" fill="#F14D99"></path>
                                    <path d="M21.9507979,13.3046236 C21.9507979,13.3609223 21.9495231,13.4169386 21.948626,13.4730491 L21.0471787,13.4730491 C21.0479814,13.4215517 21.0491618,13.3701485 21.0491618,13.3184629 C21.0491618,7.85470866 16.5389981,3.42551421 10.975399,3.42551421 C5.41179981,3.42551421 0.901636124,7.85470866 0.901636124,13.3184629 C0.901636124,13.3701485 0.902816523,13.4215517 0.903619195,13.4730491 L0.00217193453,13.4730491 C0.00127483113,13.4169386 0,13.3609223 0,13.3046236 C0,7.35188002 4.91386022,2.52619376 10.975399,2.52619376 C17.0369377,2.52619376 21.9507979,7.35188002 21.9507979,13.3046236 Z" id="Path" fill="#F14D99"></path>
                                    <path d="M10.9753969,2.52619376 C17.0369377,2.52619376 21.9507979,7.35188002 21.9507979,13.3046236 C21.9507979,13.3609223 21.9495231,13.4169386 21.948626,13.4730491 L17.6613689,13.4730491 C17.6627854,13.4170798 17.6635408,13.3609223 17.6635408,13.3046236 C17.6635408,9.67716827 14.6691514,6.73650099 10.9753969,6.73650099 C10.9753969,5.8273105 10.9753969,3.42551421 10.9753969,2.52619376 Z" id="Path" fill="#32D697"></path>
                                    <path d="M21.9507979,13.3046236 C21.9507979,13.3609223 21.9495231,13.4169386 21.948626,13.4730491 L21.0471787,13.4730491 C21.0479814,13.4215517 21.0491618,13.3701485 21.0491618,13.3184629 C21.0491618,7.85470866 16.5389981,3.42551421 10.9753912,3.42551421 C10.9753912,3.07576212 10.9753912,2.77828914 10.9753912,2.52619376 C17.0369377,2.52619376 21.9507979,7.35188002 21.9507979,13.3046236 Z" id="Path" fill="#32D697"></path>
                                    <path d="M16.9096907,1.33940143 C17.0172959,1.39089876 17.0620094,1.518277 17.0085137,1.623437 L13.7905566,7.94386401 C13.7384774,8.04619966 13.6128829,8.08851785 13.5074969,8.03975072 C12.7392931,7.68407078 11.8810484,7.48504817 10.975399,7.48504817 C10.0697495,7.48504817 9.21150483,7.68402371 8.44330104,8.03975072 C8.337915,8.08856493 8.21236774,8.04619966 8.16024131,7.94386401 L4.94228423,1.623437 C4.88874132,1.518277 4.93350206,1.39089876 5.04110725,1.33940143 C6.83370869,0.481646005 8.84718643,0 10.975399,0 C13.1036115,0 15.1170892,0.481646005 16.9096907,1.33940143 Z" id="Path" fill="#FFD777"></path>
                                    <g id="Group" transform="translate(5.997608, 2.526194)" fill="#FAC727">
                                        <path d="M4.97779064,0 C6.76982548,0 8.46143197,0.422005125 9.95558127,1.16998744 L8.03776309,4.93677741 C7.12078177,4.4725953 6.08051957,4.21035431 4.97779064,4.21035431 C3.87506171,4.21035431 2.8347995,4.4725953 1.91781819,4.93677741 L0,1.16998744 C1.49414931,0.422005125 3.18575579,0 4.97779064,0 Z" id="Path"></path>
                                    </g>
                                    <path d="M16.8749213,5.94353554 L16.9819746,5.98465959 C17.3328365,6.15054315 17.496912,6.55145978 17.3604106,6.90935214 L14.2097363,15.1694493 C14.0443212,15.8773999 13.4070475,16.3987952 12.6457545,16.3987952 C11.7608329,16.3987952 11.0434807,15.6943079 11.0434807,14.8253021 C11.0434807,14.4436319 11.1818576,14.0936972 11.4120327,13.8212454 L16.0098923,6.27095465 C16.1895585,5.9758382 16.5491288,5.84574294 16.8749213,5.94353554 Z" id="Combined-Shape" fill="#1E1F28" transform="translate(14.225905, 11.155103) rotate(31.000000) translate(-14.225905, -11.155103) "></path>
                                    <path d="M11.6909943,13.4887522 C11.690471,13.8775086 11.3696622,14.1930613 10.9744528,14.1935924 C10.5792434,14.1941223 10.2592818,13.8794297 10.2598037,13.4906733 C10.260327,13.1019169 10.5811358,12.7863642 10.9763452,12.7858329 C11.3715547,12.7852561 11.6915162,13.0999957 11.6909943,13.4887522 Z" id="Path" fill="#61AE9F" transform="translate(10.975399, 13.489713) rotate(31.000000) translate(-10.975399, -13.489713) "></path>
                                </g>
                            </g>
                        </g>
                        <g id="support" transform="translate(20.891742, 17.727964)">
                            <path d="M48.0441637,24.0119979 C48.0441637,30.2197483 45.7081844,35.8418971 41.8531676,40.0585086 C41.8531676,40.0585086 41.8531676,40.0585086 41.8531676,40.1759085 C36.3628723,46.6179927 26.0834475,50.3664025 15.2200278,46.5010587 C11.131599,44.8611877 7.0431703,41.5814457 6.69305238,40.7615101 C-7.79150719,25.6518689 2.7213296,0 23.9808801,0 C37.29745,0 48.0441637,10.7760957 48.0441637,24.0119979 Z" id="Path" fill="#EAE5FF"></path>
                            <path d="M41.5904701,40.173913 C33.6258606,49.7505224 16.8775232,51.3854853 6.45369364,40.757762 L41.5904701,40.173913 Z" id="Path" fill="#E9F0F8"></path>
                            <path d="M41.5904701,40.2267121 C36.1038192,46.7271291 25.8312177,50.3261596 14.975009,46.4953506 C10.8892941,44.8701309 6.80357915,41.6196915 6.45369364,40.8070817 C7.50427949,39.6463424 10.5394085,38.8337326 16.7262952,36.2795521 C18.8274669,35.4669423 18.3604882,33.2613529 18.3604882,28.8501743 C17.8935095,28.2698046 17.4265308,27.3413056 17.3099023,26.2964555 L16.8429237,26.0642153 C15.5586161,26.4123448 15.6757093,25.0193653 15.3253591,22.3497573 C15.2087306,21.1885563 15.3253591,21.072667 15.9089663,20.8404268 L15.8555309,20.6608216 C14.2213379,16.9459018 13.9244231,12.0702428 17.5431593,10.3291339 C17.3099023,9.86465347 16.7262952,8.35578475 16.7262952,7.89130435 C18.4771167,8.12354455 21.5759035,8.70391419 23.4433536,8.35578475 C26.2452256,7.7754151 29.3969832,8.82026514 30.5641975,11.4898732 C35.93422,13.5795732 33.2489764,18.6874725 32.6653692,20.7767108 C32.5487407,20.8930618 32.5487407,21.1248403 32.5487407,21.1248403 C32.5487407,21.1248403 32.5487407,21.2411912 32.6653692,21.2411912 C33.0157194,21.3570805 33.5356688,21.3049072 33.4190403,22.2334063 C33.1857833,24.7875868 33.1857833,26.2964555 31.9014758,25.9483261 L30.7342614,27.9216752 C30.7342614,28.8501743 30.3839112,33.3777039 30.7342614,34.4225539 C30.9675184,35.2351638 31.5515903,35.8155334 32.2518259,36.0477736 C38.2054555,38.7173816 40.3066272,39.2977513 41.5904701,40.2267121 Z" id="Path" fill="#FFFFFF"></path>
                            <path d="M41.5904701,40.0305723 C36.1038192,46.6936466 25.8312177,50.3827342 14.975009,46.4560684 C10.8892941,44.7901815 6.80357915,41.4584077 6.45369364,40.6254643 C8.08788667,38.8407883 16.6096666,36.6987985 17.776881,35.1521739 C21.0452671,39.6737317 27.8157609,39.6737317 31.0846116,35.1521739 C31.3178686,35.5090145 31.6682188,35.7470659 32.0185689,35.865855 C38.2054555,38.4834745 40.3066272,39.0783665 41.5904701,40.0305723 Z" id="Path" fill="url(#linearGradient-7)"></path>
                            <path d="M33.0307762,20.8043478 C33.1525192,20.2064366 32.7877622,19.3696382 32.5442762,18.771727 C32.5442762,18.6520523 32.4225333,18.5328397 32.4225333,18.5328397 C31.3277903,16.5002189 29.0160895,15.6629584 26.8256598,15.5437458 C21.1075152,15.3043965 20.6210152,16.3805442 18.7958144,14.7064853 C19.6475433,15.9023077 19.4040574,19.2499635 15.7541276,20.3261113 C13.1994128,14.5868106 14.4158987,10.8805929 16.9710854,9.68477045 C16.1193565,7.8914989 16.1193565,7.17391304 16.1193565,7.17391304 C16.1193565,7.17391304 21.5940152,8.13038614 23.419216,7.65214959 C25.8526598,7.17391304 29.5025895,7.77182425 30.8408184,10.8805929 C36.9241919,13.0328884 33.5177481,19.0110763 33.0307762,20.8043478 Z" id="Path" fill="#1C3754"></path>
                            <path d="M18.1703309,28.5874983 C18.0486288,28.4656508 18.0486288,28.3438033 17.9269268,28.2219558 L17.9269268,27.9782609 C18.6571392,29.1967358 19.144412,29.3185833 23.1629029,32.1201454 C24.136984,32.9730778 25.4766358,32.9730778 26.4507169,32.1201454 C26.572419,31.9982979 30.5909099,28.4656508 30.712612,28.2219558 C30.712612,28.7093458 30.5909099,33.8255452 30.834314,34.4347826 L18.0486288,34.4347826 C18.1703309,34.0692401 18.1703309,29.3185833 18.1703309,28.5874983 Z" id="Path" fill="url(#linearGradient-8)"></path>
                            <path d="M34.1326859,25.826087 L32.9855453,25.826087 L32.9855453,19.3695652 L34.1326859,19.3695652 C35.0505811,19.3695652 35.8538535,20.1624398 35.8538535,21.0688396 L35.8538535,24.1272631 C35.8538535,25.1467376 35.1652038,25.826087 34.1326859,25.826087 Z" id="Path" fill="#2D5887"></path>
                            <path d="M32.1378841,29.3434298 C25.2933465,29.3434298 24.3806204,29.7225096 24.3806204,28.7114624 C24.3806204,28.3318798 24.6085749,28.0789924 24.8369835,28.0789924 L32.1378841,28.0789924 C32.8226558,28.0789924 33.392996,27.447025 33.392996,26.6888653 L33.392996,25.6773154 C33.392996,24.9191557 34.4196994,24.9191557 34.4196994,25.6773154 L34.4196994,26.6888653 C34.4196994,28.2056875 33.392996,29.3434298 32.1378841,29.3434298 Z" id="Path" fill="#1C3754"></path>
                            <path d="M25.8604834,29.4130435 L24.3096114,29.4130435 C23.9217648,29.4130435 23.6635433,29.221663 23.6635433,28.9347826 L23.6635433,28.4565217 C23.6635433,28.1696413 23.9217648,27.9782609 24.3096114,27.9782609 L25.8604834,27.9782609 C26.2478156,27.9782609 26.5065514,28.1696413 26.5065514,28.4565217 L26.5065514,28.9347826 C26.6356622,29.221663 26.2478156,29.4130435 25.8604834,29.4130435 Z" id="Path" fill="#1C3754"></path>
                            <g id="Group-27" transform="translate(33.702622, 29.960870)">
                                <path d="M21.9671164,13.3688056 C21.9671164,13.6038553 21.8489846,13.7211466 21.8489846,13.9561963 C21.7308528,14.5435871 21.4941185,15.1309779 21.257855,15.7183686 C21.257855,15.8361272 21.1392525,15.9534184 21.1392525,16.0707096 L21.1392525,16.1884682 C20.1937275,17.9506405 18.8928658,19.3604717 17.2376087,20.417962 C17.0008745,20.5357206 16.8827427,20.6530118 16.6464791,20.770303 C16.5283473,20.8875943 16.4097449,20.8880616 16.2916131,21.0053528 C16.0548788,21.1231113 15.8186152,21.2404026 15.5823516,21.3576938 C14.8730902,21.7100348 14.1633581,21.8277933 13.3354943,22.0628431 C11.9169714,22.2978929 10.3798461,22.2978929 8.96085264,22.0628431 C2.93048328,20.770303 -0.971160519,14.8959281 0.211098736,8.9037946 C1.51196043,2.91212841 7.42372735,-0.965024483 13.4540967,0.209757049 C15.5823516,0.67985658 17.5924748,1.73734688 19.1296,3.26446941 C21.612721,5.84954954 22.7949802,9.6089439 21.9671164,13.3688056 Z" id="Path" fill="url(#linearGradient-9)"></path>
                                <g id="noun-bank-1401483" transform="translate(4.000000, 4.000000)" fill="#F8F8F8">
                                    <path d="M11.7110525,12.4477402 L11.7110525,6.69849528 L9.89260196,6.69849528 L9.89260196,12.4477402 L7.74789043,12.4477402 L7.74789043,6.69849528 L5.92943984,6.69849528 L5.92943984,12.4477402 L3.78472832,12.4477402 L3.78472832,6.69849528 L1.96627773,6.69849528 L1.96627773,12.4477402 L0.618165817,12.4477402 C0.474603658,12.4477402 0.358271301,12.5712269 0.358271301,12.7238701 C0.358271301,12.8765133 0.474591592,13 0.618165817,13 L12.3749539,13 C12.5185161,13 12.6348484,12.8765133 12.6348484,12.7238701 C12.6348484,12.5712269 12.518434,12.4477402 12.3749539,12.4477402 L11.7110525,12.4477402 Z" id="Path"></path>
                                    <path d="M12.8727352,5.63269029 L6.66422441,0.066250023 C6.56807551,-0.022083341 6.42517455,-0.022083341 6.32901599,0.066250023 L0.0920302437,5.65755993 C0.00889054323,5.73207141 -0.0223112774,5.85636063 0.0166198109,5.96402053 C0.0530050431,6.07168298 0.151793917,6.14619703 0.260949613,6.14619703 L12.7349211,6.14619703 L12.7401055,6.14619703 C12.8830089,6.14619703 13,6.02190781 13,5.87006714 C13,5.7679119 12.9480621,5.67957853 12.8726517,5.63260825 L12.8727352,5.63269029 Z M6.49795949,4.51450523 C5.88987389,4.51450523 5.39612258,3.9899097 5.39612258,3.34652961 C5.39612258,2.70045744 5.88987389,2.17855399 6.49795949,2.17855399 C7.1035113,2.17855399 7.59726262,2.7004318 7.59726262,3.34652961 C7.59726262,3.9899097 7.1035113,4.51450523 6.49795949,4.51450523 L6.49795949,4.51450523 Z" id="Shape"></path>
                                </g>
                            </g>
                            <path d="M2.1514623,6.45652174 C2.55494815,6.45652174 2.86830828,6.14251831 2.86830828,5.73913043 C2.86830828,5.33527942 2.55494815,5.02173913 2.1514623,5.02173913 C1.74797646,5.02173913 1.43415414,5.33527942 1.43415414,5.73913043 C1.43415414,6.14251831 1.74797646,6.45652174 2.1514623,6.45652174 Z" id="Path" fill="url(#linearGradient-10)"></path>
                        </g>
                    </g>
                </g>
            </g>
        </g>
    </g>
</svg>