<?xml version="1.0" encoding="UTF-8"?>
<svg width="12px" height="12px" viewBox="0 0 12 12" version="1.1" xmlns="http://www.w3.org/2000/svg" xmlns:xlink="http://www.w3.org/1999/xlink">
    <title>6D13127C-BDD9-4605-A3C1-90AEC3DA8DCE@1x</title>
    <g id="Final.---CHR-30-days-Free-Plan-" stroke="none" stroke-width="1" fill="none" fill-rule="evenodd">
        <g id="-Bank-Logo---SVG" transform="translate(-174.000000, -30.000000)" fill-rule="nonzero">
            <g id="Group" transform="translate(174.000000, 30.000000)">
                <path d="M6,0 C2.68629672,0 0,2.68629672 0,6 C0,9.31370328 2.68629672,12 6,12 C9.31370328,12 12,9.31370328 12,6 L12,6 C12,2.68686297 9.31483579,0.00113250283 6.00169875,0 L6,0 Z" id="Path" fill="#0071BB"></path>
                <path d="M9.74518686,7.53737259 C9.74518686,9.17270668 7.91789354,9.32899207 6.62514156,9.33635334 L5.46262741,9.33635334 L5.46262741,7.86409966 L7.77463194,7.86409966 L7.77463194,6.74065685 L5.46262741,6.74065685 L5.46262741,5.21347678 L8.02208381,5.21347678 L8.02208381,4.02604757 L4.10702152,4.02604757 L4.10702152,9.3391846 L2.61155153,9.3391846 L2.61155153,2.6608154 L6.62740657,2.6608154 C7.8216308,2.6608154 9.74745187,2.83125708 9.74745187,4.41166478 C9.74745187,5.19309173 9.07757644,5.76783692 8.29728199,5.96545866 C9.26387316,6.26387316 9.74518686,6.74292186 9.74518686,7.53737259 Z" id="Path" fill="#FFFFFF"></path>
            </g>
        </g>
    </g>
</svg>