<?xml version="1.0" encoding="UTF-8"?>
<svg width="14px" height="12px" viewBox="0 0 14 12" version="1.1" xmlns="http://www.w3.org/2000/svg" xmlns:xlink="http://www.w3.org/1999/xlink">
    <title>235080B6-DA76-4585-8452-F53E9BED0DBD@1x</title>
    <g id="Final.---CHR-30-days-Free-Plan-" stroke="none" stroke-width="1" fill="none" fill-rule="evenodd">
        <g id="-Bank-Logo---SVG" transform="translate(-114.000000, -30.000000)" fill="#E0643A">
            <path d="M124.945341,32.1011296 C124.876344,32.4918884 124.876344,32.4918884 124.826165,32.7417178 C124.700717,33.0940414 124.537634,33.3759002 124.330645,33.6833826 C124.3181,33.6897885 124.311828,33.6961944 124.299283,33.7026003 C123.722222,34.375218 123.032258,34.7916003 122.204301,35.0862709 C122.041219,35.1247062 122.041219,35.1247062 122.022401,35.137518 L122.022401,35.1759533 C122.078853,35.2336062 122.185484,35.2207945 122.25448,35.2207945 C122.317204,35.2400121 122.317204,35.2400121 122.417563,35.246418 C122.718638,35.3425063 123.007168,35.4578121 123.283154,35.6243651 C123.301971,35.6499886 123.433692,35.7460769 123.646953,35.9382534 C123.709677,36.0151239 123.772401,36.0919945 123.835125,36.1688651 C123.966846,36.3610416 124.060932,36.5852475 124.142473,36.8094534 C124.167563,36.9247593 124.192652,37.0400652 124.217742,37.1553711 C124.230287,37.2834887 124.230287,37.2834887 124.230287,37.6165946 C124.205197,37.7767417 124.173835,37.9368888 124.148746,38.0970359 C124.104839,38.1931241 124.092294,38.2635888 124.017025,38.4557653 C123.853943,38.7888712 123.672043,39.0963536 123.433692,39.3782124 C123.145161,39.6856948 122.831541,39.9547419 122.499104,40.2109772 C122.442652,40.2366007 122.354839,40.2686301 122.317204,40.3198772 C121.802867,40.6145478 121.294803,40.8131302 120.736559,41.0117125 C120.391577,41.0821772 120.052867,41.152642 119.701613,41.1974831 C119.061828,41.2359184 119.061828,41.2359184 118.879928,41.2551361 C118.315412,41.2743537 116.138889,41.3832537 116.101254,41.3768479 C116.069892,41.3448184 116.076165,41.261542 116.101254,41.2295125 C116.684588,41.0565537 117.280466,40.8579713 117.870072,40.710636 C117.920251,40.6914184 118.91129,40.3967478 119.011649,40.3583125 C119.456989,40.2622242 119.896057,40.0892654 120.335125,39.9675536 C120.435484,39.9291183 120.962366,39.781783 121.451613,39.6344477 C121.884409,39.5319536 122.342294,39.3910242 122.762545,39.2436889 C122.781362,39.2180653 122.781362,39.1924418 122.781362,39.1604124 C122.768817,39.1540065 122.756272,39.1411948 122.75,39.1347889 C122.712366,39.1347889 122.147849,39.2821242 119.513441,39.9355242 C119.500896,39.9419301 119.488351,39.948336 119.482079,39.9547419 C118.999104,40.0508301 118.516129,40.1917595 118.033154,40.3070654 C117.99552,40.3198772 117.957885,40.332689 117.926523,40.3455007 C116.101254,40.7875066 116.101254,40.7875066 116.057348,40.8067243 L116.007168,40.8067243 C115.969534,40.7554772 115.944444,40.7490713 115.956989,40.6786066 C116.094982,40.5889243 116.094982,40.5889243 116.433692,40.3903419 C116.521505,40.3519066 117.355735,39.8650595 117.437276,39.8266242 C118.102151,39.4230536 118.792115,39.0451065 119.456989,38.6479418 C120.015233,38.3340535 120.579749,38.0073535 121.137993,37.6934652 C121.15681,37.6806535 121.175627,37.6678417 121.194444,37.6486241 C121.620968,37.4244182 122.034946,37.1745887 122.455197,36.9375711 C122.649642,36.8542946 122.856631,36.7261769 123.032258,36.6044652 C123.06362,36.559624 123.03853,36.501971 122.988351,36.4955652 C122.580645,36.7069593 122.179211,36.9247593 121.777778,37.1361534 C121.715054,37.1553711 121.715054,37.1553711 121.65233,37.2002123 C120.498208,37.8023652 120.498208,37.8023652 120.404122,37.8408005 C120.272401,37.924077 119.927419,38.0970359 119.896057,38.1226594 C119.394265,38.3788947 118.892473,38.6479418 118.396953,38.9233947 C118.378136,38.9298006 118.365591,38.9298006 118.353047,38.9362065 C118.083333,39.1219771 117.757168,39.2436889 117.481183,39.4166477 C116.998208,39.6600713 116.508961,39.9163066 116.032258,40.1725419 C115.975806,40.1853537 115.612007,40.4479948 115.649642,40.1917595 C115.818996,40.0316125 115.988351,39.8650595 116.157706,39.7049124 C116.207885,39.6472595 116.339606,39.5255477 116.358423,39.5191418 C116.540323,39.3141536 116.747312,39.0771359 116.973118,38.9233947 C116.985663,38.9041771 117.00448,38.8849594 117.017025,38.8593359 C117.456093,38.4429535 117.901434,38.0201653 118.321685,37.5781594 C119.582437,36.3482299 120.849462,35.1183004 122.116487,33.9075885 C122.154122,33.8563414 122.191756,33.8050944 122.248208,33.773065 C123.019713,33.0171708 123.069892,32.9595179 123.985663,32.0691001 C124.048387,32.024259 124.048387,32.024259 124.067204,31.9858237 C124.067204,31.8320825 123.979391,31.9025472 123.897849,31.966606 C123.672043,32.1972178 123.427419,32.402206 123.195341,32.6264119 C123.107527,32.7545296 122.950717,32.844212 122.850358,32.9659237 C122.630824,33.170912 122.373656,33.4463649 122.12276,33.6257297 C121.94086,33.8115003 121.733871,34.0036767 121.533154,34.1638238 C120.811828,34.8748768 120.015233,35.5154651 119.300179,36.232924 C118.948925,36.5147828 118.641577,36.8799181 118.28405,37.1553711 C118.189964,37.2642711 118.189964,37.2642711 117.550179,37.8664241 C117.52509,37.8856417 117.506272,37.8984535 117.481183,37.9112653 C116.766129,38.583883 116.03853,39.2436889 115.310932,39.9034948 C115.229391,39.9034948 115.210573,39.8842772 115.216846,39.8010007 C116.08871,38.5070124 116.960573,37.2066181 117.819892,35.9062239 C118.171147,35.3681298 118.516129,34.8172239 118.886201,34.2919415 C119.149642,33.8947767 119.168459,33.8563414 119.262545,33.7282238 C119.933692,32.7096884 120.636201,31.6847472 121.294803,30.6534 C121.376344,30.5701236 121.351254,30.5188765 121.244624,30.5316883 C120.68638,31.3324236 120.109319,32.1203472 119.557348,32.9338943 C119.463262,33.0556061 119.287634,33.3246532 117.418459,35.9959063 C117.374552,36.066371 116.703405,37.0016299 116.659498,37.0592828 C116.057348,37.9176711 115.455197,38.7888712 114.840502,39.6344477 C114.80914,39.6600713 114.777778,39.6856948 114.733871,39.6600713 L114.733871,39.5832007 C115.172939,38.41733 115.637097,37.2450534 116.113799,36.0984004 C116.810036,34.3111591 117.506272,32.5111061 118.215054,30.7238648 C118.215054,30.6854295 118.215054,30.6854295 118.189964,30.6534 C118.164875,30.6534 118.139785,30.6598059 118.120968,30.6790236 C117.581541,31.915359 117.023297,33.1516943 116.477599,34.3880297 C116.452509,34.4200591 115.88172,35.7204533 115.718638,36.0535592 C115.649642,36.2265181 115.59319,36.3354181 115.517921,36.5147828 C115.053763,37.5141005 114.608423,38.5326359 114.163082,39.5447654 C114.106631,39.5703889 114.056452,39.5767948 114,39.5511713 C114.006272,39.4807065 114.006272,39.4807065 114.225806,38.6543477 C114.244624,38.6095065 114.307348,38.3596771 114.326165,38.30843 C114.344982,38.2187476 114.363799,38.1739065 114.577061,37.3155182 C114.689964,36.886324 114.802867,36.4571299 114.922043,36.0343416 C114.94086,35.9446592 116.007168,32.0050413 116.019713,31.9473884 C116.057348,31.8192707 116.08871,31.6975589 116.126344,31.5694413 C116.264337,31.0185354 116.408602,30.5060647 116.515233,30.0640588 C116.527778,30.0320294 116.540323,30.0256235 116.565412,30.0064059 C118.472222,30.0064059 120.385305,30.0128118 122.298387,30 C122.88172,30.0320294 123.477599,30.1345235 124.017025,30.3907589 C124.073477,30.4356 124.073477,30.4356 124.21147,30.5124706 C124.330645,30.602153 124.456093,30.7046471 124.568996,30.819953 C124.63172,30.9096354 124.688172,30.9993177 124.750896,31.0890001 C124.78853,31.1786824 124.819892,31.2747707 124.857527,31.364453 C124.882616,31.4989766 124.913978,31.6335001 124.939068,31.7616178 C124.939068,31.8641119 124.939068,31.9794178 124.945341,32.1011296 M128,32.6071943 C127.962366,32.8826473 127.918459,33.1388826 127.84319,33.4015238 C127.68638,33.7346297 127.68638,33.7346297 127.586022,33.9204003 C127.404122,34.2022591 127.172043,34.4392768 126.927419,34.6634827 C126.689068,34.8492533 126.689068,34.8492533 126.4319,35.0350239 C126.124552,35.2207945 125.785842,35.3681298 125.459677,35.521871 C125.334229,35.5603063 125.183692,35.5923357 125.070789,35.6628004 C125.070789,35.6948298 125.070789,35.6948298 125.077061,35.7076416 C125.497312,35.7524828 125.867384,35.8998181 126.218638,36.1368357 C126.387993,36.284171 126.551075,36.4315063 126.695341,36.610871 C126.864695,36.8607005 126.996416,37.104124 127.096774,37.3859829 C127.121864,37.5012888 127.146953,37.6101888 127.172043,37.7254947 C127.19086,37.9048594 127.19086,38.0842241 127.19086,38.2699947 C127.134409,38.7952771 126.946237,39.2629065 126.670251,39.7113183 C126.494624,39.9611478 126.494624,39.9611478 126.318996,40.1917595 C126.017921,40.5120537 125.647849,40.877189 125.246416,41.0629596 C124.951613,41.2871655 124.556452,41.4280949 124.217742,41.5690243 C124.00448,41.6330832 123.784946,41.7035479 123.571685,41.7740126 C123.08871,41.8636949 123.08871,41.8636949 123.03853,41.8829126 C122.668459,41.9213479 122.668459,41.9213479 122.5681,41.9405655 C120.422939,42.0302479 118.252688,41.9918126 116.107527,41.9918126 C116.082437,41.9469714 116.069892,41.8829126 116.126344,41.8572891 C117.155018,41.8124479 118.189964,41.7612008 119.218638,41.7291714 C119.419355,41.7291714 119.638889,41.7355773 119.833333,41.7035479 C120.523297,41.6779243 121.194444,41.6458949 121.878136,41.5369949 C121.922043,41.5177773 122.103943,41.479342 122.373656,41.4088773 C123.709677,40.9668714 124.926523,40.1020772 125.491039,38.74403 C125.528674,38.6223182 125.528674,38.6223182 125.566308,38.5518535 C125.59767,38.3981123 125.629032,38.2443712 125.660394,38.09063 C125.666667,37.7126829 125.666667,37.7126829 125.660394,37.5653476 C125.610215,37.2002123 125.478495,36.8350769 125.271505,36.5340005 C125.177419,36.4315063 125.089606,36.3226063 124.99552,36.2201122 C124.556452,35.8677886 124.123656,35.630771 123.55914,35.5859298 C123.55914,35.5410886 123.571685,35.5346827 123.609319,35.5154651 C123.747312,35.4770298 123.747312,35.4770298 123.941756,35.4065651 C124.832437,35.0094003 125.629032,34.4777121 126.130824,33.606512 C126.181004,33.4912061 126.231183,33.3694944 126.281362,33.2477826 C126.369176,32.953112 126.419355,32.6584414 126.444444,32.350959 C126.4319,32.2164354 126.425627,32.0819119 126.419355,31.9473884 C126.394265,31.8641119 126.369176,31.7744295 126.344086,31.6847472 C126.237455,31.422106 126.124552,31.2619589 125.930108,31.0633765 C125.62276,30.8135471 125.277778,30.6277765 124.888889,30.5380942 C124.888889,30.5316883 124.888889,30.5188765 124.895161,30.5124706 C125.095878,30.4740353 125.340502,30.5124706 125.541219,30.5252824 C125.635305,30.5445 125.635305,30.5445 125.974014,30.5829353 C126.086918,30.6085589 126.199821,30.6341824 126.318996,30.6598059 C126.682796,30.7623001 127.046595,30.8904177 127.353943,31.1146236 C127.441756,31.1979001 127.535842,31.2811766 127.623656,31.364453 C127.698925,31.4861648 127.774194,31.6014707 127.849462,31.7167766 C127.887097,31.8320825 127.924731,31.9409825 127.962366,32.0562884 C127.968638,32.2228413 127.993728,32.4150178 128,32.6071943" id="Shape"></path>
        </g>
    </g>
</svg>