<?xml version="1.0" encoding="UTF-8"?>
<svg width="12px" height="12px" viewBox="0 0 12 12" version="1.1" xmlns="http://www.w3.org/2000/svg" xmlns:xlink="http://www.w3.org/1999/xlink">
    <title>E0C4805C-6D9E-4C93-A904-D246060B3D62@1x</title>
    <g id="Final.---CHR-30-days-Free-Plan-" stroke="none" stroke-width="1" fill="none" fill-rule="evenodd">
        <g id="-Bank-Logo---SVG" transform="translate(-275.000000, -64.000000)" fill="#EF7D00">
            <g id="idbi-bank-logo-vector" transform="translate(275.000000, 64.000000)">
                <g id="Clipped" transform="translate(5.028825, 0.135593)">
                    <path d="M0.984478936,0 C1.52993348,0 1.96895787,0.447457627 1.96895787,1.00338983 C1.96895787,1.55932203 1.52993348,2.00677966 0.984478936,2.00677966 C0.43902439,2.00677966 0,1.55932203 0,1.00338983 C0.0133037694,0.447457627 0.45232816,0 0.984478936,0" id="Path"></path>
                </g>
                <g id="Clipped">
                    <path d="M8.80709534,10.8338983 L8.80709534,10.8745763 L8.76718404,10.8338983 L8.80709534,10.8338983 Z M2.99334812,10.6711864 L3.03325942,10.6711864 L2.99334812,10.6983051 L2.99334812,10.6711864 Z M3.27272727,0.0949152542 L3.19290466,0.13559322 L3.15299335,0.176271186 L3.07317073,0.216949153 L3.03325942,0.257627119 L2.99334812,0.298305085 L2.9135255,0.338983051 L2.87361419,0.379661017 L2.83370288,0.420338983 L2.79379157,0.461016949 L2.75388027,0.501694915 L2.71396896,0.542372881 L2.67405765,0.583050847 L2.63414634,0.610169492 L2.59423503,0.650847458 L2.55432373,0.691525424 L2.51441242,0.73220339 L2.47450111,0.772881356 L2.4345898,0.813559322 L2.39467849,0.854237288 L2.35476718,0.894915254 L2.31485588,0.93559322 L2.27494457,0.976271186 L2.23503326,1.01694915 L2.19512195,1.05762712 L2.15521064,1.09830508 L2.11529933,1.13898305 L2.07538803,1.17966102 L2.03547672,1.22033898 L1.99556541,1.26101695 L1.9556541,1.30169492 L1.91574279,1.34237288 L1.87583149,1.38305085 L1.83592018,1.42372881 L1.79600887,1.46440678 L1.75609756,1.50508475 L1.71618625,1.54576271 L1.67627494,1.58644068 L1.63636364,1.62711864 L1.59645233,1.66779661 L1.55654102,1.74915254 L1.51662971,1.78983051 L1.4767184,1.83050847 L1.4368071,1.87118644 L1.39689579,1.91186441 L1.35698448,1.95254237 L1.31707317,2.03389831 L1.27716186,2.07457627 L1.23725055,2.11525424 L1.19733925,2.1559322 L1.15742794,2.23728814 L1.11751663,2.2779661 L1.07760532,2.31864407 L1.03769401,2.4 L0.997782705,2.44067797 L0.957871397,2.5220339 L0.917960089,2.56271186 L0.87804878,2.6440678 L0.838137472,2.68474576 L0.798226164,2.76610169 L0.758314856,2.84745763 L0.718403548,2.88813559 L0.678492239,2.96949153 L0.638580931,3.05084746 L0.598669623,3.13220339 L0.558758315,3.21355932 L0.518847007,3.29491525 L0.478935698,3.37627119 L0.43902439,3.49830508 L0.399113082,3.57966102 L0.359201774,3.70169492 L0.319290466,3.82372881 L0.279379157,3.94576271 L0.239467849,4.06779661 L0.199556541,4.18983051 L0.159645233,4.35254237 L0.119733925,4.5559322 L0.0798226164,4.75932203 L0.0399113082,5.0440678 L0,5.57288136 L0,6.02033898 L0.0399113082,6.54915254 L0.0798226164,6.87457627 L0.119733925,7.0779661 L0.159645233,7.24067797 L0.199556541,7.40338983 L0.239467849,7.56610169 L0.279379157,7.68813559 L0.319290466,7.81016949 L0.359201774,7.93220339 L0.399113082,8.05423729 L0.43902439,8.13559322 L0.478935698,8.25762712 L0.518847007,8.33898305 L0.558758315,8.42033898 L0.598669623,8.50169492 L0.638580931,8.58305085 L0.678492239,8.66440678 L0.718403548,8.74576271 L0.758314856,8.82711864 L0.798226164,8.90847458 L0.838137472,8.98983051 L0.87804878,9.03050847 L0.917960089,9.11186441 L0.957871397,9.19322034 L0.997782705,9.23389831 L1.03769401,9.31525424 L1.07760532,9.3559322 L1.11751663,9.43728814 L1.15742794,9.4779661 L1.19733925,9.51864407 L1.23725055,9.6 L1.27716186,9.64067797 L1.31707317,9.68135593 L1.35698448,9.76271186 L1.39689579,9.80338983 L1.4368071,9.8440678 L1.4767184,9.88474576 L1.51662971,9.92542373 L1.55654102,9.96610169 L1.59645233,10.0474576 L1.63636364,10.0881356 L1.67627494,10.1288136 L1.71618625,10.1694915 L1.75609756,10.2101695 L1.79600887,10.2508475 L1.83592018,10.2915254 L1.87583149,10.3322034 L1.91574279,10.3728814 L1.9556541,10.4135593 L1.99556541,10.4542373 L2.07538803,10.4949153 L2.11529933,10.5355932 L2.15521064,10.5762712 L2.19512195,10.6169492 L2.23503326,10.6576271 L2.27494457,10.6983051 L2.35476718,10.7389831 L2.39467849,10.779661 L2.4345898,10.820339 L2.51441242,10.8610169 L2.55432373,10.9016949 L2.59423503,10.9423729 L2.67405765,10.9830508 L2.71396896,11.0237288 L2.79379157,11.0644068 L2.87361419,11.1050847 L2.9135255,11.1457627 L2.99334812,11.1864407 L3.07317073,11.2271186 L3.11308204,11.2677966 L3.19290466,11.3084746 L3.27272727,11.3491525 L3.35254989,11.3898305 L3.43237251,11.4305085 L3.51219512,11.4711864 L3.63192905,11.5118644 L3.71175166,11.5525424 L3.79157428,11.5932203 L3.9113082,11.6338983 L4.03104213,11.6745763 L4.15077605,11.7152542 L4.27050998,11.7559322 L4.3902439,11.7966102 L4.54988914,11.8372881 L4.70953437,11.8779661 L4.90909091,11.9186441 L5.14855876,11.959322 L5.54767184,12 L6.49223947,12 L6.89135255,11.959322 L7.1308204,11.9186441 L7.33037694,11.8779661 L7.49002217,11.8372881 L7.64966741,11.7966102 L7.80931264,11.7559322 L7.92904656,11.7152542 L8.04878049,11.6745763 L8.1286031,11.6338983 L8.24833703,11.5932203 L8.32815965,11.5525424 L8.44789357,11.5118644 L8.52771619,11.4711864 L8.6075388,11.4305085 L8.68736142,11.3898305 L8.76718404,11.3491525 L8.84700665,11.3084746 L8.92682927,11.2677966 L8.96674058,11.2271186 L9.04656319,11.1864407 L9.12638581,11.1457627 L9.16629712,11.1050847 L9.24611973,11.0644068 L9.28603104,11.0237288 L9.36585366,10.9830508 L9.40576497,10.9423729 L9.48558758,10.9016949 L9.52549889,10.8610169 L9.60532151,10.820339 L9.64523282,10.779661 L9.68514412,10.7389831 L9.72505543,10.6983051 L9.80487805,10.6576271 L9.84478936,10.6169492 L9.88470067,10.5762712 L9.92461197,10.5355932 L9.96452328,10.4949153 L10.0044346,10.4542373 L10.0443459,10.4135593 L10.1241685,10.3728814 L10.1640798,10.3322034 L10.2039911,10.2915254 L10.2439024,10.2508475 L10.2838137,10.2101695 L10.3237251,10.1694915 L10.3636364,10.0881356 L10.4035477,10.0474576 L10.443459,10.0067797 L10.4833703,9.96610169 L10.5232816,9.92542373 L10.5631929,9.88474576 L10.6031042,9.8440678 L10.6430155,9.80338983 L10.6829268,9.7220339 L10.7228381,9.68135593 L10.7627494,9.64067797 L10.8026608,9.55932203 L10.8425721,9.51864407 L10.8824834,9.4779661 L10.9223947,9.39661017 L10.962306,9.3559322 L11.0022173,9.27457627 L11.0421286,9.23389831 L11.0820399,9.15254237 L11.1219512,9.11186441 L11.1618625,9.03050847 L11.2017738,8.94915254 L11.2416851,8.90847458 L11.2815965,8.82711864 L11.3215078,8.74576271 L11.3614191,8.66440678 L11.4013304,8.58305085 L11.4412417,8.50169492 L11.481153,8.42033898 L11.5210643,8.33898305 L11.5609756,8.21694915 L11.6008869,8.13559322 L11.6407982,8.01355932 L11.6807095,7.93220339 L11.7206208,7.81016949 L11.7605322,7.68813559 L11.8004435,7.52542373 L11.8403548,7.36271186 L11.8802661,7.2 L11.9201774,6.99661017 L11.9600887,6.79322034 L12,6.46779661 L12,5.26101695 L11.9600887,4.85423729 L11.9201774,4.61016949 L11.8802661,4.40677966 L11.8403548,4.2440678 L11.8004435,4.1220339 L11.7605322,3.95932203 L11.7206208,3.83728814 L11.6807095,3.7559322 L11.6407982,3.63389831 L11.6008869,3.51186441 L11.5609756,3.43050847 L11.5210643,3.34915254 L11.481153,3.26779661 L11.4412417,3.18644068 L11.4013304,3.10508475 L11.3614191,3.02372881 L11.3215078,2.94237288 L11.2815965,2.86101695 L11.2416851,2.77966102 L11.2017738,2.73898305 L11.1618625,2.65762712 L11.1219512,2.61694915 L11.0155211,2.50847458 L10.9756098,2.46779661 L10.9356984,2.38644068 L10.8957871,2.34576271 L10.8558758,2.26440678 L10.8159645,2.22372881 L10.7760532,2.18305085 L10.7361419,2.10169492 L10.6962306,2.06101695 L10.6563193,2.02033898 L10.616408,1.97966102 L10.5764967,1.93898305 L10.5365854,1.85762712 L10.4966741,1.81694915 L10.4567627,1.77627119 L10.4168514,1.73559322 L10.3769401,1.69491525 L10.3370288,1.65423729 L10.2971175,1.61355932 L10.2572062,1.57288136 L10.2172949,1.53220339 L10.1773836,1.49152542 L10.1374723,1.45084746 L10.097561,1.41016949 L10.0576497,1.36949153 L10.0177384,1.32881356 L9.97782705,1.28813559 L9.93791574,1.24745763 L9.89800443,1.20677966 L9.85809313,1.16610169 L9.81818182,1.12542373 L9.77827051,1.08474576 L9.7383592,1.0440678 L9.69844789,1.00338983 L9.65853659,0.962711864 L9.61862528,0.922033898 L9.57871397,0.881355932 L9.53880266,0.840677966 L9.49889135,0.8 L9.45898004,0.759322034 L9.41906874,0.718644068 L9.37915743,0.677966102 L9.33924612,0.637288136 L9.29933481,0.596610169 L9.2594235,0.555932203 L9.2195122,0.515254237 L9.17960089,0.474576271 L9.13968958,0.433898305 L9.09977827,0.393220339 L9.05986696,0.352542373 L9.01995565,0.311864407 L8.98004435,0.271186441 L8.90022173,0.230508475 L8.88691796,0.203389831 L8.84700665,0.162711864 L8.76718404,0.122033898 L8.72727273,0.0813559322 L8.64745011,0.0406779661 L8.40798226,0.0406779661 L8.28824834,0.0813559322 L8.24833703,0.122033898 L8.20842572,0.162711864 L8.16851441,0.203389831 L8.1286031,0.244067797 L8.0886918,0.284745763 L8.04878049,0.366101695 L8.00886918,0.488135593 L7.96895787,0.569491525 L7.92904656,0.650847458 L7.88913525,0.772881356 L7.84922395,0.93559322 L7.80931264,1.09830508 L7.80931264,1.66779661 L7.84922395,1.83050847 L7.88913525,1.91186441 L7.92904656,1.99322034 L7.96895787,2.07457627 L8.00886918,2.11525424 L8.04878049,2.19661017 L8.0886918,2.23728814 L8.1286031,2.2779661 L8.16851441,2.31864407 L8.20842572,2.4 L8.24833703,2.44067797 L8.28824834,2.48135593 L8.32815965,2.5220339 L8.36807095,2.56271186 L8.40798226,2.60338983 L8.44789357,2.6440678 L8.52771619,2.68474576 L8.56762749,2.72542373 L8.6075388,2.76610169 L8.64745011,2.80677966 L8.68736142,2.84745763 L8.72727273,2.88813559 L8.76718404,2.92881356 L8.80709534,2.96949153 L8.88691796,3.01016949 L8.92682927,3.05084746 L8.96674058,3.09152542 L9.00665188,3.13220339 L9.04656319,3.17288136 L9.0864745,3.21355932 L9.12638581,3.25423729 L9.16629712,3.29491525 L9.20620843,3.33559322 L9.24611973,3.37627119 L9.28603104,3.41694915 L9.32594235,3.45762712 L9.36585366,3.49830508 L9.40576497,3.53898305 L9.44567627,3.57966102 L9.48558758,3.62033898 L9.52549889,3.70169492 L9.5654102,3.74237288 L9.60532151,3.78305085 L9.64523282,3.82372881 L9.68514412,3.90508475 L9.72505543,3.94576271 L9.76496674,3.98644068 L9.80487805,4.06779661 L9.84478936,4.10847458 L9.88470067,4.18983051 L9.92461197,4.23050847 L9.96452328,4.31186441 L10.0044346,4.39322034 L10.0443459,4.47457627 L10.0842572,4.51525424 L10.1241685,4.59661017 L10.1640798,4.6779661 L10.2039911,4.75932203 L10.2439024,4.88135593 L10.2838137,4.96271186 L10.3237251,5.0440678 L10.3636364,5.16610169 L10.4035477,5.28813559 L10.443459,5.41016949 L10.4833703,5.53220339 L10.5232816,5.69491525 L10.5631929,5.85762712 L10.6031042,6.02033898 L10.6430155,6.30508475 L10.6430155,7.55254237 L10.6031042,7.83728814 L10.5631929,8.04067797 L10.5232816,8.20338983 L10.4833703,8.36610169 L10.443459,8.48813559 L10.4035477,8.61016949 L10.3636364,8.73220339 L10.3237251,8.85423729 L10.2838137,8.93559322 L10.2439024,9.05762712 L10.2039911,9.13898305 L10.1640798,9.22033898 L10.1241685,9.30169492 L10.0842572,9.38305085 L10.0443459,9.46440678 L10.0044346,9.50508475 L9.96452328,9.58644068 L9.92461197,9.66779661 L9.88470067,9.70847458 L9.84478936,9.78983051 L9.80487805,9.83050847 L9.76496674,9.91186441 L9.72505543,9.95254237 L9.68514412,10.0338983 L9.64523282,10.0745763 L9.60532151,10.1152542 L9.5654102,10.1559322 L9.52549889,10.2372881 L9.48558758,10.2779661 L9.44567627,10.3186441 L9.40576497,10.359322 L9.36585366,10.4 L9.32594235,10.440678 L9.28603104,10.5220339 L9.24611973,10.5627119 L9.15299335,10.5084746 L9.11308204,10.5491525 L9.07317073,10.5898305 L9.03325942,10.6305085 L8.99334812,10.6711864 L8.95343681,10.7118644 L8.9135255,10.7525424 L8.87361419,10.7932203 L8.79379157,10.8338983 L8.83370288,10.7932203 L8.87361419,10.7525424 L8.9135255,10.7118644 L8.95343681,10.6711864 L8.99334812,10.6305085 L9.03325942,10.5898305 L9.07317073,10.5491525 L9.11308204,10.5084746 L9.15299335,10.4677966 L9.19290466,10.4271186 L9.23281596,10.3864407 L9.27272727,10.3457627 L9.31263858,10.3050847 L9.35254989,10.2237288 L9.3924612,10.1830508 L9.43237251,10.1423729 L9.47228381,10.0610169 L9.51219512,10.020339 L9.55210643,9.97966102 L9.59201774,9.89830508 L9.63192905,9.81694915 L9.67184035,9.77627119 L9.71175166,9.69491525 L9.75166297,9.65423729 L9.79157428,9.57288136 L9.83148559,9.49152542 L9.8713969,9.41016949 L9.9113082,9.28813559 L9.95121951,9.20677966 L9.99113082,9.12542373 L10.0310421,9.00338983 L10.0709534,8.88135593 L10.1108647,8.75932203 L10.1507761,8.63728814 L10.1906874,8.43389831 L10.2305987,8.23050847 L10.27051,7.86440678 L10.27051,7.14576271 L10.2305987,6.77966102 L10.1906874,6.57627119 L10.1507761,6.41355932 L10.1108647,6.25084746 L10.0709534,6.12881356 L10.0310421,5.96610169 L9.99113082,5.88474576 L9.95121951,5.76271186 L9.9113082,5.68135593 L9.8713969,5.6 L9.83148559,5.4779661 L9.79157428,5.39661017 L9.75166297,5.31525424 L9.71175166,5.27457627 L9.67184035,5.19322034 L9.63192905,5.11186441 L9.59201774,5.03050847 L9.55210643,4.98983051 L9.51219512,4.90847458 L9.47228381,4.86779661 L9.43237251,4.82711864 L9.3924612,4.74576271 L9.35254989,4.70508475 L9.31263858,4.66440678 L9.27272727,4.58305085 L9.23281596,4.54237288 L9.19290466,4.50169492 L9.15299335,4.46101695 L9.11308204,4.42033898 L9.07317073,4.33898305 L9.03325942,4.29830508 L8.99334812,4.25762712 L8.95343681,4.21694915 L8.9135255,4.17627119 L8.87361419,4.13559322 L8.83370288,4.09491525 L8.79379157,4.05423729 L8.75388027,4.01355932 L8.67405765,3.97288136 L8.63414634,3.93220339 L8.59423503,3.89152542 L8.55432373,3.85084746 L8.47450111,3.81016949 L8.4345898,3.76949153 L8.39467849,3.72881356 L8.31485588,3.68813559 L8.27494457,3.64745763 L8.19512195,3.60677966 L8.11529933,3.56610169 L8.0886918,3.59322034 L8.00886918,3.55254237 L7.96895787,3.51186441 L7.88913525,3.47118644 L7.84922395,3.43050847 L7.76940133,3.38983051 L7.72949002,3.34915254 L7.64966741,3.30847458 L7.56984479,3.26779661 L7.49002217,3.22711864 L7.1308204,3.22711864 L7.09090909,3.26779661 L7.05099778,3.30847458 L7.01108647,3.34915254 L6.97117517,3.38983051 L6.93126386,3.47118644 L6.89135255,3.55254237 L6.85144124,3.71525424 L6.81152993,4.63728814 L6.77161863,10.7932203 L6.73170732,10.8338983 L6.69179601,10.8745763 L6.62527716,10.9152542 L6.54545455,10.9559322 L6.42572062,10.9966102 L6.3059867,11.0372881 L6.14634146,11.0779661 L5.827051,11.0779661 L5.62749446,11.0372881 L5.50776053,10.9966102 L5.42793792,10.9559322 L5.3481153,10.9152542 L5.26829268,10.8745763 L5.22838137,10.8338983 L5.18847007,10.7932203 L5.14855876,10.7525424 L5.10864745,3.78305085 L5.06873614,3.53898305 L5.02882483,3.41694915 L4.98891353,3.33559322 L4.94900222,3.29491525 L4.90909091,3.25423729 L4.8691796,3.21355932 L4.78935698,3.17288136 L4.54988914,3.17288136 L4.43015521,3.21355932 L4.35033259,3.25423729 L4.27050998,3.29491525 L4.19068736,3.33559322 L4.15077605,3.37627119 L4.11086475,3.41694915 L4.03104213,3.45762712 L3.99113082,3.49830508 L3.9113082,3.53898305 L3.8713969,3.57966102 L3.79157428,3.62033898 L3.75166297,3.66101695 L3.67184035,3.70169492 L3.63192905,3.74237288 L3.55210643,3.78305085 L3.51219512,3.82372881 L3.43237251,3.86440678 L3.3924612,3.90508475 L3.35254989,3.94576271 L3.31263858,3.98644068 L3.23281596,4.02711864 L3.19290466,4.06779661 L3.15299335,4.10847458 L3.11308204,4.14915254 L3.07317073,4.18983051 L3.03325942,4.23050847 L3.03325942,4.27118644 L2.99334812,4.31186441 L2.95343681,4.35254237 L2.9135255,4.39322034 L2.87361419,4.43389831 L2.83370288,4.47457627 L2.79379157,4.5559322 L2.75388027,4.59661017 L2.71396896,4.63728814 L2.67405765,4.6779661 L2.63414634,4.71864407 L2.59423503,4.8 L2.55432373,4.84067797 L2.51441242,4.9220339 L2.47450111,4.96271186 L2.4345898,5.0440678 L2.39467849,5.08474576 L2.35476718,5.16610169 L2.31485588,5.20677966 L2.27494457,5.28813559 L2.23503326,5.36949153 L2.19512195,5.45084746 L2.15521064,5.53220339 L2.11529933,5.61355932 L2.07538803,5.69491525 L2.03547672,5.81694915 L1.99556541,5.89830508 L1.9556541,6.02033898 L1.91574279,6.14237288 L1.87583149,6.26440678 L1.83592018,6.42711864 L1.79600887,6.58983051 L1.75609756,6.79322034 L1.71618625,7.0779661 L1.71618625,8.04067797 L1.75609756,8.32542373 L1.79600887,8.52881356 L1.83592018,8.69152542 L1.87583149,8.81355932 L1.91574279,8.93559322 L1.9556541,9.05762712 L1.99556541,9.17966102 L2.03547672,9.26101695 L2.07538803,9.38305085 L2.11529933,9.46440678 L2.15521064,9.54576271 L2.19512195,9.62711864 L2.23503326,9.66779661 L2.27494457,9.74915254 L2.31485588,9.83050847 L2.35476718,9.91186441 L2.39467849,9.95254237 L2.4345898,10.0338983 L2.47450111,10.0745763 L2.51441242,10.1559322 L2.55432373,10.1966102 L2.59423503,10.2372881 L2.63414634,10.3186441 L2.67405765,10.359322 L2.71396896,10.4 L2.75388027,10.440678 L2.79379157,10.4813559 L2.83370288,10.5220339 L2.87361419,10.5627119 L2.9135255,10.6033898 L2.95343681,10.6440678 L2.99334812,10.7254237 L2.9135255,10.6847458 L2.87361419,10.6440678 L2.83370288,10.6033898 L2.79379157,10.5627119 L2.75388027,10.5220339 L2.71396896,10.4813559 L2.67405765,10.440678 L2.63414634,10.4 L2.59423503,10.359322 L2.55432373,10.2779661 L2.51441242,10.2372881 L2.47450111,10.1966102 L2.4345898,10.1559322 L2.39467849,10.1152542 L2.35476718,10.0338983 L2.31485588,9.99322034 L2.27494457,9.95254237 L2.23503326,9.87118644 L2.19512195,9.83050847 L2.15521064,9.74915254 L2.11529933,9.70847458 L2.07538803,9.62711864 L2.03547672,9.58644068 L1.99556541,9.50508475 L1.9556541,9.42372881 L1.91574279,9.34237288 L1.87583149,9.26101695 L1.83592018,9.17966102 L1.79600887,9.09830508 L1.75609756,9.01694915 L1.71618625,8.93559322 L1.67627494,8.81355932 L1.63636364,8.73220339 L1.59645233,8.61016949 L1.55654102,8.48813559 L1.51662971,8.36610169 L1.4767184,8.2440678 L1.4368071,8.08135593 L1.39689579,7.8779661 L1.35698448,7.63389831 L1.31707317,7.26779661 L1.31707317,6.46779661 L1.35698448,6.10169492 L1.39689579,5.89830508 L1.4368071,5.73559322 L1.4767184,5.57288136 L1.51662971,5.41016949 L1.55654102,5.28813559 L1.59645233,5.20677966 L1.63636364,5.08474576 L1.67627494,5.00338983 L1.71618625,4.88135593 L1.75609756,4.8 L1.79600887,4.71864407 L1.83592018,4.63728814 L1.87583149,4.5559322 L1.91574279,4.51525424 L1.9556541,4.43389831 L1.99556541,4.35254237 L2.03547672,4.27118644 L2.07538803,4.23050847 L2.11529933,4.14915254 L2.15521064,4.06779661 L2.19512195,4.02711864 L2.23503326,3.94576271 L2.27494457,3.90508475 L2.31485588,3.82372881 L2.35476718,3.78305085 L2.39467849,3.74237288 L2.4345898,3.66101695 L2.47450111,3.62033898 L2.51441242,3.57966102 L2.55432373,3.53898305 L2.59423503,3.45762712 L2.63414634,3.41694915 L2.67405765,3.37627119 L2.71396896,3.33559322 L2.75388027,3.29491525 L2.79379157,3.25423729 L2.83370288,3.21355932 L2.87361419,3.17288136 L2.9135255,3.13220339 L2.95343681,3.09152542 L3.03325942,3.05084746 L3.07317073,3.01016949 L3.11308204,2.96949153 L3.15299335,2.92881356 L3.19290466,2.88813559 L3.23281596,2.84745763 L3.31263858,2.80677966 L3.35254989,2.76610169 L3.3924612,2.72542373 L3.43237251,2.68474576 L3.47228381,2.6440678 L3.51219512,2.60338983 L3.59201774,2.56271186 L3.63192905,2.5220339 L3.67184035,2.48135593 L3.71175166,2.44067797 L3.75166297,2.4 L3.79157428,2.31864407 L3.83148559,2.2779661 L3.8713969,2.23728814 L3.9113082,2.19661017 L3.95121951,2.1559322 L3.99113082,2.07457627 L4.03104213,1.99322034 L4.07095344,1.95254237 L4.11086475,1.87118644 L4.15077605,1.74915254 L4.19068736,1.58644068 L4.19068736,1.05762712 L4.15077605,0.894915254 L4.11086475,0.73220339 L4.07095344,0.610169492 L4.03104213,0.528813559 L3.99113082,0.447457627 L3.95121951,0.366101695 L3.9113082,0.284745763 L3.8713969,0.203389831 L3.83148559,0.162711864 L3.79157428,0.0813559322 L3.71175166,0.0406779661 L3.67184035,0 L3.31263858,0 L3.27272727,0.0949152542 Z" id="Shape"></path>
                </g>
            </g>
        </g>
    </g>
</svg>