<?xml version="1.0" encoding="UTF-8"?>
<svg width="12px" height="12px" viewBox="0 0 12 12" version="1.1" xmlns="http://www.w3.org/2000/svg" xmlns:xlink="http://www.w3.org/1999/xlink">
    <title>0B866E5D-2060-45DB-8C18-CA9FD35161B9@1x</title>
    <g id="Final.---CHR-30-days-Free-Plan-" stroke="none" stroke-width="1" fill="none" fill-rule="evenodd">
        <g id="-Bank-Logo---SVG" transform="translate(-173.000000, -93.000000)" fill="#0000FF" fill-rule="nonzero">
            <g id="indian-overseas-bank-seeklogo.com" transform="translate(173.000000, 93.000000)">
                <path d="M3.00005596,3.04475857 L2.82355126,3.22389709 L0.1765683,5.91037871 L0.529646262,6.26872564 L3.00022819,3.76127743 L5.47067241,6.26858587 L5.82357814,5.91041384 L3.00005596,3.04475857 Z M5.87531287,6.21618417 L5.64717692,6.4477242 L5.64721219,6.44776 L3.0001599,9.13431189 L2.11777414,8.23875885 L0.353107234,6.44775905 L0.000132651072,6.08951694 C0.000377894342,6.32836199 -0.000263511134,6.56725231 0.000132651072,6.80607084 L3.00005586,9.85075953 L5.87531287,6.93259791 L5.87531287,6.21618417 Z M3.00012491,4.11937928 L2.82362031,4.29851761 L0.706013055,6.4477241 L1.05891906,6.80589556 L3.00012481,4.83572324 L4.94129633,6.80586128 L5.29420224,6.44768926 L3.00012491,4.11937928 Z M5.87531277,7.29087467 L3.00015962,10.2089307 L0.000132085125,7.16413833 L0.000132085125,7.88069299 L3.00005605,10.9253793 L5.87531277,8.00721892 L5.87531277,7.29087467 Z M3.00009039,5.19403504 L2.82358569,5.37317356 L1.23542338,6.98503446 L1.5883292,7.34320649 L3.00009048,5.910379 L4.41185138,7.34320649 L4.76475739,6.98503456 L3.00009039,5.19403504 Z M5.87531277,8.36549539 L3.00015905,11.2835524 L0.000132368099,8.2387579 L0.000132368099,8.95531247 L3.00005605,12 L5.87531277,9.08187285 L5.87531277,8.36549539 Z M8.99993719,3.04465365 L8.82343278,3.22379226 L6.17648396,5.91023904 L6.52956202,6.26858587 L9.0001098,3.76117241 L11.4706575,6.26858587 L11.8235626,5.91041365 L8.99993719,3.04465365 Z M12,6.08965719 L10.0589297,8.05965508 L10.0588618,8.05958424 L9.00004094,9.13420467 L7.94129047,8.05965604 L6.35299007,6.44765518 L6.12475093,6.21601013 L6.12475093,6.93256393 L8.99993907,9.85065613 L12,6.8058272 L12,6.08965719 Z M8.99997209,4.1193093 L8.82346673,4.29844792 L6.70592881,6.44758434 L7.05883463,6.80575627 L8.99997209,4.83565336 L10.9412471,6.80589632 L11.2941531,6.44772439 L8.99997209,4.1193093 Z M11.9999642,7.16413852 L9.00004,10.2088254 L6.12474923,7.2906296 L6.12474923,8.00721892 L8.99993719,10.9252759 L11.9999642,7.88048143 L11.9999642,7.16413852 Z M8.99997114,5.19393069 L8.82346673,5.37306931 L7.23533885,6.98489546 L7.58824392,7.34306768 L8.99997114,5.91027388 L10.4118367,7.34320649 L10.7647417,6.98503456 L8.99997114,5.19393069 Z M11.9999651,8.23875981 L9.00004094,11.2834471 L6.12478366,8.36528478 L6.12478366,9.08183934 L8.99993719,11.9998957 L11.9999651,8.95510186 L11.9999651,8.23875981 Z M6.00008274,2.14920639 L5.82357823,2.32834482 L4.23534697,3.9402758 L4.5882527,4.29844763 L6.00008255,2.86555016 L7.41194702,4.29848286 L7.76485303,3.94031074 L6.00008274,2.14920639 Z M6.00008274,1.07458568 L5.82357823,1.2537241 L3.70593655,3.40296544 L4.05884228,3.76113737 L6.00008264,1.79092954 L7.94135744,3.76117241 L8.29426345,3.40300038 L6.00008274,1.07458568 Z M6.00011717,0 L3.17656046,2.86569012 L3.52960428,3.22400192 L6.00025507,0.716483727 L8.47073334,3.22382721 L8.82363935,2.86565518 L6.00011717,0 Z" id="path6974"></path>
            </g>
        </g>
    </g>
</svg>