<svg width="84" height="84" viewBox="0 0 84 84" fill="none" xmlns="http://www.w3.org/2000/svg">
<path fill-rule="evenodd" clip-rule="evenodd" d="M69.9593 57.3448L63.8647 47.4355L57.8876 57.3448H69.9593ZM69.9477 26.612H57.8131L63.8602 36.3227L69.9477 26.612ZM41.5379 11.1878L35.5258 21.044H47.5995L41.5379 11.1878ZM13.2581 26.612L19.2583 36.3828L25.2279 26.612H13.2581ZM13.2514 57.4279L25.2382 57.3542L19.2601 47.5322L13.2514 57.4279ZM3 21.044H28.7536L40.8677 1.25136L41.6332 -2.40075e-06L42.3992 1.25136L54.5128 21.044H80.2659L79.4989 22.2894L67.3876 41.954L79.5022 61.7594L80.264 63.0048H54.5123L42.3992 82.7514L41.6332 84L40.8677 82.7514L28.7541 63.0048H3.00248L3.7637 61.7594L15.8778 41.954L3.76701 22.2894L3 21.044ZM32.1239 26.7978L22.3656 41.9588L32.1239 57.2519H51.1416L60.9003 41.9588L51.1416 26.7978H32.1239ZM41.6238 72.7784L47.6006 63.0048H35.5382L41.6238 72.7784ZM40.9338 35.5041C42.8349 35.5041 44.5642 36.235 45.8174 37.4141V37.4108C47.0682 38.5865 47.8452 40.2116 47.8452 42.0015C47.8452 43.7884 47.0682 45.412 45.8174 46.5888V46.5922C44.567 47.768 42.8372 48.4984 40.9338 48.4984C39.0305 48.4984 37.3017 47.768 36.0512 46.5922H36.0545C34.8003 45.4135 34.0225 43.788 34.0225 42.0012C34.0225 40.2159 34.7985 38.5918 36.0507 37.4138C36.0517 37.4128 36.054 37.4105 36.054 37.4105L36.0507 37.4138C36.0517 37.4128 36.054 37.4105 36.054 37.4105C37.3068 36.2332 39.0341 35.5037 40.9328 35.5037" fill="#853A93"/>
</svg>
