<?xml version="1.0" encoding="UTF-8"?>
<svg width="9px" height="12px" viewBox="0 0 9 12" version="1.1" xmlns="http://www.w3.org/2000/svg" xmlns:xlink="http://www.w3.org/1999/xlink">
    <title>1279CA5F-24C7-40B4-A552-4C89D4D08831@1x</title>
    <g id="Final.---CHR-30-days-Free-Plan-" stroke="none" stroke-width="1" fill="none" fill-rule="evenodd">
        <g id="-Bank-Logo---SVG" transform="translate(-88.000000, -93.000000)" fill-rule="nonzero">
            <g id="rbl" transform="translate(88.000000, 93.000000)">
                <g id="g18" transform="translate(4.500000, 6.000000) scale(-1, 1) rotate(-180.000000) translate(-4.500000, -6.000000) ">
                    <path d="M2.24755889,9.10003347 L2.24755889,12 L-2.73320726e-13,12 L-2.73320726e-13,5.14134901 C-2.73320726e-13,6.8297233 0.905009826,8.31137942 2.24755889,9.10003347" id="path27530" fill="#21317D"></path>
                    <path d="M4.78008457,9.70371809 L4.78008457,7.40997 C5.89024996,7.26955366 6.75140192,6.30859926 6.75140192,5.144094 C6.75140192,3.8778133 5.74495785,2.85478011 4.49989341,2.85478011 C3.25877867,2.85478011 2.25004798,3.8778133 2.25004798,5.144094 L2.24755369,5.144094 L2.24755369,1.18287563 C2.91082591,0.79456644 3.68031266,0.567366498 4.49989341,0.567366498 C6.98565686,0.567366498 9,2.61406643 9,5.14134901 C9,7.56917887 7.13510613,9.55781181 4.78008457,9.70371809" id="path27534" fill="#21317D"></path>
                    <path d="M2.24755889,9.10003347 C0.905009826,8.31137942 -2.73940534e-13,6.8297233 -2.73940534e-13,5.14134901 L-2.73940534e-13,0.915979046 L-2.73940534e-13,0 L2.24755889,0 L2.24755889,0.5988282 L2.24755889,1.18308678 L2.24755889,5.144094 L2.25005317,5.144094 C2.25005317,6.30859926 3.10871085,7.26934252 4.21929132,7.40997 L4.21929132,9.70371809 C3.50405503,9.66043184 2.83205303,9.4452676 2.24755889,9.10003347" id="path27538" fill="#ED1C24"></path>
                </g>
            </g>
        </g>
    </g>
</svg>