<?xml version="1.0" encoding="UTF-8"?>
<svg width="40px" height="55px" viewBox="0 0 40 55" version="1.1" xmlns="http://www.w3.org/2000/svg" xmlns:xlink="http://www.w3.org/1999/xlink">
    <title>32D16682-25FB-4489-8B3B-DB621177F692@1x</title>
    <g id="New---Revamp-Bureaus---Mobile-&amp;-Desktop--Copy-3" stroke="none" stroke-width="1" fill="none" fill-rule="evenodd">
        <g id="Desktop" transform="translate(-895.000000, -3628.000000)">
            <g id="Credit-Factors--Copy" transform="translate(871.000000, 3338.000000)">
                <g id="Group-16" transform="translate(24.000000, 24.000000)">
                    <g id="Group-8" transform="translate(0.000000, 266.000000)">
                        <polygon id="Rectangle-Copy" fill="#FFFFFF" opacity="0" points="0 0 40 0 40 55 4.72955008e-13 55"></polygon>
                        <g id="noun_bag-of-money_3593206" transform="translate(2.866068, 9.000000)">
                            <path d="M10.145348,10.0448879 L11.4056422,10.0448879 L10.51005,12.0904121 C10.186377,12.8671443 11.4147598,13.3425044 11.7707587,12.5758697 L12.8801989,10.0448879 L15.1206299,10.0448879 L16.2300702,12.5758697 C16.3684912,12.9098646 16.77215,13.0733667 17.1260768,12.9354967 C17.4779314,12.8003453 17.6441195,12.4178047 17.4907788,12.0904121 L16.5951866,10.0448879 L17.84512,10.0448879 C19.3540748,10.9614319 21.589947,13.0690947 23.4051686,15.4396813 C25.2506439,17.8549301 26.6344395,20.5478606 26.6344395,22.2221068 C26.6344395,25.0498004 25.1192682,27.1073639 22.7557503,28.5412116 C20.3943045,29.9777777 17.1782955,30.723829 13.9962701,30.723829 C10.8167313,30.723829 7.60279447,29.9777777 5.24134869,28.5412116 C2.88031734,27.1077523 1.36473165,25.0501887 1.36473165,22.2221068 C1.36473165,20.5474722 2.74811284,17.8545417 4.59358811,15.4396813 C6.40425091,13.0690947 8.63846541,10.9618202 10.145348,10.0448879 Z M10.9352595,7.16709512 L17.065155,7.16709512 C17.4538942,7.16709512 17.7452414,7.44011649 17.7452414,7.80401552 L17.7452414,8.1341267 C17.7452414,8.4984141 17.4538942,8.76910527 17.065155,8.76910527 L10.9352595,8.76910527 C10.5465202,8.76910527 10.255173,8.4984141 10.255173,8.1341267 L10.255173,7.80401552 C10.255173,7.44011649 10.5465202,7.16709512 10.9352595,7.16709512 Z M16.3552293,1.27868838 C16.9723217,1.28101858 17.9288357,1.60219734 18.9475149,2.00066095 L16.7439685,5.89053577 L11.2286788,5.89053577 L9.08066665,2.10163614 C9.71516533,2.02706985 10.5485924,2.02279782 11.4031556,2.50825544 C11.4462568,2.5362178 11.4893579,2.56495689 11.5345312,2.59097742 C11.5498653,2.61893978 11.5647849,2.64534867 11.5821912,2.67175757 L12.8532607,4.53707992 C13.0409994,4.86058888 13.483615,4.96583609 13.8159912,4.76738102 C14.1462953,4.56892594 14.2304254,4.15065566 13.9991711,3.85277886 L13.1682307,2.62942566 C13.1980699,2.61505612 13.2303958,2.60068657 13.2589917,2.58476356 C13.7550694,2.32572338 14.1268168,1.98823324 14.5905687,1.72919305 C15.0534916,1.46898777 15.5781652,1.27480472 16.3552293,1.27868838 Z M16.3618602,9.21678598e-05 C15.3149996,-0.00602666209 14.5010509,0.293403598 13.8922471,0.633612297 C13.28593,0.973432631 12.8540896,1.33733166 12.5950682,1.47287143 C12.4653503,1.54122386 12.4052574,1.54743772 12.3750037,1.54743772 C12.34475,1.54743772 12.3016489,1.54937955 12.1632278,1.45267639 C12.146236,1.44024868 12.1288298,1.43053953 12.1093514,1.41811181 C10.0761375,0.263499408 7.81788579,1.0138227 7.81788579,1.0138227 C7.41878571,1.14120678 7.23519138,1.57229315 7.43370534,1.91988081 L9.85358634,6.18996603 C9.28125278,6.53172819 8.89292798,7.12670505 8.89292798,7.80401552 L8.89292798,8.1341267 C8.89292798,8.48210272 9.00316746,8.80561168 9.18013084,9.08873056 C7.42541665,10.2215945 5.29232409,12.3288689 3.48580563,14.6955719 C1.56034457,17.2137376 0,19.9528837 0,22.2221068 C0,25.4905959 1.84754744,28.0052663 4.49826826,29.6150438 C7.14691691,31.2252096 10.5916936,32 13.9954412,32 C17.4016755,32 20.84438,31.225598 23.4951008,29.6150438 C26.1478938,28.004878 28,25.4905959 28,22.2221068 C28,19.9501652 26.439241,17.2137376 24.5117078,14.6955719 C22.7031171,12.3327526 20.5725112,10.2254781 18.817797,9.09261422 C18.997247,8.80988371 19.1045854,8.48404455 19.1045854,8.1341267 L19.1045854,7.80401552 C19.1045854,7.11854936 18.7096297,6.51774701 18.1248631,6.17986851 L20.5381131,1.92026917 C20.7150765,1.6049159 20.5832865,1.21421961 20.2442793,1.05265931 C18.6690151,0.303889482 17.4083064,0.00678941906 16.3618602,9.21678598e-05 Z" id="Shape" fill="#052F5F" fill-rule="nonzero"></path>
                            <g id="Group-62" transform="translate(10.000000, 18.333333)">
                                <rect id="Rectangle" fill="#FFFFFF" x="0" y="0" width="23.4642724" height="16.3333333" rx="4.74074074"></rect>
                                <path d="M5.43022821,2.33333333 L22.4302282,2.33333333 C24.0870825,2.33333333 25.4302282,3.67647908 25.4302282,5.33333333 L25.4302282,13.9259259 C25.4302282,16.5441647 23.3077263,18.6666667 20.6894875,18.6666667 L5.43022821,18.6666667 C3.77337396,18.6666667 2.43022821,17.3235209 2.43022821,15.6666667 L2.43022821,5.33333333 C2.43022821,3.67647908 3.77337396,2.33333333 5.43022821,2.33333333 Z" id="Rectangle" fill="#D1ECFF"></path>
                                <rect id="Rectangle" stroke="#052F5F" stroke-width="1.18518519" x="0.592592593" y="0.592592593" width="24.6255144" height="17.4814815" rx="4.74074074"></rect>
                                <g id="Group-64" transform="translate(15.251777, 11.666667)" stroke="#052F5F" stroke-width="1.18518519">
                                    <ellipse id="Oval" cx="1.75982043" cy="1.75" rx="1.75982043" ry="1.75"></ellipse>
                                    <ellipse id="Oval-Copy-8" cx="5.27946128" cy="1.75" rx="1.75982043" ry="1.75"></ellipse>
                                </g>
                            </g>
                        </g>
                    </g>
                </g>
            </g>
        </g>
    </g>
</svg>