<?xml version="1.0" encoding="UTF-8"?>
<svg width="165px" height="80px" viewBox="0 0 165 80" version="1.1" xmlns="http://www.w3.org/2000/svg" xmlns:xlink="http://www.w3.org/1999/xlink">
    <title>Group@1x</title>
    <defs>
        <rect id="path-1" x="0" y="0" width="137" height="52" rx="8"></rect>
        <filter x="-20.4%" y="-26.9%" width="140.9%" height="207.7%" filterUnits="objectBoundingBox" id="filter-2">
            <feMorphology radius="5" operator="erode" in="SourceAlpha" result="shadowSpreadOuter1"></feMorphology>
            <feOffset dx="0" dy="14" in="shadowSpreadOuter1" result="shadowOffsetOuter1"></feOffset>
            <feGaussianBlur stdDeviation="12" in="shadowOffsetOuter1" result="shadowBlurOuter1"></feGaussianBlur>
            <feColorMatrix values="0 0 0 0 0   0 0 0 0 0.101960784   0 0 0 0 0.250980392  0 0 0 0.28 0" type="matrix" in="shadowBlurOuter1"></feColorMatrix>
        </filter>
    </defs>
    <g id="Final_02" stroke="none" stroke-width="1" fill="none" fill-rule="evenodd">
        <g id="Desktop---CHR-Credit-alert" transform="translate(-808.000000, -833.000000)" fill-rule="nonzero">
            <g id="Group-20" transform="translate(372.000000, 684.000000)">
                <g id="Group-11" transform="translate(450.000000, 54.000000)">
                    <g id="Group" transform="translate(0.000000, 95.000000)">
                        <g id="Rectangle">
                            <use fill="black" fill-opacity="1" filter="url(#filter-2)" xlink:href="#path-1"></use>
                            <use fill="#FFFFFF" xlink:href="#path-1"></use>
                        </g>
                        <g id="Group-95" transform="translate(16.000000, 16.000000)">
                            <path d="M0,9.133 L0,4.15 C0,1.858 1.8666,0 4.1666,0 L12.5,0 C14.8,0 16.6666,1.858 16.6666,4.158 L16.6666,9.975 C16.6666,12.267 14.8,14.125 12.5,14.125 L11.25,14.125 C10.9916,14.125 10.7416,14.25 10.5833,14.458 L9.3333,16.117 C8.7833,16.85 7.8833,16.85 7.3333,16.117 L6.0833,14.458 C5.9416,14.275 5.65,14.125 5.4166,14.125 L4.1666,14.125 C1.8666,14.125 0,12.267 0,9.975 L0,9.133 Z" id="Path" fill="#6BA6FF"></path>
                            <path d="M8.3333,8.333 C7.8666,8.333 7.4916,7.958 7.4916,7.499 C7.4916,7.041 7.8666,6.666 8.3249,6.666 C8.7833,6.666 9.1583,7.041 9.1583,7.499 C9.1583,7.958 8.7999,8.333 8.3333,8.333 Z" id="Path" fill="#FFFFFF"></path>
                            <path d="M11.6666,8.333 C11.2,8.333 10.825,7.958 10.825,7.499 C10.825,7.041 11.2,6.666 11.6583,6.666 C12.1166,6.666 12.4916,7.041 12.4916,7.499 C12.4916,7.958 12.1333,8.333 11.6666,8.333 Z" id="Path" fill="#FFFFFF"></path>
                            <path d="M5,8.333 C4.5333,8.333 4.1583,7.958 4.1583,7.499 C4.1583,7.041 4.5333,6.666 4.9916,6.666 C5.4499,6.666 5.8249,7.041 5.8249,7.499 C5.8249,7.958 5.4666,8.333 5,8.333 Z" id="Path" fill="#FFFFFF"></path>
                            <path d="M20.0526,17.681 L19.0974,16.727 C19.5879,15.978 19.8848,15.075 19.8848,14.107 C19.8848,11.475 17.7422,9.333 15.1091,9.333 C12.4759,9.333 10.3333,11.475 10.3333,14.107 C10.3333,16.739 12.4759,18.881 15.1091,18.881 C16.0771,18.881 16.9806,18.585 17.7292,18.094 L18.6844,19.049 C18.878,19.243 19.1232,19.333 19.3685,19.333 C19.6137,19.333 19.859,19.243 20.0526,19.049 C20.4269,18.675 20.4269,18.056 20.0526,17.681 Z" id="Path" fill="#19417E"></path>
                        </g>
                        <path d="M63.273,22 L61.545,22 L57.35,15.162 L57.297,15.162 C57.312,15.393 57.326,15.637 57.338,15.895 C57.354,16.152 57.365,16.418 57.373,16.691 C57.385,16.965 57.395,17.242 57.402,17.523 L57.402,22 L56.125,22 L56.125,13.434 L57.842,13.434 L62.031,20.225 L62.072,20.225 C62.064,20.025 62.055,19.797 62.043,19.539 C62.031,19.281 62.02,19.016 62.008,18.742 C62,18.465 61.994,18.197 61.99,17.939 L61.99,13.434 L63.273,13.434 L63.273,22 Z M67.967,15.391 C68.545,15.391 69.041,15.51 69.455,15.748 C69.869,15.986 70.188,16.324 70.41,16.762 C70.633,17.199 70.744,17.723 70.744,18.332 L70.744,19.07 L66.414,19.07 C66.43,19.699 66.598,20.184 66.918,20.523 C67.242,20.863 67.695,21.033 68.277,21.033 C68.691,21.033 69.062,20.994 69.391,20.916 C69.723,20.834 70.064,20.715 70.416,20.559 L70.416,21.678 C70.092,21.83 69.762,21.941 69.426,22.012 C69.09,22.082 68.688,22.117 68.219,22.117 C67.582,22.117 67.021,21.994 66.537,21.748 C66.057,21.498 65.68,21.127 65.406,20.635 C65.137,20.143 65.002,19.531 65.002,18.801 C65.002,18.074 65.125,17.457 65.371,16.949 C65.617,16.441 65.963,16.055 66.408,15.789 C66.854,15.523 67.373,15.391 67.967,15.391 Z M67.967,16.428 C67.533,16.428 67.182,16.568 66.912,16.85 C66.646,17.131 66.49,17.543 66.443,18.086 L69.396,18.086 C69.393,17.762 69.338,17.475 69.232,17.225 C69.131,16.975 68.975,16.779 68.764,16.639 C68.557,16.498 68.291,16.428 67.967,16.428 Z M77.6,21.994 L76.779,18.977 C76.74,18.828 76.693,18.648 76.639,18.438 C76.584,18.227 76.529,18.01 76.475,17.787 C76.42,17.561 76.369,17.352 76.322,17.16 C76.279,16.969 76.246,16.82 76.223,16.715 L76.176,16.715 C76.156,16.82 76.125,16.969 76.082,17.16 C76.039,17.352 75.99,17.561 75.936,17.787 C75.881,18.014 75.826,18.234 75.771,18.449 C75.721,18.664 75.674,18.848 75.631,19 L74.77,21.994 L73.258,21.994 L71.441,15.508 L72.836,15.508 L73.68,18.73 C73.734,18.949 73.787,19.186 73.838,19.439 C73.893,19.693 73.939,19.936 73.979,20.166 C74.018,20.396 74.047,20.586 74.066,20.734 L74.113,20.734 C74.129,20.629 74.15,20.496 74.178,20.336 C74.205,20.172 74.236,20.002 74.271,19.826 C74.307,19.646 74.342,19.479 74.377,19.322 C74.412,19.162 74.445,19.033 74.477,18.936 L75.473,15.508 L76.979,15.508 L77.934,18.936 C77.977,19.084 78.023,19.271 78.074,19.498 C78.125,19.721 78.17,19.945 78.209,20.172 C78.252,20.395 78.279,20.58 78.291,20.729 L78.338,20.729 C78.354,20.596 78.381,20.416 78.42,20.189 C78.463,19.959 78.512,19.715 78.566,19.457 C78.621,19.195 78.678,18.953 78.736,18.73 L79.598,15.508 L80.969,15.508 L79.141,21.994 L77.6,21.994 Z M60.977,40 L56.125,40 L56.125,31.434 L60.977,31.434 L60.977,32.617 L57.531,32.617 L57.531,34.943 L60.76,34.943 L60.76,36.121 L57.531,36.121 L57.531,38.811 L60.977,38.811 L60.977,40 Z M66.068,33.391 C66.799,33.391 67.367,33.58 67.773,33.959 C68.184,34.334 68.389,34.938 68.389,35.77 L68.389,40 L67.012,40 L67.012,36.027 C67.012,35.523 66.908,35.146 66.701,34.896 C66.494,34.643 66.174,34.516 65.74,34.516 C65.111,34.516 64.674,34.709 64.428,35.096 C64.186,35.482 64.064,36.043 64.064,36.777 L64.064,40 L62.688,40 L62.688,33.514 L63.76,33.514 L63.953,34.393 L64.029,34.393 C64.17,34.166 64.344,33.98 64.551,33.836 C64.762,33.688 64.996,33.576 65.254,33.502 C65.516,33.428 65.787,33.391 66.068,33.391 Z M74.436,42.877 L74.436,40.123 C74.436,39.967 74.439,39.797 74.447,39.613 C74.459,39.43 74.477,39.262 74.5,39.109 L74.43,39.109 C74.254,39.395 74.01,39.635 73.697,39.83 C73.385,40.021 72.977,40.117 72.473,40.117 C71.711,40.117 71.098,39.836 70.633,39.273 C70.168,38.707 69.936,37.871 69.936,36.766 C69.936,36.031 70.043,35.414 70.258,34.914 C70.473,34.414 70.773,34.035 71.16,33.777 C71.551,33.52 72.004,33.391 72.52,33.391 C73.016,33.391 73.418,33.488 73.727,33.684 C74.039,33.875 74.289,34.111 74.477,34.393 L74.523,34.393 L74.676,33.514 L75.818,33.514 L75.818,42.877 L74.436,42.877 Z M72.883,39.01 C73.273,39.01 73.586,38.936 73.82,38.787 C74.055,38.639 74.225,38.414 74.33,38.113 C74.436,37.809 74.492,37.432 74.5,36.982 L74.5,36.771 C74.5,36.037 74.381,35.479 74.143,35.096 C73.904,34.713 73.48,34.521 72.871,34.521 C72.355,34.521 71.973,34.723 71.723,35.125 C71.473,35.523 71.348,36.078 71.348,36.789 C71.348,37.508 71.473,38.059 71.723,38.441 C71.977,38.82 72.363,39.01 72.883,39.01 Z M83.447,33.514 L83.447,40 L82.363,40 L82.176,39.127 L82.1,39.127 C81.963,39.35 81.789,39.535 81.578,39.684 C81.367,39.828 81.133,39.936 80.875,40.006 C80.617,40.08 80.346,40.117 80.061,40.117 C79.572,40.117 79.154,40.035 78.807,39.871 C78.463,39.703 78.199,39.445 78.016,39.098 C77.832,38.75 77.74,38.301 77.74,37.75 L77.74,33.514 L79.123,33.514 L79.123,37.492 C79.123,37.996 79.225,38.373 79.428,38.623 C79.635,38.873 79.955,38.998 80.389,38.998 C80.807,38.998 81.139,38.912 81.385,38.74 C81.631,38.568 81.805,38.314 81.906,37.979 C82.012,37.643 82.064,37.23 82.064,36.742 L82.064,33.514 L83.447,33.514 Z M86.799,33.514 L86.799,40 L85.422,40 L85.422,33.514 L86.799,33.514 Z M86.119,31.029 C86.33,31.029 86.512,31.086 86.664,31.199 C86.82,31.312 86.898,31.508 86.898,31.785 C86.898,32.059 86.82,32.254 86.664,32.371 C86.512,32.484 86.33,32.541 86.119,32.541 C85.9,32.541 85.715,32.484 85.562,32.371 C85.414,32.254 85.34,32.059 85.34,31.785 C85.34,31.508 85.414,31.312 85.562,31.199 C85.715,31.086 85.9,31.029 86.119,31.029 Z M92.061,33.391 C92.17,33.391 92.289,33.396 92.418,33.408 C92.547,33.42 92.658,33.436 92.752,33.455 L92.623,34.744 C92.541,34.721 92.439,34.703 92.318,34.691 C92.201,34.68 92.096,34.674 92.002,34.674 C91.756,34.674 91.521,34.715 91.299,34.797 C91.076,34.875 90.879,34.996 90.707,35.16 C90.535,35.32 90.4,35.521 90.303,35.764 C90.205,36.006 90.156,36.287 90.156,36.607 L90.156,40 L88.773,40 L88.773,33.514 L89.852,33.514 L90.039,34.656 L90.104,34.656 C90.232,34.426 90.393,34.215 90.584,34.023 C90.775,33.832 90.994,33.68 91.24,33.566 C91.49,33.449 91.764,33.391 92.061,33.391 Z M92.975,33.514 L94.475,33.514 L95.805,37.217 C95.863,37.385 95.916,37.551 95.963,37.715 C96.014,37.875 96.057,38.033 96.092,38.189 C96.131,38.346 96.162,38.502 96.186,38.658 L96.221,38.658 C96.26,38.455 96.314,38.229 96.385,37.979 C96.459,37.725 96.541,37.471 96.631,37.217 L97.908,33.514 L99.391,33.514 L96.607,40.891 C96.447,41.312 96.25,41.672 96.016,41.969 C95.785,42.27 95.512,42.496 95.195,42.648 C94.879,42.805 94.518,42.883 94.111,42.883 C93.916,42.883 93.746,42.871 93.602,42.848 C93.457,42.828 93.334,42.807 93.232,42.783 L93.232,41.682 C93.314,41.701 93.418,41.719 93.543,41.734 C93.668,41.75 93.797,41.758 93.93,41.758 C94.176,41.758 94.389,41.709 94.568,41.611 C94.748,41.514 94.9,41.375 95.025,41.195 C95.15,41.02 95.254,40.818 95.336,40.592 L95.564,39.982 L92.975,33.514 Z" id="Shape" fill="#052F5F"></path>
                    </g>
                </g>
            </g>
        </g>
    </g>
</svg>