<?xml version="1.0" encoding="UTF-8"?>
<svg width="132px" height="48px" viewBox="0 0 132 48" version="1.1" xmlns="http://www.w3.org/2000/svg" xmlns:xlink="http://www.w3.org/1999/xlink">
    <title>38A1E580-7144-46DB-9B75-1704F2DC0466@1x</title>
    <g id="Final_02" stroke="none" stroke-width="1" fill="none" fill-rule="evenodd">
        <g id="Mobile---CHR-Credit-alert" transform="translate(-17.000000, -880.000000)">
            <g id="Group" transform="translate(17.500000, 880.500000)">
                <path d="M0,0 L108.026119,0 C120.714545,0 131,10.521 131,23.5 C131,36.479 120.714545,47 108.026119,47 L0,47" id="Path" stroke="#DEE0FF" fill="#FFFFFF"></path>
                <g id="Group-75" transform="translate(16.500000, 15.500000)" fill-rule="nonzero">
                    <path d="M10.5,0.958 L10.5,0 L4.4754,0 C3.6607,0 3,0.618 3,1.379 L3,8.621 C3,9.382 3.6607,10 4.4754,10 L10.5,10 L10.5,0.958 Z" id="Path" fill="#7BC7EF"></path>
                    <path d="M16.5249,0 L10.5,0 L10.5,0.958 L10.5,10 L16.5249,10 C17.3401,10 18,9.382 18,8.621 L18,1.379 C18,0.618 17.3401,0 16.5249,0 Z" id="Path" fill="#58ABE2"></path>
                    <polygon id="Path" fill="#ECECEA" points="4.85 7.34 8.9582 7.34 8.9582 2.514 4.85 2.514"></polygon>
                    <path d="M8.0606,4.229 C7.9735,3.598 7.4903,3.114 6.9043,3.114 C6.3192,3.114 5.8356,3.598 5.7485,4.229 C5.6551,4.269 5.586,4.402 5.586,4.562 C5.586,4.753 5.6852,4.908 5.8063,4.908 C5.8078,4.908 5.8102,4.906 5.8121,4.906 C5.9809,5.4 6.4063,5.751 6.9043,5.751 C7.4028,5.751 7.8274,5.4 7.9969,4.906 C7.9985,4.906 8.0008,4.908 8.0028,4.908 C8.1242,4.908 8.2223,4.753 8.2223,4.562 C8.2223,4.402 8.1535,4.269 8.0606,4.229 Z" id="Path" fill="#F5C436"></path>
                    <path d="M8.8133,6.725 C8.7875,6.306 8.3449,6.066 7.8152,6.093 C7.1152,6.128 7.1238,5.635 7.1238,5.482 L6.6852,5.482 C6.6852,5.635 6.6938,6.128 5.9938,6.093 C5.4645,6.066 5.0215,6.306 4.9949,6.725 L4.9949,7.51 L8.8133,7.51 L8.8133,6.725 Z" id="Path" fill="#F5C436"></path>
                    <path d="M4.85,7.144 L4.85,2.691 L8.9582,2.691 L8.9582,7.144 L4.85,7.144 Z M4.1215,1.559 L4.1215,8.463 L10.4942,8.463 L10.4942,1.559 L4.1215,1.559 Z" id="Shape" fill="#EBEBE9"></path>
                    <polygon id="Path" fill="#D9DAD7" points="16.8759 1.559 10.4942 1.559 10.4942 8.463 16.8759 8.463"></polygon>
                    <polygon id="Path" fill="#60C9B7" points="16.3298 3.57 11.2817 3.57 11.2817 2.486 16.3298 2.486"></polygon>
                    <polygon id="Path" fill="#ECECEA" points="16.3298 5.013 11.2817 5.013 11.2817 4.471 16.3298 4.471"></polygon>
                    <polygon id="Path" fill="#ECECEA" points="16.3298 6.022 11.2817 6.022 11.2817 5.479 16.3298 5.479"></polygon>
                    <polygon id="Path" fill="#ECECEA" points="16.3298 7.033 11.2817 7.033 11.2817 6.491 16.3298 6.491"></polygon>
                    <path d="M5.5107,9.685 C6.9281,9.685 7.915,10.641 7.915,11.5 C7.915,12.359 6.9275,13.316 5.5107,13.316 C4.0939,13.316 3.1064,12.359 3.1064,11.5 C3.1064,10.641 4.0939,9.685 5.5107,9.685 Z M15.4893,9.685 C16.9067,9.685 17.8936,10.641 17.8936,11.5 C17.8936,12.359 16.9067,13.316 15.4893,13.316 C14.0725,13.316 13.085,12.359 13.085,11.5 C13.085,10.641 14.0725,9.685 15.4893,9.685 Z M5.5107,16 C6.8536,16 8.0678,15.625 9.0125,14.996 C9.9468,14.373 11.0537,14.373 11.988,14.996 C12.9328,15.625 14.147,16 15.4899,16 C18.5798,16 21,12.445 21,9.921 C21,7.398 18.5798,7 15.4893,7 C14.147,7 12.9328,7.375 11.988,8.004 C11.0532,8.627 9.9468,8.627 9.0125,8.004 C8.0678,7.375 6.8536,7 5.5107,7 C2.4207,7 0,7.398 0,9.921 C0,12.445 2.4207,16 5.5107,16 Z" id="Shape" fill="#06305F"></path>
                </g>
                <path d="M52.5127,12.361 C53.4339,12.361 54.1061,12.55 54.5293,12.928 C54.9525,13.305 55.1641,13.834 55.1641,14.515 C55.1641,14.824 55.1152,15.118 55.0176,15.398 C54.9232,15.675 54.7669,15.921 54.5488,16.136 C54.3307,16.347 54.0426,16.515 53.6846,16.639 C53.3298,16.762 52.8919,16.824 52.3711,16.824 L51.6094,16.824 L51.6094,19.5 L50.4375,19.5 L50.4375,12.361 L52.5127,12.361 Z M52.4346,13.333 L51.6094,13.333 L51.6094,15.848 L52.249,15.848 C52.6169,15.848 52.9294,15.805 53.1865,15.721 C53.4437,15.633 53.639,15.494 53.7725,15.306 C53.9059,15.117 53.9727,14.868 53.9727,14.559 C53.9727,14.145 53.8473,13.838 53.5967,13.636 C53.3493,13.434 52.9619,13.333 52.4346,13.333 Z M59.2119,13.992 C59.3031,13.992 59.4023,13.997 59.5098,14.007 C59.6172,14.017 59.71,14.03 59.7881,14.046 L59.6807,15.12 C59.6123,15.101 59.5277,15.086 59.4268,15.076 C59.3291,15.066 59.2412,15.062 59.1631,15.062 C58.958,15.062 58.7627,15.096 58.5771,15.164 C58.3916,15.229 58.2272,15.33 58.084,15.467 C57.9408,15.6 57.8285,15.768 57.7471,15.97 C57.6657,16.172 57.625,16.406 57.625,16.673 L57.625,19.5 L56.4727,19.5 L56.4727,14.095 L57.3711,14.095 L57.5273,15.047 L57.5811,15.047 C57.6885,14.855 57.8219,14.679 57.9814,14.52 C58.141,14.36 58.3232,14.233 58.5283,14.139 C58.7367,14.041 58.9645,13.992 59.2119,13.992 Z M62.9424,13.992 C63.4242,13.992 63.8376,14.091 64.1826,14.29 C64.5277,14.489 64.793,14.77 64.9785,15.135 C65.1641,15.499 65.2568,15.936 65.2568,16.443 L65.2568,17.059 L61.6484,17.059 C61.6615,17.583 61.8014,17.986 62.0684,18.27 C62.3385,18.553 62.7161,18.694 63.2012,18.694 C63.5462,18.694 63.8555,18.662 64.1289,18.597 C64.4056,18.528 64.6904,18.429 64.9834,18.299 L64.9834,19.231 C64.7132,19.358 64.4382,19.451 64.1582,19.51 C63.8783,19.568 63.543,19.598 63.1523,19.598 C62.6217,19.598 62.1546,19.495 61.751,19.29 C61.3506,19.082 61.0365,18.772 60.8086,18.362 C60.584,17.952 60.4717,17.443 60.4717,16.834 C60.4717,16.229 60.5742,15.714 60.7793,15.291 C60.9844,14.868 61.2725,14.546 61.6436,14.324 C62.0146,14.103 62.4476,13.992 62.9424,13.992 Z M62.9424,14.856 C62.5811,14.856 62.2881,14.974 62.0635,15.208 C61.8421,15.442 61.7119,15.786 61.6729,16.238 L64.1338,16.238 C64.1305,15.968 64.085,15.729 63.9971,15.521 C63.9124,15.312 63.7822,15.149 63.6064,15.032 C63.4339,14.915 63.2126,14.856 62.9424,14.856 Z M67.7861,19.5 L65.7305,14.095 L66.9463,14.095 L68.0596,17.269 C68.1312,17.47 68.1963,17.688 68.2549,17.923 C68.3135,18.157 68.3542,18.354 68.377,18.514 L68.416,18.514 C68.4388,18.348 68.4827,18.149 68.5479,17.918 C68.613,17.684 68.6797,17.467 68.748,17.269 L69.8613,14.095 L71.0723,14.095 L69.0166,19.5 L67.7861,19.5 Z M74.0459,13.992 C74.5277,13.992 74.9411,14.091 75.2861,14.29 C75.6312,14.489 75.8965,14.77 76.082,15.135 C76.2676,15.499 76.3604,15.936 76.3604,16.443 L76.3604,17.059 L72.752,17.059 C72.765,17.583 72.9049,17.986 73.1719,18.27 C73.4421,18.553 73.8197,18.694 74.3047,18.694 C74.6497,18.694 74.959,18.662 75.2324,18.597 C75.5091,18.528 75.7939,18.429 76.0869,18.299 L76.0869,19.231 C75.8167,19.358 75.5417,19.451 75.2617,19.51 C74.9818,19.568 74.6465,19.598 74.2559,19.598 C73.7253,19.598 73.2581,19.495 72.8545,19.29 C72.4541,19.082 72.14,18.772 71.9121,18.362 C71.6875,17.952 71.5752,17.443 71.5752,16.834 C71.5752,16.229 71.6777,15.714 71.8828,15.291 C72.0879,14.868 72.376,14.546 72.7471,14.324 C73.1182,14.103 73.5511,13.992 74.0459,13.992 Z M74.0459,14.856 C73.6846,14.856 73.3916,14.974 73.167,15.208 C72.9456,15.442 72.8154,15.786 72.7764,16.238 L75.2373,16.238 C75.234,15.968 75.1885,15.729 75.1006,15.521 C75.016,15.312 74.8857,15.149 74.71,15.032 C74.5374,14.915 74.3161,14.856 74.0459,14.856 Z M80.4717,13.992 C81.0804,13.992 81.554,14.15 81.8926,14.466 C82.2344,14.778 82.4053,15.281 82.4053,15.975 L82.4053,19.5 L81.2578,19.5 L81.2578,16.189 C81.2578,15.77 81.1715,15.455 80.999,15.247 C80.8265,15.035 80.5596,14.93 80.1982,14.93 C79.6742,14.93 79.3096,15.091 79.1045,15.413 C78.9027,15.735 78.8018,16.202 78.8018,16.814 L78.8018,19.5 L77.6543,19.5 L77.6543,14.095 L78.5479,14.095 L78.709,14.827 L78.7725,14.827 C78.8896,14.638 79.0345,14.484 79.207,14.363 C79.3828,14.24 79.5781,14.147 79.793,14.085 C80.0111,14.023 80.2373,13.992 80.4717,13.992 Z M86.0234,18.67 C86.1732,18.67 86.3213,18.657 86.4678,18.631 C86.6143,18.602 86.7477,18.567 86.8682,18.528 L86.8682,19.397 C86.7412,19.453 86.5768,19.5 86.375,19.539 C86.1732,19.578 85.9632,19.598 85.7451,19.598 C85.4391,19.598 85.1641,19.547 84.9199,19.446 C84.6758,19.342 84.4821,19.165 84.3389,18.914 C84.1956,18.663 84.124,18.317 84.124,17.874 L84.124,14.969 L83.3867,14.969 L83.3867,14.456 L84.1777,14.051 L84.5537,12.894 L85.2764,12.894 L85.2764,14.095 L86.8242,14.095 L86.8242,14.969 L85.2764,14.969 L85.2764,17.859 C85.2764,18.133 85.3447,18.336 85.4814,18.47 C85.6182,18.603 85.7988,18.67 86.0234,18.67 Z M50.4375,35.5 L50.4375,28.361 L51.6094,28.361 L51.6094,35.5 L50.4375,35.5 Z M55.1934,35.598 C54.5488,35.598 54.0312,35.363 53.6406,34.895 C53.2533,34.423 53.0596,33.728 53.0596,32.81 C53.0596,31.882 53.2565,31.18 53.6504,30.705 C54.0475,30.23 54.57,29.992 55.2178,29.992 C55.4912,29.992 55.7305,30.03 55.9355,30.104 C56.1406,30.176 56.3164,30.274 56.4629,30.397 C56.6126,30.521 56.7396,30.66 56.8438,30.812 L56.8975,30.812 C56.8812,30.712 56.8617,30.567 56.8389,30.378 C56.8193,30.186 56.8096,30.008 56.8096,29.846 L56.8096,27.902 L57.9619,27.902 L57.9619,35.5 L57.0635,35.5 L56.8584,34.763 L56.8096,34.763 C56.7119,34.919 56.5882,35.061 56.4385,35.188 C56.292,35.311 56.1162,35.41 55.9111,35.485 C55.7093,35.56 55.4701,35.598 55.1934,35.598 Z M55.5156,34.665 C56.0072,34.665 56.3538,34.523 56.5557,34.24 C56.7575,33.957 56.8617,33.532 56.8682,32.966 L56.8682,32.814 C56.8682,32.209 56.7705,31.745 56.5752,31.423 C56.3799,31.097 56.0234,30.935 55.5059,30.935 C55.0924,30.935 54.7767,31.102 54.5586,31.438 C54.3438,31.77 54.2363,32.233 54.2363,32.829 C54.2363,33.425 54.3438,33.881 54.5586,34.196 C54.7767,34.509 55.0957,34.665 55.5156,34.665 Z M61.7607,29.992 C62.2425,29.992 62.6559,30.091 63.001,30.29 C63.346,30.489 63.6113,30.77 63.7969,31.135 C63.9824,31.499 64.0752,31.936 64.0752,32.443 L64.0752,33.059 L60.4668,33.059 C60.4798,33.583 60.6198,33.986 60.8867,34.27 C61.1569,34.553 61.5345,34.694 62.0195,34.694 C62.3646,34.694 62.6738,34.662 62.9473,34.597 C63.224,34.528 63.5088,34.429 63.8018,34.299 L63.8018,35.231 C63.5316,35.358 63.2565,35.451 62.9766,35.51 C62.6966,35.568 62.3613,35.598 61.9707,35.598 C61.4401,35.598 60.973,35.495 60.5693,35.29 C60.1689,35.082 59.8548,34.772 59.627,34.362 C59.4023,33.952 59.29,33.443 59.29,32.834 C59.29,32.229 59.3926,31.714 59.5977,31.291 C59.8027,30.868 60.0908,30.546 60.4619,30.324 C60.833,30.103 61.266,29.992 61.7607,29.992 Z M61.7607,30.856 C61.3994,30.856 61.1064,30.974 60.8818,31.208 C60.6605,31.442 60.5303,31.786 60.4912,32.238 L62.9521,32.238 C62.9489,31.968 62.9033,31.729 62.8154,31.521 C62.7308,31.312 62.6006,31.149 62.4248,31.032 C62.2523,30.915 62.0309,30.856 61.7607,30.856 Z M68.1865,29.992 C68.7952,29.992 69.2689,30.15 69.6074,30.466 C69.9492,30.778 70.1201,31.281 70.1201,31.975 L70.1201,35.5 L68.9727,35.5 L68.9727,32.189 C68.9727,31.77 68.8864,31.455 68.7139,31.247 C68.5413,31.035 68.2744,30.93 67.9131,30.93 C67.389,30.93 67.0244,31.091 66.8193,31.413 C66.6175,31.735 66.5166,32.202 66.5166,32.814 L66.5166,35.5 L65.3691,35.5 L65.3691,30.095 L66.2627,30.095 L66.4238,30.827 L66.4873,30.827 C66.6045,30.638 66.7493,30.484 66.9219,30.363 C67.0977,30.24 67.293,30.147 67.5078,30.085 C67.7259,30.023 67.9521,29.992 68.1865,29.992 Z M73.7383,34.67 C73.888,34.67 74.0361,34.657 74.1826,34.631 C74.3291,34.602 74.4626,34.567 74.583,34.528 L74.583,35.397 C74.4561,35.453 74.2917,35.5 74.0898,35.539 C73.888,35.578 73.6781,35.598 73.46,35.598 C73.154,35.598 72.8789,35.547 72.6348,35.446 C72.3906,35.342 72.1969,35.165 72.0537,34.914 C71.9105,34.663 71.8389,34.317 71.8389,33.874 L71.8389,30.969 L71.1016,30.969 L71.1016,30.456 L71.8926,30.051 L72.2686,28.894 L72.9912,28.894 L72.9912,30.095 L74.5391,30.095 L74.5391,30.969 L72.9912,30.969 L72.9912,33.859 C72.9912,34.133 73.0596,34.336 73.1963,34.47 C73.333,34.603 73.5137,34.67 73.7383,34.67 Z M76.8291,30.095 L76.8291,35.5 L75.6816,35.5 L75.6816,30.095 L76.8291,30.095 Z M76.2627,28.024 C76.4385,28.024 76.5898,28.072 76.7168,28.166 C76.847,28.26 76.9121,28.423 76.9121,28.654 C76.9121,28.882 76.847,29.045 76.7168,29.143 C76.5898,29.237 76.4385,29.284 76.2627,29.284 C76.0804,29.284 75.9258,29.237 75.7988,29.143 C75.6751,29.045 75.6133,28.882 75.6133,28.654 C75.6133,28.423 75.6751,28.26 75.7988,28.166 C75.9258,28.072 76.0804,28.024 76.2627,28.024 Z M80.4863,34.67 C80.6361,34.67 80.7842,34.657 80.9307,34.631 C81.0771,34.602 81.2106,34.567 81.3311,34.528 L81.3311,35.397 C81.2041,35.453 81.0397,35.5 80.8379,35.539 C80.6361,35.578 80.4261,35.598 80.208,35.598 C79.902,35.598 79.627,35.547 79.3828,35.446 C79.1387,35.342 78.945,35.165 78.8018,34.914 C78.6585,34.663 78.5869,34.317 78.5869,33.874 L78.5869,30.969 L77.8496,30.969 L77.8496,30.456 L78.6406,30.051 L79.0166,28.894 L79.7393,28.894 L79.7393,30.095 L81.2871,30.095 L81.2871,30.969 L79.7393,30.969 L79.7393,33.859 C79.7393,34.133 79.8076,34.336 79.9443,34.47 C80.0811,34.603 80.2617,34.67 80.4863,34.67 Z M81.6143,30.095 L82.8643,30.095 L83.9727,33.181 C84.0215,33.321 84.0654,33.459 84.1045,33.596 C84.1468,33.729 84.1826,33.861 84.2119,33.991 C84.2445,34.121 84.2705,34.252 84.29,34.382 L84.3193,34.382 C84.3519,34.213 84.3975,34.024 84.4561,33.815 C84.5179,33.604 84.5863,33.392 84.6611,33.181 L85.7256,30.095 L86.9609,30.095 L84.6416,36.242 C84.5081,36.594 84.3438,36.893 84.1484,37.141 C83.9564,37.391 83.7285,37.58 83.4648,37.707 C83.2012,37.837 82.9001,37.902 82.5615,37.902 C82.3988,37.902 82.2572,37.893 82.1367,37.873 C82.0163,37.857 81.9137,37.839 81.8291,37.819 L81.8291,36.901 C81.8975,36.918 81.9837,36.932 82.0879,36.945 C82.1921,36.958 82.2995,36.965 82.4102,36.965 C82.6152,36.965 82.7926,36.924 82.9424,36.843 C83.0921,36.761 83.2191,36.646 83.3232,36.496 C83.4274,36.35 83.5137,36.182 83.582,35.993 L83.7725,35.485 L81.6143,30.095 Z M92.9717,35.5 L91.7949,35.5 L91.7949,29.357 L89.7051,29.357 L89.7051,28.361 L95.0566,28.361 L95.0566,29.357 L92.9717,29.357 L92.9717,35.5 Z M97.181,27.902 L97.181,29.812 C97.181,30.01 97.174,30.204 97.161,30.393 C97.151,30.581 97.14,30.728 97.127,30.832 L97.19,30.832 C97.304,30.643 97.444,30.489 97.61,30.368 C97.776,30.244 97.962,30.152 98.167,30.09 C98.375,30.028 98.597,29.997 98.831,29.997 C99.244,29.997 99.596,30.067 99.886,30.207 C100.175,30.344 100.397,30.557 100.55,30.847 C100.706,31.136 100.784,31.512 100.784,31.975 L100.784,35.5 L99.637,35.5 L99.637,32.189 C99.637,31.77 99.55,31.455 99.378,31.247 C99.205,31.035 98.938,30.93 98.577,30.93 C98.229,30.93 97.952,31.003 97.747,31.149 C97.545,31.293 97.4,31.506 97.312,31.789 C97.225,32.069 97.181,32.411 97.181,32.814 L97.181,35.5 L96.0332,35.5 L96.0332,27.902 L97.181,27.902 Z M104.544,29.992 C105.026,29.992 105.439,30.091 105.784,30.29 C106.129,30.489 106.395,30.77 106.58,31.135 C106.766,31.499 106.858,31.936 106.858,32.443 L106.858,33.059 L103.25,33.059 C103.263,33.583 103.403,33.986 103.67,34.27 C103.94,34.553 104.318,34.694 104.803,34.694 C105.148,34.694 105.457,34.662 105.73,34.597 C106.007,34.528 106.292,34.429 106.585,34.299 L106.585,35.231 C106.315,35.358 106.04,35.451 105.76,35.51 C105.48,35.568 105.145,35.598 104.754,35.598 C104.223,35.598 103.756,35.495 103.353,35.29 C102.952,35.082 102.638,34.772 102.41,34.362 C102.186,33.952 102.073,33.443 102.073,32.834 C102.073,32.229 102.176,31.714 102.381,31.291 C102.586,30.868 102.874,30.546 103.245,30.324 C103.616,30.103 104.049,29.992 104.544,29.992 Z M104.544,30.856 C104.183,30.856 103.89,30.974 103.665,31.208 C103.444,31.442 103.313,31.786 103.274,32.238 L105.735,32.238 C105.732,31.968 105.687,31.729 105.599,31.521 C105.514,31.312 105.384,31.149 105.208,31.032 C105.035,30.915 104.814,30.856 104.544,30.856 Z M110.853,30.969 L109.539,30.969 L109.539,35.5 L108.392,35.5 L108.392,30.969 L107.508,30.969 L107.508,30.417 L108.392,30.08 L108.392,29.704 C108.392,29.245 108.463,28.881 108.606,28.61 C108.753,28.34 108.961,28.146 109.231,28.029 C109.505,27.909 109.83,27.849 110.208,27.849 C110.455,27.849 110.682,27.87 110.887,27.912 C111.092,27.951 111.264,27.997 111.404,28.049 L111.106,28.918 C110.996,28.882 110.872,28.85 110.735,28.82 C110.599,28.788 110.452,28.771 110.296,28.771 C110.035,28.771 109.843,28.853 109.72,29.016 C109.599,29.178 109.539,29.416 109.539,29.729 L109.539,30.095 L110.853,30.095 L110.853,30.969 Z M113.787,34.67 C113.937,34.67 114.085,34.657 114.231,34.631 C114.378,34.602 114.511,34.567 114.632,34.528 L114.632,35.397 C114.505,35.453 114.34,35.5 114.139,35.539 C113.937,35.578 113.727,35.598 113.509,35.598 C113.203,35.598 112.928,35.547 112.684,35.446 C112.439,35.342 112.246,35.165 112.103,34.914 C111.959,34.663 111.888,34.317 111.888,33.874 L111.888,30.969 L111.15,30.969 L111.15,30.456 L111.941,30.051 L112.317,28.894 L113.04,28.894 L113.04,30.095 L114.588,30.095 L114.588,30.969 L113.04,30.969 L113.04,33.859 C113.04,34.133 113.108,34.336 113.245,34.47 C113.382,34.603 113.562,34.67 113.787,34.67 Z" id="Shape" fill="#052F5F" fill-rule="nonzero"></path>
            </g>
        </g>
    </g>
</svg>