<?xml version="1.0" encoding="UTF-8"?>
<svg width="68px" height="58px" viewBox="0 0 68 58" version="1.1" xmlns="http://www.w3.org/2000/svg" xmlns:xlink="http://www.w3.org/1999/xlink">
    <title>EBAE2485-67CA-4ECA-A446-AA6C3DC30F44@1x</title>
    <defs>
        <path d="M5.05480896,34.7367323 C4.2337817,34.7419619 3.42267257,34.5603787 2.68519592,34.2061318 C1.32105803,33.6200523 0.335185596,32.4161205 0.0453638411,30.9824105 C-0.163612961,29.4999239 0.357125687,28.0081257 1.4484242,26.9629605 L1.16781213,27.2180017 C1.16781213,27.2180017 6.2188294,21.1990283 6.14607813,13.8028322 C6.08371989,6.73308888 11.4153492,0.112218148 19.3036663,0 L21.319916,0 L21.319916,0 L21.329498,0.0243650447 C28.8986276,0.501160377 33.9449441,7.52875226 33.8539219,13.8028322 C33.7499915,21.1990283 38.8321879,27.2180017 38.8321879,27.2180017 L38.5515758,26.9629605 C39.6428743,28.0081257 40.163613,29.4999239 39.9546362,30.9824105 C39.9052309,32.5144847 38.8284976,33.8293744 37.3148041,34.2061318 C36.5387527,34.3838911 35.740919,34.4525877 34.945191,34.4101648 L5.05480896,34.7367323 Z" id="path-1"></path>
    </defs>
    <g id="Final---Revamp-Bureaus---Mobile-&amp;-Desktop--Copy-3" stroke="none" stroke-width="1" fill="none" fill-rule="evenodd">
        <g id="Mobile---Dashboard" transform="translate(-237.000000, -1800.000000)">
            <g id="Group-18" transform="translate(16.000000, 1714.000000)">
                <g id="Group-21" transform="translate(18.000000, 16.000000)">
                    <g id="Never_miss_any_updates_graphics" transform="translate(203.768200, 71.000000)">
                        <path d="M40.2317997,5 C39.9765255,2.47791342 37.8212097,0 35.2317997,0 C32.470376,0 30.2574438,2.24811668 30.2574438,5.00954043" id="Oval" stroke="#1A1875" stroke-width="0.6"></path>
                        <path d="M35.2317997,44 C38.5455082,44 40.2317997,41.5 41.2317997,38.5 C41.2994644,38.2970059 29.1995261,38.3063581 29.2317997,38.5 C29.7317997,41.5 31.9180912,44 35.2317997,44 Z" id="Oval" fill="#272689"></path>
                        <ellipse id="Oval" fill="#DEE7F5" cx="35.7317997" cy="55" rx="19.5" ry="2"></ellipse>
                        <g id="Path-7" transform="translate(15.231800, 4.000000)">
                            <mask id="mask-2" fill="white">
                                <use xlink:href="#path-1"></use>
                            </mask>
                            <use id="Mask" fill="#FFFFFF" xlink:href="#path-1"></use>
                            <path d="M19,0.5 C18.6666667,2.5 17.6666667,4.33333333 16,6 C13.5,8.5 12,10.5 12.5,16 C12.8333333,19.6666667 11.5,23.3333333 8.5,27 C7.16666667,28.2878912 6.5,29.4545579 6.5,30.5 C6.5,31.5454421 7.16666667,32.8787754 8.5,34.5 L2.5,34.5 C-0.833333333,32.5 -1.16666667,29.8333333 1.5,26.5 C5.5,21.5 5,13.5 5,12.5 C5,11.5 7,6.5 10.5,3.5 C12.8333333,1.5 15.6666667,0.5 19,0.5 Z" fill="#D8E2F4" mask="url(#mask-2)"></path>
                        </g>
                        <path d="M20.2866087,38.7367323 C19.4655814,38.7419619 18.6544723,38.5603787 17.9169956,38.2061318 C16.5528578,37.6200523 15.5669853,36.4161205 15.2771636,34.9824105 C15.0681868,33.4999239 15.5889254,32.0081257 16.6802239,30.9629605 L16.3996119,31.2180017 C16.3996119,31.2180017 21.4506291,25.1990283 21.3778779,17.8028322 C21.3155196,10.7330889 26.647149,4.11221815 34.5354661,4 L36.5517158,4 L36.5517158,4 L36.5612978,4.02436504 C44.1304274,4.50116038 49.1767439,11.5287523 49.0857216,17.8028322 C48.9817912,25.1990283 54.0639876,31.2180017 54.0639876,31.2180017 L53.7833755,30.9629605 C54.874674,32.0081257 55.3954127,33.4999239 55.1864359,34.9824105 C55.1370307,36.5144847 54.0602974,37.8293744 52.5466038,38.2061318 C51.7705524,38.3838911 50.9727187,38.4525877 50.1769908,38.4101648 L20.2866087,38.7367323 Z" id="Combined-Shape" stroke="#1A1875" stroke-width="0.6"></path>
                        <circle id="Oval" stroke="#FFFFFF" stroke-width="1.6" fill="#7172EF" cx="47" cy="11" r="6"></circle>
                        <path d="M25.2317997,11 C26.3363692,11 27.2317997,11.8954305 27.2317997,13 L27.2317997,19 C27.2317997,20.1045695 26.3363692,21 25.2317997,21 L18.2937997,21 L15.4836017,24.2122263 C15.4108653,24.2953536 15.2845128,24.3037771 15.2013854,24.2310407 C15.1706959,24.2041874 15.1489483,24.1685943 15.1390579,24.1290325 L14.3567997,21 L13.2317997,21 C12.1272302,21 11.2317997,20.1045695 11.2317997,19 L11.2317997,13 C11.2317997,11.8954305 12.1272302,11 13.2317997,11 L25.2317997,11 Z" id="Combined-Shape" stroke="#1A1875" stroke-width="0.6" fill="#FFFFFF" transform="translate(19.231800, 17.640264) rotate(-12.000000) translate(-19.231800, -17.640264) "></path>
                        <g id="noun_Rupee_1663360" transform="translate(19.231800, 16.000000) rotate(-13.000000) translate(-19.231800, -16.000000) translate(17.231800, 13.000000)" fill="#7172EF" fill-rule="nonzero">
                            <g id="Group" transform="translate(0.000000, 0.000000)">
                                <path d="M3.03571539,5.32836963 C2.9613185,5.25425417 2.88630676,5.18013871 2.81190987,5.10602325 C2.63237357,4.92827732 2.45345212,4.7498755 2.27391582,4.57212957 C2.05748851,4.35765386 1.84167604,4.14317815 1.62524872,3.92870243 C1.43771937,3.74242995 1.25019002,3.55615746 1.06266066,3.37054087 C0.971662815,3.28002818 0.881279816,3.18820371 0.789052265,3.09900281 C0.787822565,3.09769103 0.786592864,3.09637925 0.785363163,3.09506747 C0.821639333,3.18754783 0.857300653,3.28068407 0.893576822,3.37316442 C0.893576822,3.31085496 0.893576822,3.24788962 0.893576822,3.18558016 C0.770606755,3.31675796 0.647636688,3.44793577 0.524666621,3.57911358 C0.643947586,3.57911358 0.763843402,3.57911358 0.883124367,3.57911358 C1.00609443,3.57911358 1.1302942,3.5837048 1.25326427,3.5778018 C1.54900728,3.56337224 1.84475029,3.47154778 2.09314983,3.29773718 C2.33232661,3.13048548 2.53891632,2.9022361 2.67172399,2.63069804 C2.80883562,2.35128931 2.88384736,2.03252724 2.86786125,1.71638872 C2.85248999,1.40418554 2.76702579,1.09198236 2.60593501,0.829626751 C2.44791847,0.57251825 2.23149115,0.349515978 1.97386886,0.207843947 C1.72977328,0.0740425842 1.46292823,0.00123890151 1.18809013,0.000583012474 C0.923704489,0.000583012474 0.658703994,0.000583012474 0.39431835,0.000583012474 C0.385710446,0.000583012474 0.377717391,0.000583012474 0.369109487,0.000583012474 C0.274422535,0.000583012474 0.175431631,0.0445275777 0.108412945,0.116019482 C0.0444685099,0.184231942 -0.00348981622,0.296388966 0.000199285786,0.394116432 C0.00450323813,0.495779233 0.0358606052,0.601377367 0.108412945,0.672213383 C0.180350434,0.743049398 0.269503732,0.787649852 0.369109487,0.787649852 C0.627961478,0.787649852 0.887428319,0.787649852 1.14628031,0.787649852 C1.21883265,0.787649852 1.29138499,0.78961752 1.36332248,0.799455855 C1.33073541,0.794864632 1.29814834,0.790273409 1.26494642,0.785682185 C1.38053829,0.802079411 1.4930559,0.834873863 1.60065471,0.882753762 C1.57114189,0.869635982 1.54162908,0.856518201 1.51273111,0.84340042 C1.61787052,0.89128032 1.71624657,0.952933889 1.80662957,1.02704935 C1.78203556,1.00671679 1.75682669,0.98572834 1.73223268,0.96539578 C1.81954143,1.03819946 1.89762742,1.12149737 1.96587581,1.21463361 C1.94681545,1.18839805 1.92714024,1.1615066 1.90807987,1.13527104 C1.97755796,1.23168673 2.03535389,1.33662897 2.08023797,1.448786 C2.06794096,1.41730332 2.05564396,1.38582065 2.04334695,1.35499387 C2.08823102,1.46977445 2.11897354,1.58980214 2.1343448,1.71310928 C2.13004085,1.67834716 2.12573689,1.64358504 2.12143294,1.60816703 C2.13618935,1.72885062 2.13618935,1.85150186 2.12143294,1.97218545 C2.12573689,1.93742333 2.13004085,1.90266121 2.1343448,1.8672432 C2.11897354,1.99055034 2.08823102,2.11057803 2.04334695,2.22535861 C2.05564396,2.19387594 2.06794096,2.16239327 2.08023797,2.13156648 C2.03535389,2.24372351 1.97755796,2.34866575 1.90807987,2.44508144 C1.92714024,2.41884588 1.94681545,2.39195443 1.96587581,2.36571887 C1.89762742,2.45885511 1.81954143,2.54215302 1.73223268,2.6149567 C1.75682669,2.59462414 1.78203556,2.57363569 1.80662957,2.55330313 C1.71624657,2.62741859 1.61787052,2.68907216 1.51273111,2.73695206 C1.54224393,2.72383428 1.57175674,2.7107165 1.60065471,2.69759872 C1.4930559,2.74547862 1.38053829,2.77827307 1.26494642,2.79467029 C1.29753349,2.79007907 1.33012056,2.78548785 1.36332248,2.78089662 C1.25387912,2.79598207 1.14382091,2.79270263 1.0337627,2.79270263 C0.897880775,2.79270263 0.762613701,2.79270263 0.626731777,2.79270263 C0.592915009,2.79270263 0.55848339,2.79270263 0.524666621,2.79270263 C0.325455113,2.79270263 0.155756421,2.97307211 0.155756421,3.18623605 C0.155756421,3.24723373 0.15514157,3.30823141 0.155756421,3.36922909 C0.156986121,3.48007433 0.199410794,3.58829602 0.275652236,3.66372326 C0.315002657,3.70242072 0.354353079,3.74177406 0.3937035,3.78047151 C0.565246744,3.95034677 0.736789987,4.12087792 0.90833323,4.29075318 C1.13582785,4.51637901 1.36332248,4.74200483 1.5908171,4.96828655 C1.79556226,5.17161215 2.00092228,5.37493775 2.20566744,5.57826335 C2.30711774,5.67927026 2.4079532,5.78027717 2.51001835,5.8806282 C2.51124805,5.88193997 2.5130926,5.88325175 2.51432231,5.88456353 C2.58503009,5.95474366 2.67725764,6 2.77501885,6 C2.86540185,6 2.97361551,5.95736721 3.03571539,5.88456353 C3.10027467,5.80979218 3.148233,5.71140883 3.14392905,5.60646658 C3.1396251,5.50480378 3.10765288,5.40051742 3.03571539,5.32836963 L3.03571539,5.32836963 Z" id="Path"></path>
                                <path d="M0.369109487,0.787649852 C0.477323146,0.787649852 0.585536805,0.787649852 0.693750464,0.787649852 C0.953832155,0.787649852 1.21391385,0.787649852 1.47399554,0.787649852 C1.78756921,0.787649852 2.10052803,0.787649852 2.4141017,0.787649852 C2.68586555,0.787649852 2.9576294,0.787649852 3.22939324,0.787649852 C3.36158607,0.787649852 3.49377889,0.78896163 3.62535686,0.787649852 C3.62720141,0.787649852 3.62904596,0.787649852 3.63089051,0.787649852 C3.72557746,0.787649852 3.82456837,0.743705287 3.89158706,0.672213383 C3.95553149,0.604000923 4.00348982,0.491843898 3.99980071,0.394116432 C3.99549676,0.292453632 3.96413939,0.186855498 3.89158706,0.116019482 C3.81964957,0.0451834667 3.73049627,0.000583012474 3.63089051,0.000583012474 C3.52267685,0.000583012474 3.4144632,0.000583012474 3.30624954,0.000583012474 C3.04616784,0.000583012474 2.78608615,0.000583012474 2.52600446,0.000583012474 C2.21243079,0.000583012474 1.89947197,0.000583012474 1.5858983,0.000583012474 C1.31413445,0.000583012474 1.0423706,0.000583012474 0.770606755,0.000583012474 C0.638413933,0.000583012474 0.506221111,-0.000728765593 0.37464314,0.000583012474 C0.372798589,0.000583012474 0.370954038,0.000583012474 0.369109487,0.000583012474 C0.274422535,0.000583012474 0.175431631,0.0445275777 0.108412945,0.116019482 C0.0444685099,0.184231942 -0.00348981622,0.296388966 0.000199285786,0.394116432 C0.00450323813,0.495779233 0.0358606052,0.601377367 0.108412945,0.672213383 C0.180350434,0.743049398 0.269503732,0.787649852 0.369109487,0.787649852 L0.369109487,0.787649852 Z" id="Path"></path>
                                <path d="M0.369109487,2.1840376 C0.477323146,2.1840376 0.585536805,2.1840376 0.693750464,2.1840376 C0.953832155,2.1840376 1.21391385,2.1840376 1.47399554,2.1840376 C1.78756921,2.1840376 2.10052803,2.1840376 2.4141017,2.1840376 C2.68586555,2.1840376 2.9576294,2.1840376 3.22939324,2.1840376 C3.36158607,2.1840376 3.49377889,2.18534938 3.62535686,2.1840376 C3.62720141,2.1840376 3.62904596,2.1840376 3.63089051,2.1840376 C3.72557746,2.1840376 3.82456837,2.14009304 3.89158706,2.06860113 C3.95553149,2.00038867 4.00348982,1.88823165 3.99980071,1.79050418 C3.99549676,1.68884138 3.96413939,1.58324325 3.89158706,1.51240723 C3.81964957,1.44157122 3.73049627,1.39697076 3.63089051,1.39697076 C3.52267685,1.39697076 3.4144632,1.39697076 3.30624954,1.39697076 C3.04616784,1.39697076 2.78608615,1.39697076 2.52600446,1.39697076 C2.21243079,1.39697076 1.89947197,1.39697076 1.5858983,1.39697076 C1.31413445,1.39697076 1.0423706,1.39697076 0.770606755,1.39697076 C0.638413933,1.39697076 0.506221111,1.39565899 0.37464314,1.39697076 C0.372798589,1.39697076 0.370954038,1.39697076 0.369109487,1.39697076 C0.274422535,1.39697076 0.175431631,1.44091533 0.108412945,1.51240723 C0.0444685099,1.58061969 -0.00348981622,1.69277672 0.000199285786,1.79050418 C0.00450323813,1.89216698 0.0358606052,1.99776512 0.108412945,2.06860113 C0.180350434,2.13943715 0.269503732,2.1840376 0.369109487,2.1840376 L0.369109487,2.1840376 Z" id="Path"></path>
                            </g>
                        </g>
                        <path d="M62.2317997,25 C63.3363692,25 64.2317997,25.8954305 64.2317997,27 L64.2317997,33 C64.2317997,34.1045695 63.3363692,35 62.2317997,35 L55.2937997,35 L52.4836017,38.2122263 C52.4108653,38.2953536 52.2845128,38.3037771 52.2013854,38.2310407 C52.1706959,38.2041874 52.1489483,38.1685943 52.1390579,38.1290325 L51.3567997,35 L50.2317997,35 C49.1272302,35 48.2317997,34.1045695 48.2317997,33 L48.2317997,27 C48.2317997,25.8954305 49.1272302,25 50.2317997,25 L62.2317997,25 Z" id="Combined-Shape-Copy" stroke="#1A1875" stroke-width="0.6" fill="#FFFFFF" transform="translate(56.231800, 31.640264) scale(-1, 1) rotate(-5.000000) translate(-56.231800, -31.640264) "></path>
                        <path d="M65.395736,10.9870979 C65.9480207,10.9870979 66.395736,11.4348132 66.395736,11.9870979 L66.395736,15.9870979 C66.395736,16.5393827 65.9480207,16.9870979 65.395736,16.9870979 L60.393736,16.9860979 L58.8234008,19.0057862 C58.7555868,19.0929756 58.6299317,19.1086825 58.5427422,19.0408685 C58.5060088,19.012298 58.4803881,18.9718122 58.4702929,18.9263841 L58.038736,16.9860979 L57.395736,16.9870979 C56.8434512,16.9870979 56.395736,16.5393827 56.395736,15.9870979 L56.395736,11.9870979 C56.395736,11.4348132 56.8434512,10.9870979 57.395736,10.9870979 L65.395736,10.9870979 Z" id="Combined-Shape-Copy" fill="#DDEAF4" transform="translate(61.395736, 15.035053) scale(-1, 1) rotate(9.000000) translate(-61.395736, -15.035053) "></path>
                        <path d="M9.39573596,27.9870979 C9.94802071,27.9870979 10.395736,28.4348132 10.395736,28.9870979 L10.395736,32.9870979 C10.395736,33.5393827 9.94802071,33.9870979 9.39573596,33.9870979 L4.39373596,33.9860979 L2.8234008,36.0057862 C2.75558679,36.0929756 2.62993167,36.1086825 2.54274224,36.0408685 C2.50600875,36.012298 2.48038807,35.9718122 2.47029295,35.9263841 L2.03873596,33.9860979 L1.39573596,33.9870979 C0.843451206,33.9870979 0.395735956,33.5393827 0.395735956,32.9870979 L0.395735956,28.9870979 C0.395735956,28.4348132 0.843451206,27.9870979 1.39573596,27.9870979 L9.39573596,27.9870979 Z" id="Combined-Shape-Copy-2" fill="#DDEAF4" transform="translate(5.395736, 32.035053) rotate(6.000000) translate(-5.395736, -32.035053) "></path>
                        <g id="Group-24" transform="translate(56.231800, 30.000000) rotate(6.000000) translate(-56.231800, -30.000000) translate(51.231800, 29.000000)" fill="#7172EF">
                            <circle id="Oval" cx="1" cy="1" r="1"></circle>
                            <circle id="Oval-Copy-2" cx="5" cy="1" r="1"></circle>
                            <circle id="Oval-Copy-3" cx="9" cy="1" r="1"></circle>
                        </g>
                        <text id="!" font-family="Baskerville-Bold, Baskerville" font-size="7" font-weight="bold" line-spacing="10" fill="#FFFFFF">
                            <tspan x="46" y="12">!</tspan>
                        </text>
                    </g>
                </g>
            </g>
        </g>
    </g>
</svg>