<?xml version="1.0" encoding="UTF-8"?>
<svg width="12px" height="12px" viewBox="0 0 12 12" version="1.1" xmlns="http://www.w3.org/2000/svg" xmlns:xlink="http://www.w3.org/1999/xlink">
    <title>0CB4665D-0DD8-4C79-BB7A-A1C4B03F92F0@1x</title>
    <g id="Final.---CHR-30-days-Free-Plan-" stroke="none" stroke-width="1" fill="none" fill-rule="evenodd">
        <g id="-Bank-Logo---SVG" transform="translate(-204.000000, -30.000000)">
            <g id="bank" transform="translate(204.000000, 30.000000)">
                <path d="M11.3258664,5.52093265 C11.4550919,5.52093265 11.5598498,5.41617472 11.5598498,5.28694927 L11.5598498,4.69263142 L11.7660226,4.69263142 C11.8952481,4.69263142 12,4.58787348 12,4.45864802 L12,3.23671982 C11.999813,3.14972797 11.9511303,3.07010288 11.8737887,3.03027961 L11.8737887,3.02920997 L6.1080365,0.0264675125 C6.0403371,-0.00882250416 5.95966896,-0.00882250416 5.89196956,0.0264675125 L0.125949924,3.02920997 L0.125949924,3.03041332 C0.0488706519,3.07039294 0.000389644042,3.14988942 0.000133704802,3.23671982 L0.000133704802,4.45864802 C0.000207467255,4.58784291 0.104922209,4.69255766 0.23411711,4.69263142 L0.440289915,4.69263142 L0.440289915,5.28694927 C0.440289915,5.41617472 0.545047854,5.52093265 0.674273317,5.52093265 L0.885794318,5.52093265 L0.885794318,9.48193747 L0.674139617,9.48193747 C0.612072481,9.48190193 0.552537261,9.50654232 0.508649163,9.55043042 C0.464761066,9.59431852 0.440120713,9.6538537 0.44015621,9.71592083 L0.44015621,10.3102387 L0.233983405,10.3102387 C0.104788504,10.3103125 0,10.4150272 0,10.5442221 L0,11.7660166 C0,11.8952115 0.104788504,12 0.233983405,12 L11.7660226,12 C11.8952481,12 12,11.8952421 12,11.7660166 L12,10.5442221 C12,10.4149966 11.8952481,10.3102387 11.7660226,10.3102387 L11.5598498,10.3102387 L11.5598498,9.71592083 C11.5598853,9.6538537 11.5352449,9.59431852 11.4913569,9.55043042 C11.4474688,9.50654232 11.3879336,9.48190193 11.3258664,9.48193747 L11.1142117,9.48193747 L11.1142117,5.52093265 L11.3258664,5.52093265 Z M11.091883,5.05296586 L9.42057296,5.05296586 L9.42057296,4.69263142 L11.091883,4.69263142 L11.091883,5.05296586 Z M9.1865896,9.48193747 C9.12452247,9.48190193 9.06498724,9.50654232 9.02109914,9.55043042 C8.97721104,9.59431852 8.9525707,9.6538537 8.95260618,9.71592083 L8.95260618,10.3102387 L3.04739986,10.3102387 L3.04739986,9.71592083 C3.04739986,9.5866954 2.94264193,9.48193747 2.81341646,9.48193747 L2.60162805,9.48193747 L2.60162805,5.52093265 L2.81341646,5.52093265 C2.94261136,5.52085889 3.0473261,5.41614415 3.04739986,5.28694927 L3.04739986,4.69263142 L8.95260618,4.69263142 L8.95260618,5.28694927 C8.95260618,5.41617472 9.05736412,5.52093265 9.1865896,5.52093265 L9.39837801,5.52093265 L9.39837801,9.48193747 L9.1865896,9.48193747 Z M0.467966809,4.22466461 L0.467966809,3.47070323 L11.5320392,3.47070323 L11.5320392,4.22466461 L0.467966809,4.22466461 Z M6.000003,0.497776941 L10.8100333,3.00273642 L1.18983904,3.00273642 L6.000003,0.497776941 Z M2.57943305,4.69263142 L2.57943305,5.05363438 L0.908123018,5.05363438 L0.908123018,4.69263142 L2.57943305,4.69263142 Z M1.35376113,5.52160118 L2.13366124,5.52160118 L2.13366124,9.48193747 L1.35376113,9.48193747 L1.35376113,5.52160118 Z M0.908123018,9.94990425 L2.57943305,9.94990425 L2.57943305,10.3102387 L0.908123018,10.3102387 L0.908123018,9.94990425 Z M11.5320392,11.5320332 L0.467966809,11.5320332 L0.467966809,10.7782055 L11.5320392,10.7782055 L11.5320392,11.5320332 Z M9.42057296,10.3102387 L9.42057296,9.94990425 L11.091883,9.94990425 L11.091883,10.3102387 L9.42057296,10.3102387 Z M10.6462449,9.48193747 L9.86634479,9.48193747 L9.86634479,5.52093265 L10.6462449,5.52093265 L10.6462449,9.48193747 Z" id="Shape" fill="#1B1DC7" fill-rule="nonzero"></path>
                <path d="M6.000003,2.55709831 C6.36921861,2.55709831 6.66852701,2.25778992 6.66852701,1.8885743 C6.66852701,1.51935868 6.36921861,1.22005028 6.000003,1.22005028 C5.6307874,1.22005028 5.33147901,1.51935868 5.33147901,1.8885743 C5.33192105,2.25760666 5.63097065,2.55665627 6.000003,2.55709831 Z M6.000003,1.68801709 C6.1107677,1.68801709 6.20056023,1.77780961 6.20056023,1.8885743 C6.20056023,1.99933898 6.1107677,2.08913151 6.000003,2.08913151 C5.88923836,2.08913151 5.79944583,1.99933898 5.79944583,1.8885743 C5.79944583,1.77780961 5.88923836,1.68801709 6.000003,1.68801709 L6.000003,1.68801709 Z" id="Shape" fill="#D90368" fill-rule="nonzero"></path>
                <rect id="Rectangle" stroke="#1B1DC7" stroke-width="0.5" stroke-linejoin="round" x="4.90605464" y="4.46846924" width="2.18789677" height="1"></rect>
                <rect id="Rectangle-Copy" stroke="#1B1DC7" stroke-width="0.5" stroke-linejoin="round" x="4.90605464" y="9.61002662" width="2.18789677" height="1"></rect>
                <rect id="Rectangle-Copy-2" stroke="#1B1DC7" stroke-width="0.5" stroke-linejoin="round" x="5.45302882" y="5.34362796" width="1.09394838" height="4.2663987"></rect>
            </g>
        </g>
    </g>
</svg>