<?xml version="1.0" encoding="UTF-8"?>
<svg width="12px" height="12px" viewBox="0 0 12 12" version="1.1" xmlns="http://www.w3.org/2000/svg" xmlns:xlink="http://www.w3.org/1999/xlink">
    <title>6E31C3D6-F4EA-44B2-AE68-0A8C4302C7D4@1x</title>
    <g id="Final.---CHR-30-days-Free-Plan-" stroke="none" stroke-width="1" fill="none" fill-rule="evenodd">
        <g id="-Bank-Logo---SVG" transform="translate(-214.000000, -64.000000)">
            <g id="Group-6" transform="translate(214.000000, 64.000000)">
                <rect id="Rectangle" fill="#9E1A1E" x="0" y="0" width="12" height="12"></rect>
                <g id="Group-5" transform="translate(2.000000, 2.000000)" fill="#FEFEFE">
                    <path d="M0,8 L8,8 L8,0 L0,0 L0,8 Z M0.576925203,0.576435146 L7.42373818,0.576435146 L7.42373818,7.42400708 L0.576482945,7.42400708 L0.576925203,0.576435146 Z" id="Fill-20"></path>
                    <path d="M1.33318591,6.66692463 L2.66637183,6.66692463 L2.66637183,5.33362815 L1.33318591,5.33362815 L1.33318591,6.66692463 Z M1.33318591,2.66703518 L6.66681409,2.66703518 L6.66681409,1.33351759 L1.33318591,1.33351759 L1.33318591,2.66703518 Z" id="Fill-21"></path>
                    <polygon id="Fill-22" points="1.33318591 4.66653769 4.66161756 4.66653769 4.66161756 3.32926121 1.33318591 3.32926121"></polygon>
                </g>
            </g>
        </g>
    </g>
</svg>