<?xml version="1.0" encoding="UTF-8"?>
<svg width="14px" height="12px" viewBox="0 0 14 12" version="1.1" xmlns="http://www.w3.org/2000/svg" xmlns:xlink="http://www.w3.org/1999/xlink">
    <title>F8CDF119-41F6-42CE-9D48-D731993BBFD5@1x</title>
    <g id="Final.---CHR-30-days-Free-Plan-" stroke="none" stroke-width="1" fill="none" fill-rule="evenodd">
        <g id="-Bank-Logo---SVG" transform="translate(-243.000000, -64.000000)">
            <g id="indusind-bank-logo-04" transform="translate(243.000000, 64.000000)">
                <path d="M6.54900498,0.0241475373 C6.63258706,0.0169580716 6.71616915,0.0133633388 6.79975124,0.00797123953 L6.79975124,0.146368454 C5.89079602,0.2937525 4.54651741,1.262533 3.49651741,2.47935007 L1.44701493,2.47935007 C2.63631841,1.12952789 4.45422886,0.191302614 6.54900498,0.0241475373 L6.54900498,0.0241475373 Z M3.16393035,2.88735225 C2.41691542,3.85793011 1.88930348,4.9345526 1.90671642,5.86019631 L0.00174129353,5.86019631 C0.0644278607,4.78357382 0.46318408,3.76266969 1.11616915,2.88735225 C1.11616915,2.88735225 3.16393035,2.88735225 3.16393035,2.88735225 Z M1.94154229,6.26819848 C2.08606965,7.46704189 2.65024876,8.45379605 3.34850746,9.27519251 L1.02039801,9.27519251 C0.445771144,8.48614865 0.0888059701,7.56409967 0.0121890547,6.55937184 C0.0052238806,6.46231406 0,6.3634589 0,6.26819848 L1.94154229,6.26819848 Z M3.7141791,9.68319468 C4.69626866,10.7058962 5.82985075,11.4428164 6.42885572,12 C4.35671642,11.9101317 2.51442786,11.0330169 1.33905473,9.68319468 L3.7141791,9.68319468 Z M7.10099502,0.00078177385 C9.43955224,-0.0315708217 11.5325871,0.942601778 12.7828358,2.48114743 L10.6880597,2.48114743 C9.59626866,1.19603044 8.14054726,0.234439409 7.09751244,0.142773721 L7.09751244,0.00078177385 L7.10099502,0.00078177385 Z M13.0858209,2.88735225 C13.5942786,3.64224614 13.9129353,4.51037412 13.9843284,5.44500466 C13.9947761,5.58340188 14,5.72359646 14,5.85839894 L12.2151741,5.85839894 C12.2151741,5.79369375 12.2099502,5.72719119 12.1995025,5.662486 C12.1263682,4.720666 11.6614428,3.74829076 11.0154229,2.88555488 C11.0171642,2.88735225 13.0858209,2.88735225 13.0858209,2.88735225 Z M13.9808458,6.26819848 C13.8885572,7.364592 13.4497512,8.39628033 12.7549751,9.27519251 L10.6271144,9.27519251 C11.4524876,8.26507258 12.060199,7.19384219 12.1890547,6.26819848 L13.9808458,6.26819848 L13.9808458,6.26819848 Z M12.3997512,9.68319468 C11.2626866,10.896417 9.60149254,11.7465713 7.69303483,11.9586606 L7.7818408,11.8975501 C8.63507463,11.313406 9.52139303,10.5315516 10.2788557,9.68319468 L12.3997512,9.68319468 L12.3997512,9.68319468 Z M6.80149254,11.8040871 L4.07985075,9.68319468 L6.80149254,9.68319468 L6.80149254,11.8040871 Z M9.92189055,9.68319468 L7.12885572,11.8094792 L7.10273632,11.8094792 L7.10273632,9.68319468 L9.92189055,9.68319468 Z M6.80149254,0.268589371 L4.00497512,2.44699747 L6.80149254,2.44699747 L6.80149254,0.268589371 Z M7.10099502,2.44340274 L9.99502488,2.44340274 L7.12537313,0.214668378 L7.09925373,0.216465744 L7.10099502,2.44340274 L7.10099502,2.44340274 Z" id="Shape" fill="#80D0EF"></path>
                <path d="M3.67935323,8.92111132 C3.63059701,8.15363586 3.58532338,7.38436303 3.53656716,6.6150902 C3.44950249,5.53846772 3.7420398,5.1700076 4.53432836,5.12147871 C5.09850746,5.12866817 5.78457711,5.3838942 6.41144279,5.51510195 C6.87636816,5.59957818 7.33606965,5.58340188 7.38482587,5.24549699 C7.29253731,4.37197691 7.68955224,4.02149046 8.70472637,4.46184523 C8.69776119,3.76985916 8.87711443,3.26120446 9.28631841,2.964639 C8.97636816,3.55417519 8.84402985,4.13652191 9.23756219,5.02442092 C8.81791045,5.27784959 8.66293532,5.53487298 9.07039801,6.07767764 C9.28631841,6.23584589 9.30373134,6.39760887 9.260199,6.75169005 C9.93059701,7.18485536 10.0263682,8.24889628 9.43781095,8.24889628 C9.36119403,8.8420272 9.09477612,9.07388747 8.57238806,8.87258243 C8.25199005,8.92470605 8.76044776,9.17633735 8.54975124,9.28957144 C8.27114428,9.37404766 8.12139303,9.24283991 8.09701493,8.89594819 C7.83233831,8.75395624 7.69825871,8.79709304 7.69303483,9.01996647 C7.81666667,9.03075067 7.94726368,9.15836369 7.76442786,9.28957144 C7.58159204,9.38662922 7.36741294,9.12780846 7.33781095,8.77552464 C7.36915423,8.44840395 7.29427861,8.15902796 7.1340796,7.83190727 C7.539801,7.79955467 7.86716418,7.67373902 7.85845771,7.37897093 C7.84626866,7.16688169 7.90895522,7.01770028 8.11965174,6.80201631 C8.21368159,6.17833016 7.9960199,5.78830165 7.35696517,5.90513047 C6.68482587,6.03274348 6.08233831,6.07588028 5.43109453,5.75774642 C4.43333333,5.19337336 3.62711443,5.427031 3.69676617,6.15136967 C3.73681592,7.00152398 3.77512438,7.85347567 3.81691542,8.70183262 C3.77512438,8.77372727 3.72810945,8.8474193 3.67935323,8.92111132 L3.67935323,8.92111132 Z M4.73283582,9.26261094 C4.62661692,9.26261094 4.51691542,9.26261094 4.41069652,9.26261094 C4.23482587,9.09186113 4.13557214,8.94088235 4.15995025,8.65689846 C4.17736318,8.53647491 4.19129353,8.41784872 4.20870647,8.29742517 C4.84950249,8.01164391 5.12810945,7.45625769 4.74676617,6.83436891 C4.48731343,6.57734551 4.80248756,6.34728261 5.19079602,6.69776906 C5.50074627,6.92064249 5.5721393,7.29089998 5.45547264,7.63599433 C5.66094527,7.79416258 5.92039801,7.89840983 6.27039801,7.90919403 C6.39402985,7.91458613 6.34353234,8.08533594 6.1659204,8.04759124 C5.8681592,8.02422548 5.60522388,7.94873609 5.37537313,7.81752834 C5.25870647,8.02961758 5.07064677,8.22193578 4.82164179,8.34775143 C4.39328358,8.43941712 4.44900498,8.90493502 4.73283582,9.26261094 L4.73283582,9.26261094 Z M5.5721393,8.24530155 C5.6818408,8.13745956 5.60348259,7.92357296 5.35621891,8.17160952 C5.11940299,8.51490651 5.02537313,8.85640613 5.23606965,9.19970312 C5.44502488,9.37045293 5.54079602,9.3075451 5.61915423,9.21228468 C5.28482587,8.87437979 5.26915423,8.55085384 5.5721393,8.24530155 L5.5721393,8.24530155 Z M8.33905473,6.96557665 C8.16144279,7.11475807 8.02736318,7.44727086 8.20497512,7.77079681 C8.37562189,8.00445445 8.47661692,8.25788311 8.2119403,8.38729349 C8.06218905,8.46278288 8.05174129,8.67307475 8.26069652,8.64072216 C8.52537313,8.5850038 8.87014925,8.13206746 8.41044776,7.67373902 C8.24502488,7.37178147 8.23283582,7.25315528 8.33905473,6.96557665 L8.33905473,6.96557665 Z M8.48880597,5.89614363 C8.34950249,6.37783784 8.27810945,6.79482684 8.73432836,7.23338425 C8.85099502,7.34661834 8.8840796,7.47962345 8.8300995,7.6377917 C8.78134328,7.80314941 8.8318408,7.89122036 8.97462687,8.08893067 C9.04253731,8.21654368 8.98159204,8.43941712 8.87885572,8.52389334 C8.73084577,8.61915376 8.70820896,8.83304037 9.03557214,8.76294308 C9.27238806,8.60297746 9.33855721,8.36392773 9.2340796,8.04938861 C9.05124378,7.91278876 9.00597015,7.73305212 9.1,7.50658395 C9.1539801,7.24416845 9.00597015,7.12733963 8.90149254,6.98175295 C8.65597015,6.76606898 8.59850746,6.44613776 8.6699005,6.05431188 C8.72039801,5.67506756 8.54452736,5.72000173 8.48880597,5.89614363 L8.48880597,5.89614363 Z M8.97462687,6.89008727 C8.88059701,6.75708215 9.03383085,6.74270322 9.11741294,6.84874784 C9.55970149,7.16867906 9.75298507,7.52455761 9.57885572,7.93076242 C9.45,8.124878 9.29676617,8.02063074 9.35597015,7.89661246 C9.53880597,7.56230231 9.3420398,7.22799215 8.97462687,6.89008727 L8.97462687,6.89008727 Z M10.4355721,3.32770702 C10.4738806,4.13831927 10.2422886,4.6883134 9.74427861,4.97948676 C10.0942786,5.35513634 10.1256219,5.71101489 9.97064677,6.01836455 C9.83134328,6.17833016 9.81044776,6.368851 9.80870647,6.56296658 C9.79129353,6.67799803 9.74079602,6.74450059 9.65895522,6.75887952 C9.6920398,6.80561104 9.72512438,6.85413994 9.75995025,6.90087146 C9.85223881,6.79302948 9.90970149,6.64924016 9.9358209,6.47309826 C9.95671642,6.21068276 10.0646766,6.07408291 10.1865672,5.95365936 C10.3206468,5.70921753 10.3067164,5.43422046 10.1360697,5.12327607 C10.8743781,4.44027683 10.7733831,3.86871431 10.4355721,3.32770702 L10.4355721,3.32770702 Z M9.33333333,5.61755184 C9.38208955,5.60137554 9.43781095,5.6409176 9.45348259,5.70202806 C9.47089552,5.76493589 9.44303483,5.82604634 9.39427861,5.84042528 C9.34552239,5.85660157 9.289801,5.81705951 9.27412935,5.75594905 C9.25845771,5.6948386 9.28457711,5.63372814 9.33333333,5.61755184 L9.33333333,5.61755184 Z" id="Shape" fill="#E11F28"></path>
            </g>
        </g>
    </g>
</svg>