<?xml version="1.0" encoding="UTF-8"?>
<svg width="13px" height="12px" viewBox="0 0 13 12" version="1.1" xmlns="http://www.w3.org/2000/svg" xmlns:xlink="http://www.w3.org/1999/xlink">
    <title>511D73E4-3A48-4C8E-B2E7-D8DB69A18D6D@1x</title>
    <g id="Final.---CHR-30-days-Free-Plan-" stroke="none" stroke-width="1" fill="none" fill-rule="evenodd">
        <g id="-Bank-Logo---SVG" transform="translate(-264.000000, -93.000000)">
            <g id="Karur_icon" transform="translate(264.000000, 93.000000)">
                <polygon id="Path" fill="#E7E514" points="0.0292678161 0 12.9919109 0 12.9919109 11.9999189 0.0292678161 11.9999189"></polygon>
                <path d="M6.96745027,6.86438108 L6.25723939,5.21304324 C6.25723939,5.21206216 6.25478841,5.21059459 6.25478841,5.20960541 L6.25478841,5.20543784 L6.24988644,5.19438649 C6.20825208,5.10085946 6.15927286,5.03654595 6.10294877,5.00168919 C6.0980468,4.99825135 6.08825096,4.99211351 6.07356124,4.98573243 C6.05886343,4.97812703 6.04906758,4.97271892 6.0441737,4.96903784 C6.01478617,4.96093784 5.99519448,4.95259459 5.98539863,4.94301892 C5.97560279,4.93393784 5.97070082,4.92068108 5.97070082,4.90423784 C5.97070082,4.88606757 5.98049667,4.87158649 5.99519448,4.86004865 C6.01233519,4.84875405 6.03437786,4.84237297 6.06131441,4.84237297 C6.07111025,4.84237297 6.08580807,4.84384865 6.10784265,4.84728649 C6.1151956,4.84777297 6.12254046,4.84875405 6.12499144,4.84875405 L6.12988532,4.84998649 C6.21315405,4.85931081 6.28662693,4.86397297 6.35029587,4.86397297 C6.39438122,4.86397297 6.43846656,4.86299189 6.4849948,4.86102973 C6.53152304,4.85931081 6.58540423,4.85636757 6.6441793,4.85292973 C6.66132001,4.85194865 6.68581367,4.84998649 6.72499704,4.84728649 C6.76172944,4.84384865 6.78867408,4.84237297 6.80581479,4.84237297 C6.83275134,4.84237297 6.85234303,4.84728649 6.86213887,4.85538649 C6.87193472,4.86397297 6.87683668,4.87846216 6.87683668,4.89858649 C6.87683668,4.91577568 6.8743857,4.92976216 6.86458985,4.93884324 C6.85969598,4.94793243 6.84254718,4.95799459 6.81561063,4.96903784 C6.81071675,4.97198919 6.80826577,4.97321351 6.80581479,4.97419459 C6.80581479,4.97419459 6.8033638,4.97517568 6.80091282,4.97615676 C6.73724387,5.00537027 6.70295437,5.04612162 6.70295437,5.09644054 C6.70295437,5.11289189 6.70785634,5.13547297 6.7152012,5.16419189 C6.72499704,5.19242432 6.73724387,5.22556216 6.7519336,5.26337027 L7.18295885,6.29044865 C7.18540984,6.30100541 7.19276279,6.31058108 7.19765666,6.3177 C7.20500152,6.32383784 7.21479737,6.32726757 7.22215032,6.32726757 C7.22949518,6.32726757 7.23929103,6.32432432 7.24663589,6.3177 C7.25398075,6.31204865 7.2613337,6.30272432 7.26622758,6.29192432 L7.65806945,5.35738378 C7.67276727,5.32228378 7.68256311,5.28742703 7.69235895,5.25281351 C7.69970382,5.21869459 7.70460578,5.18898649 7.70460578,5.16419189 C7.70460578,5.11583514 7.69235895,5.07631622 7.6678653,5.0471027 C7.64092875,5.01788919 7.60174537,4.99628919 7.54786418,4.98155676 C7.54051932,4.97812703 7.52827249,4.97517568 7.51602566,4.97198919 C7.51113178,4.97051351 7.5086808,4.97001892 7.5086808,4.96903784 L7.50622982,4.96903784 C7.44256087,4.95357568 7.41072235,4.92829459 7.41072235,4.89318649 C7.41072235,4.87502432 7.41806721,4.86299189 7.43031404,4.85292973 C7.44256087,4.84384865 7.45970158,4.83967297 7.48419523,4.83967297 C7.48908911,4.83967297 7.49399108,4.83991622 7.50378692,4.84139189 C7.51358277,4.84188649 7.52337861,4.84237297 7.53072347,4.84237297 C7.53561735,4.84335405 7.54051932,4.84433514 7.54786418,4.84581081 C7.64337973,4.85538649 7.73154233,4.86102973 7.81236007,4.86102973 C7.84664958,4.86102973 7.88338197,4.86054324 7.91766338,4.85832973 C7.95195288,4.85538649 7.98868528,4.85145405 8.03031964,4.84581081 C8.03522161,4.84581081 8.04256647,4.84482973 8.04991133,4.84384865 C8.05726428,4.84286757 8.06460914,4.84237297 8.06460914,4.84237297 C8.08909471,4.84335405 8.10379252,4.84777297 8.11113738,4.85489189 C8.11848224,4.86201081 8.12338421,4.87452973 8.12338421,4.89318649 C8.12338421,4.9224 8.10134154,4.95136216 8.05726428,4.97713784 L8.0548133,4.97861351 C8.0548133,4.97959459 8.05236231,4.98155676 8.04746844,4.98475135 C8.03031964,4.99432703 8.01807281,5.00316486 8.00827697,5.01028378 C7.97154457,5.04292703 7.92501633,5.11951622 7.87113514,5.2398 C7.86624127,5.25281351 7.8613393,5.26189459 7.85888832,5.26877027 C7.85643733,5.27245135 7.85644542,5.27637568 7.85399444,5.28202703 C7.85154345,5.28595135 7.84909247,5.29307027 7.84419859,5.30362703 L7.2270442,6.69156486 C7.22459321,6.69647027 7.22215032,6.70260811 7.21969934,6.70997027 C7.21479737,6.7166027 7.20990349,6.72715135 7.20500152,6.74065946 C7.16336716,6.83590541 7.13153673,6.89628649 7.11194504,6.92133243 C7.09235335,6.94637027 7.07031068,6.95863784 7.04826801,6.95863784 C7.0311273,6.95863784 7.01888047,6.95250811 7.00663365,6.93998108 C6.99438682,6.92746216 6.98213999,6.90218108 6.96745027,6.86438108 Z M9.32093634,4.83132973 L9.32093634,4.99334595 C9.27685099,4.97517568 9.22791222,4.9656 9.17153151,4.9656 C9.08829514,4.9656 9.03199532,4.98278919 9.00012445,5.01838378 C8.97076118,5.05397838 8.9560391,5.13154865 8.9560391,5.25133784 L8.9560391,5.54198919 C8.9560391,5.6148973 8.9731879,5.66423514 9.0099122,5.69295405 C9.04420979,5.72216757 9.10787065,5.73616216 9.19361463,5.73616216 C9.24012669,5.73616216 9.28178532,5.73222973 9.32093634,5.72511081 L9.32093634,5.8832027 C9.26706324,5.87362703 9.21076342,5.86847027 9.14710256,5.86847027 C9.05642426,5.86847027 9.00255116,5.87657027 8.98297565,5.89252703 C8.96582686,5.90824054 8.9560391,5.95242973 8.9560391,6.02484324 L8.9560391,6.5238973 C8.9560391,6.62798108 8.9731879,6.69548919 9.01233892,6.72518919 C9.04914412,6.75538378 9.12259273,6.77085405 9.22791222,6.77085405 C9.2597022,6.77085405 9.29157307,6.76888378 9.32093634,6.76495946 L9.32093634,6.90831892 C9.27927771,6.90979459 9.23769997,6.91126216 9.19604134,6.91126216 C9.12501944,6.91126216 9.03442204,6.90880541 8.92424912,6.90561892 C8.89723168,6.90414324 8.87765617,6.90218108 8.86786841,6.90218108 C8.86050737,6.90218108 8.85071961,6.90218108 8.84093186,6.9012 C8.78948547,6.89776216 8.75769549,6.89628649 8.7405467,6.89628649 C8.68665742,6.89628649 8.63277623,6.89776216 8.583797,6.90218108 C8.5323668,6.90561892 8.48093659,6.90979459 8.42706349,6.91691351 C8.41971863,6.91789459 8.41236568,6.91936216 8.40011885,6.91985676 C8.37563328,6.92231351 8.35849257,6.92329459 8.34869673,6.92329459 C8.33154793,6.92329459 8.31685821,6.91641892 8.30461138,6.90414324 C8.29236456,6.89211892 8.28747068,6.87714324 8.28747068,6.86142973 C8.28747068,6.84498649 8.29236456,6.83074865 8.3021604,6.8196973 C8.31195624,6.80815946 8.33399892,6.79417297 8.36583743,6.77895405 L8.37073131,6.7760027 C8.41726764,6.75292703 8.44665518,6.73108378 8.46379588,6.7085027 C8.48338757,6.68345676 8.4956344,6.65031892 8.50297926,6.61153784 C8.51277511,6.57226216 8.51767707,6.50131622 8.51767707,6.39821351 L8.51767707,5.31614595 C8.51767707,5.22703784 8.51032412,5.16076216 8.49808538,5.11755405 C8.48583855,5.0745973 8.46379588,5.04096486 8.43685933,5.01592703 C8.4074718,4.99334595 8.36583743,4.97665135 8.30950526,4.96461892 C8.30950526,4.96461892 8.30706237,4.96413243 8.30461138,4.96315135 L8.26052604,4.95407027 C8.25073019,4.9521 8.24338533,4.94449459 8.23358949,4.93393784 C8.22868752,4.9224 8.22379364,4.91135676 8.22379364,4.89858649 C8.22379364,4.88312432 8.2311385,4.86937297 8.24093435,4.85832973 C8.25318118,4.84581081 8.26787899,4.83967297 8.28256871,4.83967297 C8.28991357,4.83967297 8.29726652,4.83967297 8.3021604,4.83991622 C8.30706237,4.84041081 8.31440723,4.84139189 8.31930111,4.84237297 C8.38297814,4.84924865 8.44665518,4.85391081 8.51033221,4.85636757 C8.57155017,4.86004865 8.63767819,4.86102973 8.70379812,4.86102973 C8.74297341,4.86102973 8.78220533,4.86054324 8.82629067,4.85832973 C8.86786841,4.85538649 8.91688808,4.85096757 8.97076118,4.84581081 C8.98540237,4.84581081 9.0099122,4.84384865 9.03927547,4.84139189 C9.14459496,4.83427297 9.22297789,4.83083514 9.27685099,4.83083514 C9.29157307,4.83083514 9.30629515,4.83083514 9.32093634,4.83132973 M3.99189975,6.39821351 L3.99189975,5.31614595 C3.99189975,5.22703784 3.98455488,5.16076216 3.97230806,5.11755405 C3.96006123,5.07533514 3.94046954,5.04096486 3.911082,5.01592703 C3.89638419,5.00389459 3.87924349,4.99334595 3.86210278,4.98622703 C3.84251109,4.97812703 3.81556645,4.97051351 3.77883406,4.96315135 C3.77638307,4.96191892 3.77148919,4.96093784 3.76414433,4.96045135 C3.76169335,4.95897568 3.75189751,4.95701351 3.73719969,4.95407027 C3.72740385,4.9521 3.72005899,4.94449459 3.71026314,4.93393784 C3.70291828,4.9224 3.69801632,4.91110541 3.69801632,4.89858649 C3.69801632,4.87944324 3.70536118,4.86397297 3.72005899,4.85292973 C3.73474871,4.84188649 3.7543404,4.83672973 3.77883406,4.83672973 L3.80087673,4.83672973 C3.80577061,4.83771081 3.81312356,4.8381973 3.82046842,4.83967297 C3.8229194,4.84041081 3.8253623,4.84139189 3.82781328,4.84139189 C3.94292052,4.85243514 4.0531258,4.85832973 4.16088009,4.85832973 C4.27353635,4.85832973 4.3886355,4.85194865 4.50863662,4.83967297 C4.52088345,4.8381973 4.5282364,4.83771081 4.53313028,4.83672973 C4.54047514,4.83574865 4.54537711,4.83525405 4.55272197,4.83525405 C4.55762393,4.83427297 4.56251781,4.83377838 4.56986267,4.83377838 C4.59190535,4.83377838 4.61149704,4.83918649 4.62374386,4.85047297 C4.63844167,4.86102973 4.64333555,4.87502432 4.64333555,4.8927 C4.64333555,4.91871892 4.62129288,4.94081351 4.57721562,4.96045135 C4.57231366,4.96191892 4.56986267,4.96315135 4.56986267,4.96315135 C4.55027098,4.96757027 4.53558126,4.97321351 4.52333443,4.97861351 C4.5110876,4.98475135 4.50129176,4.99162703 4.4939469,4.99874595 C4.47190423,5.01985135 4.45476352,5.04514054 4.44741866,5.0745973 C4.43762281,5.10381081 4.43272085,5.15978108 4.43272085,5.24569459 L4.43272085,5.74868108 C4.43272085,5.76340541 4.43517183,5.77592432 4.44006571,5.78599459 C4.44741866,5.79605676 4.45231254,5.80097027 4.4596574,5.80097027 C4.46210838,5.80097027 4.46945324,5.79801892 4.47924909,5.79163784 C4.48904493,5.78697568 4.49884078,5.77887568 4.50863662,5.76880541 L5.03517743,5.28398919 C5.0939525,5.23023243 5.13803784,5.18481892 5.16252341,5.14872973 C5.18701707,5.11289189 5.1992639,5.07925946 5.1992639,5.04906486 C5.1992639,5.00488378 5.16987636,4.97665135 5.10865031,4.96461892 L5.10619933,4.96315135 L5.09885447,4.96315135 L5.0915096,4.96315135 C5.0915096,4.96315135 5.08905862,4.96241351 5.08660764,4.96191892 C5.0400794,4.94989459 5.01803672,4.92829459 5.01803672,4.89858649 C5.01803672,4.87846216 5.0229306,4.86397297 5.03272645,4.85636757 C5.04252229,4.84777297 5.05967109,4.84335405 5.08660764,4.84237297 C5.09885447,4.84237297 5.10865031,4.84237297 5.11844615,4.84286757 C5.128242,4.84335405 5.13803784,4.84433514 5.14783369,4.84581081 C5.15272757,4.84630541 5.16252341,4.84728649 5.17231926,4.84728649 C5.26783481,4.85243514 5.34865255,4.85538649 5.41967445,4.85538649 C5.50049219,4.85538649 5.58620381,4.85243514 5.6743745,4.84728649 L5.68171936,4.84581081 C5.68661324,4.84433514 5.69396619,4.84335405 5.69886007,4.84286757 C5.70376203,4.84237297 5.70865591,4.84237297 5.71600077,4.84237297 C5.74538831,4.84237297 5.76988196,4.84630541 5.77967781,4.85391081 C5.78947365,4.86152432 5.79681851,4.87502432 5.79681851,4.89564324 C5.79681851,4.91577568 5.79192463,4.93025676 5.78457977,4.93884324 C5.77967781,4.94743784 5.76008612,4.95553784 5.7282476,4.96461892 C5.72579662,4.9656 5.72090274,4.96757027 5.71355788,4.97051351 C5.68906422,4.98057568 5.66947253,4.98917027 5.6572257,4.99579459 C5.55926726,5.03998378 5.43436417,5.12958649 5.28497552,5.26385676 L5.27517967,5.27147027 L5.26783481,5.28104595 L4.99110017,5.52799459 C4.9715004,5.54345676 4.95926166,5.55573243 4.95190871,5.56506486 C4.94701483,5.57561351 4.94211286,5.58420811 4.94211286,5.5928027 C4.94211286,5.59844595 4.94456384,5.6063027 4.94946581,5.61587838 C4.95435969,5.62594054 4.96170455,5.64017838 4.97395138,5.66031081 L5.62294429,6.60883784 C5.65233183,6.64958108 5.67926838,6.68297027 5.70376203,6.70653243 C5.73069858,6.7301027 5.75763513,6.74826486 5.78702267,6.76225946 C5.79681851,6.76692162 5.80661436,6.77134054 5.82376315,6.77453514 L5.82620605,6.7760027 C5.84824872,6.78042162 5.86049555,6.78705405 5.86539751,6.79465946 C5.87029139,6.8034973 5.87274238,6.81871622 5.87274238,6.84130541 C5.87274238,6.86756757 5.86784041,6.88573784 5.85560167,6.89506216 C5.84335484,6.90414324 5.81886119,6.90831892 5.78457977,6.90831892 C5.76743098,6.90831892 5.75519224,6.90782432 5.74538831,6.90782432 C5.73559246,6.90684324 5.7282476,6.90635676 5.72090274,6.90586216 C5.69396619,6.90414324 5.66947253,6.90218108 5.64742986,6.9012 C5.62538719,6.90021892 5.6033526,6.89972432 5.58130993,6.89972432 C5.52253486,6.89972432 5.45885783,6.90218108 5.39028691,6.90831892 L5.38538495,6.90831892 C5.37804008,6.9093 5.37313812,6.90979459 5.36824424,6.91077568 C5.36334227,6.91126216 5.35844839,6.91126216 5.35354643,6.91126216 C5.32415889,6.91126216 5.29477136,6.89628649 5.26293284,6.86708108 C5.23110241,6.83688649 5.19191903,6.7845973 5.14293172,6.7085027 L4.64823752,5.95439189 C4.63844167,5.93892162 4.62864583,5.92837297 4.62129288,5.92223514 C4.61394802,5.91634054 4.60415217,5.91314595 4.59925021,5.91314595 C4.59190535,5.91314595 4.58456048,5.91437838 4.57965852,5.91634054 C4.57476464,5.9187973 4.56986267,5.92223514 4.56496879,5.92738378 L4.47435521,6.01182973 C4.4572145,6.02901892 4.44496767,6.0435 4.44006571,6.05454324 C4.43517183,6.06657568 4.43272085,6.08425135 4.43272085,6.10953243 L4.43272085,6.47971622 C4.43272085,6.55802432 4.44006571,6.61398649 4.45476352,6.64811351 C4.47190423,6.68149459 4.49884078,6.71267027 4.53558126,6.73918378 C4.55762393,6.75292703 4.59190535,6.76692162 4.63599069,6.77747838 L4.64333555,6.77895405 C4.68251893,6.78951081 4.70946357,6.79957297 4.72170231,6.81012973 C4.73394914,6.82117297 4.741294,6.83590541 4.741294,6.85504865 C4.741294,6.87444324 4.73394914,6.89015676 4.72170231,6.90365676 C4.70946357,6.91641892 4.69721674,6.92329459 4.68006795,6.92329459 C4.66047626,6.92329459 4.64333555,6.9228 4.62864583,6.92133243 C4.616399,6.92083784 4.60170119,6.91936216 4.58701147,6.91691351 C4.52578542,6.90831892 4.46701035,6.90218108 4.41312916,6.89776216 C4.35680507,6.8931 4.3004729,6.89162432 4.24414881,6.89162432 C4.19271861,6.89162432 4.13883742,6.8931 4.08496431,6.89727568 C4.03353411,6.90070541 3.97965292,6.90635676 3.92822271,6.9147 C3.90618004,6.91691351 3.88658835,6.91936216 3.86944764,6.92083784 C3.85230694,6.9228 3.83760912,6.92329459 3.8229194,6.92329459 C3.80577061,6.92329459 3.79353187,6.91641892 3.78128504,6.90414324 C3.76903821,6.89211892 3.76169335,6.87714324 3.76169335,6.86142973 C3.76169335,6.83418649 3.7886299,6.80767297 3.83760912,6.78091622 L3.84006011,6.77895405 C3.86455376,6.76986486 3.88414545,6.75931622 3.89883518,6.74826486 C3.91353299,6.73624054 3.92822271,6.72372162 3.93801856,6.7085027 C3.95761024,6.68444595 3.96985707,6.65228108 3.97965292,6.61398649 C3.98699778,6.57618649 3.99189975,6.50377297 3.99189975,6.39821351 M9.32093634,6.90831892 L9.32093634,6.76495946 C9.42382911,6.7521973 9.50463876,6.7166027 9.5658729,6.65768108 C9.64425584,6.58182973 9.68340686,6.4725973 9.68340686,6.33021892 C9.68340686,6.17875946 9.63932152,6.06313784 9.54872411,5.98531622 C9.48991668,5.93597838 9.41404135,5.90161622 9.32093634,5.8832027 L9.32093634,5.72511081 C9.37974376,5.71259189 9.42625583,5.69099189 9.46055342,5.65932162 C9.51685323,5.60850811 9.54629739,5.52799459 9.54629739,5.41924865 C9.54629739,5.28055135 9.5119998,5.17032973 9.44340462,5.08834054 C9.40910703,5.04514054 9.3674484,5.01396486 9.32093634,4.99334595 L9.32093634,4.83132973 C9.52664099,4.83672973 9.6907679,4.87944324 9.80587514,4.96093784 C9.93319686,5.0471027 9.994431,5.16886216 9.994431,5.32474054 C9.994431,5.44182973 9.96013341,5.53757027 9.89153823,5.61096486 C9.82051633,5.68436757 9.71527773,5.73664865 9.57323394,5.76880541 C9.77157755,5.77887568 9.91604806,5.82330811 10.0091531,5.90308378 C10.1046039,5.98360541 10.1511969,6.10241351 10.1511969,6.25976757 C10.1511969,6.48118378 10.0728139,6.64565676 9.91604806,6.7521973 C9.78136531,6.84449189 9.5830217,6.89628649 9.32093634,6.90831892" id="Shape" fill="#000000"></path>
                <path d="M5.0425142,2.60582432 C6.74458064,1.27877027 9.21319014,1.58733243 10.5380963,3.29340811 C11.8605758,4.99972703 11.5544051,7.47365676 9.84996049,8.8007027 C9.80094082,8.83945946 9.74949443,8.87659459 9.70055566,8.91194595 C11.2728251,7.5608027 11.5250418,5.18138108 10.2392867,3.52587568 C8.95361238,1.86987568 6.59029002,1.53038108 4.89802752,2.72610811 C4.94455576,2.68535676 4.99353498,2.6451 5.0425142,2.60582432 Z" id="Path" fill="#00854A"></path>
                <path d="M3.92332883,2.13301622 C5.7625371,0.698935946 8.31930919,0.810628378 10.001792,2.27539459 C8.46135299,1.08163784 6.23519672,1.03744865 4.61884999,2.29994595 C2.70372594,3.79195946 2.34616548,6.55752162 3.82046842,8.457 C5.29477945,10.3565676 8.05726428,10.6889189 9.96992116,9.19710811 C10.7168644,8.61510811 11.2263131,7.83842432 11.4834641,6.99618649 C11.2336741,8.01541622 10.6532036,8.9627027 9.76421651,9.65740541 C7.67521825,11.2847027 4.66293533,10.9218649 3.05393346,8.84951351 C1.44492997,6.77747027 1.83677346,3.7602973 3.92332883,2.13301622 Z" id="Path" fill="#00854A"></path>
                <path d="M0,6.91324054 L1.62369968,6.91324054 C2.08411248,9.34102703 4.21964707,11.1874865 6.77396818,11.1874865 C8.75518788,11.1874865 10.4866499,10.0742432 11.375637,8.43989189 L13,8.43989189 L13,12 L0,12 L0,6.91324054 Z" id="Path" fill="#00854A"></path>
            </g>
        </g>
    </g>
</svg>