<?xml version="1.0" encoding="UTF-8"?>
<svg width="48px" height="48px" viewBox="0 0 48 48" version="1.1" xmlns="http://www.w3.org/2000/svg" xmlns:xlink="http://www.w3.org/1999/xlink">
    <!-- Generator: Sketch 55.2 (78181) - https://sketchapp.com -->
    <title>kmb</title>
    <desc>Created with Sketch.</desc>
    <g id="kmb" stroke="none" stroke-width="1" fill="none" fill-rule="evenodd">
        <g id="Kotak_Mahindra_Group_logo" transform="translate(1.000000, 5.000000)">
            <g id="g81027" transform="translate(22.822617, 20.246956) scale(-1, 1) rotate(90.000000) translate(-22.822617, -20.246956) translate(2.685012, -2.575663)" fill="#003874">
                <path d="M20.1376049,0 C9.43111161,0 0.750461408,10.091625 0.750461408,22.5420349 C0.750461408,34.9911022 9.43111161,45.0827273 20.1376049,45.0827273 C30.8454406,45.0827273 39.5247483,34.9911022 39.5247483,22.5420349 C39.5247483,10.091625 30.8454406,0 20.1376049,0" id="path81029"></path>
            </g>
            <g id="g81031" transform="translate(21.818422, 20.511430) scale(-1, 1) rotate(90.000000) translate(-21.818422, -20.511430) translate(5.708338, 17.155162)" fill="#ED1C24">
                <polyline id="path81033" points="2.68501398 1.34250699 0.95452247 6.57962676 29.2653099 6.60513439 31.0347341 1.32371189 2.68501398 1.34250699"></polyline>
            </g>
            <g id="g81055" transform="translate(22.041278, 20.185201) scale(-1, 1) rotate(90.000000) translate(-22.041278, -20.185201) translate(10.629969, 2.732610)" fill="#FFFFFF">
                <path d="M13.4250699,34.9051818 C17.4754135,34.4138242 21.5660323,32.1423024 21.5740982,27.181739 C21.5794574,24.2859515 19.5965745,22.0238272 17.1706644,20.4571215 L14.3607973,20.4571215 C15.3341148,22.4171817 16.3785853,24.2497038 16.4108055,26.4728953 C16.4510807,29.2116096 15.3985552,31.6871925 13.4250699,32.7115253 L13.4250699,34.9051818 Z M15.9677781,18.3238779 C18.7105199,16.0483286 21.512332,13.8493021 21.512332,9.72914816 C21.512332,3.90938036 15.8858852,1.14918598 11.1817407,1.14918598 C6.66151969,1.14918598 1.31162933,3.30659472 1.31162933,8.97600174 C1.31162933,11.4354745 2.81523716,13.8023144 4.40610794,15.2132892 L8.24299292,15.2092617 C7.44957129,14.0305406 6.67091724,11.3898293 6.64272459,9.66605033 C6.58231178,6.07081661 8.14096239,2.90115761 11.6892084,2.95620039 C14.1325711,2.99379059 15.7932522,5.41433069 15.7932522,7.82278823 C15.7932522,11.5119974 12.4235597,13.7459291 9.86608387,15.6133563 C9.19751539,16.1355915 7.23342767,17.6042942 6.91793852,17.8338629 C4.01946593,19.9080362 1.37338465,22.3084387 1.37338465,26.4285926 C1.37338465,31.2817554 5.28545002,34.0070446 9.31297099,34.7776436 L9.31297099,32.5893572 C8.00671169,31.7086726 7.20792003,30.0130863 7.20792003,28.3430076 C7.20792003,24.5302877 10.7158908,22.2507109 13.2988742,20.3443509 C13.2988742,20.3443509 15.3206898,18.8608807 15.9677781,18.3238779 L15.9677781,18.3238779 Z" id="path81057"></path>
            </g>
        </g>
    </g>
</svg>