<svg width="54" height="54" viewBox="0 0 54 54" fill="none" xmlns="http://www.w3.org/2000/svg">
<path d="M16.6875 3.68799C16.6875 3.41185 16.9114 3.18799 17.1875 3.18799H36.8125C37.0886 3.18799 37.3125 3.41185 37.3125 3.68799V16.563C37.3125 16.8391 37.0886 17.063 36.8125 17.063H31.968C30.3366 17.063 28.9216 18.19 28.5567 19.7801L27.8101 23.0328C27.7749 23.1863 27.7093 23.2654 27.6483 23.3139C27.5771 23.3703 27.4743 23.4127 27.3529 23.42C27.2316 23.4274 27.1244 23.3976 27.047 23.3501C26.9805 23.3094 26.9059 23.2388 26.8525 23.0906L25.5126 19.3756C25.0122 17.9879 23.6954 17.063 22.2202 17.063H17.1875C16.9114 17.063 16.6875 16.8391 16.6875 16.563V3.68799Z" fill="white" stroke="#D90368" stroke-width="3"/>
<circle cx="13.9219" cy="27.4224" r="4.82812" stroke="#D90368" stroke-width="3"/>
<path d="M4.875 45.9849C4.875 40.9884 8.92542 36.938 13.9219 36.938C18.9183 36.938 22.9688 40.9884 22.9688 45.9849V50.813H4.875V45.9849Z" fill="white" stroke="#D90368" stroke-width="3"/>
<circle cx="39.2344" cy="27.4224" r="4.82812" stroke="#D90368" stroke-width="3"/>
<path d="M30.1875 45.9849C30.1875 40.9884 34.2379 36.938 39.2344 36.938C44.2308 36.938 48.2812 40.9884 48.2812 45.9849V50.813H30.1875V45.9849Z" fill="white" stroke="#D90368" stroke-width="3"/>
</svg>
