<svg width="54" height="54" viewBox="0 0 54 54" fill="none" xmlns="http://www.w3.org/2000/svg">
<path d="M27 33.7505C31.6599 33.7505 35.4375 29.9729 35.4375 25.313C35.4375 20.6531 31.6599 16.8755 27 16.8755C22.3401 16.8755 18.5625 20.6531 18.5625 25.313C18.5625 29.9729 22.3401 33.7505 27 33.7505Z" stroke="#D90368" stroke-width="3" stroke-miterlimit="10"/>
<path d="M13.4578 42.0616C14.7274 39.5608 16.6648 37.4604 19.0551 35.9932C21.4454 34.526 24.1953 33.7494 27 33.7494C29.8046 33.7494 32.5545 34.526 34.9448 35.9932C37.3351 37.4604 39.2725 39.5608 40.5421 42.0616" stroke="#D90368" stroke-width="3" stroke-linecap="round" stroke-linejoin="round"/>
<path d="M42.1875 11.1099V5.90674" stroke="#D90368" stroke-width="3" stroke-linecap="round" stroke-linejoin="round"/>
<path d="M41.3437 11.1099L37.0828 8.85986" stroke="#D90368" stroke-width="3" stroke-linecap="round" stroke-linejoin="round"/>
<path d="M40.7812 12.6567L37.125 14.9067" stroke="#D90368" stroke-width="3" stroke-linecap="round" stroke-linejoin="round"/>
<path d="M42.1875 13.2192V17.7192" stroke="#D90368" stroke-width="3" stroke-linecap="round" stroke-linejoin="round"/>
<path d="M45.1196 13.5005L47.2923 14.7661" stroke="#D90368" stroke-width="3" stroke-linecap="round" stroke-linejoin="round"/>
<path d="M42.75 11.5317L47.2922 8.85986" stroke="#D90368" stroke-width="3" stroke-linecap="round" stroke-linejoin="round"/>
<path d="M47.1024 24.5747C47.2047 25.3792 47.254 26.1895 47.25 27.0005C47.25 31.0056 46.0624 34.9207 43.8373 38.2508C41.6122 41.5809 38.4496 44.1764 34.7494 45.709C31.0491 47.2417 26.9775 47.6427 23.0494 46.8614C19.1213 46.08 15.5131 44.1514 12.6811 41.3194C9.84908 38.4874 7.92046 34.8792 7.13911 30.9511C6.35776 27.023 6.75877 22.9514 8.29145 19.2511C9.82412 15.5509 12.4196 12.3883 15.7497 10.1632C19.0798 7.93813 22.9949 6.75049 27 6.75049C27.6268 6.74653 28.2534 6.77469 28.8774 6.83486" stroke="#D90368" stroke-width="3" stroke-linecap="round" stroke-linejoin="round"/>
</svg>
