<svg width="166" height="17" viewBox="0 0 166 17" fill="none" xmlns="http://www.w3.org/2000/svg">
<path d="M0 8.82628C0 7.23884 0.331605 5.82695 0.994814 4.59058C1.65802 3.33895 2.57915 2.36971 3.75818 1.68284C4.95197 0.980705 6.30049 0.629639 7.80377 0.629639C9.64601 0.629639 11.223 1.13334 12.5347 2.14074C13.8464 3.14815 14.7232 4.5219 15.1654 6.26197H11.0093C10.6998 5.59036 10.2576 5.07902 9.68286 4.72796C9.12281 4.37689 8.48171 4.20136 7.75955 4.20136C6.59525 4.20136 5.65201 4.62111 4.92986 5.46062C4.2077 6.30013 3.84662 7.42201 3.84662 8.82628C3.84662 10.2305 4.2077 11.3524 4.92986 12.1919C5.65201 13.0314 6.59525 13.4512 7.75955 13.4512C8.48171 13.4512 9.12281 13.2756 9.68286 12.9246C10.2576 12.5735 10.6998 12.0622 11.0093 11.3906H15.1654C14.7232 13.1307 13.8464 14.5043 12.5347 15.5118C11.223 16.5039 9.64601 17 7.80377 17C6.30049 17 4.95197 16.6566 3.75818 15.9697C2.57915 15.2676 1.65802 14.2983 0.994814 13.062C0.331605 11.8256 0 10.4137 0 8.82628Z" fill="url(#paint0_linear_45_4415)"/>
<path fill-rule="evenodd" clip-rule="evenodd" d="M22.26 10.4284L25.4747 16.3704H29.7243L26.1572 10.1369C27.2875 9.79305 28.1389 9.21007 28.7114 8.3879C29.2985 7.56573 29.5922 6.63145 29.5922 5.58506C29.5922 4.65825 29.3793 3.82114 28.9536 3.07372C28.5279 2.31135 27.8821 1.7134 27.0159 1.2799C26.1645 0.846391 25.1297 0.629639 23.9113 0.629639H17.5919V16.3704H21.3571V10.4284H22.26ZM23.6911 7.71522H21.3571V3.81367H23.6911C24.3811 3.81367 24.8948 3.98557 25.2325 4.32938C25.5848 4.67321 25.7609 5.14408 25.7609 5.74201C25.7609 6.36985 25.5848 6.85568 25.2325 7.19949C24.8948 7.54331 24.3811 7.71522 23.6911 7.71522Z" fill="url(#paint1_linear_45_4415)"/>
<path fill-rule="evenodd" clip-rule="evenodd" d="M54.4647 1.61624C53.2412 0.958504 51.8113 0.629639 50.1752 0.629639H44.3599V16.3704H50.1752C51.7966 16.3704 53.2191 16.0415 54.4426 15.3838C55.6808 14.726 56.6315 13.7993 57.295 12.6034C57.973 11.4075 58.3121 10.0397 58.3121 8.50001C58.3121 6.94536 57.973 5.57758 57.295 4.39665C56.6315 3.20078 55.6881 2.27397 54.4647 1.61624ZM53.2706 11.8634C52.4747 12.6556 51.3618 13.0518 49.9318 13.0518H48.1409V3.90335H49.9318C51.3618 3.90335 52.4747 4.30696 53.2706 5.11417C54.0667 5.9214 54.4647 7.05 54.4647 8.50001C54.4647 9.95002 54.0667 11.0711 53.2706 11.8634Z" fill="url(#paint2_linear_45_4415)"/>
<path d="M64.3782 0.629639V16.3704H60.7385V0.629639H64.3782Z" fill="url(#paint3_linear_45_4415)"/>
<path d="M78.3305 0.629639V3.70156H74.1746V16.3704H70.354V3.70156H66.1981V0.629639H78.3305Z" fill="url(#paint4_linear_45_4415)"/>
<path d="M85.3198 8.19661C85.3198 6.60918 85.6514 5.19728 86.3146 3.96093C86.9778 2.70931 87.8989 1.74006 89.078 1.05319C90.2718 0.351065 91.6204 0 93.1236 0C94.9659 0 96.5429 0.503702 97.8546 1.5111C99.1662 2.51851 100.043 3.89224 100.485 5.63231H96.3292C96.0197 4.96069 95.5775 4.44937 95.0028 4.0983C94.4427 3.74724 93.8016 3.5717 93.0794 3.5717C91.9151 3.5717 90.9718 3.99145 90.2497 4.83095C89.5276 5.67046 89.1665 6.79234 89.1665 8.19661C89.1665 9.60086 89.5276 10.7227 90.2497 11.5622C90.9718 12.4018 91.9151 12.8216 93.0794 12.8216C93.8016 12.8216 94.4427 12.646 95.0028 12.2949C95.5775 11.9438 96.0197 11.4325 96.3292 10.7609H100.485C100.043 12.501 99.1662 13.8747 97.8546 14.8821C96.5429 15.8743 94.9659 16.3704 93.1236 16.3704C91.6204 16.3704 90.2718 16.0268 89.078 15.34C87.8989 14.6378 86.9778 13.6687 86.3146 12.4323C85.6514 11.1959 85.3198 9.78402 85.3198 8.19661Z" fill="url(#paint5_linear_45_4415)"/>
<path fill-rule="evenodd" clip-rule="evenodd" d="M105.62 15.3229C106.832 16.0212 108.161 16.3704 109.606 16.3704C111.052 16.3704 112.374 16.0212 113.571 15.3229C114.769 14.6247 115.718 13.6533 116.419 12.4086C117.12 11.1488 117.471 9.73719 117.471 8.17378C117.471 6.61036 117.12 5.20632 116.419 3.96166C115.733 2.717 114.783 1.74557 113.571 1.04734C112.374 0.349112 111.052 0 109.606 0C108.161 0 106.832 0.349112 105.62 1.04734C104.422 1.74557 103.466 2.717 102.75 3.96166C102.049 5.20632 101.698 6.61036 101.698 8.17378C101.698 9.73719 102.049 11.1488 102.75 12.4086C103.466 13.6533 104.422 14.6247 105.62 15.3229ZM112.542 11.5435C111.812 12.3935 110.833 12.8185 109.606 12.8185C108.365 12.8185 107.372 12.4011 106.627 11.5662C105.897 10.7162 105.532 9.58539 105.532 8.17378C105.532 6.74697 105.897 5.61615 106.627 4.78131C107.372 3.94648 108.365 3.52907 109.606 3.52907C110.833 3.52907 111.812 3.95408 112.542 4.80408C113.287 5.63891 113.659 6.76215 113.659 8.17378C113.659 9.57022 113.287 10.6934 112.542 11.5435Z" fill="url(#paint6_linear_45_4415)"/>
<path fill-rule="evenodd" clip-rule="evenodd" d="M122.529 16.3704L123.432 13.59L126.246 4.86755L129.059 13.59L129.961 16.3704H133.849L128.394 0.629639H124.14L118.684 16.3704H122.529Z" fill="url(#paint7_linear_45_4415)"/>
<path d="M135.062 8.19661C135.062 6.60918 135.393 5.19728 136.057 3.96093C136.72 2.70931 137.642 1.74006 138.821 1.05319C140.014 0.351065 141.362 0 142.866 0C144.709 0 146.285 0.503702 147.597 1.5111C148.909 2.51851 149.786 3.89224 150.228 5.63231H146.072C145.761 4.96069 145.319 4.44937 144.745 4.0983C144.185 3.74724 143.544 3.5717 142.822 3.5717C141.658 3.5717 140.714 3.99145 139.992 4.83095C139.27 5.67046 138.909 6.79234 138.909 8.19661C138.909 9.60086 139.27 10.7227 139.992 11.5622C140.714 12.4018 141.658 12.8216 142.822 12.8216C143.544 12.8216 144.185 12.646 144.745 12.2949C145.319 11.9438 145.761 11.4325 146.072 10.7609H150.228C149.786 12.501 148.909 13.8747 147.597 14.8821C146.285 15.8743 144.709 16.3704 142.866 16.3704C141.362 16.3704 140.014 16.0268 138.821 15.34C137.642 14.6378 136.72 13.6687 136.057 12.4323C135.393 11.1959 135.062 9.78402 135.062 8.19661Z" fill="url(#paint8_linear_45_4415)"/>
<path d="M166 0.629639V16.3704H162.247V9.89026H156.408V16.3704H152.654V0.629639H156.408V6.79591H162.247V0.629639H166Z" fill="url(#paint9_linear_45_4415)"/>
<path fill-rule="evenodd" clip-rule="evenodd" d="M31.5441 0.629639H42.5441V3.65656H31.5441V0.629639ZM31.5441 6.68349H42.5441V9.71041H31.5441V6.68349ZM42.5441 13.3427H31.5441V16.3696H42.5441V13.3427Z" fill="#940DC7"/>
<defs>
<linearGradient id="paint0_linear_45_4415" x1="-9.82921" y1="48.2284" x2="73.0809" y2="61.6369" gradientUnits="userSpaceOnUse">
<stop stop-color="#4B0687"/>
<stop offset="1" stop-color="#D212FE"/>
</linearGradient>
<linearGradient id="paint1_linear_45_4415" x1="-8.3028" y1="56.7702" x2="74.6025" y2="65.8961" gradientUnits="userSpaceOnUse">
<stop stop-color="#4B0687"/>
<stop offset="1" stop-color="#D212FE"/>
</linearGradient>
<linearGradient id="paint2_linear_45_4415" x1="-8.88658" y1="50.0072" x2="74.1555" y2="62.0455" gradientUnits="userSpaceOnUse">
<stop stop-color="#4B0687"/>
<stop offset="1" stop-color="#D212FE"/>
</linearGradient>
<linearGradient id="paint3_linear_45_4415" x1="-1.24381" y1="175.316" x2="78.3961" y2="176.132" gradientUnits="userSpaceOnUse">
<stop stop-color="#4B0687"/>
<stop offset="1" stop-color="#D212FE"/>
</linearGradient>
<linearGradient id="paint4_linear_45_4415" x1="-8.6297" y1="57.5566" x2="75.4784" y2="66.6805" gradientUnits="userSpaceOnUse">
<stop stop-color="#4B0687"/>
<stop offset="1" stop-color="#D212FE"/>
</linearGradient>
<linearGradient id="paint5_linear_45_4415" x1="79.4738" y1="20.5354" x2="140.165" y2="50.5284" gradientUnits="userSpaceOnUse">
<stop stop-color="#54078F"/>
<stop offset="1" stop-color="#C311F1"/>
</linearGradient>
<linearGradient id="paint6_linear_45_4415" x1="78.5404" y1="19.145" x2="137.796" y2="50.9314" gradientUnits="userSpaceOnUse">
<stop stop-color="#54078F"/>
<stop offset="1" stop-color="#C311F1"/>
</linearGradient>
<linearGradient id="paint7_linear_45_4415" x1="79.384" y1="19.1332" x2="137.499" y2="50.441" gradientUnits="userSpaceOnUse">
<stop stop-color="#54078F"/>
<stop offset="1" stop-color="#C311F1"/>
</linearGradient>
<linearGradient id="paint8_linear_45_4415" x1="78.698" y1="20.5354" x2="139.39" y2="50.5284" gradientUnits="userSpaceOnUse">
<stop stop-color="#54078F"/>
<stop offset="1" stop-color="#C311F1"/>
</linearGradient>
<linearGradient id="paint9_linear_45_4415" x1="80.8484" y1="23.9107" x2="142.479" y2="49.0729" gradientUnits="userSpaceOnUse">
<stop stop-color="#54078F"/>
<stop offset="1" stop-color="#C311F1"/>
</linearGradient>
</defs>
</svg>
