<svg width="168" height="396" viewBox="0 0 168 396" fill="none" xmlns="http://www.w3.org/2000/svg">
<circle cx="261.886" cy="192.63" r="191.682" fill="#E1E1FF" fill-opacity="0.47"/>
<path d="M1.39976 297.207C0.83084 297.362 0.495191 297.949 0.650063 298.517C0.804935 299.086 1.39168 299.422 1.9606 299.267L1.39976 297.207ZM205.058 394.321L204.993 395.387L205.058 394.321ZM453.105 249.127L453.307 248.079L453.105 249.127ZM826.283 222.725L826.404 223.786L826.283 222.725ZM1077.23 350.016L1077.37 351.073L1077.23 350.016ZM1296.68 211.228L1296.91 210.186L1296.68 211.228ZM9.01515 297.638C9.59452 297.528 9.97547 296.97 9.86601 296.391C9.75656 295.811 9.19816 295.43 8.61879 295.54L9.01515 297.638ZM23.3354 294.088C22.7458 294.091 22.2704 294.572 22.2736 295.161C22.2768 295.751 22.7574 296.226 23.347 296.223L23.3354 294.088ZM37.6551 297.555C38.2339 297.668 38.7941 297.289 38.9063 296.71C39.0185 296.132 38.6402 295.571 38.0613 295.459L37.6551 297.555ZM52.2528 299.623C51.7041 299.407 51.0844 299.677 50.8686 300.225C50.6528 300.774 50.9227 301.394 51.4714 301.61L52.2528 299.623ZM64.4634 307.909C64.9748 308.203 65.6273 308.026 65.9208 307.515C66.2144 307.003 66.0378 306.351 65.5265 306.057L64.4634 307.909ZM77.8629 314.08C77.3848 313.735 76.7175 313.843 76.3724 314.321C76.0272 314.799 76.135 315.466 76.6131 315.811L77.8629 314.08ZM88.0883 324.742C88.5425 325.118 89.2155 325.055 89.5915 324.601C89.9676 324.147 89.9043 323.474 89.4501 323.098L88.0883 324.742ZM100.548 332.665C100.107 332.273 99.4324 332.313 99.0407 332.754C98.6491 333.194 98.6888 333.869 99.1296 334.261L100.548 332.665ZM109.988 344.032C110.426 344.427 111.101 344.393 111.496 343.955C111.891 343.518 111.857 342.843 111.42 342.447L109.988 344.032ZM122.311 352.168C121.868 351.78 121.193 351.825 120.805 352.269C120.417 352.713 120.462 353.387 120.906 353.776L122.311 352.168ZM132.109 363.226C132.568 363.596 133.241 363.524 133.611 363.065C133.981 362.606 133.909 361.934 133.45 361.564L132.109 363.226ZM145.039 370.35C144.557 370.01 143.891 370.125 143.551 370.607C143.211 371.089 143.326 371.755 143.808 372.095L145.039 370.35ZM156.173 380.049C156.684 380.344 157.337 380.17 157.632 379.66C157.927 379.149 157.753 378.496 157.243 378.201L156.173 380.049ZM170.157 384.749C169.616 384.514 168.987 384.762 168.752 385.303C168.517 385.843 168.765 386.472 169.306 386.707L170.157 384.749ZM183.182 391.683C183.749 391.844 184.339 391.514 184.5 390.947C184.661 390.379 184.331 389.789 183.764 389.629L183.182 391.683ZM197.914 392.56C197.33 392.482 196.793 392.893 196.715 393.478C196.638 394.062 197.049 394.599 197.633 394.677L197.914 392.56ZM212.036 395.614C212.626 395.617 213.106 395.14 213.108 394.551C213.11 393.961 212.634 393.481 212.044 393.479L212.036 395.614ZM225.64 392.7C225.054 392.771 224.637 393.303 224.708 393.888C224.779 394.474 225.311 394.891 225.896 394.82L225.64 392.7ZM239.614 392.216C240.185 392.066 240.526 391.483 240.376 390.913C240.227 390.342 239.644 390.001 239.073 390.15L239.614 392.216ZM252.003 385.79C251.459 386.016 251.201 386.641 251.427 387.185C251.653 387.73 252.278 387.988 252.822 387.761L252.003 385.79ZM265.307 381.579C265.818 381.284 265.993 380.631 265.698 380.121C265.403 379.61 264.75 379.435 264.24 379.73L265.307 381.579ZM275.672 372.213C275.198 372.563 275.098 373.232 275.448 373.706C275.799 374.18 276.467 374.281 276.941 373.93L275.672 372.213ZM287.716 365.14C288.156 364.748 288.194 364.073 287.801 363.633C287.409 363.193 286.734 363.154 286.294 363.547L287.716 365.14ZM296.193 354.029C295.782 354.451 295.791 355.127 296.214 355.538C296.637 355.949 297.313 355.94 297.724 355.517L296.193 354.029ZM307.12 345.312C307.508 344.869 307.464 344.195 307.021 343.806C306.578 343.417 305.904 343.461 305.515 343.904L307.12 345.312ZM314.415 333.388C314.04 333.844 314.107 334.517 314.562 334.891C315.018 335.265 315.691 335.199 316.065 334.743L314.415 333.388ZM324.742 323.97C325.109 323.509 325.032 322.837 324.57 322.47C324.109 322.103 323.437 322.18 323.07 322.642L324.742 323.97ZM331.656 311.813C331.289 312.274 331.365 312.946 331.827 313.313C332.288 313.68 332.96 313.604 333.327 313.142L331.656 311.813ZM341.99 302.412C342.365 301.957 342.3 301.284 341.845 300.909C341.39 300.534 340.718 300.599 340.343 301.054L341.99 302.412ZM349.332 290.504C348.941 290.945 348.982 291.62 349.423 292.011C349.864 292.402 350.539 292.361 350.93 291.92L349.332 290.504ZM360.317 281.881C360.733 281.463 360.731 280.787 360.313 280.372C359.894 279.956 359.218 279.958 358.803 280.376L360.317 281.881ZM368.977 270.9C368.528 271.283 368.475 271.956 368.858 272.405C369.241 272.853 369.915 272.906 370.363 272.523L368.977 270.9ZM381.212 264.189C381.699 263.857 381.825 263.193 381.492 262.706C381.16 262.219 380.496 262.093 380.009 262.425L381.212 264.189ZM392.023 255.345C391.495 255.608 391.281 256.249 391.544 256.776C391.807 257.304 392.448 257.518 392.976 257.255L392.023 255.345ZM405.604 252.122C406.166 251.943 406.477 251.343 406.298 250.781C406.12 250.219 405.52 249.908 404.958 250.087L405.604 252.122ZM418.543 246.951C417.96 247.037 417.557 247.58 417.643 248.163C417.73 248.747 418.272 249.15 418.856 249.063L418.543 246.951ZM432.493 248.104C433.082 248.106 433.562 247.63 433.564 247.041C433.566 246.451 433.09 245.971 432.5 245.969L432.493 248.104ZM446.337 246.941C445.753 246.862 445.216 247.273 445.138 247.857C445.06 248.442 445.47 248.979 446.055 249.057L446.337 246.941ZM460.111 251.717C460.685 251.852 461.26 251.496 461.396 250.922C461.531 250.348 461.175 249.774 460.601 249.638L460.111 251.717ZM474.908 253.686C474.348 253.499 473.744 253.802 473.557 254.361C473.371 254.921 473.674 255.525 474.233 255.712L474.908 253.686ZM487.89 261.002C488.429 261.241 489.06 260.999 489.299 260.46C489.539 259.921 489.297 259.29 488.758 259.051L487.89 261.002ZM502.014 265.763C501.502 265.471 500.85 265.649 500.557 266.161C500.265 266.673 500.443 267.325 500.955 267.617L502.014 265.763ZM513.314 275.491C513.796 275.831 514.462 275.716 514.802 275.234C515.141 274.752 515.026 274.086 514.545 273.746L513.314 275.491ZM526.296 282.814C525.844 282.435 525.171 282.495 524.792 282.947C524.414 283.399 524.473 284.072 524.925 284.451L526.296 282.814ZM535.868 294.245C536.296 294.65 536.971 294.632 537.377 294.204C537.783 293.776 537.765 293.101 537.337 292.695L535.868 294.245ZM547.887 303.086C547.473 302.667 546.797 302.663 546.377 303.077C545.958 303.491 545.954 304.167 546.368 304.587L547.887 303.086ZM556.73 315.104C557.146 315.522 557.822 315.523 558.24 315.107C558.658 314.691 558.659 314.015 558.243 313.597L556.73 315.104ZM568.84 323.804C568.403 323.407 567.728 323.44 567.332 323.876C566.935 324.313 566.968 324.988 567.404 325.384L568.84 323.804ZM578.87 334.841C579.346 335.19 580.014 335.087 580.362 334.611C580.711 334.135 580.608 333.467 580.132 333.119L578.87 334.841ZM592.514 340.805C591.988 340.538 591.346 340.747 591.079 341.273C590.811 341.798 591.021 342.441 591.547 342.708L592.514 340.805ZM605.454 348.154C606.021 348.314 606.611 347.983 606.77 347.415C606.93 346.847 606.599 346.258 606.031 346.099L605.454 348.154ZM620.352 348.65C619.764 348.601 619.248 349.038 619.199 349.625C619.15 350.213 619.587 350.729 620.175 350.778L620.352 348.65ZM634.52 350.87C635.109 350.833 635.556 350.326 635.518 349.737C635.481 349.149 634.974 348.702 634.386 348.739L634.52 350.87ZM647.651 347.005C647.073 347.122 646.699 347.685 646.816 348.263C646.932 348.841 647.495 349.215 648.073 349.098L647.651 347.005ZM661.231 345.446C661.786 345.248 662.076 344.637 661.878 344.081C661.68 343.526 661.069 343.236 660.514 343.435L661.231 345.446ZM672.757 338.074C672.234 338.347 672.031 338.992 672.304 339.515C672.577 340.038 673.221 340.24 673.744 339.968L672.757 338.074ZM685.433 332.91C685.919 332.576 686.042 331.912 685.708 331.426C685.374 330.94 684.709 330.817 684.223 331.151L685.433 332.91ZM694.882 322.998C694.431 323.377 694.373 324.051 694.753 324.502C695.132 324.953 695.806 325.011 696.257 324.631L694.882 322.998ZM706.322 315.479C706.744 315.068 706.753 314.392 706.342 313.969C705.931 313.547 705.255 313.538 704.832 313.949L706.322 315.479ZM714.242 304.297C713.839 304.728 713.863 305.404 714.294 305.806C714.726 306.208 715.401 306.184 715.803 305.753L714.242 304.297ZM724.902 295.695C725.293 295.254 725.251 294.579 724.809 294.188C724.368 293.798 723.693 293.839 723.302 294.281L724.902 295.695ZM732.215 284.106C731.827 284.55 731.872 285.225 732.316 285.613C732.76 286.001 733.435 285.955 733.823 285.511L732.215 284.106ZM742.772 275.38C743.166 274.942 743.13 274.267 742.692 273.873C742.253 273.478 741.578 273.514 741.184 273.953L742.772 275.38ZM750.412 264.004C750.003 264.429 750.016 265.104 750.44 265.514C750.865 265.923 751.541 265.91 751.95 265.486L750.412 264.004ZM761.548 256.035C761.98 255.634 762.005 254.959 761.604 254.526C761.203 254.094 760.528 254.069 760.096 254.47L761.548 256.035ZM770.416 245.597C769.953 245.962 769.875 246.634 770.24 247.096C770.606 247.559 771.277 247.638 771.74 247.272L770.416 245.597ZM782.662 239.479C783.159 239.162 783.306 238.503 782.989 238.005C782.672 237.508 782.012 237.361 781.515 237.678L782.662 239.479ZM793.44 231.042C792.908 231.297 792.682 231.934 792.937 232.466C793.191 232.998 793.828 233.223 794.36 232.969L793.44 231.042ZM806.774 228.012C807.335 227.83 807.643 227.228 807.461 226.667C807.28 226.106 806.678 225.799 806.117 225.98L806.774 228.012ZM819.375 222.661C818.795 222.766 818.409 223.321 818.514 223.902C818.619 224.482 819.174 224.867 819.754 224.763L819.375 222.661ZM833.079 223.211C833.668 223.177 834.117 222.673 834.084 222.084C834.05 221.496 833.545 221.046 832.957 221.079L833.079 223.211ZM846.399 221.119C845.811 221.081 845.302 221.527 845.264 222.115C845.225 222.703 845.671 223.212 846.259 223.25L846.399 221.119ZM859.404 224.995C859.982 225.112 860.545 224.738 860.662 224.16C860.779 223.582 860.405 223.019 859.827 222.902L859.404 224.995ZM872.84 226.467C872.283 226.273 871.675 226.568 871.481 227.125C871.287 227.682 871.582 228.29 872.139 228.484L872.84 226.467ZM884.336 233.625C884.864 233.887 885.505 233.672 885.767 233.144C886.029 232.616 885.814 231.975 885.286 231.713L884.336 233.625ZM897.011 238.38C896.515 238.061 895.854 238.206 895.536 238.702C895.218 239.199 895.363 239.859 895.859 240.177L897.011 238.38ZM906.698 247.842C907.164 248.203 907.835 248.117 908.195 247.65C908.555 247.183 908.469 246.513 908.003 246.153L906.698 247.842ZM918.359 254.747C917.918 254.356 917.243 254.397 916.852 254.839C916.462 255.281 916.503 255.955 916.945 256.346L918.359 254.747ZM926.701 265.417C927.123 265.827 927.799 265.817 928.21 265.394C928.621 264.971 928.611 264.295 928.188 263.885L926.701 265.417ZM937.667 273.381C937.256 272.958 936.58 272.949 936.157 273.36C935.735 273.771 935.725 274.447 936.137 274.87L937.667 273.381ZM945.39 284.515C945.796 284.943 946.472 284.96 946.899 284.553C947.326 284.147 947.343 283.471 946.937 283.044L945.39 284.515ZM956.164 292.729C955.756 292.304 955.08 292.29 954.655 292.698C954.229 293.106 954.215 293.782 954.624 294.208L956.164 292.729ZM963.993 303.796C964.41 304.213 965.086 304.213 965.503 303.796C965.92 303.379 965.919 302.703 965.502 302.286L963.993 303.796ZM975.098 311.55C974.666 311.149 973.991 311.175 973.59 311.607C973.189 312.04 973.215 312.715 973.647 313.116L975.098 311.55ZM983.742 321.989C984.197 322.365 984.87 322.302 985.246 321.848C985.622 321.394 985.558 320.721 985.104 320.345L983.742 321.989ZM995.644 328.448C995.162 328.107 994.496 328.221 994.155 328.702C993.815 329.183 993.929 329.85 994.41 330.19L995.644 328.448ZM1005.75 337.461C1006.27 337.754 1006.92 337.577 1007.21 337.066C1007.5 336.554 1007.33 335.902 1006.82 335.609L1005.75 337.461ZM1018.66 341.555C1018.12 341.322 1017.49 341.571 1017.25 342.113C1017.02 342.654 1017.27 343.282 1017.81 343.516L1018.66 341.555ZM1030.51 348.084C1031.07 348.249 1031.66 347.922 1031.83 347.356C1031.99 346.79 1031.67 346.198 1031.1 346.034L1030.51 348.084ZM1044.02 348.885C1043.43 348.796 1042.89 349.195 1042.8 349.778C1042.71 350.361 1043.11 350.906 1043.69 350.996L1044.02 348.885ZM1057.15 352.207C1057.74 352.224 1058.23 351.76 1058.25 351.17C1058.27 350.581 1057.8 350.09 1057.21 350.073L1057.15 352.207ZM1070.41 349.693C1069.82 349.742 1069.39 350.258 1069.44 350.846C1069.49 351.433 1070 351.87 1070.59 351.82L1070.41 349.693ZM1084.2 349.934C1084.78 349.819 1085.15 349.257 1085.04 348.678C1084.92 348.1 1084.36 347.724 1083.78 347.839L1084.2 349.934ZM1096.81 344.396C1096.25 344.582 1095.95 345.186 1096.13 345.746C1096.32 346.305 1096.92 346.608 1097.48 346.422L1096.81 344.396ZM1110.24 341.268C1110.77 341.014 1111 340.377 1110.74 339.845C1110.49 339.313 1109.85 339.087 1109.32 339.341L1110.24 341.268ZM1121.14 332.824C1120.64 333.138 1120.49 333.797 1120.8 334.296C1121.12 334.796 1121.78 334.947 1122.27 334.633L1121.14 332.824ZM1133.52 326.748C1133.98 326.386 1134.07 325.716 1133.71 325.25C1133.35 324.784 1132.68 324.7 1132.21 325.061L1133.52 326.748ZM1142.54 316.312C1142.11 316.71 1142.08 317.385 1142.48 317.82C1142.88 318.255 1143.55 318.284 1143.99 317.886L1142.54 316.312ZM1153.78 308.298C1154.18 307.873 1154.17 307.197 1153.75 306.788C1153.32 306.38 1152.64 306.393 1152.24 306.818L1153.78 308.298ZM1161.41 296.798C1161.02 297.241 1161.06 297.916 1161.51 298.304C1161.95 298.693 1162.63 298.649 1163.01 298.206L1161.41 296.798ZM1171.86 287.79C1172.24 287.336 1172.17 286.663 1171.72 286.287C1171.26 285.911 1170.59 285.975 1170.21 286.429L1171.86 287.79ZM1178.82 275.863C1178.45 276.322 1178.52 276.994 1178.98 277.365C1179.44 277.735 1180.11 277.663 1180.48 277.204L1178.82 275.863ZM1189.05 266.603C1189.42 266.146 1189.35 265.473 1188.89 265.101C1188.43 264.729 1187.76 264.798 1187.39 265.255L1189.05 266.603ZM1196.12 254.742C1195.74 255.19 1195.79 255.864 1196.24 256.247C1196.69 256.629 1197.36 256.575 1197.74 256.127L1196.12 254.742ZM1206.77 245.963C1207.17 245.531 1207.14 244.856 1206.71 244.454C1206.28 244.052 1205.6 244.076 1205.2 244.507L1206.77 245.963ZM1214.85 234.795C1214.42 235.198 1214.4 235.873 1214.8 236.304C1215.21 236.735 1215.88 236.758 1216.31 236.355L1214.85 234.795ZM1226.62 227.593C1227.09 227.235 1227.18 226.565 1226.83 226.096C1226.47 225.627 1225.8 225.537 1225.33 225.895L1226.62 227.593ZM1236.79 218.271C1236.28 218.562 1236.1 219.214 1236.39 219.726C1236.68 220.239 1237.33 220.418 1237.85 220.127L1236.79 218.271ZM1250.02 214.453C1250.57 214.25 1250.86 213.636 1250.65 213.083C1250.45 212.529 1249.84 212.245 1249.28 212.448L1250.02 214.453ZM1262.63 208.886C1262.05 208.986 1261.66 209.537 1261.76 210.119C1261.86 210.7 1262.41 211.09 1262.99 210.991L1262.63 208.886ZM1276.35 209.903C1276.94 209.906 1277.42 209.43 1277.43 208.84C1277.43 208.251 1276.95 207.771 1276.36 207.768L1276.35 209.903ZM1290.08 208.891C1289.49 208.8 1288.95 209.199 1288.86 209.781C1288.77 210.364 1289.17 210.91 1289.75 211L1290.08 208.891ZM1304.1 213.457C1304.69 213.51 1305.21 213.076 1305.26 212.489C1305.31 211.902 1304.88 211.383 1304.29 211.331L1304.1 213.457ZM1319.2 210.818C1318.62 210.907 1318.22 211.451 1318.31 212.034C1318.39 212.617 1318.94 213.018 1319.52 212.929L1319.2 210.818ZM1334.43 209.085C1334.99 208.886 1335.27 208.274 1335.07 207.719C1334.87 207.164 1334.26 206.876 1333.71 207.076L1334.43 209.085ZM1347.42 200.901C1346.9 201.18 1346.71 201.828 1346.99 202.347C1347.27 202.866 1347.92 203.06 1348.44 202.781L1347.42 200.901ZM1361.48 194.722C1361.96 194.385 1362.08 193.72 1361.74 193.236C1361.41 192.752 1360.74 192.633 1360.26 192.97L1361.48 194.722ZM1372.24 183.753C1371.79 184.132 1371.74 184.806 1372.12 185.257C1372.49 185.708 1373.17 185.766 1373.62 185.386L1372.24 183.753ZM1384.92 175.086C1385.34 174.672 1385.35 173.996 1384.94 173.576C1384.52 173.156 1383.85 173.15 1383.43 173.563L1384.92 175.086ZM1393.81 162.572C1393.42 163.015 1393.47 163.69 1393.91 164.078C1394.36 164.467 1395.03 164.422 1395.42 163.978L1393.81 162.572ZM1.9606 299.267C4.35623 298.615 6.70687 298.074 9.01515 297.638L8.61879 295.54C6.25366 295.986 3.84815 296.54 1.39976 297.207L1.9606 299.267ZM23.347 296.223C28.2952 296.196 33.0536 296.664 37.6551 297.555L38.0613 295.459C33.3253 294.541 28.427 294.06 23.3354 294.088L23.347 296.223ZM51.4714 301.61C55.9167 303.358 60.2356 305.482 64.4634 307.909L65.5265 306.057C61.221 303.586 56.8079 301.414 52.2528 299.623L51.4714 301.61ZM76.6131 315.811C80.4822 318.605 84.2971 321.603 88.0883 324.742L89.4501 323.098C85.632 319.936 81.7791 316.907 77.8629 314.08L76.6131 315.811ZM99.1296 334.261C102.739 337.468 106.347 340.742 109.988 344.032L111.42 342.447C107.783 339.162 104.166 335.88 100.548 332.665L99.1296 334.261ZM120.906 353.776C124.578 356.988 128.305 360.157 132.109 363.226L133.45 361.564C129.674 358.518 125.97 355.368 122.311 352.168L120.906 353.776ZM143.808 372.095C147.816 374.922 151.929 377.593 156.173 380.049L157.243 378.201C153.061 375.781 149.002 373.146 145.039 370.35L143.808 372.095ZM169.306 386.707C173.772 388.649 178.389 390.326 183.182 391.683L183.764 389.629C179.069 388.299 174.541 386.655 170.157 384.749L169.306 386.707ZM197.633 394.677C200.043 394.997 202.495 395.235 204.993 395.387L205.122 393.255C202.676 393.107 200.274 392.873 197.914 392.56L197.633 394.677ZM204.993 395.387C207.384 395.531 209.731 395.606 212.036 395.614L212.044 393.479C209.78 393.471 207.473 393.398 205.122 393.255L204.993 395.387ZM225.896 394.82C230.654 394.245 235.221 393.366 239.614 392.216L239.073 390.15C234.773 391.276 230.302 392.136 225.64 392.7L225.896 394.82ZM252.822 387.761C257.155 385.96 261.309 383.887 265.307 381.579L264.24 379.73C260.317 381.994 256.246 384.026 252.003 385.79L252.822 387.761ZM276.941 373.93C280.659 371.183 284.243 368.239 287.716 365.14L286.294 363.547C282.865 366.608 279.332 369.509 275.672 372.213L276.941 373.93ZM297.724 355.517C300.932 352.217 304.057 348.803 307.12 345.312L305.515 343.904C302.471 347.372 299.371 350.759 296.193 354.029L297.724 355.517ZM316.065 334.743C318.989 331.181 321.875 327.578 324.742 323.97L323.07 322.642C320.206 326.246 317.328 329.839 314.415 333.388L316.065 334.743ZM333.327 313.142C336.205 309.524 339.085 305.936 341.99 302.412L340.343 301.054C337.426 304.592 334.538 308.19 331.656 311.813L333.327 313.142ZM350.93 291.92C354.004 288.453 357.125 285.094 360.317 281.881L358.803 280.376C355.576 283.623 352.427 287.012 349.332 290.504L350.93 291.92ZM370.363 272.523C373.869 269.528 377.476 266.736 381.212 264.189L380.009 262.425C376.202 265.021 372.533 267.861 368.977 270.9L370.363 272.523ZM392.976 257.255C397.018 255.239 401.218 253.513 405.604 252.122L404.958 250.087C400.462 251.513 396.159 253.282 392.023 255.345L392.976 257.255ZM418.856 249.063C423.214 248.418 427.753 248.087 432.493 248.104L432.5 245.969C427.655 245.952 423.01 246.29 418.543 246.951L418.856 249.063ZM446.055 249.057C448.294 249.356 450.577 249.728 452.904 250.176L453.307 248.079C450.941 247.624 448.619 247.245 446.337 246.941L446.055 249.057ZM452.904 250.176C455.365 250.649 457.767 251.164 460.111 251.717L460.601 249.638C458.228 249.079 455.797 248.558 453.307 248.079L452.904 250.176ZM474.233 255.712C479.04 257.312 483.582 259.085 487.89 261.002L488.758 259.051C484.387 257.106 479.78 255.308 474.908 253.686L474.233 255.712ZM500.955 267.617C505.317 270.107 509.422 272.745 513.314 275.491L514.545 273.746C510.601 270.964 506.439 268.289 502.014 265.763L500.955 267.617ZM524.925 284.451C528.75 287.654 532.378 290.936 535.868 294.245L537.337 292.695C533.823 289.364 530.162 286.051 526.296 282.814L524.925 284.451ZM546.368 304.587C549.881 308.142 553.323 311.683 556.73 315.104L558.243 313.597C554.835 310.176 551.42 306.663 547.887 303.086L546.368 304.587ZM567.404 325.384C571.123 328.762 574.915 331.944 578.87 334.841L580.132 333.119C576.252 330.277 572.519 327.146 568.84 323.804L567.404 325.384ZM591.547 342.708C595.902 344.922 600.508 346.766 605.454 348.154L606.031 346.099C601.228 344.75 596.752 342.959 592.514 340.805L591.547 342.708ZM620.175 350.778C622.591 350.979 625.082 351.083 627.656 351.083V348.948C625.14 348.948 622.707 348.846 620.352 348.65L620.175 350.778ZM627.656 351.083C629.991 351.083 632.278 351.011 634.52 350.87L634.386 348.739C632.189 348.877 629.947 348.948 627.656 348.948V351.083ZM648.073 349.098C652.654 348.173 657.031 346.943 661.231 345.446L660.514 343.435C656.409 344.898 652.13 346.101 647.651 347.005L648.073 349.098ZM673.744 339.968C677.801 337.852 681.687 335.484 685.433 332.91L684.223 331.151C680.542 333.68 676.73 336.002 672.757 338.074L673.744 339.968ZM696.257 324.631C699.71 321.725 703.056 318.659 706.322 315.479L704.832 313.949C701.597 317.1 698.289 320.129 694.882 322.998L696.257 324.631ZM715.803 305.753C718.875 302.458 721.899 299.092 724.902 295.695L723.302 294.281C720.306 297.67 717.295 301.021 714.242 304.297L715.803 305.753ZM733.823 285.511C736.791 282.114 739.765 278.725 742.772 275.38L741.184 273.953C738.166 277.309 735.184 280.708 732.215 284.106L733.823 285.511ZM751.95 265.486C755.081 262.237 758.271 259.074 761.548 256.035L760.096 254.47C756.784 257.54 753.565 260.732 750.412 264.004L751.95 265.486ZM771.74 247.272C775.256 244.494 778.887 241.883 782.662 239.479L781.515 237.678C777.673 240.125 773.982 242.778 770.416 245.597L771.74 247.272ZM794.36 232.969C798.327 231.073 802.457 229.408 806.774 228.012L806.117 225.98C801.706 227.407 797.489 229.107 793.44 231.042L794.36 232.969ZM819.754 224.763C821.924 224.371 824.14 224.044 826.404 223.786L826.162 221.664C823.852 221.928 821.591 222.262 819.375 222.661L819.754 224.763ZM826.404 223.786C828.667 223.527 830.892 223.337 833.079 223.211L832.957 221.079C830.729 221.207 828.464 221.401 826.162 221.664L826.404 223.786ZM846.259 223.25C850.8 223.548 855.176 224.139 859.404 224.995L859.827 222.902C855.506 222.028 851.035 221.423 846.399 221.119L846.259 223.25ZM872.139 228.484C876.341 229.945 880.4 231.671 884.336 233.625L885.286 231.713C881.274 229.721 877.133 227.96 872.84 226.467L872.139 228.484ZM895.859 240.177C899.566 242.552 903.172 245.119 906.698 247.842L908.003 246.153C904.434 243.396 900.777 240.792 897.011 238.38L895.859 240.177ZM916.945 256.346C920.247 259.267 923.493 262.302 926.701 265.417L928.188 263.885C924.961 260.752 921.692 257.694 918.359 254.747L916.945 256.346ZM936.137 274.87C939.233 278.052 942.311 281.278 945.39 284.515L946.937 283.044C943.857 279.805 940.773 276.572 937.667 273.381L936.137 274.87ZM954.624 294.208C957.721 297.436 960.839 300.643 963.993 303.796L965.502 302.286C962.362 299.147 959.256 295.951 956.164 292.729L954.624 294.208ZM973.647 313.116C976.947 316.175 980.306 319.144 983.742 321.989L985.104 320.345C981.703 317.529 978.374 314.586 975.098 311.55L973.647 313.116ZM994.41 330.19C998.083 332.79 1001.86 335.226 1005.75 337.461L1006.82 335.609C1002.98 333.411 999.267 331.012 995.644 328.448L994.41 330.19ZM1017.81 343.516C1021.9 345.28 1026.12 346.815 1030.51 348.084L1031.1 346.034C1026.81 344.79 1022.67 343.286 1018.66 341.555L1017.81 343.516ZM1043.69 350.996C1048.03 351.663 1052.51 352.075 1057.15 352.207L1057.21 350.073C1052.66 349.944 1048.26 349.539 1044.02 348.885L1043.69 350.996ZM1070.59 351.82C1072.82 351.634 1075.08 351.386 1077.37 351.073L1077.09 348.958C1074.82 349.265 1072.6 349.509 1070.41 349.693L1070.59 351.82ZM1077.37 351.073C1079.69 350.758 1081.97 350.377 1084.2 349.934L1083.78 347.839C1081.59 348.274 1079.36 348.648 1077.09 348.958L1077.37 351.073ZM1097.48 346.422C1101.91 344.948 1106.16 343.219 1110.24 341.268L1109.32 339.341C1105.31 341.256 1101.15 342.951 1096.81 344.396L1097.48 346.422ZM1122.27 334.633C1126.17 332.192 1129.91 329.552 1133.52 326.748L1132.21 325.061C1128.65 327.825 1124.97 330.424 1121.14 332.824L1122.27 334.633ZM1143.99 317.886C1147.35 314.804 1150.61 311.596 1153.78 308.298L1152.24 306.818C1149.09 310.089 1145.87 313.265 1142.54 316.312L1143.99 317.886ZM1163.01 298.206C1166.02 294.778 1168.96 291.294 1171.86 287.79L1170.21 286.429C1167.33 289.922 1164.4 293.39 1161.41 296.798L1163.01 298.206ZM1180.48 277.204C1183.35 273.643 1186.2 270.1 1189.05 266.603L1187.39 265.255C1184.54 268.757 1181.69 272.307 1178.82 275.863L1180.48 277.204ZM1197.74 256.127C1200.72 252.632 1203.72 249.231 1206.77 245.963L1205.2 244.507C1202.13 247.804 1199.11 251.229 1196.12 254.742L1197.74 256.127ZM1216.31 236.355C1219.66 233.222 1223.09 230.285 1226.62 227.593L1225.33 225.895C1221.73 228.637 1218.25 231.621 1214.85 234.795L1216.31 236.355ZM1237.85 220.127C1241.75 217.908 1245.8 215.999 1250.02 214.453L1249.28 212.448C1244.94 214.038 1240.79 215.998 1236.79 218.271L1237.85 220.127ZM1262.99 210.991C1267.25 210.26 1271.7 209.883 1276.35 209.903L1276.36 207.768C1271.59 207.748 1267.02 208.134 1262.63 208.886L1262.99 210.991ZM1289.75 211C1291.94 211.341 1294.17 211.763 1296.45 212.27L1296.91 210.186C1294.59 209.669 1292.31 209.238 1290.08 208.891L1289.75 211ZM1296.45 212.27C1299.01 212.84 1301.56 213.231 1304.1 213.457L1304.29 211.331C1301.84 211.112 1299.38 210.735 1296.91 210.186L1296.45 212.27ZM1319.52 212.929C1324.61 212.154 1329.59 210.826 1334.43 209.085L1333.71 207.076C1328.98 208.776 1324.13 210.067 1319.2 210.818L1319.52 212.929ZM1348.44 202.781C1352.99 200.328 1357.35 197.594 1361.48 194.722L1360.26 192.97C1356.19 195.802 1351.9 198.492 1347.42 200.901L1348.44 202.781ZM1373.62 185.386C1377.8 181.866 1381.6 178.357 1384.92 175.086L1383.43 173.563C1380.13 176.801 1376.38 180.273 1372.24 183.753L1373.62 185.386ZM1395.42 163.978C1397 162.175 1398.22 160.707 1399.05 159.688C1399.47 159.179 1399.78 158.781 1400 158.511C1400.1 158.375 1400.19 158.271 1400.24 158.201C1400.27 158.166 1400.29 158.139 1400.3 158.12C1400.31 158.111 1400.31 158.104 1400.32 158.099C1400.32 158.097 1400.32 158.095 1400.32 158.094C1400.32 158.093 1400.32 158.093 1400.32 158.092C1400.32 158.092 1400.32 158.092 1400.32 158.092C1400.32 158.092 1400.32 158.092 1400.32 158.092C1400.32 158.092 1400.32 158.091 1399.48 157.442C1398.63 156.793 1398.63 156.793 1398.63 156.793C1398.63 156.793 1398.63 156.792 1398.63 156.793C1398.63 156.793 1398.63 156.793 1398.63 156.793C1398.63 156.793 1398.63 156.793 1398.63 156.793C1398.63 156.794 1398.63 156.796 1398.63 156.798C1398.62 156.802 1398.62 156.808 1398.61 156.816C1398.6 156.832 1398.58 156.857 1398.55 156.89C1398.5 156.957 1398.42 157.056 1398.32 157.188C1398.11 157.45 1397.8 157.839 1397.4 158.339C1396.58 159.34 1395.37 160.789 1393.81 162.572L1395.42 163.978Z" fill="#1B1DC7" fill-opacity="0.21"/>
</svg>
