<svg width="333" height="400" viewBox="0 0 333 400" fill="none" xmlns="http://www.w3.org/2000/svg">
<circle cx="-0.0201416" cy="192" r="191.682" fill="#EBEEFF"/>
<path d="M-833.7 301.207C-834.269 301.362 -834.605 301.949 -834.45 302.517C-834.295 303.086 -833.708 303.422 -833.14 303.267L-833.7 301.207ZM-630.042 398.321L-630.107 399.387L-630.042 398.321ZM-381.995 253.127L-381.793 252.079L-381.995 253.127ZM-8.81689 226.725L-8.69568 227.786L-8.81689 226.725ZM242.129 354.016L242.273 355.073L242.129 354.016ZM461.577 215.228L461.809 214.186L461.577 215.228ZM-826.085 301.638C-825.506 301.528 -825.125 300.97 -825.234 300.391C-825.344 299.811 -825.902 299.43 -826.481 299.54L-826.085 301.638ZM-811.765 298.088C-812.354 298.091 -812.83 298.572 -812.826 299.161C-812.823 299.751 -812.343 300.226 -811.753 300.223L-811.765 298.088ZM-797.445 301.555C-796.866 301.668 -796.306 301.289 -796.194 300.71C-796.082 300.132 -796.46 299.571 -797.039 299.459L-797.445 301.555ZM-782.847 303.623C-783.396 303.407 -784.016 303.677 -784.232 304.225C-784.447 304.774 -784.177 305.394 -783.629 305.61L-782.847 303.623ZM-770.637 311.909C-770.125 312.203 -769.473 312.026 -769.179 311.515C-768.886 311.003 -769.062 310.351 -769.574 310.057L-770.637 311.909ZM-757.237 318.08C-757.715 317.735 -758.383 317.843 -758.728 318.321C-759.073 318.799 -758.965 319.466 -758.487 319.811L-757.237 318.08ZM-747.012 328.742C-746.558 329.118 -745.885 329.055 -745.509 328.601C-745.133 328.147 -745.196 327.474 -745.65 327.098L-747.012 328.742ZM-734.552 336.665C-734.993 336.273 -735.668 336.313 -736.059 336.754C-736.451 337.194 -736.411 337.869 -735.971 338.261L-734.552 336.665ZM-725.112 348.032C-724.674 348.427 -723.999 348.393 -723.604 347.955C-723.209 347.518 -723.243 346.843 -723.68 346.447L-725.112 348.032ZM-712.789 356.168C-713.232 355.78 -713.907 355.825 -714.295 356.269C-714.683 356.713 -714.638 357.387 -714.194 357.776L-712.789 356.168ZM-702.991 367.226C-702.532 367.596 -701.86 367.524 -701.489 367.065C-701.119 366.606 -701.191 365.934 -701.65 365.564L-702.991 367.226ZM-690.061 374.35C-690.543 374.01 -691.209 374.125 -691.549 374.607C-691.889 375.089 -691.774 375.755 -691.292 376.095L-690.061 374.35ZM-678.927 384.049C-678.417 384.344 -677.763 384.17 -677.468 383.66C-677.173 383.149 -677.347 382.496 -677.857 382.201L-678.927 384.049ZM-664.943 388.749C-665.484 388.514 -666.113 388.762 -666.348 389.303C-666.583 389.843 -666.335 390.472 -665.795 390.707L-664.943 388.749ZM-651.918 395.683C-651.351 395.844 -650.761 395.514 -650.6 394.947C-650.439 394.379 -650.769 393.789 -651.336 393.629L-651.918 395.683ZM-637.186 396.56C-637.77 396.482 -638.307 396.893 -638.385 397.478C-638.462 398.062 -638.051 398.599 -637.467 398.677L-637.186 396.56ZM-623.064 399.614C-622.474 399.617 -621.994 399.14 -621.992 398.551C-621.99 397.961 -622.467 397.481 -623.056 397.479L-623.064 399.614ZM-609.46 396.7C-610.046 396.771 -610.463 397.303 -610.392 397.888C-610.321 398.474 -609.789 398.891 -609.204 398.82L-609.46 396.7ZM-595.486 396.216C-594.916 396.066 -594.574 395.483 -594.724 394.913C-594.873 394.342 -595.456 394.001 -596.027 394.15L-595.486 396.216ZM-583.097 389.79C-583.642 390.016 -583.9 390.641 -583.673 391.185C-583.447 391.73 -582.822 391.988 -582.278 391.761L-583.097 389.79ZM-569.793 385.579C-569.282 385.284 -569.107 384.631 -569.402 384.121C-569.697 383.61 -570.35 383.435 -570.86 383.73L-569.793 385.579ZM-559.428 376.213C-559.902 376.563 -560.002 377.232 -559.652 377.706C-559.301 378.18 -558.633 378.281 -558.159 377.93L-559.428 376.213ZM-547.384 369.14C-546.944 368.748 -546.906 368.073 -547.299 367.633C-547.691 367.193 -548.366 367.154 -548.806 367.547L-547.384 369.14ZM-538.907 358.029C-539.318 358.451 -539.309 359.127 -538.886 359.538C-538.463 359.949 -537.787 359.94 -537.376 359.517L-538.907 358.029ZM-527.981 349.312C-527.592 348.869 -527.636 348.195 -528.079 347.806C-528.522 347.417 -529.197 347.461 -529.585 347.904L-527.981 349.312ZM-520.685 337.388C-521.06 337.844 -520.993 338.517 -520.538 338.891C-520.082 339.265 -519.409 339.199 -519.035 338.743L-520.685 337.388ZM-510.358 327.97C-509.991 327.509 -510.068 326.837 -510.53 326.47C-510.991 326.103 -511.663 326.18 -512.03 326.642L-510.358 327.97ZM-503.444 315.813C-503.811 316.274 -503.735 316.946 -503.273 317.313C-502.812 317.68 -502.14 317.604 -501.773 317.142L-503.444 315.813ZM-493.11 306.412C-492.735 305.957 -492.8 305.284 -493.255 304.909C-493.71 304.534 -494.383 304.599 -494.758 305.054L-493.11 306.412ZM-485.768 294.504C-486.159 294.945 -486.118 295.62 -485.677 296.011C-485.236 296.402 -484.561 296.361 -484.17 295.92L-485.768 294.504ZM-474.783 285.881C-474.367 285.463 -474.369 284.787 -474.788 284.372C-475.206 283.956 -475.882 283.958 -476.297 284.376L-474.783 285.881ZM-466.124 274.9C-466.572 275.283 -466.625 275.956 -466.242 276.405C-465.859 276.853 -465.185 276.906 -464.737 276.523L-466.124 274.9ZM-453.888 268.189C-453.401 267.857 -453.276 267.193 -453.608 266.706C-453.94 266.219 -454.604 266.093 -455.091 266.425L-453.888 268.189ZM-443.077 259.345C-443.605 259.608 -443.819 260.249 -443.556 260.776C-443.293 261.304 -442.652 261.518 -442.124 261.255L-443.077 259.345ZM-429.496 256.122C-428.934 255.943 -428.623 255.343 -428.802 254.781C-428.98 254.219 -429.58 253.908 -430.142 254.087L-429.496 256.122ZM-416.557 250.951C-417.14 251.037 -417.543 251.58 -417.457 252.163C-417.37 252.747 -416.828 253.15 -416.244 253.063L-416.557 250.951ZM-402.607 252.104C-402.018 252.106 -401.538 251.63 -401.536 251.041C-401.534 250.451 -402.01 249.971 -402.6 249.969L-402.607 252.104ZM-388.763 250.941C-389.347 250.862 -389.884 251.273 -389.962 251.857C-390.04 252.442 -389.63 252.979 -389.046 253.057L-388.763 250.941ZM-374.989 255.717C-374.415 255.852 -373.84 255.496 -373.705 254.922C-373.569 254.348 -373.925 253.774 -374.499 253.638L-374.989 255.717ZM-360.193 257.686C-360.752 257.499 -361.357 257.802 -361.543 258.361C-361.729 258.921 -361.427 259.525 -360.867 259.712L-360.193 257.686ZM-347.21 265.002C-346.672 265.241 -346.041 264.999 -345.801 264.46C-345.561 263.921 -345.804 263.29 -346.342 263.051L-347.21 265.002ZM-333.086 269.763C-333.598 269.471 -334.25 269.649 -334.543 270.161C-334.835 270.673 -334.657 271.325 -334.145 271.617L-333.086 269.763ZM-321.786 279.491C-321.305 279.831 -320.638 279.716 -320.299 279.234C-319.959 278.752 -320.074 278.086 -320.555 277.746L-321.786 279.491ZM-308.804 286.814C-309.256 286.435 -309.929 286.495 -310.308 286.947C-310.686 287.399 -310.627 288.072 -310.175 288.451L-308.804 286.814ZM-299.232 298.245C-298.804 298.65 -298.129 298.632 -297.723 298.204C-297.317 297.776 -297.335 297.101 -297.763 296.695L-299.232 298.245ZM-287.213 307.086C-287.628 306.667 -288.303 306.663 -288.723 307.077C-289.142 307.491 -289.146 308.167 -288.732 308.587L-287.213 307.086ZM-278.37 319.104C-277.954 319.522 -277.278 319.523 -276.86 319.107C-276.442 318.691 -276.441 318.015 -276.857 317.597L-278.37 319.104ZM-266.26 327.804C-266.697 327.407 -267.372 327.44 -267.768 327.876C-268.165 328.313 -268.132 328.988 -267.696 329.384L-266.26 327.804ZM-256.23 338.841C-255.754 339.19 -255.086 339.087 -254.738 338.611C-254.389 338.135 -254.492 337.467 -254.968 337.119L-256.23 338.841ZM-242.586 344.805C-243.112 344.538 -243.754 344.747 -244.022 345.273C-244.289 345.798 -244.079 346.441 -243.554 346.708L-242.586 344.805ZM-229.646 352.154C-229.079 352.314 -228.489 351.983 -228.33 351.415C-228.171 350.847 -228.502 350.258 -229.069 350.099L-229.646 352.154ZM-214.748 352.65C-215.336 352.601 -215.852 353.038 -215.901 353.625C-215.95 354.213 -215.513 354.729 -214.926 354.778L-214.748 352.65ZM-200.58 354.87C-199.992 354.833 -199.545 354.326 -199.582 353.737C-199.619 353.149 -200.126 352.702 -200.714 352.739L-200.58 354.87ZM-187.449 351.005C-188.027 351.122 -188.401 351.685 -188.284 352.263C-188.168 352.841 -187.605 353.215 -187.027 353.098L-187.449 351.005ZM-173.869 349.446C-173.314 349.248 -173.024 348.637 -173.222 348.081C-173.42 347.526 -174.031 347.236 -174.587 347.435L-173.869 349.446ZM-162.343 342.074C-162.866 342.347 -163.069 342.992 -162.796 343.515C-162.523 344.038 -161.879 344.24 -161.356 343.968L-162.343 342.074ZM-149.667 336.91C-149.181 336.576 -149.058 335.912 -149.392 335.426C-149.726 334.94 -150.391 334.817 -150.877 335.151L-149.667 336.91ZM-140.218 326.998C-140.669 327.377 -140.727 328.051 -140.347 328.502C-139.968 328.953 -139.294 329.011 -138.843 328.631L-140.218 326.998ZM-128.778 319.479C-128.356 319.068 -128.347 318.392 -128.758 317.969C-129.169 317.547 -129.845 317.538 -130.268 317.949L-128.778 319.479ZM-120.859 308.297C-121.261 308.728 -121.237 309.404 -120.806 309.806C-120.374 310.208 -119.699 310.184 -119.297 309.753L-120.859 308.297ZM-110.198 299.695C-109.808 299.254 -109.849 298.579 -110.291 298.188C-110.733 297.798 -111.407 297.839 -111.798 298.281L-110.198 299.695ZM-102.885 288.106C-103.273 288.55 -103.228 289.225 -102.784 289.613C-102.34 290.001 -101.665 289.955 -101.277 289.511L-102.885 288.106ZM-92.3283 279.38C-91.9341 278.942 -91.97 278.267 -92.4084 277.873C-92.8469 277.478 -93.522 277.514 -93.9161 277.953L-92.3283 279.38ZM-84.6877 268.004C-85.0969 268.429 -85.0844 269.104 -84.6598 269.514C-84.2352 269.923 -83.5594 269.91 -83.1503 269.486L-84.6877 268.004ZM-73.5526 260.035C-73.1202 259.634 -73.0947 258.959 -73.4957 258.526C-73.8966 258.094 -74.5721 258.069 -75.0044 258.47L-73.5526 260.035ZM-64.6843 249.597C-65.1469 249.962 -65.2256 250.634 -64.86 251.096C-64.4944 251.559 -63.8231 251.638 -63.3605 251.272L-64.6843 249.597ZM-52.4382 243.479C-51.9409 243.162 -51.7944 242.503 -52.1111 242.005C-52.4279 241.508 -53.0878 241.361 -53.5851 241.678L-52.4382 243.479ZM-41.6605 235.042C-42.1924 235.297 -42.4176 235.934 -42.1633 236.466C-41.9091 236.998 -41.2717 237.223 -40.7397 236.969L-41.6605 235.042ZM-28.3258 232.012C-27.7648 231.83 -27.4572 231.228 -27.6386 230.667C-27.82 230.106 -28.4219 229.799 -28.9829 229.98L-28.3258 232.012ZM-15.7248 226.661C-16.3051 226.766 -16.6906 227.321 -16.5859 227.902C-16.4813 228.482 -15.9261 228.867 -15.3458 228.763L-15.7248 226.661ZM-2.02118 227.211C-1.43256 227.177 -0.982666 226.673 -1.01642 226.084C-1.05017 225.496 -1.55469 225.046 -2.14337 225.079L-2.02118 227.211ZM11.2988 225.119C10.7104 225.081 10.2022 225.527 10.1636 226.115C10.1251 226.703 10.5707 227.212 11.1591 227.25L11.2988 225.119ZM24.3035 228.995C24.8815 229.112 25.4447 228.738 25.5616 228.16C25.6785 227.582 25.3047 227.019 24.7269 226.902L24.3035 228.995ZM37.7398 230.467C37.1829 230.273 36.5745 230.568 36.3808 231.125C36.1872 231.682 36.4816 232.29 37.0386 232.484L37.7398 230.467ZM49.2358 237.625C49.764 237.887 50.4047 237.672 50.6669 237.144C50.9291 236.616 50.7135 235.975 50.1854 235.713L49.2358 237.625ZM61.9111 242.38C61.4146 242.061 60.7543 242.206 60.4362 242.702C60.1181 243.199 60.2627 243.859 60.7592 244.177L61.9111 242.38ZM71.5974 251.842C72.064 252.203 72.7345 252.117 73.0949 251.65C73.4553 251.183 73.3692 250.513 72.9026 250.153L71.5974 251.842ZM83.2592 258.747C82.8176 258.356 82.1429 258.397 81.7523 258.839C81.3616 259.281 81.403 259.955 81.8446 260.346L83.2592 258.747ZM91.6004 269.417C92.0234 269.827 92.6993 269.817 93.11 269.394C93.5208 268.971 93.5108 268.295 93.0878 267.885L91.6004 269.417ZM102.567 277.381C102.156 276.958 101.48 276.949 101.057 277.36C100.635 277.771 100.625 278.447 101.036 278.87L102.567 277.381ZM110.29 288.515C110.696 288.943 111.372 288.96 111.799 288.553C112.226 288.147 112.243 287.471 111.837 287.044L110.29 288.515ZM121.064 296.729C120.656 296.304 119.98 296.29 119.555 296.698C119.129 297.106 119.115 297.782 119.524 298.208L121.064 296.729ZM128.893 307.796C129.31 308.213 129.986 308.213 130.403 307.796C130.819 307.379 130.819 306.703 130.402 306.286L128.893 307.796ZM139.998 315.55C139.566 315.149 138.89 315.175 138.49 315.607C138.089 316.04 138.114 316.715 138.547 317.116L139.998 315.55ZM148.642 325.989C149.096 326.365 149.769 326.302 150.145 325.848C150.521 325.394 150.458 324.721 150.004 324.345L148.642 325.989ZM160.544 332.448C160.062 332.107 159.396 332.221 159.055 332.702C158.715 333.183 158.829 333.85 159.31 334.19L160.544 332.448ZM170.654 341.461C171.165 341.754 171.818 341.577 172.111 341.066C172.404 340.554 172.227 339.902 171.716 339.609L170.654 341.461ZM183.557 345.555C183.016 345.322 182.388 345.571 182.154 346.113C181.92 346.654 182.17 347.282 182.711 347.516L183.557 345.555ZM195.405 352.084C195.972 352.249 196.564 351.922 196.728 351.356C196.892 350.79 196.566 350.198 196 350.034L195.405 352.084ZM208.917 352.885C208.334 352.796 207.789 353.195 207.699 353.778C207.61 354.361 208.009 354.906 208.592 354.996L208.917 352.885ZM222.052 356.207C222.641 356.224 223.132 355.76 223.149 355.17C223.166 354.581 222.702 354.09 222.112 354.073L222.052 356.207ZM235.312 353.693C234.725 353.742 234.288 354.258 234.338 354.846C234.387 355.433 234.903 355.87 235.491 355.82L235.312 353.693ZM249.1 353.934C249.678 353.819 250.054 353.257 249.939 352.678C249.824 352.1 249.262 351.724 248.683 351.839L249.1 353.934ZM261.708 348.396C261.148 348.582 260.846 349.186 261.032 349.746C261.218 350.305 261.823 350.608 262.382 350.422L261.708 348.396ZM275.142 345.268C275.674 345.014 275.899 344.377 275.645 343.845C275.391 343.313 274.754 343.087 274.222 343.341L275.142 345.268ZM286.04 336.824C285.54 337.138 285.39 337.797 285.703 338.296C286.016 338.796 286.675 338.947 287.175 338.633L286.04 336.824ZM298.419 330.748C298.885 330.386 298.969 329.716 298.608 329.25C298.246 328.784 297.576 328.7 297.11 329.061L298.419 330.748ZM307.445 320.312C307.01 320.71 306.981 321.385 307.379 321.82C307.777 322.255 308.453 322.284 308.887 321.886L307.445 320.312ZM318.676 312.298C319.084 311.873 319.071 311.197 318.646 310.788C318.221 310.38 317.545 310.393 317.136 310.818L318.676 312.298ZM326.309 300.798C325.92 301.241 325.964 301.916 326.407 302.304C326.851 302.693 327.525 302.649 327.914 302.206L326.309 300.798ZM336.76 291.79C337.136 291.336 337.072 290.663 336.618 290.287C336.164 289.911 335.491 289.975 335.115 290.429L336.76 291.79ZM343.721 279.863C343.35 280.322 343.422 280.994 343.881 281.365C344.34 281.735 345.012 281.663 345.383 281.204L343.721 279.863ZM353.946 270.603C354.318 270.146 354.249 269.473 353.792 269.101C353.334 268.729 352.662 268.798 352.29 269.255L353.946 270.603ZM361.019 258.742C360.636 259.19 360.69 259.864 361.138 260.247C361.587 260.629 362.261 260.575 362.643 260.127L361.019 258.742ZM371.666 249.963C372.067 249.531 372.043 248.856 371.612 248.454C371.18 248.052 370.505 248.076 370.103 248.507L371.666 249.963ZM379.753 238.795C379.323 239.198 379.3 239.873 379.702 240.304C380.105 240.735 380.781 240.758 381.211 240.355L379.753 238.795ZM391.524 231.593C391.992 231.235 392.083 230.565 391.725 230.096C391.368 229.627 390.698 229.537 390.229 229.895L391.524 231.593ZM401.69 222.271C401.177 222.562 400.998 223.214 401.289 223.726C401.581 224.239 402.232 224.418 402.745 224.127L401.69 222.271ZM414.918 218.453C415.471 218.25 415.756 217.636 415.553 217.083C415.35 216.529 414.737 216.245 414.183 216.448L414.918 218.453ZM427.529 212.886C426.948 212.986 426.557 213.537 426.657 214.119C426.756 214.7 427.308 215.09 427.889 214.991L427.529 212.886ZM441.254 213.903C441.844 213.906 442.324 213.43 442.326 212.84C442.329 212.251 441.853 211.771 441.263 211.768L441.254 213.903ZM454.977 212.891C454.395 212.8 453.849 213.199 453.758 213.781C453.668 214.364 454.067 214.91 454.649 215L454.977 212.891ZM469.004 217.457C469.591 217.51 470.109 217.076 470.162 216.489C470.214 215.902 469.781 215.383 469.193 215.331L469.004 217.457ZM484.1 214.818C483.517 214.907 483.117 215.451 483.206 216.034C483.294 216.617 483.839 217.018 484.422 216.929L484.1 214.818ZM499.33 213.085C499.885 212.886 500.173 212.274 499.974 211.719C499.774 211.164 499.162 210.876 498.608 211.076L499.33 213.085ZM512.323 204.901C511.804 205.18 511.61 205.828 511.889 206.347C512.169 206.866 512.816 207.06 513.336 206.781L512.323 204.901ZM526.377 198.722C526.861 198.385 526.98 197.72 526.643 197.236C526.306 196.752 525.641 196.633 525.157 196.97L526.377 198.722ZM537.145 187.753C536.694 188.132 536.636 188.806 537.015 189.257C537.395 189.708 538.068 189.766 538.52 189.386L537.145 187.753ZM549.823 179.086C550.243 178.672 550.249 177.996 549.835 177.576C549.422 177.156 548.746 177.15 548.326 177.563L549.823 179.086ZM558.712 166.572C558.324 167.015 558.369 167.69 558.812 168.078C559.256 168.467 559.93 168.422 560.319 167.978L558.712 166.572ZM-833.14 303.267C-830.744 302.615 -828.393 302.074 -826.085 301.638L-826.481 299.54C-828.846 299.986 -831.252 300.54 -833.7 301.207L-833.14 303.267ZM-811.753 300.223C-806.805 300.196 -802.046 300.664 -797.445 301.555L-797.039 299.459C-801.775 298.541 -806.673 298.06 -811.765 298.088L-811.753 300.223ZM-783.629 305.61C-779.183 307.358 -774.864 309.482 -770.637 311.909L-769.574 310.057C-773.879 307.586 -778.292 305.414 -782.847 303.623L-783.629 305.61ZM-758.487 319.811C-754.618 322.605 -750.803 325.603 -747.012 328.742L-745.65 327.098C-749.468 323.936 -753.321 320.907 -757.237 318.08L-758.487 319.811ZM-735.971 338.261C-732.361 341.468 -728.753 344.742 -725.112 348.032L-723.68 346.447C-727.317 343.162 -730.935 339.88 -734.552 336.665L-735.971 338.261ZM-714.194 357.776C-710.522 360.988 -706.795 364.157 -702.991 367.226L-701.65 365.564C-705.426 362.518 -709.13 359.368 -712.789 356.168L-714.194 357.776ZM-691.292 376.095C-687.285 378.922 -683.171 381.593 -678.927 384.049L-677.857 382.201C-682.039 379.781 -686.098 377.146 -690.061 374.35L-691.292 376.095ZM-665.795 390.707C-661.329 392.649 -656.711 394.326 -651.918 395.683L-651.336 393.629C-656.031 392.299 -660.559 390.655 -664.943 388.749L-665.795 390.707ZM-637.467 398.677C-635.057 398.997 -632.605 399.235 -630.107 399.387L-629.978 397.255C-632.425 397.107 -634.826 396.873 -637.186 396.56L-637.467 398.677ZM-630.107 399.387C-627.716 399.531 -625.369 399.606 -623.064 399.614L-623.056 397.479C-625.32 397.471 -627.627 397.398 -629.978 397.255L-630.107 399.387ZM-609.204 398.82C-604.446 398.245 -599.88 397.366 -595.486 396.216L-596.027 394.15C-600.327 395.276 -604.798 396.136 -609.46 396.7L-609.204 398.82ZM-582.278 391.761C-577.945 389.96 -573.791 387.887 -569.793 385.579L-570.86 383.73C-574.783 385.994 -578.854 388.026 -583.097 389.79L-582.278 391.761ZM-558.159 377.93C-554.441 375.183 -550.857 372.239 -547.384 369.14L-548.806 367.547C-552.235 370.608 -555.768 373.509 -559.428 376.213L-558.159 377.93ZM-537.376 359.517C-534.168 356.217 -531.043 352.803 -527.981 349.312L-529.585 347.904C-532.629 351.372 -535.729 354.759 -538.907 358.029L-537.376 359.517ZM-519.035 338.743C-516.111 335.181 -513.225 331.578 -510.358 327.97L-512.03 326.642C-514.894 330.246 -517.772 333.839 -520.685 337.388L-519.035 338.743ZM-501.773 317.142C-498.895 313.524 -496.015 309.936 -493.11 306.412L-494.758 305.054C-497.674 308.592 -500.563 312.19 -503.444 315.813L-501.773 317.142ZM-484.17 295.92C-481.097 292.453 -477.975 289.094 -474.783 285.881L-476.297 284.376C-479.524 287.623 -482.673 291.012 -485.768 294.504L-484.17 295.92ZM-464.737 276.523C-461.232 273.528 -457.624 270.736 -453.888 268.189L-455.091 266.425C-458.898 269.021 -462.567 271.861 -466.124 274.9L-464.737 276.523ZM-442.124 261.255C-438.082 259.239 -433.882 257.513 -429.496 256.122L-430.142 254.087C-434.639 255.513 -438.941 257.282 -443.077 259.345L-442.124 261.255ZM-416.244 253.063C-411.886 252.418 -407.347 252.087 -402.607 252.104L-402.6 249.969C-407.445 249.952 -412.09 250.29 -416.557 250.951L-416.244 253.063ZM-389.046 253.057C-386.806 253.356 -384.523 253.728 -382.197 254.176L-381.793 252.079C-384.159 251.624 -386.481 251.245 -388.763 250.941L-389.046 253.057ZM-382.197 254.176C-379.735 254.649 -377.333 255.164 -374.989 255.717L-374.499 253.638C-376.872 253.079 -379.303 252.558 -381.793 252.079L-382.197 254.176ZM-360.867 259.712C-356.06 261.312 -351.518 263.085 -347.21 265.002L-346.342 263.051C-350.713 261.106 -355.32 259.308 -360.193 257.686L-360.867 259.712ZM-334.145 271.617C-329.783 274.107 -325.679 276.745 -321.786 279.491L-320.555 277.746C-324.499 274.964 -328.661 272.289 -333.086 269.763L-334.145 271.617ZM-310.175 288.451C-306.35 291.654 -302.722 294.936 -299.232 298.245L-297.763 296.695C-301.277 293.364 -304.938 290.051 -308.804 286.814L-310.175 288.451ZM-288.732 308.587C-285.22 312.142 -281.777 315.683 -278.37 319.104L-276.857 317.597C-280.265 314.176 -283.68 310.663 -287.213 307.086L-288.732 308.587ZM-267.696 329.384C-263.977 332.762 -260.185 335.944 -256.23 338.841L-254.968 337.119C-258.848 334.277 -262.581 331.146 -266.26 327.804L-267.696 329.384ZM-243.554 346.708C-239.198 348.922 -234.592 350.766 -229.646 352.154L-229.069 350.099C-233.872 348.75 -238.348 346.959 -242.586 344.805L-243.554 346.708ZM-214.926 354.778C-212.51 354.979 -210.018 355.083 -207.444 355.083V352.948C-209.961 352.948 -212.393 352.846 -214.748 352.65L-214.926 354.778ZM-207.444 355.083C-205.109 355.083 -202.822 355.011 -200.58 354.87L-200.714 352.739C-202.911 352.877 -205.153 352.948 -207.444 352.948V355.083ZM-187.027 353.098C-182.446 352.173 -178.069 350.943 -173.869 349.446L-174.587 347.435C-178.692 348.898 -182.97 350.101 -187.449 351.005L-187.027 353.098ZM-161.356 343.968C-157.299 341.852 -153.413 339.484 -149.667 336.91L-150.877 335.151C-154.558 337.68 -158.37 340.002 -162.343 342.074L-161.356 343.968ZM-138.843 328.631C-135.39 325.725 -132.045 322.659 -128.778 319.479L-130.268 317.949C-133.504 321.1 -136.811 324.129 -140.218 326.998L-138.843 328.631ZM-119.297 309.753C-116.226 306.458 -113.201 303.092 -110.198 299.695L-111.798 298.281C-114.794 301.67 -117.805 305.021 -120.859 308.297L-119.297 309.753ZM-101.277 289.511C-98.3089 286.114 -95.3354 282.725 -92.3283 279.38L-93.9161 277.953C-96.934 281.309 -99.9157 284.708 -102.885 288.106L-101.277 289.511ZM-83.1503 269.486C-80.0193 266.237 -76.8293 263.074 -73.5526 260.035L-75.0044 258.47C-78.3159 261.54 -81.5347 264.732 -84.6877 268.004L-83.1503 269.486ZM-63.3605 251.272C-59.8444 248.494 -56.213 245.883 -52.4382 243.479L-53.5851 241.678C-57.4274 244.125 -61.1177 246.778 -64.6843 249.597L-63.3605 251.272ZM-40.7397 236.969C-36.7726 235.073 -32.6432 233.408 -28.3258 232.012L-28.9829 229.98C-33.3942 231.407 -37.6115 233.107 -41.6605 235.042L-40.7397 236.969ZM-15.3458 228.763C-13.1758 228.371 -10.96 228.044 -8.69568 227.786L-8.93817 225.664C-11.2479 225.928 -13.5093 226.262 -15.7248 226.661L-15.3458 228.763ZM-8.69568 227.786C-6.43262 227.527 -4.20837 227.337 -2.02118 227.211L-2.14337 225.079C-4.3714 225.207 -6.6358 225.401 -8.93817 225.664L-8.69568 227.786ZM11.1591 227.25C15.7001 227.548 20.0756 228.139 24.3035 228.995L24.7269 226.902C20.4055 226.028 15.9352 225.423 11.2988 225.119L11.1591 227.25ZM37.0386 232.484C41.2414 233.945 45.3 235.671 49.2358 237.625L50.1854 235.713C46.1742 233.721 42.0327 231.96 37.7398 230.467L37.0386 232.484ZM60.7592 244.177C64.4661 246.552 68.0718 249.119 71.5974 251.842L72.9026 250.153C69.3335 247.396 65.6767 244.792 61.9111 242.38L60.7592 244.177ZM81.8446 260.346C85.1473 263.267 88.3926 266.302 91.6004 269.417L93.0878 267.885C89.8613 264.752 86.5914 261.694 83.2592 258.747L81.8446 260.346ZM101.036 278.87C104.133 282.052 107.211 285.278 110.29 288.515L111.837 287.044C108.757 283.805 105.673 280.572 102.567 277.381L101.036 278.87ZM119.524 298.208C122.621 301.436 125.739 304.643 128.893 307.796L130.402 306.286C127.262 303.147 124.156 299.951 121.064 296.729L119.524 298.208ZM138.547 317.116C141.847 320.175 145.206 323.144 148.642 325.989L150.004 324.345C146.603 321.529 143.274 318.586 139.998 315.55L138.547 317.116ZM159.31 334.19C162.983 336.79 166.757 339.226 170.654 341.461L171.716 339.609C167.884 337.411 164.167 335.012 160.544 332.448L159.31 334.19ZM182.711 347.516C186.799 349.28 191.024 350.815 195.405 352.084L196 350.034C191.708 348.79 187.567 347.286 183.557 345.555L182.711 347.516ZM208.592 354.996C212.927 355.663 217.409 356.075 222.052 356.207L222.112 354.073C217.557 353.944 213.164 353.539 208.917 352.885L208.592 354.996ZM235.491 355.82C237.716 355.634 239.976 355.386 242.273 355.073L241.985 352.958C239.724 353.265 237.5 353.509 235.312 353.693L235.491 355.82ZM242.273 355.073C244.592 354.758 246.867 354.377 249.1 353.934L248.683 351.839C246.494 352.274 244.262 352.648 241.985 352.958L242.273 355.073ZM262.382 350.422C266.808 348.948 271.055 347.219 275.142 345.268L274.222 343.341C270.212 345.256 266.047 346.951 261.708 348.396L262.382 350.422ZM287.175 338.633C291.066 336.192 294.807 333.552 298.419 330.748L297.11 329.061C293.549 331.825 289.866 334.424 286.04 336.824L287.175 338.633ZM308.887 321.886C312.25 318.804 315.505 315.596 318.676 312.298L317.136 310.818C313.993 314.089 310.769 317.265 307.445 320.312L308.887 321.886ZM327.914 302.206C330.92 298.778 333.862 295.294 336.76 291.79L335.115 290.429C332.225 293.922 329.297 297.39 326.309 300.798L327.914 302.206ZM345.383 281.204C348.254 277.643 351.1 274.1 353.946 270.603L352.29 269.255C349.44 272.757 346.588 276.307 343.721 279.863L345.383 281.204ZM362.643 260.127C365.623 256.632 368.622 253.231 371.666 249.963L370.103 248.507C367.033 251.804 364.013 255.229 361.019 258.742L362.643 260.127ZM381.211 240.355C384.564 237.222 387.992 234.285 391.524 231.593L390.229 229.895C386.632 232.637 383.15 235.621 379.753 238.795L381.211 240.355ZM402.745 224.127C406.65 221.908 410.697 219.999 414.918 218.453L414.183 216.448C409.843 218.038 405.689 219.998 401.69 222.271L402.745 224.127ZM427.889 214.991C432.154 214.26 436.6 213.883 441.254 213.903L441.263 211.768C436.487 211.748 431.917 212.134 427.529 212.886L427.889 214.991ZM454.649 215C456.837 215.341 459.068 215.763 461.345 216.27L461.809 214.186C459.489 213.669 457.212 213.238 454.977 212.891L454.649 215ZM461.345 216.27C463.906 216.84 466.46 217.231 469.004 217.457L469.193 215.331C466.74 215.112 464.277 214.735 461.809 214.186L461.345 216.27ZM484.422 216.929C489.507 216.154 494.492 214.826 499.33 213.085L498.608 211.076C493.883 212.776 489.032 214.067 484.1 214.818L484.422 216.929ZM513.336 206.781C517.89 204.328 522.253 201.594 526.377 198.722L525.157 196.97C521.09 199.802 516.797 202.492 512.323 204.901L513.336 206.781ZM538.52 189.386C542.702 185.866 546.495 182.357 549.823 179.086L548.326 177.563C545.032 180.801 541.28 184.273 537.145 187.753L538.52 189.386ZM560.319 167.978C561.898 166.175 563.121 164.707 563.951 163.688C564.366 163.179 564.683 162.781 564.897 162.511C565.004 162.375 565.085 162.271 565.14 162.201C565.167 162.166 565.188 162.139 565.202 162.12C565.209 162.111 565.215 162.104 565.218 162.099C565.22 162.097 565.222 162.095 565.223 162.094C565.223 162.093 565.224 162.093 565.224 162.092C565.224 162.092 565.224 162.092 565.224 162.092C565.224 162.092 565.224 162.092 565.224 162.092C565.224 162.092 565.224 162.091 564.377 161.442C563.53 160.793 563.53 160.793 563.53 160.793C563.53 160.793 563.53 160.792 563.53 160.793C563.53 160.793 563.53 160.793 563.53 160.793C563.53 160.793 563.529 160.793 563.529 160.793C563.528 160.794 563.527 160.796 563.526 160.798C563.523 160.802 563.518 160.808 563.512 160.816C563.499 160.832 563.48 160.857 563.454 160.89C563.402 160.957 563.325 161.056 563.221 161.188C563.014 161.45 562.704 161.839 562.296 162.339C561.48 163.34 560.273 164.789 558.712 166.572L560.319 167.978Z" fill="#1B1DC7" fill-opacity="0.21"/>
</svg>
