<svg width="208" height="190" viewBox="0 0 208 190" fill="none" xmlns="http://www.w3.org/2000/svg">
<path fill-rule="evenodd" clip-rule="evenodd" d="M104.694 34.0002H103.036V27.6059C103.036 26.8591 102.301 26.2516 101.397 26.2516C100.494 26.2516 99.7591 26.8591 99.7591 27.6059V34.0002H98.1014V27.6059C98.1014 25.9451 99.58 24.5939 101.397 24.5939C103.215 24.5939 104.694 25.9451 104.694 27.6059V34.0002Z" fill="#597EF7"/>
<path fill-rule="evenodd" clip-rule="evenodd" d="M114.416 134.712H33.6027C31.4044 134.712 29.6223 132.93 29.6223 130.731V37.6919C29.6223 35.4935 31.4044 33.7115 33.6027 33.7115H114.416C116.614 33.7115 118.396 35.4935 118.396 37.6919V130.731C118.396 132.93 116.614 134.712 114.416 134.712Z" fill="#E4EBF7"/>
<path fill-rule="evenodd" clip-rule="evenodd" d="M102.719 41.0829C101.63 41.0829 100.745 40.2562 100.745 39.2407V30.1628C100.745 29.7052 101.116 29.3339 101.574 29.3339C102.031 29.3339 102.402 29.7052 102.402 30.1628V39.2407C102.402 39.3141 102.529 39.4252 102.719 39.4252C102.91 39.4252 103.036 39.3141 103.036 39.2407V34.0003C103.036 33.5427 103.407 33.1716 103.865 33.1716C104.323 33.1716 104.694 33.5427 104.694 34.0003V39.2407C104.694 40.2562 103.808 41.0829 102.719 41.0829Z" fill="#597EF7"/>
<path fill-rule="evenodd" clip-rule="evenodd" d="M49.4882 105.112H39.6811C39.4809 105.112 39.3186 104.95 39.3186 104.75V94.9423C39.3186 94.7423 39.4809 94.58 39.6811 94.58H49.4882C49.6883 94.58 49.8506 94.7423 49.8506 94.9423V104.75C49.8506 104.95 49.6883 105.112 49.4882 105.112Z" fill="#597EF7"/>
<path fill-rule="evenodd" clip-rule="evenodd" d="M43.1329 102.742C43.1124 102.742 43.0919 102.741 43.0712 102.738C42.8985 102.718 42.7472 102.614 42.6665 102.46L41.4225 100.09C41.2873 99.8327 41.3866 99.5144 41.6442 99.3792C41.9028 99.2444 42.2207 99.3438 42.3554 99.6007L43.2425 101.291L46.8834 97.1293C47.0757 96.9092 47.408 96.8876 47.6265 97.0794C47.8457 97.2712 47.8677 97.6039 47.6764 97.8225L43.5295 102.562C43.4287 102.677 43.2837 102.742 43.1329 102.742Z" fill="white"/>
<path fill-rule="evenodd" clip-rule="evenodd" d="M97.5673 97.6079H54.4031C54.253 97.6079 54.1315 97.4861 54.1315 97.336V96.2999C54.1315 96.1497 54.253 96.0281 54.4031 96.0281H97.5673C97.7174 96.0281 97.8392 96.1497 97.8392 96.2999V97.336C97.8392 97.4861 97.7174 97.6079 97.5673 97.6079Z" fill="#CCD7EE"/>
<path fill-rule="evenodd" clip-rule="evenodd" d="M97.5673 102.873H54.4031C54.253 102.873 54.1315 102.751 54.1315 102.601V101.565C54.1315 101.415 54.253 101.293 54.4031 101.293H97.5673C97.7174 101.293 97.8392 101.415 97.8392 101.565V102.601C97.8392 102.751 97.7174 102.873 97.5673 102.873Z" fill="#CCD7EE"/>
<path fill-rule="evenodd" clip-rule="evenodd" d="M49.4882 123.543H39.6811C39.4809 123.543 39.3186 123.38 39.3186 123.18V113.373C39.3186 113.173 39.4809 113.011 39.6811 113.011H49.4882C49.6883 113.011 49.8506 113.173 49.8506 113.373V123.18C49.8506 123.38 49.6883 123.543 49.4882 123.543Z" fill="#597EF7"/>
<path fill-rule="evenodd" clip-rule="evenodd" d="M43.1329 121.173C43.1124 121.173 43.0919 121.172 43.0712 121.17C42.8985 121.149 42.7472 121.045 42.6665 120.891L41.4225 118.522C41.2873 118.264 41.3866 117.946 41.6442 117.81C41.9028 117.676 42.2207 117.775 42.3554 118.032L43.2425 119.722L46.8834 115.561C47.0757 115.34 47.408 115.319 47.6265 115.511C47.8457 115.703 47.8677 116.035 47.6764 116.254L43.5295 120.993C43.4287 121.108 43.2837 121.173 43.1329 121.173Z" fill="white"/>
<path fill-rule="evenodd" clip-rule="evenodd" d="M97.5673 116.038H54.4031C54.253 116.038 54.1315 115.917 54.1315 115.767V114.731C54.1315 114.58 54.253 114.459 54.4031 114.459H97.5673C97.7174 114.459 97.8392 114.58 97.8392 114.731V115.767C97.8392 115.917 97.7174 116.038 97.5673 116.038Z" fill="#CCD7EE"/>
<path fill-rule="evenodd" clip-rule="evenodd" d="M68.1946 121.304H54.2866C54.2009 121.304 54.1315 121.235 54.1315 121.149V119.88C54.1315 119.794 54.2009 119.725 54.2866 119.725H68.1946C68.2802 119.725 68.3497 119.794 68.3497 119.88V121.149C68.3497 121.235 68.2802 121.304 68.1946 121.304Z" fill="#CCD7EE"/>
<path fill-rule="evenodd" clip-rule="evenodd" d="M83.3977 108.139H54.3547C54.2314 108.139 54.1315 108.039 54.1315 107.916V106.783C54.1315 106.659 54.2314 106.559 54.3547 106.559H83.3977C83.521 106.559 83.621 106.659 83.621 106.783V107.916C83.621 108.039 83.521 108.139 83.3977 108.139Z" fill="#CCD7EE"/>
<path fill-rule="evenodd" clip-rule="evenodd" d="M42.5744 84.9449C40.9256 84.9449 39.5891 83.6083 39.5891 81.9596V46.3199C39.5891 44.6711 40.9256 43.3346 42.5744 43.3346H105.445C107.094 43.3346 108.43 44.6711 108.43 46.3199V81.9596C108.43 83.6083 107.094 84.9449 105.445 84.9449H42.5744Z" fill="#597EF7"/>
<path fill-rule="evenodd" clip-rule="evenodd" d="M72.4927 63.0443C72.2575 63.3633 72.1401 63.7159 72.1401 64.111C72.1401 64.3122 72.1818 64.4636 72.2659 64.5644C72.35 64.6733 72.4759 64.7322 72.6606 64.7322C72.8202 64.7322 72.9797 64.6733 73.1309 64.5558C73.2988 64.4216 73.4164 64.2452 73.4837 64.0351L73.6516 63.4306C73.7188 63.187 73.7525 63.036 73.7525 62.9854C73.7525 62.8594 73.7021 62.7589 73.618 62.683C73.5341 62.5993 73.4333 62.5655 73.3242 62.5655C73.0049 62.5655 72.7279 62.7251 72.4927 63.0443ZM75.3648 61.2722C75.8098 61.7428 76.0366 62.3219 76.0366 63.0107C76.0366 63.5985 75.8434 64.1444 75.474 64.6483C75.0961 65.1439 74.6677 65.3956 74.1807 65.3956C73.8279 65.3956 73.6263 65.2194 73.5676 64.875C73.3242 65.2276 72.9967 65.4042 72.5934 65.4042C72.2154 65.4042 71.9132 65.2781 71.6781 65.0263C71.443 64.7742 71.3254 64.455 71.3254 64.0772C71.3254 63.4894 71.5017 62.9772 71.8713 62.5234C72.2322 62.062 72.6691 61.835 73.173 61.835C73.534 61.835 73.7858 62.0281 73.9371 62.4145L74.0547 61.9946H74.802L74.2311 64.0437C74.147 64.3461 74.105 64.5309 74.105 64.6064C74.105 64.7154 74.1638 64.7742 74.2898 64.7742C74.5249 64.7742 74.7601 64.6146 74.9952 64.3122C75.264 63.9596 75.3982 63.5229 75.3982 63.0189C75.3982 62.4986 75.2136 62.0534 74.8441 61.6922C74.4326 61.289 73.8784 61.096 73.173 61.096C72.4172 61.096 71.821 61.3311 71.3672 61.8097C70.914 62.2803 70.6956 62.8932 70.6956 63.6404C70.6956 64.4636 70.9306 65.0933 71.4093 65.5132C71.846 65.8997 72.4759 66.0927 73.2905 66.0927C73.8363 66.0927 74.2983 66.0004 74.6845 65.8324C75.0373 65.6646 75.3145 65.4377 75.5327 65.1353H76.3222C76.0282 65.6646 75.5915 66.0675 75.0203 66.3363C74.4999 66.5713 73.9287 66.6889 73.2905 66.6889C72.2154 66.6889 71.3757 66.4119 70.7795 65.8576C70.1832 65.3035 69.8893 64.5476 69.8893 63.607C69.8893 62.7337 70.1749 62.0028 70.7543 61.415C71.3757 60.7768 72.1989 60.4578 73.2233 60.4578C74.1304 60.4578 74.8441 60.7266 75.3648 61.2722Z" fill="#597EF7"/>
<path d="M46.0495 63.3037C46.0495 62.8392 46.3914 62.4457 46.8513 62.3807L100.917 54.7409C101.478 54.6617 101.98 55.0972 101.98 55.6639V68.6834C101.98 69.1479 101.638 69.5414 101.178 69.6064L47.1121 77.2462C46.551 77.3254 46.0495 76.8899 46.0495 76.3232V63.3037Z" fill="white" stroke="#F0584D" stroke-width="1.24289"/>
<path d="M53.4521 70.632L51.6759 70.7824L51.597 69.8498L53.3732 69.6994C53.6825 69.6732 53.9282 69.6021 54.1103 69.486C54.2924 69.3698 54.4198 69.2206 54.4925 69.0382C54.568 68.8525 54.5961 68.6456 54.5768 68.4175C54.5586 68.2019 54.4962 68.0042 54.3897 67.8244C54.2861 67.6412 54.1341 67.4999 53.9337 67.4004C53.7334 67.301 53.4785 67.2643 53.1692 67.2905L51.7539 67.4104L52.2522 73.2967L51.0759 73.3963L50.4982 66.5726L53.0899 66.3532C53.6179 66.3085 54.0742 66.3643 54.4587 66.5205C54.8461 66.6734 55.1506 66.9057 55.372 67.2173C55.5933 67.5258 55.7216 67.8894 55.757 68.3081C55.7943 68.7487 55.7295 69.1349 55.5625 69.4669C55.3955 69.7988 55.1332 70.0649 54.7757 70.2651C54.4213 70.465 53.9801 70.5873 53.4521 70.632Z" fill="#F0584D"/>
<path d="M82.2662 68.9232L80.8087 69.0466L80.7391 68.1132L82.1872 67.9906C82.609 67.9549 82.9543 67.8329 83.223 67.6244C83.4948 67.4158 83.6881 67.1335 83.8027 66.7777C83.9204 66.4215 83.9592 66.006 83.919 65.5311L83.8876 65.1609C83.8564 64.7922 83.7866 64.4693 83.6782 64.1921C83.5729 63.9147 83.4308 63.686 83.2519 63.506C83.0762 63.3258 82.8669 63.1956 82.6241 63.1155C82.3845 63.0351 82.1131 63.0077 81.81 63.0334L80.2822 63.1627L80.2029 62.2254L81.7307 62.096C82.1837 62.0577 82.6042 62.0992 82.9921 62.2205C83.3797 62.3388 83.7214 62.5285 84.0173 62.7898C84.3163 63.0509 84.5561 63.3736 84.7365 63.7579C84.9169 64.1423 85.0279 64.5798 85.0695 65.0703L85.1 65.4311C85.1415 65.9217 85.1057 66.3716 84.9924 66.7808C84.8792 67.19 84.6971 67.5484 84.4462 67.856C84.1951 68.1605 83.8854 68.4054 83.5172 68.5908C83.1519 68.7727 82.7349 68.8836 82.2662 68.9232ZM80.8824 62.1679L81.4601 68.9915L80.2838 69.0911L79.7061 62.2675L80.8824 62.1679Z" fill="#F0584D"/>
<path d="M59.6942 66.0607L58.1563 72.1477L56.9237 72.2521L58.9143 65.211L59.7016 65.1444L59.6942 66.0607ZM61.9009 71.8307L59.3568 66.0893L59.1908 65.1876L59.9828 65.1205L63.1381 71.7259L61.9009 71.8307ZM61.5882 69.3083L61.6672 70.2409L57.9554 70.5552L57.8764 69.6225L61.5882 69.3083Z" fill="#F0584D"/>
<path d="M90.3068 60.7471L91.4785 60.6479L91.8645 65.208C91.9085 65.7266 91.8327 66.1704 91.6374 66.5394C91.4421 66.9084 91.1583 67.1983 90.7859 67.4092C90.4164 67.6167 89.9942 67.7405 89.5193 67.7807C89.0288 67.8223 88.584 67.7718 88.1849 67.6294C87.7855 67.4838 87.4601 67.2455 87.2086 66.9143C86.9603 66.5829 86.8142 66.1579 86.7703 65.6392L86.3842 61.0792L87.5558 60.98L87.9419 65.54C87.9697 65.8681 88.0488 66.1336 88.1793 66.3365C88.3095 66.5364 88.4819 66.6775 88.6966 66.76C88.9112 66.8426 89.1592 66.8719 89.4404 66.8481C89.7216 66.8243 89.9595 66.7538 90.1541 66.6366C90.3518 66.5192 90.4981 66.3511 90.5928 66.1322C90.6873 65.9102 90.7207 65.6352 90.6929 65.3071L90.3068 60.7471Z" fill="#F0584D"/>
<path d="M67.7508 68.6071C67.7389 68.4665 67.7064 68.3434 67.6534 68.2377C67.6035 68.1318 67.5217 68.038 67.4078 67.9564C67.2939 67.8748 67.1365 67.8 66.9356 67.7321C66.7376 67.6607 66.4864 67.5923 66.1819 67.5268C65.8485 67.4544 65.5392 67.3688 65.2539 67.2703C64.9715 67.1683 64.7219 67.0447 64.5051 66.8994C64.288 66.751 64.1142 66.5753 63.9837 66.3724C63.853 66.1664 63.7757 65.9227 63.7519 65.6415C63.7284 65.3635 63.7647 65.1055 63.861 64.8676C63.9604 64.6295 64.1109 64.4185 64.3125 64.2347C64.5169 64.0474 64.7637 63.896 65.0529 63.7802C65.3417 63.6614 65.6658 63.5867 66.0251 63.5563C66.5313 63.5134 66.9751 63.5703 67.3565 63.7268C67.741 63.883 68.0451 64.1106 68.2686 64.4095C68.4953 64.7081 68.6248 65.048 68.657 65.4292L67.4901 65.528C67.4711 65.3031 67.4058 65.1088 67.2944 64.9451C67.1859 64.7781 67.0305 64.6528 66.8283 64.5692C66.6293 64.4854 66.3829 64.4559 66.0892 64.4807C65.8112 64.5043 65.5835 64.566 65.4063 64.666C65.2291 64.766 65.1013 64.8916 65.0229 65.043C64.9444 65.1944 64.9129 65.3607 64.9282 65.5419C64.9391 65.67 64.9787 65.7847 65.047 65.8859C65.1151 65.984 65.2139 66.0732 65.3435 66.1535C65.4727 66.2306 65.6328 66.3005 65.8238 66.363C66.0147 66.4255 66.2382 66.4821 66.4942 66.5328C66.8818 66.6132 67.222 66.7103 67.5148 66.824C67.8074 66.9345 68.0547 67.0678 68.2567 67.2237C68.4587 67.3797 68.6159 67.5631 68.7281 67.7738C68.8401 67.9815 68.9077 68.2228 68.931 68.4977C68.9553 68.7852 68.9195 69.0494 68.8235 69.2904C68.7272 69.5282 68.5781 69.7375 68.3763 69.9183C68.1773 70.0956 67.9316 70.2407 67.639 70.3536C67.3494 70.463 67.0217 70.5333 66.6562 70.5642C66.3281 70.592 66.0011 70.5756 65.675 70.5151C65.352 70.4544 65.0533 70.3459 64.7789 70.1898C64.5042 70.0305 64.279 69.823 64.1031 69.5673C63.927 69.3084 63.8236 68.9978 63.793 68.6354L64.9693 68.5358C64.9881 68.7576 65.0416 68.9434 65.1298 69.0933C65.2211 69.2429 65.3397 69.3619 65.4857 69.4502C65.6314 69.5355 65.7968 69.5938 65.982 69.6253C66.1703 69.6566 66.3691 69.6634 66.5784 69.6456C66.8534 69.6224 67.0797 69.5639 67.2574 69.4702C67.4383 69.3762 67.5696 69.2549 67.6514 69.1064C67.7333 68.9579 67.7664 68.7914 67.7508 68.6071Z" fill="#F0584D"/>
<path d="M98.2148 65.0522L98.2938 65.9848L94.6711 66.2915L94.5921 65.3589L98.2148 65.0522ZM94.4261 59.4397L95.0038 66.2633L93.8275 66.3629L93.2498 59.5393L94.4261 59.4397ZM97.484 62.0507L97.5617 62.9692L94.4124 63.2359L94.3346 62.3173L97.484 62.0507ZM97.6926 59.1632L97.772 60.1005L94.1727 60.4052L94.0934 59.4679L97.6926 59.1632Z" fill="#F0584D"/>
<path d="M72.6917 63.0565L73.2694 69.8801L72.1024 69.9789L71.5247 63.1553L72.6917 63.0565ZM74.8334 62.8752L74.9128 63.8125L69.4811 64.2724L69.4017 63.3351L74.8334 62.8752Z" fill="#F0584D"/>
<path d="M207.17 189.767C207.17 189.837 160.976 189.887 104.005 189.887C47.0336 189.887 0.830078 189.832 0.830078 189.767C0.830078 189.703 47.0151 189.647 104.005 189.647C160.994 189.647 207.17 189.703 207.17 189.767Z" fill="#263238"/>
<path d="M136.539 48.0401C144.04 36.5111 140.775 21.0841 129.246 13.5828C117.717 6.08145 102.29 9.3465 94.7891 20.8755C87.2878 32.4044 90.5529 47.8315 102.082 55.3328C113.611 62.8341 129.038 59.569 136.539 48.0401Z" fill="white"/>
<path d="M135.955 59.1411C135.955 59.1411 135.955 58.8712 136.117 58.4093C136.329 57.7661 136.733 57.2031 137.275 56.7958C137.639 56.5071 138.063 56.3023 138.516 56.196C139.033 56.0908 139.568 56.1388 140.058 56.3339C140.63 56.535 141.127 56.9048 141.485 57.3944C141.842 57.884 142.043 58.4705 142.061 59.0765C142.078 59.6825 141.912 60.2796 141.583 60.7891C141.254 61.2986 140.779 61.6964 140.22 61.9303C139.74 62.1513 139.207 62.2284 138.684 62.1522C138.228 62.0812 137.794 61.9091 137.413 61.6484C136.85 61.2724 136.416 60.7349 136.165 60.1068C136.086 59.8685 136.02 59.6263 135.967 59.381C135.967 59.381 135.967 59.453 135.967 59.579C135.969 59.6601 135.981 59.7407 136.003 59.8189C136.018 59.9272 136.044 60.0338 136.081 60.1368C136.273 60.7012 136.614 61.2037 137.066 61.5919C137.519 61.9801 138.067 62.2399 138.654 62.3442C139.214 62.4357 139.788 62.3584 140.304 62.1222C140.876 61.8702 141.368 61.4655 141.725 60.9526C142.132 60.41 142.342 59.7458 142.322 59.0683C142.303 58.3908 142.054 57.7398 141.617 57.2217C141.233 56.7305 140.72 56.3549 140.136 56.136C139.607 55.9294 139.028 55.8855 138.474 56.01C137.895 56.1497 137.364 56.4412 136.935 56.8545C136.506 57.2678 136.194 57.7879 136.033 58.3613C136.002 58.4672 135.98 58.5756 135.967 58.6852C135.959 58.763 135.959 58.8414 135.967 58.9192C135.955 58.9925 135.951 59.0669 135.955 59.1411Z" fill="#263238"/>
<path d="M130.716 70.3435C130.716 70.3435 130.716 70.1923 130.807 69.9336C130.928 69.5733 131.156 69.2579 131.463 69.0298C131.67 68.8681 131.91 68.7533 132.166 68.6938C132.459 68.6349 132.762 68.6618 133.039 68.7711C133.363 68.8837 133.645 69.0908 133.848 69.3651C134.05 69.6393 134.164 69.9679 134.174 70.3073C134.184 70.6468 134.089 70.9813 133.903 71.2667C133.717 71.552 133.448 71.7749 133.131 71.9059C132.859 72.0297 132.557 72.0729 132.261 72.0302C132.003 71.9904 131.757 71.894 131.541 71.748C131.223 71.5374 130.977 71.2363 130.835 70.8845C130.79 70.751 130.753 70.6153 130.722 70.4779C130.722 70.4779 130.722 70.5182 130.722 70.5888C130.724 70.6343 130.731 70.6794 130.743 70.7232C130.751 70.7839 130.766 70.8436 130.787 70.9013C130.896 71.2174 131.089 71.4989 131.345 71.7163C131.601 71.9338 131.912 72.0793 132.244 72.1377C132.561 72.189 132.887 72.1457 133.179 72.0134C133.503 71.8722 133.781 71.6456 133.984 71.3582C134.214 71.0543 134.333 70.6823 134.322 70.3027C134.311 69.9232 134.17 69.5586 133.923 69.2683C133.705 68.9932 133.414 68.7828 133.084 68.6602C132.784 68.5444 132.456 68.5199 132.142 68.5896C131.815 68.6679 131.514 68.8312 131.271 69.0627C131.028 69.2942 130.851 69.5855 130.76 69.9067C130.742 69.9661 130.73 70.0268 130.722 70.0882C130.718 70.1317 130.718 70.1756 130.722 70.2192C130.715 70.2603 130.713 70.302 130.716 70.3435Z" fill="#263238"/>
<path d="M119.814 59.2734C119.814 59.2734 119.676 59.2734 119.406 59.3093L118.207 59.4353L117.337 59.5313C117.013 59.5313 116.659 59.5313 116.275 59.5313H115.039C114.811 59.539 114.582 59.529 114.356 59.5013L113.636 59.4353C111.223 59.2482 108.853 58.6961 106.606 57.7978C103.631 56.6191 100.911 54.8801 98.5922 52.6753L97.6145 51.7396C97.3086 51.4037 97.0147 51.0498 96.7148 50.7019L96.2529 50.168C96.0972 49.9921 95.951 49.8078 95.815 49.6162L94.9933 48.4765C94.8553 48.2786 94.7114 48.0806 94.5734 47.8767L94.2135 47.2349C93.9676 46.809 93.7216 46.3711 93.4757 45.9332C93.2298 45.4954 93.0558 45.0095 92.8399 44.5476C92.7379 44.3137 92.636 44.0738 92.528 43.8399C92.48 43.7199 92.42 43.6059 92.378 43.48L92.2521 43.1141C91.8907 42.115 91.5962 41.0931 91.3703 40.055C91.2624 39.5271 91.1244 38.9993 91.0404 38.4594C90.9564 37.9196 90.9145 37.3677 90.8545 36.8159C90.8245 36.54 90.7765 36.2641 90.7705 35.9821C90.7645 35.7002 90.7705 35.4183 90.7705 35.1364C90.7705 34.5726 90.7705 34.0087 90.7705 33.4389C90.8338 32.2812 90.9741 31.129 91.1904 29.9899L91.3523 29.1201C91.3523 28.9762 91.4003 28.8322 91.4363 28.6883L91.5623 28.2624C91.7242 27.6626 91.8922 27.1167 92.0601 26.5409C92.2281 25.9651 92.504 25.4192 92.7199 24.8554C92.8399 24.5735 92.9359 24.2556 93.0738 24.0096L93.4997 23.1939C94.0619 22.0879 94.6992 21.0217 95.4071 20.0028L96.6068 18.5212L96.9007 18.1493C97.0027 18.0294 97.1166 17.9154 97.2246 17.8014L97.8844 17.1116L98.5502 16.4158L99.276 15.816L100.014 15.2162L100.38 14.8983C100.506 14.8023 100.644 14.7123 100.776 14.6164L102.371 13.4887L103.991 12.439C108.748 9.89902 114.206 8.9848 119.532 9.83577L121.47 10.2017L123.347 10.7475L123.815 10.8855L124.265 11.0654L125.164 11.4253L126.058 11.7852L126.91 12.2291L127.762 12.6669L128.182 12.8829L128.577 13.1408L130.167 14.1665C131.168 14.9012 132.118 15.7028 133.01 16.5658L133.676 17.2016C133.898 17.4116 134.078 17.6575 134.276 17.8854C134.672 18.3473 135.08 18.7912 135.475 19.265L136.507 20.7286L136.765 21.0945C136.843 21.2204 136.915 21.3464 136.987 21.4784L137.425 22.2461C137.995 23.2546 138.5 24.2984 138.936 25.3712C139.14 25.8991 139.302 26.4509 139.482 26.9848C139.572 27.2487 139.656 27.5186 139.746 27.7825C139.836 28.0465 139.872 28.3284 139.938 28.5983C140.058 29.1381 140.172 29.678 140.292 30.2178C140.412 30.7577 140.43 31.2975 140.502 31.8314C140.625 32.8864 140.677 33.9484 140.658 35.0104V35.4003C140.658 35.5323 140.658 35.6582 140.628 35.7902C140.628 36.0481 140.586 36.3001 140.562 36.558C140.514 37.0678 140.496 37.5777 140.418 38.0755C140.34 38.5734 140.232 39.0592 140.142 39.5451C140.094 39.791 140.052 40.031 140.004 40.2709L139.806 40.9727C139.674 41.4406 139.536 41.9024 139.404 42.3583C139.344 42.5861 139.266 42.8088 139.17 43.0241C139.08 43.246 138.996 43.462 138.912 43.6779C138.733 44.1038 138.577 44.5416 138.391 44.9555C138.205 45.3694 137.977 45.7593 137.791 46.1552C136.298 48.9919 134.277 51.5167 131.835 53.593C131.565 53.8209 131.307 54.0549 131.043 54.2708L130.227 54.8706L129.435 55.4285C129.309 55.5185 129.183 55.6144 129.051 55.6924L128.655 55.9203L127.15 56.7841C126.658 57.042 126.166 57.234 125.716 57.4439L125.056 57.7378C124.853 57.8408 124.64 57.9251 124.421 57.9897L123.221 58.3796C122.855 58.4996 122.519 58.6255 122.207 58.7095L121.356 58.9015L120.192 59.1714L119.796 59.2674L120.192 59.1954L121.362 58.9495L122.225 58.7635C122.537 58.6795 122.873 58.5596 123.239 58.4456L124.439 58.0677C124.657 58.002 124.87 57.9178 125.074 57.8158L125.74 57.5279C126.196 57.3179 126.694 57.132 127.18 56.8741L128.697 56.0163L129.099 55.7884C129.237 55.7104 129.357 55.6144 129.489 55.5245L130.281 54.9666L131.109 54.3668C131.373 54.1509 131.637 53.9229 131.907 53.689C134.369 51.6122 136.406 49.0783 137.905 46.2272L138.505 45.0275C138.691 44.6076 138.852 44.1698 139.026 43.7379C139.116 43.5219 139.206 43.306 139.29 43.0841C139.386 42.8662 139.467 42.6417 139.53 42.4123L139.938 41.0207C140.004 40.7867 140.076 40.5528 140.142 40.3129C140.208 40.073 140.232 39.827 140.28 39.5811C140.37 39.0952 140.466 38.6034 140.556 38.0995C140.646 37.5957 140.658 37.0858 140.712 36.576C140.712 36.3181 140.754 36.0541 140.778 35.7962C140.778 35.6702 140.778 35.5383 140.808 35.4063V35.0104C140.83 33.9424 140.778 32.8741 140.652 31.8134C140.586 31.2735 140.55 30.7217 140.448 30.1818C140.346 29.642 140.214 29.0962 140.094 28.5503C140.028 28.2744 139.986 27.9985 139.902 27.7286C139.818 27.4586 139.728 27.1887 139.638 26.9188C139.452 26.3849 139.296 25.8331 139.092 25.2933C138.658 24.2076 138.153 23.1517 137.581 22.1322L137.143 21.3584C137.065 21.2324 136.999 21.0945 136.915 20.9685L136.657 20.6026L135.619 19.1271C135.248 18.6472 134.834 18.1973 134.42 17.7295C134.216 17.5015 134.03 17.2556 133.82 17.0457L133.148 16.4039C132.246 15.5426 131.288 14.7412 130.281 14.0045L128.679 12.9728L128.278 12.7149L127.852 12.487L126.994 12.0491L126.184 11.5813L125.278 11.2154L124.385 10.8495L123.929 10.6695L123.461 10.5316L121.566 9.97972L119.586 9.60783C116.914 9.20608 114.197 9.20608 111.524 9.60783C108.867 10.085 106.297 10.9607 103.901 12.2051L102.191 13.2188L100.584 14.3524C100.452 14.4484 100.314 14.5384 100.182 14.6404L99.8099 14.9583L99.0721 15.6001L98.3403 16.2359L97.6685 16.9377L97.0027 17.6335C96.8947 17.7475 96.7807 17.8614 96.6728 17.9814L96.3789 18.3593L95.1792 19.8528C94.4694 20.8832 93.8282 21.9592 93.2598 23.0739L92.8219 23.8837C92.6779 24.1536 92.582 24.4475 92.462 24.7294C92.2461 25.3293 92.0001 25.8631 91.8022 26.4329L91.2983 28.1724L91.1724 28.5983C91.1364 28.7483 91.1124 28.8922 91.0884 29.0422C91.0344 29.3301 90.9744 29.642 90.9205 29.9119C90.7084 31.0614 90.5722 32.2236 90.5126 33.3909C90.5126 33.9907 90.5126 34.5426 90.5126 35.1064C90.5126 35.3943 90.5126 35.7062 90.5126 35.9582C90.5126 36.2101 90.5726 36.516 90.6025 36.7979C90.6685 37.3557 90.7285 37.9076 90.7945 38.4534C90.8605 38.9993 91.0224 39.5331 91.1304 40.061C91.3575 41.1079 91.6561 42.138 92.0241 43.1441L92.1501 43.516C92.1921 43.6359 92.2521 43.7559 92.3061 43.8758C92.408 44.1158 92.516 44.3497 92.618 44.5896C92.8399 45.0575 93.0198 45.5374 93.2598 45.9812L94.0036 47.2948L94.3754 47.9427C94.5134 48.1466 94.6574 48.3445 94.7953 48.5425L95.6351 49.7421C95.7682 49.9395 95.9166 50.126 96.0789 50.3C96.2349 50.4799 96.3849 50.6599 96.5408 50.8338C96.8467 51.1877 97.1406 51.5476 97.4526 51.8775L98.4363 52.8192C100.787 55.0266 103.543 56.758 106.552 57.9178C108.812 58.8096 111.195 59.3517 113.618 59.5253L114.344 59.5853C114.571 59.603 114.8 59.603 115.027 59.5853H116.269C116.653 59.5853 117.007 59.5853 117.331 59.5553L118.207 59.4533L119.406 59.3034L119.814 59.2734Z" fill="#263238"/>
<path d="M112.154 41.8184C112.154 40.1749 113.462 38.9513 115.327 38.9513C117.193 38.9513 118.477 40.1509 118.477 41.8184C118.408 42.6093 118.045 43.3455 117.46 43.8819C116.874 44.4183 116.109 44.7158 115.316 44.7158C114.522 44.7158 113.757 44.4183 113.171 43.8819C112.586 43.3455 112.223 42.6093 112.154 41.8184ZM112.184 25.0233H118.477L117.421 37.4157H113.222L112.184 25.0233Z" fill="#F0584D"/>
<path d="M101.61 88.7863C99.3601 89.5162 98.9011 91.3362 98.423 92.8566C97.419 96.1238 98.5473 100.959 100.377 103.847C102.207 106.735 104.202 108.204 107.593 108.692C107.704 103.505 107.81 98.3178 107.912 93.1307L101.61 88.7863Z" fill="#FF7A46"/>
<path d="M139.991 93.4174C139.916 93.1726 139.803 92.9413 139.656 92.7321C139.522 92.5217 139.337 92.2731 139.159 91.9575C138.961 91.5902 138.843 91.1849 138.814 90.7686C138.783 90.2457 138.797 89.721 138.856 89.2004C138.929 88.5749 138.918 87.9425 138.824 87.3198C138.619 86.2038 138.06 85.1833 137.23 84.4097C136.918 84.1328 136.585 83.8813 136.233 83.6574C135.871 83.4298 135.548 83.1457 135.276 82.8159C135.029 82.4436 134.831 82.0407 134.687 81.6175C133.93 79.7399 132.529 78.1938 130.734 77.257C130.25 77.0067 129.741 76.8101 129.214 76.6706C128.67 76.5351 128.111 76.4666 127.55 76.4666C127.264 76.4725 126.979 76.4927 126.696 76.5271C126.409 76.5686 126.132 76.6259 125.848 76.6737C125.29 76.7917 124.713 76.7917 124.155 76.6737C123.588 76.5558 123.033 76.355 122.45 76.1956C121.861 76.0411 121.261 75.9345 120.656 75.8769C120.038 75.8125 119.417 75.8008 118.797 75.8418C118.167 75.8867 117.542 75.9935 116.933 76.1606C115.675 76.4945 114.553 77.212 113.723 78.2133L113.487 78.532L113.586 78.4938C111.742 78.1267 109.828 78.4785 108.236 79.4771C106.644 80.4756 105.493 82.0454 105.021 83.8646L105.072 83.8009C104.305 84.1388 103.56 84.5241 102.841 84.9547C102.138 85.3748 101.518 85.9204 101.011 86.5644C100.538 87.201 100.247 87.9548 100.17 88.7446C100.081 89.5095 100.291 90.2791 100.756 90.8929V90.7877C99.897 91.6611 99.3714 92.8083 99.271 94.0294C99.156 95.1217 99.3785 96.223 99.9085 97.185C100.033 97.4069 100.172 97.62 100.326 97.8224C100.48 98.0032 100.624 98.1926 100.756 98.3898C100.883 98.5801 100.958 98.7995 100.976 99.0273C100.986 99.2464 100.979 99.466 100.954 99.6839C100.877 100.485 100.893 101.293 101.002 102.09C101.083 102.737 101.29 103.362 101.611 103.93C101.851 104.346 102.185 104.7 102.586 104.966C102.905 105.185 103.201 105.284 103.36 105.389C103.444 105.445 103.521 105.51 103.59 105.584C103.534 105.499 103.462 105.426 103.376 105.37C103.217 105.243 102.927 105.147 102.615 104.927C102.222 104.66 101.895 104.307 101.658 103.895C101.35 103.332 101.153 102.715 101.078 102.078C100.978 101.287 100.969 100.487 101.053 99.6935C101.081 99.4694 101.089 99.2433 101.078 99.0177C101.058 98.7756 100.978 98.5423 100.846 98.3388C100.71 98.1369 100.565 97.9422 100.409 97.7555C100.26 97.5604 100.126 97.3548 100.007 97.1403C99.4986 96.199 99.2895 95.1247 99.408 94.0613C99.5104 92.8751 100.025 91.7621 100.862 90.9152L100.913 90.8674L100.868 90.8101C100.431 90.2278 100.236 89.4992 100.323 88.7765C100.398 88.0168 100.68 87.2924 101.139 86.6823C101.633 86.0575 102.236 85.5282 102.921 85.1205C103.64 84.6951 104.385 84.3151 105.152 83.9826L105.193 83.9634V83.9188C105.656 82.1491 106.777 80.6229 108.328 79.6519C109.878 78.681 111.741 78.3385 113.535 78.6946L113.595 78.7105L113.637 78.6563L113.866 78.3567C114.67 77.3778 115.758 76.6737 116.98 76.3422C117.577 76.178 118.187 76.0712 118.804 76.0235C119.412 75.983 120.023 75.9937 120.63 76.0554C121.225 76.1142 121.815 76.2208 122.393 76.3741C122.97 76.5207 123.527 76.7311 124.111 76.8522C124.402 76.9152 124.699 76.9483 124.997 76.951C125.291 76.9469 125.584 76.9181 125.873 76.865C126.157 76.814 126.438 76.7566 126.715 76.7152C126.99 76.6808 127.267 76.6606 127.544 76.6546C128.09 76.6546 128.635 76.7199 129.166 76.849C129.68 76.9852 130.178 77.1765 130.651 77.4196C132.42 78.3362 133.802 79.8544 134.55 81.7003C134.7 82.1358 134.906 82.5495 135.165 82.9307C135.446 83.2713 135.781 83.5641 136.156 83.7977C136.504 84.0151 136.834 84.2614 137.141 84.534C137.427 84.7959 137.681 85.09 137.9 85.4105C138.302 86.0002 138.579 86.6664 138.712 87.3676C138.81 87.9812 138.826 88.6049 138.76 89.2227C138.704 89.7521 138.696 90.2855 138.735 90.8164C138.77 91.2409 138.896 91.6528 139.104 92.0245C139.289 92.3432 139.481 92.5855 139.618 92.7927C139.724 92.9486 139.82 93.1116 139.905 93.2803C139.965 93.3568 139.987 93.4174 139.991 93.4174Z" fill="#455A64"/>
<path d="M106.207 84.4007C106.268 84.4872 106.342 84.5636 106.427 84.627C106.646 84.8218 106.885 84.9918 107.141 85.1339C107.532 85.3558 107.968 85.4886 108.416 85.5227C108.987 85.5741 109.556 85.4079 110.01 85.0574L109.87 85.035L110.054 85.2964C110.121 85.3825 110.195 85.4653 110.268 85.5482C110.702 86.0067 111.243 86.3496 111.843 86.5459C112.328 86.7108 112.841 86.7801 113.353 86.7499C113.696 86.726 114.033 86.6519 114.354 86.53C114.468 86.4871 114.576 86.428 114.673 86.3546C114.24 86.4972 113.79 86.584 113.334 86.6128C112.842 86.6247 112.351 86.5458 111.887 86.3801C111.32 86.1856 110.809 85.8577 110.395 85.4239C110.325 85.3442 110.255 85.2677 110.191 85.188L110.016 84.9426L109.956 84.8534L109.876 84.9171C109.465 85.2381 108.949 85.3959 108.429 85.3602C108.005 85.3354 107.591 85.2214 107.214 85.0255C106.555 84.6876 106.229 84.3721 106.207 84.4007Z" fill="#455A64"/>
<path d="M102.809 90.2523C102.809 90.2523 102.809 90.2937 102.809 90.3702C102.839 90.4827 102.885 90.5901 102.946 90.689C103.188 91.036 103.551 91.2804 103.963 91.3743C104.573 91.4895 105.202 91.4264 105.777 91.1926C106.118 91.0813 106.453 90.9525 106.781 90.8069C107.159 90.6538 107.471 90.373 107.664 90.0133L107.702 89.9144L107.552 89.9559C108.114 90.4298 108.745 90.8156 109.423 91.1002C109.995 91.3304 110.621 91.3934 111.227 91.2819C111.63 91.2176 112.009 91.0496 112.327 90.7942C112.412 90.7242 112.49 90.6462 112.56 90.5615C112.604 90.5009 112.627 90.4691 112.62 90.4627C112.614 90.4563 112.509 90.5742 112.282 90.7336C111.962 90.9572 111.592 91.1004 111.205 91.1512C110.629 91.2307 110.043 91.1513 109.509 90.9217C108.852 90.6342 108.24 90.2531 107.692 89.7901L107.594 89.7104L107.543 89.8348C107.543 89.8634 107.523 89.8921 107.511 89.9208C107.335 90.2377 107.056 90.485 106.72 90.6221C106.401 90.7751 106.057 90.8962 105.742 91.0109C105.198 91.2415 104.601 91.3166 104.017 91.2277C103.628 91.1506 103.279 90.9383 103.032 90.6284C102.947 90.5098 102.873 90.3839 102.809 90.2523Z" fill="#455A64"/>
<path d="M103.191 83.4177C102.308 81.2215 100.536 79.2517 98.2251 78.7321C95.9142 78.2126 93.444 79.2326 91.4199 80.5171C89.3959 81.8016 87.4962 83.424 86.6388 85.6425C85.8228 87.7877 86.32 90.548 88.1815 91.8357C86.2435 90.6277 83.276 92.0875 82.8043 94.3697C82.3166 96.7285 84.1557 99.1732 86.4826 99.7884C88.5162 100.33 90.7219 99.6737 92.4112 98.3955C91.7251 99.1814 91.3049 100.164 91.2104 101.203C91.116 102.242 91.3522 103.284 91.8853 104.181C93.1603 106.217 95.8314 107.148 98.1678 106.619C100.504 106.09 102.436 104.276 103.411 102.09L104.256 90.3918C104.214 88.0331 104.074 85.6138 103.191 83.4177Z" fill="#263238"/>
<path d="M100.338 97.7197C99.5988 96.6966 99.2419 95.4463 99.3299 94.1869C99.4178 92.9275 99.9451 91.7389 100.82 90.8285C99.8347 89.5886 100.182 87.6825 101.189 86.4585C102.197 85.2345 103.676 84.5301 105.11 83.8671C105.9 80.2462 109.964 77.6994 113.563 78.5696C115.44 75.8124 119.438 75.3821 122.641 76.3128C123.422 76.5392 124.203 76.8356 125.019 76.8324C125.615 76.7884 126.208 76.7064 126.794 76.587C130.052 76.1471 133.284 78.4421 134.556 81.4733C134.724 81.9718 134.957 82.4464 135.247 82.8854C135.668 83.4304 136.312 83.7492 136.857 84.1603C137.446 84.6209 137.929 85.203 138.272 85.8669C138.616 86.5307 138.813 87.2609 138.849 88.0076C138.903 89.2826 138.502 90.6181 139.034 91.7656C139.302 92.3425 139.783 92.8079 139.99 93.4071C140.593 95.1443 138.667 96.9133 139.034 98.727C139.107 99.0935 139.273 99.4378 139.375 99.798C139.579 100.541 139.509 101.333 139.177 102.029C138.922 102.565 138.508 103.052 138.473 103.645C138.444 104.091 138.645 104.519 138.734 104.962C138.954 106.039 136.631 110.192 135.7 110.779L107.883 111.027C106.833 110.792 105.882 110.236 105.161 109.436C104.441 108.637 103.986 107.634 103.86 106.565C103.871 106.206 103.781 105.852 103.599 105.542C103.383 105.326 103.125 105.158 102.84 105.048C101.049 104.091 100.832 101.628 101.02 99.6003C101.071 99.32 101.071 99.0328 101.02 98.7525C100.867 98.365 100.634 98.0134 100.338 97.7197Z" fill="#263238"/>
<path d="M108.31 97.7583C108.227 92.8369 111.316 87.1792 116.205 84.7727C119.288 83.2554 121.694 83.2459 123.313 83.0546C125.59 82.8371 127.879 83.3174 129.876 84.4316C131.409 84.7918 137.026 89.9363 137.319 95.5207C137.638 101.72 137.794 109.306 137 113.922C135.426 123.207 128.286 124.313 128.286 124.313L128.949 139.747L115.243 150.992L109.901 133.142L108.31 97.7583Z" fill="#FFBF9D"/>
<path d="M128.296 124.313C123.902 124.336 119.588 123.141 115.833 120.861C115.833 120.861 119.081 127.449 128.395 126.681L128.296 124.313Z" fill="#FF9A6C"/>
<path d="M109.713 106.581C109.713 105.889 108.935 104.248 108.253 104.133C106.43 103.814 103.153 103.942 103.057 108.579C102.946 114.919 109.333 113.721 109.349 113.539C109.365 113.357 109.693 108.981 109.713 106.581Z" fill="#FFBF9D"/>
<path d="M107.641 111.2C107.612 111.181 107.526 111.276 107.338 111.359C107.073 111.466 106.777 111.466 106.512 111.359C105.849 111.104 105.301 110.03 105.292 108.886C105.285 108.343 105.4 107.805 105.626 107.311C105.689 107.114 105.8 106.935 105.947 106.79C106.095 106.645 106.276 106.539 106.474 106.479C106.601 106.451 106.733 106.467 106.85 106.525C106.966 106.583 107.058 106.68 107.112 106.798C107.191 106.976 107.15 107.117 107.182 107.117C107.214 107.117 107.322 107.015 107.274 106.75C107.242 106.592 107.156 106.451 107.032 106.348C106.858 106.215 106.641 106.154 106.423 106.176C105.935 106.202 105.486 106.645 105.253 107.133C104.973 107.677 104.831 108.283 104.839 108.895C104.858 110.17 105.476 111.378 106.404 111.659C106.573 111.711 106.752 111.725 106.928 111.699C107.103 111.673 107.271 111.608 107.418 111.509C107.625 111.362 107.66 111.213 107.641 111.2Z" fill="#FF9A6C"/>
<path d="M138.68 94.5804C138.476 92.2759 137.562 90.0925 136.449 88.0653C135.681 86.6628 134.795 85.2922 133.58 84.2404C132.536 83.4021 131.383 82.7074 130.154 82.1749C126.966 80.6704 123.435 79.3922 120.005 80.1636C118.166 80.578 116.499 81.5565 114.905 82.5383C113.645 83.247 112.469 84.096 111.399 85.0691C110.509 85.9768 109.742 86.9969 109.117 88.1035C107.584 90.7077 106.5 93.6242 106.293 96.6395C106.085 99.6549 103.8 102.326 105.569 104.78C105.706 104.968 108.859 105.622 109.075 105.708C109.588 105.912 110.153 105.357 110.146 104.806C110.14 104.254 109.764 103.779 109.356 103.41C110.14 103.381 110.679 102.508 110.631 101.727C110.583 100.946 110.118 100.251 109.652 99.6198C109.584 99.5425 109.537 99.4493 109.515 99.3489C109.483 99.0811 109.786 98.9154 110.019 98.7783C111.147 98.1121 111.275 96.2538 110.245 95.4379C110.612 95.3315 110.955 95.1528 111.252 94.9122C111.549 94.6716 111.795 94.3741 111.976 94.037C112.156 93.6999 112.268 93.3302 112.303 92.9495C112.339 92.5688 112.298 92.1848 112.183 91.8201C112.121 91.7142 112.081 91.5971 112.066 91.4756C112.05 91.3541 112.058 91.2307 112.091 91.1125C112.196 90.9021 112.457 90.8352 112.684 90.7682C113.514 90.4929 114.217 89.9276 114.664 89.1759C115.111 88.4243 115.273 87.5366 115.119 86.6756C115.997 86.7626 116.884 86.7229 117.752 86.5576C118.184 86.4709 118.594 86.2923 118.952 86.0339C119.31 85.7754 119.608 85.4432 119.827 85.0595C120.108 85.5682 120.514 85.997 121.006 86.3058C121.499 86.6147 122.062 86.7934 122.642 86.8252C123.223 86.8571 123.802 86.741 124.325 86.488C124.848 86.2349 125.299 85.853 125.634 85.3783C127.119 85.5169 128.615 85.2848 129.988 84.7025C130.163 85.3911 130.508 86.0248 130.991 86.5455C131.475 87.0661 132.081 87.4572 132.755 87.6828C133.016 87.7689 133.316 87.8485 133.443 88.094C133.507 88.2581 133.527 88.4362 133.501 88.6103C133.456 89.4933 134.059 89.8853 134.546 90.6121C135.034 91.3388 135.885 92.4544 136.736 92.2058C136.644 93.7134 137.45 94.8131 138.722 95.6259L138.68 94.5804Z" fill="#263238"/>
<path d="M116.553 77.2022C116.553 77.2022 116.722 77.1066 117.031 76.9568C117.467 76.7479 117.934 76.6153 118.415 76.5648C119.124 76.4834 119.843 76.5934 120.496 76.8835C121.291 77.2473 121.95 77.8531 122.38 78.6143C122.513 78.8418 122.62 79.0834 122.699 79.3346C122.74 79.4431 122.756 79.5593 122.748 79.675C122.739 79.7907 122.705 79.903 122.648 80.004L122.491 80.2176L122.746 80.1474C123.407 79.971 124.111 80.0602 124.707 80.3961C125.18 80.6648 125.554 81.0797 125.771 81.5786C125.919 81.9082 126.001 82.2632 126.014 82.6241C126.014 82.8791 125.998 83.0193 126.014 83.0193C126.029 83.0193 126.014 82.9875 126.045 82.9205C126.066 82.8229 126.077 82.7237 126.08 82.6241C126.093 82.2501 126.027 81.8776 125.886 81.5308C125.671 80.9967 125.285 80.5486 124.79 80.2558C124.477 80.0731 124.132 79.9537 123.774 79.9045C123.416 79.8553 123.052 79.8772 122.702 79.9689L122.801 80.1124C122.876 79.9901 122.923 79.8524 122.938 79.7094C122.953 79.5665 122.935 79.4221 122.887 79.2868C122.81 79.0204 122.703 78.7637 122.568 78.5218C122.121 77.7238 121.428 77.092 120.592 76.7209C119.909 76.4261 119.158 76.3246 118.421 76.4277C117.929 76.492 117.453 76.6488 117.019 76.8899C116.9 76.9527 116.787 77.0252 116.681 77.1066C116.585 77.164 116.55 77.1959 116.553 77.2022Z" fill="#455A64"/>
<path d="M134.721 102.571C134.581 102.73 133.67 102.102 132.411 102.144C131.151 102.185 130.243 102.848 130.103 102.698C130.033 102.631 130.173 102.351 130.565 102.061C131.099 101.664 131.742 101.442 132.407 101.423C133.063 101.399 133.71 101.584 134.253 101.952C134.651 102.23 134.792 102.501 134.721 102.571Z" fill="#263238"/>
<path d="M122.347 103.467C122.191 103.608 121.353 102.89 120.094 102.804C118.835 102.718 117.863 103.282 117.742 103.123C117.678 103.05 117.844 102.785 118.271 102.521C118.841 102.181 119.502 102.026 120.164 102.078C120.819 102.123 121.443 102.375 121.946 102.798C122.312 103.117 122.424 103.394 122.347 103.467Z" fill="#263238"/>
<path d="M127.266 109.026C127.266 108.956 128.037 108.796 129.303 108.592C129.622 108.548 129.94 108.474 129.975 108.251C130.01 108.028 129.899 107.674 129.73 107.295L128.697 104.872C127.263 101.424 126.211 98.5805 126.351 98.5231C126.492 98.4657 127.767 101.22 129.204 104.668C129.548 105.52 129.88 106.329 130.195 107.107C130.329 107.47 130.552 107.878 130.403 108.366C130.36 108.481 130.291 108.584 130.202 108.669C130.113 108.753 130.006 108.817 129.889 108.854C129.713 108.909 129.529 108.94 129.344 108.946C128.066 109.067 127.272 109.099 127.266 109.026Z" fill="#263238"/>
<path d="M125.312 110.909C124.84 110.996 123.769 111.636 123.492 112.153C123.215 112.669 122.855 113.479 123.122 113.947C123.355 114.349 125.057 113.852 125.774 113.734C126.093 113.679 126.919 114.071 127.03 113.657L127.228 112.184C127.257 111.496 126.804 111.193 126.335 111.002C126.01 110.874 125.655 110.842 125.312 110.909Z" fill="#FF9A6C"/>
<path d="M116.053 96.4317C116.174 96.0875 117.436 96.2437 118.921 96.0556C120.407 95.8675 121.595 95.4532 121.79 95.7592C121.879 95.9058 121.672 96.2309 121.191 96.5656C120.549 96.978 119.822 97.2386 119.065 97.3275C118.308 97.4164 117.54 97.3314 116.821 97.0788C116.276 96.8652 116.008 96.5975 116.053 96.4317Z" fill="#263238"/>
<path d="M129.271 94.5704C129.568 94.325 130.517 94.768 131.716 94.9593C132.914 95.1505 133.947 95.0963 134.145 95.4278C134.224 95.5872 134.024 95.8486 133.539 96.0653C132.881 96.3095 132.169 96.3679 131.48 96.2343C130.79 96.1264 130.144 95.8297 129.612 95.3768C129.233 95.0039 129.137 94.6915 129.271 94.5704Z" fill="#263238"/>
<path d="M126.6 113.759C126.132 113.793 125.667 113.856 125.207 113.947C124.981 114.004 124.759 114.076 124.544 114.164C124.284 114.297 124.004 114.387 123.715 114.429C123.527 114.445 123.339 114.39 123.189 114.276C123.043 114.156 122.938 113.993 122.889 113.81C122.791 113.458 122.816 113.082 122.96 112.746C123.092 112.426 123.279 112.132 123.511 111.875C123.716 111.626 123.959 111.411 124.231 111.238C124.69 110.943 125.225 110.789 125.771 110.795C126.133 110.799 126.49 110.889 126.81 111.059C127.033 111.177 127.129 111.279 127.129 111.295C127.129 111.311 126.992 111.254 126.765 111.177C126.45 111.064 126.115 111.014 125.78 111.031C125.289 111.055 124.813 111.215 124.407 111.493C124.168 111.655 123.953 111.85 123.769 112.073C123.566 112.306 123.401 112.569 123.281 112.854C123.166 113.122 123.141 113.421 123.211 113.705C123.231 113.822 123.292 113.929 123.384 114.004C123.477 114.079 123.593 114.118 123.712 114.113C123.969 114.078 124.219 114.005 124.454 113.896C124.688 113.813 124.928 113.749 125.172 113.705C126.051 113.555 126.609 113.724 126.6 113.759Z" fill="#263238"/>
<path d="M107.644 116.022C109.053 116.022 110.194 114.881 110.194 113.472C110.194 112.064 109.053 110.922 107.644 110.922C106.236 110.922 105.094 112.064 105.094 113.472C105.094 114.881 106.236 116.022 107.644 116.022Z" fill="#455A64"/>
<path d="M118.322 91.7596C118.322 91.7596 118.322 91.6735 118.395 91.5205C118.497 91.3041 118.629 91.1034 118.787 90.9245C119.044 90.6424 119.354 90.4139 119.699 90.2519C120.163 90.0352 120.678 89.9514 121.187 90.0097C121.494 90.0353 121.788 90.1456 122.035 90.3284C122.181 90.4342 122.291 90.5805 122.354 90.7492C122.385 90.8412 122.397 90.9385 122.39 91.0354C122.383 91.1323 122.357 91.2268 122.312 91.3133C122.217 91.4809 122.077 91.619 121.909 91.7123C121.74 91.8056 121.549 91.8507 121.356 91.8424C120.982 91.8344 120.614 91.7476 120.276 91.5875C119.909 91.4254 119.578 91.1908 119.305 90.8977C119.031 90.6046 118.819 90.2592 118.682 89.8822C118.545 89.4716 118.507 89.0345 118.57 88.6063C118.634 88.1782 118.798 87.7712 119.049 87.4183C119.309 87.0695 119.657 86.7951 120.057 86.6223C120.457 86.4495 120.895 86.3844 121.328 86.4333C121.747 86.4687 122.145 86.6374 122.462 86.9147C122.62 87.0548 122.743 87.2293 122.822 87.4246C122.9 87.6301 122.9 87.8567 122.822 88.0621C122.741 88.2574 122.599 88.4216 122.418 88.5307C122.256 88.6314 122.078 88.7026 121.892 88.7411C121.546 88.8177 121.188 88.8177 120.843 88.7411C120.227 88.5979 119.686 88.2309 119.326 87.7115C119.036 87.2816 118.903 86.7649 118.95 86.2485C118.98 85.8656 119.097 85.4947 119.294 85.1647C119.417 84.9582 119.575 84.774 119.759 84.6197C119.887 84.5209 119.963 84.4794 119.97 84.489C119.752 84.7109 119.564 84.9594 119.409 85.2285C119.244 85.5475 119.151 85.8991 119.138 86.258C119.111 86.7282 119.244 87.1937 119.517 87.5776C119.854 88.0356 120.348 88.3542 120.904 88.4733C121.207 88.5386 121.521 88.5386 121.825 88.4733C121.975 88.4517 122.117 88.3947 122.241 88.3072C122.364 88.2196 122.465 88.1039 122.536 87.9697C122.572 87.8193 122.563 87.6616 122.509 87.5164C122.456 87.3712 122.361 87.245 122.236 87.1537C121.965 86.9274 121.631 86.7905 121.28 86.7617C120.904 86.7215 120.525 86.7797 120.179 86.9306C119.833 87.0815 119.533 87.3199 119.307 87.6223C119.088 87.9325 118.946 88.2896 118.89 88.6649C118.835 89.0402 118.868 89.4233 118.988 89.7834C119.107 90.1194 119.292 90.4281 119.533 90.6914C119.773 90.9547 120.063 91.1673 120.387 91.3165C120.686 91.4626 121.011 91.544 121.343 91.5556C121.483 91.5657 121.623 91.5372 121.748 91.4731C121.873 91.409 121.978 91.3118 122.051 91.1922C122.105 91.0784 122.116 90.949 122.082 90.8278C122.048 90.7066 121.971 90.6017 121.866 90.5324C121.659 90.3688 121.411 90.2662 121.149 90.236C120.681 90.1682 120.204 90.2299 119.769 90.4145C119.436 90.5553 119.133 90.7563 118.873 91.0073C118.665 91.2388 118.48 91.4909 118.322 91.7596Z" fill="#263238"/>
<path d="M89.1533 90.3251C89.0192 90.3651 88.8815 90.3918 88.7421 90.4048C88.4712 90.4462 88.0696 90.5068 87.5436 90.5418C86.9022 90.5933 86.2567 90.5427 85.6312 90.392C85.2353 90.2885 84.8571 90.1263 84.5092 89.9107C84.1128 89.6705 83.7761 89.3436 83.5243 88.9545C83.2582 88.5108 83.1121 88.0055 83.1003 87.4883C83.0878 86.9375 83.1489 86.3876 83.282 85.8531C83.5568 84.6605 84.1318 83.5578 84.9523 82.6497C85.4027 82.1594 85.944 81.7611 86.546 81.4767C86.8628 81.3293 87.1969 81.2222 87.5405 81.158C87.8908 81.0974 88.247 81.0781 88.6019 81.1006C89.3382 81.1444 90.0523 81.3699 90.6801 81.7572C90.9999 81.9626 91.2877 82.2139 91.5343 82.5031C91.78 82.8054 91.9729 83.147 92.1049 83.5135L92.2451 83.9024L91.8754 83.7143C91.4331 83.4761 91.069 83.1153 90.8267 82.6752C90.5706 82.2287 90.4212 81.7291 90.39 81.2154C90.3599 80.7847 90.4107 80.3523 90.5399 79.9404C90.6716 79.5393 90.8606 79.1592 91.1008 78.812C91.5765 78.1492 92.1775 77.586 92.8699 77.1546C94.1596 76.3252 95.6446 75.8493 97.1761 75.7744C98.5662 75.6957 99.9487 76.0283 101.151 76.7306C102.195 77.3447 103.049 78.2361 103.618 79.3061C104.016 80.0835 104.225 80.9438 104.228 81.8171C104.231 82.6904 104.029 83.5522 103.637 84.3327C103.425 84.7514 103.151 85.1361 102.824 85.4738C102.739 85.5613 102.649 85.6433 102.553 85.7192C102.49 85.7734 102.458 85.7989 102.455 85.7925C102.553 85.6646 102.659 85.5432 102.773 85.4292C103.075 85.0812 103.327 84.6928 103.522 84.2753C103.83 83.616 104.002 82.9018 104.029 82.1748C104.078 81.2155 103.865 80.261 103.411 79.4145C102.849 78.3946 102.019 77.548 101.011 76.9665C99.8508 76.2996 98.5211 75.9871 97.1857 76.0676C95.7106 76.1484 94.2822 76.6132 93.042 77.4159C92.3874 77.8261 91.8191 78.3598 91.3686 78.9873C90.9104 79.6246 90.6853 80.4 90.7311 81.1835C90.7433 81.6355 90.8717 82.0768 91.1039 82.4648C91.3361 82.8528 91.6644 83.1745 92.0571 83.3988L91.8276 83.5996C91.7085 83.2708 91.5363 82.9639 91.3176 82.6912C91.0933 82.4277 90.8312 82.1989 90.5399 82.0122C89.963 81.6523 89.3059 81.441 88.6274 81.397C87.9838 81.3646 87.3411 81.4772 86.7469 81.7266C86.1527 81.976 85.6222 82.3557 85.1945 82.8378C84.3997 83.7035 83.8391 84.7579 83.5657 85.9009C83.4325 86.4107 83.3671 86.9359 83.3713 87.4628C83.3755 87.9407 83.5028 88.4095 83.741 88.8238C83.97 89.1939 84.2794 89.5077 84.6463 89.7418C84.9742 89.9541 85.3319 90.1163 85.7077 90.2231C86.3171 90.381 86.9467 90.4465 87.5755 90.4175C88.0951 90.4175 88.4967 90.3633 88.7708 90.341C88.8975 90.3233 89.0256 90.3179 89.1533 90.3251Z" fill="#263238"/>
<path d="M94.7033 102.597C94.5645 102.693 94.4069 102.758 94.2411 102.788C93.7993 102.91 93.3414 102.964 92.8833 102.948C92.1982 102.93 91.5238 102.774 90.9007 102.489C90.5226 102.324 90.1746 102.098 89.8711 101.819C89.6952 101.663 89.5548 101.471 89.4597 101.256C89.3645 101.041 89.3168 100.808 89.3197 100.573C89.3665 100.113 89.5624 99.6809 89.8775 99.3426C90.1453 99.0398 90.4445 98.7663 90.77 98.5266C91.3085 98.1149 91.899 97.7762 92.5263 97.5194C92.9466 97.3454 93.3834 97.2141 93.8299 97.1273C93.9913 97.0809 94.1603 97.0668 94.3272 97.0859C94.3272 97.1433 93.6387 97.258 92.6219 97.7234C92.0287 98.0025 91.4703 98.3502 90.9581 98.7593C90.6537 98.9999 90.3749 99.2712 90.1261 99.5689C89.8608 99.8543 89.6943 100.218 89.6512 100.605C89.65 100.794 89.6895 100.981 89.7671 101.153C89.8446 101.325 89.9584 101.478 90.1006 101.602C90.3753 101.863 90.6894 102.078 91.0314 102.24C91.6158 102.523 92.2484 102.694 92.896 102.744C94.0148 102.798 94.6906 102.533 94.7033 102.597Z" fill="#263238"/>
<path d="M123.02 105.519C122.998 105.567 122.641 105.42 122.048 105.28C121.701 105.202 121.35 105.146 120.996 105.114C120.563 105.078 120.128 105.078 119.696 105.114C119.264 105.164 118.838 105.248 118.421 105.366C118.079 105.466 117.746 105.592 117.423 105.742C116.871 105.997 116.553 106.214 116.521 106.17C116.489 106.125 116.77 105.851 117.315 105.532C117.637 105.347 117.976 105.193 118.328 105.073C119.196 104.779 120.119 104.685 121.028 104.799C121.396 104.844 121.759 104.926 122.112 105.041C122.701 105.261 123.02 105.484 123.02 105.519Z" fill="#FF9A6C"/>
<path d="M149.406 190L145.741 180.773L148.09 167.067L148.727 158.967C148.609 153.743 148.166 149.708 146.008 144.943L139.315 128.39L131.129 130.621C130.913 129.569 130.564 128.549 130.093 127.584C128.563 124.677 108.785 125.671 107.507 126.707C106.694 127.373 106.293 129.77 106.108 131.428L99.2262 131.393L91.1173 152.232C91.3755 152.806 96.3766 159.484 96.3766 159.484L101.346 186.95L99.7521 189.819L149.406 190Z" fill="#FF7A46"/>
<path d="M109.314 134.606C109.261 134.506 109.223 134.398 109.2 134.287C109.114 133.994 109.045 133.696 108.992 133.395C108.641 131.393 108.857 129.333 109.614 127.447C109.727 127.164 109.856 126.887 110 126.618C110.044 126.515 110.103 126.418 110.175 126.331C110.201 126.331 109.984 126.771 109.722 127.492C109.037 129.373 108.827 131.394 109.11 133.376C109.209 134.137 109.334 134.6 109.314 134.606Z" fill="#263238"/>
<path d="M114.788 134.883C114.744 134.773 114.714 134.657 114.698 134.539C114.651 134.316 114.596 133.987 114.545 133.583C114.419 132.525 114.364 131.46 114.38 130.395C114.38 129.149 114.459 128.024 114.517 127.208L114.596 126.251C114.599 126.133 114.616 126.015 114.647 125.901C114.661 126.018 114.661 126.137 114.647 126.255C114.647 126.484 114.647 126.812 114.622 127.211C114.596 128.027 114.542 129.152 114.533 130.398C114.518 131.462 114.558 132.526 114.651 133.586C114.733 134.379 114.813 134.877 114.788 134.883Z" fill="#263238"/>
<path d="M120.694 133.857C120.687 133.455 120.702 133.052 120.738 132.652C120.79 131.686 120.79 130.717 120.738 129.751C120.68 128.785 120.54 127.825 120.321 126.883C120.152 126.162 120.002 125.726 120.031 125.716C120.087 125.809 120.131 125.908 120.161 126.012C120.267 126.288 120.359 126.569 120.435 126.854C120.69 127.791 120.847 128.753 120.904 129.723C120.957 130.695 120.941 131.669 120.856 132.639C120.824 133.012 120.789 133.312 120.757 133.519C120.753 133.634 120.732 133.748 120.694 133.857Z" fill="#263238"/>
<path d="M126.243 134.606C126.214 134.606 126.38 134.134 126.562 133.366C126.794 132.366 126.879 131.337 126.813 130.312C126.737 129.29 126.504 128.285 126.125 127.332C125.829 126.599 125.589 126.172 125.618 126.156C125.693 126.245 125.756 126.342 125.806 126.446C125.965 126.718 126.108 126.999 126.233 127.288C126.653 128.242 126.904 129.262 126.976 130.303C127.049 131.343 126.948 132.388 126.676 133.395C126.598 133.699 126.501 133.998 126.386 134.29C126.351 134.401 126.303 134.507 126.243 134.606Z" fill="#263238"/>
<path d="M131.573 134.149C131.499 133.835 131.451 133.515 131.429 133.193C131.356 132.607 131.257 131.794 131.066 130.914C130.875 130.035 130.626 129.254 130.447 128.683C130.335 128.382 130.247 128.073 130.183 127.759C130.334 128.042 130.46 128.339 130.559 128.645C130.835 129.371 131.059 130.117 131.228 130.876C131.388 131.637 131.495 132.408 131.547 133.184C131.586 133.504 131.595 133.827 131.573 134.149Z" fill="#263238"/>
<path d="M98.2096 98.3766L98.6813 95.1063C98.6813 95.1063 98.8025 92.6488 98.2096 91.4216C97.6167 90.1944 98.353 89.5378 99.8256 90.6821C101.298 91.8264 101.464 92.8113 101.464 92.8113C101.464 92.8113 103.676 86.6691 104.495 85.034C105.314 83.3988 107.444 80.444 107.444 80.444C107.444 80.444 110.8 75.2868 111.045 75.2039C111.291 75.121 111.865 75.121 111.619 76.0231L112.929 75.1688C112.929 75.1688 114.402 75.7776 113.337 77.7411C112.273 79.7046 110.883 82.5733 110.883 82.5733L110.8 83.9662L114.568 79.3794C114.568 79.3794 116.203 78.6431 115.632 80.6066C115.062 82.5701 113.082 85.6842 113.082 85.6842L112.1 90.6789C112.289 92.0708 112.234 93.4847 111.938 94.8577C111.444 97.1495 108.177 103.872 106.169 104.522C104.161 105.172 98.2096 98.3766 98.2096 98.3766Z" fill="#FFBF9D"/>
<path d="M98.2094 98.3773L98.2954 98.4665L98.5408 98.7311C98.7576 98.9638 99.0827 99.308 99.4971 99.7511C99.9114 100.194 100.453 100.733 101.091 101.345C101.826 102.047 102.6 102.707 103.408 103.324C103.882 103.688 104.392 104.003 104.928 104.264C105.212 104.404 105.521 104.486 105.837 104.504C106.162 104.484 106.471 104.355 106.713 104.137C107.253 103.671 107.728 103.135 108.125 102.543C108.566 101.921 108.973 101.276 109.346 100.612C110.171 99.1614 110.878 97.6479 111.463 96.0855C111.619 95.6695 111.748 95.2436 111.848 94.8105C111.941 94.3662 112.009 93.9172 112.052 93.4654C112.147 92.533 112.132 91.5926 112.008 90.6637V90.6382C112.327 89.0444 112.645 87.371 112.986 85.6402C113.687 84.5271 114.326 83.3757 114.899 82.1914C115.192 81.5899 115.426 80.9611 115.597 80.314C115.634 80.1542 115.649 79.9902 115.641 79.8263C115.644 79.7517 115.631 79.6774 115.603 79.6082C115.575 79.539 115.533 79.4765 115.479 79.4247C115.354 79.3389 115.201 79.3047 115.052 79.3291C114.888 79.3452 114.728 79.3872 114.577 79.4534L114.609 79.4279L110.841 84.0146L110.679 84.2123L110.695 83.9573C110.695 83.8457 110.695 83.7278 110.714 83.6066C110.736 83.2592 110.755 82.9118 110.777 82.5644L112.69 78.7713L113.165 77.8406C113.245 77.6844 113.315 77.5218 113.388 77.3816C113.453 77.2271 113.504 77.0671 113.541 76.9034C113.624 76.5877 113.609 76.2539 113.496 75.9472C113.373 75.6521 113.146 75.412 112.859 75.2715H112.935L111.625 76.1225L111.45 76.2373L111.546 75.9823C111.609 75.7496 111.648 75.4659 111.504 75.3161C111.464 75.282 111.416 75.2569 111.365 75.2427C111.314 75.2284 111.26 75.2251 111.208 75.2332H111.125H111.083C111.042 75.2757 111.002 75.3204 110.966 75.3671C110.647 75.7687 110.363 76.1926 110.073 76.607C109.499 77.4421 108.948 78.2709 108.406 79.09C108.138 79.498 107.87 79.9028 107.609 80.3045C107.348 80.7061 107.058 81.0886 106.79 81.4774C106.254 82.252 105.741 83.0202 105.27 83.7883C105.034 84.1708 104.807 84.5565 104.61 84.9454C104.412 85.3342 104.214 85.7837 104.055 86.1821C103.736 86.9726 103.418 87.7535 103.128 88.5153C102.541 90.0357 102.009 91.4765 101.518 92.8216L101.454 93.0001L101.406 92.812C101.261 92.3373 101.01 91.9015 100.673 91.537C100.362 91.1801 100.011 90.8594 99.6278 90.5808C99.2965 90.2952 98.8761 90.134 98.4388 90.125C98.3425 90.1371 98.2528 90.1808 98.1839 90.2493C98.1214 90.3216 98.0806 90.4099 98.0659 90.5043C98.0384 90.7002 98.0614 90.8999 98.1329 91.0844C98.1934 91.2693 98.2827 91.4478 98.3528 91.6326C98.4172 91.8119 98.4704 91.995 98.5122 92.1809C98.5855 92.5302 98.6377 92.8835 98.6683 93.2391C98.7222 93.8527 98.736 94.4692 98.7098 95.0846C98.5504 96.1492 98.4293 96.9652 98.3432 97.5199L98.2476 98.1573C98.2253 98.2976 98.2094 98.3709 98.2094 98.3709C98.2094 98.3709 98.2093 98.3008 98.2317 98.1605C98.254 98.0203 98.2763 97.8099 98.3145 97.523L98.6333 95.0719C98.6537 94.4604 98.6345 93.8482 98.5759 93.2391C98.5268 92.4998 98.342 91.7759 98.0309 91.1035C97.951 90.9011 97.9258 90.6813 97.9575 90.466C97.9709 90.348 98.0198 90.2369 98.0978 90.1473C98.1846 90.0631 98.2965 90.0094 98.4165 89.9943C98.8839 89.9927 99.3364 90.159 99.6915 90.4628C100.082 90.7413 100.44 91.062 100.759 91.4191C101.112 91.7973 101.373 92.2508 101.524 92.7451H101.413C101.897 91.3968 102.426 89.9529 103.006 88.4293C103.3 87.6675 103.603 86.8865 103.931 86.0897C104.097 85.6912 104.269 85.2896 104.466 84.8912C104.664 84.4928 104.897 84.1103 105.132 83.7214C105.604 82.95 106.117 82.1787 106.65 81.4009L107.466 80.2311L108.263 79.0135C108.8 78.1954 109.355 77.3667 109.926 76.5273C110.216 76.1098 110.503 75.689 110.825 75.2779C110.867 75.2237 110.913 75.1726 110.962 75.1249C110.982 75.1067 111.005 75.0917 111.029 75.0802H111.083C111.118 75.0708 111.153 75.0644 111.189 75.0611C111.264 75.0507 111.341 75.0567 111.414 75.0787C111.488 75.1007 111.555 75.1382 111.613 75.1886C111.664 75.2445 111.704 75.3104 111.729 75.3822C111.754 75.454 111.765 75.5302 111.759 75.6062C111.757 75.7432 111.737 75.8793 111.699 76.011L111.578 75.9249L112.888 75.0707L112.926 75.0452L112.964 75.0643C113.293 75.2191 113.553 75.4906 113.694 75.8261C113.821 76.1647 113.84 76.5345 113.748 76.8843C113.708 77.056 113.655 77.2244 113.589 77.3879C113.512 77.5473 113.436 77.7067 113.356 77.8629L112.884 78.7904L110.972 82.5771V82.5452C110.95 82.8927 110.93 83.2401 110.908 83.5875C110.908 83.7086 110.908 83.8266 110.889 83.9381L110.742 83.8808C112.017 82.3094 113.292 80.7634 114.51 79.2972H114.526C114.693 79.2267 114.871 79.1836 115.052 79.1697C115.245 79.1406 115.441 79.1874 115.6 79.3004C115.671 79.367 115.727 79.4475 115.766 79.5369C115.804 79.6263 115.824 79.7227 115.823 79.82C115.827 79.9977 115.81 80.1754 115.772 80.3491C115.599 81.0085 115.361 81.6491 115.061 82.2615C114.49 83.4516 113.851 84.6084 113.149 85.7263V85.7008L112.183 90.6892V90.6605C112.309 91.6021 112.324 92.5553 112.228 93.5005C112.181 93.9575 112.111 94.4117 112.017 94.8615C111.911 95.294 111.779 95.7198 111.622 96.1365C111.031 97.7049 110.316 99.2238 109.483 100.679C109.105 101.345 108.693 101.992 108.25 102.617C107.845 103.211 107.36 103.747 106.809 104.21C106.545 104.447 106.207 104.584 105.853 104.599C105.52 104.578 105.195 104.491 104.897 104.344C104.354 104.078 103.839 103.758 103.36 103.388C102.553 102.764 101.782 102.096 101.049 101.386C100.412 100.768 99.8764 100.223 99.4556 99.7734C99.0349 99.3239 98.713 98.9765 98.4994 98.7375L98.2635 98.4633C98.2438 98.4358 98.2257 98.407 98.2094 98.3773Z" fill="#FF9A6C"/>
<path d="M111.422 76.0684C111.34 76.2307 111.245 76.3863 111.138 76.5337L110.322 77.7705C109.408 79.1171 108.595 80.5299 107.89 81.997C107.212 83.4757 106.732 85.0372 106.462 86.6411C106.357 87.2595 106.303 87.7599 106.271 88.1105C106.262 88.2913 106.24 88.4713 106.207 88.6492C106.199 88.6028 106.199 88.5553 106.207 88.509C106.207 88.4165 106.207 88.2795 106.207 88.1042C106.229 87.609 106.277 87.1154 106.35 86.6252C106.587 85.0014 107.056 83.4201 107.743 81.9301C108.448 80.4524 109.279 79.0383 110.226 77.7035C110.583 77.1903 110.88 76.7792 111.087 76.4955C111.188 76.3451 111.3 76.2024 111.422 76.0684Z" fill="#FF9A6C"/>
<path d="M110.966 83.8617C110.985 83.884 110.647 84.1518 110.261 84.6968C109.758 85.4124 109.391 86.214 109.177 87.0619C108.969 87.9151 108.83 88.7839 108.763 89.6597C108.744 90.0254 108.702 90.3896 108.635 90.7498C108.615 90.6534 108.61 90.5545 108.62 90.4565C108.62 90.2653 108.62 89.9912 108.645 89.6533C108.68 88.7653 108.805 87.8832 109.018 87.0205C109.235 86.1518 109.627 85.3364 110.169 84.6235C110.336 84.4117 110.521 84.2154 110.723 84.037C110.795 83.9665 110.876 83.9074 110.966 83.8617Z" fill="#FF9A6C"/>
<path d="M106.663 81.828C106.59 82.1414 106.492 82.4484 106.37 82.746C106.175 83.307 105.917 84.0847 105.668 84.9581C105.42 85.8314 105.232 86.6283 105.104 87.2084C105.049 87.5246 104.973 87.8367 104.875 88.1423C104.879 87.8204 104.917 87.4999 104.989 87.1861C105.261 85.659 105.688 84.1637 106.264 82.7237C106.366 82.4122 106.5 82.1121 106.663 81.828Z" fill="#FF9A6C"/>
<path d="M101.56 92.2634C101.534 92.5127 101.482 92.7585 101.404 92.9965C101.273 93.5065 101.12 94.0962 100.954 94.7464C100.788 95.3967 100.635 95.9896 100.514 96.4995C100.469 96.7465 100.397 96.988 100.301 97.2199C100.305 96.9683 100.338 96.7181 100.399 96.474C100.482 96.0182 100.619 95.3903 100.792 94.705C100.964 94.0197 101.145 93.4045 101.292 92.9647C101.354 92.7213 101.444 92.486 101.56 92.2634Z" fill="#FF9A6C"/>
<path d="M130.097 80.2532C129.947 80.0929 129.743 79.9929 129.525 79.9718C129.306 79.9507 129.087 80.0101 128.91 80.1387C128.732 80.2673 128.607 80.4565 128.558 80.6706C128.51 80.8847 128.541 81.1092 128.646 81.3019C128.646 81.3019 128.662 81.3306 128.672 81.3465C129.59 82.8733 132.72 87.8712 132.72 87.8712L133.485 89.5924C133.485 89.5924 135.133 92.2125 135.439 92.9743C135.745 93.7361 139.936 100.589 140.488 101.198C141.039 101.807 143.943 101.198 143.943 101.198L147.076 95.0143L143.943 87.8712C143.943 87.8712 144.096 86.8448 143.487 87.0711C143.163 87.184 142.854 87.3383 142.569 87.5301L135.652 77.5184C135.652 77.5184 133.848 74.4903 132.548 76.5398C132.548 76.5398 131.027 76.9988 131.888 79.0643C132.471 80.4726 133.266 81.783 134.247 82.9498L135.467 86.1563L130.097 80.2532Z" fill="#FFBF9D"/>
<path d="M130.097 80.2531C130.097 80.2531 130.132 80.285 130.192 80.3487L130.47 80.642L131.528 81.7894L135.506 86.1244L135.423 86.1722C135.053 85.216 134.639 84.129 134.192 82.9688V82.9879C133.422 82.0748 132.765 81.072 132.235 80.0013C132.095 79.7165 131.961 79.4265 131.834 79.1311C131.7 78.8261 131.609 78.5044 131.563 78.1749C131.514 77.83 131.569 77.4786 131.719 77.1645C131.889 76.8434 132.171 76.5969 132.513 76.4728L132.474 76.5015C132.635 76.2332 132.866 76.0131 133.141 75.864C133.29 75.7946 133.454 75.7587 133.619 75.7587C133.784 75.7587 133.947 75.7946 134.097 75.864C134.663 76.1659 135.145 76.6041 135.499 77.139L137.759 80.4443L142.636 87.4982L142.521 87.479C142.825 87.2755 143.154 87.1126 143.5 86.9945C143.554 86.974 143.613 86.9662 143.671 86.9717C143.729 86.9773 143.785 86.996 143.834 87.0264C143.923 87.097 143.985 87.1961 144.01 87.3069C144.043 87.501 144.043 87.6993 144.01 87.8934V87.8488C144.44 88.8273 144.896 89.8728 145.358 90.9279C145.959 92.3027 146.553 93.6584 147.14 94.995L147.156 95.0301L147.14 95.0652C146.063 97.1901 145.018 99.2513 144.007 101.249L143.987 101.281H143.952C143.152 101.449 142.338 101.54 141.52 101.552C141.316 101.548 141.112 101.526 140.912 101.488C140.696 101.455 140.501 101.341 140.367 101.169C140.118 100.85 139.911 100.532 139.697 100.197C138.856 98.8997 138.075 97.6247 137.329 96.3975L136.248 94.587C135.898 94.0138 135.579 93.4222 135.292 92.8148C134.702 91.6578 134.036 90.6059 133.427 89.6274C133.153 89.0122 132.905 88.448 132.666 87.9062L128.678 81.4006C128.553 81.2225 128.488 81.0092 128.493 80.7918C128.507 80.6022 128.582 80.4222 128.707 80.2786C128.8 80.1648 128.918 80.074 129.052 80.0132C129.185 79.9524 129.331 79.9232 129.478 79.928C129.657 79.9398 129.828 80.0053 129.969 80.116C130.055 80.1989 130.097 80.2435 130.097 80.2435C130.097 80.2435 130.049 80.2085 129.96 80.1288C129.82 80.0255 129.652 79.9666 129.478 79.9599C129.339 79.9617 129.202 79.9948 129.078 80.0566C128.953 80.1183 128.844 80.2073 128.758 80.3168C128.642 80.4544 128.574 80.6253 128.563 80.8045C128.561 81.0103 128.624 81.2116 128.745 81.3783L132.784 87.8392L133.549 89.5573C134.164 90.5485 134.824 91.5908 135.436 92.7638C135.723 93.3666 136.043 93.9539 136.392 94.5233L137.476 96.3306C138.225 97.5546 139.005 98.8263 139.85 100.12C140.064 100.439 140.277 100.758 140.51 101.077C140.625 101.218 140.791 101.308 140.972 101.328C141.162 101.365 141.355 101.385 141.549 101.389C142.354 101.375 143.155 101.285 143.943 101.118L143.889 101.16L147.016 94.9759V95.046C146.429 93.7116 145.835 92.3548 145.234 90.9757C144.772 89.9238 144.313 88.8783 143.885 87.8998V87.8807V87.8552C143.911 87.6813 143.905 87.5044 143.87 87.3324C143.831 87.1603 143.726 87.0806 143.57 87.138C143.243 87.2497 142.931 87.4029 142.642 87.5938L142.572 87.6416L142.524 87.5747L137.651 80.5113C136.879 79.3925 136.13 78.2992 135.42 77.2442C135.084 76.7249 134.624 76.2976 134.081 76.001C133.948 75.9331 133.802 75.8962 133.653 75.8928C133.504 75.8895 133.356 75.92 133.22 75.9819C132.968 76.1218 132.758 76.3265 132.611 76.5748V76.5939H132.586C132.281 76.7082 132.027 76.929 131.872 77.2155C131.734 77.506 131.684 77.8307 131.729 78.1494C131.85 78.7743 132.071 79.3758 132.382 79.9312C132.899 80.9927 133.541 81.9889 134.294 82.8987C134.734 84.0621 135.142 85.1458 135.509 86.1084L135.601 86.3539L135.426 86.1594L131.483 81.7958L130.444 80.6324L130.176 80.3137L130.097 80.2531Z" fill="#FF9A6C"/>
<path d="M137.52 89.0509C137.472 89.0509 137.24 88.4134 136.86 87.6644C136.752 87.3366 136.524 87.0613 136.223 86.893C136.087 86.8491 135.944 86.8339 135.802 86.8484C135.786 86.8484 135.962 86.6986 136.261 86.7815C136.43 86.8336 136.581 86.9332 136.695 87.0683C136.822 87.2289 136.929 87.4044 137.013 87.5911C137.269 88.0433 137.44 88.5378 137.52 89.0509Z" fill="#FF9A6C"/>
<path d="M138.929 86.0898C138.842 85.9677 138.768 85.8375 138.706 85.7009C138.572 85.4459 138.387 85.0634 138.126 84.6236C137.629 83.7183 136.896 82.4975 136.003 81.2002C135.111 79.903 134.263 78.7523 133.663 77.9108L132.959 76.9099C132.866 76.7917 132.785 76.6647 132.717 76.5306C132.826 76.6341 132.924 76.7483 133.01 76.8717L133.759 77.8279C134.397 78.6503 135.248 79.7914 136.14 81.0951C136.909 82.2034 137.606 83.3596 138.228 84.5566C138.467 85.0156 138.645 85.3949 138.763 85.6595C138.833 85.7971 138.888 85.9412 138.929 86.0898Z" fill="#FF9A6C"/>
<path d="M140.319 88.4479C140.324 88.015 140.227 87.5871 140.035 87.1993C139.842 86.8114 139.561 86.4747 139.213 86.2167C139.213 86.2167 139.369 86.2454 139.57 86.3888C139.831 86.5799 140.041 86.8315 140.182 87.1219C140.327 87.4096 140.401 87.7275 140.399 88.0495C140.389 88.3076 140.338 88.4511 140.319 88.4479Z" fill="#FF9A6C"/>
<path d="M144.829 91.8654C144.677 91.6668 144.546 91.4532 144.437 91.2279L143.561 89.6342C143.22 89.0158 142.923 88.4453 142.726 88.0404C142.603 87.8208 142.505 87.5876 142.436 87.3456C142.59 87.5429 142.721 87.7567 142.828 87.9831C143.083 88.4421 143.379 88.9776 143.707 89.5768C144.036 90.176 144.345 90.7657 144.543 91.1865C144.665 91.4007 144.761 91.6286 144.829 91.8654Z" fill="#FF9A6C"/>
<path d="M117.315 168.288C117.369 168.259 117.427 168.238 117.487 168.224L117.987 168.071L118.348 167.962C118.478 167.921 118.619 167.867 118.768 167.813C119.068 167.701 119.406 167.59 119.785 167.421L120.369 167.169C120.569 167.083 120.77 166.971 120.984 166.866C121.414 166.662 121.847 166.397 122.306 166.13C123.289 165.518 124.218 164.824 125.083 164.055C125.936 163.274 126.721 162.42 127.429 161.505C127.747 161.074 128.05 160.67 128.296 160.262C128.42 160.061 128.554 159.873 128.662 159.681C128.771 159.49 128.869 159.305 128.981 159.127C129.188 158.779 129.332 158.442 129.475 158.171C129.545 158.027 129.612 157.893 129.666 157.766C129.72 157.638 129.768 157.527 129.81 157.418L130.014 156.937C130.033 156.879 130.061 156.824 130.097 156.775C130.085 156.834 130.068 156.893 130.046 156.95C129.998 157.081 129.94 157.243 129.87 157.444C129.832 157.552 129.787 157.67 129.74 157.798C129.692 157.925 129.625 158.062 129.561 158.209C129.424 158.502 129.287 158.846 129.086 159.197C128.991 159.379 128.889 159.567 128.783 159.761C128.678 159.956 128.547 160.147 128.426 160.351C128.184 160.765 127.878 161.176 127.566 161.626C126.154 163.491 124.394 165.065 122.383 166.26C121.918 166.528 121.478 166.789 121.041 166.987C120.824 167.092 120.62 167.201 120.404 167.287L119.814 167.529C119.441 167.695 119.087 167.797 118.781 167.902C118.628 167.95 118.488 168.001 118.354 168.039L117.987 168.131L117.481 168.256C117.427 168.272 117.371 168.283 117.315 168.288Z" fill="#263238"/>
<path d="M100.992 99.0497C100.39 99.1166 70.2684 113.83 70.109 120.743C69.9497 127.657 72.4933 130.749 75.056 134.679C77.6187 138.609 91.3598 153.373 92.1152 153.644C92.8706 153.915 103.102 139.731 103.102 139.731L98.8853 130.105C98.8853 130.105 97.5275 126.312 93.3105 128.141L89.8489 124.817L108.524 106.9C108.524 106.9 111.986 97.8289 100.992 99.0497Z" fill="#FF7A46"/>
<path d="M95.29 145.908C95.2934 145.855 95.3064 145.803 95.3282 145.755C95.3633 145.64 95.4111 145.5 95.4653 145.331C95.5448 145.109 95.6129 144.884 95.6693 144.655C95.7394 144.391 95.835 144.091 95.8956 143.75C95.9306 143.581 95.9657 143.403 96.0039 143.218C96.0422 143.033 96.0613 142.838 96.0932 142.638C96.1601 142.236 96.1824 141.803 96.2207 141.363C96.3267 139.38 96.0485 137.395 95.4015 135.517C95.2421 135.087 95.0828 134.679 94.9234 134.312C94.8405 134.127 94.7672 133.942 94.6811 133.777C94.5951 133.611 94.509 133.458 94.4293 133.295C94.2795 132.977 94.1106 132.725 93.964 132.486C93.8466 132.283 93.7189 132.086 93.5815 131.896L93.3329 131.523C93.3009 131.482 93.2742 131.437 93.2532 131.389C93.2532 131.389 93.2946 131.424 93.3584 131.504L93.6357 131.858C93.7826 132.043 93.9188 132.237 94.0437 132.438C94.1903 132.671 94.3624 132.929 94.5313 133.238C94.6174 133.391 94.7035 133.557 94.7959 133.719C94.8883 133.882 94.9616 134.07 95.0477 134.255C95.2326 134.621 95.3665 135.036 95.5449 135.466C96.2177 137.357 96.4996 139.366 96.3737 141.369C96.3322 141.828 96.3036 142.268 96.2271 142.67C96.1952 142.874 96.1729 143.068 96.1314 143.256L96.0103 143.788C95.9427 144.094 95.8586 144.397 95.7585 144.694C95.695 144.921 95.6173 145.145 95.5258 145.363C95.4589 145.529 95.4047 145.666 95.3569 145.78C95.3386 145.825 95.3162 145.868 95.29 145.908Z" fill="#263238"/>
<path d="M97.2346 158.604C97.2673 158.524 97.3056 158.446 97.3494 158.372L97.7 157.734L97.9582 157.266C98.0474 157.094 98.1335 156.899 98.2355 156.692C98.4267 156.281 98.669 155.822 98.873 155.283L99.214 154.451C99.332 154.161 99.4276 153.849 99.5328 153.533C99.7686 152.896 99.9535 152.204 100.17 151.474C101.01 148.286 101.29 144.976 100.999 141.692C100.916 140.94 100.852 140.219 100.725 139.556C100.667 139.238 100.623 138.9 100.556 138.6C100.489 138.3 100.422 138.001 100.358 137.72C100.247 137.156 100.084 136.662 99.9663 136.222C99.9025 136.005 99.8483 135.798 99.7878 135.613C99.7272 135.429 99.6666 135.26 99.6156 135.107C99.5168 134.813 99.4371 134.581 99.3766 134.405C99.3452 134.325 99.3217 134.242 99.3065 134.157C99.3468 134.232 99.3809 134.311 99.4085 134.393L99.6762 135.084L99.8643 135.588C99.928 135.773 99.9854 135.977 100.056 136.197C100.183 136.633 100.355 137.127 100.473 137.692L100.683 138.571C100.754 138.89 100.798 139.209 100.862 139.528C100.996 140.194 101.063 140.914 101.152 141.673C101.462 144.974 101.179 148.304 100.317 151.506C100.103 152.239 99.9121 152.937 99.6794 153.571C99.5615 153.89 99.4626 154.209 99.3415 154.493C99.2204 154.776 99.0993 155.057 98.9877 155.325C98.7742 155.86 98.5223 156.319 98.3215 156.727C98.2163 156.931 98.1239 157.125 98.0315 157.298L97.7605 157.76C97.6012 158.024 97.4769 158.238 97.3812 158.397C97.3393 158.471 97.2901 158.54 97.2346 158.604Z" fill="#263238"/>
<path d="M92.8041 122.146C92.7026 122.271 92.5895 122.386 92.4662 122.49C92.2431 122.704 91.9084 123.007 91.4909 123.373C90.6589 124.106 89.4764 125.085 88.1249 126.108C86.7734 127.131 85.5176 128.02 84.5996 128.636C84.1374 128.954 83.7645 129.193 83.5031 129.362C83.3714 129.456 83.2317 129.538 83.0856 129.608C83.2036 129.498 83.3304 129.397 83.4649 129.308L84.5327 128.54C85.4315 127.903 86.6746 126.997 88.0229 125.974C89.3712 124.951 90.5729 123.992 91.4144 123.284L92.4248 122.442C92.5411 122.331 92.6682 122.232 92.8041 122.146Z" fill="#263238"/>
<path d="M139.481 100.325C139.481 100.325 141.25 92.8219 149.362 94.3678C149.362 94.3678 166.845 106.563 171.929 113.04C177.013 119.517 175.493 121.965 174.125 125.305C172.758 128.646 167.951 134.255 159.176 141.545L147.507 150.352C147.507 150.352 137.715 130.246 138.697 128.795C139.172 128.097 154.188 121.614 154.188 121.614C154.188 121.614 153.589 120.926 154.577 119.813L148.581 112.482L139.481 100.325Z" fill="#FF7A46"/>
<path d="M171.843 118.057C171.969 118.279 172.035 118.531 172.034 118.786C172.078 119.408 171.898 120.026 171.527 120.527C171.147 121.021 170.612 121.372 170.007 121.524C169.764 121.604 169.507 121.624 169.255 121.585C169.255 121.556 169.545 121.55 169.975 121.413C170.537 121.236 171.032 120.893 171.393 120.428C171.742 119.954 171.926 119.378 171.916 118.79C171.913 118.331 171.814 118.057 171.843 118.057Z" fill="#263238"/>
<path d="M147.624 168.96C147.624 168.96 147.624 168.928 147.624 168.867C147.624 168.807 147.647 168.714 147.659 168.606C147.695 168.361 147.746 168.023 147.806 167.592C147.95 166.719 148.125 165.444 148.297 163.869C148.616 160.723 148.934 156.306 148.122 151.528C147.727 149.289 147.123 147.093 146.318 144.968C146.123 144.483 145.948 144.012 145.757 143.546L145.164 142.23C145.068 142.016 144.976 141.806 144.88 141.592L144.561 141.003C144.368 140.618 144.18 140.248 143.997 139.893C143.238 138.501 142.604 137.385 142.126 136.636L141.597 135.763L141.463 135.533C141.446 135.507 141.432 135.479 141.422 135.45C141.443 135.473 141.462 135.497 141.479 135.524L141.626 135.743C141.759 135.951 141.944 136.237 142.183 136.601C142.674 137.34 143.328 138.45 144.096 139.836L144.67 140.942L144.988 141.532C145.09 141.736 145.18 141.946 145.278 142.169L145.881 143.489C146.075 143.948 146.254 144.426 146.451 144.914C147.268 147.045 147.879 149.251 148.275 151.499C149.081 156.302 148.762 160.743 148.405 163.882C148.208 165.457 148.023 166.732 147.86 167.605C147.787 168.032 147.726 168.367 147.682 168.609C147.663 168.718 147.647 168.804 147.634 168.871C147.635 168.901 147.632 168.931 147.624 168.96Z" fill="#263238"/>
<path d="M156.281 125.219C156.097 125.084 155.931 124.924 155.791 124.744C155.431 124.329 155.111 123.882 154.834 123.408C154.556 122.933 154.323 122.434 154.136 121.916C154.047 121.706 153.989 121.484 153.964 121.257C154.015 121.241 154.331 122.213 154.978 123.325C155.625 124.438 156.323 125.183 156.281 125.219Z" fill="#263238"/>
<path d="M160.285 125.069C160.187 125.029 160.095 124.977 160.011 124.913C159.842 124.804 159.603 124.638 159.309 124.425C158.726 124.001 157.942 123.386 157.12 122.656C156.297 121.926 155.596 121.212 155.108 120.68C154.866 120.415 154.672 120.195 154.544 120.042C154.471 119.967 154.409 119.882 154.359 119.79C154.654 120.044 154.933 120.316 155.194 120.603C155.701 121.11 156.412 121.805 157.228 122.535C158.044 123.265 158.822 123.889 159.38 124.336C159.695 124.563 159.997 124.807 160.285 125.069Z" fill="#263238"/>
<g opacity="0.3">
<path opacity="0.3" d="M83.3525 129.365C84.8906 129.595 86.4568 129.204 87.7066 128.278C88.9565 127.353 89.7877 125.969 90.0175 124.431C87.8787 125.799 85.3447 127.797 83.3525 129.365Z" fill="black"/>
</g>
<g opacity="0.3">
<path opacity="0.3" d="M147.676 142.425C146.564 139.866 144.597 137.773 142.111 136.506L142.089 136.55C144.957 140.735 146.835 145.66 148.068 150.575C148.882 147.894 148.744 145.015 147.676 142.425Z" fill="black"/>
</g>
<path d="M48.4152 145.045C47.094 145.144 46.1668 146.227 45.5085 147.156C44.8619 148.062 43.8098 148.103 41.8535 148.103C40.4608 148.103 38.549 148.257 38.0288 149.588C37.7866 150.206 37.8067 151.225 39.2409 152.549L39.4181 152.721C40.6206 153.862 41.9352 155.342 42.4718 156.606C44.0536 157.659 46.666 158.527 48.9958 158.527C52.8563 158.527 55.5104 156.427 55.5104 156.427C55.936 154.17 57.7266 151.788 57.9515 151.507L58.0401 151.381C58.6983 150.347 59.599 148.93 58.992 147.824C58.7719 147.422 58.2832 146.945 57.1993 146.945C56.434 146.945 55.6866 147.126 54.9637 147.3C53.6598 147.613 52.8349 147.777 52.2983 147.241C51.1942 146.095 49.8368 144.943 48.4152 145.045ZM48.5585 146.97C49.0517 146.945 49.8424 147.474 50.9185 148.593C52.261 149.935 54.0081 149.513 55.4142 149.175C55.8399 149.073 56.2431 148.999 56.6282 148.945C56.6388 149.251 55.8187 149.885 55.09 150.447C54.5167 150.889 53.867 151.391 53.1692 152.025C52.6345 152.515 51.9839 152.802 51.4859 152.764C51.2031 152.745 50.9857 152.632 50.8148 152.427C49.8738 151.239 49.0491 150.68 48.1419 150.615C46.8438 150.519 45.8464 151.488 44.862 152.419C44.4962 152.763 44.0414 152.899 43.5048 152.817C42.4306 152.657 41.2668 151.709 40.2437 150.18C40.5526 150.104 41.0534 150.033 41.8535 150.033C43.8957 150.033 45.8259 150.034 47.0825 148.276C47.6828 147.428 48.1657 147 48.5585 146.97ZM62.2832 155.635C59.5247 155.665 57.2849 157.2 55.7535 158.249C55.3578 158.521 55.0028 158.765 54.7036 158.936C52.2763 160.276 50.0203 160.443 48.534 160.455C45.6232 160.502 43.6239 159.587 43.6066 159.578L43.3087 159.441L42.9883 159.514C36.1552 161.07 29.6934 169.547 29.6934 176.96C29.6934 187.485 36.5187 189.41 49.9609 189.41C63.4031 189.41 70.2285 187.485 70.2285 176.96C70.2285 169.533 64.3282 162.921 58.0796 160.04C58.4927 159.991 58.9226 159.962 59.369 159.974C60.9921 160.018 62.7234 160.504 64.2191 162.085C64.3062 162.178 64.4106 162.252 64.5264 162.303C64.6421 162.355 64.767 162.384 64.8937 162.387C65.0205 162.391 65.1467 162.369 65.2651 162.324C65.3836 162.279 65.4919 162.211 65.584 162.123C65.6761 162.036 65.7502 161.932 65.8019 161.816C65.8536 161.7 65.882 161.575 65.8855 161.449C65.889 161.322 65.8675 161.196 65.8222 161.077C65.7769 160.959 65.7087 160.851 65.6215 160.758C63.8959 158.934 61.8019 158.226 59.9269 158.078C61.512 157.45 63.3437 157.267 65.4198 158.408C65.8879 158.665 66.4751 158.491 66.7318 158.025C66.9885 157.558 66.8172 156.972 66.3491 156.715C64.899 155.919 63.5371 155.622 62.2832 155.635Z" fill="#597EF7"/>
<path d="M54.0007 171.008L53.5399 172.672H44.7377L45.1985 171.008H54.0007ZM49.7407 181.305L45.0105 175.728L45.0011 174.327H47.2486C47.8317 174.327 48.3113 174.224 48.6874 174.017C49.0698 173.804 49.3551 173.519 49.5432 173.161C49.7313 172.798 49.8253 172.393 49.8253 171.948C49.8253 171.465 49.7375 171.039 49.562 170.669C49.3864 170.299 49.1075 170.011 48.725 169.804C48.3426 169.597 47.8379 169.494 47.211 169.494H44.7471L45.255 167.613H47.211C48.3207 167.613 49.2422 167.779 49.9758 168.111C50.7093 168.444 51.2578 168.926 51.6215 169.559C51.9913 170.193 52.1763 170.958 52.1763 171.854C52.1763 172.638 52.0415 173.33 51.7719 173.932C51.5023 174.528 51.0666 175.011 50.4648 175.381C49.8629 175.744 49.0636 175.97 48.0668 176.058L52.3926 181.183V181.305H49.7407ZM54.0101 167.613L53.5399 169.277H46.3458L46.8066 167.613H54.0101Z" fill="white"/>
<path d="M197.787 74.2933L162.276 57.1658C161.64 56.8592 160.877 57.1259 160.57 57.7615L150.11 79.4494C149.803 80.085 150.07 80.8487 150.705 81.1552L186.216 98.2827C186.851 98.5893 187.615 98.3226 187.922 97.687L198.382 75.9991C198.689 75.3635 198.422 74.5998 197.787 74.2933Z" fill="#F5F5F5"/>
<path d="M197.499 72.2349L161.989 55.1074C161.353 54.8009 160.589 55.0676 160.283 55.7031L149.822 77.3911C149.516 78.0266 149.782 78.7903 150.418 79.0969L185.928 96.2244C186.564 96.5309 187.328 96.2642 187.634 95.6287L198.095 73.9407C198.401 73.3052 198.135 72.5415 197.499 72.2349Z" fill="#E0E0E0"/>
<path d="M196.925 70.3615L161.415 53.234C160.779 52.9275 160.016 53.1942 159.709 53.8297L149.249 75.5176C148.942 76.1532 149.209 76.9169 149.844 77.2235L185.355 94.351C185.99 94.6575 186.754 94.3908 187.061 93.7552L197.521 72.0673C197.828 71.4318 197.561 70.6681 196.925 70.3615Z" fill="#597EF7"/>
<path d="M163.845 61.162C163.697 61.4698 163.368 61.5289 162.903 61.3043L161.985 60.8616L162.84 59.0873L163.708 59.5055C164.152 59.7198 164.29 60.0141 164.157 60.2898C164.12 60.3715 164.061 60.4409 163.986 60.49C163.91 60.5391 163.823 60.5657 163.733 60.5669C163.816 60.6389 163.873 60.7369 163.893 60.8449C163.913 60.953 163.897 61.0647 163.845 61.162ZM163.101 59.5925L162.899 60.0127L163.306 60.2089C163.506 60.3057 163.651 60.2864 163.718 60.1472C163.785 60.008 163.709 59.8855 163.508 59.7887L163.101 59.5925ZM163.451 60.9191C163.524 60.7693 163.443 60.6415 163.232 60.5395L162.753 60.3085L162.541 60.7474L163.02 60.9784C163.234 61.0817 163.38 61.073 163.454 60.9204L163.451 60.9191Z" fill="white"/>
<path d="M165.275 61.9803L164.451 61.5828L164.109 61.8866L163.689 61.684L165.348 60.2969L165.752 60.4918L165.699 62.6534L165.268 62.4456L165.275 61.9803ZM165.297 61.6053L165.344 60.79L164.749 61.3407L165.297 61.6053Z" fill="white"/>
<path d="M168.348 61.7435L167.497 63.5071L167.16 63.3445L166.79 61.8468L166.274 62.9172L165.865 62.7198L166.72 60.9454L167.06 61.1094L167.424 62.6045L167.941 61.534L168.348 61.7435Z" fill="white"/>
<path d="M168.894 63.3332L168.536 63.4672L168.324 63.9061L167.917 63.7099L168.773 61.9355L169.18 62.1317L168.781 62.9587L169.967 62.5112L170.422 62.7307L169.301 63.1799L169.611 64.5269L169.13 64.2946L168.894 63.3332Z" fill="white"/>
<g opacity="0.2">
<path opacity="0.2" d="M184.357 72.5232C184.465 71.9247 184.359 71.3074 184.06 70.7783C183.76 70.2493 183.284 69.8419 182.715 69.6269C182.362 69.4805 181.986 69.3973 181.604 69.381C180.657 69.3532 179.668 70.0145 179.528 70.9494C179.419 71.7151 179.86 72.449 180.365 73.0358C180.871 73.6226 181.585 74.2211 182.396 74.2295C182.787 74.2146 183.167 74.0872 183.488 73.8625C183.809 73.6378 184.059 73.3254 184.207 72.9625C184.271 72.8212 184.321 72.674 184.357 72.5232Z" fill="white"/>
</g>
<g opacity="0.2">
<path opacity="0.2" d="M196.837 70.3189L161.511 53.2805C161.347 53.201 161.168 53.1549 160.985 53.1446C160.803 53.1343 160.62 53.1602 160.447 53.2206C160.275 53.2811 160.116 53.375 159.98 53.497C159.843 53.619 159.733 53.7667 159.654 53.9315L156.6 60.2634C158.078 62.8962 161.01 64.6471 164.003 65.3912C167.538 66.2684 171.221 66.026 174.864 66.1269C178.506 66.2278 182.291 66.7401 185.257 68.8307C188.051 70.8215 189.737 73.9603 191.806 76.7002C192.485 77.6039 193.247 78.4419 194.083 79.2034L197.474 72.173C197.633 71.8424 197.656 71.4623 197.537 71.1152C197.417 70.768 197.166 70.4819 196.837 70.3189Z" fill="white"/>
</g>
<rect x="159.445" y="65.5308" width="32.4712" height="2.88633" transform="rotate(25.7491 159.445 65.5308)" fill="white" fill-opacity="0.6"/>
<rect x="156.405" y="71.8868" width="17.318" height="2.16475" transform="rotate(25.7491 156.405 71.8868)" fill="white" fill-opacity="0.7"/>
</svg>
