<svg width="334" height="398" viewBox="0 0 334 398" fill="none" xmlns="http://www.w3.org/2000/svg">
<circle cx="342.94" cy="191.852" r="191.682" fill="#FFF8DD"/>
<path d="M-500.001 299.207C-500.57 299.362 -500.905 299.949 -500.75 300.517C-500.595 301.086 -500.009 301.422 -499.44 301.267L-500.001 299.207ZM-296.343 396.321L-296.407 397.387L-296.343 396.321ZM-48.2952 251.127L-48.0935 250.079L-48.2952 251.127ZM324.883 224.725L325.004 225.786L324.883 224.725ZM575.829 352.016L575.973 353.073L575.829 352.016ZM795.277 213.228L795.509 212.186L795.277 213.228ZM-492.385 299.638C-491.806 299.528 -491.425 298.97 -491.534 298.391C-491.644 297.811 -492.202 297.43 -492.782 297.54L-492.385 299.638ZM-478.065 296.088C-478.655 296.091 -479.13 296.572 -479.127 297.161C-479.124 297.751 -478.643 298.226 -478.053 298.223L-478.065 296.088ZM-463.745 299.555C-463.166 299.668 -462.606 299.289 -462.494 298.71C-462.382 298.132 -462.76 297.571 -463.339 297.459L-463.745 299.555ZM-449.148 301.623C-449.696 301.407 -450.316 301.677 -450.532 302.225C-450.748 302.774 -450.478 303.394 -449.929 303.61L-449.148 301.623ZM-436.937 309.909C-436.426 310.203 -435.773 310.026 -435.48 309.515C-435.186 309.003 -435.363 308.351 -435.874 308.057L-436.937 309.909ZM-423.538 316.08C-424.016 315.735 -424.683 315.843 -425.028 316.321C-425.373 316.799 -425.265 317.466 -424.787 317.811L-423.538 316.08ZM-413.312 326.742C-412.858 327.118 -412.185 327.055 -411.809 326.601C-411.433 326.147 -411.496 325.474 -411.95 325.098L-413.312 326.742ZM-400.852 334.665C-401.293 334.273 -401.968 334.313 -402.36 334.754C-402.751 335.194 -402.712 335.869 -402.271 336.261L-400.852 334.665ZM-391.412 346.032C-390.975 346.427 -390.3 346.393 -389.904 345.955C-389.509 345.518 -389.543 344.843 -389.981 344.447L-391.412 346.032ZM-379.089 354.168C-379.533 353.78 -380.207 353.825 -380.595 354.269C-380.984 354.713 -380.938 355.387 -380.495 355.776L-379.089 354.168ZM-369.291 365.226C-368.832 365.596 -368.16 365.524 -367.79 365.065C-367.419 364.606 -367.491 363.934 -367.95 363.564L-369.291 365.226ZM-356.362 372.35C-356.844 372.01 -357.51 372.125 -357.85 372.607C-358.189 373.089 -358.074 373.755 -357.593 374.095L-356.362 372.35ZM-345.227 382.049C-344.717 382.344 -344.064 382.17 -343.768 381.66C-343.473 381.149 -343.647 380.496 -344.158 380.201L-345.227 382.049ZM-331.244 386.749C-331.784 386.514 -332.413 386.762 -332.648 387.303C-332.883 387.843 -332.636 388.472 -332.095 388.707L-331.244 386.749ZM-318.218 393.683C-317.651 393.844 -317.061 393.514 -316.9 392.947C-316.74 392.379 -317.069 391.789 -317.637 391.629L-318.218 393.683ZM-303.486 394.56C-304.071 394.482 -304.607 394.893 -304.685 395.478C-304.763 396.062 -304.352 396.599 -303.767 396.677L-303.486 394.56ZM-289.364 397.614C-288.774 397.617 -288.295 397.14 -288.293 396.551C-288.291 395.961 -288.767 395.481 -289.356 395.479L-289.364 397.614ZM-275.761 394.7C-276.346 394.771 -276.763 395.303 -276.692 395.888C-276.622 396.474 -276.09 396.891 -275.504 396.82L-275.761 394.7ZM-261.786 394.216C-261.216 394.066 -260.875 393.483 -261.024 392.913C-261.173 392.342 -261.757 392.001 -262.327 392.15L-261.786 394.216ZM-249.397 387.79C-249.942 388.016 -250.2 388.641 -249.973 389.185C-249.747 389.73 -249.122 389.988 -248.578 389.761L-249.397 387.79ZM-236.093 383.579C-235.583 383.284 -235.408 382.631 -235.702 382.121C-235.997 381.61 -236.65 381.435 -237.161 381.73L-236.093 383.579ZM-225.728 374.213C-226.202 374.563 -226.302 375.232 -225.952 375.706C-225.602 376.18 -224.933 376.281 -224.459 375.93L-225.728 374.213ZM-213.685 367.14C-213.245 366.748 -213.206 366.073 -213.599 365.633C-213.992 365.193 -214.666 365.154 -215.106 365.547L-213.685 367.14ZM-205.208 356.029C-205.619 356.451 -205.609 357.127 -205.186 357.538C-204.763 357.949 -204.088 357.94 -203.677 357.517L-205.208 356.029ZM-194.281 347.312C-193.892 346.869 -193.936 346.195 -194.379 345.806C-194.822 345.417 -195.497 345.461 -195.886 345.904L-194.281 347.312ZM-186.986 335.388C-187.36 335.844 -187.294 336.517 -186.838 336.891C-186.382 337.265 -185.71 337.199 -185.336 336.743L-186.986 335.388ZM-176.658 325.97C-176.291 325.509 -176.368 324.837 -176.83 324.47C-177.292 324.103 -177.963 324.18 -178.33 324.642L-176.658 325.97ZM-169.745 313.813C-170.112 314.274 -170.035 314.946 -169.574 315.313C-169.112 315.68 -168.441 315.604 -168.074 315.142L-169.745 313.813ZM-159.41 304.412C-159.035 303.957 -159.1 303.284 -159.555 302.909C-160.01 302.534 -160.683 302.599 -161.058 303.054L-159.41 304.412ZM-152.068 292.504C-152.459 292.945 -152.419 293.62 -151.978 294.011C-151.536 294.402 -150.862 294.361 -150.47 293.92L-152.068 292.504ZM-141.083 283.881C-140.667 283.463 -140.67 282.787 -141.088 282.372C-141.506 281.956 -142.182 281.958 -142.598 282.376L-141.083 283.881ZM-132.424 272.9C-132.872 273.283 -132.925 273.956 -132.542 274.405C-132.159 274.853 -131.485 274.906 -131.037 274.523L-132.424 272.9ZM-120.189 266.189C-119.702 265.857 -119.576 265.193 -119.908 264.706C-120.24 264.219 -120.904 264.093 -121.391 264.425L-120.189 266.189ZM-109.378 257.345C-109.905 257.608 -110.12 258.249 -109.856 258.776C-109.593 259.304 -108.952 259.518 -108.425 259.255L-109.378 257.345ZM-95.7967 254.122C-95.2347 253.943 -94.9236 253.343 -95.102 252.781C-95.2803 252.219 -95.8805 251.908 -96.4425 252.087L-95.7967 254.122ZM-82.8571 248.951C-83.4404 249.037 -83.8433 249.58 -83.757 250.163C-83.6707 250.747 -83.1279 251.15 -82.5446 251.063L-82.8571 248.951ZM-68.9077 250.104C-68.3181 250.106 -67.8383 249.63 -67.8362 249.041C-67.8341 248.451 -68.3103 247.971 -68.8999 247.969L-68.9077 250.104ZM-55.063 248.941C-55.6475 248.862 -56.1845 249.273 -56.2627 249.857C-56.3408 250.442 -55.9303 250.979 -55.3459 251.057L-55.063 248.941ZM-41.289 253.717C-40.7151 253.852 -40.1402 253.496 -40.0049 252.922C-39.8696 252.348 -40.2251 251.774 -40.799 251.638L-41.289 253.717ZM-26.4929 255.686C-27.0523 255.499 -27.6568 255.802 -27.843 256.361C-28.0293 256.921 -27.7268 257.525 -27.1674 257.712L-26.4929 255.686ZM-13.5106 263.002C-12.9719 263.241 -12.3409 262.999 -12.1012 262.46C-11.8615 261.921 -12.1039 261.29 -12.6425 261.051L-13.5106 263.002ZM0.613464 267.763C0.101379 267.471 -0.55069 267.649 -0.842987 268.161C-1.13528 268.673 -0.957153 269.325 -0.445068 269.617L0.613464 267.763ZM11.9134 277.491C12.3952 277.831 13.0613 277.716 13.4012 277.234C13.741 276.752 13.626 276.086 13.1442 275.746L11.9134 277.491ZM24.896 284.814C24.444 284.435 23.7706 284.495 23.392 284.947C23.0135 285.399 23.0731 286.072 23.5251 286.451L24.896 284.814ZM34.4675 296.245C34.8954 296.65 35.5711 296.632 35.9767 296.204C36.3824 295.776 36.3644 295.101 35.9365 294.695L34.4675 296.245ZM46.4866 305.086C46.0722 304.667 45.3962 304.663 44.9768 305.077C44.5574 305.491 44.5533 306.167 44.9677 306.587L46.4866 305.086ZM55.3298 317.104C55.746 317.522 56.4219 317.523 56.8397 317.107C57.2574 316.691 57.2587 316.015 56.8427 315.597L55.3298 317.104ZM67.4395 325.804C67.003 325.407 66.3278 325.44 65.9313 325.876C65.5349 326.313 65.5673 326.988 66.0038 327.384L67.4395 325.804ZM77.4699 336.841C77.9456 337.19 78.6136 337.087 78.962 336.611C79.3104 336.135 79.2073 335.467 78.7316 335.119L77.4699 336.841ZM91.1136 342.805C90.588 342.538 89.9453 342.747 89.6782 343.273C89.411 343.798 89.6205 344.441 90.1461 344.708L91.1136 342.805ZM104.053 350.154C104.621 350.314 105.21 349.983 105.37 349.415C105.529 348.847 105.198 348.258 104.63 348.099L104.053 350.154ZM118.952 350.65C118.364 350.601 117.848 351.038 117.799 351.625C117.75 352.213 118.187 352.729 118.774 352.778L118.952 350.65ZM133.12 352.87C133.708 352.833 134.155 352.326 134.118 351.737C134.081 351.149 133.574 350.702 132.986 350.739L133.12 352.87ZM146.25 349.005C145.673 349.122 145.299 349.685 145.415 350.263C145.532 350.841 146.095 351.215 146.673 351.098L146.25 349.005ZM159.83 347.446C160.386 347.248 160.675 346.637 160.477 346.081C160.279 345.526 159.669 345.236 159.113 345.435L159.83 347.446ZM171.356 340.074C170.834 340.347 170.631 340.992 170.904 341.515C171.176 342.038 171.821 342.24 172.344 341.968L171.356 340.074ZM184.032 334.91C184.518 334.576 184.642 333.912 184.308 333.426C183.974 332.94 183.309 332.817 182.823 333.151L184.032 334.91ZM193.482 324.998C193.03 325.377 192.973 326.051 193.352 326.502C193.732 326.953 194.405 327.011 194.857 326.631L193.482 324.998ZM204.922 317.479C205.344 317.068 205.353 316.392 204.942 315.969C204.53 315.547 203.854 315.538 203.432 315.949L204.922 317.479ZM212.841 306.297C212.439 306.728 212.463 307.404 212.894 307.806C213.325 308.208 214.001 308.184 214.403 307.753L212.841 306.297ZM223.502 297.695C223.892 297.254 223.851 296.579 223.409 296.188C222.967 295.798 222.292 295.839 221.902 296.281L223.502 297.695ZM230.814 286.106C230.426 286.55 230.472 287.225 230.916 287.613C231.36 288.001 232.034 287.955 232.422 287.511L230.814 286.106ZM241.371 277.38C241.766 276.942 241.73 276.267 241.291 275.873C240.853 275.478 240.178 275.514 239.784 275.953L241.371 277.38ZM249.012 266.004C248.603 266.429 248.615 267.104 249.04 267.514C249.464 267.923 250.14 267.91 250.549 267.486L249.012 266.004ZM260.147 258.035C260.579 257.634 260.605 256.959 260.204 256.526C259.803 256.094 259.128 256.069 258.695 256.47L260.147 258.035ZM269.015 247.597C268.553 247.962 268.474 248.634 268.84 249.096C269.205 249.559 269.877 249.638 270.339 249.272L269.015 247.597ZM281.261 241.479C281.759 241.162 281.905 240.503 281.589 240.005C281.272 239.508 280.612 239.361 280.115 239.678L281.261 241.479ZM292.039 233.042C291.507 233.297 291.282 233.934 291.536 234.466C291.791 234.998 292.428 235.223 292.96 234.969L292.039 233.042ZM305.374 230.012C305.935 229.83 306.243 229.228 306.061 228.667C305.88 228.106 305.278 227.799 304.717 227.98L305.374 230.012ZM317.975 224.661C317.395 224.766 317.009 225.321 317.114 225.902C317.218 226.482 317.774 226.867 318.354 226.763L317.975 224.661ZM331.679 225.211C332.267 225.177 332.717 224.673 332.683 224.084C332.65 223.496 332.145 223.046 331.556 223.079L331.679 225.211ZM344.998 223.119C344.41 223.081 343.902 223.527 343.863 224.115C343.825 224.703 344.27 225.212 344.859 225.25L344.998 223.119ZM358.003 226.995C358.581 227.112 359.144 226.738 359.261 226.16C359.378 225.582 359.004 225.019 358.427 224.902L358.003 226.995ZM371.44 228.467C370.883 228.273 370.274 228.568 370.081 229.125C369.887 229.682 370.181 230.29 370.738 230.484L371.44 228.467ZM382.936 235.625C383.464 235.887 384.104 235.672 384.367 235.144C384.629 234.616 384.413 233.975 383.885 233.713L382.936 235.625ZM395.611 240.38C395.114 240.061 394.454 240.206 394.136 240.702C393.818 241.199 393.962 241.859 394.459 242.177L395.611 240.38ZM405.297 249.842C405.764 250.203 406.434 250.117 406.795 249.65C407.155 249.183 407.069 248.513 406.602 248.153L405.297 249.842ZM416.959 256.747C416.517 256.356 415.843 256.397 415.452 256.839C415.061 257.281 415.103 257.955 415.544 258.346L416.959 256.747ZM425.3 267.417C425.723 267.827 426.399 267.817 426.81 267.394C427.22 266.971 427.211 266.295 426.788 265.885L425.3 267.417ZM436.266 275.381C435.855 274.958 435.179 274.949 434.757 275.36C434.334 275.771 434.325 276.447 434.736 276.87L436.266 275.381ZM443.989 286.515C444.396 286.943 445.071 286.96 445.499 286.553C445.926 286.147 445.943 285.471 445.537 285.044L443.989 286.515ZM454.764 294.729C454.356 294.304 453.68 294.29 453.254 294.698C452.829 295.106 452.815 295.782 453.223 296.208L454.764 294.729ZM462.593 305.796C463.01 306.213 463.685 306.213 464.102 305.796C464.519 305.379 464.519 304.703 464.102 304.286L462.593 305.796ZM473.698 313.55C473.266 313.149 472.59 313.175 472.189 313.607C471.789 314.04 471.814 314.715 472.247 315.116L473.698 313.55ZM482.342 323.989C482.796 324.365 483.469 324.302 483.845 323.848C484.221 323.394 484.158 322.721 483.704 322.345L482.342 323.989ZM494.243 330.448C493.762 330.107 493.096 330.221 492.755 330.702C492.414 331.183 492.528 331.85 493.01 332.19L494.243 330.448ZM504.353 339.461C504.865 339.754 505.517 339.577 505.811 339.066C506.104 338.554 505.927 337.902 505.416 337.609L504.353 339.461ZM517.257 343.555C516.716 343.322 516.087 343.571 515.854 344.113C515.62 344.654 515.869 345.282 516.411 345.516L517.257 343.555ZM529.105 350.084C529.671 350.249 530.263 349.922 530.427 349.356C530.592 348.79 530.266 348.198 529.699 348.034L529.105 350.084ZM542.617 350.885C542.034 350.796 541.489 351.195 541.399 351.778C541.309 352.361 541.709 352.906 542.292 352.996L542.617 350.885ZM555.751 354.207C556.341 354.224 556.832 353.76 556.849 353.17C556.865 352.581 556.401 352.09 555.812 352.073L555.751 354.207ZM569.012 351.693C568.424 351.742 567.988 352.258 568.037 352.846C568.087 353.433 568.603 353.87 569.19 353.82L569.012 351.693ZM582.799 351.934C583.378 351.819 583.753 351.257 583.638 350.678C583.523 350.1 582.961 349.724 582.383 349.839L582.799 351.934ZM595.408 346.396C594.848 346.582 594.546 347.186 594.732 347.746C594.918 348.305 595.522 348.608 596.082 348.422L595.408 346.396ZM608.841 343.268C609.373 343.014 609.599 342.377 609.345 341.845C609.091 341.313 608.453 341.087 607.921 341.341L608.841 343.268ZM619.74 334.824C619.24 335.138 619.089 335.797 619.403 336.296C619.716 336.796 620.375 336.947 620.874 336.633L619.74 334.824ZM632.119 328.748C632.584 328.386 632.669 327.716 632.307 327.25C631.946 326.784 631.275 326.7 630.809 327.061L632.119 328.748ZM641.145 318.312C640.71 318.71 640.68 319.385 641.079 319.82C641.477 320.255 642.152 320.284 642.587 319.886L641.145 318.312ZM652.375 310.298C652.784 309.873 652.771 309.197 652.345 308.788C651.92 308.38 651.244 308.393 650.836 308.818L652.375 310.298ZM660.008 298.798C659.62 299.241 659.664 299.916 660.107 300.304C660.551 300.693 661.225 300.649 661.614 300.206L660.008 298.798ZM670.46 289.79C670.836 289.336 670.772 288.663 670.318 288.287C669.863 287.911 669.19 287.975 668.814 288.429L670.46 289.79ZM677.42 277.863C677.05 278.322 677.122 278.994 677.581 279.365C678.04 279.735 678.712 279.663 679.082 279.204L677.42 277.863ZM687.646 268.603C688.018 268.146 687.949 267.473 687.491 267.101C687.034 266.729 686.362 266.798 685.99 267.255L687.646 268.603ZM694.718 256.742C694.336 257.19 694.389 257.864 694.838 258.247C695.287 258.629 695.961 258.575 696.343 258.127L694.718 256.742ZM705.365 247.963C705.767 247.531 705.743 246.856 705.312 246.454C704.88 246.052 704.205 246.076 703.803 246.507L705.365 247.963ZM713.453 236.795C713.022 237.198 712.999 237.873 713.402 238.304C713.805 238.735 714.48 238.758 714.911 238.355L713.453 236.795ZM725.223 229.593C725.692 229.235 725.782 228.565 725.425 228.096C725.068 227.627 724.398 227.537 723.929 227.895L725.223 229.593ZM735.39 220.271C734.877 220.562 734.698 221.214 734.989 221.726C735.28 222.239 735.932 222.418 736.445 222.127L735.39 220.271ZM748.617 216.453C749.171 216.25 749.455 215.636 749.252 215.083C749.05 214.529 748.436 214.245 747.883 214.448L748.617 216.453ZM761.228 210.886C760.647 210.986 760.257 211.537 760.356 212.119C760.456 212.7 761.008 213.09 761.589 212.991L761.228 210.886ZM774.954 211.903C775.543 211.906 776.023 211.43 776.026 210.84C776.028 210.251 775.552 209.771 774.963 209.768L774.954 211.903ZM788.677 210.891C788.094 210.8 787.549 211.199 787.458 211.781C787.367 212.364 787.766 212.91 788.349 213L788.677 210.891ZM802.703 215.457C803.291 215.51 803.809 215.076 803.861 214.489C803.914 213.902 803.48 213.383 802.893 213.331L802.703 215.457ZM817.8 212.818C817.217 212.907 816.817 213.451 816.905 214.034C816.994 214.617 817.539 215.018 818.121 214.929L817.8 212.818ZM833.03 211.085C833.585 210.886 833.873 210.274 833.673 209.719C833.474 209.164 832.862 208.876 832.307 209.076L833.03 211.085ZM846.023 202.901C845.504 203.18 845.31 203.828 845.589 204.347C845.869 204.866 846.516 205.06 847.035 204.781L846.023 202.901ZM860.077 196.722C860.561 196.385 860.68 195.72 860.343 195.236C860.006 194.752 859.34 194.633 858.856 194.97L860.077 196.722ZM870.844 185.753C870.393 186.132 870.335 186.806 870.715 187.257C871.095 187.708 871.768 187.766 872.219 187.386L870.844 185.753ZM883.522 177.086C883.943 176.672 883.948 175.996 883.535 175.576C883.122 175.156 882.446 175.15 882.025 175.563L883.522 177.086ZM892.412 164.572C892.023 165.015 892.068 165.69 892.512 166.078C892.955 166.467 893.63 166.422 894.018 165.978L892.412 164.572ZM-499.44 301.267C-497.044 300.615 -494.694 300.074 -492.385 299.638L-492.782 297.54C-495.147 297.986 -497.552 298.54 -500.001 299.207L-499.44 301.267ZM-478.053 298.223C-473.105 298.196 -468.347 298.664 -463.745 299.555L-463.339 297.459C-468.075 296.541 -472.973 296.06 -478.065 296.088L-478.053 298.223ZM-449.929 303.61C-445.484 305.358 -441.165 307.482 -436.937 309.909L-435.874 308.057C-440.179 305.586 -444.592 303.414 -449.148 301.623L-449.929 303.61ZM-424.787 317.811C-420.918 320.605 -417.103 323.603 -413.312 326.742L-411.95 325.098C-415.768 321.936 -419.621 318.907 -423.538 316.08L-424.787 317.811ZM-402.271 336.261C-398.662 339.468 -395.053 342.742 -391.412 346.032L-389.981 344.447C-393.617 341.162 -397.235 337.88 -400.852 334.665L-402.271 336.261ZM-380.495 355.776C-376.822 358.988 -373.095 362.157 -369.291 365.226L-367.95 363.564C-371.727 360.518 -375.431 357.368 -379.089 354.168L-380.495 355.776ZM-357.593 374.095C-353.585 376.922 -349.471 379.593 -345.227 382.049L-344.158 380.201C-348.339 377.781 -352.399 375.146 -356.362 372.35L-357.593 374.095ZM-332.095 388.707C-327.629 390.649 -323.011 392.326 -318.218 393.683L-317.637 391.629C-322.332 390.299 -326.859 388.655 -331.244 386.749L-332.095 388.707ZM-303.767 396.677C-301.358 396.997 -298.905 397.235 -296.407 397.387L-296.278 395.255C-298.725 395.107 -301.127 394.873 -303.486 394.56L-303.767 396.677ZM-296.407 397.387C-294.017 397.531 -291.669 397.606 -289.364 397.614L-289.356 395.479C-291.621 395.471 -293.927 395.398 -296.278 395.255L-296.407 397.387ZM-275.504 396.82C-270.746 396.245 -266.18 395.366 -261.786 394.216L-262.327 392.15C-266.627 393.276 -271.099 394.136 -275.761 394.7L-275.504 396.82ZM-248.578 389.761C-244.245 387.96 -240.091 385.887 -236.093 383.579L-237.161 381.73C-241.083 383.994 -245.155 386.026 -249.397 387.79L-248.578 389.761ZM-224.459 375.93C-220.741 373.183 -217.157 370.239 -213.685 367.14L-215.106 365.547C-218.536 368.608 -222.069 371.509 -225.728 374.213L-224.459 375.93ZM-203.677 357.517C-200.468 354.217 -197.344 350.803 -194.281 347.312L-195.886 345.904C-198.929 349.372 -202.029 352.759 -205.208 356.029L-203.677 357.517ZM-185.336 336.743C-182.411 333.181 -179.525 329.578 -176.658 325.97L-178.33 324.642C-181.194 328.246 -184.072 331.839 -186.986 335.388L-185.336 336.743ZM-168.074 315.142C-165.195 311.524 -162.315 307.936 -159.41 304.412L-161.058 303.054C-163.974 306.592 -166.863 310.19 -169.745 313.813L-168.074 315.142ZM-150.47 293.92C-147.397 290.453 -144.276 287.094 -141.083 283.881L-142.598 282.376C-145.824 285.623 -148.973 289.012 -152.068 292.504L-150.47 293.92ZM-131.037 274.523C-127.532 271.528 -123.925 268.736 -120.189 266.189L-121.391 264.425C-125.199 267.021 -128.867 269.861 -132.424 272.9L-131.037 274.523ZM-108.425 259.255C-104.382 257.239 -100.182 255.513 -95.7967 254.122L-96.4425 252.087C-100.939 253.513 -105.242 255.282 -109.378 257.345L-108.425 259.255ZM-82.5446 251.063C-78.1863 250.418 -73.6477 250.087 -68.9077 250.104L-68.8999 247.969C-73.7449 247.952 -78.3906 248.29 -82.8571 248.951L-82.5446 251.063ZM-55.3459 251.057C-53.1059 251.356 -50.8235 251.728 -48.4969 252.176L-48.0935 250.079C-50.459 249.624 -52.7816 249.245 -55.063 248.941L-55.3459 251.057ZM-48.4969 252.176C-46.0354 252.649 -43.6337 253.164 -41.289 253.717L-40.799 251.638C-43.1728 251.079 -45.6034 250.558 -48.0935 250.079L-48.4969 252.176ZM-27.1674 257.712C-22.3605 259.312 -17.8185 261.085 -13.5106 263.002L-12.6425 261.051C-17.0133 259.106 -21.6199 257.308 -26.4929 255.686L-27.1674 257.712ZM-0.445068 269.617C3.91663 272.107 8.02115 274.745 11.9134 277.491L13.1442 275.746C9.20038 272.964 5.03845 270.289 0.613464 267.763L-0.445068 269.617ZM23.5251 286.451C27.3501 289.654 30.9778 292.936 34.4675 296.245L35.9365 294.695C32.4225 291.364 28.7617 288.051 24.896 284.814L23.5251 286.451ZM44.9677 306.587C48.4802 310.142 51.9225 313.683 55.3298 317.104L56.8427 315.597C53.4348 312.176 50.0201 308.663 46.4866 305.086L44.9677 306.587ZM66.0038 327.384C69.7224 330.762 73.5145 333.944 77.4699 336.841L78.7316 335.119C74.8516 332.277 71.1183 329.146 67.4395 325.804L66.0038 327.384ZM90.1461 344.708C94.5012 346.922 99.1074 348.766 104.053 350.154L104.63 348.099C99.8278 346.75 95.3521 344.959 91.1136 342.805L90.1461 344.708ZM118.774 352.778C121.19 352.979 123.682 353.083 126.256 353.083V350.948C123.739 350.948 121.307 350.846 118.952 350.65L118.774 352.778ZM126.256 353.083C128.591 353.083 130.878 353.011 133.12 352.87L132.986 350.739C130.789 350.877 128.547 350.948 126.256 350.948V353.083ZM146.673 351.098C151.254 350.173 155.631 348.943 159.83 347.446L159.113 345.435C155.008 346.898 150.729 348.101 146.25 349.005L146.673 351.098ZM172.344 341.968C176.401 339.852 180.287 337.484 184.032 334.91L182.823 333.151C179.142 335.68 175.33 338.002 171.356 340.074L172.344 341.968ZM194.857 326.631C198.31 323.725 201.655 320.659 204.922 317.479L203.432 315.949C200.196 319.1 196.889 322.129 193.482 324.998L194.857 326.631ZM214.403 307.753C217.474 304.458 220.498 301.092 223.502 297.695L221.902 296.281C218.906 299.67 215.895 303.021 212.841 306.297L214.403 307.753ZM232.422 287.511C235.391 284.114 238.364 280.725 241.371 277.38L239.784 275.953C236.766 279.309 233.784 282.708 230.814 286.106L232.422 287.511ZM250.549 267.486C253.68 264.237 256.87 261.074 260.147 258.035L258.695 256.47C255.384 259.54 252.165 262.732 249.012 266.004L250.549 267.486ZM270.339 249.272C273.855 246.494 277.487 243.883 281.261 241.479L280.115 239.678C276.272 242.125 272.582 244.778 269.015 247.597L270.339 249.272ZM292.96 234.969C296.927 233.073 301.056 231.408 305.374 230.012L304.717 227.98C300.306 229.407 296.088 231.107 292.039 233.042L292.96 234.969ZM318.354 226.763C320.524 226.371 322.74 226.044 325.004 225.786L324.762 223.664C322.452 223.928 320.19 224.262 317.975 224.661L318.354 226.763ZM325.004 225.786C327.267 225.527 329.491 225.337 331.679 225.211L331.556 223.079C329.328 223.207 327.064 223.401 324.762 223.664L325.004 225.786ZM344.859 225.25C349.4 225.548 353.775 226.139 358.003 226.995L358.427 224.902C354.105 224.028 349.635 223.423 344.998 223.119L344.859 225.25ZM370.738 230.484C374.941 231.945 379 233.671 382.936 235.625L383.885 233.713C379.874 231.721 375.732 229.96 371.44 228.467L370.738 230.484ZM394.459 242.177C398.166 244.552 401.771 247.119 405.297 249.842L406.602 248.153C403.033 245.396 399.376 242.792 395.611 240.38L394.459 242.177ZM415.544 258.346C418.847 261.267 422.092 264.302 425.3 267.417L426.788 265.885C423.561 262.752 420.291 259.694 416.959 256.747L415.544 258.346ZM434.736 276.87C437.833 280.052 440.91 283.278 443.989 286.515L445.537 285.044C442.457 281.805 439.372 278.572 436.266 275.381L434.736 276.87ZM453.223 296.208C456.321 299.436 459.438 302.643 462.593 305.796L464.102 304.286C460.962 301.147 457.856 297.951 454.764 294.729L453.223 296.208ZM472.247 315.116C475.547 318.175 478.905 321.144 482.342 323.989L483.704 322.345C480.302 319.529 476.974 316.586 473.698 313.55L472.247 315.116ZM493.01 332.19C496.682 334.79 500.457 337.226 504.353 339.461L505.416 337.609C501.584 335.411 497.866 333.012 494.243 330.448L493.01 332.19ZM516.411 345.516C520.499 347.28 524.724 348.815 529.105 350.084L529.699 348.034C525.408 346.79 521.267 345.286 517.257 343.555L516.411 345.516ZM542.292 352.996C546.627 353.663 551.108 354.075 555.751 354.207L555.812 352.073C551.257 351.944 546.863 351.539 542.617 350.885L542.292 352.996ZM569.19 353.82C571.416 353.634 573.676 353.386 575.973 353.073L575.685 350.958C573.424 351.265 571.2 351.509 569.012 351.693L569.19 353.82ZM575.973 353.073C578.292 352.758 580.567 352.377 582.799 351.934L582.383 349.839C580.193 350.274 577.961 350.648 575.685 350.958L575.973 353.073ZM596.082 348.422C600.508 346.948 604.755 345.219 608.841 343.268L607.921 341.341C603.911 343.256 599.747 344.951 595.408 346.396L596.082 348.422ZM620.874 336.633C624.765 334.192 628.506 331.552 632.119 328.748L630.809 327.061C627.248 329.825 623.565 332.424 619.74 334.824L620.874 336.633ZM642.587 319.886C645.949 316.804 649.205 313.596 652.375 310.298L650.836 308.818C647.692 312.089 644.469 315.265 641.145 318.312L642.587 319.886ZM661.614 300.206C664.619 296.778 667.561 293.294 670.46 289.79L668.814 288.429C665.925 291.922 662.997 295.39 660.008 298.798L661.614 300.206ZM679.082 279.204C681.954 275.643 684.799 272.1 687.646 268.603L685.99 267.255C683.139 270.757 680.288 274.307 677.42 277.863L679.082 279.204ZM696.343 258.127C699.322 254.632 702.322 251.231 705.365 247.963L703.803 246.507C700.733 249.804 697.712 253.229 694.718 256.742L696.343 258.127ZM714.911 238.355C718.263 235.222 721.691 232.285 725.223 229.593L723.929 227.895C720.332 230.637 716.849 233.621 713.453 236.795L714.911 238.355ZM736.445 222.127C740.349 219.908 744.396 217.999 748.617 216.453L747.883 214.448C743.542 216.038 739.389 217.998 735.39 220.271L736.445 222.127ZM761.589 212.991C765.853 212.26 770.3 211.883 774.954 211.903L774.963 209.768C770.187 209.748 765.617 210.134 761.228 210.886L761.589 212.991ZM788.349 213C790.536 213.341 792.768 213.763 795.045 214.27L795.509 212.186C793.188 211.669 790.912 211.238 788.677 210.891L788.349 213ZM795.045 214.27C797.605 214.84 800.16 215.231 802.703 215.457L802.893 213.331C800.44 213.112 797.977 212.735 795.509 212.186L795.045 214.27ZM818.121 214.929C823.207 214.154 828.192 212.826 833.03 211.085L832.307 209.076C827.582 210.776 822.732 212.067 817.8 212.818L818.121 214.929ZM847.035 204.781C851.59 202.328 855.953 199.594 860.077 196.722L858.856 194.97C854.79 197.802 850.496 200.492 846.023 202.901L847.035 204.781ZM872.219 187.386C876.402 183.866 880.195 180.357 883.522 177.086L882.025 175.563C878.732 178.801 874.98 182.273 870.844 185.753L872.219 187.386ZM894.018 165.978C895.597 164.175 896.821 162.707 897.651 161.688C898.066 161.179 898.383 160.781 898.597 160.511C898.704 160.375 898.785 160.271 898.839 160.201C898.867 160.166 898.888 160.139 898.902 160.12C898.909 160.111 898.914 160.104 898.918 160.099C898.92 160.097 898.921 160.095 898.922 160.094C898.923 160.093 898.923 160.093 898.924 160.092C898.924 160.092 898.924 160.092 898.924 160.092C898.924 160.092 898.924 160.092 898.924 160.092C898.924 160.092 898.924 160.091 898.077 159.442C897.229 158.793 897.229 158.793 897.229 158.793C897.229 158.793 897.229 158.792 897.229 158.793C897.229 158.793 897.229 158.793 897.229 158.793C897.229 158.793 897.229 158.793 897.229 158.793C897.228 158.794 897.227 158.796 897.225 158.798C897.223 158.802 897.218 158.808 897.212 158.816C897.199 158.832 897.18 158.857 897.154 158.89C897.102 158.957 897.024 159.056 896.921 159.188C896.714 159.45 896.404 159.839 895.996 160.339C895.18 161.34 893.973 162.789 892.412 164.572L894.018 165.978Z" fill="#1B1DC7" fill-opacity="0.21"/>
</svg>
