<svg width="84" height="84" viewBox="0 0 84 84" fill="none" xmlns="http://www.w3.org/2000/svg">
<path d="M46.089 76.9657L12.4123 76.9914L12.3994 76.0885L37.1951 75.1021C41.9023 74.9221 46.4714 74.6779 50.8926 73.1742C59.9601 70.141 67.1864 63.9686 69.3102 56.3214C71.5948 48.1279 66.351 40.1594 56.4738 39.4718C64.8408 37.017 71.9771 31.7185 73.8729 24.8874C76.3438 16.0256 71.8775 11.5498 64.346 9.90785C76.8739 9.70864 86.6772 13.9178 83.3419 25.9124C81.4462 32.7371 74.1396 37.9327 65.8304 40.1979C75.5919 40.9273 80.9417 50.2261 78.352 58.3264C75.6626 66.7672 68.854 72.0078 59.7865 75.0314C55.3621 76.5383 50.7994 76.7858 46.089 76.9657" fill="#F15A29"/>
<path d="M28.4168 72.7211L12.5087 73.4762C12.5023 73.0681 12.4862 72.946 12.4412 72.554L52.6084 60.9643L52.6341 60.3184L11.9143 70.1152C11.7889 69.7329 11.7536 69.6268 11.5833 69.2638L54.3499 45.5156L54.0768 44.8569L10.3398 67.2202C10.0699 66.8443 10.1117 66.8282 9.80966 66.4973L60.6477 18.5639L60.2042 18.0241L7.87857 64.8682C7.63759 64.6915 7.50585 64.5501 7.24237 64.3927L44.3732 10.2291L43.7145 10.0459L5.01568 63.3966C4.8004 63.3259 4.58512 63.2552 4.36984 63.1942L25.615 10.8042L25.0527 10.7432L1.09567 62.7315C0.800066 62.7315 0.504459 62.7379 0.202426 62.7572L0 62.7733L15.4358 7.00954L44.2704 7.09951C57.9101 6.31872 68.6837 10.0042 65.1428 22.741C63.2407 29.5657 56.1107 34.8705 47.7887 37.139L47.7406 37.3189C57.6177 38.0065 63.1764 45.9558 60.9015 54.1525C58.7744 61.7933 51.1786 67.76 42.1112 70.79C37.6835 72.297 33.1144 72.5476 28.4168 72.7211" fill="#F15A29"/>
</svg>
