<svg width="148" height="148" viewBox="0 0 148 148" fill="none" xmlns="http://www.w3.org/2000/svg">
<path d="M45.5986 33.2518C78.4523 0.639693 118.309 -7.82424 134.259 14.4042C150.209 36.6326 136.191 81.5603 103.337 114.172C70.4834 147.026 30.6268 155.478 14.4354 133.008C-1.26093 110.55 12.7571 65.8519 45.5986 33.2518" fill="#F06321"/>
<path d="M67.3439 15.8525C63.7217 18.5088 60.0994 21.648 56.4772 25.0408C27.7288 53.5357 15.6425 92.6679 29.9021 112.24C44.6324 131.8 79.9008 124.556 109.374 95.8072C125.324 80.3523 135.949 62.4706 140.296 45.8083C141.503 33.4927 139.813 22.614 134.259 14.4036C121.701 -2.98314 94.6435 -1.54633 67.3439 15.8525" fill="#AE282E"/>
<path d="M108.891 19.4749V20.1993C108.65 24.3045 106.235 29.3756 101.888 33.7223C95.3679 40.0008 86.6745 42.4157 83.0401 38.8055C78.935 34.9418 81.362 26.4779 87.8819 19.7164C94.6435 13.1964 103.337 11.023 106.959 14.8867C108.166 16.0941 108.891 17.543 108.891 19.4749M83.7767 130.351C68.3097 141.942 52.3719 147.75 36.905 145.335C43.425 145.577 48.7497 138.32 53.0963 128.661C57.443 118.76 59.8578 109.584 62.0311 100.878C65.1704 87.114 65.412 77.4547 63.7216 75.2814C61.0652 71.8886 55.2697 72.6251 48.4961 76.4888C45.1153 78.4207 40.7687 77.2132 45.8519 70.9347C51.1645 64.6562 71.6905 49.6722 78.9349 47.2574C87.1574 45.084 96.3338 48.2233 93.1945 57.1582C91.0091 63.6782 62.5142 138.079 83.7767 130.351" fill="white"/>
</svg>
