<svg width="149" height="148" viewBox="0 0 149 148" fill="none" xmlns="http://www.w3.org/2000/svg">
<path fill-rule="evenodd" clip-rule="evenodd" d="M0 73.7493C0 38.5441 33.1837 10 74.1225 10C115.061 10 148.242 38.5441 148.242 73.7493C148.242 108.954 115.059 137.499 74.1225 137.499C33.1865 137.499 0 108.959 0 73.7493Z" fill="#003874"/>
<path fill-rule="evenodd" clip-rule="evenodd" d="M65.1218 30.4736L82.3427 24.7837L82.4275 117.876L65.061 123.694L65.1232 30.4736" fill="#ED1C24"/>
<path fill-rule="evenodd" clip-rule="evenodd" d="M129.865 80.1674C128.249 93.4838 120.779 106.937 104.469 106.963C94.9466 106.98 87.508 100.46 82.3568 92.483V83.2434C88.8029 86.4439 94.8278 89.879 102.138 89.9837C111.143 90.1165 119.285 86.6545 122.652 80.166H129.866L129.865 80.1674ZM75.3409 88.529C67.8585 97.548 60.6278 106.761 47.0795 106.761C27.9432 106.761 18.8662 88.259 18.8662 72.791C18.8662 57.9281 25.9598 40.334 44.6028 40.334C52.6888 40.334 60.4723 45.2789 65.1118 50.5093L65.0977 63.126C61.2215 60.5164 52.539 57.9564 46.8703 57.8645C35.0481 57.6666 24.6254 62.791 24.8063 74.4605C24.9293 82.4942 32.8895 87.9551 40.8086 87.9551C52.9376 87.9551 60.2857 76.875 66.4265 68.4653C68.8886 65.2551 71.3225 62.0234 73.7279 58.7706C80.5487 49.2399 88.4411 40.539 101.989 40.539C117.949 40.539 126.909 53.403 129.442 66.646H122.233C119.335 62.3513 113.761 59.7234 108.27 59.7234C95.7312 59.7234 88.2389 71.2586 81.968 79.7518L75.3239 88.5276" fill="white"/>
</svg>
