<svg width="54" height="54" viewBox="0 0 54 54" fill="none" xmlns="http://www.w3.org/2000/svg">
<path d="M47.5664 27.0005H40.8164C39.9213 27.0005 39.0629 27.3561 38.4299 27.989C37.797 28.6219 37.4414 29.4804 37.4414 30.3755V38.813C37.4414 39.7081 37.797 40.5665 38.4299 41.1995C39.0629 41.8324 39.9213 42.188 40.8164 42.188H44.1914C45.0865 42.188 45.945 41.8324 46.5779 41.1995C47.2108 40.5665 47.5664 39.7081 47.5664 38.813V27.0005ZM47.5664 27.0005C47.5665 24.327 47.0372 21.6799 46.009 19.212C44.9808 16.7441 43.4741 14.5042 41.5758 12.6216C39.6775 10.739 37.4252 9.2509 34.9488 8.24322C32.4725 7.23555 29.8211 6.72821 27.1477 6.75049C24.476 6.73101 21.8269 7.24041 19.353 8.24934C16.8791 9.25827 14.6293 10.7468 12.7332 12.6291C10.8371 14.5114 9.33232 16.7504 8.30544 19.2169C7.27856 21.6834 6.74993 24.3288 6.75 27.0005V38.813C6.75 39.7081 7.10558 40.5665 7.73851 41.1995C8.37145 41.8324 9.22989 42.188 10.125 42.188H13.5C14.3951 42.188 15.2535 41.8324 15.8865 41.1995C16.5194 40.5665 16.875 39.7081 16.875 38.813V30.3755C16.875 29.4804 16.5194 28.6219 15.8865 27.989C15.2535 27.3561 14.3951 27.0005 13.5 27.0005H6.75" stroke="#D90368" stroke-width="3" stroke-linecap="round" stroke-linejoin="round"/>
<path d="M47.5664 38.813V43.8755C47.5664 45.6657 46.8552 47.3826 45.5894 48.6485C44.3235 49.9143 42.6066 50.6255 40.8164 50.6255H28.6875" stroke="#D90368" stroke-width="3" stroke-linecap="round" stroke-linejoin="round"/>
</svg>
