<svg width="54" height="54" viewBox="0 0 54 54" fill="none" xmlns="http://www.w3.org/2000/svg">
<path d="M42.1875 37.1255V13.5005C42.1903 12.8349 42.0613 12.1753 41.8078 11.5598C41.5544 10.9444 41.1816 10.3852 40.711 9.91452C40.2403 9.44387 39.6811 9.07107 39.0656 8.81765C38.4502 8.56422 37.7906 8.43518 37.125 8.43797H8.4375" stroke="#D90368" stroke-width="3" stroke-linecap="round" stroke-linejoin="round"/>
<path d="M21.9375 21.938H35.4375" stroke="#D90368" stroke-width="3" stroke-linecap="round" stroke-linejoin="round"/>
<path d="M21.9375 28.688H35.4375" stroke="#D90368" stroke-width="3" stroke-linecap="round" stroke-linejoin="round"/>
<path d="M4.66172 16.8755C4.11526 16.2636 3.72567 15.5282 3.52649 14.7324C3.32731 13.9366 3.3245 13.1043 3.51831 12.3072C3.71212 11.51 4.09673 10.7719 4.63905 10.1564C5.18137 9.54091 5.86515 9.06641 6.63152 8.77376C7.39789 8.48111 8.2239 8.37909 9.03845 8.47647C9.85299 8.57385 10.6317 8.86772 11.3075 9.33277C11.9832 9.79783 12.5359 10.4202 12.9178 11.1462C13.2998 11.8722 13.4996 12.6801 13.5 13.5005V40.5005C13.5004 41.3208 13.7002 42.1288 14.0822 42.8548C14.4641 43.5808 15.0168 44.2031 15.6925 44.6682C16.3683 45.1332 17.147 45.4271 17.9616 45.5245C18.7761 45.6219 19.6021 45.5198 20.3685 45.2272C21.1349 44.9345 21.8186 44.46 22.3609 43.8445C22.9033 43.229 23.2879 42.4909 23.4817 41.6938C23.6755 40.8967 23.6727 40.0644 23.4735 39.2686C23.2743 38.4728 22.8847 37.7373 22.3383 37.1255H45.9633C46.6149 37.854 47.0417 38.7557 47.1921 39.7215C47.3425 40.6874 47.2101 41.6761 46.8108 42.5683C46.4116 43.4606 45.7625 44.2181 44.9421 44.7495C44.1217 45.2809 43.165 45.5634 42.1875 45.563H18.5625" stroke="#D90368" stroke-width="3" stroke-linecap="round" stroke-linejoin="round"/>
</svg>
