<svg width="132" height="132" viewBox="0 0 132 132" fill="none" xmlns="http://www.w3.org/2000/svg">
<circle cx="66" cy="66" r="66" fill="white"/>
<path d="M34.3076 93.5027H99.4235" stroke="#D6DEE8" stroke-width="1.26" stroke-linecap="round" stroke-linejoin="round"/>
<path d="M93.8563 56.9583H42.0117V88.9202H93.8563V56.9583Z" fill="#CAD1E0"/>
<path opacity="0.7" d="M93.8563 56.9583H42.0117V88.9202H93.8563V56.9583Z" fill="url(#paint0_linear_1_1546)"/>
<path d="M97.5029 55.0676H38.207V58.3762H97.5029V55.0676Z" fill="#D4DAE8"/>
<path d="M35.0354 55.5389L68.0131 33.8167L100.991 55.5389H35.0354Z" fill="#EAEEF9"/>
<path d="M91.319 52.0797H44.707L68.013 36.8051L91.319 52.0797Z" fill="#BCC5D6"/>
<path d="M89.734 52.0797H46.2922L68.0131 37.7531L89.734 52.0797Z" fill="#D4DAE8"/>
<path d="M49.7809 58.3762H39.1582V60.8937H49.7809V58.3762Z" fill="#EAEEF9"/>
<path d="M48.6702 61.0511H40.2673V63.0978H48.6702V61.0511Z" fill="#D4DAE8"/>
<path d="M49.7809 85.6116H39.1582V88.1291H49.7809V85.6116Z" fill="#EAEEF9"/>
<path d="M48.6702 83.5645H40.2673V85.6111H48.6702V83.5645Z" fill="#D4DAE8"/>
<path d="M47.7196 62.9409H41.3779V83.5645H47.7196V62.9409Z" fill="#D4DAE8"/>
<path d="M61.9879 58.3762H51.3652V60.8937H61.9879V58.3762Z" fill="#EAEEF9"/>
<path d="M60.8786 61.0511H52.4758V63.0978H60.8786V61.0511Z" fill="#D4DAE8"/>
<path d="M61.9879 85.6116H51.3652V88.1291H61.9879V85.6116Z" fill="#EAEEF9"/>
<path d="M60.8786 83.5645H52.4758V85.6111H60.8786V83.5645Z" fill="#D4DAE8"/>
<path d="M59.9266 62.9409H53.585V83.5645H59.9266V62.9409Z" fill="#D4DAE8"/>
<path d="M84.8184 58.3762H74.1963V60.8937H84.8184V58.3762Z" fill="#EAEEF9"/>
<path d="M83.7095 61.051H75.3066V63.0977H83.7095V61.051Z" fill="#D4DAE8"/>
<path d="M84.8184 85.6116H74.1963V88.1291H84.8184V85.6116Z" fill="#EAEEF9"/>
<path d="M83.7095 83.5645H75.3066V85.6111H83.7095V83.5645Z" fill="#D4DAE8"/>
<path d="M82.5994 62.9408H76.2578V83.5644H82.5994V62.9408Z" fill="#D4DAE8"/>
<path d="M97.0272 58.3762H86.4045V60.8937H97.0272V58.3762Z" fill="#EAEEF9"/>
<path d="M95.9165 61.051H87.5137V63.0977H95.9165V61.051Z" fill="#D4DAE8"/>
<path d="M97.0272 85.6116H86.4045V88.1291H97.0272V85.6116Z" fill="#EAEEF9"/>
<path d="M95.9165 83.5645H87.5137V85.6111H95.9165V83.5645Z" fill="#D4DAE8"/>
<path d="M94.9657 62.9409H88.624V83.5645H94.9657V62.9409Z" fill="#D4DAE8"/>
<path opacity="0.4" d="M73.2452 69.0813H63.0986V88.1291H73.2452V69.0813Z" fill="#1C3754"/>
<path opacity="0.7" d="M73.2452 69.0813H63.0986V88.1291H73.2452V69.0813Z" fill="url(#paint1_linear_1_1546)"/>
<path d="M72.4521 45.783C72.4521 45.94 72.4521 45.94 72.4521 46.0969V46.2539C72.2941 48.3006 70.3916 49.8764 68.3304 49.8764C66.1105 49.8764 64.3667 48.3006 64.208 46.2539V46.0969C64.208 45.94 64.208 45.94 64.208 45.783C64.208 43.5794 66.1105 41.6897 68.3304 41.6897C70.5496 41.6897 72.4521 43.5794 72.4521 45.783Z" fill="#9CA1B4"/>
<path d="M72.4521 46.0964C72.2941 48.3 70.3916 49.8758 68.3304 49.8758C66.1105 49.8758 64.3667 48.3 64.208 46.2533V46.0964C64.3667 44.0497 66.2692 42.4739 68.3304 42.4739C70.3916 42.4739 72.1354 44.0497 72.4521 46.0964Z" fill="#AFB5C6"/>
<path d="M99.0879 88.1292H36.7793V90.4897H99.0879V88.1292Z" fill="#D4DAE8"/>
<path d="M101.308 90.4895H34.4011V92.8501H101.308V90.4895Z" fill="#EAEEF9"/>
<path d="M59.3836 98.9796C58.7318 98.1453 57.5031 97.9108 56.5767 98.6346C55.7419 99.2869 55.5074 100.515 56.2316 101.442C56.8834 102.277 58.1121 102.511 59.0393 101.787C59.9657 101.063 60.0355 99.814 59.3836 98.9796Z" fill="url(#paint2_linear_1_1546)"/>
<path d="M36.3836 41.9796C35.7318 41.1453 34.5031 40.9108 33.5767 41.6346C32.7419 42.2869 32.5074 43.5154 33.2316 44.4423C33.8834 45.2766 35.1121 45.5111 36.0393 44.7867C36.9657 44.0629 37.0355 42.814 36.3836 41.9796Z" fill="#34C79F"/>
<path d="M84.1711 30.3641C83.1925 29.1115 81.3503 28.7609 79.9595 29.8475C78.5699 30.9332 78.3558 32.6665 79.4431 34.0581C80.4208 35.3096 82.2638 35.6613 83.6535 34.5756C85.0443 33.489 85.1489 31.6156 84.1711 30.3641Z" fill="url(#paint3_linear_1_1546)"/>
<path d="M102.745 97.7777C100.621 99.181 98.1174 100 95.3982 100C88.046 100 82 94.0345 82 86.7808C82 79.5285 88.046 73.5625 95.3982 73.5625C102.745 73.5625 108.792 79.5285 108.792 86.7808C108.792 91.3434 106.42 95.4378 102.745 97.7777Z" fill="url(#paint4_linear_1_1546)"/>
<path d="M93.6188 91.6946C93.1444 91.6946 92.7885 91.5775 92.4327 91.2263L88.9946 87.8343C88.4015 87.249 88.4015 86.1954 88.9946 85.6115C89.5876 85.0262 90.6551 85.0262 91.2481 85.6115L93.5002 87.8343L99.3032 82.101C99.9035 81.5171 100.972 81.5171 101.558 82.101C102.159 82.6863 102.159 83.7399 101.558 84.3238L94.5677 91.2263C94.449 91.5775 94.0932 91.6946 93.6188 91.6946Z" fill="white"/>
<path fill-rule="evenodd" clip-rule="evenodd" d="M104.714 71.1918C104.57 71.1918 104.285 71.1918 104.143 71.0473C103.856 70.7727 103.57 70.4836 103.57 70.0645L103.714 63.1273C103.856 62.4191 104.285 62 105 62C105.714 62 106.142 62.5636 106.142 63.1273L106 70.0645C105.856 70.7727 105.429 71.1918 104.714 71.1918ZM112.142 73.3163C112.571 73.7354 113.284 73.88 113.857 73.4608L119.285 68.7927C119.714 68.3591 119.856 67.6509 119.428 67.0873C118.999 66.6681 118.285 66.5236 117.714 66.9572L112.284 71.6109C111.856 72.0445 111.713 72.8972 112.142 73.3163ZM113.857 82.2191C113.999 82.5081 114.428 82.7972 114.857 82.7972H121.856C122.571 82.7972 123 82.2191 123 81.6554C123 80.9472 122.427 80.5281 121.856 80.5281H114.857C114.143 80.5281 113.714 81.0918 113.714 81.6554C113.714 81.7999 113.714 81.9445 113.857 82.2191Z" fill="url(#paint5_linear_1_1546)"/>
<defs>
<linearGradient id="paint0_linear_1_1546" x1="91.8963" y1="84.6322" x2="91.8963" y2="55.0309" gradientUnits="userSpaceOnUse">
<stop offset="0.00289017" stop-color="#606673" stop-opacity="0.01"/>
<stop offset="1" stop-color="#373C47"/>
</linearGradient>
<linearGradient id="paint1_linear_1_1546" x1="72.7615" y1="86.3022" x2="72.7615" y2="68.736" gradientUnits="userSpaceOnUse">
<stop offset="0.00289017" stop-color="#606673" stop-opacity="0.01"/>
<stop offset="1" stop-color="#373C47"/>
</linearGradient>
<linearGradient id="paint2_linear_1_1546" x1="60.5796" y1="100.541" x2="58.2382" y2="97.5441" gradientUnits="userSpaceOnUse">
<stop stop-color="#FF66A9"/>
<stop offset="1" stop-color="#F53689"/>
</linearGradient>
<linearGradient id="paint3_linear_1_1546" x1="85.8605" y1="32.6555" x2="82.3483" y2="28.1602" gradientUnits="userSpaceOnUse">
<stop stop-color="#FF66A9"/>
<stop offset="1" stop-color="#F53689"/>
</linearGradient>
<linearGradient id="paint4_linear_1_1546" x1="75.5105" y1="88.2455" x2="93.7684" y2="106.033" gradientUnits="userSpaceOnUse">
<stop stop-color="#51DFC3"/>
<stop offset="0.991614" stop-color="#12AB73"/>
</linearGradient>
<linearGradient id="paint5_linear_1_1546" x1="127.706" y1="73.5502" x2="113.421" y2="86.3797" gradientUnits="userSpaceOnUse">
<stop stop-color="#51DFC3"/>
<stop offset="1" stop-color="#12AB73"/>
</linearGradient>
</defs>
</svg>
