<svg width="78" height="78" viewBox="0 0 78 78" fill="none" xmlns="http://www.w3.org/2000/svg">
<path d="M46.4568 78.0004V41.951H61.7233C61.5736 34.8523 60.133 29.1648 57.4015 24.8885C54.67 20.6122 50.1612 17.2767 43.875 14.8819L50.0489 0.000366211C56.7841 2.73721 62.322 6.50037 66.6624 11.2898C71.0029 16.0793 73.9776 21.4889 75.5866 27.5185C77.1955 33.5481 78 41.78 78 52.2142V78.0004H46.4568Z" fill="#9964DD"/>
<path d="M2.58183 78.0004V41.951H17.8483C17.6986 34.8523 16.258 29.1648 13.5265 24.8885C10.795 20.6122 6.28618 17.2767 0 14.8819L6.17393 0.000366211C12.9091 2.73721 18.447 6.50037 22.7874 11.2898C27.1279 16.0793 30.1026 21.4889 31.7116 27.5185C33.3205 33.5481 34.125 41.78 34.125 52.2142V78.0004H2.58183Z" fill="#9964DD"/>
</svg>
