<svg width="98" height="79" viewBox="0 0 98 79" fill="none" xmlns="http://www.w3.org/2000/svg">
<g opacity="0.2">
<path d="M39.6312 79.0005V33.7077H20.4502C20.6383 24.7889 22.4483 17.643 25.8801 12.2702C29.312 6.89742 34.977 2.70663 42.875 -0.302143L35.118 -18.9995C26.6558 -15.5609 19.6981 -10.8328 14.2447 -4.8153C8.79126 1.20224 5.0538 7.99884 3.03228 15.5745C1.01076 23.1502 0 33.4928 0 46.6025V79.0005H39.6312Z" fill="#1B1DC7"/>
<path d="M94.7562 79.0005V33.7077H75.5752C75.7633 24.7889 77.5733 17.643 81.0051 12.2702C84.437 6.89742 90.102 2.70663 98 -0.302143L90.243 -18.9995C81.7808 -15.5609 74.8231 -10.8328 69.3697 -4.8153C63.9163 1.20224 60.1788 7.99884 58.1573 15.5745C56.1358 23.1502 55.125 33.4928 55.125 46.6025V79.0005H94.7562Z" fill="#1B1DC7"/>
</g>
</svg>
