<?xml version="1.0" encoding="UTF-8"?>
<svg width="306px" height="298px" viewBox="0 0 306 298" version="1.1" xmlns="http://www.w3.org/2000/svg" xmlns:xlink="http://www.w3.org/1999/xlink">
    <title>7D4B4933-F8D8-4F2A-9372-F72E4B7787B9@2x</title>
    <defs>
        <circle id="path-1" cx="185" cy="185" r="185"></circle>
        <linearGradient x1="50%" y1="97.7218809%" x2="50%" y2="-25.781417%" id="linearGradient-3">
            <stop stop-color="#FAE5FF" offset="0%"></stop>
            <stop stop-color="#B30FE2" offset="41.9947167%"></stop>
            <stop stop-color="#5E0899" offset="100%"></stop>
        </linearGradient>
    </defs>
    <g id="Credit-Advisory-&amp;-Rectification-Copy" stroke="none" stroke-width="1" fill="none" fill-rule="evenodd">
        <g id="Desktop----Credit-plus-Advisory-without-Pre-Approved-Offers" transform="translate(-442.000000, -494.000000)">
            <g id="Group-22" transform="translate(442.000000, 494.000000)">
                <g id="Group-17" transform="translate(-64.000000, -72.000000)">
                    <mask id="mask-2" fill="white">
                        <use xlink:href="#path-1"></use>
                    </mask>
                    <use id="Oval" fill="#F6EDFF" xlink:href="#path-1"></use>
                    <ellipse id="Oval-Copy-2" fill="#F0DFFF" opacity="0.543547131" mask="url(#mask-2)" cx="159.498113" cy="163" rx="149.501887" ry="142"></ellipse>
                    <ellipse id="Oval-Copy-2" fill="#F0DFFF" mask="url(#mask-2)" cx="129.333333" cy="134" rx="98.6666667" ry="94"></ellipse>
                    <g id="Mask" mask="url(#mask-2)">
                        <g transform="translate(239.000000, 283.500000) scale(-1, 1) translate(-239.000000, -283.500000) translate(153.000000, 134.000000)" id="Group-34">
                            <g id="Group-36" transform="translate(63.516340, 48.896617) scale(-1, 1) translate(-63.516340, -48.896617) ">
                                <g id="laptop" transform="translate(27.149748, 0.000000)">
                                    <path d="M8.62541839,0 L60.6351037,0 C65.3987908,0 69.2605219,4.25257972 69.2605219,9.49840268 L69.2605219,96.5744101 L0,96.5744101 L0,9.49840268 C0,4.25257972 3.86173134,0 8.62541839,0 Z" id="Rectangle" fill="url(#linearGradient-3)" fill-rule="nonzero"></path>
                                    <path d="M60.2825256,6.41018002 C62.690834,6.41018002 64.6431537,8.52753048 64.6431537,11.1394147 L64.6431537,96.5744101 L4.61736812,96.5744101 L4.61736812,11.1394147 C4.61736812,8.52753048 6.56968785,6.41018002 8.97799627,6.41018002 L15.872052,6.41018002 L15.8722029,8.45746334 C15.8722029,9.90182326 16.9170002,11.08153 18.2316542,11.1561372 L18.3639905,11.1598831 L50.8965314,11.1598831 C52.2727076,11.1598831 53.3883189,9.94996854 53.3883189,8.45746334 L53.3881264,6.41018002 L60.2825256,6.41018002 Z" id="Combined-Shape" fill="#FFFFFF" fill-rule="nonzero"></path>
                                    <g id="Group-50" transform="translate(15.591458, 36.590343)">
                                        <g id="Group-49" transform="translate(1.059982, 5.629614)" stroke-width="8.14781722">
                                            <path d="M38.0539383,19.1949211 C38.0539383,14.5395548 36.3789267,10.2750464 33.5981729,6.97013861" id="Oval" stroke="#00DE00"></path>
                                            <path d="M24.2431318,0.908757765 C22.5855575,0.437710435 20.8357377,0.185553894 19.0269691,0.185553894 C16.7931125,0.185553894 14.6491684,0.570158781 12.6578582,1.27670513" id="Oval" stroke="#FFC502"></path>
                                            <path d="M4.39083903,7.49684899 L3.33432171,8.44223958 C1.23099129,11.5003391 0,15.2040064 0,19.1949211" id="Oval" stroke="#DE2733"></path>
                                            <path d="M33.7146825,7.10995539 C31.2181034,4.08477581 27.803318,1.84414078 23.8964678,0.813797533" id="Oval" stroke="#00C4FF"></path>
                                            <path d="M12.4975608,1.33439598 C9.55655796,2.40785957 6.95498024,4.18572198 4.89742358,6.46357654 C4.45735742,6.95075957 4.04217686,7.46081415 3.65388358,7.99174044" id="Oval" stroke="#FD852C"></path>
                                        </g>
                                        <polygon id="Fill-21" fill="#303030" transform="translate(24.072531, 17.307217) rotate(-4.000000) translate(-24.072531, -17.307217) " points="16.8051855 22.1359649 19.5722779 24.5282035 31.3398774 10.0862313"></polygon>
                                        <path d="M22.1959368,22.4764454 C22.1959368,24.0915879 20.9241141,25.4009635 19.3551386,25.4009635 C17.7862326,25.4009635 16.5143404,24.0915879 16.5143404,22.4764454 C16.5143404,20.8612314 17.7862326,19.5519274 19.3551386,19.5519274 C20.9241141,19.5519274 22.1959368,20.8612314 22.1959368,22.4764454" id="Fill-23" fill="#303030"></path>
                                        <polygon id="Rectangle" fill="#FFFFFF" transform="translate(34.723081, 12.395334) rotate(49.000000) translate(-34.723081, -12.395334) " points="33.9946768 5.8120328 35.4575186 5.81136239 35.451485 18.9786345 33.9886432 18.9793049"></polygon>
                                        <polygon id="Rectangle-Copy-8" fill="#FFFFFF" transform="translate(5.450821, 13.857593) scale(-1, 1) rotate(49.000000) translate(-5.450821, -13.857593) " points="4.72241663 7.27429182 6.18525842 7.27362141 6.17922475 20.4408935 4.71638296 20.4415639"></polygon>
                                        <polygon id="Rectangle-Copy-9" fill="#FFFFFF" transform="translate(14.232499, 6.546298) scale(-1, 1) rotate(19.000000) translate(-14.232499, -6.546298) " points="13.5026396 -0.0343054336 14.9661091 -0.0347222338 14.9623579 13.1269006 13.4988884 13.1273174"></polygon>
                                        <polygon id="Rectangle-Copy-10" fill="#FFFFFF" transform="translate(24.477790, 6.546298) scale(-1, 1) rotate(-15.000000) translate(-24.477790, -6.546298) " points="23.7445054 -0.0344454125 25.2080277 -0.0341069146 25.2110742 13.1270406 23.7475519 13.1267021"></polygon>
                                    </g>
                                </g>
                                <path d="M127.03268,97.065496 C127.030965,97.2619544 126.946527,97.448572 126.800134,97.5794524 C126.64704,97.7181619 126.447576,97.7944259 126.241075,97.7932331 L0.791605059,97.7932331 C0.355937527,97.7932331 0,97.4654514 0,97.065496 C0.00147842093,96.8689861 0.0859576281,96.6822769 0.232545854,96.5515405 C0.385640421,96.4128309 0.585104152,96.336567 0.791605059,96.337759 L126.241075,96.337759 C126.67864,96.3387382 127.03268,96.6664917 127.03268,97.065496 Z" id="Path" fill="#C7B1DD" fill-rule="nonzero" opacity="0.321297433"></path>
                            </g>
                            <g id="Group-115" transform="translate(53.960784, 48.334586)">
                                <g id="Group-13" transform="translate(0.000000, 111.687173)">
                                    <path d="M11.5544912,29.0945592 C11.5544912,29.0945592 5.53573129,17.0774965 14.232597,9.52647213 C22.9294626,1.97398013 35.227007,0 35.227007,0 C35.227007,0 31.7835183,10.9911801 27.9771705,15.6392061 C21.0196779,24.1339251 11.5544912,29.0945592 11.5544912,29.0945592" id="Fill-1" fill="#A5E3B7"></path>
                                    <path d="M14.5622552,80.6442063 C14.5622552,80.6442063 2.03259854,38.5521988 18.052754,13.0401568" id="Stroke-3" stroke="#23A64A" stroke-width="0.769824" stroke-linecap="round"></path>
                                    <path d="M36.2753319,55.1452263 C36.2753319,55.1452263 37.9588805,46.3437699 45.7845906,45.6128836 C53.6117697,44.8819973 61.0951875,48.5467024 61.0951875,48.5467024 C61.0951875,48.5467024 54.7003469,53.1565697 50.7235876,54.200064 C43.4517151,56.1094679 36.2753319,55.1452263 36.2753319,55.1452263" id="Fill-5" fill="#2FC75C"></path>
                                    <path d="M21.3358208,78.8927209 C21.3358208,78.8927209 27.2164885,56.5889469 46.4098247,48.9792168" id="Stroke-7" stroke="#383838" stroke-width="0.769824" stroke-linecap="round"></path>
                                    <path d="M20.721017,47.5434215 C20.721017,47.5434215 15.6586185,32.6923397 25.1987276,25.9646632 C34.7388366,19.2384544 47.4521264,19.573077 47.4521264,19.573077 C47.4521264,19.573077 42.9597252,31.2892728 38.6641787,35.7523758 C30.8134946,43.9095369 20.721017,47.5434215 20.721017,47.5434215" id="Fill-9" fill="#A5E3B7"></path>
                                    <path d="M0,30.8475122 C0,30.8475122 9.54598533,29.4194954 12.7500164,35.5248912 C15.9555166,41.6273517 14.5481522,48.8466886 14.5481522,48.8466886 C14.5481522,48.8466886 7.82130284,45.130616 5.50164898,42.2422942 C1.26486509,36.9617139 0,30.8475122 0,30.8475122" id="Fill-11" fill="#A5E3B7"></path>
                                    <path d="M20.9040625,95.0382639 C20.9040625,95.0382639 10.1696035,56.2543243 28.7797208,30.7378793" id="Stroke-13" stroke="#23A64A" stroke-width="0.769824" stroke-linecap="round"></path>
                                    <path d="M8.36676673,39.0313843 C8.36676673,39.0313843 16.2350797,47.9957491 18.2756111,60.789195" id="Stroke-15" stroke="#23A64A" stroke-width="0.769824" stroke-linecap="round"></path>
                                </g>
                                <polygon id="Fill-17" fill="#B5B6FF" points="53.5910339 122.541628 100.286739 123.379653 97.994997 250.665414 51.8002435 249.836195"></polygon>
                                <polygon id="Fill-19" fill="#FFD8CC" points="81.3117056 50.2637221 68.9921252 49.6751972 70.1159601 26.1870351 82.4355404 26.77556"></polygon>
                                <path d="M61.3086207,5.93267811 C61.3086207,5.93267811 56.9792857,14.9616192 58.9581165,21.5953665 L60.8076695,22.1193152 L65.645301,9.9804381 L61.3086207,5.93267811 Z" id="Fill-21" fill="#424242"></path>
                                <path d="M84.3144747,16.6197625 C84.3144747,16.6197625 84.8345238,40.8226668 68.7306317,40.2899123 C61.7437578,40.0594923 59.3300838,27.8809889 60.8476281,16.3629249 C62.1036788,6.82764694 66.3786584,6.45193028 72.2020326,5.96760802 C81.2573502,5.2132394 85.0343167,3.0602068 84.3144747,16.6197625" id="Fill-23" fill="#FFD8CC"></path>
                                <path d="M58.075649,25.4614323 C58.8557226,27.4794417 60.531926,28.630074 61.8217652,28.0298079 C63.1116044,27.4310095 63.5244117,25.3087974 62.7458072,23.290788 C61.9657336,21.2713109 60.2880612,20.1206786 58.999691,20.7209447 C57.7098518,21.3197431 57.2970445,23.4434229 58.075649,25.4614323" id="Fill-25" fill="#FFD8CC"></path>
                                <path d="M67.1654896,23.6813278 C66.856986,23.923489 66.5279154,24.1318943 66.1826851,24.2859968 C63.7146556,25.383794 66.2517311,27.4663797 67.5959257,27.633691" id="Stroke-27" stroke="#EAB8A9" stroke-width="0.769824" stroke-linecap="round"></path>
                                <path d="M74.4189988,18.2343168 C74.4189988,18.2343168 75.9468266,17.9393205 77.0265894,18.9989589 C78.1724603,20.1246413 75.9938366,19.3981579 75.4429372,19.3541286 C74.7289716,19.2939552 72.6473062,18.6056305 74.4189988,18.2343168" id="Fill-29" fill="#424242"></path>
                                <path d="M63.1730113,17.1657258 C63.1730113,17.1657258 64.5759685,16.4935452 65.8893128,17.2464461 C67.2834556,18.0448441 64.9917139,17.8951445 64.4466908,17.9905413 C63.7415395,18.1138233 61.5526324,17.9743972 63.1730113,17.1657258" id="Fill-31" fill="#424242"></path>
                                <path d="M66.3104937,31.3792633 C69.1340369,31.2765283 71.5859067,28.9194932 71.5859067,28.9194932 C71.5859067,28.9194932 72.0060593,32.4242253 69.5762256,32.9540445 C66.8907745,33.5396341 66.3104937,31.3792633 66.3104937,31.3792633" id="Fill-33" fill="#94685A"></path>
                                <path d="M63.2044493,21.0921117 C63.2044493,21.0921117 64.2783359,22.6419429 65.9883277,21.0921117" id="Stroke-35" stroke="#424242" stroke-width="0.769824" stroke-linecap="round"></path>
                                <path d="M73.1910073,21.9750458 C73.1910073,21.9750458 74.2648939,23.5248771 75.9748857,21.9750458" id="Stroke-37" stroke="#424242" stroke-width="0.769824" stroke-linecap="round"></path>
                                <path d="M84.5605431,22.6321097 C84.5605431,22.6321097 80.0035031,23.9735356 82.010246,10.7104438 C82.010246,10.7104438 67.4914752,17.7844842 60.0829797,6.69937493 C52.8257978,-4.15678196 80.7997364,0.993178095 84.2828898,2.89524371 C89.292402,5.63239831 86.8816661,16.9875539 84.5605431,22.6321097" id="Fill-39" fill="#424242"></path>
                                <path d="M86.132149,27.6664195 C87.0943867,25.2859022 86.5038225,22.7586205 84.8143976,22.0189284 C83.1235036,21.2777685 80.9727922,22.6074533 80.0105546,24.9879706 C79.0468478,27.3670203 79.637412,29.8957695 81.3268369,30.6354617 C83.0177309,31.3751539 85.1699114,30.0469368 86.132149,27.6664195" id="Fill-41" fill="#FFD8CC"></path>
                                <path d="M84.0828032,24.6667035 C84.0828032,24.6667035 81.5956759,25.3755752 81.5398514,28.0716358" id="Stroke-43" stroke="#EAB8A9" stroke-width="0.769824" stroke-linecap="round"></path>
                                <path d="M83.6287151,27.2114501 C83.6287151,27.2114501 83.4171697,26.4321315 82.747276,25.525128" id="Stroke-45" stroke="#EAB8A9" stroke-width="0.769824" stroke-linecap="round"></path>
                                <path d="M69.5068857,40.4481243 C69.5068857,40.4481243 75.0202872,39.9579314 78.105324,36.0070359" id="Stroke-47" stroke="#EAB8A9" stroke-width="0.769824" stroke-linecap="round"></path>
                                <path d="M60.5332481,23.6397935 C60.5332481,23.6397935 60.3363934,24.9225137 60.7374482,27.8944912" id="Stroke-49" stroke="#EAB8A9" stroke-width="0.769824" stroke-linecap="round"></path>
                                <path d="M81.598614,45.7725871 C72.7577799,51.9322857 69.0998077,45.6815932 69.0998077,45.6815932 C65.7136126,46.6795906 62.0424188,47.80087 59.7301102,48.512677 C58.2008134,48.9837904 56.7861037,49.7454973 55.5506199,50.762574 C47.7822034,57.1629661 35.3098403,66.4825005 30.3458691,69.4985073 L34.334381,85.5148978 L51.5474173,76.6253828 L51.6443756,124.361946 C69.6536453,134.142321 100.897723,126.933257 100.897723,126.933257 L100.370328,53.0462269 C94.5014132,48.5405622 81.598614,45.7725871 81.598614,45.7725871" id="Fill-51" fill="#E2E2FF"></path>
                                <path d="M70.5297957,105.103238 C70.5297957,105.103238 60.0024749,107.420647 58.4011939,109.57368 C56.8013819,111.726712 57.8253203,112.360734 62.3089072,110.323645 C66.7939631,108.286556 72.2867977,107.733255 72.2867977,107.733255 L70.5297957,105.103238 Z" id="Fill-53" fill="#FFD8CC"></path>
                                <path d="M70.0670402,107.489626 C70.0670402,107.489626 58.1720197,110.464539 56.6059963,112.642522 C55.5864651,114.058797 56.4737804,114.999557 60.4857973,113.395422 C65.0575281,111.568207 70.4622187,110.8065 70.4622187,110.8065 L70.0670402,107.489626 Z" id="Fill-55" fill="#FFD8CC"></path>
                                <path d="M71.7714496,109.576468 C71.7714496,109.576468 61.2103403,113.167791 59.6075902,115.294406 C58.3133438,117.013016 60.3289012,117.161248 63.9310489,115.376594 C68.3676257,113.179532 73.7752545,112.021562 73.7752545,112.021562 L71.7714496,109.576468 Z" id="Fill-57" fill="#FFD8CC"></path>
                                <path d="M75.0596581,111.333531 C75.0596581,111.333531 66.3319421,116.140062 65.3579519,117.607705 C64.4882653,118.916843 66.6037191,118.749532 70.3175158,116.389561 C74.2061313,113.919518 74.943602,114.237996 74.943602,114.237996 L75.0596581,111.333531 Z" id="Fill-59" fill="#FFD8CC"></path>
                                <path d="M72.7928906,114.888016 C72.7928906,114.888016 81.0079029,113.499625 83.4729942,113.344055 C85.9380855,113.188485 88.2180746,111.295225 88.1666574,109.393159 C88.112302,107.489626 87.1647549,104.874286 81.2899634,106.948066 C75.4137028,109.021846 72.7928906,114.888016 72.7928906,114.888016" id="Fill-61" fill="#FFD8CC"></path>
                                <path d="M69.3483735,110.919362 C69.3483735,110.919362 69.9198399,110.939909 69.1294828,111.364057 L70.6866919,110.857721 L70.486899,110.583271 L69.3483735,110.919362 Z" id="Fill-63" fill="#FFD8CC"></path>
                                <path d="M73.5998481,114.367736 L70.3914098,111.268074 L68.8914943,105.539862 L77.1476404,101.647672 C77.1476404,101.647672 89.6053129,103.00671 88.1450621,107.006038 C86.6862804,111.005365 73.5998481,114.367736 73.5998481,114.367736" id="Fill-65" fill="#FFD8CC"></path>
                                <path d="M69.0642563,107.995523 C69.0642563,107.995523 64.095878,108.512133 58.1446951,111.630875" id="Stroke-67" stroke="#EAB8A9" stroke-width="0.769824" stroke-linecap="round"></path>
                                <path d="M77.1470528,101.647672 C77.1470528,101.647672 72.6032343,101.672622 69.1817816,102.943601 C65.7603288,104.21458 65.2299963,103.047804 64.1517025,103.530659 C63.0719396,104.012046 64.4058508,105.757073 67.3234141,106.041796 C70.2395085,106.327987 77.1470528,101.647672 77.1470528,101.647672" id="Fill-69" fill="#FFD8CC"></path>
                                <line x1="66.866388" y1="105.963277" x2="69.7663226" y2="105.205973" id="Stroke-71" stroke="#EAB8A9" stroke-width="0.769824" stroke-linecap="round"></line>
                                <path d="M70.3160468,112.901561 C70.3160468,112.901561 71.5823809,113.187751 70.9815333,113.843787 C70.9815333,113.843787 72.6401078,113.024843 72.5475567,113.008698 C72.4564747,112.994022 71.5956025,112.151595 71.5956025,112.151595 L70.3160468,112.901561 Z" id="Fill-73" fill="#FFD8CC"></path>
                                <path d="M65.8076327,111.769274 C65.8076327,111.769274 68.2976982,110.558468 69.8916338,110.411704" id="Stroke-75" stroke="#EAB8A9" stroke-width="0.769824" stroke-linecap="round"></path>
                                <path d="M100.313476,53.0126178 C100.313476,53.0126178 103.27658,54.1661854 118.039216,96.9362441 C118.039216,96.9362441 114.88954,109.932225 78.2304883,114.261772 L75.7903711,99.2140263 L99.4761085,90.1924235" id="Fill-77" fill="#E2E2FF"></path>
                                <line x1="51.7094552" y1="76.5128146" x2="52.3999159" y2="66.7471166" id="Stroke-79" stroke="#B5B6FF" stroke-width="0.769824" stroke-linecap="round"></line>
                                <polygon id="Fill-81" fill="#B5B6FF" points="73.9161378 48.4184543 69.1328617 43.5018495 63.7457998 47.1694899 69.636751 53.3379943"></polygon>
                                <polygon id="Fill-83" fill="#B5B6FF" points="73.722515 48.4184543 81.592297 42.6447459 85.8511169 46.7688233 77.9930874 53.3350591"></polygon>
                                <path d="M9.81171724,26.1249538 C9.81171724,26.1249538 10.4933635,23.4538431 12.4104935,24.0232887 C14.3276235,24.5942019 15.7658383,29.5636419 15.286923,31.0709114 C14.5891171,33.2650381 12.444282,31.1105378 12.444282,31.1105378 C12.444282,31.1105378 11.0266341,26.6371613 9.81171724,26.1249538" id="Fill-85" fill="#FFD8CC"></path>
                                <path d="M16.5824916,42.1708439 C16.5824916,42.1708439 19.0475829,38.2566394 19.2885096,36.1711184 C19.5294363,34.0855974 17.8076919,31.4423719 17.2802975,30.5500449 C16.7529032,29.6562501 15.4454352,25.9651274 15.4454352,25.9651274 L8.86108518,27.830502 L5.27656623,32.5372338 C5.27656623,32.5372338 7.07176384,37.7224173 7.58152944,38.9170788 C8.08835692,40.1117404 13.1008072,43.6957252 13.1008072,43.6957252 L16.5824916,42.1708439 Z" id="Fill-87" fill="#FFD8CC"></path>
                                <path d="M12.0877399,29.0932622 L12.4932019,25.161446 C12.4932019,25.161446 10.3806862,14.4740681 12.563717,14.4065565 C13.7947936,14.3683978 14.2693016,18.151982 14.9597622,21.8196224 C15.5723624,25.0821933 15.7721553,27.2176142 15.7721553,27.2176142 L12.0877399,29.0932622 Z" id="Fill-89" fill="#FFD8CC"></path>
                                <path d="M5.35795244,30.5931936 C5.35795244,30.5931936 5.24630348,30.9190104 5.8060173,31.5574352" id="Fill-91" fill="#8163D6"></path>
                                <path d="M15.2590108,31.294727 C15.2590108,31.294727 15.9671002,32.9135375 15.2237532,33.2599013 C14.4789372,33.6077327 11.4394414,32.5011298 10.7137232,33.4844507 C9.98947412,34.4677717 12.7057756,36.597322 14.0440939,37.9622302 C14.0440939,37.9622302 13.1171138,39.492982 13.3506952,40.7610258" id="Stroke-93" stroke="#EAB8A9" stroke-width="0.769824"></path>
                                <path d="M12.7886309,24.2839421 C12.7886309,24.2839421 16.3452376,30.4157555 15.2595984,31.2948738 C13.7185491,32.5394352 12.6431934,30.9852011 12.6431934,30.9852011" id="Stroke-95" stroke="#EAB8A9" stroke-width="0.769824"></path>
                                <path d="M6.84200205,27.2249524 C6.84200205,27.2249524 7.52364827,24.5538417 9.44077829,25.1232873 C11.3579083,25.6942005 13.5115578,30.2116063 12.4758669,32.2648392 C11.440176,34.3166044 9.47456679,32.2105364 9.47456679,32.2105364 C9.47456679,32.2105364 8.05691892,27.7371599 6.84200205,27.2249524" id="Fill-97" fill="#FFD8CC"></path>
                                <path d="M5.92750899,26.941257 C5.92750899,26.941257 7.38335255,26.5038993 8.60414569,29.6754763 C9.82640789,32.8470533 10.1540094,33.3489872 9.32251855,34.1136294 C8.49102767,34.8782715 5.92016367,31.8270412 5.92016367,31.8270412 L5.27671313,32.5373805 C5.27671313,32.5373805 2.92473983,28.0419894 5.92750899,26.941257" id="Fill-99" fill="#FFD8CC"></path>
                                <path d="M6.84067989,27.1038718 C6.84067989,27.1038718 10.1269786,30.9725793 10.1622362,32.8526303 C10.1974937,34.729746 7.80585569,33.4734434 5.90929258,31.0885232" id="Stroke-101" stroke="#EAB8A9" stroke-width="0.769824"></path>
                                <path d="M10.0075436,25.4012589 C10.0075436,25.4012589 13.9475763,31.7297365 12.4843875,32.5633578 C10.7670503,33.5422759 10.0648372,32.3608231 10.0648372,32.3608231" id="Stroke-103" stroke="#EAB8A9" stroke-width="0.769824"></path>
                                <path d="M31.6963807,86.1672652 C31.6963807,86.1672652 41.7124669,85.3952849 39.2620662,76.5321875 C36.4708425,66.4303992 35.2324205,66.9220597 30.2684494,57.3750405 C24.509714,46.3016725 20.1539359,38.068194 19.9585502,36.941044 C19.7881387,35.9562554 11.3219162,39.8719275 9.18442642,40.8757955 C8.90824218,41.0064157 8.7848407,41.3175561 8.89795872,41.6008112 C9.56932149,43.2797951 11.9301092,49.2164119 15.781998,59.3431501 C19.8454322,70.0231898 22.1268904,84.9373802 31.6963807,86.1672652" id="Fill-105" fill="#E2E2FF"></path>
                                <path d="M76.2590029,101.435598 C76.2590029,101.435598 94.1742524,94.2147933 100.520614,92.981973" id="Stroke-107" stroke="#B5B6FF" stroke-width="0.769824" stroke-linecap="round"></path>
                                <path d="M91.2437612,68.3261539 C91.2437612,68.3261539 96.8849714,87.6975768 99.3530008,92.98256" id="Stroke-109" stroke="#B5B6FF" stroke-width="0.769824" stroke-linecap="round"></path>
                                <path d="M78.2301945,114.261625 C78.2301945,114.261625 87.6292733,112.79545 100.718644,109.361165" id="Stroke-111" stroke="#B5B6FF" stroke-width="0.769824" stroke-linecap="round"></path>
                                <path d="M35.2722322,66.0802195 C35.2722322,66.0802195 34.2145053,74.4017566 32.7601308,77.5718659" id="Stroke-113" stroke="#B5B6FF" stroke-width="0.769824" stroke-linecap="round"></path>
                                <line x1="75.0596581" y1="148.077259" x2="75.0596581" y2="186.603521" id="Path-2" stroke="#8B8DF3"></line>
                            </g>
                        </g>
                    </g>
                </g>
            </g>
        </g>
    </g>
</svg>