<?xml version="1.0" encoding="UTF-8"?>
<svg width="24px" height="24px" viewBox="0 0 24 24" version="1.1" xmlns="http://www.w3.org/2000/svg" xmlns:xlink="http://www.w3.org/1999/xlink">
    <title>74C48E5E-7ED1-4942-B4B1-A79B4A403A84@2x</title>
    <g id="Credit-Advisory-&amp;-Rectification-Copy" stroke="none" stroke-width="1" fill="none" fill-rule="evenodd">
        <g id="Desktop----Credit-plus-Advisory-with-Pre-Approved-Offers" transform="translate(-801.000000, -1329.000000)" fill-rule="nonzero" stroke-width="0.2">
            <g id="Group-22" transform="translate(442.000000, 1137.000000)">
                <g id="Group-18" transform="translate(360.000000, 32.000000)">
                    <g id="Shape" transform="translate(0.000000, 161.000000)">
                        <path d="M16.2115831,17.2873807 C16.0264488,15.7942736 15.0544936,14.5811241 13.7585534,14.0445387 C14.244531,13.4379639 14.5222324,12.6680806 14.5222324,11.8282078 C14.5222324,9.86850477 12.9485907,8.28207847 11.0046804,8.28207847 C9.06077005,8.28207847 7.48712835,9.86850477 7.48712835,11.8282078 C7.48712835,12.6680806 7.78797161,13.4379639 8.2739492,14.0445387 C6.97800897,14.5811241 5.98291202,15.7942736 5.82091949,17.2873807 L5.45065085,20.1802757 C5.38122548,20.7868505 5.77463591,21.3700954 6.37632244,21.5100742 C7.85739698,21.8366914 9.4078969,22 11.0046804,22 C12.5783221,22 14.1519638,21.8366914 15.6330383,21.5100742 C16.2347249,21.3934252 16.6281353,20.8101803 16.5587099,20.1802757 L16.2115831,17.2873807 Z M11.0046804,9.21527041 C12.4394714,9.21527041 13.5965608,10.3817603 13.5965608,11.8282078 C13.5965608,13.2746554 12.4394714,14.4411453 11.0046804,14.4411453 C9.56988942,14.4411453 8.41279994,13.2746554 8.41279994,11.8282078 C8.41279994,10.3817603 9.56988942,9.21527041 11.0046804,9.21527041 Z M15.447904,20.6002121 C12.6014639,21.2067869 9.43103869,21.2067869 6.58459855,20.6002121 C6.44574781,20.5768823 6.37632244,20.4369035 6.37632244,20.2969247 L6.72344929,17.4040297 C6.88544181,16.097561 7.83425519,15.0710498 9.03762826,14.7677625 C9.59303121,15.1410392 10.2641431,15.3743372 11.0046804,15.3743372 C11.7220759,15.3743372 12.4163296,15.1410392 12.9717325,14.7677625 C14.1982474,15.0710498 15.1470608,16.097561 15.2859115,17.4040297 L15.6330383,20.2969247 C15.6561801,20.4369035 15.563613,20.5768823 15.447904,20.6002121 Z" stroke="#052F5F" fill="#052F5F"></path>
                        <path d="M8.89877752,4.36267232 L8.55165068,5.85577943 C8.48222531,6.15906681 8.59793426,6.48568399 8.85249394,6.67232238 C8.99134468,6.76564157 9.15333721,6.81230117 9.31532974,6.81230117 C9.45418048,6.81230117 9.59303121,6.76564157 9.70874016,6.69565217 L11.0046804,5.90243902 L12.3006206,6.69565217 C12.5551803,6.85896076 12.9023071,6.83563097 13.1568668,6.67232238 C13.4114265,6.48568399 13.5271355,6.18239661 13.4577101,5.85577943 L13.1105833,4.36267232 L14.2676727,3.35949099 C14.4990906,3.1495228 14.5916578,2.82290562 14.4990906,2.54294804 C14.4065235,2.26299046 14.1519638,2.02969247 13.8279787,2.00636267 L12.3006206,1.88971368 L11.7220759,0.46659597 C11.6063669,0.186638388 11.3286654,0 11.0046804,0 C11.0046804,0 11.0046804,0 11.0046804,0 C10.7038371,0 10.4261356,0.186638388 10.2872849,0.46659597 L9.70874016,1.88971368 L8.18138204,2.00636267 C7.88053877,2.02969247 7.6028373,2.23966066 7.51027014,2.54294804 C7.41770298,2.84623542 7.51027014,3.1728526 7.74168804,3.35949099 L8.89877752,4.36267232 Z M9.87073269,2.79957582 C10.1484342,2.77624602 10.4029939,2.58960764 10.5187028,2.33297985 L11.0046804,1.16648993 L11.490658,2.33297985 C11.6063669,2.61293743 11.8609266,2.77624602 12.1386281,2.79957582 L13.3882847,2.89289502 L12.4394714,3.70943796 C12.2311952,3.89607635 12.1154863,4.19936373 12.1849117,4.47932131 L12.4626131,5.71580064 L11.3980908,5.06256628 C11.1435311,4.89925769 10.8426879,4.89925769 10.5881282,5.06256628 L9.52360585,5.71580064 L9.80130732,4.47932131 C9.87073269,4.19936373 9.77816553,3.89607635 9.54674764,3.70943796 L8.59793426,2.89289502 L9.87073269,2.79957582 Z" stroke="#BF10ED" fill="#BF10ED"></path>
                        <path d="M5.98291202,9.30858961 L5.63578517,7.8154825 L6.79287466,6.81230117 C7.02429255,6.60233298 7.11685971,6.2757158 7.02429255,5.99575822 C6.93172539,5.71580064 6.67716571,5.48250265 6.35318065,5.45917285 L4.82582253,5.34252386 L4.24727778,3.91940615 C4.13156884,3.63944857 3.85386736,3.45281018 3.5298823,3.45281018 C3.22903904,3.45281018 2.95133756,3.63944857 2.81248682,3.91940615 L2.23394208,5.34252386 L0.706583954,5.45917285 C0.405740687,5.48250265 0.12803921,5.69247084 0.0354720514,5.99575822 C-0.0570951075,6.2990456 0.0354720514,6.62566278 0.266889949,6.81230117 L1.42397944,7.8154825 L1.07685259,9.30858961 C1.00742722,9.61187699 1.12313617,9.93849417 1.37769586,10.1251326 C1.51654659,10.2184517 1.67853912,10.2651113 1.84053165,10.2651113 C1.97938239,10.2651113 2.11823313,10.2184517 2.23394208,10.1484624 L3.5298823,9.3552492 L4.82582253,10.1484624 C5.08038222,10.3117709 5.42750906,10.2884411 5.68206875,10.1251326 C5.93662844,9.93849417 6.05233738,9.61187699 5.98291202,9.30858961 Z M4.96467327,7.16224814 C4.75639716,7.34888653 4.64068821,7.65217391 4.71011358,7.9321315 L4.98781506,9.16861082 L3.92329273,8.51537646 C3.66873304,8.35206787 3.36788977,8.35206787 3.11333009,8.51537646 L2.04880776,9.16861082 L2.32650924,7.9321315 C2.39593461,7.65217391 2.30336745,7.34888653 2.07194955,7.16224814 L1.12313617,6.3457052 L2.37279282,6.252386 C2.65049429,6.2290562 2.90505398,6.04241782 3.02076293,5.78579003 L3.50674051,4.61930011 L3.9927181,5.78579003 C4.10842705,6.06574761 4.36298673,6.2290562 4.64068821,6.252386 L5.89034486,6.3457052 L4.96467327,7.16224814 Z" stroke="#BF10ED" fill="#BF10ED"></path>
                        <path d="M21.9507469,5.97242842 C21.8581798,5.66914104 21.6036201,5.45917285 21.279635,5.43584305 L19.7522769,5.31919406 L19.1737322,3.89607635 C19.0580232,3.61611877 18.7803217,3.42948038 18.4563367,3.42948038 C18.4563367,3.42948038 18.4563367,3.42948038 18.4563367,3.42948038 C18.1554934,3.42948038 17.8777919,3.61611877 17.7389412,3.89607635 L17.1603965,5.31919406 L15.6330383,5.43584305 C15.3321951,5.45917285 15.0544936,5.66914104 14.9619264,5.97242842 C14.8693593,6.2757158 14.9619264,6.60233298 15.1933443,6.78897137 L16.3504338,7.7921527 L16.003307,9.28525981 C15.9338816,9.58854719 16.0495906,9.91516437 16.3041502,10.1018028 C16.443001,10.195122 16.6049935,10.2417815 16.766986,10.2417815 C16.9058368,10.2417815 17.0446875,10.195122 17.1603965,10.1251326 L18.4563367,9.33191941 L19.7522769,10.1251326 C20.0068366,10.2884411 20.3539634,10.2651113 20.6085231,10.1018028 C20.8630828,9.91516437 20.9787918,9.61187699 20.9093664,9.28525981 L20.5622396,7.7921527 L21.719329,6.78897137 C21.9738887,6.60233298 22.0664559,6.2757158 21.9507469,5.97242842 Z M19.8911276,7.16224814 C19.6828515,7.34888653 19.5671426,7.65217391 19.636568,7.9321315 L19.9142694,9.16861082 L18.8728889,8.51537646 C18.6183292,8.35206787 18.3174859,8.35206787 18.0629263,8.51537646 L16.9984039,9.16861082 L17.2761054,7.9321315 C17.3455308,7.65217391 17.2529636,7.34888653 17.0215457,7.16224814 L16.0958741,6.3457052 L17.3455308,6.252386 C17.6232323,6.2290562 17.8777919,6.04241782 17.9935009,5.78579003 L18.4794785,4.61930011 L18.9654561,5.78579003 C19.081165,6.06574761 19.3357247,6.2290562 19.6134262,6.252386 L20.8630828,6.3457052 L19.8911276,7.16224814 Z" stroke="#BF10ED" fill="#BF10ED"></path>
                    </g>
                </g>
            </g>
        </g>
    </g>
</svg>