<?xml version="1.0" encoding="UTF-8"?>
<svg width="32px" height="32px" viewBox="0 0 32 32" version="1.1" xmlns="http://www.w3.org/2000/svg" xmlns:xlink="http://www.w3.org/1999/xlink">
    <title>8ADB713A-8B6E-4D0C-A73E-742D9E208545@2x</title>
    <g id="Final---Credit-Advisory-&amp;-Rectification" stroke="none" stroke-width="1" fill="none" fill-rule="evenodd">
        <g id="Mobile---Dashboard---Credit-plus-Advisory" transform="translate(-24.000000, -1054.000000)">
            <g id="Group-39" transform="translate(0.000000, 596.000000)">
                <g id="Group-33" transform="translate(24.000000, 334.000000)">
                    <g id="Group-32" transform="translate(0.000000, 64.000000)">
                        <g id="Group-22" transform="translate(0.000000, 59.000000)">
                            <g id="Group-26" transform="translate(0.000000, 1.000000)">
                                <circle id="Oval-Copy" fill="#F4F4F4" cx="16" cy="16" r="16"></circle>
                                <g id="noun_Favorite_4076912" transform="translate(5.000000, 8.000000)" fill-rule="nonzero">
                                    <path d="M11.944461,12.6923077 L1.15632159,12.6923077 C0.51825677,12.6923077 0,12.1713914 0,11.5302149 L0,1.16209279 C0,0.520945091 0.51825677,0 1.15632159,0 L17.4590773,0 C18.0971278,0 18.6153846,0.520945091 18.6153846,1.16209279 L18.6153846,5.49536509 C18.6153846,5.67837342 18.4677898,5.82797934 18.2843485,5.82797934 C18.1009072,5.82797934 17.953341,5.67969685 17.953341,5.49536509 L17.953341,1.16209279 C17.953341,0.888256406 17.7315623,0.665199727 17.4590773,0.665199727 L1.15632159,0.665199727 C0.882485257,0.665199727 0.660755192,0.888256406 0.660755192,1.16209279 L0.660755192,11.5302149 C0.660755192,11.8040513 0.882485257,12.027108 1.15632159,12.027108 L11.944461,12.027108 C12.1265853,12.027108 12.2754971,12.1753905 12.2754971,12.3597222 C12.2754971,12.5427305 12.1279023,12.6923077 11.944461,12.6923077 Z" id="Path" stroke="#052F5F" stroke-width="0.3" fill="#052F5F"></path>
                                    <path d="M18.2844,3.38461538 L0.331004619,3.38461538 C0.148901548,3.38461538 0,3.1943122 0,2.96152016 C0,2.72876473 0.147573143,2.53846154 0.331004619,2.53846154 L18.2844,2.53846154 C18.4664831,2.53846154 18.6153846,2.72704468 18.6153846,2.96152016 C18.6153846,3.19599565 18.4664831,3.38461538 18.2844,3.38461538 Z" id="Path" stroke="#052F5F" stroke-width="0.3" fill="#052F5F"></path>
                                    <path d="M6.45913602,10.1538462 L2.00240244,10.1538462 C1.83179937,10.1538462 1.69230769,9.96523458 1.69230769,9.73076923 C1.69230769,9.49798726 1.83056564,9.30769231 2.00240244,9.30769231 L6.45913602,9.30769231 C6.62971227,9.30769231 6.76923077,9.49630389 6.76923077,9.73076923 C6.76923077,9.96523458 6.63097282,10.1538462 6.45913602,10.1538462 Z" id="Path" stroke="#052F5F" stroke-width="0.3" fill="#052F5F"></path>
                                    <path d="M16.0006321,17 C12.6911297,17 10,14.3085978 10,10.9991634 C10,7.69143935 12.6911297,5 16.0006321,5 C19.3083869,5 22,7.69143935 22,10.9991634 C22,14.3085978 19.3083869,17 16.0006321,17 Z" id="Shape" stroke="#052F5F" fill="#FFFFFF"></path>
                                    <path d="M13.803472,15 C13.7121315,15 13.6190168,14.9700384 13.5420254,14.9101151 C13.3862298,14.7921638 13.3198074,14.5806177 13.3806753,14.3896374 L14.1187276,12.011901 L12.184455,10.5422482 C12.0286594,10.424297 11.9622756,10.2127508 12.0213691,10.0217706 C12.0804627,9.82893536 12.2524975,9.69973335 12.4459016,9.69973335 L14.836645,9.69973335 L15.5764331,7.32203723 C15.6355266,7.13105697 15.8075614,7 16.0009655,7 C16.1943696,7 16.3641672,7.12916169 16.4250737,7.32203723 L17.1630874,9.69973335 L19.5538308,9.69973335 C19.7472349,9.69973335 19.9174568,9.82893536 19.9783632,10.0217706 C20.0374568,10.2146058 19.9728473,10.424297 19.8170131,10.5422482 L17.8827791,12.011901 L18.6225286,14.3896374 C18.6816222,14.5824726 18.6170127,14.7921638 18.4612171,14.9101151 C18.3053829,15.0299616 18.0941196,15.0299616 17.9365496,14.9101151 L16.0027013,13.440422 L14.0684287,14.9101151 C13.9860757,14.9700384 13.8948124,15 13.803472,15 Z M13.8157381,10.6320928 L14.9031059,11.4577518 C15.0589015,11.575703 15.1248996,11.7872492 15.0639932,11.9782294 L14.6503768,13.3131153 L15.7355459,12.4874967 C15.8931545,12.3695454 16.1026435,12.3695454 16.2602134,12.4874967 L17.3476198,13.3131153 L16.9318048,11.9782294 C16.8727112,11.7853942 16.9373207,11.575703 17.0931549,11.4577518 L18.1800598,10.6320928 L16.8369157,10.6320928 C16.6435115,10.6320928 16.473714,10.5028908 16.4128075,10.3100556 L15.9987669,8.97516974 L15.5834147,10.3100556 C15.5243212,10.5028908 15.3522864,10.6320928 15.1588823,10.6320928 L13.8157381,10.6320928 Z" id="Shape" fill="#DB1072"></path>
                                </g>
                            </g>
                        </g>
                    </g>
                </g>
            </g>
        </g>
    </g>
</svg>