<?xml version="1.0" encoding="UTF-8"?>
<svg width="32px" height="32px" viewBox="0 0 32 32" version="1.1" xmlns="http://www.w3.org/2000/svg" xmlns:xlink="http://www.w3.org/1999/xlink">
    <title>419147FB-1EEC-4076-AFB5-28BD6CA8DF57@2x</title>
    <g id="Final---Credit-Advisory-&amp;-Rectification" stroke="none" stroke-width="1" fill="none" fill-rule="evenodd">
        <g id="Mobile---Dashboard---Credit-plus-Advisory" transform="translate(-24.000000, -995.000000)">
            <g id="Group-39" transform="translate(0.000000, 596.000000)">
                <g id="Group-33" transform="translate(24.000000, 334.000000)">
                    <g id="Group-32" transform="translate(0.000000, 64.000000)">
                        <g id="Group-18" transform="translate(0.000000, 1.000000)">
                            <circle id="Oval" fill="#F4F4F4" cx="16" cy="16" r="16"></circle>
                            <g id="Group-17" transform="translate(8.000000, 8.000000)" fill-rule="nonzero" stroke="#F3F3F3">
                                <path d="M16,1.19269474 C16,0.533987626 15.4660124,0 14.8073053,0 L10.0365263,0 C9.37781916,7.27260479e-16 8.84383153,0.533987626 8.84383153,1.19269474 C8.84383153,1.85140186 9.37781916,2.38538949 10.0365263,2.38538949 L11.9269474,2.38538949 L11.9269474,2.38538949 L0.843831532,13.4685054 C0.377796245,13.9345407 0.377796245,14.6901332 0.843831532,15.1561685 C1.30986682,15.6222038 2.06545931,15.6222038 2.5314946,15.1561685 L13.6146105,4.07305255 L13.6146105,4.07305255 L13.6146105,5.96347372 C13.6146105,6.62218084 14.1485981,7.15616847 14.8073053,7.15616847 C15.4660124,7.15616847 16,6.62218084 16,5.96347372 L16,1.19269474 L16,1.19269474 Z" id="Path" stroke-width="0.5" fill="#DB1072" transform="translate(8.000000, 8.000000) scale(-1, -1) translate(-8.000000, -8.000000) "></path>
                                <path d="M16,12.5714286 C16,10.6778809 14.4649763,9.14285714 12.5714286,9.14285714 C10.6778809,9.14285714 9.14285714,10.6778809 9.14285714,12.5714286 C9.14285714,14.4649763 10.6778809,16 12.5714286,16 C14.4649763,16 16,14.4649763 16,12.5714286 Z M11.4285714,12.5714286 C11.4285714,11.940246 11.940246,11.4285714 12.5714286,11.4285714 C13.2026111,11.4285714 13.7142857,11.940246 13.7142857,12.5714286 C13.7142857,13.2026111 13.2026111,13.7142857 12.5714286,13.7142857 C11.940246,13.7142857 11.4285714,13.2026111 11.4285714,12.5714286 Z" id="Shape" fill="#052F5F" transform="translate(12.571429, 12.571429) scale(-1, -1) translate(-12.571429, -12.571429) "></path>
                                <path d="M0,3.42857143 C0,5.32211914 1.53502371,6.85714286 3.42857143,6.85714286 C5.32211914,6.85714286 6.85714286,5.32211914 6.85714286,3.42857143 C6.85714286,1.53502371 5.32211914,0 3.42857143,0 C1.53502371,0 0,1.53502371 0,3.42857143 Z M4.57142857,3.42857143 C4.57142857,4.059754 4.059754,4.57142857 3.42857143,4.57142857 C2.79738886,4.57142857 2.28571429,4.059754 2.28571429,3.42857143 C2.28571429,2.79738886 2.79738886,2.28571429 3.42857143,2.28571429 C4.059754,2.28571429 4.57142857,2.79738886 4.57142857,3.42857143 Z" id="Shape" fill="#052F5F" transform="translate(3.428571, 3.428571) scale(-1, -1) translate(-3.428571, -3.428571) "></path>
                            </g>
                        </g>
                    </g>
                </g>
            </g>
        </g>
    </g>
</svg>