<?xml version="1.0" encoding="UTF-8"?>
<svg width="32px" height="32px" viewBox="0 0 32 32" version="1.1" xmlns="http://www.w3.org/2000/svg" xmlns:xlink="http://www.w3.org/1999/xlink">
    <title>9F32D0BF-80C6-48B5-9A40-D4B218C7B989@2x</title>
    <g id="Final---Credit-Advisory-&amp;-Rectification" stroke="none" stroke-width="1" fill="none" fill-rule="evenodd">
        <g id="Mobile---Dashboard---Credit-plus-Advisory" transform="translate(-164.000000, -1054.000000)">
            <g id="Group-39" transform="translate(0.000000, 596.000000)">
                <g id="Group-33" transform="translate(24.000000, 334.000000)">
                    <g id="Group-32" transform="translate(0.000000, 64.000000)">
                        <g id="Group-29" transform="translate(140.000000, 59.000000)">
                            <g id="Group-28" transform="translate(0.000000, 1.000000)">
                                <circle id="Oval-Copy" fill="#F4F4F4" cx="16" cy="16" r="16"></circle>
                                <g id="noun_talk_2902542" transform="translate(5.000000, 6.000000)" fill-rule="nonzero">
                                    <path d="M12.6964959,12.2637877 C12.6964959,12.381542 12.6481263,12.4944767 12.5619965,12.5777418 C12.4758667,12.6610069 12.3590461,12.7077798 12.2372398,12.7077699 L4.06953658,12.7077699 C3.90520186,12.7081432 3.75318431,12.6236031 3.67090492,12.4860815 C3.58862553,12.3485598 3.58862553,12.179018 3.67090492,12.0414964 C3.75318431,11.9039747 3.90520186,11.8194347 4.06953658,11.8198079 L12.2372398,11.8198079 C12.3590458,11.8197974 12.4758665,11.8665698 12.5619964,11.9498344 C12.6481262,12.0330991 12.6964959,12.1460336 12.6964959,12.2637877 Z" id="Path" stroke="#D90368" stroke-width="0.5" fill="#DB1072"></path>
                                    <path d="M4.06953658,8.91960559 L10.2118229,8.91960559 C10.465463,8.91960559 10.671079,8.72082962 10.671079,8.47562705 C10.671079,8.23042448 10.465463,8.03164851 10.2118229,8.03164851 L4.06953658,8.03164851 C3.90546017,8.03164851 3.75384731,8.11627033 3.6718091,8.25363777 C3.58977089,8.39100521 3.58977089,8.56024888 3.6718091,8.69761633 C3.75384731,8.83498377 3.90546017,8.91960559 4.06953658,8.91960559 Z" id="Path" stroke="#D90368" stroke-width="0.5" fill="#DB1072"></path>
                                    <path d="M19.5092652,0.499999683 C20.060729,0.500620867 20.5606041,0.715741277 20.9223061,1.06542777 C21.2777966,1.40910914 21.499394,1.88328262 21.5,2.40744957 L21.5,2.40744957 L21.5000003,9.36751923 C21.499394,9.89226357 21.2777969,10.3664368 20.9223068,10.7101181 C20.4334704,11.1827161 19.6922574,11.4095259 18.9124037,11.1932301 L18.9124037,11.1932301 L19.5879489,15.5011065 L15.6020634,11.8865892 C15.9942418,13.1004629 15.7955794,14.1196048 15.2380479,14.7348145 C14.8787137,15.131323 14.3737237,15.3529965 13.8165641,15.3535806 L13.8165641,15.3535806 L7.00032543,15.3535806 L3.13206029,18.7907654 L3.07413042,15.3069097 C2.28392689,15.4567307 1.56932935,15.2355269 1.09268813,14.7913488 C0.724499811,14.4482371 0.500615918,13.972532 0.5,13.4463626 L0.5,13.4463626 L0.499999666,6.4846766 C0.500606023,5.95993225 0.722203073,5.48575902 1.07769323,5.1420777 C1.43939485,4.79239125 1.93926941,4.57727065 2.49016911,4.57664926 L2.49016911,4.57664926 L6.19314221,4.57664926 L6.19314177,2.40802733 C6.19374813,1.88328299 6.41534518,1.40910976 6.77083533,1.06542844 C7.13253695,0.715741982 7.63241152,0.500621389 8.18331122,0.5 L8.18331122,0.5 Z" id="Path" stroke="#052F5F"></path>
                                    <path d="M19.5103808,0.350629335 C20.0907341,0.351270465 20.6153539,0.580141203 20.9955007,0.947671617 C21.3818593,1.32120775 21.6194645,1.83747794 21.6200905,2.40744957 L21.6200905,2.40744957 L21.6200902,9.36864876 C21.6194619,9.93806911 21.3818557,10.4543369 20.9954972,10.8278712 C20.6153507,11.1953997 20.0907322,11.424269 19.5098284,11.4249104 L19.5098284,11.4249104 L19.5225287,15.4768228 L15.8067332,12.1748214 L15.8067336,6.48466714 C15.8061272,5.9599228 15.5845302,5.48574957 15.22904,5.14206825 C14.8673384,4.79238179 14.3674638,4.5772612 13.8165641,4.57663981 L13.8165641,4.57663981 L6.07306125,4.57663981 L6.07306165,2.40688756 C6.07369092,1.83746784 6.31129742,1.3212008 6.69765577,0.947667217 C7.07780228,0.580139292 7.60242031,0.351270459 8.18332344,0.35062903 L8.18332344,0.35062903 Z" id="Path" stroke="#052F5F"></path>
                                </g>
                            </g>
                        </g>
                    </g>
                </g>
            </g>
        </g>
    </g>
</svg>