<?xml version="1.0" encoding="UTF-8"?>
<svg width="17px" height="23px" viewBox="0 0 17 23" version="1.1" xmlns="http://www.w3.org/2000/svg" xmlns:xlink="http://www.w3.org/1999/xlink">
    <title>18CC5EEC-4B53-4FDC-AF46-00807309D26A@2x</title>
    <g id="Credit-Advisory-&amp;-Rectification-Copy" stroke="none" stroke-width="1" fill="none" fill-rule="evenodd">
        <g id="Desktop----Credit-plus-Advisory-with-Pre-Approved-Offers" transform="translate(-802.000000, -1253.000000)">
            <g id="Group-22" transform="translate(442.000000, 1137.000000)">
                <g id="Group-18" transform="translate(360.000000, 32.000000)">
                    <g id="Group-38" transform="translate(0.000000, 84.000000)">
                        <rect id="Rectangle" stroke="#052F5F" stroke-width="1.2" x="0.6" y="0.6" width="15.8" height="21.8" rx="3"></rect>
                        <g id="Group-37" transform="translate(5.000000, 4.000000)" stroke-linecap="round" stroke-linejoin="round">
                            <path d="M6.1786234,4.75300215 C6.45699013,4.75300215 6.69059872,4.97752667 6.64802692,5.24615782 C6.39837141,6.82657819 5.01404559,8 3.34442276,8 C1.49721945,8 0,6.53674038 0,4.73179549 C0,3.24474894 1.15591494,1.85954273 2.45730001,1.54634535 C2.73694554,1.47886704 3.02353374,1.67111389 3.02353374,1.95248516 C3.02353374,3.85881482 3.08910338,4.35197049 3.45951511,4.62019846 C3.82991446,4.88838612 4.26540906,4.75300215 6.1786234,4.75300215 Z" id="Path" stroke="#062F5F"></path>
                            <path d="M7.99976387,3.16551424 C8.02191605,1.9407328 6.4825662,-0.0335186546 4.60672593,0.00043216157 C4.46081854,0.00297615457 4.34399362,0.121806027 4.33747584,0.263975322 C4.2901601,1.27104982 4.35397654,2.57604163 4.38961804,3.16763894 C4.40046724,3.35183048 4.54851973,3.49652764 4.73654515,3.50713097 C5.35878636,3.54196473 6.74269966,3.58949829 7.7583587,3.4392374 C7.89642826,3.4188774 7.99761877,3.30175696 7.99976387,3.16551424 Z" id="Path" stroke="#BF10ED"></path>
                        </g>
                        <rect id="Rectangle" fill="#BF10ED" x="2" y="15" width="13" height="1.5" rx="0.75"></rect>
                        <rect id="Rectangle-Copy-4" fill="#BF10ED" x="2" y="18" width="13" height="1.5" rx="0.75"></rect>
                    </g>
                </g>
            </g>
        </g>
    </g>
</svg>