<?xml version="1.0" encoding="UTF-8"?>
<svg width="20px" height="20px" viewBox="0 0 20 20" version="1.1" xmlns="http://www.w3.org/2000/svg" xmlns:xlink="http://www.w3.org/1999/xlink">
    <title>92DA6A8C-7426-48BF-8A5D-7139B6B5859B@2x</title>
    <g id="Credit-Advisory-&amp;-Rectification-Copy" stroke="none" stroke-width="1" fill="none" fill-rule="evenodd">
        <g id="Desktop----Credit-plus-Advisory-with-Pre-Approved-Offers" transform="translate(-802.000000, -1292.000000)">
            <g id="Group-22" transform="translate(442.000000, 1137.000000)">
                <g id="Group-18" transform="translate(360.000000, 32.000000)">
                    <g id="icon" transform="translate(0.000000, 123.000000)">
                        <rect id="Rectangle" stroke="#052F5F" stroke-width="1.2" x="0.6" y="0.6" width="18.8" height="18.8" rx="3"></rect>
                        <path d="M4.99636279,13.875969 L4.99636279,9.16124961 C4.99636279,8.70101232 5.36945883,8.32791628 5.82969612,8.32791628 C6.28993342,8.32791628 6.66302946,8.70101232 6.66302946,9.16124961 L6.66302946,13.875969 C6.66302946,14.3362063 6.28993342,14.7093023 5.82969612,14.7093023 C5.36945883,14.7093023 4.99636279,14.3362063 4.99636279,13.875969 Z" id="Path" fill="#BF10ED"></path>
                        <path d="M9.33776744,13.8750388 L9.33776744,6.10631938 C9.33776744,5.64608209 9.71086348,5.27298605 10.1711008,5.27298605 C10.6313381,5.27298605 11.0044341,5.64608209 11.0044341,6.10631938 L11.0044341,13.8750388 C11.0044341,14.3352761 10.6313381,14.7083721 10.1711008,14.7083721 C9.71086348,14.7083721 9.33776744,14.3352761 9.33776744,13.8750388 Z" id="Path" fill="#BF10ED"></path>
                        <path d="M13.6791721,13.8750388 L13.6791721,10.8666667 C13.6791721,10.4064294 14.0522681,10.0333333 14.5125054,10.0333333 C14.9727427,10.0333333 15.3458388,10.4064294 15.3458388,10.8666667 L15.3458388,13.8750388 C15.3458388,14.3352761 14.9727427,14.7083721 14.5125054,14.7083721 C14.0522681,14.7083721 13.6791721,14.3352761 13.6791721,13.8750388 Z" id="Path" fill="#BF10ED"></path>
                    </g>
                </g>
            </g>
        </g>
    </g>
</svg>