<?xml version="1.0" encoding="UTF-8"?>
<svg width="36px" height="36px" viewBox="0 0 36 36" version="1.1" xmlns="http://www.w3.org/2000/svg" xmlns:xlink="http://www.w3.org/1999/xlink">
    <title>61126FAE-D0D2-4D32-A1B0-2ED2B7EBA3C7@1x</title>
    <g id="Credit-Alerts" stroke="none" stroke-width="1" fill="none" fill-rule="evenodd">
        <g id="Desktop---credit-alerts-page" transform="translate(-435.000000, -674.000000)">
            <g id="Group-22" transform="translate(435.000000, 674.000000)">
                <rect id="Rectangle" fill="#FFFFFF" opacity="0.0599999987" x="0" y="0" width="36" height="36" rx="6"></rect>
                <path d="M26.1415647,26.289836 C26.1415647,26.6820487 25.8218138,27 25.427381,27 L9.71533868,27 C9.3209059,27 9.00115494,26.6820487 9.00115494,26.289836 C9.00115494,25.8976232 9.3209059,25.5796719 9.71533868,25.5796719 L25.427381,25.5796719 C25.8218138,25.5796719 26.1415647,25.8976232 26.1415647,26.289836 Z M9.20898241,16.0293861 C8.89510192,15.4504664 8.93741397,14.7448348 9.31825252,14.2071052 C9.6233934,13.7619153 10.0320396,13.3964961 10.509511,13.1418592 L15.8666032,10.3693788 C16.9351908,9.81685229 18.2075289,9.81685229 19.2761164,10.3693788 L24.6324945,13.1439897 C25.1099659,13.3986266 25.5186121,13.7640458 25.823753,14.2092357 C26.2045915,14.7469653 26.2469036,15.4525969 25.9330231,16.0315166 C25.5953045,16.6667585 24.9301515,17.0623448 24.2075552,17.0577036 L23.9990135,17.0577036 L23.9990135,22.7390158 L24.7131973,22.7390158 C25.10763,22.7390158 25.427381,23.0569671 25.427381,23.4491799 C25.427381,23.8413926 25.10763,24.1593439 24.7131973,24.1593439 L10.4295224,24.1593439 C10.0350896,24.1593439 9.71533868,23.8413926 9.71533868,23.4491799 C9.71533868,23.0569671 10.0350896,22.7390158 10.4295224,22.7390158 L11.1437062,22.7390158 L11.1437062,17.0577036 L10.9351645,17.0577036 C10.2118467,17.0621952 9.54623879,16.6656807 9.20898241,16.0293861 Z M12.5720736,22.7390158 L14.7146249,22.7390158 L14.7146249,17.0577036 L12.5720736,17.0577036 L12.5720736,22.7390158 Z M16.1429924,17.0577036 L16.1429924,22.7390158 L18.9997273,22.7390158 L18.9997273,17.0577036 L16.1429924,17.0577036 Z M22.570646,17.0577036 L20.4280948,17.0577036 L20.4280948,22.7390158 L22.570646,22.7390158 L22.570646,17.0577036 Z M10.474516,15.3710641 C10.5658677,15.5385397 10.7436022,15.6412921 10.9351645,15.6373756 L24.2075552,15.6373756 C24.3991175,15.6412921 24.576852,15.5385397 24.6682037,15.3710641 C24.7349401,15.2600754 24.7281835,15.1201044 24.6510633,15.015982 C24.4780215,14.7602603 24.245534,14.5497876 23.9733029,14.4024003 L18.6169248,11.6277895 C17.9618413,11.2897255 17.1823067,11.2897255 16.5272232,11.6277895 L11.1708451,14.4024003 C10.8987297,14.5502623 10.6662949,14.7609309 10.4930848,15.0166922 C10.415828,15.1203678 10.4085132,15.259966 10.474516,15.3710641 Z M28.3855912,8 L27.1567736,8 L25.927956,8 L24.6991384,8 C24.3598098,8 24.0847296,8.27352379 24.0847296,8.61093248 C24.0847296,8.94834117 24.3598098,9.22186495 24.6991384,9.22186495 L25.927956,9.22186495 L27.1567736,9.22186495 L28.3855912,9.22186495 C28.7249198,9.22186495 29,8.94834117 29,8.61093248 C29,8.27352379 28.7249198,8 28.3855912,8 Z" id="Combined-Shape" fill="#052F5F" fill-rule="nonzero"></path>
            </g>
        </g>
    </g>
</svg>