<?xml version="1.0" encoding="UTF-8"?>
<svg width="133px" height="98px" viewBox="0 0 133 98" version="1.1" xmlns="http://www.w3.org/2000/svg" xmlns:xlink="http://www.w3.org/1999/xlink">
    <title>BE3678FD-11E9-44EF-8CAA-09C2822C4EF4</title>
    <defs>
        <polygon id="path-1" points="0 0.049350502 12.7073475 0.049350502 12.7073475 11.4703508 0 11.4703508"></polygon>
        <polygon id="path-3" points="0 0.0066897752 12.6027442 0.0066897752 12.6027442 11.9113894 0 11.9113894"></polygon>
        <polygon id="path-5" points="0.117855212 0.0698054342 8.12658992 0.0698054342 8.12658992 8.0262193 0.117855212 8.0262193"></polygon>
        <polygon id="path-7" points="0.0533961168 0.0798379137 80.4580391 0.0798379137 80.4580391 81.346765 0.0533961168 81.346765"></polygon>
    </defs>
    <g id="Page-1" stroke="none" stroke-width="1" fill="none" fill-rule="evenodd">
        <g id="Thank-you-for-requesting-a-call" transform="translate(-654.000000, -190.000000)">
            <g id="Group-3" transform="translate(540.000000, 150.000000)">
                <g id="verified-icon" transform="translate(114.000000, 40.000000)">
                    <g id="Group-2">
                        <g id="Group-3" transform="translate(13.977567, 78.688525)">
                            <mask id="mask-2" fill="white">
                                <use xlink:href="#path-1"></use>
                            </mask>
                            <g id="Clip-2"></g>
                            <path d="M6.5903834,0.188212604 L8.34934207,3.54898179 C8.38778038,3.6226672 8.46213054,3.67337909 8.54803023,3.68529128 L12.4810091,4.2242328 C12.697563,4.25401327 12.7840041,4.50467979 12.6273634,4.64881729 L9.78148489,7.26473424 C9.71922566,7.32191276 9.69089319,7.40427704 9.70551058,7.48493959 L10.3773689,11.1787396 C10.4143635,11.3820977 10.1878843,11.5372965 9.99424905,11.4411481 L6.47651217,9.69720347 C6.39963555,9.65908446 6.30778063,9.65908446 6.23090401,9.69720347 L2.71316713,11.4411481 C2.51935143,11.5371263 2.29305266,11.3820977 2.33004727,11.1787396 L3.0019056,7.48493959 C3.01670345,7.40410687 2.98837099,7.32174258 2.92593129,7.26473424 L0.0800527409,4.64881729 C-0.0767683408,4.50484996 0.00985320031,4.2538431 0.226407053,4.2242328 L4.15938594,3.68529128 C4.2454661,3.67337909 4.31981626,3.62249702 4.3580741,3.54898179 L6.11703277,0.188212604 C6.21376016,0.00306313461 6.49365602,0.00306313461 6.5903834,0.188212604" id="Fill-1" fill="#F9DE8F" mask="url(#mask-2)"></path>
                        </g>
                        <path d="M126.61909,73.0431731 L128.39265,76.4483924 C128.431408,76.52288 128.506375,76.5742626 128.59317,76.5863323 L132.558798,77.132402 C132.77715,77.1625764 132.864127,77.4165582 132.706186,77.5627745 L129.836864,80.2132901 C129.774088,80.2712249 129.74552,80.3545061 129.760259,80.4364079 L130.437513,84.1790628 C130.474815,84.3849381 130.246637,84.5421896 130.051213,84.444942 L126.504273,82.6779316 C126.426759,82.639136 126.334323,82.639136 126.256808,82.6779316 L122.709869,84.444942 C122.514262,84.5420172 122.286267,84.3849381 122.323569,84.1790628 L123.000822,80.4364079 C123.015743,80.3543337 122.987175,80.2710524 122.924217,80.2132901 L120.054896,77.5627745 C119.896773,77.4167307 119.983932,77.1624039 120.202283,77.132402 L124.167912,76.5863323 C124.254888,76.5742626 124.329856,76.5227075 124.368431,76.4483924 L126.141992,73.0431731 C126.239158,72.8557472 126.521378,72.8557472 126.61909,73.0431731" id="Fill-4" fill="#F9DE8F"></path>
                        <path d="M30.8671268,8.1002893 C33.1186942,8.1002893 34.9439172,9.91358273 34.9439172,12.1504339 C34.9439172,14.3872852 33.1186942,16.2005786 30.8671268,16.2005786 C28.6155595,16.2005786 26.7903365,14.3872852 26.7903365,12.1504339 C26.7903365,9.91358273 28.6155595,8.1002893 30.8671268,8.1002893" id="Fill-6" fill="#67D1D3"></path>
                        <path d="M87.9422765,0 C90.1938147,0 92.0189819,1.81336905 92.0189819,4.05014465 C92.0189819,6.28708914 90.1938147,8.1002893 87.9422765,8.1002893 C85.6905684,8.1002893 83.8654012,6.28708914 83.8654012,4.05014465 C83.8654012,1.81336905 85.6905684,0 87.9422765,0" id="Fill-8" fill="#67D1D3"></path>
                        <g id="Group-3" transform="translate(119.974116, 23.143684)">
                            <mask id="mask-4" fill="white">
                                <use xlink:href="#path-3"></use>
                            </mask>
                            <g id="Clip-2"></g>
                            <path d="M8.0551306,6.2495108 C7.6924198,6.596465 7.52751275,7.09563584 7.61349596,7.58303377 L7.75454232,8.38926946 L7.01514315,8.0079661 C6.79178445,7.89300723 6.54682406,7.83566629 6.30186368,7.83566629 C6.05647972,7.83566629 5.8108134,7.89342274 5.58674876,8.00865863 L4.84862028,8.38926946 L4.98924308,7.58511134 C5.07550867,7.09563584 4.91088399,6.5963265 4.548032,6.24923379 L3.95080869,5.67831754 L4.77604989,5.56045007 C5.27641854,5.48925866 5.70901718,5.18094727 5.93279944,4.73620877 L6.30186368,4.00254953 L6.66965723,4.73371569 C6.89287474,5.17997773 7.32575575,5.48925866 7.82739509,5.56045007 L8.65263629,5.67831754 L8.0551306,6.2495108 Z M11.2866311,3.41792131 L8.79396502,3.06251833 L7.67914817,0.846443594 L7.67900698,0.84630509 C7.41823359,0.328436125 6.89061573,0.0066897752 6.3015813,0.0066897752 L6.30087536,0.0066897752 C5.71184093,0.00682827987 5.18408189,0.329128649 4.92401443,0.846443594 L3.80919758,3.06237982 L1.31624912,3.41778281 C0.733568123,3.50088561 0.258330849,3.89382336 0.0763401051,4.44327139 C-0.105650639,4.99258091 0.0431610322,5.58441137 0.464888227,5.98787548 L2.26884148,7.71267415 L1.84301984,10.1485558 C1.63279159,11.3539619 2.96348419,12.3089516 4.07180642,11.7367889 L6.30129893,10.5867846 L8.53050906,11.7365118 C9.05163228,12.0053494 9.67172798,11.9618589 10.1482359,11.622384 C10.6248851,11.282909 10.8592564,10.718087 10.759578,10.1482788 L10.3338976,7.71253564 L12.137992,5.98745997 C12.559578,5.58413436 12.7083897,4.99258091 12.5263989,4.44313289 C12.3444082,3.89354635 11.8697357,3.50088561 11.2866311,3.41792131 L11.2866311,3.41792131 Z" id="Fill-1" fill="#455C76" mask="url(#mask-4)"></path>
                        </g>
                        <g id="Group-6" transform="translate(0.000000, 45.130183)">
                            <mask id="mask-6" fill="white">
                                <use xlink:href="#path-5"></use>
                            </mask>
                            <g id="Clip-5"></g>
                            <path d="M4.12222257,5.78255828 C3.15950052,5.78255828 2.37615725,5.0043349 2.37615725,4.04778603 C2.37615725,3.09147541 3.15950052,2.31313291 4.12222257,2.31313291 C5.08494462,2.31313291 5.86828789,3.09147541 5.86828789,4.04778603 C5.86828789,5.0043349 5.08506452,5.78255828 4.12222257,5.78255828 M4.12222257,0.0697101367 C1.91428088,0.0697101367 0.117855212,1.85451359 0.117855212,4.04790516 C0.117855212,6.24153497 1.91428088,8.0262193 4.12222257,8.0262193 C6.33016425,8.0262193 8.12658992,6.24153497 8.12658992,4.04790516 C8.12658992,1.85451359 6.33016425,0.0697101367 4.12222257,0.0697101367" id="Fill-4" fill="#455C76" mask="url(#mask-6)"></path>
                        </g>
                        <g id="Group-14" transform="translate(27.955134, 13.886210)">
                            <g id="Group-3" transform="translate(4.543430, 1.558709)">
                                <mask id="mask-8" fill="white">
                                    <use xlink:href="#path-7"></use>
                                </mask>
                                <g id="Clip-2"></g>
                                <path d="M80.4580391,40.713203 C80.4580391,63.1546325 62.4589177,81.3467868 40.2558258,81.3467868 C18.0525175,81.3467868 0.0533961168,63.1546325 0.0533961168,40.713203 C0.0533961168,18.2719923 18.0525175,0.0798379137 40.2558258,0.0798379137 C62.4589177,0.0798379137 80.4580391,18.2719923 80.4580391,40.713203" id="Fill-1" fill="#D8F4F8" mask="url(#mask-8)"></path>
                            </g>
                            <path d="M80.4047944,40.6335619 C80.4047944,63.0747727 62.4056731,81.2671457 40.2023648,81.2671457 C17.9992728,81.2671457 -6.49061388e-05,63.0747727 -6.49061388e-05,40.6335619 C-6.49061388e-05,18.1921325 17.9992728,-2.18674086e-05 40.2023648,-2.18674086e-05 C62.4056731,-2.18674086e-05 80.4047944,18.1921325 80.4047944,40.6335619" id="Fill-4" fill="#62C1C5"></path>
                            <path d="M80.4047944,40.6335619 C80.4047944,63.0747727 62.4056731,81.2671457 40.2023648,81.2671457 C17.9992728,81.2671457 -6.49061388e-05,63.0747727 -6.49061388e-05,40.6335619 C-6.49061388e-05,18.1921325 17.9992728,-2.18674086e-05 40.2023648,-2.18674086e-05 C62.4056731,-2.18674086e-05 80.4047944,18.1921325 80.4047944,40.6335619 Z" id="Stroke-6" stroke="#388A8E" stroke-width="1.15718419" stroke-linecap="round" stroke-linejoin="round" stroke-dasharray="3.866754174232483,3.038164079189301"></path>
                            <path d="M69.7202271,40.6335619 C69.7202271,57.1106553 56.5046882,70.4679253 40.2024297,70.4679253 C23.9001711,70.4679253 10.6846322,57.1106553 10.6846322,40.6335619 C10.6846322,24.1564685 23.9001711,10.7991985 40.2024297,10.7991985 C56.5046882,10.7991985 69.7202271,24.1564685 69.7202271,40.6335619" id="Fill-8" fill="#ACD9E0"></path>
                            <path d="M69.7202271,40.6335619 C69.7202271,57.1106553 56.5046882,70.4679253 40.2024297,70.4679253 C23.9001711,70.4679253 10.6846322,57.1106553 10.6846322,40.6335619 C10.6846322,24.1564685 23.9001711,10.7991985 40.2024297,10.7991985 C56.5046882,10.7991985 69.7202271,24.1564685 69.7202271,40.6335619 Z" id="Stroke-10" stroke="#388A8E" stroke-width="1.15718419"></path>
                        </g>
                    </g>
                    <g id="Group-3" transform="translate(53.580673, 43.972999)" fill="#388A8E">
                        <path d="M27.8409289,0.810385889 L12.0230094,16.463396 L4.77339377,9.289092 C3.68157071,8.20863898 1.91101659,8.20845451 0.819007109,9.28890753 C-0.27300237,10.369545 -0.27300237,12.1214764 0.819007109,13.2021139 L10.0457229,22.3331133 C10.5701037,22.8520333 11.2812707,23.1436837 12.022823,23.1436837 L12.0230094,23.1436837 C12.7645618,23.1436837 13.4757288,22.8520333 14.0001096,22.3332978 L31.7953156,4.72377677 C32.8873251,3.64313927 32.8873251,1.89120785 31.7953156,0.810570361 C30.7031197,-0.270067131 28.9329384,-0.270251603 27.8409289,0.810385889" id="Fill-1"></path>
                    </g>
                </g>
            </g>
        </g>
    </g>
</svg>